<svg width="120" height="120" viewBox="0 0 120 120" fill="none" xmlns="http://www.w3.org/2000/svg">
<path d="M47.2302 73.4065C48.4938 78.5812 53.9599 87.9818 65.3779 86.0304C74.2958 84.5062 77.4807 79.1527 79.4406 75.5282C81.3208 72.0509 85.7902 59.6837 81.3311 56.3669C77.1422 53.251 76.5511 60.4234 73.9386 63.4394C71.2003 66.6009 68.2293 65.7956 66.8161 62.087C65.4535 58.5113 65.5392 53.9081 69.4068 54.4717C72.3783 54.9047 73.3577 61.3799 75.8021 59.1371C80.0241 55.2634 73.7494 42.3127 66.2558 43.776C60.8916 44.8235 59.0714 53.7295 59.5776 51.5756C60.6978 46.8087 55.5214 36.4541 51.5942 36.2348C45.2475 35.8805 48.4275 44.8433 48.4275 44.8433C48.4275 44.8433 45.1635 41.3348 43.06 43.9317C41.0984 46.3536 43.0624 51.3621 43.0624 51.3621C43.0624 51.3621 39.958 51.1746 40.0004 53.7368C40.0428 56.2989 43.0999 57.9417 44.9647 63.4423C45.8611 66.0862 47.2302 73.4065 47.2302 73.4065Z" fill="#22093A" stroke="#22093A" stroke-miterlimit="10" stroke-linecap="round" stroke-linejoin="round"/>
<path d="M43.0625 51.3623C44.2597 52.2003 45.8057 54.4881 46.7217 56.0396C48.3519 58.8006 49.6924 63.8675 49.6924 63.8675" fill="#22093A"/>
<path d="M43.0625 51.3623C44.2597 52.2003 45.8057 54.4881 46.7217 56.0396C48.3519 58.8006 49.6924 63.8675 49.6924 63.8675" stroke="#22093A" stroke-miterlimit="10" stroke-linecap="round" stroke-linejoin="round"/>
<path d="M48.0801 44.4912C48.0801 44.4912 50.521 47.2446 51.5458 50.5238C53.3577 56.3219 53.5583 57.7385 53.9087 60.4214" fill="#22093A"/>
<path d="M48.0801 44.4912C48.0801 44.4912 50.521 47.2446 51.5458 50.5238C53.3577 56.3219 53.5583 57.7385 53.9087 60.4214" stroke="#22093A" stroke-miterlimit="10" stroke-linecap="round" stroke-linejoin="round"/>
<path d="M60.1677 49.6646C59.3354 51.8487 58.7787 55.0789 58.9572 57.7264L60.1677 49.6646Z" fill="#22093A"/>
<path d="M60.1677 49.6646C59.3354 51.8487 58.7787 55.0789 58.9572 57.7264" stroke="#22093A" stroke-miterlimit="10" stroke-linecap="round" stroke-linejoin="round"/>
<path d="M27.5379 41.2345C24.4562 40.5872 9.58751 38.0095 8.04968 45.7396C7.24919 49.763 11.1631 53.4982 16.0304 55.9462C21.311 58.6022 29.5455 60.9861 30.4391 57.865C31.1479 55.3896 28.0182 53.0514 24.6683 51.3172C24.7235 51.1911 25.4735 49.2913 25.4735 49.2913C29.0033 49.3549 33.4491 49.0239 33.4175 46.6052C33.3837 44.0066 30.3868 41.833 27.5379 41.2345ZM21.1961 49.7593C18.6616 48.6561 17.5663 48.3958 17.5663 48.3958C17.5663 48.3958 18.8219 48.458 21.5995 48.7196L21.1961 49.7593Z" fill="#22093A" stroke="#22093A" stroke-miterlimit="10" stroke-linecap="round" stroke-linejoin="round"/>
<path d="M35.74 42.7433C37.5484 40.3095 35.2311 37.5888 33.9357 35.0281C36.4782 35.6346 39.6308 37.1968 41.3761 34.7952C43.3934 32.0194 41.0232 27.2568 37.3489 23.0378C33.3624 18.4605 27.286 13.0133 24.8413 15.9094C22.0228 19.2484 30.6938 27.6221 30.6938 27.6221C30.6938 27.6221 24.1358 22.3024 21.8449 25.3619C19.2292 28.8553 25.9154 33.7433 25.9154 33.7433C25.9154 33.7433 16.4778 26.8395 13.6626 30.7446C12.3758 32.5294 13.9943 35.2148 16.414 37.0321C19.0315 38.9978 31.8079 48.0349 35.74 42.7433Z" fill="#22093A" stroke="#22093A" stroke-miterlimit="10" stroke-linecap="round" stroke-linejoin="round"/>
<path d="M51.249 6.12831C49.2146 4.42112 39.1138 7.78071 38.6008 14.3345C38.2661 18.6109 40.474 33.0125 47.3338 31.9688C54.1937 30.9252 59.1329 27.4493 57.867 23.948C56.601 20.4467 48.3766 23.4297 48.3766 23.4297C48.3766 23.4297 55.2477 20.3617 54.1816 16.6421C53.1154 12.9225 46.2255 16.9661 46.2255 16.9661C46.2255 16.9661 56.7074 10.7088 51.249 6.12831Z" fill="#22093A" stroke="#22093A" stroke-miterlimit="10" stroke-linecap="round" stroke-linejoin="round"/>
<path d="M70.5118 10.0382C70.5453 7.24246 68.9413 3.88912 62.8328 4.06947C55.7537 4.27848 52.1733 12.364 58.7099 15.693C66.4132 19.6161 63.3416 23.1385 59.979 20.5459C55.0377 16.7361 50.2891 24.7885 56.6045 28.21C62.9199 31.6315 70.15 28.0173 71.1495 23.9288C73.043 16.1844 67.1243 14.6421 64.4109 13.2873C64.4109 13.2873 70.4606 14.3054 70.5118 10.0382Z" fill="#22093A" stroke="#22093A" stroke-miterlimit="10" stroke-linecap="round" stroke-linejoin="round"/>
<path d="M83.811 8.22685C87.7626 9.45554 92.2295 15.4302 89.0108 22.8017C85.7922 30.1733 79.5906 31.8331 75.2786 30.4576C71.388 29.2166 67.3942 24.3904 70.5593 16.434C73.1523 9.91562 78.0068 6.42215 83.811 8.22685Z" fill="#22093A" stroke="#22093A" stroke-miterlimit="10" stroke-linecap="round" stroke-linejoin="round"/>
<path d="M82.2217 14.2758C82.8879 14.1994 83.1261 15.9512 81.6436 19.3695C80.1612 22.7877 78.7129 24.3459 77.9899 24.4154C77.3376 24.4781 77.0667 23.1186 78.6039 19.4736C79.8633 16.4874 81.2433 14.3881 82.2217 14.2758Z" fill="#22093A" stroke="#22093A" stroke-miterlimit="10" stroke-linecap="round" stroke-linejoin="round"/>
<path d="M105.976 28.7836C104.033 26.6837 101.106 28.3614 98.5062 29.1187C99.5101 26.8653 101.506 24.2119 99.5813 22.1761C97.3563 19.8231 92.5269 21.1954 87.9756 23.8718C83.0376 26.7756 76.93 31.4673 79.1925 34.2377C81.8008 37.4317 91.0735 30.841 91.0735 30.841C91.0735 30.841 85.0005 36.0015 87.4413 38.6576C90.2281 41.6902 95.9227 36.3359 95.9227 36.3359C95.9227 36.3359 87.8806 43.8928 91.0147 47.182C92.4472 48.6854 95.2191 47.65 97.3248 45.7207C99.6026 43.6336 110.203 33.3495 105.976 28.7836Z" fill="#22093A" stroke="#22093A" stroke-miterlimit="10" stroke-linecap="round" stroke-linejoin="round"/>
<path d="M116.065 53.0245C117.859 51.066 114.94 40.8291 108.415 40.0325C104.157 39.5127 89.6731 41.0942 90.4184 47.9929C91.1637 54.8916 94.4222 59.9768 97.9751 58.8638C101.528 57.7508 98.9043 49.4048 98.9043 49.4048C98.9043 49.4048 101.671 56.4025 105.434 55.4985C109.196 54.5946 105.455 47.5359 105.455 47.5359C105.455 47.5359 111.252 58.2792 116.065 53.0245Z" fill="#22093A" stroke="#22093A" stroke-miterlimit="10" stroke-linecap="round" stroke-linejoin="round"/>
<path d="M87.3898 80.641C85.4227 82.9483 87.553 85.818 88.6742 88.4595C86.1779 87.6843 83.1369 85.9149 81.2349 88.1943C79.0365 90.8291 81.0829 95.7395 84.4669 100.195C88.1383 105.028 93.8369 110.87 96.4698 108.144C99.5053 105 91.4136 96.0657 91.4136 96.0657C91.4136 96.0657 97.6012 101.812 100.092 98.9125C102.935 95.6019 96.5906 90.2777 96.5906 90.2777C96.5906 90.2777 105.545 97.7972 108.616 94.0891C110.019 92.3943 108.583 89.6067 106.291 87.6317C103.811 85.4953 91.667 75.6241 87.3898 80.641Z" fill="#22093A" stroke="#22093A" stroke-miterlimit="10" stroke-linecap="round" stroke-linejoin="round"/>
<path d="M72.9551 115.735C74.9895 117.442 85.0903 114.083 85.6033 107.529C85.9381 103.253 83.7302 88.8511 76.8703 89.8947C70.0105 90.9384 65.0712 94.4143 66.3372 97.9156C67.6032 101.417 75.8276 98.4339 75.8276 98.4339C75.8276 98.4339 68.9564 101.502 70.0226 105.221C71.0887 108.941 77.9786 104.897 77.9786 104.897C77.9786 104.897 67.4967 111.155 72.9551 115.735Z" fill="#22093A" stroke="#22093A" stroke-miterlimit="10" stroke-linecap="round" stroke-linejoin="round"/>
<path d="M53.9945 111.968C54.2043 114.756 56.0938 117.957 62.1635 117.246C69.1975 116.422 72.0613 108.056 65.2599 105.308C57.2447 102.07 59.9983 98.2935 63.5736 100.584C68.8275 103.95 72.8579 95.5148 66.2689 92.6554C59.6799 89.796 52.7915 94.0253 52.1513 98.1852C50.9384 106.065 56.9689 107.087 59.7898 108.2C59.7898 108.2 53.6744 107.712 53.9945 111.968Z" fill="#22093A" stroke="#22093A" stroke-miterlimit="10" stroke-linecap="round" stroke-linejoin="round"/>
<path d="M39.5702 113.57C35.6186 112.341 31.1517 106.367 34.3703 98.9951C37.5889 91.6235 43.7906 89.9637 48.1025 91.3392C51.9931 92.5802 55.987 97.4064 52.8219 105.363C50.2288 111.881 45.3743 115.375 39.5702 113.57Z" fill="#22093A" stroke="#22093A" stroke-miterlimit="10" stroke-linecap="round" stroke-linejoin="round"/>
<path d="M41.1585 107.521C40.4924 107.597 40.2542 105.846 41.7366 102.427C43.2191 99.0091 44.6673 97.4509 45.3903 97.3815C46.0427 97.3188 46.3136 98.6783 44.7764 102.323C43.517 105.309 42.137 107.409 41.1585 107.521Z" fill="#22093A" stroke="#22093A" stroke-miterlimit="10" stroke-linecap="round" stroke-linejoin="round"/>
<path d="M16.3485 94.6575C18.2924 96.7574 21.2185 95.0797 23.8187 94.3224C22.8148 96.5758 20.8187 99.2293 22.7437 101.265C24.9687 103.618 29.798 102.246 34.3494 99.5693C39.2873 96.6655 45.3949 91.9738 43.1325 89.2034C40.5241 86.0094 31.2515 92.6001 31.2515 92.6001C31.2515 92.6001 37.3244 87.4396 34.8837 84.7836C32.0969 81.7509 26.4023 87.1053 26.4023 87.1053C26.4023 87.1053 34.4443 79.5483 31.3102 76.2591C29.8778 74.7557 27.1058 75.7911 25.0001 77.7204C22.7224 79.8075 12.1219 90.0916 16.3485 94.6575Z" fill="#22093A" stroke="#22093A" stroke-miterlimit="10" stroke-linecap="round" stroke-linejoin="round"/>
<path d="M7.00632 69.7113C5.21255 71.6698 8.13115 81.9067 14.6565 82.7033C18.9144 83.2231 33.3981 81.6416 32.6528 74.7429C31.9075 67.8442 28.649 62.759 25.0961 63.872C21.5433 64.985 24.1669 73.331 24.1669 73.331C24.1669 73.331 21.3997 66.3333 17.6374 67.2372C13.875 68.1411 17.6162 75.1999 17.6162 75.1999C17.6162 75.1999 11.8191 64.4565 7.00632 69.7113Z" fill="#22093A" stroke="#22093A" stroke-miterlimit="10" stroke-linecap="round" stroke-linejoin="round"/>
<path d="M94.6161 81.781C97.6979 82.4283 112.567 85.006 114.104 77.276C114.905 73.2525 110.991 69.5173 106.124 67.0693C100.843 64.4133 92.6085 62.0295 91.7149 65.1505C91.0062 67.6259 94.1358 69.9641 97.4857 71.6983C97.4305 71.8244 96.6805 73.7243 96.6805 73.7243C93.1507 73.6606 88.705 73.9916 88.7365 76.4103C88.7703 79.0089 91.7673 81.1826 94.6161 81.781ZM100.958 73.2563C103.492 74.3594 104.588 74.6198 104.588 74.6198C104.588 74.6198 103.332 74.5575 100.555 74.2959L100.958 73.2563Z" fill="#22093A" stroke="#22093A" stroke-miterlimit="10" stroke-linecap="round" stroke-linejoin="round"/>
<path d="M108.202 12.8447L106.539 14.5088L108.203 16.1714L109.866 14.5073L108.202 12.8447Z" fill="#FCC707"/>
<path d="M108.203 21.3003C107.812 21.3003 107.485 20.9993 107.456 20.6089C107.072 15.6885 107.021 15.6387 102.102 15.2556C101.712 15.2249 101.41 14.8997 101.41 14.5078C101.41 14.116 101.712 13.7908 102.102 13.76C107.021 13.377 107.072 13.3272 107.456 8.40674C107.485 8.01636 107.812 7.71533 108.203 7.71533C108.594 7.71533 108.92 8.01636 108.95 8.40674C109.333 13.3271 109.385 13.377 114.304 13.76C114.693 13.7908 114.995 14.116 114.995 14.5078C114.995 14.8997 114.693 15.2249 114.304 15.2556C109.385 15.6387 109.333 15.6885 108.95 20.6089C108.92 20.9993 108.594 21.3003 108.203 21.3003ZM106.54 14.5078C107.343 14.855 107.855 15.3677 108.203 16.1719C108.55 15.3677 109.063 14.855 109.865 14.5078C109.063 14.1606 108.55 13.6472 108.203 12.8438C107.855 13.6472 107.343 14.1606 106.54 14.5078Z" fill="#22093A"/>
<path d="M11.1933 101.746L8.46484 104.476L11.1948 107.205L13.9232 104.475L11.1933 101.746Z" fill="#FCC707"/>
<path d="M11.1948 113.008C10.803 113.008 10.4778 112.707 10.447 112.317C9.94385 105.858 9.81128 105.725 3.35425 105.223C2.96387 105.193 2.66211 104.867 2.66211 104.476C2.66211 104.084 2.96314 103.758 3.35352 103.729C9.81128 103.225 9.94385 103.091 10.447 96.6343C10.4778 96.2446 10.803 95.9429 11.1948 95.9429C11.5867 95.9429 11.9119 96.2446 11.9426 96.6343C12.4451 103.091 12.5776 103.225 19.0354 103.729C19.4258 103.758 19.7268 104.084 19.7268 104.476C19.7268 104.867 19.4251 105.193 19.0347 105.223C12.5776 105.725 12.4451 105.858 11.9426 112.317C11.9119 112.707 11.5867 113.008 11.1948 113.008ZM8.46582 104.476C9.92188 104.956 10.7129 105.747 11.1948 107.205C11.676 105.747 12.467 104.956 13.9231 104.476C12.467 103.994 11.676 103.203 11.1948 101.745C10.7129 103.203 9.92188 103.994 8.46582 104.476Z" fill="#22093A"/>
<path d="M25.8328 39.8253C22.7511 39.178 7.88243 36.6003 6.3446 44.3304C5.54411 48.3539 9.45799 52.089 14.3253 54.5371C19.606 57.193 27.8404 59.5769 28.734 56.4558C29.4428 53.9805 26.3132 51.6422 22.9632 49.908C23.0185 49.7819 23.7685 47.8821 23.7685 47.8821C27.2982 47.9457 31.744 47.6147 31.7125 45.196C31.6786 42.5974 28.6817 40.4238 25.8328 39.8253ZM19.4911 48.3501C16.9565 47.2469 15.8612 46.9866 15.8612 46.9866C15.8612 46.9866 17.1168 47.0488 19.8944 47.3105L19.4911 48.3501Z" fill="#35CCAD" stroke="#22093A" stroke-miterlimit="10" stroke-linecap="round" stroke-linejoin="round"/>
<path d="M34.0349 41.3341C35.8434 38.9004 33.526 36.1796 32.2306 33.6189C34.7731 34.2255 37.9257 35.7876 39.671 33.386C41.6883 30.6102 39.3181 25.8476 35.6438 21.6286C31.6574 17.0513 25.5809 11.6041 23.1362 14.5003C20.3177 17.8392 28.9887 26.2129 28.9887 26.2129C28.9887 26.2129 22.4307 20.8932 20.1399 23.9528C17.5242 27.4461 24.2104 32.3341 24.2104 32.3341C24.2104 32.3341 14.7728 25.4303 11.9575 29.3354C10.6708 31.1202 12.2892 33.8056 14.7089 35.6229C17.3264 37.5886 30.1029 46.6258 34.0349 41.3341Z" fill="#35CCAD" stroke="#22093A" stroke-miterlimit="10" stroke-linecap="round" stroke-linejoin="round"/>
<path d="M49.544 4.71913C47.5095 3.01194 37.4088 6.37153 36.8958 12.9253C36.561 17.2017 38.7689 31.6033 45.6288 30.5596C52.4886 29.516 57.4279 26.0401 56.1619 22.5388C54.8959 19.0376 46.6715 22.0205 46.6715 22.0205C46.6715 22.0205 53.5426 18.9526 52.4765 15.2329C51.4103 11.5133 44.5204 15.557 44.5204 15.557C44.5204 15.557 55.0024 9.29958 49.544 4.71913Z" fill="#35CCAD" stroke="#22093A" stroke-miterlimit="10" stroke-linecap="round" stroke-linejoin="round"/>
<path d="M68.8067 8.62907C68.8402 5.83328 67.2362 2.47994 61.1277 2.66029C54.0486 2.8693 50.4682 10.9548 57.0049 14.2838C64.7081 18.2069 61.6366 21.7293 58.274 19.1367C53.3326 15.327 48.584 23.3793 54.8994 26.8008C61.2149 30.2223 68.4449 26.6081 69.4445 22.5196C71.3379 14.7752 65.4192 13.2329 62.7058 11.8781C62.7058 11.8781 68.7556 12.8962 68.8067 8.62907Z" fill="#35CCAD" stroke="#22093A" stroke-miterlimit="10" stroke-linecap="round" stroke-linejoin="round"/>
<path d="M82.1059 6.81767C86.0575 8.04636 90.5244 14.021 87.3058 21.3925C84.0871 28.7641 77.8855 30.4239 73.5735 29.0484C69.683 27.8074 65.6891 22.9812 68.8542 15.0248C71.4472 8.50644 76.3018 5.01297 82.1059 6.81767Z" fill="#35CCAD" stroke="#22093A" stroke-miterlimit="10" stroke-linecap="round" stroke-linejoin="round"/>
<path d="M80.5167 12.8667C81.1828 12.7902 81.421 14.542 79.9386 17.9603C78.4561 21.3785 77.0079 22.9367 76.2848 23.0062C75.6325 23.0689 75.3616 21.7094 76.8988 18.0644C78.1582 15.0782 79.5382 12.9789 80.5167 12.8667Z" fill="#22093A" stroke="#22093A" stroke-miterlimit="10" stroke-linecap="round" stroke-linejoin="round"/>
<path d="M104.271 27.3745C102.327 25.2746 99.4014 26.9522 96.8011 27.7095C97.805 25.4562 99.8012 22.8027 97.8762 20.7669C95.6512 18.4139 90.8218 19.7862 86.2705 22.4626C81.3326 25.3665 75.2249 30.0581 77.4874 32.8285C80.0958 36.0225 89.3684 29.4318 89.3684 29.4318C89.3684 29.4318 83.2955 34.5923 85.7362 37.2484C88.523 40.281 94.2176 34.9267 94.2176 34.9267C94.2176 34.9267 86.1756 42.4836 89.3096 45.7729C90.7421 47.2762 93.514 46.2408 95.6197 44.3115C97.8975 42.2244 108.498 31.9403 104.271 27.3745Z" fill="#35CCAD" stroke="#22093A" stroke-miterlimit="10" stroke-linecap="round" stroke-linejoin="round"/>
<path d="M114.36 51.6153C116.154 49.6568 113.235 39.4199 106.71 38.6233C102.452 38.1035 87.968 39.6851 88.7133 46.5837C89.4586 53.4824 92.7171 58.5676 96.27 57.4546C99.8228 56.3416 97.1992 47.9956 97.1992 47.9956C97.1992 47.9956 99.9664 54.9933 103.729 54.0894C107.491 53.1855 103.75 46.1267 103.75 46.1267C103.75 46.1267 109.547 56.8701 114.36 51.6153Z" fill="#35CCAD" stroke="#22093A" stroke-miterlimit="10" stroke-linecap="round" stroke-linejoin="round"/>
<path d="M85.6847 79.2318C83.7176 81.5391 85.8479 84.4088 86.9691 87.0503C84.4729 86.2751 81.4318 84.5057 79.5298 86.7851C77.3314 89.4199 79.3778 94.3303 82.7618 98.7855C86.4332 103.619 92.1318 109.461 94.7647 106.734C97.8002 103.591 89.7085 94.6565 89.7085 94.6565C89.7085 94.6565 95.8961 100.403 98.3865 97.5033C101.23 94.1927 94.8855 88.8686 94.8855 88.8686C94.8855 88.8686 103.84 96.388 106.91 92.6799C108.314 90.9851 106.878 88.1975 104.586 86.2225C102.105 84.0861 89.9619 74.2149 85.6847 79.2318Z" fill="#9736FF" stroke="#22093A" stroke-miterlimit="10" stroke-linecap="round" stroke-linejoin="round"/>
<path d="M71.2501 114.326C73.2845 116.033 83.3852 112.674 83.8982 106.12C84.233 101.843 82.0251 87.4419 75.1652 88.4856C68.3054 89.5292 63.3661 93.0051 64.6321 96.5064C65.8981 100.008 74.1225 97.0247 74.1225 97.0247C74.1225 97.0247 67.2514 100.093 68.3175 103.812C69.3837 107.532 76.2736 103.488 76.2736 103.488C76.2736 103.488 65.7916 109.746 71.2501 114.326Z" fill="#9736FF" stroke="#22093A" stroke-miterlimit="10" stroke-linecap="round" stroke-linejoin="round"/>
<path d="M52.2895 110.81C52.4992 113.598 54.3887 116.799 60.4584 116.088C67.4925 115.265 70.3562 106.898 63.5548 104.15C55.5396 100.912 58.2932 97.1358 61.8686 99.4262C67.1225 102.792 71.1529 94.357 64.5638 91.4977C57.9748 88.6383 51.0865 92.8676 50.4462 97.0274C49.2334 104.907 55.2638 105.929 58.0847 107.043C58.0847 107.043 51.9693 106.555 52.2895 110.81Z" fill="#9736FF" stroke="#22093A" stroke-miterlimit="10" stroke-linecap="round" stroke-linejoin="round"/>
<path d="M37.8651 112.161C33.9135 110.932 29.4466 104.957 32.6652 97.5859C35.8839 90.2143 42.0855 88.5545 46.3975 89.93C50.288 91.171 54.2819 95.9972 51.1168 103.954C48.5238 110.472 43.6692 113.965 37.8651 112.161Z" fill="#9736FF" stroke="#22093A" stroke-miterlimit="10" stroke-linecap="round" stroke-linejoin="round"/>
<path d="M39.4534 106.112C38.7873 106.188 38.5491 104.437 40.0315 101.018C41.514 97.6 42.9623 96.0418 43.6853 95.9723C44.3376 95.9096 44.6085 97.2691 43.0713 100.914C41.8119 103.9 40.4319 106 39.4534 106.112Z" fill="#22093A" stroke="#22093A" stroke-miterlimit="10" stroke-linecap="round" stroke-linejoin="round"/>
<path d="M14.6434 93.2483C16.5873 95.3482 19.5134 93.6706 22.1136 92.9133C21.1098 95.1666 19.1136 97.8201 21.0386 99.8558C23.2636 102.209 28.0929 100.837 32.6443 98.1601C37.5822 95.2563 43.6898 90.5646 41.4274 87.7942C38.819 84.6002 29.5464 91.191 29.5464 91.191C29.5464 91.191 35.6193 86.0305 33.1786 83.3744C30.3918 80.3417 24.6972 85.6961 24.6972 85.6961C24.6972 85.6961 32.7392 78.1391 29.6051 74.8499C28.1727 73.3465 25.4007 74.3819 23.295 76.3113C21.0173 78.3983 10.4169 88.6824 14.6434 93.2483Z" fill="#9736FF" stroke="#22093A" stroke-miterlimit="10" stroke-linecap="round" stroke-linejoin="round"/>
<path d="M5.30124 68.3021C3.50747 70.2606 6.42607 80.4975 12.9514 81.2941C17.2093 81.8139 31.6931 80.2324 30.9477 73.3337C30.2024 66.4351 26.9439 61.3498 23.391 62.4628C19.8382 63.5758 22.4618 71.9218 22.4618 71.9218C22.4618 71.9218 19.6946 64.9241 15.9323 65.8281C12.1699 66.732 15.9111 73.7907 15.9111 73.7907C15.9111 73.7907 10.114 63.0474 5.30124 68.3021Z" fill="#9736FF" stroke="#22093A" stroke-miterlimit="10" stroke-linecap="round" stroke-linejoin="round"/>
<path d="M92.911 80.3718C95.9928 81.0192 110.861 83.5968 112.399 75.8668C113.2 71.8433 109.286 68.1081 104.419 65.6601C99.1379 63.0041 90.9035 60.6203 90.0099 63.7413C89.3011 66.2167 92.4307 68.5549 95.7807 70.2891C95.7254 70.4152 94.9754 72.3151 94.9754 72.3151C91.4457 72.2514 86.9999 72.5824 87.0314 75.0012C87.0653 77.5998 90.0622 79.7734 92.911 80.3718ZM99.2528 71.8471C101.787 72.9502 102.883 73.2106 102.883 73.2106C102.883 73.2106 101.627 73.1483 98.8495 72.8867L99.2528 71.8471Z" fill="#9736FF" stroke="#22093A" stroke-miterlimit="10" stroke-linecap="round" stroke-linejoin="round"/>
<path d="M46.4529 73.4065C47.7165 78.5812 53.1825 87.9818 64.6005 86.0304C73.5185 84.5062 76.7034 79.1527 78.6632 75.5282C80.5434 72.0509 85.0128 59.6837 80.5538 56.3669C76.3648 53.251 75.7737 60.4234 73.1613 63.4394C70.4229 66.6009 67.452 65.7956 66.0387 62.087C64.6762 58.5113 64.7619 53.9081 68.6295 54.4717C71.601 54.9047 72.5804 61.3799 75.0247 59.1371C79.2467 55.2634 72.972 42.3127 65.4785 43.776C60.1142 44.8235 58.2941 53.7295 58.8003 51.5756C59.9205 46.8087 54.7441 36.4541 50.8169 36.2348C44.4701 35.8805 47.6502 44.8433 47.6502 44.8433C47.6502 44.8433 44.3862 41.3348 42.2827 43.9317C40.321 46.3536 42.2851 51.3621 42.2851 51.3621C42.2851 51.3621 39.1807 51.1746 39.2231 53.7368C39.2655 56.2989 42.3226 57.9417 44.1874 63.4423C45.0837 66.0862 46.4529 73.4065 46.4529 73.4065Z" fill="#FCC707" stroke="#22093A" stroke-miterlimit="10" stroke-linecap="round" stroke-linejoin="round"/>
<path d="M42.2852 51.3623C43.4823 52.2003 45.0284 54.4881 45.9444 56.0396C47.5746 58.8006 48.9151 63.8675 48.9151 63.8675" stroke="#22093A" stroke-miterlimit="10" stroke-linecap="round" stroke-linejoin="round"/>
<path d="M47.3027 44.4912C47.3027 44.4912 49.7436 47.2446 50.7684 50.5238C52.5804 56.3219 52.781 57.7385 53.1313 60.4214" stroke="#22093A" stroke-miterlimit="10" stroke-linecap="round" stroke-linejoin="round"/>
<path d="M59.3904 49.6646C58.558 51.8487 58.0014 55.0789 58.1799 57.7264" stroke="#22093A" stroke-miterlimit="10" stroke-linecap="round" stroke-linejoin="round"/>
<path d="M13.3993 41.9351C11.0422 41.9351 7.3746 44.292 9.767 47.9005" stroke="white" stroke-miterlimit="10" stroke-linecap="round" stroke-linejoin="round"/>
<path d="M17.8779 31.6536C15.0703 30.1686 13.9682 31.5967 15.1273 33.0207" stroke="white" stroke-miterlimit="10" stroke-linecap="round" stroke-linejoin="round"/>
<path d="M26.1267 16.8169C25.1263 16.9878 25.7516 18.0745 25.7516 18.0745" stroke="white" stroke-miterlimit="10" stroke-linecap="round" stroke-linejoin="round"/>
<path d="M44.7855 7.7666C43.6424 8.18899 39.1672 9.87808 39.4568 14.2862" stroke="white" stroke-miterlimit="10" stroke-linecap="round" stroke-linejoin="round"/>
<path d="M61.1912 5.36556C59.7357 4.87747 56.3457 6.84657 56.3457 9.06809" stroke="white" stroke-miterlimit="10" stroke-linecap="round" stroke-linejoin="round"/>
<path d="M55.3851 21.1035C54.8155 21.6186 54.5977 22.7642 54.9964 23.8048" stroke="white" stroke-miterlimit="10" stroke-linecap="round" stroke-linejoin="round"/>
<path d="M78.917 9.08156C77.2119 8.87683 73.9227 10.9981 72.6133 13.4676" stroke="white" stroke-miterlimit="10" stroke-linecap="round" stroke-linejoin="round"/>
<path d="M84.273 26.8086C82.8297 27.5201 81.0047 29.3983 80.6641 29.8548" stroke="white" stroke-miterlimit="10" stroke-linecap="round" stroke-linejoin="round"/>
<path d="M95.9284 22.8047C95.5297 21.887 93.46 21.8528 91.6562 22.8047" stroke="white" stroke-miterlimit="10" stroke-linecap="round" stroke-linejoin="round"/>
<path d="M96.0022 42.8047C93.9208 43.5011 91.6347 44.9214 91.6763 46.6336C91.718 48.3457 92.3811 50.1409 92.3811 50.1409" stroke="white" stroke-miterlimit="10" stroke-linecap="round" stroke-linejoin="round"/>
<path d="M8.33351 70.5234C7.51823 71.3149 8.33444 73.442 9.07659 74.4277" stroke="#D9BBFF" stroke-miterlimit="10" stroke-linecap="round" stroke-linejoin="round"/>
<path d="M18.7812 86.0386C17.8837 86.9491 16.4442 89.7027 17.1782 90.8546" stroke="#D9BBFF" stroke-miterlimit="10" stroke-linecap="round" stroke-linejoin="round"/>
<path d="M35.1407 99.8159C34.2862 101.589 34.5426 104.297 35.1407 105.749" stroke="#D9BBFF" stroke-miterlimit="10" stroke-linecap="round" stroke-linejoin="round"/>
<path d="M60.1682 93.4541C57.3155 93.4541 55.4882 94.6806 54.4629 95.5715" stroke="#D9BBFF" stroke-miterlimit="10" stroke-linecap="round" stroke-linejoin="round"/>
<path d="M73.0781 92.0277C73.0781 92.0277 75.1207 91.2842 76.1615 91.3849C77.8623 91.5493 78.4426 92.9723 78.7081 93.8418" stroke="#D9BBFF" stroke-miterlimit="10" stroke-linecap="round" stroke-linejoin="round"/>
<path d="M92.2778 74.9848C91.4251 74.9505 88.6495 75.0143 90.7589 76.736" stroke="#D9BBFF" stroke-miterlimit="10" stroke-linecap="round" stroke-linejoin="round"/>
<path d="M95.6145 64.7519C94.9065 64.7519 91.7126 64.2993 93.6636 66.0478" stroke="#D9BBFF" stroke-miterlimit="10" stroke-linecap="round" stroke-linejoin="round"/>
<path d="M85.6364 90.0814C84.6539 89.491 83.1159 88.5377 81.877 89.0385" stroke="#D9BBFF" stroke-miterlimit="10" stroke-linecap="round" stroke-linejoin="round"/>
<path d="M51.4847 39.594C50.0359 39.177 49.1465 39.5688 49.5678 41.9475" stroke="white" stroke-miterlimit="10" stroke-linecap="round" stroke-linejoin="round"/>
<path d="M49.3125 70.9854C49.3125 70.9854 49.7758 76.0197 53.5713 79.5405" stroke="white" stroke-miterlimit="10" stroke-linecap="round" stroke-linejoin="round"/>
<path d="M55.7109 81.3052C56.9687 82.2403 58.0667 82.7943 59.5461 83.1754" stroke="white" stroke-miterlimit="10" stroke-linecap="round" stroke-linejoin="round"/>
</svg>
