<svg width="120" height="120" viewBox="0 0 120 120" fill="none" xmlns="http://www.w3.org/2000/svg">
<path d="M72.1897 35.1801C80.8392 34.6875 93.9837 43.1213 93.0859 59.937C92.1881 76.7526 81.2482 84.5602 71.7844 85.0296C63.2455 85.4531 51.8717 78.9235 52.2351 61.0006C52.5328 46.317 59.4853 35.9035 72.1897 35.1801Z" fill="#22093A" stroke="#22093A" stroke-linecap="round" stroke-linejoin="round"/>
<path d="M73.5154 48.2066C74.7653 47.5676 76.5186 50.8272 76.122 58.6174C75.7254 66.4076 74.0301 70.5259 72.6637 71.193C71.4307 71.7949 69.9014 69.3283 70.2389 61.0534C70.5154 54.2741 71.6796 49.1451 73.5154 48.2066Z" fill="#22093A" stroke="#22093A" stroke-linecap="round" stroke-linejoin="round"/>
<path d="M19.3444 41.1598C11.19 44.2192 8.3402 89.1131 20.4709 88.7306C32.6017 88.348 29.3025 66.2624 29.3025 66.2624C29.3025 66.2624 36.2824 87.6756 46.4445 86.0785C58.0937 84.2478 59.1945 37.0689 49.8545 36.3498C37.2695 35.3808 36.082 55.5458 36.082 55.5458C36.082 55.5458 29.4565 37.366 19.3444 41.1598Z" fill="#22093A" stroke="#22093A" stroke-linecap="round" stroke-linejoin="round"/>
<path d="M103.735 36.9207C99.7334 36.7678 94.7458 38.6433 91.941 55.4646C89.4368 70.4832 95.3417 71.347 96.8748 71.4056C98.4078 71.4642 107.374 72.5821 109.503 56.1356C111.633 39.6891 109.664 37.1472 103.735 36.9207Z" fill="#22093A" stroke="#22093A" stroke-linecap="round" stroke-linejoin="round"/>
<path d="M97.0194 88.1359C100.896 88.1359 104.039 84.9932 104.039 81.1165C104.039 77.2398 100.896 74.0972 97.0194 74.0972C93.1427 74.0972 90 77.2398 90 81.1165C90 84.9932 93.1427 88.1359 97.0194 88.1359Z" fill="#22093A" stroke="#22093A" stroke-linecap="round" stroke-linejoin="round"/>
<path d="M70.471 32.6356C79.1205 32.1431 92.2649 40.5769 91.3671 57.3925C90.4693 74.2082 79.5294 82.0157 70.0656 82.4852C61.5267 82.9087 50.1529 76.3791 50.5163 58.4562C50.814 43.7726 57.7665 33.3591 70.471 32.6356Z" fill="#E9022C" stroke="#22093A" stroke-linecap="round" stroke-linejoin="round"/>
<path d="M71.7967 45.6622C73.0466 45.0232 74.7999 48.2828 74.4033 56.073C74.0066 63.8632 72.3114 67.9815 70.9449 68.6486C69.7119 69.2505 68.1827 66.7839 68.5202 58.509C68.7967 51.7297 69.9608 46.6007 71.7967 45.6622Z" fill="#22093A" stroke="#22093A" stroke-linecap="round" stroke-linejoin="round"/>
<path d="M17.6257 38.6153C9.47123 41.6747 6.62144 86.5686 18.7523 86.1861C30.8831 85.8035 27.5837 63.718 27.5837 63.718C27.5837 63.718 34.5637 85.1311 44.7257 83.5341C56.375 81.7034 57.4757 34.5244 48.1357 33.8053C35.5507 32.8363 34.3632 53.0014 34.3632 53.0014C34.3632 53.0014 27.7376 34.8215 17.6257 38.6153Z" fill="#E9022C" stroke="#22093A" stroke-linecap="round" stroke-linejoin="round"/>
<path d="M102.016 34.3757C98.0146 34.2228 93.027 36.0984 90.2222 52.9197C87.718 67.9382 93.623 68.8021 95.156 68.8607C96.689 68.9193 105.655 70.0372 107.785 53.5907C109.914 37.1442 107.946 34.6023 102.016 34.3757Z" fill="#E9022C" stroke="#22093A" stroke-linecap="round" stroke-linejoin="round"/>
<path d="M95.3026 85.5915C99.1793 85.5915 102.322 82.4488 102.322 78.5721C102.322 74.6954 99.1793 71.5527 95.3026 71.5527C91.4259 71.5527 88.2832 74.6954 88.2832 78.5721C88.2832 82.4488 91.4259 85.5915 95.3026 85.5915Z" fill="#E9022C" stroke="#22093A" stroke-linecap="round" stroke-linejoin="round"/>
<path d="M15.6934 76.6841C15.8888 77.7142 16.1068 78.7794 16.3472 79.8795" stroke="white" stroke-linecap="round" stroke-linejoin="round"/>
<path d="M16.8044 45.584C15.5154 51.0671 12.9449 57.759 14.9017 71.8769" stroke="white" stroke-linecap="round" stroke-linejoin="round"/>
<path d="M46.8227 36.9126C44.4303 36.9126 41.3543 39.2091 39.4746 45.304" stroke="white" stroke-linecap="round" stroke-linejoin="round"/>
<path d="M73.1847 36.0191C70.1909 35.3801 61.8611 36.19 58.4434 43.4242" stroke="white" stroke-linecap="round" stroke-linejoin="round"/>
<path d="M94.5571 74.5422C92.6205 74.0697 89.3736 77.5443 92.3926 81.5886" stroke="white" stroke-linecap="round" stroke-linejoin="round"/>
<path d="M93.5669 51.6323C92.6731 56.2717 92.2645 62.2684 94.5836 65.0128" stroke="white" stroke-linecap="round" stroke-linejoin="round"/>
<path d="M94.9251 46.4429C94.7316 46.9707 94.5081 47.682 94.2812 48.5223" stroke="white" stroke-linecap="round" stroke-linejoin="round"/>
<path d="M57.0195 71.2788C59.2887 75.3708 63.4156 78.0944 68.0702 78.5719" stroke="white" stroke-linecap="round" stroke-linejoin="round"/>
</svg>
