<svg width="120" height="120" viewBox="0 0 120 120" fill="none" xmlns="http://www.w3.org/2000/svg">
<path d="M87.256 52.1204C88.4669 52.265 90.7343 55.7974 90.9656 58.4216C91.946 69.546 80.7924 72.8377 80.7924 72.8377C80.7924 72.8377 77.4216 80.4726 66.412 83.2382C55.1799 86.0596 46.1674 84.1495 39.5595 72.2416C32.0308 58.6744 41.4224 45.4579 43.5326 40.9673C45.6428 36.4767 45.5643 33.6081 43.5453 27.1712C41.5263 20.7344 42.4853 13.9781 48.0024 11.905C51.6804 10.5229 57.3812 13.3776 59.6814 22.507C61.7311 30.6421 59.9861 36.0839 59.9861 36.0839C59.9861 36.0839 70.0849 28.5322 76.4836 31.084C80.6123 32.7306 81.6619 37.2331 81.6619 37.2331C81.6619 37.2331 86.336 38.3766 88.396 43.9969C90.1772 48.8565 87.256 52.1204 87.256 52.1204Z" fill="#22093A" stroke="#22093A" stroke-miterlimit="10" stroke-linecap="round" stroke-linejoin="round"/>
<path d="M81.6615 37.2329C83.1388 41.1645 81.0387 47.0046 73.1571 51.7214C65.9773 56.0183 60.0159 56.1816 58.1331 51.1708C55.3689 43.8147 66.4262 39.6598 66.4262 39.6598" fill="#22093A"/>
<path d="M81.6615 37.2329C83.1388 41.1645 81.0387 47.0046 73.1571 51.7214C65.9773 56.0183 60.0159 56.1816 58.1331 51.1708C55.3689 43.8147 66.4262 39.6598 66.4262 39.6598" stroke="#22093A" stroke-miterlimit="10" stroke-linecap="round" stroke-linejoin="round"/>
<path d="M87.2564 52.1206C87.2564 52.1206 81.2966 57.3917 77.788 60.6731C69.7455 68.1946 61.0003 62.1865 66.8495 54.6144" fill="#22093A"/>
<path d="M87.2564 52.1206C87.2564 52.1206 81.2967 57.3917 77.788 60.6731C69.7455 68.1946 61.0003 62.1865 66.8495 54.6144" stroke="#22093A" stroke-miterlimit="10" stroke-linecap="round" stroke-linejoin="round"/>
<path d="M80.9926 58.126C79.2196 59.9042 73.2615 62.9681 73.6232 67.3351C73.8481 70.0502 77.1027 74.1903 82.4485 72.1816" fill="#22093A"/>
<path d="M80.9926 58.126C79.2196 59.9042 73.2615 62.9681 73.6232 67.3351C73.8481 70.0502 77.1027 74.1903 82.4485 72.1816" stroke="#22093A" stroke-miterlimit="10" stroke-linecap="round" stroke-linejoin="round"/>
<path d="M86.5236 52.1204C87.7345 52.265 90.0019 55.7974 90.2332 58.4216C91.2136 69.546 80.06 72.8377 80.06 72.8377C80.06 72.8377 76.6892 80.4726 65.6796 83.2382C54.4475 86.0596 45.435 84.1495 38.827 72.2416C31.2984 58.6744 40.69 45.4579 42.8002 40.9673C44.9104 36.4767 44.8318 33.6081 42.8129 27.1712C40.7939 20.7344 41.7529 13.9781 47.27 11.905C50.948 10.5229 56.6488 13.3776 58.949 22.507C60.9987 30.6421 59.2537 36.0839 59.2537 36.0839C59.2537 36.0839 69.3525 28.5322 75.7512 31.084C79.8799 32.7306 80.9295 37.2331 80.9295 37.2331C80.9295 37.2331 85.6036 38.3766 87.6636 43.9969C89.4448 48.8565 86.5236 52.1204 86.5236 52.1204Z" fill="#FCC707" stroke="#22093A" stroke-miterlimit="10" stroke-linecap="round" stroke-linejoin="round"/>
<path d="M80.9291 37.2329C82.4064 41.1645 80.3062 47.0046 72.4247 51.7214C65.2449 56.0183 59.2835 56.1816 57.4006 51.1708C54.6365 43.8147 65.6938 39.6598 65.6938 39.6598" stroke="#22093A" stroke-miterlimit="10" stroke-linecap="round" stroke-linejoin="round"/>
<path d="M86.5239 52.1206C86.5239 52.1206 80.5642 57.3917 77.0556 60.6731C69.0131 68.1946 60.2679 62.1865 66.1171 54.6144" stroke="#22093A" stroke-miterlimit="10" stroke-linecap="round" stroke-linejoin="round"/>
<path d="M80.2242 57.7617C78.4513 59.5399 72.5292 62.9682 72.8909 67.3351C73.1157 70.0502 76.3704 74.1903 81.7162 72.1816" stroke="#22093A" stroke-miterlimit="10" stroke-linecap="round" stroke-linejoin="round"/>
<path d="M46.9988 35.4648C46.9283 36.2089 46.8318 36.8101 46.7441 37.2331" stroke="white" stroke-miterlimit="10" stroke-linecap="round" stroke-linejoin="round"/>
<path d="M47.5159 16.2627C45.4812 16.7384 44.3981 20.7531 45.9921 25.875C46.7041 28.163 47.0001 30.3357 47.0784 32.1904" stroke="white" stroke-miterlimit="10" stroke-linecap="round" stroke-linejoin="round"/>
<path d="M68.4512 60.8402C71.7488 61.6907 76.8006 57.1832 78.9055 54.938" stroke="white" stroke-miterlimit="10" stroke-linecap="round" stroke-linejoin="round"/>
<path d="M80.0293 69.9678C82.7657 69.5866 85.8528 66.4824 85.8528 66.4824" stroke="white" stroke-miterlimit="10" stroke-linecap="round" stroke-linejoin="round"/>
<path d="M69.8972 78.3086C68.1572 79.3505 65.92 80.2655 63.1223 80.7577C56.0328 82.0051 53.0859 80.7577 53.0859 80.7577" stroke="#22093A" stroke-miterlimit="10" stroke-linecap="round" stroke-linejoin="round"/>
<path d="M74.0658 74.603C73.7611 75.0324 73.3668 75.5082 72.877 76.0016" stroke="#22093A" stroke-miterlimit="10" stroke-linecap="round" stroke-linejoin="round"/>
<path d="M64.9436 43.4492C61.5158 44.7464 58.208 47.9059 59.9621 50.6422" stroke="white" stroke-miterlimit="10" stroke-linecap="round" stroke-linejoin="round"/>
<path d="M18.0075 78.2117C10.3038 78.2705 9.76853 99.7869 13.4701 106.879C15.3954 110.567 27.9663 110.036 32.1992 104.185C36.4321 98.333 37.0909 78.0661 18.0075 78.2117Z" fill="#22093A" stroke="#22093A" stroke-miterlimit="10" stroke-linecap="round" stroke-linejoin="round"/>
<path d="M22.2781 90.5095C20.4375 90.5235 20.3262 96.17 21.194 97.3586C21.7714 98.1494 24.6575 98.1131 25.6688 96.715C26.6802 95.3169 26.8376 90.4747 22.2781 90.5095Z" fill="#22093A" stroke="#22093A" stroke-miterlimit="10" stroke-linecap="round" stroke-linejoin="round"/>
<path d="M41.3285 78.4634C46.792 77.8358 55.4297 82.7012 55.4741 93.3906C55.5184 104.08 48.8701 109.427 42.8897 110.07C37.4937 110.649 30.0475 106.926 29.6242 95.5546C29.2773 86.2382 33.3036 79.3852 41.3285 78.4634Z" fill="#22093A" stroke="#22093A" stroke-miterlimit="10" stroke-linecap="round" stroke-linejoin="round"/>
<path d="M42.7928 87.9334C43.5616 87.4828 44.6431 88.2214 44.6758 93.1729C44.7086 98.1243 43.4482 99.3399 42.6065 99.8125C41.8471 100.239 41.1242 100.188 41.0363 94.9312C40.9643 90.6248 41.6636 88.5951 42.7928 87.9334Z" fill="#22093A" stroke="#22093A" stroke-miterlimit="10" stroke-linecap="round" stroke-linejoin="round"/>
<path d="M55.2467 77.8044C50.5238 79.473 49.0976 109.311 56.0541 109.484C63.0105 109.657 61.4879 95.4765 61.4879 95.4765C61.4879 95.4765 65.1304 109.355 70.9792 108.687C77.6838 107.921 78.7395 79.2829 73.7606 77.1293C66.6563 74.0562 65.5504 88.8833 65.5504 88.8833C65.5504 88.8833 61.1033 75.7352 55.2467 77.8044Z" fill="#22093A" stroke="#22093A" stroke-miterlimit="10" stroke-linecap="round" stroke-linejoin="round"/>
<path d="M97.2839 80.1876C95.6921 75.9247 81.6078 75.7327 78.4356 81.6182C76.0521 86.0405 72.401 106.158 80.304 108.051C88.207 109.944 96.9212 108.4 96.6057 102.44C96.3751 98.0857 86.5375 97.6924 86.5375 97.6924C86.5375 97.6924 95.751 98.2693 96.2346 93.7634C96.7182 89.2575 87.054 89.731 87.054 89.731C87.054 89.731 100.203 88.0057 97.2839 80.1876Z" fill="#22093A" stroke="#22093A" stroke-miterlimit="10" stroke-linecap="round" stroke-linejoin="round"/>
<path d="M104.912 77.2556C102.463 77.1271 99.388 78.3283 97.4829 89.3923C95.7819 99.2706 99.388 99.8808 100.326 99.93C101.264 99.9792 106.742 100.778 108.229 89.9562C109.717 79.1344 108.54 77.4459 104.912 77.2556Z" fill="#22093A" stroke="#22093A" stroke-miterlimit="10" stroke-linecap="round" stroke-linejoin="round"/>
<path d="M100.331 110.175C102.705 110.175 104.629 108.251 104.629 105.877C104.629 103.503 102.705 101.579 100.331 101.579C97.9574 101.579 96.0332 103.503 96.0332 105.877C96.0332 108.251 97.9574 110.175 100.331 110.175Z" fill="#22093A" stroke="#22093A" stroke-miterlimit="10" stroke-linecap="round" stroke-linejoin="round"/>
<path d="M17.1188 76.1873C9.41514 76.2461 8.87986 97.7625 12.5814 104.854C14.5067 108.543 27.0776 108.012 31.3105 102.16C35.5434 96.3085 36.2022 76.0417 17.1188 76.1873Z" fill="#35CCAD" stroke="#22093A" stroke-miterlimit="10" stroke-linecap="round" stroke-linejoin="round"/>
<path d="M21.3894 88.485C19.5489 88.4991 19.4376 94.1455 20.3054 95.3342C20.8827 96.1249 23.7688 96.0887 24.7802 94.6906C25.7915 93.2924 25.9489 88.4503 21.3894 88.485Z" fill="#22093A" stroke="#22093A" stroke-miterlimit="10" stroke-linecap="round" stroke-linejoin="round"/>
<path d="M40.4398 76.439C45.9034 75.8114 54.5411 80.6768 54.5854 91.3662C54.6297 102.056 47.9814 107.403 42.001 108.045C36.605 108.625 29.1589 104.902 28.7355 93.5302C28.3886 84.2138 32.4149 77.3608 40.4398 76.439Z" fill="#35CCAD" stroke="#22093A" stroke-miterlimit="10" stroke-linecap="round" stroke-linejoin="round"/>
<path d="M41.9041 85.9089C42.6729 85.4584 43.7544 86.197 43.7872 91.1484C43.8199 96.0999 42.5595 97.3155 41.7179 97.7881C40.9585 98.2145 40.2356 98.1632 40.1477 92.9068C40.0756 88.6004 40.7749 86.5707 41.9041 85.9089Z" fill="#22093A" stroke="#22093A" stroke-miterlimit="10" stroke-linecap="round" stroke-linejoin="round"/>
<path d="M54.358 75.78C49.6352 77.4486 48.2089 107.287 55.1654 107.46C62.1218 107.633 60.5992 93.4521 60.5992 93.4521C60.5992 93.4521 64.2418 107.331 70.0905 106.663C76.7952 105.897 77.8508 77.2585 72.872 75.1048C65.7676 72.0318 64.6618 86.8589 64.6618 86.8589C64.6618 86.8589 60.2146 73.7108 54.358 75.78Z" fill="#35CCAD" stroke="#22093A" stroke-miterlimit="10" stroke-linecap="round" stroke-linejoin="round"/>
<path d="M96.3952 78.1632C94.8034 73.9003 80.7191 73.7083 77.547 79.5938C75.1634 84.0161 71.5123 104.133 79.4154 106.026C87.3184 107.919 96.0325 106.375 95.717 100.416C95.4864 96.0613 85.6488 95.668 85.6488 95.668C85.6488 95.668 94.8623 96.2449 95.3459 91.739C95.8296 87.2331 86.1654 87.7066 86.1654 87.7066C86.1654 87.7066 99.3146 85.9813 96.3952 78.1632Z" fill="#35CCAD" stroke="#22093A" stroke-miterlimit="10" stroke-linecap="round" stroke-linejoin="round"/>
<path d="M104.023 75.2312C101.574 75.1027 98.4994 76.3039 96.5942 87.3679C94.8932 97.2462 98.4993 97.8564 99.4374 97.9056C100.375 97.9548 105.853 98.7535 107.341 87.9317C108.828 77.11 107.651 75.4215 104.023 75.2312Z" fill="#35CCAD" stroke="#22093A" stroke-miterlimit="10" stroke-linecap="round" stroke-linejoin="round"/>
<path d="M99.4424 108.151C101.816 108.151 103.74 106.226 103.74 103.853C103.74 101.479 101.816 99.5547 99.4424 99.5547C97.0688 99.5547 95.1445 101.479 95.1445 103.853C95.1445 106.226 97.0688 108.151 99.4424 108.151Z" fill="#35CCAD" stroke="#22093A" stroke-miterlimit="10" stroke-linecap="round" stroke-linejoin="round"/>
<path d="M13.8281 98.1123C13.9389 98.777 14.0778 99.3993 14.2487 99.9612" stroke="white" stroke-miterlimit="10" stroke-linecap="round" stroke-linejoin="round"/>
<path d="M14.2483 84.0103C13.8019 86.0354 13.3556 90.3001 13.4802 94.2678" stroke="white" stroke-miterlimit="10" stroke-linecap="round" stroke-linejoin="round"/>
<path d="M32.5703 85.7967C33.3506 82.5299 37.8213 79.1922 41.0309 79.2643" stroke="white" stroke-miterlimit="10" stroke-linecap="round" stroke-linejoin="round"/>
<path d="M53.5527 93.0981C53.5527 97.1941 54.0617 102.48 55.4734 103.853" stroke="white" stroke-miterlimit="10" stroke-linecap="round" stroke-linejoin="round"/>
<path d="M98.6667 102.064C97.8977 102.577 96.9158 103.858 97.7058 104.884" stroke="white" stroke-miterlimit="10" stroke-linecap="round" stroke-linejoin="round"/>
<path d="M101.231 80.5864C99.949 84.1212 98.6673 89.8459 99.4421 93.7114" stroke="white" stroke-miterlimit="10" stroke-linecap="round" stroke-linejoin="round"/>
<path d="M78.0293 89.5042C78.0293 85.7967 79.839 80.3872 82.1024 79.2632" stroke="white" stroke-miterlimit="10" stroke-linecap="round" stroke-linejoin="round"/>
<path d="M67.3945 85.3054C67.7363 83.6086 68.1141 81.4114 69.1641 79.2632" stroke="white" stroke-miterlimit="10" stroke-linecap="round" stroke-linejoin="round"/>
<path d="M94.4048 16.6582L91.0293 22.1199L85.998 25.0642L92.5263 28.2726L94.4048 33.4702L97.4151 27.0877L102.812 25.0642L97.0336 22.1199L94.4048 16.6582Z" fill="#FCC707"/>
<path d="M94.4043 41.0542C94.0132 41.0542 93.6865 40.7532 93.6572 40.3621C92.645 27.3674 92.1001 26.8232 79.1055 25.8118C78.7158 25.781 78.4141 25.4558 78.4141 25.064C78.4141 24.6721 78.7158 24.3469 79.1055 24.3162C92.1001 23.3047 92.645 22.7605 93.6572 9.76587C93.6865 9.37476 94.0132 9.07373 94.4043 9.07373C94.7954 9.07373 95.1221 9.37476 95.1514 9.76587C96.1636 22.7605 96.7085 23.3047 109.703 24.3162C110.093 24.3469 110.395 24.6721 110.395 25.064C110.395 25.4558 110.093 25.781 109.703 25.8118C96.7085 26.8232 96.1636 27.3674 95.1514 40.3621C95.1221 40.7532 94.7954 41.0542 94.4043 41.0542ZM85.9976 25.064C91.5361 26.03 93.439 27.9321 94.4043 33.47C95.3696 27.9321 97.2725 26.03 102.811 25.064C97.2725 24.0979 95.3696 22.1958 94.4043 16.658C93.439 22.1958 91.5361 24.0979 85.9976 25.064Z" fill="#22093A"/>
<path d="M21.4871 50.2661L17.3496 54.4036L21.4973 58.5828L25.6663 54.4138L21.4871 50.2661Z" fill="#FCC707"/>
<path d="M21.4868 65.0315C21.095 65.0315 20.7698 64.7297 20.739 64.3401C20.0938 56.0535 19.8359 55.7957 11.5515 55.1511C11.1604 55.1204 10.8594 54.7952 10.8594 54.4033C10.8594 54.0115 11.1604 53.6863 11.5508 53.6555C19.8359 53.0103 20.0938 52.7524 20.739 44.4673C20.7698 44.0769 21.095 43.7759 21.4868 43.7759C21.8787 43.7759 22.2039 44.0769 22.2346 44.468C22.8792 52.7524 23.137 53.0103 31.4229 53.6555C31.8132 53.6863 32.1143 54.0115 32.1143 54.4033C32.1143 54.7952 31.8132 55.1204 31.4221 55.1511C23.137 55.7957 22.8792 56.0535 22.2346 64.3401C22.2039 64.7297 21.8787 65.0315 21.4868 65.0315ZM17.3494 54.4033C19.7693 55.0281 20.8782 56.1472 21.4971 58.5825C22.1313 56.1772 23.2607 55.0479 25.666 54.4136C23.2307 53.7947 22.1116 52.6858 21.4868 50.2659C20.865 52.6719 19.7554 53.7815 17.3494 54.4033Z" fill="#22093A"/>
<path d="M26.2533 27.7677L23.8359 30.1851L26.2533 32.6024L28.6707 30.1851L26.2533 27.7677Z" fill="#35CCAD"/>
<path d="M26.2529 38.2505C25.8611 38.2505 25.5359 37.9495 25.5051 37.5591C25.0349 31.5269 24.9111 31.4031 18.8789 30.9329C18.4885 30.9021 18.1875 30.5769 18.1875 30.1851C18.1875 29.7932 18.4885 29.468 18.8789 29.4373C24.9111 28.967 25.0349 28.8433 25.5051 22.811C25.5359 22.4207 25.8611 22.1196 26.2529 22.1196C26.6448 22.1196 26.97 22.4207 27.0007 22.811C27.4709 28.8433 27.5947 28.967 33.627 29.4373C34.0173 29.468 34.3184 29.7932 34.3184 30.1851C34.3184 30.5769 34.0173 30.9021 33.627 30.9329C27.5947 31.4031 27.4709 31.5269 27.0007 37.5591C26.97 37.9495 26.6448 38.2505 26.2529 38.2505ZM23.8359 30.1851C25.0957 30.6296 25.8083 31.3423 26.2529 32.6028C26.6975 31.3423 27.4102 30.6296 28.6707 30.1851C27.4102 29.7405 26.6975 29.0278 26.2529 27.7681C25.8083 29.0278 25.0957 29.7405 23.8359 30.1851Z" fill="#22093A"/>
</svg>
