<svg width="120" height="120" viewBox="0 0 120 120" fill="none" xmlns="http://www.w3.org/2000/svg">
<path d="M73.4025 30.849C59.6489 28.1052 43.0638 35.1517 38.9236 54.9769C35.34 71.8834 50.2452 78.5906 48.517 85.4136C48.302 86.2821 48.0799 87.1004 47.8578 87.889C47.812 87.8672 47.7847 87.854 47.7847 87.854C47.7847 87.854 45.574 91.8258 45.118 96.5201L44.9826 96.4829C44.9826 96.4829 45.0368 96.5119 45.115 96.5534C44.949 98.297 45.023 100.137 45.5474 101.912L45.1092 101.735C45.1092 101.735 45.27 101.823 45.57 101.978C46.5953 105.372 49.2628 108.514 55.0067 110.237C63.411 112.759 68.1487 108.699 70.7894 103.984C72.1761 104.125 73.0272 104.179 73.0272 104.179L70.9855 103.618C71.8675 101.967 72.5035 100.258 72.9527 98.7345C73.0068 98.7318 73.0368 98.7299 73.0368 98.7299L72.9602 98.7102C73.7745 95.9406 73.984 93.8004 73.984 93.8004C73.984 93.8004 73.9368 93.8058 73.868 93.8133C78.3386 81.7311 88.26 84.5997 93.5082 74.1228C100.108 60.9942 101.593 36.5419 73.4025 30.849Z" fill="#22093A" stroke="#22093A" stroke-miterlimit="10" stroke-linecap="round" stroke-linejoin="round"/>
<path d="M47.741 9.55145C53.73 8.60654 63.4703 13.5649 64.0153 25.3372C64.5603 37.1096 57.4854 43.3079 50.9278 44.2934C45.011 45.1825 36.6363 41.427 35.6421 28.9208C34.8275 18.6749 38.9444 10.9393 47.741 9.55145Z" fill="#22093A" stroke="#22093A" stroke-miterlimit="10" stroke-linecap="round" stroke-linejoin="round"/>
<path d="M50.1311 19.1929C50.957 18.661 51.8448 20.1462 52.1107 25.5987C52.3766 31.0512 51.4827 34.037 50.5776 34.5966C49.7609 35.1016 48.5243 33.4903 48.1834 27.7045C47.9042 22.9643 48.918 19.9742 50.1311 19.1929Z" fill="#22093A" stroke="#22093A" stroke-miterlimit="10" stroke-linecap="round" stroke-linejoin="round"/>
<path d="M40.2565 22.2626C46.0918 23.0934 44.6793 8.69478 24.0366 10.6679C4.26404 12.5578 4.24262 40.0985 19.9824 44.7627C28.9795 47.4288 43.2543 43.9416 37.5593 30.0925C34.7662 23.3004 34.1937 21.3995 40.2565 22.2626Z" fill="#22093A" stroke="#22093A" stroke-miterlimit="10" stroke-linecap="round" stroke-linejoin="round"/>
<path d="M71.3563 9.1911C77.3452 8.24619 87.0855 13.2045 87.6305 24.9769C88.1756 36.7492 81.1007 42.9475 74.543 43.933C68.6263 44.8222 60.2515 41.0667 59.2573 28.5604C58.4428 18.3145 62.5596 10.579 71.3563 9.1911Z" fill="#22093A" stroke="#22093A" stroke-miterlimit="10" stroke-linecap="round" stroke-linejoin="round"/>
<path d="M72.9067 19.791C73.7327 19.259 75.4606 19.7859 75.7266 25.2384C75.9925 30.6909 74.8151 32.3041 73.9099 32.8637C73.0932 33.3687 72.1401 33.1301 71.7993 27.3442C71.52 22.604 71.6936 20.5723 72.9067 19.791Z" fill="#22093A" stroke="#22093A" stroke-miterlimit="10" stroke-linecap="round" stroke-linejoin="round"/>
<path d="M90.9686 9.04746C82.5647 9.46589 84.2951 31.4968 87.3354 40.5387C88.7839 44.8463 106.569 44.4176 110.244 35.5126C114.011 26.381 111.787 8.01092 90.9686 9.04746Z" fill="#22093A" stroke="#22093A" stroke-miterlimit="10" stroke-linecap="round" stroke-linejoin="round"/>
<path d="M96.1947 22.2711C94.1868 22.3711 94.325 28.5379 95.3267 29.795C95.993 30.6314 99.1409 30.4591 100.18 28.8869C101.219 27.3147 101.169 22.0235 96.1947 22.2711Z" fill="#22093A" stroke="#22093A" stroke-miterlimit="10" stroke-linecap="round" stroke-linejoin="round"/>
<path d="M45.5379 8.08661C51.5269 7.1417 61.2672 12.1 61.8122 23.8724C62.3572 35.6448 55.2823 41.843 48.7247 42.8285C42.8079 43.7177 34.4331 39.9622 33.4389 27.4559C32.6244 17.21 36.7413 9.47449 45.5379 8.08661Z" fill="#9736FF" stroke="#22093A" stroke-miterlimit="10" stroke-linecap="round" stroke-linejoin="round"/>
<path d="M47.928 17.7281C48.7539 17.1961 49.6417 18.6814 49.9076 24.1338C50.1735 29.5863 49.2796 32.5721 48.3744 33.1318C47.5578 33.6367 46.3211 32.0255 45.9803 26.2396C45.7011 21.4995 46.7148 18.5094 47.928 17.7281Z" fill="#22093A" stroke="#22093A" stroke-miterlimit="10" stroke-linecap="round" stroke-linejoin="round"/>
<path d="M31.2131 19.8728C37.0483 20.7035 42.4761 7.22986 21.8335 9.20297C2.06092 11.0929 2.0395 38.6336 17.7793 43.2978C26.7763 45.9639 41.0512 42.4767 35.3562 28.6276C32.5631 21.8354 24.8976 22.8511 23.1406 27.1505C21.3836 31.4499 26.9315 35.2281 26.9315 35.2281C20.2362 35.6125 15.5242 27.7444 19.4787 22.5306C21.9403 19.2851 25.1503 19.0097 31.2131 19.8728Z" fill="#9736FF" stroke="#22093A" stroke-miterlimit="10" stroke-linecap="round" stroke-linejoin="round"/>
<path d="M69.1531 7.72626C75.1421 6.78134 84.8824 11.7397 85.4274 23.512C85.9724 35.2844 78.8975 41.4827 72.3399 42.4682C66.4232 43.3573 58.0484 39.6018 57.0542 27.0956C56.2396 16.8497 60.3565 9.11414 69.1531 7.72626Z" fill="#9736FF" stroke="#22093A" stroke-miterlimit="10" stroke-linecap="round" stroke-linejoin="round"/>
<path d="M70.7036 18.3261C71.5295 17.7942 73.2575 18.3211 73.5234 23.7736C73.7894 29.226 72.6119 30.8393 71.7068 31.3989C70.8901 31.9038 69.937 31.6652 69.5962 25.8794C69.3169 21.1392 69.4905 19.1074 70.7036 18.3261Z" fill="#22093A" stroke="#22093A" stroke-miterlimit="10" stroke-linecap="round" stroke-linejoin="round"/>
<path d="M88.7654 7.58261C80.3615 8.00104 82.092 30.0319 85.1323 39.0739C86.5808 43.3815 104.366 42.9528 108.04 34.0477C111.808 24.9161 109.583 6.54608 88.7654 7.58261Z" fill="#9736FF" stroke="#22093A" stroke-miterlimit="10" stroke-linecap="round" stroke-linejoin="round"/>
<path d="M93.9916 20.8063C91.9837 20.9062 92.1219 27.073 93.1235 28.3302C93.7899 29.1666 96.9377 28.9943 97.9771 27.4221C99.0164 25.8499 98.9655 20.5586 93.9916 20.8063Z" fill="#22093A" stroke="#22093A" stroke-miterlimit="10" stroke-linecap="round" stroke-linejoin="round"/>
<path d="M71.5803 30.7719C57.8267 28.028 41.2415 35.0746 37.1013 54.8998C33.5177 71.8063 48.423 78.5134 46.6947 85.3365C44.6833 93.4579 42.0767 97.8894 44.2727 102.272C45.8539 105.513 49.0749 108.608 56.4545 109.546C62.7017 110.356 68.7442 108.658 70.7557 98.4087C74.2222 80.8286 85.8477 85.7004 91.6859 74.0456C98.2855 60.917 99.7709 36.4647 71.5803 30.7719Z" fill="#FCC707" stroke="#22093A" stroke-miterlimit="10" stroke-linecap="round" stroke-linejoin="round"/>
<path d="M72.1614 93.7233C72.1614 93.7233 66.1874 94.4843 59.3253 92.5316C51.0673 90.2664 45.9622 87.7769 45.9622 87.7769C45.9622 87.7769 36.2972 105.093 53.1841 110.16C70.071 115.228 72.1614 93.7233 72.1614 93.7233Z" fill="#22093A"/>
<path d="M53.0879 90.9788C53.0879 90.9788 64.1882 67.8157 57.531 67.3077C52.7479 66.9364 55.08 79.0212 61.3859 78.5726C67.6918 78.124 69.7814 69.3877 66.5211 69.2606C62.3237 69.0651 59.4234 85.1126 61.4338 92.9512" stroke="#050038" stroke-miterlimit="10" stroke-linecap="round" stroke-linejoin="round"/>
<path d="M44.3418 91.7593C44.3418 91.7593 49.6518 94.6295 57.0703 96.8556C64.4889 99.0817 71.2145 98.6527 71.2145 98.6527" stroke="white" stroke-miterlimit="10" stroke-linecap="round" stroke-linejoin="round"/>
<path d="M43.1602 96.4058C43.1602 96.4058 48.3726 99.2467 55.5959 101.414C62.8192 103.582 71.2047 104.102 71.2047 104.102" stroke="white" stroke-miterlimit="10" stroke-linecap="round" stroke-linejoin="round"/>
<path d="M43.2871 101.657C43.2871 101.657 47.9431 104.225 54.4831 106.187" stroke="white" stroke-miterlimit="10" stroke-linecap="round" stroke-linejoin="round"/>
<path d="M17.1884 82.1695C22.0882 81.9008 23.3245 86.8779 23.1257 96.3052C22.9499 104.649 22.5408 111.995 18.9696 112.412C13.5381 113.046 11.7294 107.189 11.3407 97.0919C10.952 86.9949 13.0489 82.3965 17.1884 82.1695Z" fill="#22093A" stroke="#22093A" stroke-miterlimit="10" stroke-linecap="round" stroke-linejoin="round"/>
<path d="M16.2898 79.4742C18.7984 79.1838 20.6078 77.0119 20.3312 74.6231C20.0546 72.2343 17.7968 70.5333 15.2883 70.8237C12.7797 71.1142 10.9703 73.2861 11.2469 75.6749C11.5234 78.0636 13.7813 79.7647 16.2898 79.4742Z" fill="#22093A" stroke="#22093A" stroke-miterlimit="10" stroke-linecap="round" stroke-linejoin="round"/>
<path d="M28.2708 80.9488C20.6564 81.3279 22.2242 101.289 24.979 109.482C26.2914 113.385 42.4061 112.996 45.735 104.928C49.1486 96.6539 47.1331 80.0096 28.2708 80.9488Z" fill="#22093A" stroke="#22093A" stroke-miterlimit="10" stroke-linecap="round" stroke-linejoin="round"/>
<path d="M33.0053 92.93C31.1861 93.0206 31.3113 98.608 32.2188 99.7471C32.8226 100.505 35.6747 100.349 36.6164 98.9243C37.5581 97.4998 37.5119 92.7056 33.0053 92.93Z" fill="#22093A" stroke="#22093A" stroke-miterlimit="10" stroke-linecap="round" stroke-linejoin="round"/>
<path d="M92.8957 82.5431C91.2402 79.7879 79.0193 79.8835 76.2405 87.3174C74.4273 92.1682 71.9812 109.763 79.8624 111.139C87.7435 112.515 94.3393 110.335 94.1337 105.782C93.9282 101.229 83.8938 101.595 83.8938 101.595C83.8938 101.595 92.4717 100.619 92.5593 95.8872C92.6469 91.1555 83.7184 93.2597 83.7184 93.2597C83.7184 93.2597 97.3374 89.9355 92.8957 82.5431Z" fill="#22093A" stroke="#22093A" stroke-miterlimit="10" stroke-linecap="round" stroke-linejoin="round"/>
<path d="M108.333 110.528C111.59 109.821 113.53 106.911 113.554 103.178C113.58 99.1404 113.018 79.7984 102.912 79.8419C97.6518 79.8645 93.9588 85.7371 92.1269 92.4789C90.1393 99.7933 89.2487 110.75 93.3988 111.075C100.066 111.597 102.007 92.4789 102.007 92.4789C102.007 92.4789 101.988 111.905 108.333 110.528Z" fill="#22093A" stroke="#22093A" stroke-miterlimit="10" stroke-linecap="round" stroke-linejoin="round"/>
<path d="M30.0081 58.3579L28.0705 61.9732L25.0664 63.3003L28.8649 65.4804L30.0081 68.2427L31.8375 64.7211L34.9497 63.3003L31.5742 61.6227L30.0081 58.3579Z" fill="#FCC707"/>
<path d="M30.0083 75C29.6165 75 29.2913 74.6982 29.2605 74.3086C28.5398 65.0566 28.252 64.7681 19.0007 64.0474C18.6096 64.0181 18.3086 63.6914 18.3086 63.3003C18.3086 62.9092 18.6096 62.5825 19.0007 62.5532C28.252 61.8325 28.5398 61.5439 29.2605 52.292C29.2913 51.9016 29.6165 51.6006 30.0083 51.6006C30.4001 51.6006 30.7253 51.9016 30.7561 52.2927C31.4761 61.5439 31.7639 61.8325 41.0159 62.5532C41.407 62.5825 41.708 62.9092 41.708 63.3003C41.708 63.6914 41.407 64.0181 41.0159 64.0474C31.7639 64.7681 31.4761 65.0566 30.7561 74.3086C30.7253 74.6982 30.4001 75 30.0083 75ZM25.0667 63.3003C28.0366 63.9932 29.3147 65.272 30.0083 68.2427C30.7019 65.272 31.9785 63.9932 34.95 63.3003C31.9785 62.6074 30.7019 61.3286 30.0083 58.3579C29.3147 61.3286 28.0366 62.6074 25.0667 63.3003Z" fill="#22093A"/>
<path d="M71.1857 47.6959L67.7305 51.1504L71.1849 54.6056L74.6401 51.1511L71.1857 47.6959Z" fill="white"/>
<path d="M71.1851 60.7249C70.7939 60.7263 70.4673 60.4246 70.438 60.0334C69.8652 52.6975 69.6367 52.4697 62.3008 51.8984C61.9111 51.8677 61.6094 51.5425 61.6094 51.1506C61.6094 50.7588 61.9111 50.4336 62.3008 50.4028C69.6367 49.8315 69.8652 49.603 70.438 42.2671C70.4673 41.8767 70.7939 41.5757 71.1851 41.5757C71.5762 41.5757 71.9028 41.8767 71.9321 42.2678C72.5034 49.603 72.7319 49.8315 80.0679 50.4028C80.4575 50.4336 80.7593 50.7588 80.7593 51.1506C80.7593 51.5425 80.4575 51.8677 80.0679 51.8984C72.7319 52.4697 72.5034 52.6975 71.9321 60.0334C71.9028 60.4246 71.5762 60.7249 71.1851 60.7249ZM67.7295 51.1506C69.6587 51.7109 70.624 52.6763 71.1851 54.6055C71.7446 52.6755 72.71 51.7109 74.6392 51.1506C72.71 50.5896 71.7446 49.625 71.1851 47.6958C70.624 49.6243 69.6587 50.5896 67.7295 51.1506Z" fill="#22093A"/>
<path d="M15.622 81.526C20.5218 81.2572 21.7581 86.2344 21.5593 95.6616C21.3835 104.005 20.9744 111.352 17.4032 111.768C11.9717 112.402 10.163 106.545 9.77432 96.4483C9.38561 86.3513 11.4825 81.753 15.622 81.526Z" fill="#9736FF" stroke="#22093A" stroke-miterlimit="10" stroke-linecap="round" stroke-linejoin="round"/>
<path d="M14.7234 78.8307C17.232 78.5402 19.0414 76.3683 18.7648 73.9795C18.4882 71.5908 16.2304 69.8897 13.7219 70.1802C11.2133 70.4706 9.40389 72.6425 9.68047 75.0313C9.95704 77.4201 12.2148 79.1211 14.7234 78.8307Z" fill="#9736FF" stroke="#22093A" stroke-miterlimit="10" stroke-linecap="round" stroke-linejoin="round"/>
<path d="M26.7044 80.3052C19.09 80.6843 20.6578 100.646 23.4126 108.838C24.725 112.741 40.8397 112.353 44.1686 104.284C47.5822 96.0104 45.5667 79.3661 26.7044 80.3052Z" fill="#9736FF" stroke="#22093A" stroke-miterlimit="10" stroke-linecap="round" stroke-linejoin="round"/>
<path d="M31.4389 92.2864C29.6197 92.377 29.7449 97.9645 30.6524 99.1035C31.2562 99.8613 34.1083 99.7052 35.05 98.2807C35.9917 96.8562 35.9455 92.062 31.4389 92.2864Z" fill="#22093A" stroke="#22093A" stroke-miterlimit="10" stroke-linecap="round" stroke-linejoin="round"/>
<path d="M91.3293 81.8996C89.6738 79.1444 77.4529 79.2399 74.6741 86.6739C72.8609 91.5247 70.4148 109.12 78.296 110.496C86.1771 111.872 92.7729 109.692 92.5673 105.138C92.3618 100.585 82.3274 100.951 82.3274 100.951C82.3274 100.951 90.9053 99.9754 90.9929 95.2437C91.0805 90.5119 82.152 92.6162 82.152 92.6162C82.152 92.6162 95.771 89.2919 91.3293 81.8996Z" fill="#9736FF" stroke="#22093A" stroke-miterlimit="10" stroke-linecap="round" stroke-linejoin="round"/>
<path d="M101.346 79.1983C96.0854 79.2209 92.3924 85.0937 90.5605 91.8354C88.573 99.1498 87.6822 110.106 91.8324 110.431C94.8749 110.67 96.9308 106.816 98.2696 102.557L101.504 102.847C102.367 106.954 103.929 110.5 106.767 109.885C110.023 109.178 111.964 106.267 111.988 102.535C112.014 98.4969 111.452 79.1549 101.346 79.1983ZM99.3733 98.3282C100.139 94.7823 100.441 91.8354 100.441 91.8354C100.441 91.8354 100.439 94.8497 100.823 98.4174L99.3733 98.3282Z" fill="#9736FF" stroke="#22093A" stroke-miterlimit="10" stroke-linecap="round" stroke-linejoin="round"/>
<path d="M58.8262 36.1646C54.4832 37.7628 49.8268 39.9687 45.6172 46.6126C41.4077 53.2565 42.3072 60.7265 42.3072 60.7265" stroke="white" stroke-miterlimit="10" stroke-linecap="round" stroke-linejoin="round"/>
<path d="M11.6901 19.0713C11.0145 20.2337 10.4301 21.5895 9.98975 23.1685C8.13327 29.8258 12.819 35.9968 12.819 35.9968" stroke="#D9BBFF" stroke-miterlimit="10" stroke-linecap="round" stroke-linejoin="round"/>
<path d="M18.9822 12.9595C17.4494 13.492 15.6103 14.4608 13.9375 16.1342" stroke="#D9BBFF" stroke-miterlimit="10" stroke-linecap="round" stroke-linejoin="round"/>
<path d="M46.6934 11.2183C43.3184 11.2183 40.9728 12.5167 39.9434 13.8151" stroke="#D9BBFF" stroke-miterlimit="10" stroke-linecap="round" stroke-linejoin="round"/>
<path d="M60.5664 21.1296C60.8763 17.7118 62.3289 14.1568 65.063 12.5166" stroke="#D9BBFF" stroke-miterlimit="10" stroke-linecap="round" stroke-linejoin="round"/>
<path d="M68.8223 11.2184C71.1834 9.85135 73.5601 11.2184 73.5601 11.2184" stroke="#D9BBFF" stroke-miterlimit="10" stroke-linecap="round" stroke-linejoin="round"/>
<path d="M87.6603 11.731C87.6603 11.731 85.7872 15.2352 85.8068 17.627" stroke="#D9BBFF" stroke-miterlimit="10" stroke-linecap="round" stroke-linejoin="round"/>
<path d="M85.8066 22.7529C85.8066 25.2554 86.2749 29.058 86.7431 32.7488" stroke="#D9BBFF" stroke-miterlimit="10" stroke-linecap="round" stroke-linejoin="round"/>
<path d="M65.5469 35.1617C68.7367 34.8004 73.56 35.9968 73.56 35.9968" stroke="white" stroke-miterlimit="10" stroke-linecap="round" stroke-linejoin="round"/>
<path d="M15.6531 84.3047C14.623 84.4717 12.9671 85.4956 12.1696 89.7326C11.3722 93.9696 12.8181 105.26 12.8181 105.26" stroke="#D9BBFF" stroke-miterlimit="10" stroke-linecap="round" stroke-linejoin="round"/>
<path d="M12.8191 73.2554C12.8191 73.2554 11.4019 74.1153 11.9307 75.5908" stroke="#D9BBFF" stroke-miterlimit="10" stroke-linecap="round" stroke-linejoin="round"/>
<path d="M25.5611 84.3047C25.5611 84.3047 24.0801 86.5631 24.0801 89.7326" stroke="#D9BBFF" stroke-miterlimit="10" stroke-linecap="round" stroke-linejoin="round"/>
<path d="M24.0801 95.9155C24.0801 95.9155 24.5358 102.036 24.8206 103.735" stroke="#D9BBFF" stroke-miterlimit="10" stroke-linecap="round" stroke-linejoin="round"/>
<path d="M82.6278 83.4409C82.6278 83.4409 78.9792 84.3872 77.61 85.8524C76.2409 87.3176 75.7637 97.4192 75.7637 97.4192" stroke="#D9BBFF" stroke-miterlimit="10" stroke-linecap="round" stroke-linejoin="round"/>
<path d="M97.5039 84.3047C94.8255 87.6615 92.8468 92.8114 92.4121 96.7871" stroke="#D9BBFF" stroke-miterlimit="10" stroke-linecap="round" stroke-linejoin="round"/>
<path d="M100.076 82.4963C100.076 82.4963 101.19 80.9819 102.212 82.4963" stroke="#D9BBFF" stroke-miterlimit="10" stroke-linecap="round" stroke-linejoin="round"/>
</svg>
