<svg width="120" height="135" viewBox="0 0 120 135" fill="none" xmlns="http://www.w3.org/2000/svg">
<g clip-path="url(#clip0_5_11012)">
<path opacity="0.5" d="M112.507 39.5944C113.536 37.7861 113.971 35.7002 113.75 33.6315C113.397 30.9463 111.859 28.5608 109.559 27.1308C109.246 26.9259 108.92 26.7411 108.583 26.5773C108.111 26.1174 107.596 25.704 107.044 25.3428C104.934 24.1808 102.634 23.4014 100.252 23.0407C103.992 20.9768 106.368 17.096 106.505 12.8271C106.617 9.05845 104.53 5.56796 101.158 3.88141C97.8191 1.99511 93.7485 1.94294 90.3623 3.74305C87.0854 5.70081 85.0341 9.19546 84.9223 13.011C84.8233 14.4212 85.0094 15.8369 85.4695 17.1736C85.3745 17.1373 85.2828 17.0952 85.1875 17.0593C81.6435 15.7376 77.9944 14.7171 74.2789 14.0086C73.7138 10.1781 71.329 6.85843 67.8794 5.10023C66.983 4.31005 65.9943 3.63124 64.9348 3.07861C59.4167 0.172128 38.1087 1.80429 33.3545 9.12441C31.5332 11.7984 31.0569 15.1666 32.0653 18.2407C32.9752 20.8968 34.8779 23.0976 37.3746 24.3818C37.5552 24.5549 37.7425 24.7215 37.9363 24.8814C37.1395 25.8145 36.4642 26.8448 35.9263 27.9477C35.2643 29.3654 34.8479 30.8852 34.6948 32.4423C34.0802 31.9177 33.4036 31.4704 32.6802 31.1103C31.6168 30.0706 30.3352 29.2807 28.9286 28.7979C26.7774 28.2584 24.56 28.0297 22.3439 28.1186C24.7735 26.1865 26.2317 23.2846 26.332 20.182C26.4319 16.7968 24.5583 13.6612 21.5298 12.1453C18.5906 10.5033 15.0169 10.4742 12.0514 12.0682C9.16155 13.7726 7.3428 16.8355 7.22939 20.1886C6.98256 23.4944 8.52544 26.6791 11.2726 28.5344C11.6512 28.7908 12.0476 29.02 12.4587 29.2202C8.3955 30.1782 4.74154 31.8378 3.02549 34.5222C1.33884 37.0678 0.969413 40.2658 2.03126 43.1289C2.86902 45.2707 4.42393 47.0555 6.43075 48.1788C5.89234 48.8901 5.42867 49.655 5.0471 50.4614C3.70834 53.1974 3.57495 56.3686 4.67923 59.2074C5.63452 61.5159 7.39007 63.4027 9.62391 64.5216C11.3428 66.0892 13.4569 67.1583 15.7384 67.6135C17.4222 67.9347 19.1348 68.0813 20.8487 68.051C21.1432 68.051 21.4598 68.0349 21.7639 68.0283C17.7368 71.3801 17.1892 77.3619 20.541 81.3891C20.5425 81.3909 20.544 81.3927 20.5455 81.3945C21.4816 82.4518 22.6246 83.3061 23.9037 83.9045C19.2035 82.82 14.7924 80.7348 10.971 77.7912C8.41939 75.7297 4.67974 76.127 2.61825 78.6786C1.76474 79.7351 1.29906 81.0521 1.29883 82.4103C1.69919 93.0067 5.13332 103.265 11.1931 111.967C16.1359 119.366 23.0734 125.212 31.2021 128.83C39.3659 132.591 48.2364 134.573 57.2246 134.642C82.4649 134.642 102.152 118.074 110.872 103.436C118.892 89.9723 125.833 61.5661 112.507 39.5944Z" fill="#231F20"/>
<path d="M111.209 37.8761C112.237 36.0678 112.672 33.9819 112.451 31.9132C112.098 29.2281 110.561 26.8426 108.261 25.4126C107.947 25.2078 107.621 25.0229 107.285 24.8592C106.812 24.3992 106.297 23.9858 105.745 23.6247C103.635 22.4626 101.336 21.6832 98.9536 21.3223C102.693 19.2585 105.069 15.3777 105.207 11.1088C105.318 7.34018 103.231 3.84969 99.8594 2.16314C96.5205 0.276825 92.4498 0.224656 89.0637 2.02478C85.7867 3.98251 83.7354 7.47715 83.6235 11.2927C83.5245 12.7029 83.7106 14.1186 84.1707 15.4552C84.0757 15.4189 83.984 15.3768 83.8887 15.3409C80.3447 14.0193 76.6956 12.9988 72.9802 12.2903C72.4151 8.45988 70.0303 5.14018 66.5806 3.38195C65.6842 2.59178 64.6955 1.91298 63.636 1.36035C58.1179 -1.54614 36.8099 0.086036 32.0558 7.40615C30.2345 10.0801 29.7582 13.4483 30.7666 16.5225C31.6764 19.1786 33.5791 21.3794 36.0758 22.6635C36.2564 22.8367 36.4437 23.0032 36.6376 23.1631C35.8408 24.0963 35.1654 25.1266 34.6276 26.2296C33.9655 27.6472 33.5491 29.167 33.396 30.7241C32.7814 30.1996 32.1048 29.7522 31.3814 29.3921C30.318 28.3524 29.0365 27.5625 27.6298 27.0797C25.4786 26.5403 23.2612 26.3115 21.0452 26.4004C23.4747 24.4683 24.9329 21.5664 25.0332 18.4638C25.1331 15.0786 23.2595 11.9429 20.231 10.427C17.2919 8.78504 13.7181 8.75599 10.7526 10.35C7.86275 12.0544 6.04401 15.1172 5.93061 18.4704C5.68377 21.7761 7.22664 24.9609 9.97383 26.8161C10.3525 27.0725 10.7488 27.3017 11.1599 27.502C7.09671 28.4599 3.44274 30.1196 1.72671 32.8039C0.0400469 35.3495 -0.329388 38.5476 0.732466 41.4107C1.57022 43.5524 3.12511 45.3372 5.1319 46.4605C4.59352 47.1718 4.12986 47.9367 3.74829 48.7431C2.40955 51.4791 2.27616 54.6503 3.38044 57.489C4.33571 59.7976 6.09126 61.6843 8.3251 62.8032C10.0441 64.3709 12.1581 65.44 14.4396 65.8953C16.1235 66.2164 17.836 66.363 19.55 66.3327C19.8445 66.3327 20.161 66.3166 20.4652 66.3101C16.438 69.6618 15.8905 75.6436 19.2423 79.6708C19.2438 79.6726 19.2453 79.6744 19.2468 79.6762C20.1829 80.7335 21.3259 81.5878 22.605 82.1862C17.9048 81.1017 13.4937 79.0166 9.67229 76.0729C7.12072 74.0114 3.38105 74.4087 1.31951 76.9602C0.465934 78.0167 0.000223981 79.3338 0 80.692C0.400367 91.2884 3.83449 101.547 9.89429 110.249C14.8371 117.647 21.7746 123.494 29.9033 127.112C38.0671 130.873 46.9375 132.854 55.9257 132.924C81.1661 132.924 100.854 116.356 109.573 101.718C117.593 88.254 124.535 59.8479 111.209 37.8761Z" fill="white"/>
<path d="M49.9394 80.4199C30.4522 101.151 5.92969 80.6765 5.92969 80.6765C5.92969 80.6765 6.95067 110.332 32.3181 121.674C66.5377 136.975 93.9192 116.361 104.462 98.6631C115.806 79.62 121.071 36.7769 82.8343 22.3732C72.7997 18.8846 62.2647 17.0509 51.6416 16.9438C51.6416 16.9438 68.4194 25.5922 66.2627 43.2432C62.8555 71.1297 39.2974 69.6392 39.2974 69.6392L49.9394 80.4199Z" fill="#22093A" stroke="#22093A" stroke-linecap="round" stroke-linejoin="round"/>
<path d="M48.8905 78.929C29.4035 99.66 5.92969 80.6761 5.92969 80.6761C5.92969 80.6761 5.90177 108.841 31.2692 120.184C65.4888 135.484 92.8703 114.87 103.413 97.1722C114.757 78.1291 120.022 35.2861 81.7853 20.8824C72.1215 17.484 61.8541 16.1423 51.6415 16.9435C51.6415 16.9435 67.3705 24.1013 65.2138 41.7524C61.8066 69.6388 39.2973 69.6388 39.2973 69.6388L48.8905 78.929Z" fill="#E6E7E8" stroke="#22093A" stroke-linecap="round" stroke-linejoin="round"/>
<path d="M66.0983 60.6465C66.0983 60.6465 57.3042 71.1915 64.2325 73.9538C70.0956 76.2914 75.6345 64.8322 75.6345 64.8322" stroke="#22093A" stroke-linecap="round" stroke-linejoin="round"/>
<path d="M84.1647 79.0286C79.2566 77.227 66.6107 77.227 62.2448 87.7914C57.2996 99.7578 65.1595 107.015 65.1595 107.015" stroke="#22093A" stroke-linecap="round" stroke-linejoin="round"/>
<path d="M51.1111 94.1804C51.6608 97.2321 48.8647 98.7994 45.4196 99.9069C41.9744 101.014 37.2072 100.748 36.2582 97.7963C35.3093 94.8443 39.2625 92.5099 42.8063 91.7776C46.9372 90.9238 50.5376 90.9963 51.1111 94.1804Z" fill="#22093A" stroke="#22093A" stroke-linecap="round" stroke-linejoin="round"/>
<path d="M66.9746 24.8047C72.0658 33.0751 72.3511 43.4353 67.7229 51.9734" stroke="white" stroke-linecap="round" stroke-linejoin="round"/>
<path d="M64.3984 21.2119C64.7737 21.6329 65.1273 22.0727 65.4579 22.5295" stroke="white" stroke-linecap="round" stroke-linejoin="round"/>
<path d="M11.8359 89.0942C16.7773 92.6446 22.7545 94.4603 28.8358 94.2583" stroke="white" stroke-linecap="round" stroke-linejoin="round"/>
<path d="M49.957 103.175C50.831 102.734 51.6172 102.137 52.2767 101.413" stroke="white" stroke-linecap="round" stroke-linejoin="round"/>
<path d="M36.1172 104.055C38.6309 105.554 41.6217 106.038 44.4798 105.408C45.4073 105.259 46.3144 105.003 47.1827 104.645" stroke="white" stroke-linecap="round" stroke-linejoin="round"/>
<path d="M107.113 67.2676C107.113 75.1852 103.783 86.9509 100.873 91.3134" stroke="#22093A" stroke-linecap="round" stroke-linejoin="round"/>
<path d="M98.3602 95.8071C97.02 97.9705 95.5119 100.025 93.8496 101.952" stroke="#22093A" stroke-linecap="round" stroke-linejoin="round"/>
<path d="M25.7597 70.1305C23.8487 70.549 22.6389 72.4374 23.0574 74.3484C23.1693 74.8594 23.393 75.3393 23.7124 75.7535C25.5442 77.8522 29.8543 78.0515 30.5008 74.8453C31.1735 72.9103 30.1503 70.7964 28.2153 70.1237C27.4197 69.8471 26.5537 69.8495 25.7597 70.1305Z" fill="#9736FF" stroke="#22093A" stroke-linecap="round" stroke-linejoin="round"/>
<path d="M89.5381 11.687C89.3823 14.2292 91.3169 16.4163 93.859 16.5721C94.5389 16.6138 95.2195 16.5043 95.852 16.2517C99.1322 14.7041 100.915 9.37711 97.1297 7.42669C93.3442 5.47627 89.8467 7.2185 89.5381 11.687Z" fill="#9736FF" stroke="#22093A" stroke-linecap="round" stroke-linejoin="round"/>
<path d="M28.1456 34.4491C25.338 33.4475 11.3683 34.4538 9.24282 37.7786C7.25431 40.8892 10.0276 44.0125 13.592 43.706C17.1564 43.3994 22.356 42.3772 22.356 42.3772C21.843 43.38 13.2668 49.5104 11.6546 53.0046C10.4137 55.6942 10.9638 59.0158 15.7295 60.0843C20.0403 61.0509 32.825 59.677 32.9035 56.3305C33.0246 51.1632 25.8531 51.1602 21.8391 51.865C21.8391 51.865 36.3204 37.3655 28.1456 34.4491Z" fill="#22093A" stroke="#22093A" stroke-linecap="round" stroke-linejoin="round"/>
<path d="M63.381 8.39104C60.0602 6.64184 42.2567 8.24809 39.5511 12.4154C37.0198 16.3143 40.4839 20.2714 44.9745 19.9171C49.4651 19.5628 56.0209 18.3218 56.0209 18.3218C55.3662 19.5799 44.574 26.1478 42.5131 30.5331C40.7218 33.8717 41.9761 38.0303 45.3147 39.8217C46.0027 40.1908 46.7486 40.4398 47.5205 40.5579C52.9396 41.8131 67.8992 40.0001 69.1774 35.9838C71.5119 28.648 60.3462 29.4116 55.2859 30.2632C55.286 30.2632 75.2627 14.6497 63.381 8.39104Z" fill="#22093A" stroke="#22093A" stroke-linecap="round" stroke-linejoin="round"/>
<path d="M104.995 30.3625C102.77 28.9001 90.4368 26.8209 87.8901 29.2564C85.5073 31.5351 87.2535 34.8311 90.4109 35.3184C93.5683 35.8057 98.2958 36.0177 98.2958 36.0177C97.6388 36.7794 88.9021 40.2859 86.7648 42.9769C85.1197 45.0483 84.8951 48.0466 88.8042 49.9808C92.3402 51.7304 103.723 53.2403 104.499 50.3533C105.696 45.8955 99.4739 44.3774 95.8423 44.1405C95.8423 44.1405 111.471 34.6205 104.995 30.3625Z" fill="#22093A" stroke="#22093A" stroke-linecap="round" stroke-linejoin="round"/>
<path d="M25.6261 32.6571C22.8185 31.6556 8.84871 32.6618 6.72329 35.9866C4.73478 39.0972 7.50808 42.2205 11.0724 41.914C14.6368 41.6074 19.8364 40.5852 19.8364 40.5852C19.3235 41.588 10.7472 47.7184 9.13508 51.2126C7.89414 53.9022 8.44427 57.2238 13.21 58.2924C17.5208 59.2589 30.3055 57.885 30.384 54.5385C30.5051 49.3712 23.3337 49.3682 19.3196 50.073C19.3196 50.073 33.8009 35.5735 25.6261 32.6571Z" fill="#71C1F2" stroke="#22093A" stroke-linecap="round" stroke-linejoin="round"/>
<path d="M60.8614 6.59905C57.5407 4.84984 39.7372 6.45609 37.0316 10.6234C34.5003 14.5223 37.9644 18.4794 42.4549 18.1251C46.9455 17.7708 53.5014 16.5298 53.5014 16.5298C52.8466 17.7879 42.0544 24.3558 39.9936 28.741C38.2022 32.0796 39.4565 36.2383 42.7951 38.0296C43.4831 38.3988 44.2291 38.6478 45.0009 38.7659C50.42 40.0211 65.3797 38.2082 66.6578 34.1918C68.9923 26.856 57.8266 27.6196 52.7664 28.4712C52.7664 28.4712 72.7432 12.8577 60.8614 6.59905Z" fill="#71C1F2" stroke="#22093A" stroke-linecap="round" stroke-linejoin="round"/>
<path d="M102.473 28.5705C100.249 27.1081 87.9153 25.0289 85.3686 27.4644C82.9859 29.7431 84.7321 33.0391 87.8895 33.5264C91.0468 34.0137 95.7743 34.2257 95.7743 34.2257C95.1173 34.9874 86.3806 38.4939 84.2434 41.1849C82.5983 43.2563 82.3736 46.2546 86.2827 48.1888C89.8187 49.9384 101.202 51.4483 101.977 48.5613C103.174 44.1035 96.9524 42.5854 93.3208 42.3485C93.3208 42.3485 108.95 32.8285 102.473 28.5705Z" fill="#71C1F2" stroke="#22093A" stroke-linecap="round" stroke-linejoin="round"/>
<path d="M15.4617 35.4922C12.6265 35.6211 8.63146 36.8775 9.34072 38.2628" stroke="white" stroke-linecap="round" stroke-linejoin="round"/>
<path d="M48.3456 9.39551C44.5251 9.93171 38.4159 11.1414 39.7099 13.8527C40.0669 14.6038 40.7426 15.1546 41.5502 15.3528" stroke="white" stroke-linecap="round" stroke-linejoin="round"/>
<path d="M43.192 29.564C41.8856 31.4706 42.3722 34.0753 44.2789 35.3818C44.7109 35.6778 45.1947 35.8901 45.705 36.0076" stroke="white" stroke-linecap="round" stroke-linejoin="round"/>
<path d="M12.3613 54.9521C12.3613 55.3123 13.6801 55.5321 13.6801 55.5321" stroke="white" stroke-linecap="round" stroke-linejoin="round"/>
<path d="M88.8519 41.167C88.8519 41.167 84.9565 43.2658 86.6557 44.6574L88.8519 41.167Z" fill="#71C1F2"/>
<path d="M88.8519 41.167C88.8519 41.167 84.9565 43.2658 86.6557 44.6574" stroke="white" stroke-linecap="round" stroke-linejoin="round"/>
<path d="M87.5332 30.1592C87.5332 30.5193 88.852 30.7391 88.852 30.7391" stroke="white" stroke-linecap="round" stroke-linejoin="round"/>
<path d="M11.8451 18.8638C11.7291 20.7576 13.1702 22.3868 15.0639 22.5028C15.5703 22.5339 16.0773 22.4523 16.5485 22.2641C18.9919 21.1114 20.3202 17.1431 17.5004 15.6902C15.8736 14.5497 13.6302 14.9439 12.4897 16.5707C12.0207 17.2397 11.7933 18.0484 11.8451 18.8638Z" fill="#71C1F2" stroke="#22093A" stroke-linecap="round" stroke-linejoin="round"/>
</g>
<defs>
<clipPath id="clip0_5_11012">
<rect width="120" height="134.642" fill="white"/>
</clipPath>
</defs>
</svg>
