<svg width="120" height="120" viewBox="0 0 120 120" fill="none" xmlns="http://www.w3.org/2000/svg">
<path d="M55.1349 51.427L24.3245 48.3494C24.3245 48.3494 24.0561 24.8661 41.4032 13.0081C57.844 1.76962 99.4087 2.1264 103.69 35.1283C108.114 69.2327 80.3211 75.0874 76.5749 76.3362C72.8287 77.5849 56.9521 78.1201 53.6683 87.5747C50.7104 96.091 51.8687 96.4942 51.8687 96.4942L36.6888 92.4395C36.6888 92.4395 37.9818 75.0497 51.5667 68.1303C65.9263 60.8163 71.9368 57.9621 73.1384 50.6482C74.0063 45.3657 71.0362 40.5451 65.2236 39.9449C59.2641 39.3295 56.3603 43.6915 55.1349 51.427Z" fill="#22093A" stroke="#22093A" stroke-linecap="round" stroke-linejoin="round"/>
<path d="M52.2443 109.315C53.2848 105.398 50.6757 101.305 46.4168 100.174C42.1579 99.0428 37.8619 101.301 36.8214 105.218C35.781 109.135 38.39 113.228 42.6489 114.359C46.9079 115.49 51.2038 113.232 52.2443 109.315Z" fill="#22093A" stroke="#22093A" stroke-linecap="round" stroke-linejoin="round"/>
<path d="M53.4238 50.762L24.3996 47.8426C24.3996 47.8426 22.345 24.2011 39.6921 12.3431C56.133 1.10458 97.6976 1.46135 101.979 34.4633C106.403 68.5678 78.61 74.4224 74.8638 75.6712C71.1176 76.9199 55.241 77.4551 51.9572 86.9097C48.9993 95.426 50.1576 95.8291 50.1576 95.8291L36.6886 92.4397C36.6886 92.4397 36.2706 74.3846 49.8555 67.4653C64.2152 60.1513 70.2257 57.2971 71.4274 49.9832C72.2952 44.7007 69.325 39.88 63.5125 39.2798C57.553 38.6644 54.6492 43.0264 53.4238 50.762Z" fill="#71C1F2" stroke="#22093A" stroke-linecap="round" stroke-linejoin="round"/>
<path d="M50.9434 108.969C51.9839 105.052 49.3748 100.96 45.1159 99.8285C40.857 98.6972 36.5611 100.955 35.5206 104.872C34.4802 108.789 37.0892 112.882 41.3481 114.013C45.607 115.144 49.903 112.886 50.9434 108.969Z" fill="#71C1F2" stroke="#22093A" stroke-width="0.999994" stroke-miterlimit="3.99998" stroke-linecap="round" stroke-linejoin="round"/>
<path d="M48.2601 19.6567C48.2601 19.6567 41.5052 30.8952 50.1577 31.6087C58.6949 32.3128 56.9637 19.6567 56.9637 19.6567" stroke="#22093A" stroke-linecap="round" stroke-linejoin="round"/>
<path d="M67.987 21.9761C67.987 21.9761 62.1971 33.9281 69.4536 34.8201C76.6715 35.7073 77.7169 23.9383 77.7169 23.9383" stroke="#22093A" stroke-linecap="round" stroke-linejoin="round"/>
<path d="M82.0962 57.6358C83.8776 57.2005 84.5698 53.7702 83.6422 49.9739C82.7147 46.1776 80.5186 43.4529 78.7372 43.8882C76.9558 44.3234 76.2637 47.7538 77.1912 51.5501C78.1188 55.3464 80.3148 58.071 82.0962 57.6358Z" fill="#22093A" stroke="#22093A" stroke-linecap="round" stroke-linejoin="round"/>
<path d="M81.4027 56.967C82.6023 56.967 83.5749 55.9944 83.5749 54.7948C83.5749 53.5951 82.6023 52.6226 81.4027 52.6226C80.203 52.6226 79.2305 53.5951 79.2305 54.7948C79.2305 55.9944 80.203 56.967 81.4027 56.967Z" fill="#FD32B0"/>
<path d="M57.4452 61.7859C54.1448 61.2326 53.7065 65.8278 51.8417 68.3878C51.1595 65.5848 49.7787 60.6478 46.5417 60.1403C42.8001 59.5538 40.643 65.3309 38.3449 71.062C35.8516 77.2801 33.5542 85.9888 37.6288 86.9348C42.3264 88.0256 46.1948 75.2963 46.1948 75.2963C46.1948 75.2963 40.3298 83.9811 48.4227 85.1269C53.1917 85.8021 54.6113 76.914 54.6113 76.914C54.6113 76.914 48.8741 89.2232 57.8248 90.4604C60.2303 90.7929 62.0502 87.8872 62.6193 84.5962C63.2348 81.0361 64.6212 62.9891 57.4452 61.7859Z" fill="#22093A" stroke="#22093A" stroke-linecap="round" stroke-linejoin="round"/>
<path d="M33.5035 58.6267C30.4264 58.4184 29.5617 62.8136 28.7626 70.408C27.8824 70.2951 26.9311 70.2241 25.9336 70.1761C26.4912 63.5573 24.5199 58.8702 21.0291 58.6341C17.6766 58.4072 16.7025 63.416 16.0746 72.5369C15.4466 81.6576 12.7023 85.8404 20.7865 87.1087C22.9288 87.4448 24.0704 83.4652 24.8783 78.5172C25.3721 78.536 25.8877 78.54 26.4455 78.5149C26.7105 78.5249 26.9757 78.5081 27.2373 78.4647C27.3956 84.0393 27.9811 86.6014 33.2862 87.1087C36.1857 87.386 37.2126 80.5416 38.1315 73.0564C39.1699 64.5991 37.4717 58.8952 33.5035 58.6267Z" fill="#22093A" stroke="#22093A" stroke-linecap="round" stroke-linejoin="round"/>
<path d="M80.4173 67.3932C77.3158 66.8732 76.7636 71.1358 75.0112 73.5416C74.3701 70.9075 72.9274 66.1904 69.8855 65.7135C66.3694 65.1623 64.4873 70.6689 62.3277 76.0547C59.9847 81.898 57.8257 90.082 61.6548 90.971C66.0693 91.996 69.7046 80.0338 69.7046 80.0338C69.7046 80.0338 63.9114 88.4809 71.7982 89.272C76.302 89.7238 77.6139 81.554 77.6139 81.554C77.6139 81.554 72.057 93.045 80.6338 94.2841C82.8924 94.6104 84.6045 91.866 85.1393 88.7733C85.7178 85.4277 87.1609 68.5238 80.4173 67.3932Z" fill="#22093A" stroke="#22093A" stroke-linecap="round" stroke-linejoin="round"/>
<path d="M98.5024 70.9261C96.2149 70.332 94.2964 71.7585 90.5526 81.1006C87.2101 89.4416 90.5049 90.6862 91.3812 90.9138C92.2575 91.1414 97.2846 92.9195 100.592 83.708C103.899 74.4966 101.892 71.8065 98.5024 70.9261Z" fill="#22093A" stroke="#22093A" stroke-linecap="round" stroke-linejoin="round"/>
<path d="M89.0859 100.246C91.3738 100.246 93.2285 98.3909 93.2285 96.103C93.2285 93.8151 91.3738 91.9604 89.0859 91.9604C86.798 91.9604 84.9434 93.8151 84.9434 96.103C84.9434 98.3909 86.798 100.246 89.0859 100.246Z" fill="#22093A" stroke="#22093A" stroke-linecap="round" stroke-linejoin="round"/>
<path d="M56.396 61.4683C53.0956 60.9149 51.5873 64.5597 49.7225 67.1197C49.0403 64.3167 48.9903 60.4338 45.7533 59.9263C42.0118 59.3398 38.5239 64.0628 36.2257 69.7939C33.7324 76.0119 31.4351 84.7207 35.5097 85.6667C40.2073 86.7575 44.0757 74.0282 44.0757 74.0282C44.0757 74.0282 42.1456 83.146 46.3035 83.8588C51.0509 84.6726 52.4922 75.6458 52.4922 75.6458C52.4922 75.6458 50.4534 88.3894 55.7056 89.1924C58.1062 89.5593 59.931 86.6192 60.5001 83.3281C61.1157 79.768 63.572 62.6715 56.396 61.4683Z" fill="#FD32B0" stroke="#22093A" stroke-linecap="round" stroke-linejoin="round"/>
<path d="M32.5535 58.4575C29.4763 58.2493 27.4446 61.5452 26.6455 69.1396C25.7653 69.0267 24.814 68.9558 23.8165 68.9077C24.3741 62.289 23.5446 58.6937 20.0538 58.4575C16.7013 58.2306 14.5854 62.1477 13.9574 71.2685C13.3294 80.3893 14.2394 85.8448 18.6694 85.8404C20.8378 85.8382 21.9533 82.1969 22.7612 77.2488C23.255 77.2677 23.7705 77.2717 24.3283 77.2465C25.0364 77.2146 25.6851 77.1535 26.2993 77.0743C26.4576 82.649 27.783 85.8438 31.169 85.8403C34.0817 85.8374 35.0954 79.2732 36.0143 71.788C37.0528 63.3307 36.5216 58.726 32.5535 58.4575Z" fill="#FD32B0" stroke="#22093A" stroke-linecap="round" stroke-linejoin="round"/>
<path d="M79.1653 66.9627C76.0638 66.4427 74.6464 69.8678 72.894 72.2736C72.2529 69.6395 72.2059 65.9906 69.1639 65.5137C65.6479 64.9624 62.3701 69.4009 60.2105 74.7867C57.8675 80.63 55.7085 88.814 59.5376 89.703C63.9521 90.728 67.5874 78.7657 67.5874 78.7657C67.5874 78.7657 65.7737 87.3342 69.681 88.004C74.1423 88.7688 75.4968 80.2859 75.4968 80.2859C75.4968 80.2859 73.5809 92.2616 78.5166 93.0161C80.7725 93.361 82.4873 90.598 83.0222 87.5052C83.6006 84.1597 85.9089 68.0934 79.1653 66.9627Z" fill="#FD32B0" stroke="#22093A" stroke-linecap="round" stroke-linejoin="round"/>
<path d="M97.5771 70.6339C95.2895 70.0398 92.1772 70.4903 88.4335 79.8325C85.091 88.1734 88.3857 89.418 89.262 89.6456C90.1383 89.8732 95.1654 91.6513 98.4726 82.4398C101.78 73.2283 100.966 71.5142 97.5771 70.6339Z" fill="#FD32B0" stroke="#22093A" stroke-linecap="round" stroke-linejoin="round"/>
<path d="M88.1191 99.4043C90.407 99.4043 92.2617 97.5496 92.2617 95.2617C92.2617 92.9738 90.407 91.1191 88.1191 91.1191C85.8313 91.1191 83.9766 92.9738 83.9766 95.2617C83.9766 97.5496 85.8313 99.4043 88.1191 99.4043Z" fill="#FD32B0" stroke="#22093A" stroke-linecap="round" stroke-linejoin="round"/>
<path d="M16.4902 75.1455C16.4902 77.31 16.5472 80.443 17.4586 81.6392" stroke="white" stroke-linecap="round" stroke-linejoin="round"/>
<path d="M41.207 65.6754C41.8719 64.6522 42.6898 63.7371 43.6321 62.962C44.3658 62.2995 45.4976 62.3571 46.1601 63.0907C46.3873 63.3423 46.5384 63.6533 46.5958 63.9874" stroke="white" stroke-linecap="round" stroke-linejoin="round"/>
<path d="M39.1328 69.3417C39.305 68.9359 39.5329 68.4663 39.8017 67.9668" stroke="white" stroke-linecap="round" stroke-linejoin="round"/>
<path d="M61.1582 80.1948C61.3533 79.6015 61.5703 78.9964 61.8041 78.3921" stroke="white" stroke-linecap="round" stroke-linejoin="round"/>
<path d="M60.606 86.715C59.9677 86.1795 60.0222 84.5713 60.4897 82.5532" stroke="white" stroke-linecap="round" stroke-linejoin="round"/>
<path d="M91.7656 78.0571C92.506 76.3175 94.5567 72.3051 96.4935 72.8741" stroke="white" stroke-linecap="round" stroke-linejoin="round"/>
<path d="M86.6969 96.103C86.2626 95.3955 86.4841 94.4699 87.1916 94.0356C87.3541 93.9358 87.5342 93.8679 87.7222 93.8354" stroke="white" stroke-linecap="round" stroke-linejoin="round"/>
<path d="M76.1582 72.1445C76.6472 71.0979 77.5253 69.285 79.2341 69.6838" stroke="white" stroke-linecap="round" stroke-linejoin="round"/>
<path d="M82.4806 14.3797C80.0605 12.5692 76.1444 10.5326 75.0905 11.7801C74.0407 13.0227 78.878 16.7582 81.0938 18.0329C85.8424 20.7646 88.3329 18.7579 82.4806 14.3797Z" fill="#22093A" stroke="#22093A" stroke-linecap="round" stroke-linejoin="round"/>
<path d="M56.1898 7.50075C53.3421 6.48784 48.9986 5.7019 48.3613 7.20555C47.7264 8.70322 53.4528 10.8392 55.9467 11.4007C61.2911 12.6041 63.0758 9.95013 56.1898 7.50075Z" fill="#22093A" stroke="#22093A" stroke-linecap="round" stroke-linejoin="round"/>
<path d="M27.9809 38.8564C27.9102 39.5412 27.8742 40.2292 27.873 40.9176" stroke="white" stroke-linecap="round" stroke-linejoin="round"/>
<path d="M38.5936 17.4492C35.5448 20.0361 30.3905 27.7583 28.5508 35.535" stroke="white" stroke-linecap="round" stroke-linejoin="round"/>
<path d="M40.8138 102.764C39.1049 103.315 37.3533 105.327 38.5943 108.656" stroke="white" stroke-linecap="round" stroke-linejoin="round"/>
<path d="M87.7209 45.2183C89.6112 50.0017 89.6007 55.3005 87.1055 58.6194L87.7209 45.2183Z" fill="#71C1F2"/>
<path d="M87.7209 45.2183C89.6112 50.0017 89.6007 55.3005 87.1055 58.6194" stroke="#22093A" stroke-linecap="round" stroke-linejoin="round"/>
</svg>
