<svg width="120" height="120" viewBox="0 0 120 120" fill="none" xmlns="http://www.w3.org/2000/svg">
<path d="M56.6527 73.9977C39.426 92.3239 17.748 74.2245 17.748 74.2245C17.748 74.2245 18.6505 100.44 41.0754 110.467C71.3256 123.992 95.5309 105.77 104.851 90.1248C114.879 73.2906 119.533 35.4173 85.7318 22.6844C76.8613 19.6004 67.5483 17.9794 58.1574 17.8848C58.1574 17.8848 72.989 25.5299 71.0825 41.1335C68.0705 65.7852 47.2451 64.4676 47.2451 64.4676L56.6527 73.9977Z" fill="#22093A" stroke="#22093A" stroke-linecap="round" stroke-linejoin="round"/>
<path d="M55.7255 72.68C38.4989 91.0062 17.748 74.2244 17.748 74.2244C17.748 74.2244 17.7234 99.1225 40.1482 109.149C70.3984 122.675 94.6037 104.452 103.923 88.8071C113.952 71.9728 118.606 34.0995 84.8046 21.3666C76.2618 18.3624 67.1854 17.1764 58.1574 17.8846C58.1574 17.8846 72.0619 24.2122 70.1554 39.8158C67.1434 64.4675 47.2451 64.4675 47.2451 64.4675L55.7255 72.68Z" fill="#E6E7E8" stroke="#22093A" stroke-linecap="round" stroke-linejoin="round"/>
<path d="M70.9365 56.5181C70.9365 56.5181 63.1626 65.8398 69.2872 68.2817C74.4702 70.3482 79.3666 60.2182 79.3666 60.2182" stroke="#22093A" stroke-linecap="round" stroke-linejoin="round"/>
<path d="M86.9072 72.7681C82.5684 71.1754 71.3895 71.1754 67.53 80.5144C63.1584 91.0927 70.1066 97.5084 70.1066 97.5084" stroke="#22093A" stroke-linecap="round" stroke-linejoin="round"/>
<path d="M57.688 86.1623C58.1739 88.86 55.7022 90.2455 52.6567 91.2245C49.6112 92.2035 45.3969 91.9683 44.5581 89.3587C43.7192 86.7491 47.2138 84.6856 50.3466 84.0382C53.9983 83.2834 57.1811 83.3475 57.688 86.1623Z" fill="#22093A" stroke="#22093A" stroke-linecap="round" stroke-linejoin="round"/>
<path d="M71.7109 24.834C76.2115 32.1451 76.4638 41.3035 72.3724 48.8512" stroke="white" stroke-linecap="round" stroke-linejoin="round"/>
<path d="M69.4355 21.6577C69.7672 22.0299 70.0798 22.4186 70.3721 22.8225" stroke="white" stroke-linecap="round" stroke-linejoin="round"/>
<path d="M22.9688 81.666C27.337 84.8045 32.6208 86.4096 37.9967 86.2311" stroke="white" stroke-linecap="round" stroke-linejoin="round"/>
<path d="M56.668 94.1129C57.4406 93.723 58.1355 93.1952 58.7186 92.5557" stroke="white" stroke-linecap="round" stroke-linejoin="round"/>
<path d="M44.4336 94.8911C46.6557 96.2163 49.2995 96.6441 51.8262 96.0873C52.6461 95.956 53.4479 95.7298 54.2155 95.4131" stroke="white" stroke-linecap="round" stroke-linejoin="round"/>
<path d="M107.192 62.3711C107.192 69.3703 104.248 79.7712 101.676 83.6277" stroke="#22093A" stroke-linecap="round" stroke-linejoin="round"/>
<path d="M99.456 87.6006C98.2714 89.513 96.9382 91.3293 95.4688 93.0327" stroke="#22093A" stroke-linecap="round" stroke-linejoin="round"/>
<path d="M35.2785 64.9023C33.5892 65.2722 32.5196 66.9415 32.8896 68.6308C32.9885 69.0826 33.1863 69.5068 33.4686 69.873C35.088 71.7283 38.8981 71.9045 39.4696 69.0702C40.0644 67.3597 39.1598 65.4909 37.4493 64.8962C36.746 64.6517 35.9804 64.6538 35.2785 64.9023Z" fill="#9736FF" stroke="#22093A" stroke-linecap="round" stroke-linejoin="round"/>
<path d="M91.6582 13.2378C91.5204 15.4851 93.2306 17.4185 95.4779 17.5562C96.0789 17.593 96.6805 17.4963 97.2397 17.2729C100.139 15.9049 101.716 11.1958 98.3691 9.47161C95.0227 7.74742 91.931 9.28759 91.6582 13.2378Z" fill="#9736FF" stroke="#22093A" stroke-linecap="round" stroke-linejoin="round"/>
<path d="M37.3856 33.3598C34.9037 32.4744 22.5544 33.364 20.6755 36.3031C18.9176 39.0529 21.3692 41.8138 24.5201 41.5429C27.6711 41.2719 32.2675 40.3682 32.2675 40.3682C31.8141 41.2547 24.2327 46.674 22.8075 49.7629C21.7105 52.1405 22.1968 55.0768 26.4097 56.0214C30.2205 56.8758 41.5222 55.6613 41.5916 52.703C41.6986 48.1351 35.3591 48.1325 31.8106 48.7555C31.8106 48.7555 44.6122 35.9379 37.3856 33.3598Z" fill="#22093A" stroke="#22093A" stroke-linecap="round" stroke-linejoin="round"/>
<path d="M68.5351 10.3242C65.5996 8.77787 49.8612 10.1978 47.4694 13.8817C45.2317 17.3283 48.294 20.8264 52.2637 20.5132C56.2334 20.2 62.0288 19.103 62.0288 19.103C61.45 20.2152 51.9096 26.0212 50.0878 29.8977C48.5043 32.8491 49.6131 36.5253 52.5644 38.1089C53.1726 38.4352 53.8321 38.6553 54.5143 38.7597C59.3048 39.8693 72.5292 38.2667 73.6591 34.7162C75.7228 28.2314 65.8523 28.9063 61.379 29.6592C61.3791 29.6592 79.0386 15.8569 68.5351 10.3242Z" fill="#22093A" stroke="#22093A" stroke-linecap="round" stroke-linejoin="round"/>
<path d="M105.32 29.7468C103.354 28.454 92.4512 26.616 90.1999 28.769C88.0936 30.7834 89.6372 33.697 92.4284 34.1278C95.2195 34.5586 99.3986 34.746 99.3986 34.746C98.8178 35.4193 91.0946 38.5191 89.2052 40.898C87.7509 42.7291 87.5523 45.3795 91.008 47.0894C94.1338 48.6361 104.196 49.9708 104.882 47.4187C105.94 43.478 100.44 42.136 97.2297 41.9266C97.2297 41.9266 111.046 33.5108 105.32 29.7468Z" fill="#22093A" stroke="#22093A" stroke-linecap="round" stroke-linejoin="round"/>
<path d="M35.159 31.7758C32.6771 30.8904 20.3278 31.78 18.4489 34.7191C16.6911 37.4689 19.1427 40.2299 22.2936 39.9589C25.4445 39.6879 30.041 38.7843 30.041 38.7843C29.5875 39.6708 22.0061 45.09 20.5809 48.1789C19.484 50.5566 19.9703 53.4929 24.1832 54.4374C27.9939 55.2918 39.2957 54.0773 39.365 51.119C39.4721 46.5511 33.1325 46.5485 29.5841 47.1715C29.5841 47.1715 42.3856 34.3539 35.159 31.7758Z" fill="#71C1F2" stroke="#22093A" stroke-linecap="round" stroke-linejoin="round"/>
<path d="M66.3066 8.74018C63.3711 7.19387 47.6327 8.6138 45.2409 12.2977C43.0032 15.7444 46.0655 19.2424 50.0352 18.9292C54.0049 18.616 59.8003 17.519 59.8003 17.519C59.2215 18.6312 49.6811 24.4372 47.8593 28.3138C46.2758 31.2651 47.3846 34.9413 50.3359 36.5249C50.9441 36.8512 51.6035 37.0713 52.2858 37.1758C57.0763 38.2853 70.3007 36.6827 71.4306 33.1322C73.4943 26.6474 63.6238 27.3223 59.1505 28.0752C59.1506 28.0752 76.81 14.2729 66.3066 8.74018Z" fill="#71C1F2" stroke="#22093A" stroke-linecap="round" stroke-linejoin="round"/>
<path d="M103.092 28.1628C101.126 26.87 90.2227 25.032 87.9714 27.185C85.8651 29.1994 87.4087 32.113 90.1998 32.5438C92.991 32.9746 97.1701 33.162 97.1701 33.162C96.5893 33.8353 88.866 36.9351 86.9767 39.314C85.5224 41.1451 85.3238 43.7956 88.7795 45.5054C91.9053 47.0521 101.968 48.3868 102.653 45.8347C103.712 41.894 98.2115 40.552 95.0011 40.3426C95.0011 40.3426 108.817 31.9269 103.092 28.1628Z" fill="#71C1F2" stroke="#22093A" stroke-linecap="round" stroke-linejoin="round"/>
<path d="M26.1737 34.2817C23.6674 34.3957 20.1358 35.5063 20.7627 36.7309" stroke="white" stroke-linecap="round" stroke-linejoin="round"/>
<path d="M55.2433 11.2119C51.866 11.6859 46.4654 12.7553 47.6094 15.1521C47.925 15.816 48.5223 16.3029 49.2362 16.4782" stroke="white" stroke-linecap="round" stroke-linejoin="round"/>
<path d="M50.6871 29.041C49.5322 30.7265 49.9624 33.0291 51.6479 34.184C52.0298 34.4456 52.4574 34.6333 52.9086 34.7372" stroke="white" stroke-linecap="round" stroke-linejoin="round"/>
<path d="M23.4316 51.4844C23.4316 51.8028 24.5975 51.997 24.5975 51.997" stroke="white" stroke-linecap="round" stroke-linejoin="round"/>
<path d="M91.0513 39.2983C91.0513 39.2983 87.6077 41.1537 89.1098 42.3839L91.0513 39.2983Z" fill="#71C1F2"/>
<path d="M91.0513 39.2983C91.0513 39.2983 87.6077 41.1537 89.1098 42.3839" stroke="white" stroke-linecap="round" stroke-linejoin="round"/>
<path d="M89.8848 29.5674C89.8848 29.8858 91.0506 30.08 91.0506 30.08" stroke="white" stroke-linecap="round" stroke-linejoin="round"/>
<path d="M22.9771 19.5821C22.8745 21.2561 24.1485 22.6964 25.8225 22.799C26.2702 22.8264 26.7184 22.7543 27.1349 22.588C29.2949 21.5689 30.4691 18.061 27.9763 16.7766C26.5381 15.7684 24.555 16.117 23.5468 17.5551C23.1323 18.1465 22.9313 18.8613 22.9771 19.5821Z" fill="#71C1F2" stroke="#22093A" stroke-linecap="round" stroke-linejoin="round"/>
</svg>
