<svg width="120" height="118" viewBox="0 0 120 118" fill="none" xmlns="http://www.w3.org/2000/svg">
<g clip-path="url(#clip0_4_10981)">
<path opacity="0.5" d="M108.353 75.15C106.655 74.3054 104.815 73.8783 102.872 73.8783C102.856 73.8783 102.838 73.8783 102.821 73.8783C102.185 73.8812 101.496 73.9321 100.769 74.0575C103.88 66.7099 105.64 56.7179 102.878 47.4399C108.8 46.0708 114.382 42.7869 116.693 37.186C120.242 28.5851 119.747 13.4791 107.68 6.50176C103.085 2.99725 97.11 1.39805 89.9121 1.75949C88.0134 1.85391 85.1662 2.53401 82.8205 5.34662C78.7664 2.5377 73.9187 1.28077 69.5991 1.96234C65.8268 2.55688 62.5576 4.04912 59.9227 6.34981C59.9109 6.34317 59.8991 6.33653 59.8873 6.32989C55.6725 3.08945 50.4397 1.59131 45.8147 2.32526C42.7417 2.80989 39.9519 3.92815 37.5767 5.60922C34.0243 3.51507 28.8918 2.77522 22.2634 3.40885C12.0737 4.38327 4.49223 11.1681 2.47996 21.1166C0.418998 31.3092 4.70025 41.569 12.9101 46.2575C14.8605 47.7475 17.0424 48.8562 19.3984 49.554C21.4933 50.1751 23.7106 50.5335 25.9324 50.6162C25.8277 50.968 25.7583 51.3361 25.7288 51.716C25.6226 53.0681 25.388 56.0784 25.0325 57.187C23.9231 57.5433 20.9135 57.7779 19.5622 57.8834C16.8093 58.0973 14.6849 60.3935 14.6849 63.1545C14.6849 63.7278 14.7957 64.2729 14.9656 64.7916C14.6394 64.7972 14.3134 64.7937 13.9871 64.8319C11.4113 65.1299 9.08771 66.3795 7.4472 68.3504C5.74179 70.3959 4.97022 72.9629 5.27412 75.5771C5.52428 77.7454 6.52543 79.6841 8.00864 81.1733C5.97322 84.6032 5.06998 89.7899 5.33756 96.7421C5.55885 102.514 6.01176 114.306 14.4238 116.847C15.843 117.577 17.4348 117.95 19.1196 117.95C19.571 117.95 20.0298 117.923 20.4945 117.869C22.2442 117.664 23.7313 116.977 24.9528 115.814C24.9882 115.826 25.0236 115.837 25.059 115.849C29.3683 118.01 35.7946 117.64 40.4373 116.251C43.0574 115.468 45.3145 114.349 47.1557 112.932C48.8109 113.949 50.7023 114.777 52.8193 115.412C55.0027 116.068 57.1536 116.4 59.2175 116.4C59.2456 116.4 59.2736 116.4 59.3016 116.399C64.3515 116.852 68.8481 115.369 72.4242 112.145C73.9836 114.076 75.8055 115.055 77.3472 115.547C78.2751 116.029 79.265 116.363 80.2992 116.543C84.7988 117.33 89.0137 117.169 92.4496 116.11C93.0795 116.342 93.7419 116.486 94.4279 116.54C96.7161 116.717 99.5397 116.095 102.105 113.187C103.11 114.145 104.253 114.797 105.534 115.138C107.208 116.034 109.107 116.301 111.003 115.886C116.687 114.652 120.387 109.731 120.427 103.351C120.465 97.6132 119.691 78.8824 108.353 75.15ZM37.4853 76.1532C37.0161 76.0049 36.5381 75.8707 36.0513 75.7497C36.1649 75.3801 36.2401 74.9929 36.2711 74.5923C36.28 74.4728 36.2903 74.3408 36.3021 74.1984C36.6901 74.88 37.0869 75.5306 37.4853 76.1532ZM25.0325 69.122C25.1255 69.4123 25.2099 69.8362 25.2862 70.3232C25.0099 69.8446 24.7057 69.384 24.3516 68.9606C24.6139 69.0116 24.8539 69.0647 25.0325 69.122Z" fill="#231F20"/>
<path d="M106.814 73.6925C105.116 72.8479 103.276 72.4208 101.333 72.4208C101.317 72.4208 101.299 72.4208 101.282 72.4208C100.646 72.4237 99.9569 72.4746 99.2296 72.6C102.341 65.2524 104.101 55.2604 101.339 45.9824C107.261 44.6133 112.843 41.3294 115.154 35.7285C118.703 27.1276 118.208 12.0216 106.141 5.04424C101.546 1.53973 95.5709 -0.0594723 88.3731 0.30197C86.4744 0.396388 83.6271 1.07649 81.2814 3.8891C77.2274 1.08018 72.3796 -0.176756 68.06 0.504822C64.2877 1.09936 61.0185 2.5916 58.3837 4.89229C58.3719 4.88565 58.3601 4.87901 58.3483 4.87237C54.1334 1.63193 48.9006 0.133789 44.2756 0.867739C41.2026 1.35237 38.4129 2.47062 36.0377 4.1517C32.4852 2.05755 27.3527 1.3177 20.7243 1.95133C10.5346 2.92575 2.95317 9.71054 0.940895 19.6591C-1.12006 29.8517 3.16118 40.1115 11.3711 44.7999C13.3214 46.29 15.5033 47.3986 17.8593 48.0964C19.9542 48.7175 22.1716 49.076 24.3933 49.1586C24.2886 49.5105 24.2193 49.8786 24.1897 50.2585C24.0835 51.6105 23.849 54.6208 23.4934 55.7295C22.384 56.0858 19.3745 56.3204 18.0231 56.4258C15.2702 56.6398 13.1458 58.936 13.1458 61.697C13.1458 62.2703 13.2567 62.8153 13.4265 63.3341C13.1004 63.3397 12.7743 63.3362 12.448 63.3744C9.8722 63.6724 7.54865 64.922 5.90814 66.8929C4.20272 68.9384 3.43115 71.5054 3.73506 74.1196C3.98521 76.2878 4.98637 78.2266 6.46957 79.7158C4.43416 83.1457 3.53092 88.3323 3.7985 95.2846C4.01979 101.057 4.4727 112.848 12.8847 115.39C14.3039 116.119 15.8957 116.492 17.5805 116.492C18.0319 116.492 18.4908 116.465 18.9555 116.411C20.7051 116.207 22.1922 115.519 23.4137 114.356C23.4492 114.368 23.4846 114.38 23.52 114.392C27.8292 116.552 34.2555 116.183 38.8982 114.794C41.5183 114.011 43.7755 112.892 45.6166 111.475C47.2719 112.491 49.1632 113.32 51.2802 113.955C53.4636 114.611 55.6146 114.943 57.6785 114.943C57.7065 114.943 57.7345 114.943 57.7626 114.942C62.8124 115.394 67.3091 113.911 70.8851 110.688C72.4445 112.618 74.2665 113.597 75.8081 114.089C76.7361 114.572 77.726 114.906 78.7602 115.086C83.2598 115.873 87.4746 115.711 90.9105 114.653C91.5405 114.884 92.2029 115.029 92.8889 115.083C95.177 115.26 98.0007 114.637 100.566 111.729C101.571 112.688 102.714 113.339 103.995 113.681C105.669 114.576 107.568 114.843 109.464 114.428C115.148 113.194 118.848 108.274 118.888 101.894C118.926 96.1557 118.151 77.4249 106.814 73.6925ZM35.9462 74.6956C35.4771 74.5474 34.9991 74.4131 34.5122 74.2922C34.6258 73.9226 34.7011 73.5353 34.7321 73.1348C34.7409 73.0153 34.7512 72.8833 34.763 72.7409C35.151 73.4225 35.5479 74.0731 35.9462 74.6956ZM23.4934 67.6645C23.5865 67.9548 23.6708 68.3787 23.7472 68.8656C23.4708 68.3871 23.1666 67.9264 22.8125 67.5031C23.0748 67.5541 23.3148 67.6071 23.4934 67.6645Z" fill="white"/>
<path d="M72.9177 28.4171C59.0661 25.6537 42.3629 32.7504 38.1932 52.7168C34.5841 69.7436 49.5954 76.4986 47.855 83.3702C47.6384 84.2449 47.4147 85.069 47.191 85.8631C47.1449 85.8412 47.1174 85.8279 47.1174 85.8279C47.1174 85.8279 44.8909 89.828 44.4317 94.5557L44.2954 94.5183C44.2954 94.5183 44.3499 94.5475 44.4287 94.5893C44.2615 96.3453 44.3361 98.1982 44.8642 99.986L44.4228 99.8074C44.4228 99.8074 44.5848 99.8965 44.8869 100.053C45.9195 103.471 48.6061 106.635 54.3908 108.371C62.855 110.911 67.6264 106.821 70.286 102.073C71.6825 102.215 72.5396 102.269 72.5396 102.269L70.4835 101.705C71.3717 100.041 72.0122 98.32 72.4647 96.7859C72.5192 96.7831 72.5493 96.7813 72.5493 96.7813L72.4721 96.7615C73.2923 93.9721 73.5033 91.8167 73.5033 91.8167C73.5033 91.8167 73.4558 91.8222 73.3864 91.8297C77.8889 79.6615 87.8809 82.5505 93.1665 71.999C99.813 58.7768 101.309 34.1504 72.9177 28.4171Z" fill="#22093A" stroke="#22093A" stroke-miterlimit="10" stroke-linecap="round" stroke-linejoin="round"/>
<path d="M47.074 6.96729C53.1056 6.01565 62.9153 11.0093 63.4642 22.8655C64.0131 34.7217 56.8878 40.9641 50.2835 41.9566C44.3246 42.8521 35.8902 39.0698 34.8889 26.4745C34.0685 16.1557 38.2147 8.36506 47.074 6.96729Z" fill="#22093A" stroke="#22093A" stroke-miterlimit="10" stroke-linecap="round" stroke-linejoin="round"/>
<path d="M49.4812 16.6775C50.313 16.1418 51.2071 17.6376 51.4749 23.1289C51.7428 28.6202 50.8425 31.6273 49.9309 32.1909C49.1084 32.6995 47.863 31.0768 47.5197 25.2497C47.2385 20.4758 48.2595 17.4644 49.4812 16.6775Z" fill="#22093A" stroke="#22093A" stroke-miterlimit="10" stroke-linecap="round" stroke-linejoin="round"/>
<path d="M39.5363 19.7689C45.4131 20.6055 43.9905 6.10442 23.2009 8.09157C3.28751 9.99496 3.26594 37.7318 19.1178 42.4292C28.1789 45.1143 42.5554 41.6023 36.8199 27.6545C34.0069 20.814 33.4303 18.8996 39.5363 19.7689Z" fill="#22093A" stroke="#22093A" stroke-miterlimit="10" stroke-linecap="round" stroke-linejoin="round"/>
<path d="M70.8572 6.6045C76.8888 5.65286 86.6985 10.6465 87.2474 22.5027C87.7963 34.3589 80.671 40.6013 74.0667 41.5938C68.1078 42.4893 59.6734 38.707 58.6721 26.1117C57.8517 15.7929 61.9979 8.00227 70.8572 6.6045Z" fill="#22093A" stroke="#22093A" stroke-miterlimit="10" stroke-linecap="round" stroke-linejoin="round"/>
<path d="M72.4174 17.2799C73.2492 16.7442 74.9895 17.2749 75.2573 22.7661C75.5251 28.2574 74.3393 29.8822 73.4277 30.4458C72.6052 30.9543 71.6453 30.714 71.3021 24.8869C71.0208 20.113 71.1956 18.0668 72.4174 17.2799Z" fill="#22093A" stroke="#22093A" stroke-miterlimit="10" stroke-linecap="round" stroke-linejoin="round"/>
<path d="M90.6099 6.45986C82.1462 6.88128 83.8889 29.069 86.9509 38.1754C88.4097 42.5136 106.322 42.0819 110.022 33.1134C113.817 23.9168 111.576 5.41595 90.6099 6.45986Z" fill="#22093A" stroke="#22093A" stroke-miterlimit="10" stroke-linecap="round" stroke-linejoin="round"/>
<path d="M95.8739 19.7775C93.8517 19.8782 93.9909 26.0889 94.9997 27.355C95.6708 28.1974 98.8411 28.0238 99.8878 26.4404C100.934 24.8571 100.883 19.5281 95.8739 19.7775Z" fill="#22093A" stroke="#22093A" stroke-miterlimit="10" stroke-linecap="round" stroke-linejoin="round"/>
<path d="M44.8552 5.4922C50.8869 4.54056 60.6965 9.53418 61.2454 21.3904C61.7943 33.2466 54.669 39.489 48.0647 40.4815C42.1058 41.377 33.6714 37.5947 32.6701 24.9994C31.8498 14.6806 35.996 6.88997 44.8552 5.4922Z" fill="#9736FF" stroke="#22093A" stroke-miterlimit="10" stroke-linecap="round" stroke-linejoin="round"/>
<path d="M47.2625 15.2024C48.0943 14.6667 48.9884 16.1625 49.2562 21.6538C49.524 27.1451 48.6237 30.1522 47.7121 30.7158C46.8896 31.2244 45.6442 29.6017 45.3009 23.7746C45.0197 19.0007 46.0407 15.9893 47.2625 15.2024Z" fill="#22093A" stroke="#22093A" stroke-miterlimit="10" stroke-linecap="round" stroke-linejoin="round"/>
<path d="M30.4285 17.3623C36.3053 18.1989 41.7718 4.62933 20.9821 6.61648C1.06876 8.51988 1.04719 36.2567 16.8991 40.9541C25.9602 43.6392 40.3367 40.1272 34.6011 26.1795C31.7881 19.3389 24.0681 20.3618 22.2985 24.6918C20.529 29.0218 26.1164 32.827 26.1164 32.827C19.3735 33.2141 14.6279 25.29 18.6106 20.039C21.0897 16.7704 24.3225 16.493 30.4285 17.3623Z" fill="#9736FF" stroke="#22093A" stroke-miterlimit="10" stroke-linecap="round" stroke-linejoin="round"/>
<path d="M68.6384 5.1294C74.6701 4.17776 84.4797 9.17138 85.0286 21.0276C85.5775 32.8838 78.4522 39.1262 71.8479 40.1187C65.889 41.0142 57.4546 37.2319 56.4533 24.6366C55.633 14.3178 59.7792 6.52717 68.6384 5.1294Z" fill="#9736FF" stroke="#22093A" stroke-miterlimit="10" stroke-linecap="round" stroke-linejoin="round"/>
<path d="M70.1986 15.8048C71.0305 15.2691 72.7707 15.7998 73.0386 21.2911C73.3064 26.7823 72.1206 28.4071 71.209 28.9707C70.3865 29.4792 69.4266 29.2389 69.0833 23.4118C68.8021 18.6379 68.9769 16.5917 70.1986 15.8048Z" fill="#22093A" stroke="#22093A" stroke-miterlimit="10" stroke-linecap="round" stroke-linejoin="round"/>
<path d="M88.3912 4.98477C79.9274 5.40618 81.6702 27.5939 84.7322 36.7003C86.191 41.0386 104.103 40.6068 107.803 31.6384C111.598 22.4417 109.357 3.94085 88.3912 4.98477Z" fill="#9736FF" stroke="#22093A" stroke-miterlimit="10" stroke-linecap="round" stroke-linejoin="round"/>
<path d="M93.6552 18.3024C91.633 18.4031 91.7722 24.6138 92.781 25.8799C93.4521 26.7223 96.6223 26.5487 97.669 24.9653C98.7157 23.382 98.6645 18.053 93.6552 18.3024Z" fill="#22093A" stroke="#22093A" stroke-miterlimit="10" stroke-linecap="round" stroke-linejoin="round"/>
<path d="M71.0837 28.3394C57.2321 25.576 40.5289 32.6728 36.3592 52.6391C32.7501 69.666 47.7615 76.4209 46.0209 83.2926C43.9952 91.4718 41.37 95.9349 43.5817 100.349C45.1741 103.613 48.4181 106.73 55.8502 107.674C62.1419 108.49 68.2274 106.78 70.2533 96.4579C73.7445 78.7526 85.4528 83.659 91.3324 71.9213C97.979 58.6992 99.475 34.0728 71.0837 28.3394Z" fill="#FCC707" stroke="#22093A" stroke-miterlimit="10" stroke-linecap="round" stroke-linejoin="round"/>
<path d="M71.6684 91.7393C71.6684 91.7393 65.6518 92.5057 58.7408 90.5391C50.424 88.2577 45.2826 85.7505 45.2826 85.7505C45.2826 85.7505 35.5488 103.19 52.5559 108.293C69.5631 113.397 71.6684 91.7393 71.6684 91.7393Z" fill="#22093A"/>
<path d="M52.459 88.9751C52.459 88.9751 63.6383 65.6471 56.9337 65.1354C52.1166 64.7615 54.4653 76.9323 60.8161 76.4805C67.1669 76.0288 69.2714 67.2302 65.9878 67.1022C61.7605 66.9053 58.8397 83.0671 60.8643 90.9615" stroke="#050038" stroke-miterlimit="10" stroke-linecap="round" stroke-linejoin="round"/>
<path d="M43.6504 89.7612C43.6504 89.7612 48.9982 92.6519 56.4696 94.8938C63.9409 97.1358 70.7145 96.7037 70.7145 96.7037" stroke="white" stroke-miterlimit="10" stroke-linecap="round" stroke-linejoin="round"/>
<path d="M42.4609 94.4404C42.4609 94.4404 47.7105 97.3016 54.9852 99.4845C62.2599 101.668 70.7052 102.191 70.7052 102.191" stroke="white" stroke-miterlimit="10" stroke-linecap="round" stroke-linejoin="round"/>
<path d="M42.5879 99.7295C42.5879 99.7295 47.2771 102.315 53.8637 104.292" stroke="white" stroke-miterlimit="10" stroke-linecap="round" stroke-linejoin="round"/>
<path d="M16.3046 80.1032C21.2393 79.8326 22.4843 84.8451 22.2842 94.3395C22.1071 102.742 21.6951 110.141 18.0985 110.561C12.6283 111.199 10.8068 105.301 10.4153 95.1318C10.0238 84.9629 12.1356 80.3318 16.3046 80.1032Z" fill="#22093A" stroke="#22093A" stroke-miterlimit="10" stroke-linecap="round" stroke-linejoin="round"/>
<path d="M15.3996 77.3885C17.926 77.096 19.7483 74.9086 19.4698 72.5028C19.1912 70.0971 16.9173 68.3839 14.3909 68.6764C11.8645 68.9689 10.0422 71.1563 10.3208 73.5621C10.5993 75.9679 12.8732 77.6811 15.3996 77.3885Z" fill="#22093A" stroke="#22093A" stroke-miterlimit="10" stroke-linecap="round" stroke-linejoin="round"/>
<path d="M27.4667 78.8734C19.798 79.2552 21.377 99.3585 24.1514 107.609C25.4731 111.54 41.7026 111.149 45.0552 103.023C48.4932 94.6903 46.4633 77.9275 27.4667 78.8734Z" fill="#22093A" stroke="#22093A" stroke-miterlimit="10" stroke-linecap="round" stroke-linejoin="round"/>
<path d="M32.2362 90.9398C30.404 91.031 30.5301 96.6583 31.4441 97.8055C32.0522 98.5687 34.9246 98.4114 35.873 96.9768C36.8214 95.5422 36.7749 90.7138 32.2362 90.9398Z" fill="#22093A" stroke="#22093A" stroke-miterlimit="10" stroke-linecap="round" stroke-linejoin="round"/>
<path d="M92.5508 80.4793C90.8836 77.7044 78.5756 77.8007 75.777 85.2876C73.9509 90.1729 71.4874 107.893 79.4247 109.279C87.362 110.665 94.0047 108.469 93.7977 103.884C93.5907 99.2981 83.4848 99.6666 83.4848 99.6666C83.4848 99.6666 92.1238 98.6838 92.212 93.9184C92.3002 89.1529 83.3082 91.2722 83.3082 91.2722C83.3082 91.2722 97.0241 87.9243 92.5508 80.4793Z" fill="#22093A" stroke="#22093A" stroke-miterlimit="10" stroke-linecap="round" stroke-linejoin="round"/>
<path d="M108.099 108.663C111.379 107.952 113.333 105.021 113.357 101.261C113.383 97.1948 112.818 77.7151 102.639 77.7589C97.3417 77.7816 93.6224 83.6961 91.7774 90.4859C89.7757 97.8523 88.8787 108.887 93.0585 109.214C99.7727 109.74 101.728 90.4859 101.728 90.4859C101.728 90.4859 101.709 110.05 108.099 108.663Z" fill="#22093A" stroke="#22093A" stroke-miterlimit="10" stroke-linecap="round" stroke-linejoin="round"/>
<path d="M29.2159 56.1216L27.2881 58.849L24.2383 61.0999L27.8662 63.0491L29.2159 66.0775L31.5047 63.1713L34.1934 61.0999L30.7931 58.849L29.2159 56.1216Z" fill="#FCC707"/>
<path d="M29.2166 72.8827C28.822 72.8827 28.4945 72.5788 28.4635 72.1864C27.7377 62.8685 27.4478 62.5779 18.1307 61.8521C17.7368 61.8226 17.4336 61.4936 17.4336 61.0997C17.4336 60.7058 17.7368 60.3775 18.1299 60.3465C27.4478 59.6207 27.7376 59.3308 28.4635 50.0122C28.4945 49.6191 28.822 49.3159 29.2166 49.3159C29.6112 49.3159 29.9388 49.6191 29.9697 50.013C30.6948 59.3308 30.9847 59.6207 40.3033 60.3465C40.6965 60.3775 40.9996 60.7058 40.9996 61.0997C40.9996 61.4936 40.6965 61.8226 40.3026 61.8521C30.9847 62.5779 30.6948 62.8685 29.9697 72.1864C29.9388 72.5788 29.6113 72.8827 29.2166 72.8827ZM24.239 61.0997C27.2309 61.7975 28.5181 63.0854 29.2166 66.0773C29.9152 63.0854 31.2016 61.7975 34.1942 61.0997C31.2016 60.4004 29.9152 59.114 29.2166 56.1214C28.5181 59.114 27.2309 60.4004 24.239 61.0997Z" fill="#22093A"/>
<path d="M70.6838 45.3848L67.2051 48.8628L70.683 52.3415L74.1617 48.8635L70.6838 45.3848Z" fill="white"/>
<path d="M70.6834 58.5065C70.2895 58.5065 69.9605 58.2033 69.931 57.8094C69.3557 50.4212 69.1255 50.1918 61.7373 49.6165C61.3449 49.5855 61.041 49.258 61.041 48.8633C61.041 48.4687 61.3449 48.1412 61.7373 48.1102C69.1255 47.5341 69.3557 47.3047 69.931 39.9173C69.9605 39.5234 70.2895 39.2202 70.6834 39.2202C71.0773 39.2202 71.4063 39.5234 71.4358 39.9173C72.0112 47.3047 72.2413 47.5341 79.631 48.1102C80.0234 48.1412 80.3273 48.4687 80.3273 48.8633C80.3273 49.258 80.0234 49.5855 79.631 49.6165C72.2413 50.1918 72.0112 50.4212 71.4358 57.8094C71.4063 58.2033 71.0773 58.5065 70.6834 58.5065ZM67.2047 48.8633C69.1477 49.4276 70.1184 50.3991 70.6834 52.3413C71.2484 50.3991 72.2192 49.4276 74.1621 48.8633C72.2192 48.2991 71.2484 47.3268 70.6834 45.3854C70.1184 47.3268 69.1477 48.2991 67.2047 48.8633Z" fill="#22093A"/>
<path d="M14.7265 79.4547C19.6611 79.1841 20.9062 84.1967 20.7061 93.691C20.529 102.094 20.117 109.493 16.5204 109.913C11.0502 110.551 9.22863 104.652 8.83715 94.4834C8.44567 84.3145 10.5575 79.6834 14.7265 79.4547Z" fill="#9736FF" stroke="#22093A" stroke-miterlimit="10" stroke-linecap="round" stroke-linejoin="round"/>
<path d="M13.8215 76.7401C16.3479 76.4476 18.1702 74.2602 17.8916 71.8544C17.6131 69.4486 15.3392 67.7355 12.8128 68.028C10.2864 68.3205 8.46408 70.5079 8.74263 72.9137C9.02117 75.3195 11.2951 77.0326 13.8215 76.7401Z" fill="#9736FF" stroke="#22093A" stroke-miterlimit="10" stroke-linecap="round" stroke-linejoin="round"/>
<path d="M25.8885 78.2249C18.2199 78.6068 19.7989 98.7101 22.5733 106.961C23.895 110.892 40.1245 110.5 43.4771 102.375C46.915 94.0419 44.8852 77.2791 25.8885 78.2249Z" fill="#9736FF" stroke="#22093A" stroke-miterlimit="10" stroke-linecap="round" stroke-linejoin="round"/>
<path d="M30.6581 90.2914C28.8259 90.3826 28.952 96.0098 29.866 97.157C30.4741 97.9202 33.3465 97.763 34.2949 96.3284C35.2432 94.8937 35.1968 90.0654 30.6581 90.2914Z" fill="#22093A" stroke="#22093A" stroke-miterlimit="10" stroke-linecap="round" stroke-linejoin="round"/>
<path d="M90.9727 79.8308C89.3055 77.056 76.9975 77.1523 74.1989 84.6391C72.3728 89.5244 69.9093 107.245 77.8466 108.631C85.7839 110.016 92.4266 107.821 92.2195 103.235C92.0125 98.6497 81.9067 99.0181 81.9067 99.0181C81.9067 99.0181 90.5457 98.0354 90.6339 93.2699C90.7221 88.5045 81.7301 90.6238 81.7301 90.6238C81.7301 90.6238 95.446 87.2758 90.9727 79.8308Z" fill="#9736FF" stroke="#22093A" stroke-miterlimit="10" stroke-linecap="round" stroke-linejoin="round"/>
<path d="M101.061 77.1104C95.7636 77.1332 92.0442 83.0478 90.1993 89.8375C88.1976 97.2039 87.3006 108.238 91.4803 108.566C94.5445 108.806 96.615 104.925 97.9633 100.636L101.221 100.928C102.09 105.064 103.663 108.635 106.521 108.015C109.801 107.303 111.755 104.372 111.779 100.613C111.805 96.5464 111.24 77.0667 101.061 77.1104ZM99.0748 96.3765C99.8464 92.8054 100.15 89.8375 100.15 89.8375C100.15 89.8375 100.149 92.8733 100.535 96.4664L99.0748 96.3765Z" fill="#9736FF" stroke="#22093A" stroke-miterlimit="10" stroke-linecap="round" stroke-linejoin="round"/>
<path d="M58.2374 33.77C53.8634 35.3797 49.1739 37.6012 44.9344 44.2924C40.6948 50.9837 41.6007 58.5069 41.6007 58.5069" stroke="white" stroke-miterlimit="10" stroke-linecap="round" stroke-linejoin="round"/>
<path d="M10.7659 16.5552C10.0854 17.7259 9.49687 19.0913 9.05339 20.6816C7.18369 27.3863 11.9028 33.6012 11.9028 33.6012" stroke="#D9BBFF" stroke-miterlimit="10" stroke-linecap="round" stroke-linejoin="round"/>
<path d="M18.1099 10.3999C16.5662 10.9363 14.714 11.912 13.0293 13.5973" stroke="#D9BBFF" stroke-miterlimit="10" stroke-linecap="round" stroke-linejoin="round"/>
<path d="M46.0188 8.64648C42.6197 8.64648 40.2575 9.95416 39.2207 11.2618" stroke="#D9BBFF" stroke-miterlimit="10" stroke-linecap="round" stroke-linejoin="round"/>
<path d="M59.9902 18.6284C60.3024 15.1863 61.7652 11.606 64.5189 9.9541" stroke="#D9BBFF" stroke-miterlimit="10" stroke-linecap="round" stroke-linejoin="round"/>
<path d="M68.3066 8.6461C70.6846 7.26928 73.0782 8.6461 73.0782 8.6461" stroke="#D9BBFF" stroke-miterlimit="10" stroke-linecap="round" stroke-linejoin="round"/>
<path d="M87.277 9.1626C87.277 9.1626 85.3906 12.6917 85.4103 15.1007" stroke="#D9BBFF" stroke-miterlimit="10" stroke-linecap="round" stroke-linejoin="round"/>
<path d="M85.4102 20.2632C85.4102 22.7835 85.8817 26.6131 86.3533 30.3303" stroke="#D9BBFF" stroke-miterlimit="10" stroke-linecap="round" stroke-linejoin="round"/>
<path d="M65.0078 32.7604C68.2204 32.3965 73.078 33.6014 73.078 33.6014" stroke="white" stroke-miterlimit="10" stroke-linecap="round" stroke-linejoin="round"/>
<path d="M14.7578 82.2529C13.7203 82.4211 12.0526 83.4523 11.2495 87.7195C10.4463 91.9866 11.9025 103.357 11.9025 103.357" stroke="#D9BBFF" stroke-miterlimit="10" stroke-linecap="round" stroke-linejoin="round"/>
<path d="M11.9024 71.125C11.9024 71.125 10.4751 71.9911 11.0077 73.4771" stroke="#D9BBFF" stroke-miterlimit="10" stroke-linecap="round" stroke-linejoin="round"/>
<path d="M24.7357 82.2529C24.7357 82.2529 23.2441 84.5275 23.2441 87.7195" stroke="#D9BBFF" stroke-miterlimit="10" stroke-linecap="round" stroke-linejoin="round"/>
<path d="M23.2441 93.9468C23.2441 93.9468 23.7031 100.111 23.9899 101.822" stroke="#D9BBFF" stroke-miterlimit="10" stroke-linecap="round" stroke-linejoin="round"/>
<path d="M82.2099 81.3833C82.2099 81.3833 78.5353 82.3363 77.1564 83.8119C75.7775 85.2876 75.2969 95.4611 75.2969 95.4611" stroke="#D9BBFF" stroke-miterlimit="10" stroke-linecap="round" stroke-linejoin="round"/>
<path d="M97.1925 82.2529C94.4951 85.6337 92.5022 90.8202 92.0645 94.8242" stroke="#D9BBFF" stroke-miterlimit="10" stroke-linecap="round" stroke-linejoin="round"/>
<path d="M99.7812 80.4318C99.7812 80.4318 100.903 78.9066 101.932 80.4318" stroke="#D9BBFF" stroke-miterlimit="10" stroke-linecap="round" stroke-linejoin="round"/>
</g>
<defs>
<clipPath id="clip0_4_10981">
<rect width="120" height="117.698" fill="white"/>
</clipPath>
</defs>
</svg>
