<svg width="120" height="120" viewBox="0 0 120 120" fill="none" xmlns="http://www.w3.org/2000/svg">
<g clip-path="url(#clip0_5_16331)">
<path d="M105.353 26.3933C101.185 15.6975 90.8569 8.67614 79.3779 8.7351C65.0253 8.50548 62.1754 22.4059 62.1754 22.4059C62.1754 22.4059 54.3876 2.82343 31.8715 9.64649C13.0741 15.3426 2.93482 42.1149 12.8462 60.3426C22.7576 78.5705 40.6437 80.6211 59.3273 91.1022C63.3778 93.6181 67.2595 96.3962 70.9475 99.4186C70.9475 99.4186 72.4286 88.5958 94.9855 69.0268C111.207 54.9541 108.438 34.8201 105.353 26.3933Z" fill="#22093A" stroke="#22093A" stroke-linecap="round" stroke-linejoin="round"/>
<path d="M61.0582 21.426C61.0582 21.426 53.2704 1.84349 30.7544 8.66649C11.9569 14.3627 1.81764 41.1348 11.729 59.3627C21.6404 77.5905 39.5265 79.6412 58.2101 90.1222C62.2606 92.6381 66.1423 95.4162 69.8303 98.4387C69.8303 98.4387 71.3113 87.6159 93.8683 68.0468C110.09 53.9741 107.321 33.8401 104.235 25.4133C100.068 14.7175 89.7397 7.69614 78.2607 7.75511C63.9081 7.52546 61.0582 21.426 61.0582 21.426Z" fill="#E9022C" stroke="#22093A" stroke-linecap="round" stroke-linejoin="round"/>
<path d="M50.6909 29.479C50.6909 29.479 49.7896 36.3792 53.7771 35.5817C57.7645 34.7842 57.2272 29.479 57.2272 29.479" stroke="#22093A" stroke-linecap="round" stroke-linejoin="round"/>
<path d="M63.3359 28.7984C63.3359 28.7984 63.3359 35.074 67.2094 34.3841C71.0828 33.6941 70.3992 27.77 70.3992 27.77" stroke="#22093A" stroke-linecap="round" stroke-linejoin="round"/>
<path d="M41.4531 37.2617C41.4531 37.2617 51.3945 37.2617 52.5439 46.711C53.4124 53.8507 48.5464 60.4388 48.5464 60.4388" stroke="#22093A" stroke-linecap="round" stroke-linejoin="round"/>
<path d="M76.6791 31.5928C72.833 34.7957 71.2048 39.9453 72.5104 44.7771C74.4006 52.639 83.1727 52.639 83.1727 52.639" stroke="#22093A" stroke-linecap="round" stroke-linejoin="round"/>
<path d="M52.5449 46.7109C52.5449 46.7109 56.045 54.9959 63.9058 53.6669C71.7665 52.338 72.3731 44.1367 72.3731 44.1367" stroke="#22093A" stroke-linecap="round" stroke-linejoin="round"/>
<path d="M33.0515 60.8818C37.6039 60.8818 41.2944 57.1913 41.2944 52.6389C41.2944 48.0865 37.6039 44.396 33.0515 44.396C28.4991 44.396 24.8086 48.0865 24.8086 52.6389C24.8086 57.1913 28.4991 60.8818 33.0515 60.8818Z" fill="#FF4069"/>
<path d="M89.237 47.5893C93.7895 47.5893 97.4799 43.8989 97.4799 39.3464C97.4799 34.794 93.7895 31.1035 89.237 31.1035C84.6846 31.1035 80.9941 34.794 80.9941 39.3464C80.9941 43.8989 84.6846 47.5893 89.237 47.5893Z" fill="#FF4069"/>
<path d="M26.8537 14.6074C12.695 22.8953 9.62539 42.6637 12.4076 50.2878" stroke="#FFB3CE" stroke-linecap="round" stroke-linejoin="round"/>
<path d="M38.609 10.9844C36.4666 11.1589 34.3499 11.5683 32.2969 12.205" stroke="#FF94BB" stroke-linecap="round" stroke-linejoin="round"/>
<path d="M88.7949 63.9873C87.8257 64.2151 87.2247 65.1855 87.4525 66.1547C87.5013 66.362 87.5864 66.5591 87.7039 66.7367" stroke="white" stroke-linecap="round" stroke-linejoin="round"/>
<path d="M28.6128 74.1944C33.9452 73.4478 42.5175 78.0007 42.8199 88.4622C43.1222 98.9238 36.7445 104.318 30.9066 105.092C25.6391 105.79 18.2608 102.327 17.5709 91.2065C17.0057 82.0962 20.7806 75.2911 28.6128 74.1944Z" fill="#22093A" stroke="#22093A" stroke-linecap="round" stroke-linejoin="round"/>
<path d="M30.0993 82.1952C30.8409 81.7357 32.0933 83.6651 32.2453 88.5107C32.3973 93.3562 31.5575 95.9937 30.7451 96.4766C30.0122 96.9124 28.939 95.4626 28.7256 90.3199C28.5508 86.1066 29.0101 82.8703 30.0993 82.1952Z" fill="#22093A" stroke="#22093A" stroke-linecap="round" stroke-linejoin="round"/>
<path d="M17.7075 98.0818C25.008 92.8965 27.3277 99.8558 26.2361 102.38C25.4433 104.214 21.5283 106.065 17.9122 106.815C14.2961 107.566 5.76751 110.226 5.90396 93.7152C6.04042 77.2039 11.3623 75.3001 13.9549 75.3618C17.0657 75.4357 21.1189 78.5685 19.4814 87.8476C18.2374 94.8974 17.7075 98.0818 17.7075 98.0818Z" fill="#22093A" stroke="#22093A" stroke-linecap="round" stroke-linejoin="round"/>
<path d="M44.6498 73.3542C41.4591 73.9767 39.5066 76.7751 39.4068 80.4151C39.2988 84.3526 39.4491 103.228 49.3066 103.393C54.4374 103.479 58.1598 97.8278 60.085 91.2902C62.1736 84.1974 63.2674 73.5302 59.2264 73.1278C52.7351 72.4815 50.4489 91.0873 50.4489 91.0873C50.4489 91.0873 50.8663 72.1415 44.6498 73.3542Z" fill="#22093A" stroke="#22093A" stroke-linecap="round" stroke-linejoin="round"/>
<path d="M79.7842 76.0155C78.4566 73.2729 66.3058 72.045 62.6904 78.6641C60.3313 82.9831 55.8778 99.0947 63.5484 101.224C71.219 103.354 78.0218 102.036 78.3412 97.7764C78.6607 93.5168 68.6508 92.7761 68.6508 92.7761C68.6508 92.7761 77.2841 92.7923 77.9153 88.398C78.5465 84.0038 69.4352 85.0001 69.4352 85.0001C69.4352 85.0001 83.3462 83.3739 79.7842 76.0155Z" fill="#22093A" stroke="#22093A" stroke-linecap="round" stroke-linejoin="round"/>
<path d="M91.2118 73.7627C96.1099 74.0593 96.7656 79.1456 95.4839 88.4874C94.3496 96.7554 93.0984 104.006 89.5029 104.009C84.0346 104.014 82.9115 97.9882 83.6866 87.9135C84.4618 77.8388 87.0737 73.5121 91.2118 73.7627Z" fill="#22093A" stroke="#22093A" stroke-linecap="round" stroke-linejoin="round"/>
<path d="M90.6292 70.9818C93.1545 70.9818 95.2017 69.0323 95.2017 66.6276C95.2017 64.2229 93.1545 62.2734 90.6292 62.2734C88.1038 62.2734 86.0566 64.2229 86.0566 66.6276C86.0566 69.0323 88.1038 70.9818 90.6292 70.9818Z" fill="#22093A" stroke="#22093A" stroke-linecap="round" stroke-linejoin="round"/>
<path d="M105.818 75.6422C116.769 77.3642 120.448 81.1963 119.404 84.8704C117.834 90.3914 107.96 86.1988 107.96 86.1988C107.96 86.1988 111.813 105.666 104.123 105.666C94.5359 105.666 100.412 84.4762 100.412 84.4762C100.412 84.4762 91.688 83.2281 92.9056 78.6877C94.1233 74.1474 98.2137 74.4463 105.818 75.6422Z" fill="#22093A" stroke="#22093A" stroke-linecap="round" stroke-linejoin="round"/>
<path d="M27.2202 73.4649C32.5527 72.7183 41.1249 77.2712 41.4273 87.7327C41.7296 98.1943 35.3519 103.589 29.514 104.363C24.2465 105.061 16.8682 101.597 16.1783 90.477C15.6131 81.3667 19.388 74.5616 27.2202 73.4649Z" fill="#9736FF" stroke="#22093A" stroke-linecap="round" stroke-linejoin="round"/>
<path d="M28.7048 81.4662C29.4463 81.0067 30.6987 82.9361 30.8508 87.7817C31.0028 92.6272 30.163 95.2647 29.3506 95.7476C28.6177 96.1834 27.5445 94.7336 27.3311 89.5909C27.1562 85.3776 27.6155 82.1413 28.7048 81.4662Z" fill="#22093A" stroke="#22093A" stroke-linecap="round" stroke-linejoin="round"/>
<path d="M16.3149 97.3528C23.6154 92.1675 25.9351 99.1268 24.8435 101.651C24.0507 103.485 20.1357 105.336 16.5196 106.086C12.9036 106.837 4.37491 109.498 4.51138 92.9862C4.64785 76.4749 9.96966 74.5711 12.5623 74.6328C15.6732 74.7067 19.7263 77.8395 18.0889 87.1186C16.8448 94.1684 16.3149 97.3528 16.3149 97.3528Z" fill="#9736FF" stroke="#22093A" stroke-linecap="round" stroke-linejoin="round"/>
<path d="M43.2572 72.6252C40.0665 73.2477 38.1141 76.0461 38.0142 79.6861C37.9062 83.6236 38.0565 102.499 47.914 102.664C53.0448 102.75 56.7672 97.0988 58.6924 90.5612C60.781 83.4684 61.8748 72.8011 57.8338 72.3988C51.3425 71.7524 49.0563 90.3583 49.0563 90.3583C49.0563 90.3583 49.4737 71.4124 43.2572 72.6252Z" fill="#9736FF" stroke="#22093A" stroke-linecap="round" stroke-linejoin="round"/>
<path d="M78.3916 75.286C77.064 72.5434 64.9132 71.3155 61.2978 77.9346C58.9387 82.2536 54.4852 98.3652 62.1558 100.495C69.8264 102.625 76.6292 101.306 76.9486 97.0469C77.2681 92.7873 67.2582 92.0466 67.2582 92.0466C67.2582 92.0466 75.8915 92.0628 76.5227 87.6685C77.1539 83.2743 68.0426 84.2706 68.0426 84.2706C68.0426 84.2706 81.9536 82.6444 78.3916 75.286Z" fill="#9736FF" stroke="#22093A" stroke-linecap="round" stroke-linejoin="round"/>
<path d="M89.8192 73.0332C94.7174 73.3298 95.373 78.4161 94.0914 87.7579C92.957 96.0259 91.7058 103.277 88.1104 103.28C82.642 103.285 81.5189 97.2587 82.2941 87.184C83.0692 77.1093 85.6811 72.7826 89.8192 73.0332Z" fill="#9736FF" stroke="#22093A" stroke-linecap="round" stroke-linejoin="round"/>
<path d="M89.2366 70.2523C91.7619 70.2523 93.8091 68.3028 93.8091 65.8981C93.8091 63.4934 91.7619 61.5439 89.2366 61.5439C86.7112 61.5439 84.6641 63.4934 84.6641 65.8981C84.6641 68.3028 86.7112 70.2523 89.2366 70.2523Z" fill="#9736FF" stroke="#22093A" stroke-linecap="round" stroke-linejoin="round"/>
<path d="M104.424 74.9127C115.374 76.6347 119.053 80.4668 118.009 84.1409C116.44 89.6618 106.565 85.4692 106.565 85.4692C106.565 85.4692 110.419 104.937 102.729 104.937C93.1414 104.937 99.018 83.7468 99.018 83.7468C99.018 83.7468 90.2934 82.4986 91.5111 77.9583C92.7287 73.4179 96.8193 73.7168 104.424 74.9127Z" fill="#9736FF" stroke="#22093A" stroke-linecap="round" stroke-linejoin="round"/>
<path d="M12.8062 77.4302C11.2113 77.4872 7.92439 78.9952 7.33789 92.7231" stroke="#D9BBFF" stroke-linecap="round" stroke-linejoin="round"/>
<path d="M7.3391 95.8203C7.31595 97.6299 7.62486 99.4284 8.25049 101.127" stroke="#D9BBFF" stroke-linecap="round" stroke-linejoin="round"/>
<path d="M21.3516 80.1076C22.3199 78.6266 24.8094 76.207 27.7313 76.462" stroke="#D9BBFF" stroke-linecap="round" stroke-linejoin="round"/>
<path d="M36.4458 96.6836C35.7687 97.8132 34.7797 98.7231 33.5977 99.3038" stroke="#D9BBFF" stroke-linecap="round" stroke-linejoin="round"/>
<path d="M43.4274 75.7822C42.2184 76.2523 40.4836 77.6717 40.9041 81.8772" stroke="#D9BBFF" stroke-linecap="round" stroke-linejoin="round"/>
<path d="M70.919 76.207C67.4341 76.207 63.9126 76.402 62.0898 83.8786" stroke="#D9BBFF" stroke-linecap="round" stroke-linejoin="round"/>
<path d="M85.8189 81.3242C84.8344 86.09 84.5702 90.9764 85.0351 95.8206C85.4055 98.5547 86.5731 99.8901 87.3706 100.004" stroke="#D9BBFF" stroke-linecap="round" stroke-linejoin="round"/>
<path d="M100.13 92.4966C100.026 93.2841 99.9376 94.0794 99.8787 94.8321C99.6224 98.1074 99.9597 100.955 101.469 101.696" stroke="#D9BBFF" stroke-linecap="round" stroke-linejoin="round"/>
<path d="M101.126 86.6299C101.126 86.6299 100.868 87.8544 100.58 89.5362" stroke="#D9BBFF" stroke-linecap="round" stroke-linejoin="round"/>
<path d="M98.7634 76.9417C97.5102 76.7139 95.6305 76.4291 94.6621 77.7392" stroke="#D9BBFF" stroke-linecap="round" stroke-linejoin="round"/>
</g>
<defs>
<clipPath id="clip0_5_16331">
<rect width="120" height="120" fill="white"/>
</clipPath>
</defs>
</svg>
