<svg width="120" height="115" viewBox="0 0 120 115" fill="none" xmlns="http://www.w3.org/2000/svg">
<g clip-path="url(#clip0_5_10997)">
<path opacity="0.5" d="M116.618 65.3795C114.19 63.9114 108.216 62.7499 103.226 62.7675C108.714 55.5781 113.046 47.5767 116.068 39.0519C116.916 36.4794 115.641 33.6877 113.141 32.644C109.149 30.9753 100.309 30.2649 92.2131 29.9762C97.978 26.5685 103.369 17.4563 103.434 17.3306C106.726 10.964 102.717 7.86681 101.879 7.31112C99.6173 5.84677 96.7 5.87363 94.4657 7.37938C93.5224 7.98387 92.6545 8.69854 91.8802 9.5083C93.1089 6.09529 91.3382 2.33245 87.9252 1.10375C85.5798 0.259408 82.9586 0.81552 81.1581 2.53944C78.2837 5.08636 76.3766 10.8381 77.3089 14.1514C77.8914 16.3365 79.6812 17.99 81.9055 18.3979H81.907C82.2402 18.4576 82.5781 18.4878 82.9166 18.488C83.8576 18.481 84.7834 18.2501 85.6175 17.8144C83.8423 20.8761 82.6228 23.9206 82.7923 25.9568C82.9086 27.4328 83.5817 28.8094 84.6752 29.8076C83.3885 29.7952 82.1855 29.7907 81.1085 29.7919C78.351 15.0122 66.8777 5.90271 64.9016 4.42859C64.1306 3.71972 63.6691 3.34288 63.6691 3.34288C61.7648 1.79206 59.036 1.78182 57.12 3.31829C49.9447 9.62784 44.6426 17.789 41.7936 26.9092C41.7033 25.0672 40.5812 23.0773 38.1349 20.3471C38.7176 20.5526 39.3292 20.6643 39.9469 20.678C41.166 20.6811 42.3519 20.2814 43.3205 19.541C47.996 15.9714 44.2825 7.25026 43.4044 5.79421C41.8512 2.5576 37.9683 1.19288 34.7317 2.74603C32.4257 3.8526 30.983 6.20864 31.0457 8.76563C31.1269 11.012 31.756 13.2044 32.8782 15.1521C30.4887 12.9404 27.8633 10.9981 25.0493 9.36021C18.4541 5.80937 15.283 9.39202 14.4657 10.5754C12.9374 12.8878 12.9408 15.8902 14.4743 18.1992C16.8608 22.4016 25.9085 29.2779 32.2144 31.7872C24.885 32.3182 16.0691 33.7037 9.99551 37.1937C7.90939 38.3918 6.92157 40.8676 7.60999 43.1727C10.3026 52.1889 18.939 61.7455 24.8649 67.5013C19.1627 64.3508 6.30003 68.1407 6.15753 68.1983C1.54998 70.034 0.731171 73.6109 1.4299 76.1157V76.1179C2.18195 78.6346 4.3635 80.4595 6.97346 80.7551C7.67356 80.8685 8.38221 80.9205 9.09135 80.9107C13.5446 80.9107 20.9597 79.4104 24.731 76.9305C24.1421 78.9749 23.6603 81.0485 23.2875 83.1431C22.9005 82.4605 22.371 81.8693 21.735 81.4098C17.1983 78.1172 10.6681 83.5631 9.57447 84.7725C7.11097 87.1098 6.92975 90.9743 9.16372 93.5319C10.347 94.8737 12.0547 95.6354 13.8436 95.6195C14.5022 95.6174 15.1574 95.5247 15.7908 95.3439C18.5031 94.3711 20.8338 92.5574 22.4432 90.1672C22.1899 94.1182 22.3088 98.0843 22.7983 102.013L22.8403 102.443C22.9126 103.19 22.9864 103.936 23.0978 104.705C23.5093 107.539 26.1405 109.503 28.9748 109.092C29.2421 109.053 29.5059 108.993 29.7639 108.913C38.2857 106.104 46.3738 102.12 53.7943 97.0755C53.3436 100.43 53.1732 103.816 53.2849 107.199C54.0083 114.113 58.5609 114.673 59.941 114.68H59.967C62.5967 114.644 64.9525 113.046 65.959 110.616C67.453 107.565 68.0627 100.791 67.5744 95.263C68.8724 96.2123 70.2059 97.1098 71.5574 97.9557C71.4074 98.0487 71.2557 98.1379 71.1134 98.2466L71.1119 98.2481C66.6505 101.654 69.9893 109.467 70.8313 110.864C71.9431 112.968 74.1082 114.304 76.4877 114.355C77.3888 114.354 78.2791 114.157 79.0974 113.78C81.35 112.721 82.7759 110.444 82.7444 107.955C82.7126 106.365 82.3483 104.799 81.6749 103.358C86.4336 105.544 91.3498 107.369 96.3819 108.819C99.1467 109.567 101.995 107.932 102.743 105.167C102.802 104.948 102.847 104.725 102.877 104.499C103.687 97.6578 103.396 90.7312 102.015 83.982C102.319 84.5209 102.694 85.0168 103.129 85.4568C105.409 87.471 108.333 88.607 111.375 88.6612C112.15 88.6721 112.922 88.5565 113.661 88.319C115.694 87.6583 117.164 85.8843 117.436 83.7635C117.799 80.8427 115.762 78.6539 113.596 77.2053C119.199 76.5923 119.89 72.393 119.974 71.5054C120.15 68.9827 118.839 66.589 116.618 65.3795ZM83.7762 7.90253L83.8124 7.69927C83.8398 7.70416 83.8631 7.71408 83.8902 7.71943C83.8528 7.78182 83.8127 7.83794 83.7762 7.90253ZM77.3401 106.532C77.3208 106.466 77.3072 106.403 77.2858 106.337L77.4035 106.491C77.3827 106.507 77.361 106.517 77.3401 106.532V106.532Z" fill="#231F20"/>
<path d="M115.407 64.6583C112.979 63.1903 107.005 62.0288 102.015 62.0464C107.503 54.857 111.835 46.8556 114.857 38.3308C115.705 35.7583 114.43 32.9666 111.931 31.9229C107.938 30.2542 99.0979 29.5438 91.0022 29.2551C96.7671 25.8474 102.158 16.7352 102.224 16.6095C105.515 10.2429 101.506 7.14569 100.668 6.59C98.4065 5.12565 95.4891 5.15251 93.2548 6.65826C92.3115 7.26275 91.4436 7.97742 90.6694 8.78718C91.8299 5.49879 90.2371 1.87439 87.0298 0.505492C84.6158 -0.484229 81.846 0.0291626 79.947 1.81832C77.0726 4.36524 75.1654 10.117 76.0978 13.4303C76.6803 15.6153 78.4701 17.2689 80.6944 17.6767H80.6959C81.0291 17.7365 81.367 17.7667 81.7055 17.7669C82.6465 17.7598 83.5723 17.529 84.4063 17.0933C82.6312 20.1549 81.4117 23.1995 81.5812 25.2357C81.6975 26.7117 82.3706 28.0883 83.4641 29.0865C82.1774 29.0741 80.9743 29.0696 79.8974 29.0708C77.1401 14.2912 65.6667 5.18159 63.6906 3.70747C62.9195 2.9986 62.4581 2.62176 62.4581 2.62176C60.5538 1.07101 57.8251 1.06077 55.9091 2.59717C48.7338 8.90671 43.4317 17.0679 40.5827 26.1881C40.4924 24.3461 39.3703 22.3562 36.924 19.626C37.5067 19.8315 38.1183 19.9432 38.736 19.9569C39.9551 19.96 41.141 19.5602 42.1096 18.8199C46.7851 15.2503 43.0716 6.52914 42.1935 5.07309C40.6404 1.83646 36.7575 0.471694 33.5209 2.02481C31.2148 3.13138 29.7721 5.48747 29.8347 8.04451C29.916 10.2909 30.5451 12.4833 31.6673 14.431C29.2778 12.2193 26.6524 10.277 23.8384 8.63909C17.2431 5.08825 14.0721 8.67091 13.2547 9.85427C11.7264 12.1667 11.7299 15.1691 13.2634 17.4781C15.6499 21.6805 24.6975 28.5568 31.0034 31.0661C23.674 31.5971 14.8581 32.9826 8.78451 36.4726C6.69843 37.6707 5.71065 40.1465 6.39905 42.4515C9.09161 51.4678 17.7281 61.0243 23.654 66.7802C17.9518 63.6296 5.08909 67.4196 4.9466 67.4771C0.339044 69.3129 -0.479767 72.8898 0.218964 75.3946V75.3968C0.971011 77.9135 3.15256 79.7384 5.76252 80.034C6.46262 80.1474 7.17127 80.1994 7.88042 80.1896C12.3336 80.1896 19.7487 78.6893 23.52 76.2094C22.9312 78.2537 22.4494 80.3274 22.0765 82.4219C21.6896 81.7394 21.1601 81.1482 20.5241 80.6887C15.9874 77.3962 9.45723 82.8421 8.36353 84.0515C5.90001 86.3888 5.71875 90.2533 7.95269 92.8109C9.13602 94.1527 10.8437 94.9144 12.6327 94.8983C13.2913 94.8963 13.9465 94.8036 14.5798 94.6228C17.2922 93.65 19.6229 91.8363 21.2322 89.4461C20.979 93.3971 21.0979 97.3631 21.5874 101.292L21.6294 101.721C21.7017 102.469 21.7755 103.215 21.8869 103.984C22.2984 106.818 24.9296 108.782 27.7638 108.371C28.0311 108.332 28.295 108.272 28.553 108.192C37.0748 105.383 45.1629 101.399 52.5834 96.3543C52.1327 99.7089 51.9623 103.095 52.0741 106.478C52.7974 113.392 57.35 113.952 58.7301 113.959H58.7561C61.3858 113.923 63.7416 112.325 64.7481 109.895C66.2421 106.844 66.8518 100.07 66.3635 94.5418C67.6615 95.4912 68.995 96.3886 70.3465 97.2346C70.1966 97.3276 70.0448 97.4168 69.9025 97.5254L69.901 97.5269C65.4396 100.933 68.7784 108.746 69.6204 110.142C70.7322 112.247 72.8973 113.583 75.2768 113.634C76.178 113.632 77.0682 113.436 77.8865 113.059C80.1391 112 81.565 109.723 81.5335 107.234C81.5017 105.644 81.1374 104.078 80.464 102.637C85.2227 104.823 90.1388 106.648 95.171 108.098C97.9358 108.846 100.784 107.211 101.532 104.446C101.591 104.227 101.636 104.003 101.666 103.778C102.476 96.9367 102.185 90.01 100.804 83.2608C101.108 83.7997 101.483 84.2957 101.918 84.7357C104.199 86.7499 107.122 87.8859 110.164 87.94C110.939 87.9509 111.711 87.8354 112.45 87.5979C114.483 86.9372 115.954 85.1632 116.225 83.0424C116.588 80.1215 114.551 77.9328 112.385 76.4842C117.988 75.8712 118.679 71.6718 118.763 70.7842C118.939 68.2615 117.628 65.8678 115.407 64.6583ZM82.5653 7.18141L82.6015 6.97815C82.6289 6.98304 82.6522 6.99296 82.6793 6.99831C82.6418 7.0607 82.6017 7.11685 82.5653 7.18141ZM76.1292 105.811C76.1099 105.745 76.0963 105.682 76.0748 105.616L76.1926 105.77C76.1718 105.786 76.1501 105.795 76.1292 105.811V105.811Z" fill="white"/>
<path d="M96.5282 103.11C96.5282 103.11 70.6207 96.0943 60.5476 81.675C50.5042 95.9818 27.02 103.257 27.02 103.257C24.0232 82.7183 33.7887 68.9909 33.7887 68.9909C33.7887 68.9909 16.3127 54.4412 12.627 42.098C23.2057 36.0204 45.1893 37.1744 45.1893 37.1744C46.6746 18.8745 60.4275 7.75977 60.4275 7.75977C60.4275 7.75977 74.6132 17.8024 75.2863 34.3088C75.2863 34.3088 103.076 33.8588 109.935 36.7235C109.935 36.7235 103.594 55.9521 90.25 66.8239C90.25 66.8239 98.9386 85.0283 96.5282 103.11Z" fill="#22093A" stroke="#22093A" stroke-linecap="round" stroke-linejoin="round"/>
<path d="M95.2704 101.997C95.2704 101.997 70.6823 95.0969 60.6092 80.6777C50.5658 94.9844 26.891 102.052 26.891 102.052C23.8942 81.514 32.5309 67.8777 32.5309 67.8777C32.5309 67.8777 15.0549 53.328 11.3691 40.9847C21.9479 34.9071 43.9315 36.0611 43.9315 36.0611C45.4168 17.7612 59.1697 6.64648 59.1697 6.64648C59.1697 6.64648 73.7832 18.5904 74.4562 35.0968C85.8804 34.6608 97.3213 35.1075 108.677 36.4331C108.677 36.4331 102.593 55.9022 89.2485 66.7741C89.2485 66.7741 97.6808 83.9151 95.2704 101.997Z" fill="#FCC707" stroke="#22093A" stroke-linecap="round" stroke-linejoin="round"/>
<path d="M44.6046 48.9854C44.6046 48.9854 43.0072 57.5714 47.9991 57.9708C52.991 58.3701 52.5916 48.9854 52.5916 48.9854" stroke="#22093A" stroke-linecap="round" stroke-linejoin="round"/>
<path d="M68.3643 48.9852C68.3643 48.9852 68.0204 56.9722 72.1859 56.9722C76.3514 56.9722 76.3514 47.9868 76.3514 47.9868" stroke="#22093A" stroke-linecap="round" stroke-linejoin="round"/>
<path d="M58.1826 56.4961C58.1826 56.4961 56.7729 62.6861 61.6247 62.6861C64.6212 62.6861 64.5723 56.4961 64.5723 56.4961" stroke="#22093A" stroke-linecap="round" stroke-linejoin="round"/>
<path d="M77.971 69.3033C81.1036 69.3033 83.6431 66.7638 83.6431 63.6311C83.6431 60.4985 81.1036 57.959 77.971 57.959C74.8383 57.959 72.2988 60.4985 72.2988 63.6311C72.2988 66.7638 74.8383 69.3033 77.971 69.3033Z" fill="#FF897D"/>
<path d="M44.1081 72.2186C47.7134 72.2186 50.6361 69.2959 50.6361 65.6906C50.6361 62.0853 47.7134 59.1626 44.1081 59.1626C40.5028 59.1626 37.5801 62.0853 37.5801 65.6906C37.5801 69.2959 40.5028 72.2186 44.1081 72.2186Z" fill="#FF897D"/>
<path d="M97.2373 10.585C99.8813 12.3421 88.4852 24.4312 87.248 23.9548C85.6424 23.3365 94.5932 8.82794 97.2373 10.585Z" fill="#FCC707" stroke="#22093A" stroke-linecap="round" stroke-linejoin="round"/>
<path d="M5.2149 74.0192C4.37924 71.0255 20.5474 70.0995 21.1594 71.2572C21.9535 72.7595 6.05055 77.0128 5.2149 74.0192Z" fill="#FCC707" stroke="#22093A" stroke-linecap="round" stroke-linejoin="round"/>
<path d="M17.5257 12.8144C19.9599 9.28506 36.0185 24.9549 35.3464 26.6144C34.4741 28.768 15.0916 16.3437 17.5257 12.8144Z" fill="#FCC707" stroke="#22093A" stroke-linecap="round" stroke-linejoin="round"/>
<path d="M113.601 70.3214C113.322 73.3056 98.1744 69.2329 98.0175 67.9911C97.814 66.3796 113.88 67.3371 113.601 70.3214Z" fill="#FCC707" stroke="#22093A" stroke-linecap="round" stroke-linejoin="round"/>
<path d="M58.7575 108.791C55.2034 108.774 58.4293 90.4555 59.8797 90.1403C61.7619 89.7312 62.3116 108.809 58.7575 108.791Z" fill="#FCC707" stroke="#22093A" stroke-linecap="round" stroke-linejoin="round"/>
<path d="M35.7843 6.70762C38.3241 5.53367 39.8945 14.0069 38.9657 14.7159C37.7603 15.6358 33.2445 7.88163 35.7843 6.70762Z" fill="#FCC707" stroke="#22093A" stroke-linecap="round" stroke-linejoin="round"/>
<path d="M75.7134 108.369C73.5871 109.352 72.2724 102.258 73.05 101.664C74.0591 100.894 77.8397 107.386 75.7134 108.369Z" fill="#FCC707" stroke="#22093A" stroke-linecap="round" stroke-linejoin="round"/>
<path d="M85.0935 5.24638C87.2553 6.14853 82.9178 11.9134 81.9548 11.7418C80.705 11.519 82.9318 4.3443 85.0935 5.24638Z" fill="#FCC707" stroke="#22093A" stroke-linecap="round" stroke-linejoin="round"/>
<path d="M11.8337 89.3867C10.2795 87.6341 16.6929 84.3299 17.4854 84.9034C18.5138 85.6476 13.3877 91.1393 11.8337 89.3867Z" fill="#FCC707" stroke="#22093A" stroke-linecap="round" stroke-linejoin="round"/>
<path d="M105.251 79.9733C105.941 78.039 111.189 81.5702 111.083 82.4214C110.946 83.5259 104.561 81.9077 105.251 79.9733Z" fill="#FCC707" stroke="#22093A" stroke-linecap="round" stroke-linejoin="round"/>
<path d="M30.123 58.7734C31.428 60.0631 32.4681 61.0941 32.4681 61.0941" stroke="white" stroke-linecap="round" stroke-linejoin="round"/>
<path d="M17.3145 43.0566C19.8071 47.2209 22.7128 51.1236 25.9876 54.7055" stroke="white" stroke-linecap="round" stroke-linejoin="round"/>
<path d="M54.0117 17.3968C55.281 15.6001 55.6535 15.52 55.6535 15.52" stroke="white" stroke-linecap="round" stroke-linejoin="round"/>
<path d="M47.2695 35.1132C47.453 30.2825 48.888 25.5822 51.4339 21.4727" stroke="white" stroke-linecap="round" stroke-linejoin="round"/>
<path d="M44.043 90.0307C44.5841 89.6896 45.0651 89.368 45.4661 89.0752" stroke="white" stroke-linecap="round" stroke-linejoin="round"/>
<path d="M30.0703 97.0887C34.1128 95.4398 38.0408 93.523 41.8281 91.3511" stroke="white" stroke-linecap="round" stroke-linejoin="round"/>
<path d="M89.0488 75.3042C89.8659 77.5057 90.4242 79.7947 90.7124 82.1251" stroke="white" stroke-linecap="round" stroke-linejoin="round"/>
<path d="M86.9023 70.6807C87.1433 71.1099 87.4211 71.624 87.716 72.2181" stroke="white" stroke-linecap="round" stroke-linejoin="round"/>
<path d="M61.8691 13.7759C64.0054 16.0166 65.7204 18.6238 66.932 21.4727" stroke="white" stroke-linecap="round" stroke-linejoin="round"/>
<path d="M96.0566 39.0005C97.1618 39.072 98.1303 39.1353 98.9144 39.1747" stroke="white" stroke-linecap="round" stroke-linejoin="round"/>
<path d="M80.4336 38.6857C84.7369 38.4869 89.0482 38.5356 93.3459 38.8318" stroke="white" stroke-linecap="round" stroke-linejoin="round"/>
<path d="M72.8242 86.7793C77.7553 90.0518 82.89 93.0067 88.197 95.626L72.8242 86.7793Z" fill="#22093A"/>
<path d="M72.8242 86.7793C77.7553 90.0518 82.89 93.0067 88.197 95.626" stroke="#22093A" stroke-linecap="round" stroke-linejoin="round"/>
<path d="M68.6211 83.644C69.2073 84.1357 69.8446 84.6365 70.5214 85.1417L68.6211 83.644Z" fill="#22093A"/>
<path d="M68.6211 83.644C69.2073 84.1357 69.8446 84.6365 70.5214 85.1417" stroke="#22093A" stroke-linecap="round" stroke-linejoin="round"/>
<path d="M92.6133 58.4418C94.7624 56.1243 96.7014 53.6205 98.4075 50.96L92.6133 58.4418Z" fill="#22093A"/>
<path d="M92.6133 58.4418C94.7624 56.1243 96.7014 53.6205 98.4075 50.96" stroke="#22093A" stroke-linecap="round" stroke-linejoin="round"/>
</g>
<defs>
<clipPath id="clip0_5_10997">
<rect width="120" height="114.68" fill="white"/>
</clipPath>
</defs>
</svg>
