<svg width="120" height="120" viewBox="0 0 120 120" fill="none" xmlns="http://www.w3.org/2000/svg">
<path d="M69.6002 41.5723C67.1032 35.251 48.9353 33.1633 43.9815 43.5411C40.7491 50.3127 33.1715 81.0547 45.0267 83.6592C56.8819 86.2638 69.8518 83.7129 69.213 74.822C68.7463 68.326 54.0442 68.0152 54.0442 68.0152C54.0442 68.0152 67.8194 68.6176 68.4149 61.8752C69.0104 55.1327 54.5917 56.1115 54.5917 56.1115C54.5917 56.1115 74.1796 53.1654 69.6002 41.5723Z" fill="#22093A" stroke="#22093A" stroke-linecap="round" stroke-linejoin="round"/>
<path d="M36.1751 39.0592C26.0812 40.4107 27.8807 64.0434 27.8807 64.0434C27.8807 64.0434 22.0582 37.3205 12.9288 40.9162C0.970967 45.6259 9.13397 66.5635 19.6119 74.0333C18.9426 77.7882 19.2121 98.795 30.8088 89.6345C37.1174 84.6511 42.808 65.323 43.679 60.7188C45.3917 51.6656 46.3353 37.6989 36.1751 39.0592Z" fill="#22093A" stroke="#22093A" stroke-linecap="round" stroke-linejoin="round"/>
<path d="M98.3782 48.7125C98.3832 43.0099 95.0392 36.2904 82.5819 36.7133C70.3169 37.1297 62.1184 53.3851 74.4368 60.5125C85.8432 67.1122 82.0847 74.7709 77.135 70.3812C67.6139 61.9373 57.4687 79.2532 70.4264 86.0883C83.384 92.9234 98.0475 85.3884 99.9935 77.0275C103.68 61.19 91.5738 58.1787 86.0092 55.477C86.0092 55.4771 98.3706 57.4163 98.3782 48.7125Z" fill="#22093A" stroke="#22093A" stroke-linecap="round" stroke-linejoin="round"/>
<path d="M111.74 40.5573C107.848 40.1036 102.821 41.7069 98.6586 59.1588C94.942 74.7405 100.631 76.08 102.122 76.2538C103.613 76.4275 112.268 78.258 115.74 61.15C119.213 44.0419 117.507 41.2295 111.74 40.5573Z" fill="#22093A" stroke="#22093A" stroke-linecap="round" stroke-linejoin="round"/>
<path d="M101.527 92.6075C105.32 92.6075 108.395 89.5324 108.395 85.7391C108.395 81.9457 105.32 78.8706 101.527 78.8706C97.7333 78.8706 94.6582 81.9457 94.6582 85.7391C94.6582 89.5324 97.7333 92.6075 101.527 92.6075Z" fill="#22093A" stroke="#22093A" stroke-linecap="round" stroke-linejoin="round"/>
<path d="M67.5787 39.5181C65.0817 33.1968 46.9138 31.1091 41.96 41.4869C38.7277 48.2585 31.15 79.0005 43.0053 81.605C54.8605 84.2095 67.8303 81.6587 67.1916 72.7678C66.7248 66.2717 52.0227 65.961 52.0227 65.961C52.0227 65.961 65.7979 66.5634 66.3934 59.821C66.989 53.0786 52.5703 54.0572 52.5703 54.0572C52.5703 54.0572 72.1581 51.1112 67.5787 39.5181Z" fill="#35CCAD" stroke="#22093A" stroke-linecap="round" stroke-linejoin="round"/>
<path d="M34.1536 37.0045C24.0598 38.356 25.8592 61.9887 25.8592 61.9887C25.8592 61.9887 20.0367 35.2659 10.9074 38.8615C-1.05053 43.5712 7.1125 64.5089 17.5904 71.9787C16.9212 75.7336 17.1906 96.7403 28.7873 87.5798C35.0959 82.5965 40.7865 63.2683 41.6574 58.6641C43.3702 49.6109 44.3139 35.6442 34.1536 37.0045Z" fill="#35CCAD" stroke="#22093A" stroke-linecap="round" stroke-linejoin="round"/>
<path d="M96.3567 46.6579C96.3617 40.9552 93.0177 34.2357 80.5604 34.6586C68.2954 35.075 60.0969 51.3304 72.4153 58.4578C83.8217 65.0575 80.0632 72.7162 75.1135 68.3265C65.5924 59.8826 55.4473 77.1985 68.4049 84.0336C81.3625 90.8687 96.026 83.3338 97.972 74.9729C101.658 59.1354 89.5522 56.1241 83.9877 53.4224C83.9877 53.4224 96.3491 55.3617 96.3567 46.6579Z" fill="#35CCAD" stroke="#22093A" stroke-linecap="round" stroke-linejoin="round"/>
<path d="M109.72 38.5031C105.828 38.0494 100.802 39.6527 96.6391 57.1046C92.9225 72.6863 98.6118 74.0258 100.103 74.1996C101.594 74.3734 110.249 76.2039 113.721 59.0958C117.193 41.9878 115.487 39.1753 109.72 38.5031Z" fill="#35CCAD" stroke="#22093A" stroke-linecap="round" stroke-linejoin="round"/>
<path d="M99.5052 90.5533C103.299 90.5533 106.374 87.4782 106.374 83.6849C106.374 79.8915 103.299 76.8164 99.5052 76.8164C95.7118 76.8164 92.6367 79.8915 92.6367 83.6849C92.6367 87.4782 95.7118 90.5533 99.5052 90.5533Z" fill="#35CCAD" stroke="#22093A" stroke-linecap="round" stroke-linejoin="round"/>
<path d="M12.1952 43.4238C9.97372 43.3668 5.61611 48.2371 12.8788 61.3099" stroke="white" stroke-linecap="round" stroke-linejoin="round"/>
<path d="M23.8574 85.2915C25.8226 86.844 29.6257 81.3726 30.4801 79.2529" stroke="white" stroke-linecap="round" stroke-linejoin="round"/>
<path d="M51.8807 38.2017C49.5062 38.5711 47.3249 39.7284 45.6875 41.4873" stroke="white" stroke-linecap="round" stroke-linejoin="round"/>
<path d="M56.6244 37.6426C55.9029 37.672 55.1737 37.7218 54.4492 37.7984" stroke="white" stroke-linecap="round" stroke-linejoin="round"/>
<path d="M40.3906 73.1865C40.3906 75.2408 44.4065 78.3155 50.0457 78.5719" stroke="white" stroke-linecap="round" stroke-linejoin="round"/>
<path d="M77.3015 38.9668C72.1749 39.8446 67.0483 48.7501 72.004 53.7058" stroke="white" stroke-linecap="round" stroke-linejoin="round"/>
<path d="M99.5051 79.5951C97.0399 79.2533 94.3912 83.173 96.0146 86.1742" stroke="white" stroke-linecap="round" stroke-linejoin="round"/>
<path d="M108.232 41.4873C105.455 41.4873 99.0981 53.1358 98.6582 64.6424" stroke="white" stroke-linecap="round" stroke-linejoin="round"/>
<path d="M89.1796 80.2622C86.8614 81.7506 84.1591 82.5298 81.4043 82.5044" stroke="white" stroke-linecap="round" stroke-linejoin="round"/>
</svg>
