<svg width="120" height="114" viewBox="0 0 120 114" fill="none" xmlns="http://www.w3.org/2000/svg">
<g clip-path="url(#clip0_5_11013)">
<path opacity="0.5" d="M118.965 57.7025C120.67 49.3013 120.282 43.9713 117.708 40.4202C117.246 39.7845 116.744 39.2465 116.22 38.7922L118.908 34.9794C120.077 33.3223 120.12 31.1216 119.018 29.4202C118.083 27.9777 116.438 27.1121 114.809 27.1557C114.33 27.0865 113.839 27.0879 113.346 27.1661L99.4621 29.3294L99.1034 27.0238C100.119 27.4627 101.197 27.7028 102.272 27.7028C103.37 27.7028 104.463 27.4701 105.466 26.9972C105.467 26.9965 105.467 26.9965 105.467 26.9965C108.437 25.5956 110.47 22.451 110.528 19.1714C110.579 16.245 109.057 13.6973 106.453 12.3553C103.738 10.9544 100.794 10.9281 98.3888 12.2847C97.6602 12.6952 97.0267 13.2254 96.4755 13.8347C95.8998 13.0514 95.105 12.4337 94.1563 12.0943C92.5332 11.5126 90.7188 11.82 89.3768 12.8975C89.1635 13.0353 88.9613 13.1904 88.7688 13.3629L86.2648 15.6038C85.5945 15.1467 84.805 14.8489 83.9464 14.7658C82.3952 14.6163 78.8497 14.2749 77.8691 13.8088C77.4398 12.8117 77.2279 9.25715 77.1365 7.70253C76.9828 5.11541 74.8638 3.08159 72.2725 3.03381C70.1923 3.00334 68.3018 4.29551 67.5609 6.18045L65.6178 3.26926C64.6413 1.80535 62.9517 0.984066 61.208 1.06786C59.4519 1.16757 57.88 2.18898 57.0753 3.7533L49.7336 18.0233L38.8755 12.9003C37.5653 12.2833 36.0529 12.2667 34.7344 12.8574C33.4132 13.4474 32.4146 14.5837 32.0019 15.9701L28.9771 26.1059L14.7577 21.6914C12.9877 21.1429 11.0654 21.6221 9.76214 22.9358C8.45889 24.2487 7.99492 26.1773 8.55583 27.9403L11.082 35.863C6.18893 37.4239 3.53534 43.2047 4.55467 50.4654C4.62392 50.9577 4.77073 51.9452 5.00202 53.2582L3.14616 54.6847C1.71134 55.7871 0.991159 57.582 1.264 59.37C1.53684 61.1573 2.76114 62.6552 4.45911 63.2791L7.72763 64.4805C8.62231 67.2442 9.61672 69.6603 10.7039 71.7094L5.93964 79.0954C4.97847 80.5849 4.88568 82.4733 5.6945 84.0508C6.50332 85.6276 8.09187 86.6538 9.86186 86.7432L21.0815 87.3075C21.0399 87.5776 20.9942 87.8207 20.9471 88.0201C19.9167 88.268 17.7008 88.4404 16.6731 88.5208C14.0888 88.7216 12.0944 90.8773 12.0944 93.4692C12.0944 96.0612 14.0888 98.2169 16.6731 98.4177C17.7008 98.498 19.9167 98.6705 20.9471 98.9191C21.195 99.9502 21.3681 102.165 21.4485 103.194C21.6493 105.779 23.8057 107.772 26.3969 107.772C27.3803 107.772 28.2999 107.486 29.0741 106.989L29.1752 107.917C29.2015 108.149 29.243 108.377 29.2998 108.599L29.3414 109.081C29.4965 110.896 30.6336 112.481 32.3038 113.209C32.9395 113.487 33.6154 113.623 34.2871 113.623C35.3757 113.623 36.4559 113.264 37.3437 112.569L56.1266 97.888L70.6659 111.792C71.8903 112.961 73.6242 113.425 75.271 113.027C76.9163 112.626 78.2431 111.415 78.7915 109.813L81.2914 102.519C83.65 101.138 85.2261 98.5022 85.2746 95.762C85.2939 94.6735 85.0779 93.641 84.6513 92.713L84.8037 92.2705L110.745 95.807C112.579 96.0591 114.399 95.2676 115.467 93.7573C116.536 92.247 116.676 90.2679 115.831 88.6219L110.788 78.7969C111.831 76.4674 111.96 73.793 111.076 71.3333C114.231 69.465 117.37 65.5622 118.965 57.7025Z" fill="#231F20"/>
<path d="M117.758 56.6405C119.463 48.2393 119.075 42.9093 116.501 39.3582C116.039 38.7225 115.537 38.1845 115.013 37.7302L117.701 33.9174C118.87 32.2603 118.913 30.0596 117.811 28.3581C116.876 26.9157 115.231 26.0501 113.602 26.0937C113.123 26.0245 112.632 26.0259 112.139 26.1041L98.2551 28.2674L97.8964 25.9618C98.9117 26.4007 99.9897 26.6408 101.065 26.6408C102.163 26.6408 103.256 26.4081 104.259 25.9351C104.26 25.9345 104.26 25.9345 104.26 25.9345C107.23 24.5336 109.263 21.389 109.321 18.1094C109.372 15.183 107.85 12.6353 105.246 11.2933C102.53 9.89241 99.5874 9.8661 97.1818 11.2227C96.4532 11.6331 95.8196 12.1634 95.2685 12.7727C94.6928 11.9894 93.898 11.3716 92.9493 11.0322C91.3261 10.4506 89.5118 10.758 88.1698 11.8355C87.9565 11.9733 87.7543 12.1284 87.5618 12.3009L85.0578 14.5417C84.3875 14.0847 83.598 13.7869 82.7393 13.7038C81.1882 13.5543 77.6427 13.2129 76.6621 12.7468C76.2328 11.7497 76.0209 8.19514 75.9295 6.64052C75.7757 4.0534 73.6567 2.01958 71.0655 1.9718C68.9853 1.94133 67.0948 3.2335 66.3538 5.11844L64.4107 2.20725C63.4343 0.743337 61.7447 -0.0779461 60.001 0.00584418C58.2449 0.105561 56.6729 1.12697 55.8683 2.69129L48.5266 16.9613L37.6684 11.8383C36.3583 11.2213 34.8459 11.2047 33.5274 11.7954C32.2061 12.3854 31.2076 13.5217 30.7949 14.9081L27.7701 25.0439L13.5507 20.6293C11.7807 20.0809 9.85836 20.5601 8.55511 21.8737C7.25186 23.1867 6.78789 25.1152 7.3488 26.8783L9.87498 34.801C4.9819 36.3619 2.32831 42.1427 3.34764 49.4034C3.41689 49.8957 3.5637 50.8832 3.79499 52.1962L1.93913 53.6227C0.504309 54.7251 -0.215872 56.52 0.0569665 58.308C0.329805 60.0953 1.55411 61.5931 3.25208 62.2171L6.5206 63.4185C7.41528 66.1822 8.40969 68.5983 9.49689 70.6473L4.73261 78.0334C3.77144 79.5229 3.67865 81.4113 4.48747 82.9888C5.29629 84.5655 6.88484 85.5918 8.65483 85.6811L19.8744 86.2455C19.8329 86.5156 19.7872 86.7586 19.7401 86.9581C18.7097 87.206 16.4937 87.3784 15.4661 87.4587C12.8817 87.6596 10.8874 89.8153 10.8874 92.4072C10.8874 94.9992 12.8817 97.1549 15.4661 97.3557C16.4937 97.436 18.7097 97.6085 19.7401 97.857C19.988 98.8882 20.1611 101.103 20.2414 102.132C20.4423 104.717 22.5986 106.71 25.1899 106.71C26.1732 106.71 27.0929 106.424 27.8671 105.927L27.9682 106.855C27.9945 107.087 28.036 107.315 28.0928 107.537L28.1344 108.019C28.2895 109.834 29.4265 111.419 31.0968 112.147C31.7325 112.425 32.4084 112.561 33.0801 112.561C34.1686 112.561 35.2489 112.202 36.1367 111.507L54.9196 96.8259L69.4589 110.73C70.6832 111.899 72.4172 112.363 74.0639 111.965C75.7093 111.564 77.0361 110.353 77.5845 108.751L80.0844 101.457C82.443 100.076 84.0191 97.4402 84.0675 94.7C84.0869 93.6114 83.8709 92.5789 83.4443 91.651L83.5966 91.2085L109.538 94.745C111.372 94.9971 113.192 94.2056 114.26 92.6953C115.329 91.185 115.469 89.2059 114.624 87.5598L109.581 77.7349C110.624 75.4054 110.753 72.731 109.869 70.2713C113.024 68.403 116.163 64.5002 117.758 56.6405Z" fill="white"/>
<path d="M51.5055 24.3244L60.281 4.96289L76.3587 29.0584L91.2767 15.7069L94.2568 34.8606L113.644 31.0581L94.2 58.6426L110.208 89.8278L80.2227 85.7401L72.8888 107.143L55.2455 90.2709L33.0791 107.598L30.8969 81.831L8.90299 80.7249L21.2729 63.551L4.96289 57.5591L19.6803 47.6555L12.837 26.1975L31.8507 32.0998L36.3096 17.155L51.5055 24.3244Z" fill="#22093A" stroke="#22093A" stroke-miterlimit="10" stroke-linecap="round" stroke-linejoin="round"/>
<path d="M50.7457 23.498L60.281 4.96289L75.9528 29.3517L90.8709 16.0002L93.497 34.0342L112.903 31.009L93.4402 57.8161L109.448 89.0014L79.463 84.9137L72.1291 106.316L54.4858 89.4445L32.9016 106.316L30.1371 81.0046L8.90299 80.7249L20.5131 62.7246L4.96289 57.5592L18.9205 46.8291L12.0773 25.3711L31.0909 31.2733L35.5499 16.3285L50.7457 23.498Z" fill="#9736FF" stroke="#22093A" stroke-miterlimit="10" stroke-linecap="round" stroke-linejoin="round"/>
<path d="M25.5127 75.1518C29.886 74.5147 30.3106 69.3228 31.6215 65.3508C33.6113 68.5998 35.2422 73.4619 39.5173 72.7927C44.4588 72.0193 46.937 64.6721 47.5122 56.5378C48.1362 47.7125 44.875 35.233 39.3696 35.6889C33.0225 36.2145 35.9319 54.3838 35.9319 54.3838C35.9319 54.3838 32.3333 41.5233 26.8174 42.3061C20.5195 43.2 24.6958 55.7486 24.6958 55.7486C24.6958 55.7486 19.9181 38.2683 12.9898 39.3798C9.82318 39.8878 10.9109 44.9551 11.5244 49.323C12.1881 54.0479 16.0038 76.5369 25.5127 75.1518Z" fill="#22093A" stroke="#22093A" stroke-miterlimit="10" stroke-linecap="round" stroke-linejoin="round"/>
<path d="M55.1532 35.405C61.2632 34.8177 70.8018 40.4259 70.6301 52.3556C70.4585 64.2854 62.9288 70.1148 56.2416 70.7082C50.208 71.2437 41.9755 66.9347 41.7383 54.2358C41.5439 43.8321 46.1788 36.2677 55.1532 35.405Z" fill="#22093A" stroke="#22093A" stroke-miterlimit="10" stroke-linecap="round" stroke-linejoin="round"/>
<path d="M56.4516 44.5907C57.3189 44.1039 58.6501 46.3632 58.5843 51.8894C58.5184 57.4156 57.4318 60.378 56.4828 60.8879C55.6265 61.3481 54.4758 59.644 54.4864 53.7763C54.4951 48.9691 55.1778 45.3058 56.4516 44.5907Z" fill="#22093A" stroke="#22093A" stroke-miterlimit="10" stroke-linecap="round" stroke-linejoin="round"/>
<path d="M74.5741 71.6001C78.9652 72.0997 80.7001 67.1878 82.9808 63.6815C84.076 67.3306 84.4129 72.4478 88.7172 72.8913C93.6925 73.4038 97.9628 66.9317 100.594 59.2132C103.448 50.839 103.467 38.5378 98.0274 37.5744C91.7561 36.4637 89.9459 54.1767 89.9459 54.1767C89.9459 54.1767 89.9848 41.4557 84.4517 40.8058C78.1341 40.0637 78.7333 52.6304 78.7333 52.6304C78.7333 52.6304 78.5971 35.4455 71.6145 34.753C68.4231 34.4365 68.1575 38.6778 67.6365 43.0578C67.0731 47.7957 65.0264 70.514 74.5741 71.6001Z" fill="#22093A" stroke="#22093A" stroke-miterlimit="10" stroke-linecap="round" stroke-linejoin="round"/>
<path d="M108.142 40.1086C105.266 39.7733 103.349 41.2872 100.273 54.183C97.5264 65.6967 101.73 66.6865 102.832 66.8149C103.934 66.9434 110.329 68.2959 112.895 55.6543C115.461 43.0127 112.403 40.6053 108.142 40.1086Z" fill="#22093A" stroke="#22093A" stroke-miterlimit="10" stroke-linecap="round" stroke-linejoin="round"/>
<path d="M100.417 78.7292C103.22 78.7292 105.492 76.4569 105.492 73.6539C105.492 70.8509 103.22 68.5786 100.417 68.5786C97.6141 68.5786 95.3418 70.8509 95.3418 73.6539C95.3418 76.4569 97.6141 78.7292 100.417 78.7292Z" fill="#22093A" stroke="#22093A" stroke-miterlimit="10" stroke-linecap="round" stroke-linejoin="round"/>
<path d="M22.2501 74.5416C26.6234 73.9046 27.048 68.7127 28.3589 64.7407C30.3487 67.9897 31.9796 72.8517 36.2547 72.1826C41.1962 71.4092 43.6744 64.062 44.2496 55.9276C44.8736 47.1024 44.2453 35.2243 38.7399 35.6802C32.3928 36.2059 32.6693 53.7737 32.6693 53.7737C32.6693 53.7737 31.4139 41.5296 25.8981 42.3125C19.6002 43.2063 21.4332 55.1385 21.4332 55.1385C21.4332 55.1385 18.8504 38.2917 11.9221 39.4031C8.7555 39.9111 7.64831 44.345 8.26178 48.7129C8.92548 53.4378 12.7412 75.9267 22.2501 74.5416Z" fill="#FCC707" stroke="#22093A" stroke-miterlimit="10" stroke-linecap="round" stroke-linejoin="round"/>
<path d="M51.8915 34.7947C58.0015 34.2073 67.5401 39.8155 67.3684 51.7453C67.1968 63.6751 59.667 69.5044 52.9799 70.0979C46.9463 70.6333 38.7138 66.3244 38.4766 53.6254C38.2822 43.2217 42.9171 35.6574 51.8915 34.7947Z" fill="#FCC707" stroke="#22093A" stroke-miterlimit="10" stroke-linecap="round" stroke-linejoin="round"/>
<path d="M53.1899 43.9804C54.0572 43.4935 55.3884 45.7528 55.3225 51.279C55.2567 56.8052 54.1701 59.7676 53.2211 60.2776C52.3648 60.7377 51.2141 59.0337 51.2247 53.166C51.2334 48.3588 51.9161 44.6955 53.1899 43.9804Z" fill="#22093A" stroke="#22093A" stroke-miterlimit="10" stroke-linecap="round" stroke-linejoin="round"/>
<path d="M71.3124 70.99C75.7035 71.4895 77.4384 66.5776 79.719 63.0714C80.8143 66.7204 81.1511 71.8377 85.4555 72.2811C90.4308 72.7937 94.7011 66.3216 97.3321 58.603C100.186 50.2288 102.609 38.5834 97.169 37.62C90.8978 36.5093 86.6842 53.5666 86.6842 53.5666C86.6842 53.5666 88.5934 41.4073 83.0603 40.7573C76.7427 40.0153 75.4716 52.0203 75.4716 52.0203C75.4716 52.0203 77.2713 35.0719 70.2887 34.3794C67.0973 34.0629 64.8958 38.0677 64.3748 42.4477C63.8114 47.1856 61.7647 69.9039 71.3124 70.99Z" fill="#FCC707" stroke="#22093A" stroke-miterlimit="10" stroke-linecap="round" stroke-linejoin="round"/>
<path d="M106.675 39.8275C103.799 39.4923 100.085 40.677 97.0091 53.5728C94.2628 65.0865 98.4667 66.0763 99.5685 66.2047C100.67 66.3332 107.065 67.6857 109.631 55.0441C112.197 42.4025 110.937 40.3243 106.675 39.8275Z" fill="#FCC707" stroke="#22093A" stroke-miterlimit="10" stroke-linecap="round" stroke-linejoin="round"/>
<path d="M99.128 78.2893C101.931 78.2893 104.203 76.017 104.203 73.214C104.203 70.411 101.931 68.1387 99.128 68.1387C96.325 68.1387 94.0527 70.411 94.0527 73.214C94.0527 76.017 96.325 78.2893 99.128 78.2893Z" fill="#FCC707" stroke="#22093A" stroke-miterlimit="10" stroke-linecap="round" stroke-linejoin="round"/>
<path d="M13.125 58.2598C14.2384 62.4758 13.7501 60.4937 13.7501 60.4937" stroke="white" stroke-miterlimit="10" stroke-linecap="round" stroke-linejoin="round"/>
<path d="M12.2877 42.3408C10.7528 43.391 9.79275 45.5286 12.1355 54.4866" stroke="white" stroke-miterlimit="10" stroke-linecap="round" stroke-linejoin="round"/>
<path d="M31.9414 65.0479C32.7229 67.1653 34.5001 68.9385 35.5503 68.7769" stroke="white" stroke-miterlimit="10" stroke-linecap="round" stroke-linejoin="round"/>
<path d="M49.3671 38.2036C46.2974 39.2708 42.8223 42.0982 41.7324 49.2072" stroke="white" stroke-miterlimit="10" stroke-linecap="round" stroke-linejoin="round"/>
<path d="M99.1996 57.3877C99.0734 58.2948 99.0225 59.0484 99.0754 59.6094" stroke="white" stroke-miterlimit="10" stroke-linecap="round" stroke-linejoin="round"/>
<path d="M106.32 42.3408C104.202 42.9871 101.698 45.9761 100.729 50.1768" stroke="white" stroke-miterlimit="10" stroke-linecap="round" stroke-linejoin="round"/>
<path d="M98.4622 70.752C97.2711 71.0189 96.2209 72.7154 96.7864 74.0887" stroke="white" stroke-miterlimit="10" stroke-linecap="round" stroke-linejoin="round"/>
<path d="M67.0605 59.063C67.0605 62.3751 68.9972 66.8597 71.0976 67.2833" stroke="white" stroke-miterlimit="10" stroke-linecap="round" stroke-linejoin="round"/>
<path d="M82.9733 63.1729C82.8713 65.1586 83.9845 67.7397 85.6391 68.7868" stroke="white" stroke-miterlimit="10" stroke-linecap="round" stroke-linejoin="round"/>
<path d="M48.3022 77.1886C46.8605 78.9966 48.1531 81.4353 49.9102 81.725C52.1209 82.0895 54.8969 80.007 53.6569 77.6869C52.4169 75.3668 50.0274 75.0251 48.3022 77.1886Z" fill="#EC6509" stroke="#22093A" stroke-miterlimit="10" stroke-linecap="round" stroke-linejoin="round"/>
<path d="M98.0351 18.4772C97.8674 20.9059 100.446 22.2456 102.141 21.4457C104.274 20.4394 105.434 16.975 102.972 15.7066C100.51 14.4382 98.2359 15.5712 98.0351 18.4772Z" fill="#9736FF" stroke="#22093A" stroke-miterlimit="10" stroke-linecap="round" stroke-linejoin="round"/>
<path d="M36.9104 26.6961C36.7797 28.5874 38.7876 29.6307 40.1079 29.0078C41.7691 28.2241 42.6721 25.5263 40.755 24.5385C38.8379 23.5507 37.0667 24.4331 36.9104 26.6961Z" fill="white" stroke="#22093A" stroke-miterlimit="10" stroke-linecap="round" stroke-linejoin="round"/>
<path d="M74.1799 94.9671C74.0493 96.8584 76.0571 97.9016 77.3774 97.2788C79.0386 96.4951 79.9416 93.7973 78.0245 92.8095C76.1075 91.8217 74.3362 92.7041 74.1799 94.9671Z" fill="white" stroke="#22093A" stroke-miterlimit="10" stroke-linecap="round" stroke-linejoin="round"/>
<path d="M25.5025 88.4962L21.5898 92.4082L25.5018 96.3209L29.4145 92.4089L25.5025 88.4962Z" fill="#EC6509"/>
<path d="M25.5017 102.457C25.1313 102.457 24.8238 102.172 24.7947 101.803C24.1846 93.97 23.9409 93.7263 16.1075 93.1155C15.7377 93.0878 15.4531 92.779 15.4531 92.4092C15.4531 92.0394 15.7377 91.7305 16.1068 91.7028C23.9409 91.0907 24.1846 90.8469 24.7947 83.0136C24.8238 82.6452 25.1313 82.3599 25.5017 82.3599C25.8722 82.3599 26.1797 82.6452 26.2088 83.0136C26.8181 90.8469 27.0619 91.0907 34.896 91.7028C35.265 91.7305 35.5497 92.0394 35.5497 92.4092C35.5497 92.779 35.265 93.0878 34.8953 93.1155C27.0619 93.7263 26.8181 93.97 26.2088 101.803C26.1797 102.172 25.8722 102.457 25.5017 102.457ZM21.5885 92.4092C23.8647 92.9964 24.9138 94.0448 25.5017 96.3203C26.089 94.0448 27.1381 92.9964 29.4143 92.4092C27.1381 91.8206 26.089 90.7721 25.5017 88.4966C24.9138 90.7721 23.8647 91.8206 21.5885 92.4092Z" fill="#22093A"/>
<path d="M70.8626 12.8696L68.5221 16.0848L65.1953 18.3326L69.0779 20.2893L70.659 24.0006L72.9652 20.6895L76.3263 18.5369L73.1267 16.2464L70.8626 12.8696Z" fill="#EC6509"/>
<path d="M70.5501 30.643C70.546 30.643 70.5418 30.643 70.5377 30.643C70.1665 30.6361 69.8646 30.3452 69.8424 29.9761C69.2663 20.2745 68.8674 19.8617 59.1941 18.9297C58.8257 18.8943 58.5459 18.5813 58.5529 18.2109C58.5598 17.8411 58.8499 17.5385 59.2197 17.5163C68.9214 16.9388 69.3341 16.5413 70.2662 6.86731C70.3022 6.49961 70.6457 6.22538 70.985 6.22608C71.3562 6.233 71.6581 6.52315 71.6802 6.89294C72.2564 16.5946 72.6553 17.0073 82.3292 17.9401C82.6976 17.9754 82.9774 18.2884 82.9705 18.6589C82.9636 19.0287 82.6727 19.3313 82.3029 19.3535C72.6026 19.9303 72.1885 20.3278 71.2564 30.0018C71.2204 30.366 70.9144 30.643 70.5501 30.643ZM65.1958 18.3327C68.6361 19.127 69.992 20.5341 70.6595 24.0007C71.4531 20.5611 72.8602 19.2039 76.3268 18.537C72.8879 17.7427 71.5307 16.3349 70.8631 12.8697C70.0695 16.3079 68.661 17.6652 65.1958 18.3327Z" fill="#22093A"/>
<path d="M48.4648 89.8869L50.336 88.5752" stroke="#22093A" stroke-miterlimit="10" stroke-linecap="round" stroke-linejoin="round"/>
<path d="M36.1992 99.9038L44.4452 92.7051" stroke="#22093A" stroke-miterlimit="10" stroke-linecap="round" stroke-linejoin="round"/>
<path d="M101.797 85.1543L104.359 85.5774" stroke="#22093A" stroke-miterlimit="10" stroke-linecap="round" stroke-linejoin="round"/>
<path d="M95.7363 84.1538L99.7041 84.8091" stroke="#22093A" stroke-miterlimit="10" stroke-linecap="round" stroke-linejoin="round"/>
<path d="M78.7715 30.7079L85.6381 24.5684" stroke="#D9BBFF" stroke-miterlimit="10" stroke-linecap="round" stroke-linejoin="round"/>
<path d="M87.3359 23.1143L88.063 22.3872" stroke="#D9BBFF" stroke-miterlimit="10" stroke-linecap="round" stroke-linejoin="round"/>
<path d="M19.666 30.4854L24.0593 32.1619" stroke="#D9BBFF" stroke-miterlimit="10" stroke-linecap="round" stroke-linejoin="round"/>
<path d="M26.4922 33.0879L27.4374 33.3316" stroke="#D9BBFF" stroke-miterlimit="10" stroke-linecap="round" stroke-linejoin="round"/>
</g>
<defs>
<clipPath id="clip0_5_11013">
<rect width="120" height="113.623" fill="white"/>
</clipPath>
</defs>
</svg>
