<svg width="120" height="104" viewBox="0 0 120 104" fill="none" xmlns="http://www.w3.org/2000/svg">
<g clip-path="url(#clip0_5_10991)">
<path opacity="0.5" d="M118.65 34.2091C119.563 29.0022 118.255 23.4391 114.829 18.0381C111.986 13.3125 107.252 10.0335 101.829 9.03284C101.562 8.9525 101.294 8.87796 101.025 8.80924C100.231 8.3634 99.4801 7.98315 98.7464 7.65379C88.9499 3.23001 78.3114 0.980889 67.5627 1.06116C56.9391 0.928607 46.4225 3.19517 36.7966 7.69195C33.1813 9.38911 29.7325 11.4205 26.4953 13.7597C23.5318 12.5311 20.1629 12.7692 17.4017 14.4024C14.4016 16.3685 12.6159 19.7328 12.6687 23.3193C12.632 24.5287 12.8171 25.7347 13.215 26.8774C11.8846 28.6887 10.6593 30.5749 9.54513 32.5268C6.68675 34.4892 4.88536 37.6533 4.65689 41.113C4.62074 41.8654 4.64217 42.7739 4.67831 43.5839C3.48946 47.274 2.71441 51.0849 2.36742 54.9463C1.23339 68.1134 5.5084 80.0267 13.8309 87.0411C15.5299 89.9089 18.4344 91.8548 21.7329 92.335C21.9538 92.4147 22.1774 92.487 22.401 92.5513C31.0375 96.9631 40.6266 99.1828 50.3233 99.0147C57.8999 99.0965 65.4413 97.9732 72.6651 95.6869L81.0519 102.63C81.349 102.877 81.6723 103.089 82.0158 103.265C82.221 103.376 82.4335 103.473 82.6518 103.555C83.9845 104.052 85.4583 104.01 86.7608 103.439C86.8318 103.407 86.9027 103.375 86.9724 103.34C87.0393 103.308 87.1062 103.274 87.1719 103.238C87.612 102.999 88.0133 102.695 88.3621 102.336C88.7185 102.004 89.0251 101.623 89.2726 101.204C89.5238 100.778 89.7123 100.319 89.8322 99.8395C89.9689 99.3695 90.0405 98.8829 90.0451 98.3935L90.009 89.4531C96.627 86.2673 110.519 78.1985 116.417 64.39C120.282 54.8067 121.062 44.2569 118.65 34.2091Z" fill="#231F20"/>
<path d="M116.463 33.15C117.376 27.9431 116.068 22.3801 112.642 16.979C109.798 12.2534 105.065 8.97441 99.641 7.97376C99.3746 7.89342 99.1068 7.81888 98.8377 7.75016C98.0438 7.30432 97.2926 6.92407 96.5589 6.59472C86.7625 2.17093 76.1239 -0.0781855 65.3752 0.00207892C54.7516 -0.130481 44.235 2.13608 34.6091 6.63287C30.9938 8.33004 27.545 10.3615 24.3078 12.7007C21.3443 11.472 17.9754 11.7101 15.2142 13.3433C12.2141 15.3094 10.4284 18.6737 10.4812 22.2602C10.4445 23.4697 10.6296 24.6756 11.0275 25.8183C9.69706 27.6296 8.47175 29.5159 7.35763 31.4677C4.49926 33.4301 2.69787 36.5942 2.46939 40.0539C2.43324 40.8063 2.45467 41.7148 2.49082 42.5248C1.30197 46.2149 0.526908 50.0258 0.179916 53.8872C-0.954114 67.0543 3.3209 78.9676 11.6434 85.982C13.3424 88.8498 16.2469 90.7957 19.5454 91.2759C19.7663 91.3556 19.9899 91.4279 20.2135 91.4922C28.85 95.904 38.4391 98.1237 48.1358 97.9556C55.7124 98.0374 63.2538 96.9141 70.4776 94.6278L78.8643 101.571C79.1615 101.817 79.4848 102.03 79.8283 102.206C80.0335 102.317 80.246 102.414 80.4643 102.496C81.797 102.993 83.2707 102.951 84.5733 102.38C84.6443 102.348 84.7152 102.316 84.7849 102.281C84.8518 102.249 84.9188 102.215 84.9844 102.179C85.4244 101.94 85.8258 101.636 86.1746 101.277C86.5309 100.945 86.8376 100.564 87.085 100.145C87.3363 99.7192 87.5248 99.2597 87.6447 98.7804C87.7814 98.3104 87.853 97.8238 87.8576 97.3344L87.8214 88.394C94.4395 85.2082 108.332 77.1394 114.229 63.3309C118.094 53.7476 118.875 43.1978 116.463 33.15Z" fill="white"/>
<path d="M38.2737 11.6262C56.0494 3.39284 76.5464 3.39284 94.3221 11.6262C111.914 19.523 116.031 45.2009 109.195 61.2056C102.359 77.2103 82.3332 84.8565 82.3332 84.8565L82.3828 97.3849L72.5008 88.1058C72.5008 88.1058 43.6484 100.944 18.0986 83.0582C-1.20191 69.5474 3.45772 27.9655 38.2737 11.6262Z" fill="#22093A" stroke="#22093A" stroke-linecap="round" stroke-linejoin="round"/>
<path d="M36.9495 11.6262C54.7252 3.39284 75.2222 3.39284 92.9979 11.6262C110.589 19.523 114.707 45.2009 107.871 61.2056C101.035 77.2103 81.009 84.8565 81.009 84.8565L82.3822 97.3849L71.1766 88.1058C71.1766 88.1058 42.3242 100.944 16.7744 83.0582C-2.52612 69.5474 2.13346 27.9655 36.9495 11.6262Z" fill="#EC6509" stroke="#22093A" stroke-linecap="round" stroke-linejoin="round"/>
<path d="M15.9729 22.4354C15.8972 24.8226 17.771 26.8191 20.1581 26.8949C20.8126 26.9156 21.4632 26.7875 22.0609 26.5202C25.0697 24.919 26.5288 19.7868 22.9097 18.0848C19.2905 16.3828 16.086 18.1777 15.9729 22.4354Z" fill="#F1F2F2" stroke="#22093A" stroke-linecap="round" stroke-linejoin="round"/>
<path d="M66.7686 48.8251C63.0043 50.8005 68.0278 73.9143 72.7857 73.9535C78.3841 73.9996 77.0818 63.0979 77.0818 63.0979C77.0818 63.0979 83.3027 70.6332 85.7626 70.3975C92.2962 69.7716 89.5947 62.2334 81.5389 57.2221C81.5389 57.2221 89.3958 46.7657 82.3313 45.2706C77.4392 44.2352 75.5046 56.4943 75.5046 56.4943C75.5046 56.4943 72.0309 46.0636 66.7686 48.8251Z" fill="#22093A" stroke="#22093A" stroke-linecap="round" stroke-linejoin="round"/>
<path d="M26.2225 34.8393C23.6039 32.0758 10.4071 34.2028 10.0945 40.8736C9.88849 45.2699 11.847 63.6475 18.6146 62.1659C25.5691 60.6435 21.072 51.531 21.072 51.531C21.072 51.531 27.2469 49.9735 26.9579 46.014C26.6689 42.0545 18.8999 44.6673 18.8999 44.6673C18.8999 44.6673 31.251 40.1461 26.2225 34.8393Z" fill="#22093A" stroke="#22093A" stroke-linecap="round" stroke-linejoin="round"/>
<path d="M41.6964 30.9242C40.1755 28.4978 26.6729 30.0454 25.359 37.0106C24.5017 41.5555 26.8084 56.8957 34.2832 56.5767C41.7581 56.2576 47.8102 52.6007 46.8613 48.7C45.9124 44.7994 34.7776 47.8994 34.7776 47.8994C34.7776 47.8994 42.0203 46.1709 41.3111 42.0595C40.6018 37.9481 33.2252 40.7203 33.2252 40.7203C33.2252 40.7203 44.9855 36.1716 41.6964 30.9242Z" fill="#22093A" stroke="#22093A" stroke-linecap="round" stroke-linejoin="round"/>
<path d="M62.2873 23.0986C58.5697 23.884 60.1597 42.8795 64.7997 47.9745C67.2132 50.6246 77.5684 47.4233 79.8101 41.6196C82.0518 35.8159 78.3721 19.7004 62.2873 23.0986Z" fill="#22093A" stroke="#22093A" stroke-linecap="round" stroke-linejoin="round"/>
<path d="M68.5435 32.4058C67.0134 32.8215 68.16 37.5496 69.1438 38.3492C69.7983 38.8811 72.1945 38.2175 72.7301 36.8309C73.2657 35.4442 72.334 31.3761 68.5435 32.4058Z" fill="#22093A" stroke="#22093A" stroke-linecap="round" stroke-linejoin="round"/>
<path d="M57.4209 25.7517C55.4413 23.8735 43.7762 25.5806 42.8397 32.2699C42.2287 36.6348 44.6869 52.6492 51.7876 52.0083C58.8884 51.3675 64.1717 48.1119 63.0925 44.4417C62.0134 40.7715 53.3917 43.316 53.3917 43.316C53.3917 43.316 60.6308 40.5997 59.7702 36.7182C58.9097 32.8366 51.5903 36.5523 51.5903 36.5523C51.5903 36.5523 62.7322 30.7912 57.4209 25.7517Z" fill="#22093A" stroke="#22093A" stroke-linecap="round" stroke-linejoin="round"/>
<path d="M16.7479 63.4186C13.6936 65.9711 14.4105 71.4623 17.0215 80.3543C19.226 87.8617 23.7535 86.859 28.4482 85.6257C33.7033 84.2452 38.9361 80.5795 37.2381 74.6561C35.4708 68.4906 27.424 71.3097 27.424 71.3097C27.424 71.3097 35.0626 67.6459 32.6065 62.2254C30.2057 56.9268 19.8865 60.7956 16.7479 63.4186Z" fill="#22093A" stroke="#22093A" stroke-linecap="round" stroke-linejoin="round"/>
<path d="M22.0039 66.154C22.0039 66.154 24.9735 64.5579 25.1791 66.3545C25.3846 68.1512 22.8373 69.0295 22.8373 69.0295L22.0039 66.154Z" fill="#22093A" stroke="#22093A" stroke-linecap="round" stroke-linejoin="round"/>
<path d="M25.0918 76.7995C25.0918 76.7995 28.9254 74.9426 29.1309 76.7392C29.3364 78.5359 25.9252 79.675 25.9252 79.675L25.0918 76.7995Z" fill="#22093A" stroke="#22093A" stroke-linecap="round" stroke-linejoin="round"/>
<path d="M49.9892 78.2736C52.5138 77.1037 53.5641 74.3784 52.9026 71.3326C52.1869 68.038 48.2011 52.3805 39.9745 54.2594C35.6925 55.2374 33.7547 60.6961 33.4918 66.5235C33.2066 72.8458 34.4795 81.9354 37.9204 81.4433C43.4477 80.6527 41.5422 64.7212 41.5422 64.7212C41.5422 64.7212 45.0705 80.5531 49.9892 78.2736Z" fill="#22093A" stroke="#22093A" stroke-linecap="round" stroke-linejoin="round"/>
<path d="M64.7048 58.3381C67.19 58.7375 68.2669 47.8519 57.2433 50.5396C42.5824 54.1141 45.1602 73.3687 55.2583 76.5494C62.0581 78.6912 76.987 71.4471 69.0711 65.9185C65.9145 63.714 63.608 67.4106 60.4703 68.0157C55.4717 68.9797 53.4151 64.1645 55.8829 60.7315C57.9426 57.8663 60.1112 57.5998 64.7048 58.3381Z" fill="#22093A" stroke="#22093A" stroke-linecap="round" stroke-linejoin="round"/>
<path d="M85.6131 37.954C81.8514 39.2886 77.72 37.321 76.3854 33.5592C76.1725 32.9591 76.0399 32.3335 75.9909 31.6986C75.7354 28.598 76.4357 25.4934 77.9977 22.8028C82.6306 14.9857 99.889 7.12102 108.021 19.9441C116.425 33.1956 106.059 40.9745 104.751 42.213C103.442 43.4516 96.9795 46.7334 97.4439 51.2765C97.4845 51.673 97.5263 52.0306 97.5688 52.3531C97.7967 54.0621 96.6512 55.6519 94.9579 55.9765C93.2426 56.3028 91.5748 55.2198 91.175 53.5201C90.183 50.1477 90.7916 46.5066 92.8265 43.6401C97.3552 37.8473 99.2908 35.5083 98.3778 32.2519C97.914 30.0907 95.7861 28.7147 93.6249 29.1785C93.4263 29.2211 93.2312 29.2788 93.0413 29.351C91.7383 29.7188 90.7875 30.8387 90.636 32.1842C90.1544 34.8868 88.2237 37.1047 85.6131 37.954Z" fill="#22093A" stroke="#22093A" stroke-linecap="round" stroke-linejoin="round"/>
<path d="M97.2888 66.1928C99.7577 66.1928 101.759 64.1913 101.759 61.7224C101.759 59.2534 99.7577 57.252 97.2888 57.252C94.8198 57.252 92.8184 59.2534 92.8184 61.7224C92.8184 64.1913 94.8198 66.1928 97.2888 66.1928Z" fill="#22093A" stroke="#22093A" stroke-linecap="round" stroke-linejoin="round"/>
<path d="M64.63 48.2962C60.8656 50.2716 65.8891 73.3854 70.647 73.4246C76.2454 73.4707 74.9431 62.569 74.9431 62.569C74.9431 62.569 81.164 70.1043 83.6239 69.8687C90.1575 69.2428 87.456 61.7046 79.4001 56.6933C79.4001 56.6933 87.257 46.2369 80.1926 44.7418C75.3005 43.7064 73.3659 55.9655 73.3659 55.9655C73.3659 55.9655 69.8922 45.5347 64.63 48.2962Z" fill="#F1F2F2" stroke="#22093A" stroke-linecap="round" stroke-linejoin="round"/>
<path d="M24.0838 34.311C21.4652 31.5475 8.26843 33.6744 7.95584 40.3453C7.74982 44.7415 9.70831 63.1192 16.4759 61.6376C23.4305 60.1152 18.9333 51.0027 18.9333 51.0027C18.9333 51.0027 25.1082 49.4451 24.8192 45.4857C24.5302 41.5262 16.7613 44.139 16.7613 44.139C16.7613 44.139 29.1124 39.6178 24.0838 34.311Z" fill="#F1F2F2" stroke="#22093A" stroke-linecap="round" stroke-linejoin="round"/>
<path d="M39.5597 30.3954C38.0388 27.969 24.5361 29.5166 23.2223 36.4818C22.365 41.0267 24.6717 56.3669 32.1465 56.0478C39.6214 55.7288 45.6735 52.0719 44.7246 48.1713C43.7757 44.2706 32.6409 47.3706 32.6409 47.3706C32.6409 47.3706 39.8836 45.6421 39.1744 41.5307C38.4651 37.4193 31.0885 40.1915 31.0885 40.1915C31.0885 40.1915 42.8487 35.6428 39.5597 30.3954Z" fill="#F1F2F2" stroke="#22093A" stroke-linecap="round" stroke-linejoin="round"/>
<path d="M60.1487 22.5703C56.4311 23.3557 58.021 42.3512 62.661 47.4462C65.0745 50.0963 75.4298 46.895 77.6714 41.0913C79.9131 35.2876 76.2334 19.172 60.1487 22.5703Z" fill="#F1F2F2" stroke="#22093A" stroke-linecap="round" stroke-linejoin="round"/>
<path d="M66.4048 31.877C64.8747 32.2927 66.0213 37.0207 67.0051 37.8204C67.6596 38.3523 70.0558 37.6887 70.5914 36.302C71.127 34.9154 70.1953 30.8473 66.4048 31.877Z" fill="#22093A" stroke="#22093A" stroke-linecap="round" stroke-linejoin="round"/>
<path d="M55.2823 25.2234C53.3027 23.3451 41.6375 25.0522 40.7011 31.7416C40.09 36.1065 42.5482 52.1209 49.649 51.48C56.7497 50.8392 62.033 47.5836 60.9538 43.9134C59.8747 40.2432 51.2531 42.7877 51.2531 42.7877C51.2531 42.7877 58.4921 40.0714 57.6316 36.1898C56.771 32.3083 49.4516 36.024 49.4516 36.024C49.4516 36.024 60.5935 30.2628 55.2823 25.2234Z" fill="#F1F2F2" stroke="#22093A" stroke-linecap="round" stroke-linejoin="round"/>
<path d="M14.6112 62.8898C11.5569 65.4423 12.2738 70.9335 14.8848 79.8255C17.0893 87.3329 21.6168 86.3302 26.3115 85.0969C31.5666 83.7164 36.7994 80.0507 35.1014 74.1273C33.3341 67.9618 25.2872 70.7809 25.2872 70.7809C25.2872 70.7809 32.9258 67.1171 30.4698 61.6966C28.069 56.398 17.7498 60.2668 14.6112 62.8898Z" fill="#F1F2F2" stroke="#22093A" stroke-linecap="round" stroke-linejoin="round"/>
<path d="M19.8652 65.6257C19.8652 65.6257 22.8348 64.0295 23.0404 65.8262C23.2459 67.6229 20.6986 68.5012 20.6986 68.5012L19.8652 65.6257Z" fill="#22093A" stroke="#22093A" stroke-linecap="round" stroke-linejoin="round"/>
<path d="M22.9531 76.2712C22.9531 76.2712 26.7867 74.4143 26.9922 76.2109C27.1977 78.0076 23.7865 79.1467 23.7865 79.1467L22.9531 76.2712Z" fill="#22093A" stroke="#22093A" stroke-linecap="round" stroke-linejoin="round"/>
<path d="M50.7659 70.8038C50.0502 67.5092 46.0644 51.8517 37.8378 53.7306C33.5558 54.7087 31.6179 60.1674 31.3551 65.9948C31.0699 72.317 32.3428 81.4066 35.7837 80.9145C38.128 80.5792 39.1326 77.519 39.5153 74.1073L42.3705 73.1714C43.8117 76.2685 45.6987 78.743 47.8525 77.7448C50.3771 76.5749 51.4273 73.8496 50.7659 70.8038ZM39.7187 70.5781C39.7377 68.4453 39.6331 66.3132 39.4054 64.1924C39.8757 66.1976 40.454 68.1758 41.1379 70.1185L39.7187 70.5781Z" fill="#F1F2F2" stroke="#22093A" stroke-linecap="round" stroke-linejoin="round"/>
<path d="M62.5661 57.8098C65.0513 58.2092 66.1282 47.3236 55.1046 50.0113C40.4437 53.5858 43.0215 72.8405 53.1196 76.0211C59.9194 78.1629 74.8484 70.9188 66.9325 65.3903C63.7759 63.1857 61.4694 66.8824 58.3316 67.4875C53.333 68.4514 51.2764 63.6362 53.7442 60.2032C55.8039 57.338 57.9725 57.0715 62.5661 57.8098Z" fill="#F1F2F2" stroke="#22093A" stroke-linecap="round" stroke-linejoin="round"/>
<path d="M83.4745 37.4257C79.7127 38.7603 75.5813 36.7926 74.2468 33.0309C74.0339 32.4308 73.9012 31.8052 73.8522 31.1703C73.5967 28.0696 74.297 24.9651 75.859 22.2744C80.4919 14.4574 97.7503 6.5927 105.883 19.4158C114.286 32.6673 103.921 40.4462 102.612 41.6847C101.304 42.9233 94.8408 46.2051 95.3052 50.7482C95.3458 51.1447 95.3876 51.5023 95.4301 51.8248C95.658 53.5338 94.5125 55.1235 92.8193 55.4482C91.1039 55.7745 89.4361 54.6915 89.0363 52.9918C88.0443 49.6193 88.6529 45.9782 90.6879 43.1118C95.2166 37.319 97.1522 34.9799 96.2392 31.7235C95.7754 29.5623 93.6474 28.1864 91.4862 28.6502C91.2876 28.6928 91.0926 28.7505 90.9027 28.8227C89.5996 29.1905 88.6488 30.3104 88.4973 31.6558C88.0157 34.3585 86.085 36.5764 83.4745 37.4257Z" fill="#F1F2F2" stroke="#22093A" stroke-linecap="round" stroke-linejoin="round"/>
<path d="M95.6189 66.0243C98.0878 66.0243 100.089 64.0229 100.089 61.5539C100.089 59.085 98.0878 57.0835 95.6189 57.0835C93.1499 57.0835 91.1484 59.085 91.1484 61.5539C91.1484 64.0229 93.1499 66.0243 95.6189 66.0243Z" fill="#F1F2F2" stroke="#22093A" stroke-linecap="round" stroke-linejoin="round"/>
<path d="M96.6797 16.1807C100.09 17.0524 104.074 19.3316 105.5 26.9283C106.906 34.4234 103.345 36.2002 102.72 36.8249" stroke="white" stroke-linecap="round" stroke-linejoin="round"/>
<path d="M77.4362 25.4492C76.1153 28.1806 75.2278 33.5059 80.0841 34.5928" stroke="white" stroke-linecap="round" stroke-linejoin="round"/>
<path d="M95.6195 59.5811C93.9795 59.1418 92.9855 62.1963 94.0789 62.9952" stroke="white" stroke-linecap="round" stroke-linejoin="round"/>
<path d="M10.9062 43.9575C11.1916 46.5153 12.8282 57.0823 14.9672 58.0147" stroke="white" stroke-linecap="round" stroke-linejoin="round"/>
<path d="M26.1545 39.1937C25.2856 37.3429 26.0817 35.1382 27.9325 34.2693C28.1086 34.1866 28.2908 34.118 28.4777 34.064" stroke="white" stroke-linecap="round" stroke-linejoin="round"/>
<path d="M44.8223 41.3652C44.8268 44.2699 47.1431 48.6696 50.2669 48.388" stroke="white" stroke-linecap="round" stroke-linejoin="round"/>
<path d="M61.0934 26.5029C60.7494 30.1372 61.0768 33.8038 62.0591 37.3197" stroke="white" stroke-linecap="round" stroke-linejoin="round"/>
<path d="M15.4355 69.5654C16.2165 73.5583 17.2265 80.2745 18.752 81.2898" stroke="white" stroke-linecap="round" stroke-linejoin="round"/>
<path d="M38.1614 56.5815C37.4586 56.6092 33.5384 59.3783 33.9365 66.1938" stroke="white" stroke-linecap="round" stroke-linejoin="round"/>
<path d="M54.172 52.8604C51.8291 54.3442 47.7902 56.5684 47.5449 62.2506" stroke="white" stroke-linecap="round" stroke-linejoin="round"/>
<path d="M67.7988 52.0273C68.9315 53.6767 69.9129 55.425 70.7311 57.2509" stroke="white" stroke-linecap="round" stroke-linejoin="round"/>
<path d="M82.8848 62.9951C83.9214 63.8346 84.5777 65.0551 84.7064 66.3828" stroke="white" stroke-linecap="round" stroke-linejoin="round"/>
<path d="M59.5684 87.6415C60.3867 87.477 61.217 87.2912 62.0593 87.084" stroke="white" stroke-linecap="round" stroke-linejoin="round"/>
<path d="M35.4277 87.084C42.4139 88.8129 49.6696 89.1676 56.7911 88.1283" stroke="white" stroke-linecap="round" stroke-linejoin="round"/>
<path d="M70.7305 9.47168C71.4551 9.54624 72.1678 9.63845 72.8685 9.74832" stroke="white" stroke-linecap="round" stroke-linejoin="round"/>
<path d="M44.1445 12.7081C51.6581 10.2224 59.5445 9.05284 67.4561 9.25106" stroke="white" stroke-linecap="round" stroke-linejoin="round"/>
<path d="M41.1367 13.9269C41.4143 13.7958 41.7039 13.6657 42.0055 13.5366" stroke="white" stroke-linecap="round" stroke-linejoin="round"/>
<path d="M85.8691 79.1467C89.9242 76.9806 93.6376 74.2283 96.8894 70.9785" stroke="#22093A" stroke-linecap="round" stroke-linejoin="round"/>
<path d="M82.207 80.9339C82.6452 80.7457 83.0968 80.5415 83.5618 80.3213" stroke="#22093A" stroke-linecap="round" stroke-linejoin="round"/>
<path d="M57.9513 13.437C58.548 15.0346 60.3269 15.846 61.9246 15.2493C62.3754 15.0809 62.7807 14.8094 63.108 14.4566C64.6768 12.5518 64.2586 8.72957 61.3896 8.60671C58.5207 8.48386 56.8742 10.5722 57.9513 13.437Z" fill="#F1F2F2" stroke="#22093A" stroke-linecap="round" stroke-linejoin="round"/>
</g>
<defs>
<clipPath id="clip0_5_10991">
<rect width="120" height="103.9" fill="white"/>
</clipPath>
</defs>
</svg>
