<svg width="120" height="128" viewBox="0 0 120 128" fill="none" xmlns="http://www.w3.org/2000/svg">
<g clip-path="url(#clip0_5_11014)">
<path opacity="0.5" d="M114.171 85.3075C113.12 84.6447 111.967 84.159 110.759 83.8699C110.604 83.8296 110.461 83.8229 110.309 83.7896C110.927 81.7007 111.386 79.5681 111.682 77.41C113.14 66.8025 112.879 59.1384 107.334 52.1071C106.915 50.2257 106.033 46.2547 104.68 40.0405L115.355 28.1597C117.386 25.8962 117.198 22.4141 114.935 20.3824C114.6 20.0816 114.229 19.8231 113.831 19.6125L119.294 9.90349C120.784 7.25286 119.844 3.89609 117.193 2.40593C116.068 1.77335 114.756 1.55623 113.487 1.7925L97.0039 4.66154C95.5008 4.92216 94.1732 5.79482 93.3379 7.07135C91.6097 4.66012 89.1769 2.84356 86.3741 1.8715C85.0687 1.31665 83.6656 1.02864 82.2472 1.02445C78.405 0.917939 74.7187 2.54538 72.2087 5.4563C68.1739 10.1668 67.0512 18.026 68.7821 29.4759C65.4381 28.3365 61.8439 28.1456 58.398 28.9246C57.033 29.2318 55.6897 29.6289 54.3771 30.1133C50.1089 21.9854 44.3969 13.704 38.1459 11.702C36.8612 11.1492 35.4789 10.8591 34.0803 10.8488C29.9273 10.8185 26.0797 13.027 24.0111 16.6283C22.3798 19.5786 21.5851 22.9185 21.7128 26.2874C19.5465 24.8701 16.6805 25.1818 14.8695 27.0316L4.41178 37.5086C4.13992 37.7822 3.89983 38.0857 3.69608 38.4132L3.43028 38.679C1.98333 40.1295 1.46144 42.2635 2.07563 44.2181L7.14251 60.3356C7.91955 62.8076 10.3155 64.4028 12.8959 64.1661L17.1964 74.2284C17.5676 75.0877 18.1529 75.8375 18.8963 76.4062C17.3584 75.7407 15.6572 75.548 14.0094 75.8526C9.62545 76.6156 6.04661 79.7858 4.76035 84.0457C2.45499 90.9733 4.97998 99.9713 8.96866 105.777C8.25602 109.302 7.75993 114.734 9.86255 118.534C10.7304 120.148 12.0996 121.436 13.7637 122.204C15.6789 123.718 19.2268 125.207 24.5731 122.494C26.5733 121.437 28.3342 119.979 29.746 118.211C30.2611 118.596 30.8096 118.933 31.3848 119.22C32.4026 120.012 33.5581 120.609 34.7929 120.981C38.6343 122.208 42.6861 122.636 46.6991 122.238C47.5097 122.783 48.4176 123.165 49.373 123.366C52.3939 124.023 55.5433 123.131 57.7712 120.988C58.5652 121.935 59.5649 122.689 60.6941 123.192C62.3559 124.507 64.4594 125.135 66.5704 124.944C67.4776 124.869 68.3736 124.692 69.2413 124.417C69.5969 124.655 69.9684 124.868 70.3533 125.055C72.0089 126.351 74.0461 127.063 76.1481 127.08C78.5122 127.155 80.7703 126.098 82.2271 124.235C82.8385 124.735 83.5135 125.152 84.2346 125.474C85.8462 126.695 87.8065 127.367 89.8282 127.393C89.8989 127.394 89.9665 127.395 90.034 127.395C92.3971 127.439 94.6351 126.336 96.0398 124.435C100.64 127.278 106.674 125.853 109.517 121.253C109.736 120.898 109.933 120.53 110.105 120.15C111.006 118.184 111.229 115.975 110.738 113.868C113.818 111.49 116.072 108.205 117.184 104.476C118.652 100.389 122.506 89.6557 114.171 85.3075Z" fill="#231F20"/>
<path d="M112.348 84.2831C111.297 83.6202 110.145 83.1346 108.937 82.8455C108.782 82.8052 108.639 82.7984 108.486 82.7651C109.104 80.6763 109.563 78.5437 109.86 76.3856C111.318 65.778 111.056 58.1139 105.512 51.0827C105.093 49.2012 104.211 45.2302 102.858 39.016L113.532 27.1352C115.564 24.8717 115.376 21.3897 113.113 19.3579C112.777 19.0571 112.407 18.7986 112.009 18.588L117.472 8.87897C118.962 6.22834 118.021 2.87157 115.371 1.38141C114.245 0.748832 112.934 0.531708 111.665 0.767977L95.1816 3.637C93.6784 3.8976 92.3508 4.77026 91.5154 6.04681C89.7872 3.63565 87.3545 1.81912 84.5517 0.84707C83.2464 0.292227 81.8432 0.00422769 80.4248 3.79053e-05C76.5826 -0.106479 72.8964 1.52094 70.3863 4.43182C66.3515 9.14237 65.2288 17.0015 66.9597 28.4515C63.6158 27.312 60.0215 27.1211 56.5757 27.9001C55.2106 28.2073 53.8674 28.6045 52.5547 29.0889C48.2865 20.9609 42.5746 12.6795 36.3235 10.6775C35.0388 10.1247 33.6565 9.83461 32.258 9.8243C28.1049 9.79404 24.2573 12.0025 22.1888 15.6038C20.5574 18.5542 19.7627 21.894 19.8904 25.2629C17.7242 23.8456 14.8582 24.1573 13.0472 26.0071L2.58944 36.4841C2.31757 36.7578 2.07748 37.0612 1.87372 37.3888L1.60802 37.6545C0.161065 39.105 -0.360823 41.239 0.253367 43.1937L5.32024 59.3111C6.09725 61.7831 8.49325 63.3783 11.0736 63.1416L15.3741 73.204C15.7453 74.0632 16.3306 74.813 17.074 75.3818C15.5361 74.7163 13.835 74.5236 12.1871 74.8281C7.80316 75.5911 4.22434 78.7614 2.93809 83.0213C0.632729 89.9489 3.15772 98.9469 7.1464 104.753C6.43376 108.277 5.93767 113.71 8.04028 117.51C8.9081 119.124 10.2773 120.412 11.9414 121.18C13.8567 122.693 17.4045 124.183 22.751 121.47C24.7511 120.413 26.512 118.955 27.9238 117.187C28.4389 117.571 28.9874 117.909 29.5626 118.195C30.5804 118.987 31.7359 119.584 32.9707 119.956C36.8121 121.183 40.8639 121.611 44.8769 121.214C45.6875 121.758 46.5954 122.141 47.5509 122.341C50.5717 122.998 53.7212 122.106 55.949 119.963C56.743 120.911 57.7426 121.664 58.8718 122.167C60.5335 123.483 62.6371 124.11 64.7481 123.92C65.6553 123.844 66.5512 123.668 67.419 123.393C67.7746 123.631 68.1461 123.844 68.5309 124.031C70.1865 125.326 72.2237 126.038 74.3258 126.056C76.6898 126.131 78.948 125.074 80.4048 123.211C81.0162 123.711 81.6912 124.127 82.4122 124.449C84.0239 125.67 85.9842 126.343 88.0059 126.368C88.0765 126.37 88.1441 126.371 88.2117 126.371C90.5748 126.415 92.8128 125.312 94.2175 123.411C98.818 126.254 104.852 124.829 107.695 120.228C107.914 119.873 108.11 119.505 108.282 119.125C109.183 117.159 109.406 114.95 108.916 112.844C111.995 110.466 114.25 107.18 115.361 103.452C116.83 99.3646 120.683 88.6311 112.348 84.2831Z" fill="white"/>
<path d="M6.48633 40.3736L16.9451 29.896L18.8119 50.1718L23.5349 45.1893L20.4366 71.0405L14.4098 53.4761L11.5537 56.4911L6.48633 40.3736Z" fill="#22093A" stroke="#22093A" stroke-linecap="round" stroke-linejoin="round"/>
<path d="M100.431 53.5804C100.431 53.5804 98.8619 46.6371 95.6436 31.7148C92.4449 16.8844 87.4106 5.85645 81.4171 5.85645C72.6136 5.85645 71.6149 16.504 73.4421 28.2924C75.2694 40.0809 76.2266 41.6019 76.2266 41.6019C76.2266 41.6019 69.0674 31.3016 58.779 33.6212C55.7723 34.2379 52.9229 35.4609 50.4046 37.2155C50.4046 37.2155 40.8549 15.6801 33.2495 15.6801C25.6441 15.6801 24.209 27.4052 29.6369 37.4824C35.0648 47.5594 37.4324 50.0947 37.4324 50.0947C37.4324 50.0947 26.7116 77.0629 37.3837 91.9657C46.7491 105.044 61.7764 107.51 76.2266 105.044C91.0287 102.437 102.433 90.5359 104.407 75.6361C105.881 64.9093 105.248 59.0608 100.431 53.5804Z" fill="#22093A" stroke="#22093A" stroke-linecap="round" stroke-linejoin="round"/>
<path d="M99.4388 53.2288C104.256 58.7092 104.889 64.5576 103.415 75.2845C101.441 90.1843 90.0365 102.085 75.2344 104.692C60.7841 107.158 45.7568 104.692 36.3915 91.614C25.7194 76.7111 36.4402 49.743 36.4402 49.743C36.4402 49.743 34.0726 47.2079 28.6447 37.1307C23.2168 27.0535 24.6519 15.3285 32.2572 15.3285C39.8626 15.3285 49.4124 36.8639 49.4124 36.8639C51.9306 35.1093 54.7801 33.8863 57.7868 33.2696C68.0751 30.9499 75.2344 41.2503 75.2344 41.2503C75.2344 41.2503 74.2771 39.7292 72.4499 27.9408C70.6227 16.1525 71.6214 5.50487 80.4248 5.50488C86.4184 5.50488 91.4527 16.5327 94.6513 31.3633C97.8697 46.2855 99.4388 53.2288 99.4388 53.2288Z" fill="#FCC707" stroke="#22093A" stroke-linecap="round" stroke-linejoin="round"/>
<path d="M49.4132 36.8638C44.0102 41.1416 42.0541 47.9854 44.9971 56.3513C49.2975 68.5755 55.3671 69.1494 57.7876 67.679C60.1105 66.2678 63.8923 58.7427 61.4986 47.9049" fill="#FCC707"/>
<path d="M49.4132 36.8638C44.0102 41.1416 42.0541 47.9854 44.9971 56.3513C49.2975 68.5755 55.3671 69.1494 57.7876 67.679C60.1105 66.2678 63.8923 58.7427 61.4986 47.9049" stroke="#22093A" stroke-linecap="round" stroke-linejoin="round"/>
<path d="M99.439 53.2285C92.3402 49.6159 82.9712 51.1371 75.2345 53.2285C72.5329 53.9589 65.7402 57.2921 65.7402 61.7286C65.7404 72.7472 84.2005 72.7562 84.2005 72.7562C73.5529 74.2759 71.2809 85.7334 71.2809 85.7334" fill="#FCC707"/>
<path d="M99.439 53.2285C92.3402 49.6159 82.9712 51.1371 75.2345 53.2285C72.5329 53.9589 65.7402 57.2921 65.7402 61.7286C65.7404 72.7472 84.2005 72.7562 84.2005 72.7562C73.5529 74.2759 71.2809 85.7334 71.2809 85.7334" stroke="#22093A" stroke-linecap="round" stroke-linejoin="round"/>
<path d="M75.2344 41.25C76.4475 42.6821 77.4167 44.3041 78.1031 46.0509" stroke="#22093A" stroke-linecap="round" stroke-linejoin="round"/>
<path d="M5.50391 41.5421L15.9626 31.0645L17.8295 51.3418L22.5524 46.3578L20.4355 71.0404L13.4274 54.6461L10.5713 57.6595L5.50391 41.5421Z" fill="#FD32B0" stroke="#22093A" stroke-linecap="round" stroke-linejoin="round"/>
<path d="M97.2506 9.06046L112.673 6.1792L101.97 25.2047L109.438 23.4558L90.9817 43.9989L96.0931 25.3761L90.6152 26.2458L97.2506 9.06046Z" fill="#22093A" stroke="#22093A" stroke-linecap="round" stroke-linejoin="round"/>
<path d="M96.123 9.06015L111.701 6.36133L100.841 25.2044L108.032 23.7637L90.9817 43.9986L94.9654 25.3758L90.6152 26.2455L96.123 9.06015Z" fill="#FD32B0" stroke="#22093A" stroke-linecap="round" stroke-linejoin="round"/>
<path d="M9.26562 43.0947L10.3768 47.1261" stroke="white" stroke-linecap="round" stroke-linejoin="round"/>
<path d="M97.3623 16.2812C96.4671 19.2991 95.8496 21.5043 95.8496 21.5043" stroke="white" stroke-linecap="round" stroke-linejoin="round"/>
<path d="M98.6289 12.0977C98.3624 12.9587 98.4889 12.5458 98.2441 13.358" stroke="white" stroke-linecap="round" stroke-linejoin="round"/>
<path d="M96.5217 31.4482L96.334 32.8816" stroke="white" stroke-linecap="round" stroke-linejoin="round"/>
<path d="M18.2598 59.4067L18.7077 61.2809" stroke="white" stroke-linecap="round" stroke-linejoin="round"/>
<path d="M30.2053 22.1675C28.6511 24.192 28.5615 29.7464 33.0408 37.2717" stroke="white" stroke-linecap="round" stroke-linejoin="round"/>
<path d="M35.8379 67.813C35.2384 72.3055 35.5673 76.8733 36.804 81.2337" stroke="white" stroke-linecap="round" stroke-linejoin="round"/>
<path d="M36.8037 62.0723C36.6173 62.8937 36.4536 63.7024 36.3125 64.4984" stroke="white" stroke-linecap="round" stroke-linejoin="round"/>
<path d="M47.3789 53.2383C47.5576 54.0173 47.7959 54.7814 48.0919 55.5238" stroke="white" stroke-linecap="round" stroke-linejoin="round"/>
<path d="M51.8821 38.9736C49.0782 41.0341 46.7588 43.453 46.7539 47.9323" stroke="white" stroke-linecap="round" stroke-linejoin="round"/>
<path d="M75.2353 13.9033C74.5388 17.5682 74.5388 21.3315 75.2353 24.9964" stroke="white" stroke-linecap="round" stroke-linejoin="round"/>
<path d="M90.3647 89.1948C87.0027 88.8768 84.692 92.6422 83.6166 101.415C82.6564 101.263 81.6171 101.157 80.5269 101.076C81.3122 93.4266 80.4995 89.243 76.6855 88.8824C73.0226 88.5358 70.6034 93.0182 69.675 103.563C68.7465 114.108 69.598 120.447 74.4462 120.553C76.8193 120.605 78.1363 116.416 79.1514 110.707C79.6912 110.742 80.2554 110.759 80.8664 110.744C81.6422 110.725 82.3537 110.67 83.0281 110.594C83.0539 117.052 84.4198 120.785 88.1253 120.865C91.3131 120.935 92.596 113.36 93.7996 104.716C95.1597 94.9497 94.7002 89.6048 90.3647 89.1948Z" fill="#22093A" stroke="#22093A" stroke-linecap="round" stroke-linejoin="round"/>
<path d="M64.2934 118.433C67.7755 118.144 70.1913 115.385 70.7272 111.508C71.3068 107.314 73.3717 87.1309 62.8602 85.7921C57.3889 85.0953 52.7459 90.6944 49.9183 97.4516C46.8506 104.783 44.4244 116.05 48.694 116.956C55.5527 118.412 60.1888 98.8046 60.1888 98.8046C60.1888 98.8046 57.5091 118.996 64.2934 118.433Z" fill="#22093A" stroke="#22093A" stroke-linecap="round" stroke-linejoin="round"/>
<path d="M52.0987 88.5968C50.7645 85.694 38.0527 84.152 34.124 91.0148C31.5604 95.4929 26.5539 112.289 34.5503 114.683C42.5467 117.076 49.7055 115.837 50.1297 111.378C50.5539 106.92 40.0763 105.933 40.0763 105.933C40.0763 105.933 49.126 106.131 49.8799 101.538C50.6337 96.9449 41.0616 97.7982 41.0616 97.7982C41.0616 97.7982 55.6784 96.3852 52.0987 88.5968Z" fill="#22093A" stroke="#22093A" stroke-linecap="round" stroke-linejoin="round"/>
<path d="M30.7634 83.1996C23.7756 82.7367 21.7719 98.9116 21.7719 98.9116C21.7719 98.9116 21.4844 80.1062 14.8412 81.2873C6.13981 82.8343 8.79247 98.0587 14.8385 104.52C13.8763 106.96 11.1987 121.156 20.2624 116.56C25.1931 114.06 31.6597 101.806 32.8734 98.8209C35.2602 92.9516 37.7973 83.6656 30.7634 83.1996Z" fill="#22093A" stroke="#22093A" stroke-linecap="round" stroke-linejoin="round"/>
<path d="M108.235 88.5747C105.837 87.9518 103.58 89.0625 99.655 98.8577C96.1504 107.603 99.6049 108.908 100.524 109.147C101.443 109.385 106.713 111.25 110.181 101.591C113.649 91.9333 111.789 89.4977 108.235 88.5747Z" fill="#22093A" stroke="#22093A" stroke-linecap="round" stroke-linejoin="round"/>
<path d="M99.3239 119.379C101.723 119.379 103.667 117.435 103.667 115.036C103.667 112.637 101.723 110.692 99.3239 110.692C96.9251 110.692 94.9805 112.637 94.9805 115.036C94.9805 117.435 96.9251 119.379 99.3239 119.379Z" fill="#22093A" stroke="#22093A" stroke-linecap="round" stroke-linejoin="round"/>
<path d="M88.6772 88.1553C85.3152 87.8372 83.0045 91.6026 81.9291 100.376C80.9689 100.223 79.9296 100.117 78.8393 100.037C79.6247 92.387 78.812 88.2035 74.998 87.8428C71.3351 87.4962 68.9159 91.9787 67.9875 102.524C67.059 113.068 67.9104 119.408 72.7587 119.513C75.1318 119.565 76.4488 115.377 77.4639 109.668C78.0038 109.702 78.5679 109.72 79.179 109.704C79.9547 109.685 80.6662 109.631 81.3406 109.554C81.3663 116.013 82.7323 119.745 86.4378 119.826C89.6256 119.895 90.9085 112.32 92.1121 103.677C93.4722 93.9101 93.0127 88.5653 88.6772 88.1553Z" fill="#9736FF" stroke="#22093A" stroke-linecap="round" stroke-linejoin="round"/>
<path d="M61.1726 84.7526C55.7014 84.0559 51.0583 89.6547 48.2307 96.412C45.1631 103.743 42.7369 115.011 47.0065 115.917C50.1911 116.593 52.8953 112.727 54.8799 108.392L58.0902 109.24C58.4135 113.675 59.545 117.647 62.6059 117.394C66.088 117.105 68.5038 114.345 69.0397 110.468C69.6193 106.275 71.6842 86.0913 61.1726 84.7526ZM58.5012 97.765C58.5012 97.765 58.0912 100.87 57.999 104.608L56.5185 104.324C57.7906 100.762 58.5012 97.765 58.5012 97.765Z" fill="#9736FF" stroke="#22093A" stroke-linecap="round" stroke-linejoin="round"/>
<path d="M50.4092 87.5572C49.0751 84.6544 36.3633 83.1124 32.4345 89.9753C29.871 94.4534 24.8645 111.25 32.8609 113.643C40.8572 116.036 48.016 114.797 48.4402 110.339C48.8645 105.88 38.3868 104.894 38.3868 104.894C38.3868 104.894 47.4366 105.092 48.1904 100.499C48.9442 95.9054 39.3722 96.7587 39.3722 96.7587C39.3722 96.7587 53.9889 95.3456 50.4092 87.5572Z" fill="#9736FF" stroke="#22093A" stroke-linecap="round" stroke-linejoin="round"/>
<path d="M29.074 82.1601C22.0862 81.6972 20.0824 97.872 20.0824 97.872C20.0824 97.872 19.795 79.0666 13.1518 80.2477C4.4504 81.7948 7.10295 97.0192 13.149 103.48C12.1868 105.92 9.50923 120.117 18.573 115.521C23.5037 113.02 29.9702 100.766 31.184 97.7813C33.5707 91.9121 36.1078 82.6261 29.074 82.1601Z" fill="#9736FF" stroke="#22093A" stroke-linecap="round" stroke-linejoin="round"/>
<path d="M107.554 88.1736C105.156 87.5506 101.893 88.023 97.9675 97.8182C94.4629 106.564 97.9174 107.869 98.8362 108.107C99.755 108.346 105.026 110.21 108.494 100.552C111.961 90.8939 111.108 89.0965 107.554 88.1736Z" fill="#9736FF" stroke="#22093A" stroke-linecap="round" stroke-linejoin="round"/>
<path d="M97.6364 118.34C100.035 118.34 101.98 116.395 101.98 113.996C101.98 111.597 100.035 109.653 97.6364 109.653C95.2376 109.653 93.293 111.597 93.293 113.996C93.293 116.395 95.2376 118.34 97.6364 118.34Z" fill="#9736FF" stroke="#22093A" stroke-linecap="round" stroke-linejoin="round"/>
<path d="M12.9451 83.3193C11.2728 84.036 9.54085 86.8431 11.0937 93.353" stroke="#D9BBFF" stroke-linecap="round" stroke-linejoin="round"/>
<path d="M15.0098 112.622C15.2735 113.996 17.8417 113.122 19.7529 110.792" stroke="#D9BBFF" stroke-linecap="round" stroke-linejoin="round"/>
<path d="M45.082 88.2261C46.647 88.2998 47.9333 88.8192 47.7364 90.5459" stroke="#D9BBFF" stroke-linecap="round" stroke-linejoin="round"/>
<path d="M40.8359 88.575C41.4174 88.3887 42.0188 88.2716 42.6277 88.2261" stroke="#D9BBFF" stroke-linecap="round" stroke-linejoin="round"/>
<path d="M61.3508 87.8242C59.798 87.4999 56.9611 87.4999 54.0645 92.5168" stroke="#D9BBFF" stroke-linecap="round" stroke-linejoin="round"/>
<path d="M74.6699 90.5459C75.5957 90.6952 76.5811 91.8001 76.3721 96.3392" stroke="#D9BBFF" stroke-linecap="round" stroke-linejoin="round"/>
<path d="M88.6152 90.8442C89.5708 90.9935 90.4368 91.7998 90.1084 94.6965" stroke="#D9BBFF" stroke-linecap="round" stroke-linejoin="round"/>
<path d="M99.2557 102.905C99.1024 103.548 99.009 104.204 98.9766 104.865" stroke="#D9BBFF" stroke-linecap="round" stroke-linejoin="round"/>
<path d="M106.746 90.6947C105.7 90.6051 103.977 90.4073 101.49 96.2192C100.933 97.5205 100.499 98.6698 100.162 99.6704" stroke="#D9BBFF" stroke-linecap="round" stroke-linejoin="round"/>
<path d="M97.3318 112.121C96.3057 112.343 95.6536 113.354 95.8753 114.38C95.9349 114.656 96.0554 114.916 96.228 115.14" stroke="#D9BBFF" stroke-linecap="round" stroke-linejoin="round"/>
<path d="M98.125 74.5259C97.4603 78.5581 96.1901 82.4667 94.3574 86.1193L98.125 74.5259Z" fill="#FCC707"/>
<path d="M98.125 74.5259C97.4603 78.5581 96.1901 82.4667 94.3574 86.1193" stroke="#22093A" stroke-linecap="round" stroke-linejoin="round"/>
<path d="M98.8555 68.2524C98.8346 69.3575 98.7492 70.4604 98.5996 71.5555L98.8555 68.2524Z" fill="#FCC707"/>
<path d="M98.8555 68.2524C98.8346 69.3575 98.7492 70.4604 98.5996 71.5555" stroke="#22093A" stroke-linecap="round" stroke-linejoin="round"/>
</g>
<defs>
<clipPath id="clip0_5_11014">
<rect width="120" height="127.395" fill="white"/>
</clipPath>
</defs>
</svg>
