<svg width="120" height="120" viewBox="0 0 120 120" fill="none" xmlns="http://www.w3.org/2000/svg">
<path d="M91.2222 58.5391L89.0968 62.5441L85.7773 63.9817L89.7321 66.0402L91.2222 69.4265L92.9429 65.7616L96.6655 63.9817L92.9429 62.1994L91.2222 58.5391Z" fill="#FCC707"/>
<path d="M91.2212 76.3315C90.8301 76.3315 90.5034 76.0298 90.4741 75.6401C89.7065 65.8023 89.4004 65.4961 79.5625 64.7285C79.1729 64.6992 78.8711 64.3726 78.8711 63.9815C78.8711 63.5903 79.1729 63.2637 79.5625 63.2344C89.4004 62.4683 89.7065 62.1621 90.4741 52.3242C90.5034 51.9338 90.8301 51.6328 91.2212 51.6328C91.6123 51.6328 91.939 51.9338 91.9683 52.325C92.7344 62.1621 93.0405 62.4683 102.878 63.2344C103.268 63.2637 103.57 63.5903 103.57 63.9815C103.57 64.3726 103.268 64.6992 102.878 64.7285C93.0405 65.4961 92.7344 65.8023 91.9683 75.6401C91.939 76.0298 91.6123 76.3315 91.2212 76.3315ZM85.7764 63.9815C89.106 64.7183 90.4844 66.0967 91.2212 69.4263C91.9565 66.0952 93.3335 64.7183 96.6646 63.9815C93.335 63.2461 91.9565 61.8677 91.2212 58.5388C90.4844 61.8691 89.1074 63.2461 85.7764 63.9815Z" fill="#22093A"/>
<path d="M23.6542 51.6973L20.1523 55.1992L23.6542 58.7011L27.1561 55.1992L23.6542 51.6973Z" fill="#FCC707"/>
<path d="M23.6541 64.8413C23.2622 64.8413 22.937 64.5396 22.9063 64.1499C22.3306 56.7532 22.1006 56.5232 14.7031 55.9468C14.3127 55.916 14.0117 55.5908 14.0117 55.199C14.0117 54.8071 14.3127 54.4819 14.7039 54.4512C22.1006 53.8755 22.3306 53.6455 22.9063 46.2488C22.937 45.8577 23.2622 45.5566 23.6541 45.5566C24.0459 45.5566 24.3711 45.8577 24.4019 46.248C24.9783 53.6455 25.2083 53.8755 32.605 54.4512C32.9961 54.4819 33.2971 54.8071 33.2971 55.199C33.2971 55.5908 32.9961 55.916 32.6057 55.9468C25.2083 56.5232 24.9783 56.7532 24.4019 64.1499C24.3711 64.5396 24.0459 64.8413 23.6541 64.8413ZM20.1523 55.199C22.113 55.7644 23.0894 56.7407 23.6541 58.7007C24.2195 56.7407 25.1958 55.7644 27.1565 55.199C25.1958 54.6343 24.2195 53.658 23.6541 51.6973C23.0894 53.658 22.113 54.6343 20.1523 55.199Z" fill="#22093A"/>
<path d="M30.2542 82.5818C34.6471 83.1742 34.9001 87.7998 33.1254 96.1305C31.5547 103.504 29.9461 109.952 26.7069 109.717C21.7803 109.358 21.1685 103.855 22.5356 94.8303C23.9027 85.8058 26.5429 82.0814 30.2542 82.5818Z" fill="#22093A" stroke="#22093A" stroke-miterlimit="10" stroke-linecap="round" stroke-linejoin="round"/>
<path d="M36.2775 76.9448C36.4371 74.7784 34.7223 72.8863 32.4473 72.7187C30.1723 72.5511 28.1987 74.1714 28.039 76.3377C27.8794 78.5041 29.5942 80.3961 31.8692 80.5638C34.1442 80.7314 36.1179 79.1111 36.2775 76.9448Z" fill="#22093A" stroke="#22093A" stroke-miterlimit="10" stroke-linecap="round" stroke-linejoin="round"/>
<path d="M42.297 85.2331C35.4781 84.2687 33.459 102.242 34.503 109.98C35.0004 113.666 49.3608 116.074 53.6918 109.486C58.1331 102.73 59.1885 87.6222 42.297 85.2331Z" fill="#22093A" stroke="#22093A" stroke-miterlimit="10" stroke-linecap="round" stroke-linejoin="round"/>
<path d="M44.4497 96.6694C42.8205 96.439 41.9772 101.417 42.5876 102.582C42.9937 103.357 45.5502 103.706 46.6288 102.603C47.7074 101.501 48.4855 97.2402 44.4497 96.6694Z" fill="#22093A" stroke="#22093A" stroke-miterlimit="10" stroke-linecap="round" stroke-linejoin="round"/>
<path d="M73.3297 87.5768C71.5434 85.2292 59.5681 86.3412 57.2847 93.2836C55.7948 97.8136 54.4401 113.899 62.2481 114.479C70.0561 115.059 76.3931 112.538 75.9215 108.446C75.45 104.354 65.6344 105.526 65.6344 105.526C65.6344 105.526 73.986 103.926 73.7913 99.648C73.5965 95.3703 64.9682 98.0188 64.9682 98.0188C64.9682 98.0188 78.1226 93.8755 73.3297 87.5768Z" fill="#22093A" stroke="#22093A" stroke-miterlimit="10" stroke-linecap="round" stroke-linejoin="round"/>
<path d="M81.8488 81.8519C77.2221 82.9349 75.1575 88.8518 74.9072 95.1575C74.6356 101.999 76.0656 111.825 79.7852 111.272C82.5121 110.867 83.5433 107.059 83.8613 103.039L86.7673 102.641C88.3571 106.082 90.4496 108.889 92.8232 107.773C95.5476 106.492 96.668 103.538 95.9345 100.247C95.1412 96.6868 90.7378 79.7713 81.8488 81.8519ZM83.9783 99.0928C83.9362 95.8162 83.6058 93.1608 83.6058 93.1608C83.6058 93.1608 84.214 95.8148 85.273 98.8784L83.9783 99.0928Z" fill="#22093A" stroke="#22093A" stroke-miterlimit="10" stroke-linecap="round" stroke-linejoin="round"/>
<path d="M28.9378 81.034C33.3307 81.6263 33.5837 86.252 31.809 94.5826C30.2383 101.956 28.6297 108.405 25.3905 108.169C20.4639 107.81 19.8521 102.307 21.2192 93.2825C22.5863 84.2579 25.2265 80.5335 28.9378 81.034Z" fill="#9736FF" stroke="#22093A" stroke-miterlimit="10" stroke-linecap="round" stroke-linejoin="round"/>
<path d="M34.9611 75.3969C35.1207 73.2306 33.4059 71.3385 31.1309 71.1709C28.8559 71.0032 26.8823 72.6235 26.7226 74.7899C26.563 76.9562 28.2778 78.8483 30.5528 79.0159C32.8278 79.1836 34.8015 77.5633 34.9611 75.3969Z" fill="#9736FF" stroke="#22093A" stroke-miterlimit="10" stroke-linecap="round" stroke-linejoin="round"/>
<path d="M40.9786 83.6853C34.1597 82.7209 32.1406 100.695 33.1846 108.432C33.682 112.118 48.0424 114.526 52.3735 107.938C56.8148 101.182 57.8702 86.0744 40.9786 83.6853Z" fill="#9736FF" stroke="#22093A" stroke-miterlimit="10" stroke-linecap="round" stroke-linejoin="round"/>
<path d="M43.1314 95.1215C41.5022 94.8911 40.6588 99.8687 41.2692 101.034C41.6753 101.809 44.2318 102.158 45.3105 101.055C46.3891 99.9527 47.1671 95.6923 43.1314 95.1215Z" fill="#22093A" stroke="#22093A" stroke-miterlimit="10" stroke-linecap="round" stroke-linejoin="round"/>
<path d="M72.0114 86.0289C70.225 83.6813 58.2497 84.7934 55.9664 91.7358C54.4764 96.2658 53.1217 112.351 60.9298 112.931C68.7378 113.511 75.0747 110.99 74.6032 106.898C74.1317 102.806 64.316 103.979 64.316 103.979C64.316 103.979 72.6677 102.378 72.4729 98.1002C72.2781 93.8224 63.6498 96.471 63.6498 96.471C63.6498 96.471 76.8042 92.3277 72.0114 86.0289Z" fill="#9736FF" stroke="#22093A" stroke-miterlimit="10" stroke-linecap="round" stroke-linejoin="round"/>
<path d="M80.5304 80.3041C75.9038 81.3871 73.8392 87.3039 73.5889 93.6097C73.3172 100.451 74.7473 110.277 78.4669 109.725C81.1937 109.32 82.225 105.511 82.543 101.491L85.449 101.093C87.0388 104.534 89.1312 107.341 91.5048 106.225C94.2293 104.945 95.3496 101.99 94.6162 98.699C93.8228 95.1389 89.4194 78.2234 80.5304 80.3041ZM82.66 97.545C82.6178 94.2683 82.2875 91.6129 82.2875 91.6129C82.2875 91.6129 82.8957 94.267 83.9546 97.3305L82.66 97.545Z" fill="#9736FF" stroke="#22093A" stroke-miterlimit="10" stroke-linecap="round" stroke-linejoin="round"/>
<path d="M102.636 14.3431C94.0259 11.1264 90.0755 11.9445 89.1297 14.609C88.2581 11.3704 86.5242 8.79508 83.3031 8.2161C78.5802 7.36722 74.2966 12.0257 71.5392 17.7714C70.1236 20.721 68.8026 24.4364 68.1828 27.6428C65.4349 26.0004 60.6773 25.8016 60.6773 25.8016C60.6773 25.8016 68.885 25.5003 69.3124 21.0184C69.7398 16.5364 61.1176 17.8827 61.1176 17.8827C61.1176 17.8827 74.2778 15.7206 70.6026 8.38538C69.2328 5.65143 57.6338 4.85273 54.4569 11.7019C53.2567 14.2894 51.5487 20.9112 51.751 26.3951C49.9249 24.2137 47.8476 22.5241 47.8476 22.5241C53.2076 21.9035 59.126 3.36967 37.6497 9.79099C33.6133 10.9979 32.1538 13.0737 31.7697 16.5291C30.8125 14.4637 27.5189 12.9551 20.1606 14.5791C5.02939 17.9185 7.62583 39.2462 20.2562 41.3644C25.4888 42.242 32.5563 40.351 33.874 35.3682C34.6863 37.126 35.82 38.0706 37.4587 37.825C41.4128 37.2323 41.7457 25.8914 41.7457 25.8914C41.7457 25.8914 47.7069 37.2653 52.4871 34.7668C53.2368 34.3749 53.7373 33.9028 54.0497 33.3781C54.6242 33.9343 55.3167 34.3472 56.1588 34.5617C61.3058 35.8727 65.9773 35.4908 68.3814 33.6703C68.6689 34.1617 69.0612 34.519 69.6076 34.6646C72.2977 35.3813 74.7789 32.2637 76.6837 28.6643L79.5373 29.4587C79.6329 33.2859 80.4489 36.7255 83.0961 36.6419C86.1348 36.5459 88.3566 34.2556 88.9947 30.9107C89.3363 29.1201 90.1662 23.9437 89.8198 18.973C91.4715 21.2669 94.7478 22.0047 94.7478 22.0047C94.7478 22.0047 85.1837 36.7814 91.5202 39.305C99.4202 42.4513 101.432 23.8468 101.432 23.8468C101.432 23.8468 110.596 27.6398 111.643 23.604C112.523 20.2129 109.032 16.7325 102.636 14.3431ZM79.6588 25.3722L78.3727 25.0525C79.6459 21.9979 80.403 19.4039 80.403 19.4039C80.403 19.4039 79.904 22.1079 79.6588 25.3722Z" fill="#22093A" stroke="#22093A" stroke-miterlimit="10" stroke-linecap="round" stroke-linejoin="round"/>
<path d="M36.1007 8.84339C29.7401 10.7452 29.7683 14.7915 30.3415 23.022C30.9117 31.209 31.9555 37.4701 35.9096 36.8773C39.8637 36.2846 40.1966 24.9438 40.1966 24.9438C40.1966 24.9438 46.1578 36.3177 50.938 33.8192C57.2804 30.5041 46.2984 21.5765 46.2984 21.5765C51.6586 20.9559 57.5769 2.42202 36.1007 8.84339Z" fill="#9736FF" stroke="#22093A" stroke-miterlimit="10" stroke-linecap="round" stroke-linejoin="round"/>
<path d="M38.2969 13.7155C38.2969 13.7155 41.9531 12.478 41.8435 14.5455C41.734 16.613 38.6911 17.1204 38.6911 17.1204L38.2969 13.7155Z" fill="#22093A" stroke="#22093A" stroke-miterlimit="10" stroke-linecap="round" stroke-linejoin="round"/>
<path d="M69.0539 7.43761C67.6841 4.70368 56.085 3.90497 52.9082 10.7542C50.8353 15.2234 47.2345 31.7352 54.6101 33.6139C61.9856 35.4926 68.4007 33.9046 68.537 29.5709C68.6734 25.2371 59.1287 24.8539 59.1287 24.8539C59.1287 24.8539 67.3363 24.5525 67.7637 20.0706C68.1911 15.5887 59.5689 16.9349 59.5689 16.9349C59.5689 16.9349 72.729 14.7728 69.0539 7.43761Z" fill="#9736FF" stroke="#22093A" stroke-miterlimit="10" stroke-linecap="round" stroke-linejoin="round"/>
<path d="M81.7537 7.26823C77.0308 6.41932 72.7472 11.0778 69.9897 16.8234C66.998 23.0571 64.3885 32.7393 68.0581 33.7167C70.7483 34.4333 73.2295 31.3159 75.1342 27.7164L77.9879 28.5108C78.0835 32.338 78.8994 35.7776 81.5467 35.694C84.5853 35.598 86.8071 33.3078 87.4453 29.9628C88.1356 26.3446 90.8278 8.89925 81.7537 7.26823ZM76.8232 24.1046C78.0964 21.05 78.8536 18.456 78.8536 18.456C78.8536 18.456 78.3545 21.1601 78.1093 24.4243L76.8232 24.1046Z" fill="#9736FF" stroke="#22093A" stroke-miterlimit="10" stroke-linecap="round" stroke-linejoin="round"/>
<path d="M101.087 13.3952C91.5433 9.82985 87.7113 11.2131 87.3661 14.5833C86.8473 19.6475 93.198 21.0567 93.198 21.0567C93.198 21.0567 83.6339 35.8334 89.9704 38.3571C97.8704 41.5034 99.8819 22.8989 99.8819 22.8989C99.8819 22.8989 109.047 26.6919 110.094 22.6561C110.973 19.2649 107.482 15.7846 101.087 13.3952Z" fill="#9736FF" stroke="#22093A" stroke-miterlimit="10" stroke-linecap="round" stroke-linejoin="round"/>
<path d="M26.887 21.0035C31.4842 21.0931 34.4088 10.1451 18.6117 13.6315C3.48056 16.9709 6.077 38.2985 18.7074 40.4168C25.927 41.6276 36.6496 37.573 30.9258 27.3895C28.1186 22.3951 22.2793 23.9089 21.3267 27.4047C20.3741 30.9006 25.0285 33.2998 25.0285 33.2998C19.8806 34.2327 15.4855 28.5873 18.0529 24.1748C19.651 21.4282 22.1105 20.9104 26.887 21.0035Z" fill="#9736FF" stroke="#22093A" stroke-miterlimit="10" stroke-linecap="round" stroke-linejoin="round"/>
<path d="M67.0824 81.378C67.4966 80.0762 67.7268 78.7655 67.8475 77.613C67.886 77.6039 67.9073 77.5986 67.9073 77.5986L67.8497 77.5946C68.0675 75.4994 67.9345 73.936 67.9345 73.936C67.9345 73.936 67.9014 73.9461 67.853 73.9606C69.4618 64.6991 76.9608 65.4444 79.34 57.2319C82.3381 46.9378 80.1677 29.195 59.1855 28.8411C48.9532 28.6925 37.9849 35.944 37.6379 50.7179C37.3041 63.3237 48.8873 66.1638 48.5502 71.2885C48.5109 71.9402 48.4598 72.5568 48.4048 73.152C48.3691 73.1424 48.3477 73.1366 48.3477 73.1366C48.3477 73.1366 47.2871 76.2792 47.5811 79.708L47.4791 79.6993C47.4791 79.6993 47.5218 79.7129 47.5834 79.7323C47.695 81.0054 47.9917 82.3158 48.6029 83.5202L48.265 83.4509C48.265 83.4509 48.3921 83.4932 48.6279 83.5647C49.8128 85.8647 52.1428 87.7658 56.4925 88.2424C62.8569 88.9397 65.7192 85.3991 66.9901 81.6664" fill="#22093A"/>
<path d="M67.0824 81.378C67.4966 80.0762 67.7268 78.7655 67.8476 77.613C67.886 77.6039 67.9073 77.5986 67.9073 77.5986L67.8497 77.5946C68.0675 75.4994 67.9345 73.936 67.9345 73.936C67.9345 73.936 67.9014 73.9461 67.853 73.9606C69.4618 64.6991 76.9608 65.4444 79.34 57.2319C82.3381 46.9378 80.1677 29.195 59.1855 28.8411C48.9532 28.6925 37.9849 35.944 37.6379 50.7179C37.3041 63.3237 48.8873 66.1638 48.5502 71.2885C48.5109 71.9402 48.4598 72.5568 48.4048 73.152C48.3691 73.1424 48.3477 73.1366 48.3477 73.1366C48.3477 73.1366 47.2871 76.2792 47.5811 79.708L47.4791 79.6993C47.4791 79.6993 47.5218 79.7129 47.5834 79.7323C47.695 81.0054 47.9917 82.3158 48.6029 83.5202L48.265 83.4509C48.265 83.4509 48.3921 83.4932 48.6279 83.5647C49.8128 85.8647 52.1428 87.7658 56.4925 88.2424C62.8569 88.9397 65.7192 85.3991 66.9901 81.6664" stroke="#22093A" stroke-miterlimit="10" stroke-linecap="round" stroke-linejoin="round"/>
<path d="M57.8691 29.0267C47.6368 28.878 36.6685 36.1295 36.3215 50.9034C35.9877 63.5093 47.5709 66.3493 47.2338 71.4741C46.8654 77.5679 45.5815 81.0928 47.7374 83.9473C49.3009 86.0636 52.0218 87.8579 57.4412 87.554C62.0313 87.3088 66.1424 85.2906 66.2293 77.6698C66.39 64.5961 75.3769 66.5532 78.0236 57.4175C81.0217 47.1233 78.8513 29.3806 57.8691 29.0267Z" fill="#FCC707" stroke="#22093A" stroke-miterlimit="10" stroke-linecap="round" stroke-linejoin="round"/>
<path d="M66.6176 74.1217C66.6176 74.1217 62.4315 75.4585 57.249 74.9655C51.0235 74.433 47.0308 73.3223 47.0308 73.3223C47.0308 73.3223 42.3874 87.0269 55.1755 88.428C67.9637 89.8292 66.6176 74.1217 66.6176 74.1217Z" fill="#22093A"/>
<path d="M52.5692 74.6768C52.5692 74.6768 57.4688 56.5866 52.6245 57.1031C49.1432 57.4698 52.4161 65.8328 56.8817 64.6763C61.3472 63.5198 61.6903 56.9743 59.334 57.3146C56.2962 57.7299 56.339 69.6289 58.819 74.9875" stroke="#050038" stroke-miterlimit="10" stroke-linecap="round" stroke-linejoin="round"/>
<path d="M11.5432 22.8726C10.6996 24.9352 10.4525 27.4843 11.4286 30.4699C13.8744 37.9507 19.8168 37.9097 21.9028 37.8639" stroke="#D9BBFF" stroke-miterlimit="10" stroke-linecap="round" stroke-linejoin="round"/>
<path d="M17.069 17.1201C15.9395 17.6107 14.5565 18.5543 13.377 19.9145" stroke="#D9BBFF" stroke-miterlimit="10" stroke-linecap="round" stroke-linejoin="round"/>
<path d="M35.6093 11.8433C34.2433 12.6156 33.4747 13.7791 33.3878 15.4784C33.3048 17.101 33.079 22.3881 33.5587 25.9563" stroke="#D9BBFF" stroke-miterlimit="10" stroke-linecap="round" stroke-linejoin="round"/>
<path d="M59.6084 8.8374C57.4076 9.75363 54.8159 10.5048 54.0469 18.289" stroke="#D9BBFF" stroke-miterlimit="10" stroke-linecap="round" stroke-linejoin="round"/>
<path d="M62.4199 8.41868C63.787 8.21568 64.9068 8.12635 65.8376 8.41868" stroke="#D9BBFF" stroke-miterlimit="10" stroke-linecap="round" stroke-linejoin="round"/>
<path d="M82.0201 10.1298C79.2005 9.78806 76.1476 10.9919 73.6582 15.8156" stroke="#D9BBFF" stroke-miterlimit="10" stroke-linecap="round" stroke-linejoin="round"/>
<path d="M90.6348 15.2339C91.2207 17.12 93.8816 18.456 95.2487 18.456" stroke="#D9BBFF" stroke-miterlimit="10" stroke-linecap="round" stroke-linejoin="round"/>
<path d="M90.6348 35.8169C91.7076 36.6519 92.8545 36.5573 94.1379 33.8873C95.7374 30.5598 95.8122 29.7711 96.154 28.5898" stroke="#D9BBFF" stroke-miterlimit="10" stroke-linecap="round" stroke-linejoin="round"/>
<path d="M61.6337 32.554C57.3046 31.8695 42.0971 31.955 39.8457 47.6765" stroke="white" stroke-miterlimit="10" stroke-linecap="round" stroke-linejoin="round"/>
<path d="M49.3237 39.4026L47.1543 41.5713L49.323 43.7407L51.4924 41.572L49.3237 39.4026Z" fill="white"/>
<path d="M49.324 49.2566C48.9321 49.2566 48.6069 48.9556 48.5762 48.5652C48.1331 42.8794 48.0159 42.7622 42.3301 42.3191C41.9397 42.2883 41.6387 41.9631 41.6387 41.5713C41.6387 41.1794 41.9397 40.8542 42.3308 40.8235C48.0159 40.3811 48.1331 40.2639 48.5762 34.5781C48.6069 34.1877 48.9321 33.8867 49.324 33.8867C49.7158 33.8867 50.041 34.1877 50.0718 34.5789C50.5142 40.2639 50.6313 40.3811 56.3164 40.8235C56.7075 40.8542 57.0085 41.1794 57.0085 41.5713C57.0085 41.9631 56.7075 42.2883 56.3171 42.3191C50.6313 42.7622 50.5142 42.8794 50.0718 48.5645C50.041 48.9556 49.7158 49.2566 49.324 49.2566ZM47.1545 41.5713C48.262 41.9851 48.9102 42.6333 49.324 43.7407C49.7371 42.6333 50.3853 41.9851 51.4927 41.5713C50.3853 41.1582 49.7371 40.51 49.324 39.4026C48.9102 40.51 48.262 41.1582 47.1545 41.5713Z" fill="#22093A"/>
<path d="M39.8912 51.2383C39.7203 52.5199 39.6488 54.656 40.3681 56.4503" stroke="white" stroke-miterlimit="10" stroke-linecap="round" stroke-linejoin="round"/>
<path d="M26.7125 84.9136C24.5016 89.9105 21.5111 103.078 25.0143 105.489" stroke="#D9BBFF" stroke-miterlimit="10" stroke-linecap="round" stroke-linejoin="round"/>
<path d="M29.7129 74.0078C29.4565 74.2246 29.3711 74.6896 29.3711 74.6896" stroke="#D9BBFF" stroke-miterlimit="10" stroke-linecap="round" stroke-linejoin="round"/>
<path d="M36.2184 101.127C36.1426 103.107 36.3156 104.036 36.3156 104.036" stroke="#D9BBFF" stroke-miterlimit="10" stroke-linecap="round" stroke-linejoin="round"/>
<path d="M44.4958 87.6661C42.8723 87.0328 39.0901 85.3577 37.4389 92.6779C37.0095 94.5818 36.7221 96.2296 36.5332 97.6337" stroke="#D9BBFF" stroke-miterlimit="10" stroke-linecap="round" stroke-linejoin="round"/>
<path d="M60.8305 91.29C59.7388 91.3241 59.0852 92.0493 58.6003 95.318C58.1154 98.5867 58.6003 100.789 58.6003 100.789" stroke="#D9BBFF" stroke-miterlimit="10" stroke-linecap="round" stroke-linejoin="round"/>
<path d="M83.1226 83.2448C81.8346 82.846 78.1655 82.5363 77.3086 88.3304" stroke="#D9BBFF" stroke-miterlimit="10" stroke-linecap="round" stroke-linejoin="round"/>
<path d="M76.2793 97.8589C76.3647 99.3366 76.2793 101.755 77.3071 104.603" stroke="#D9BBFF" stroke-miterlimit="10" stroke-linecap="round" stroke-linejoin="round"/>
</svg>
