<svg width="120" height="120" viewBox="0 0 120 120" fill="none" xmlns="http://www.w3.org/2000/svg">
<path d="M29.3386 14.1439C26.5631 11.0381 12.063 12.9431 11.5082 20.2285C11.1426 25.0297 12.6979 45.1903 20.1463 43.7861C27.8005 42.343 23.1732 32.234 23.1732 32.234C23.1732 32.234 29.9759 30.7277 29.7862 26.3883C29.5966 22.0489 21.0169 24.6584 21.0169 24.6584C21.0169 24.6584 34.6686 20.1081 29.3386 14.1439Z" fill="#22093A" stroke="#22093A" stroke-miterlimit="10" stroke-linecap="round" stroke-linejoin="round"/>
<path d="M70.4707 9.25193C69.3313 6.33345 54.5017 5.2403 51.6676 12.4589C49.8183 17.1691 49.1662 34.1287 57.2658 35.3117C65.3654 36.4947 72.6172 33.7995 72.3935 29.4131C72.1699 25.0267 59.5685 26.0856 59.5685 26.0856C59.5685 26.0856 67.7064 25.7063 67.7833 21.1423C67.8603 16.5783 59.3655 18.0521 59.3655 18.0521C59.3655 18.0521 72.9348 15.5637 70.4707 9.25193Z" fill="#22093A" stroke="#22093A" stroke-miterlimit="10" stroke-linecap="round" stroke-linejoin="round"/>
<path d="M36.1166 10.2269C29.7065 11.5015 29.3591 15.4699 29.1584 23.5897C28.9587 31.6666 29.4016 37.8998 33.3319 37.6852C37.2623 37.4707 38.6392 26.3864 38.6392 26.3864C38.6392 26.3864 43.428 38.0863 48.3445 36.0804C54.8679 33.4189 44.9317 23.6515 44.9317 23.6515C50.2426 23.5399 57.7604 5.92316 36.1166 10.2269Z" fill="#22093A" stroke="#22093A" stroke-miterlimit="10" stroke-linecap="round" stroke-linejoin="round"/>
<path d="M37.8184 15.2056C37.8184 15.2056 41.5165 14.3315 41.2175 16.3477C40.9186 18.3639 37.8893 18.5793 37.8893 18.5793L37.8184 15.2056Z" fill="#22093A" stroke="#22093A" stroke-miterlimit="10" stroke-linecap="round" stroke-linejoin="round"/>
<path d="M89.6059 14.8215C89.7146 11.2023 87.7167 6.87564 79.8025 6.91333C72.0105 6.95044 66.5061 17.1155 74.1922 21.8672C81.3094 26.2672 78.7821 31.0584 75.7219 28.1806C69.8355 22.6452 63.0759 33.4473 71.1732 38.0253C79.2705 42.6034 88.7167 38.0927 90.1066 32.8223C92.7395 22.8389 85.1119 20.7035 81.6302 18.8857C81.6302 18.8857 89.4398 20.3455 89.6059 14.8215Z" fill="#22093A" stroke="#22093A" stroke-miterlimit="10" stroke-linecap="round" stroke-linejoin="round"/>
<path d="M111.059 11.1164C107.907 10.4986 105.366 13.8445 103.521 22.0457C102.627 21.8108 101.653 21.6126 100.629 21.4336C102.093 14.2683 101.718 10.2327 98.1427 9.53201C94.709 8.85897 91.9972 12.8731 90.1252 22.7649C88.2531 32.6566 88.4617 38.7362 93.0399 39.2928C95.2809 39.5653 96.9219 35.7259 98.4203 30.4188C98.928 30.502 99.4601 30.5717 100.04 30.615C100.776 30.6698 101.454 30.6853 102.1 30.6765C101.516 36.7911 102.457 40.4518 105.956 40.8772C108.966 41.2433 110.894 34.1954 112.847 26.1287C115.054 17.0143 115.123 11.9129 111.059 11.1164Z" fill="#22093A" stroke="#22093A" stroke-miterlimit="10" stroke-linecap="round" stroke-linejoin="round"/>
<path d="M27.2839 12.9857C24.5084 9.87994 10.0083 11.7848 9.45349 19.0703C9.08787 23.8715 10.6432 44.0321 18.0917 42.6278C25.7459 41.1848 21.1185 31.0758 21.1185 31.0758C21.1185 31.0758 27.9212 29.5695 27.7315 25.2301C27.5419 20.8907 18.9622 23.5002 18.9622 23.5002C18.9622 23.5002 32.6139 18.9499 27.2839 12.9857Z" fill="#71C1F2" stroke="#22093A" stroke-miterlimit="10" stroke-linecap="round" stroke-linejoin="round"/>
<path d="M68.416 8.09373C67.2766 5.17525 52.447 4.0821 49.6129 11.3007C47.7636 16.0109 47.1115 32.9705 55.2111 34.1535C63.3107 35.3365 70.5625 32.6412 70.3388 28.2549C70.1152 23.8685 57.5139 24.9274 57.5139 24.9274C57.5139 24.9274 65.6517 24.5481 65.7287 19.9841C65.8056 15.4201 57.3108 16.8939 57.3108 16.8939C57.3108 16.8939 70.8802 14.4055 68.416 8.09373Z" fill="#71C1F2" stroke="#22093A" stroke-miterlimit="10" stroke-linecap="round" stroke-linejoin="round"/>
<path d="M34.0619 9.06867C27.6518 10.3433 27.3044 14.3117 27.1037 22.4315C26.904 30.5084 27.3469 36.7416 31.2772 36.527C35.2076 36.3125 36.5846 25.2282 36.5846 25.2282C36.5846 25.2282 41.3733 36.9281 46.2899 34.9222C52.8132 32.2607 42.877 22.4933 42.877 22.4933C48.1879 22.3816 55.7058 4.76495 34.0619 9.06867Z" fill="#71C1F2" stroke="#22093A" stroke-miterlimit="10" stroke-linecap="round" stroke-linejoin="round"/>
<path d="M35.7637 14.0474C35.7637 14.0474 39.4618 13.1733 39.1628 15.1895C38.8639 17.2057 35.8346 17.4211 35.8346 17.4211L35.7637 14.0474Z" fill="#22093A" stroke="#22093A" stroke-miterlimit="10" stroke-linecap="round" stroke-linejoin="round"/>
<path d="M87.5512 13.6633C87.6599 10.0441 85.662 5.71744 77.7478 5.75513C69.9558 5.79224 64.4514 15.9573 72.1376 20.709C79.2547 25.109 76.7274 29.9002 73.6672 27.0224C67.7808 21.487 61.0212 32.2891 69.1185 36.8671C77.2158 41.4452 86.662 36.9345 88.0519 31.6641C90.6848 21.6807 83.0572 19.5453 79.5755 17.7275C79.5755 17.7275 87.3851 19.1873 87.5512 13.6633Z" fill="#71C1F2" stroke="#22093A" stroke-miterlimit="10" stroke-linecap="round" stroke-linejoin="round"/>
<path d="M109.004 9.95819C105.852 9.34044 103.311 12.6863 101.467 20.8875C100.572 20.6525 99.5988 20.4544 98.5746 20.2754C100.038 13.1101 99.6635 9.07445 96.088 8.37381C92.6543 7.70076 89.9426 11.7149 88.0705 21.6067C86.1984 31.4984 86.407 37.578 90.9852 38.1346C93.2262 38.4071 94.8672 34.5677 96.3656 29.2606C96.8733 29.3438 97.4055 29.4135 97.9852 29.4567C98.7212 29.5116 99.3997 29.5271 100.045 29.5183C99.461 35.6329 100.402 39.2936 103.901 39.719C106.912 40.0851 108.839 33.0372 110.793 24.9705C113 15.8561 113.068 10.7547 109.004 9.95819Z" fill="#71C1F2" stroke="#22093A" stroke-miterlimit="10" stroke-linecap="round" stroke-linejoin="round"/>
<path d="M16.5508 15.8174C14.4094 16.6361 12.5018 17.8728 12.5888 19.7005" stroke="white" stroke-miterlimit="10" stroke-linecap="round" stroke-linejoin="round"/>
<path d="M21.8161 14.46C21.3572 14.5434 20.5622 14.6846 19.625 14.9025" stroke="white" stroke-miterlimit="10" stroke-linecap="round" stroke-linejoin="round"/>
<path d="M14.5684 36.1055C14.8673 37.6904 15.4939 39.3159 16.9749 39.7328" stroke="white" stroke-miterlimit="10" stroke-linecap="round" stroke-linejoin="round"/>
<path d="M29.9989 24.0112C29.9989 27.0872 29.8817 31.9859 31.1506 32.5555" stroke="white" stroke-miterlimit="10" stroke-linecap="round" stroke-linejoin="round"/>
<path d="M52.2084 11.6196C51.5752 12.9568 50.6753 17.7792 51.2338 21.9762" stroke="white" stroke-miterlimit="10" stroke-linecap="round" stroke-linejoin="round"/>
<path d="M69.3577 28.5322C68.2659 29.2043 66.3763 32.6905 71.4556 34.855" stroke="white" stroke-miterlimit="10" stroke-linecap="round" stroke-linejoin="round"/>
<path d="M77.9233 8.39142C74.3347 7.79524 68.8094 13.1448 72.6828 17.7588" stroke="white" stroke-miterlimit="10" stroke-linecap="round" stroke-linejoin="round"/>
<path d="M95.696 11.5529C94.215 11.0992 92.6201 13.4346 91.7656 17.7589" stroke="white" stroke-miterlimit="10" stroke-linecap="round" stroke-linejoin="round"/>
<path d="M109.01 12.7423C107.529 12.2886 105.935 14.6241 105.08 18.9484" stroke="white" stroke-miterlimit="10" stroke-linecap="round" stroke-linejoin="round"/>
<path d="M70.8887 56.7721C70.8887 56.7721 71.5463 46.4868 81.3129 43.3211C89.6815 40.6086 95.9881 41.646 95.9881 41.646C95.9881 41.646 94.0656 48.6726 86.9623 52.6586C81.63 55.6508 70.8887 56.7721 70.8887 56.7721Z" fill="#35CCAD" stroke="#22093A" stroke-miterlimit="10" stroke-linecap="round" stroke-linejoin="round"/>
<path d="M65.804 55.4888C65.804 55.4888 68.0046 46.8835 63.7038 39.9182C59.7583 33.528 53.6124 30.9326 53.6124 30.9326C53.6124 30.9326 51.703 37.6064 53.4359 43.5039C55.5358 50.6506 63.4194 56.8568 63.4194 56.8568" fill="#35CCAD"/>
<path d="M65.804 55.4888C65.804 55.4888 68.0046 46.8835 63.7038 39.9182C59.7583 33.528 53.6124 30.9326 53.6124 30.9326C53.6124 30.9326 51.703 37.6064 53.4359 43.5039C55.5358 50.6506 63.4194 56.8568 63.4194 56.8568" stroke="#22093A" stroke-miterlimit="10" stroke-linecap="round" stroke-linejoin="round"/>
<path d="M66.7092 58.2014C66.7092 58.2014 62.3674 51.1922 71.0766 40.898C78.3249 32.3306 81.5644 31.6178 81.8842 34.5124C82.1546 36.9597 76.1005 38.1559 70.5355 49.0708C68.2557 53.5423 71.4919 56.9244 71.4919 56.9244" fill="#35CCAD"/>
<path d="M66.7092 58.2014C66.7092 58.2014 62.3674 51.1922 71.0766 40.898C78.3249 32.3306 81.5644 31.6178 81.8842 34.5124C82.1546 36.9597 76.1005 38.1559 70.5355 49.0708C68.2557 53.5423 71.4919 56.9244 71.4919 56.9244" stroke="#22093A" stroke-miterlimit="10" stroke-linecap="round" stroke-linejoin="round"/>
<path d="M67.1544 58.4135C67.1544 58.4135 41.2338 38.7602 27.0642 59.5863C10.5229 83.8982 33.058 104.321 51.2627 108.715C58.5967 110.485 92.3933 118.928 104.048 89.9859C116.939 57.9705 85.5387 48.652 61.0941 60.9943" fill="#E9022C"/>
<path d="M67.1544 58.4135C67.1544 58.4135 41.2338 38.7602 27.0642 59.5863C10.5229 83.8982 33.058 104.321 51.2627 108.715C58.5967 110.485 92.3933 118.928 104.048 89.9859C116.939 57.9705 85.5387 48.652 61.0941 60.9943" stroke="#22093A" stroke-miterlimit="10" stroke-linecap="round" stroke-linejoin="round"/>
<path d="M41.9395 74.5731C41.9395 74.5731 42.542 64.3884 47.6973 65.4884C52.8526 66.5884 48.9761 77.3873 48.9761 77.3873" stroke="#22093A" stroke-miterlimit="10" stroke-linecap="round" stroke-linejoin="round"/>
<path d="M55.123 78.939C55.123 78.939 56.4553 66.6605 61.0622 67.9402C65.6691 69.2199 62.8415 79.8491 62.8415 79.8491" stroke="#22093A" stroke-miterlimit="10" stroke-linecap="round" stroke-linejoin="round"/>
<path d="M34.957 80.043C34.957 80.043 42.2205 85.3182 49.7064 87.3778C64.6646 91.4932 70.9075 85.494 70.9075 85.494C70.9075 85.494 66.5123 102.907 54.5087 101.037C47.0677 99.8779 44.0737 94.7325 44.4096 86.0408" fill="white"/>
<path d="M34.957 80.043C34.957 80.043 42.2205 85.3182 49.7064 87.3778C64.6646 91.4932 70.9075 85.494 70.9075 85.494C70.9075 85.494 66.5123 102.907 54.5087 101.037C47.0677 99.8779 44.0737 94.7325 44.4096 86.0408" stroke="#22093A" stroke-miterlimit="10" stroke-linecap="round" stroke-linejoin="round"/>
<path d="M70.5854 73.9756C70.5854 73.9756 67.346 81.4408 71.4746 85.6371C75.9585 90.1945 81.7163 87.7115 81.7163 87.7115" stroke="#22093A" stroke-miterlimit="10" stroke-linecap="round" stroke-linejoin="round"/>
<path d="M44.8379 92.0703L66.1504 95.5033" stroke="#22093A" stroke-miterlimit="10" stroke-linecap="round" stroke-linejoin="round"/>
<path d="M52.3598 88.3867L50.9453 100.036" stroke="#22093A" stroke-miterlimit="10" stroke-linecap="round" stroke-linejoin="round"/>
<path d="M60.2402 89.4761L58.6387 100.911" stroke="#22093A" stroke-miterlimit="10" stroke-linecap="round" stroke-linejoin="round"/>
<path d="M46.1557 54.5751C40.1812 54.1711 33.7527 55.9316 29.9941 63.1909" stroke="white" stroke-miterlimit="10" stroke-linecap="round" stroke-linejoin="round"/>
<path d="M51.652 55.5191C51.0128 55.3465 50.3529 55.1895 49.6777 55.0537" stroke="white" stroke-miterlimit="10" stroke-linecap="round" stroke-linejoin="round"/>
<path d="M101.468 84.1475C99.4018 90.9918 95.194 98.2555 88.5918 102.665" stroke="#22093A" stroke-miterlimit="10" stroke-linecap="round" stroke-linejoin="round"/>
<path d="M102.931 76.4346C102.874 77.2621 102.778 78.1221 102.643 79.0061" stroke="#22093A" stroke-miterlimit="10" stroke-linecap="round" stroke-linejoin="round"/>
<path d="M55.8504 36.96C55.6795 38.5834 57.0307 44.4789 59.3883 47.7258" stroke="white" stroke-miterlimit="10" stroke-linecap="round" stroke-linejoin="round"/>
<path d="M88.0137 47.9434C88.5781 47.5796 89.1108 47.1938 89.6005 46.7856" stroke="#22093A" stroke-miterlimit="10" stroke-linecap="round" stroke-linejoin="round"/>
<path d="M76.3574 52.2543C78.944 51.784 82.5416 50.7879 85.7035 49.2383" stroke="#22093A" stroke-miterlimit="10" stroke-linecap="round" stroke-linejoin="round"/>
<path d="M17.8154 64.7915L15.982 68.7817L11.9297 70.6787L15.7714 73.2342L17.8154 76.5645L19.4503 72.7915L23.7019 70.6787L19.3196 68.2785L17.8154 64.7915Z" fill="#FCC707"/>
<path d="M17.8145 83.5928C17.4226 83.5928 17.0974 83.291 17.0667 82.9014C16.269 72.6519 15.8398 72.2241 5.59253 71.4258C5.20142 71.3965 4.90039 71.0698 4.90039 70.6787C4.90039 70.2876 5.20142 69.9609 5.5918 69.9316C15.8398 69.1333 16.269 68.7041 17.0667 58.4553C17.0974 58.0642 17.4226 57.7632 17.8145 57.7632C18.2063 57.7632 18.5315 58.0642 18.5623 58.4546C19.3606 68.7041 19.7898 69.1333 30.0378 69.9316C30.4282 69.9609 30.7292 70.2876 30.7292 70.6787C30.7292 71.0698 30.4282 71.3965 30.0371 71.4258C19.7898 72.2241 19.3606 72.6519 18.5623 82.9014C18.5315 83.291 18.2063 83.5928 17.8145 83.5928ZM11.9287 70.6787C15.5798 71.4507 17.0417 72.9126 17.8145 76.5645C18.5879 72.9126 20.0498 71.4507 23.7009 70.6787C20.0498 69.9053 18.5879 68.4434 17.8145 64.7915C17.0417 68.4434 15.5798 69.9053 11.9287 70.6787Z" fill="#22093A"/>
<path d="M76.3573 102.153L72.9805 105.528L76.3558 108.905L79.7327 105.53L76.3573 102.153Z" fill="#FCC707"/>
<path d="M76.3564 114.995C75.9653 114.995 75.6387 114.693 75.6094 114.303C75.0454 107.065 74.8198 106.84 67.582 106.276C67.1924 106.247 66.8906 105.92 66.8906 105.529C66.8906 105.138 67.1924 104.811 67.582 104.782C74.8198 104.218 75.0454 103.992 75.6094 96.7559C75.6387 96.3662 75.9653 96.0645 76.3564 96.0645C76.7476 96.0645 77.0742 96.3662 77.1035 96.7559C77.6675 103.992 77.8931 104.218 85.1309 104.782C85.5205 104.811 85.8223 105.138 85.8223 105.529C85.8223 105.92 85.5205 106.247 85.1309 106.276C77.8931 106.84 77.6675 107.065 77.1035 114.303C77.0742 114.693 76.7476 114.995 76.3564 114.995ZM72.98 105.529C74.8579 106.081 75.8042 107.027 76.3564 108.905C76.9087 107.027 77.855 106.081 79.7329 105.529C77.855 104.977 76.9087 104.03 76.3564 102.154C75.8042 104.03 74.8579 104.977 72.98 105.529Z" fill="#22093A"/>
<path d="M96.3511 62.0288L92.9746 65.4053L96.3511 68.7817L99.7275 65.4053L96.3511 62.0288Z" fill="#FCC707"/>
<path d="M96.3506 74.8711C95.9595 74.8711 95.6328 74.5693 95.6035 74.1797C95.0395 66.9419 94.814 66.7163 87.5762 66.1523C87.1865 66.123 86.8848 65.7964 86.8848 65.4053C86.8848 65.0142 87.1865 64.6875 87.5762 64.6582C94.814 64.0942 95.0396 63.8687 95.6035 56.6316C95.6328 56.2405 95.9595 55.9395 96.3506 55.9395C96.7417 55.9395 97.0684 56.2405 97.0977 56.6316C97.6616 63.8687 97.8872 64.0942 105.125 64.6582C105.515 64.6875 105.816 65.0142 105.816 65.4053C105.816 65.7964 105.515 66.123 105.125 66.1523C97.8872 66.7163 97.6616 66.9419 97.0977 74.1797C97.0684 74.5693 96.7417 74.8711 96.3506 74.8711ZM92.9741 65.4053C94.8521 65.9575 95.7983 66.9038 96.3506 68.7817C96.9028 66.9038 97.8491 65.9575 99.7271 65.4053C97.8491 64.853 96.9028 63.9067 96.3506 62.0288C95.7983 63.9067 94.8521 64.853 92.9741 65.4053Z" fill="#22093A"/>
</svg>
