<svg width="120" height="122" viewBox="0 0 120 122" fill="none" xmlns="http://www.w3.org/2000/svg">
<g clip-path="url(#clip0_5_10986)">
<path opacity="0.5" d="M108.387 59.9933C109.525 60.4452 110.696 60.6515 111.852 60.6332C113.506 60.5973 115.947 60.0426 118.177 57.6071C119.227 56.4598 120.376 54.3115 119.881 50.5907C119.36 46.6932 117.061 41.6399 113.072 38.8236C112.194 37.9733 111.245 37.2673 110.243 36.7141C111.529 32.4999 110.306 29.6047 108.658 27.7096C110.449 27.0415 111.773 25.3916 111.929 23.3816C111.946 23.162 111.98 22.7396 112.022 22.3046C112.456 22.2624 112.878 22.23 113.098 22.2124C115.725 22.0083 117.752 19.817 117.752 17.1824C117.752 14.5477 115.725 12.3565 113.098 12.1523C112.878 12.1347 112.456 12.1023 112.022 12.0601C111.98 11.6251 111.946 11.2028 111.929 10.9832C111.725 8.35621 109.533 6.32969 106.899 6.32969C104.265 6.32969 102.073 8.35621 101.869 10.9832C101.852 11.2028 101.819 11.6251 101.776 12.0601C101.343 12.1023 100.92 12.1347 100.701 12.1523C98.0738 12.3565 96.0466 14.5477 96.0466 17.1824C96.0466 17.1992 96.0512 17.2148 96.0514 17.2316C95.481 17.1126 94.8741 17.0247 94.201 17.005C93.3422 13.073 91.0025 9.9083 88.2798 7.99582C86.7918 6.5648 85.0869 5.52514 83.3159 4.97329C79.6726 3.84072 76.1306 4.13706 73.0208 5.66662C72.4942 5.09576 71.8988 4.58262 71.2385 4.13776C69.5196 2.35831 66.5505 0.615466 61.5078 0.752725C58.4755 0.842824 55.6697 1.93597 53.52 3.7112C50.0625 1.09059 44.9789 2.77431 42.9179 3.6387C37.8654 5.75883 34.4599 9.4937 33.5505 13.8114C30.9053 11.9939 28.5669 11.2063 26.3116 11.371C24.3421 11.5118 22.5599 12.417 21.2886 13.9212C19.3191 16.2539 19.1966 18.9365 19.9949 21.5543C19.3219 22.0055 18.725 22.57 18.2267 23.2352C17.7607 23.8574 17.3933 24.5346 17.13 25.2462C16.5655 25.23 16.0164 25.2645 15.4773 25.3511C13.3262 25.6918 11.5397 26.7744 10.3078 28.4834C8.43689 31.0794 8.47913 34.3117 10.1811 37.2906C5.95495 39.2622 4.52323 42.5275 4.06007 44.8589C3.53074 47.521 3.63773 52.6848 10.2037 57.5825C11.817 59.0529 13.7837 60.3748 16.0488 61.5137C16.1733 61.5764 16.3434 61.6598 16.5328 61.7514C15.613 62.0423 14.7787 62.4889 14.0737 63.0869C12.939 62.6372 11.8086 62.4316 10.6091 62.4471C8.95637 62.4837 6.51666 63.0384 4.28531 65.4732C3.2351 66.6205 2.08634 68.7695 2.58188 72.491C3.10277 76.3885 5.40169 81.4403 9.38856 84.2559C10.1488 84.9922 10.9611 85.6201 11.8156 86.1346C10.9763 88.3701 10.8408 90.2479 11.0984 91.8376C9.7318 92.6508 8.77098 94.0838 8.63961 95.7745C8.59597 96.3242 8.50447 97.511 8.3834 98.3599C7.5345 98.4802 6.34773 98.5732 5.79728 98.6161C3.17175 98.8209 1.14453 101.012 1.14453 103.646C1.14453 106.281 3.17175 108.472 5.79869 108.676C6.34773 108.719 7.5345 108.811 8.3834 108.932C8.50447 109.781 8.59597 110.967 8.63962 111.517C8.84375 114.144 11.0357 116.171 13.6697 116.171C16.305 116.171 18.4956 114.143 18.6997 111.516C18.7433 110.967 18.8348 109.781 18.9545 108.932C19.8048 108.811 20.9916 108.719 21.5406 108.676C23.1378 108.552 24.5053 107.687 25.3383 106.441C26.3762 106.699 27.5734 106.829 28.978 106.712C30.0986 110.076 32.2863 112.633 34.474 114.178C35.9649 115.613 37.6725 116.655 39.4421 117.205C43.3811 118.429 47.2004 117.984 50.4862 116.112C51.2816 117.075 52.2558 117.887 53.3792 118.508C54.9489 119.828 57.4041 121.061 61.0968 121.061C61.7697 121.061 62.4834 121.019 63.2408 120.93C65.6904 120.644 67.9358 119.707 69.7589 118.313C69.7659 118.319 69.773 118.325 69.78 118.331C73.239 121.236 78.5196 119.489 80.6299 118.605C84.5182 116.973 87.4323 114.385 88.9837 111.312C94.4431 114.552 97.8894 112.089 99.2521 110.676C101.372 108.48 101.675 105.812 101.054 103.147C101.755 102.742 102.389 102.218 102.931 101.587C103.438 100.997 103.849 100.347 104.16 99.6543C104.714 99.705 105.27 99.7092 105.817 99.6607C107.985 99.4636 109.84 98.5028 111.182 96.8817C113.621 93.9345 113.395 89.8969 110.83 86.3162C115.478 84.3925 117.028 80.9603 117.52 78.4889C118.049 75.8268 117.939 70.663 111.376 65.7674C109.764 64.2983 107.799 62.9764 105.529 61.8354C105.392 61.7661 105.201 61.6726 104.984 61.5682C105.134 61.5411 105.285 61.5142 105.417 61.4828C106.545 61.2118 107.552 60.7014 108.387 59.9933Z" fill="#231F20"/>
<path d="M107.243 59.2482C108.38 59.7001 109.552 59.9063 110.707 59.888C112.362 59.8521 114.803 59.2975 117.033 56.862C118.083 55.7146 119.232 53.5663 118.736 49.8456C118.215 45.9481 115.916 40.8948 111.928 38.0785C111.049 37.2282 110.101 36.5222 109.098 35.969C110.385 31.7548 109.161 28.8596 107.514 26.9645C109.305 26.2964 110.629 24.6464 110.785 22.6365C110.802 22.4168 110.835 21.9945 110.878 21.5595C111.311 21.5173 111.734 21.4849 111.953 21.4673C114.58 21.2632 116.607 19.0719 116.607 16.4372C116.607 13.8026 114.58 11.6113 111.953 11.4072C111.734 11.3896 111.311 11.3572 110.878 11.315C110.835 10.88 110.802 10.4576 110.785 10.238C110.581 7.61109 108.389 5.58458 105.755 5.58458C103.121 5.58458 100.929 7.61109 100.725 10.238C100.708 10.4577 100.674 10.88 100.632 11.315C100.198 11.3572 99.7758 11.3896 99.5562 11.4072C96.9293 11.6113 94.9021 13.8026 94.9021 16.4372C94.9021 16.4541 94.9066 16.4697 94.9068 16.4865C94.3365 16.3675 93.7296 16.2796 93.0565 16.2599C92.1977 12.3279 89.858 9.16318 87.1353 7.2507C85.6472 5.81968 83.9424 4.78002 82.1714 4.22817C78.528 3.0956 74.986 3.39194 71.8762 4.92151C71.3497 4.35065 70.7542 3.83751 70.094 3.39264C68.375 1.6132 65.406 -0.129651 60.3633 0.00760766C57.3309 0.0977063 54.5252 1.19086 52.3755 2.96608C48.918 0.345478 43.8344 2.0292 41.7734 2.89358C36.7208 5.01372 33.3154 8.74859 32.406 13.0663C29.7607 11.2488 27.4224 10.4612 25.1671 10.6259C23.1976 10.7667 21.4153 11.6719 20.1441 13.1761C18.1746 15.5088 18.0521 18.1914 18.8503 20.8091C18.1774 21.2603 17.5805 21.8249 17.0821 22.49C16.6162 23.1123 16.2487 23.7894 15.9855 24.5011C15.421 24.4849 14.8719 24.5194 14.3327 24.606C12.1816 24.9466 10.3951 26.0292 9.16332 27.7383C7.29236 30.3343 7.33459 33.5666 9.03661 36.5454C4.81042 38.5171 3.3787 41.7824 2.91553 44.1137C2.3862 46.7759 2.4932 51.9396 9.05914 56.8374C10.6725 58.3078 12.6392 59.6297 14.9043 60.7686C15.0288 60.8313 15.1989 60.9147 15.3883 61.0063C14.4685 61.2971 13.6342 61.7438 12.9292 62.3418C11.7945 61.892 10.664 61.6865 9.46458 61.702C7.81184 61.7386 5.37213 62.2933 3.14078 64.728C2.09057 65.8754 0.941811 68.0244 1.43735 71.7459C1.95824 75.6433 4.25716 80.6952 8.24403 83.5108C9.00424 84.2471 9.81653 84.8749 10.6711 85.3895C9.83175 87.625 9.69625 89.5028 9.95388 91.0925C8.58727 91.9056 7.62645 93.3387 7.49508 95.0293C7.45144 95.5791 7.35994 96.7659 7.23887 97.6148C6.38997 97.7351 5.2032 97.828 4.65275 97.871C2.02722 98.0758 0 100.267 0 102.901C0 105.536 2.02722 107.727 4.65416 107.931C5.2032 107.974 6.38997 108.066 7.23887 108.187C7.35994 109.036 7.45144 110.222 7.49509 110.772C7.69922 113.399 9.89115 115.425 12.5251 115.425C15.1605 115.425 17.351 113.398 17.5552 110.771C17.5988 110.222 17.6903 109.035 17.81 108.187C18.6603 108.066 19.8471 107.974 20.3961 107.931C21.9932 107.807 23.3608 106.942 24.1938 105.696C25.2317 105.954 26.4289 106.083 27.8335 105.967C28.9541 109.33 31.1418 111.888 33.3295 113.433C34.8203 114.868 36.528 115.91 38.2976 116.459C42.2366 117.684 46.0559 117.239 49.3417 115.367C50.1371 116.33 51.1113 117.142 52.2347 117.763C53.8044 119.083 56.2596 120.315 59.9522 120.315C60.6252 120.315 61.3389 120.274 62.0963 120.185C64.5459 119.899 66.7913 118.962 68.6144 117.567C68.6214 117.574 68.6285 117.58 68.6355 117.586C72.0944 120.491 77.3751 118.744 79.4854 117.86C83.3737 116.228 86.2878 113.64 87.8392 110.566C93.2986 113.806 96.7449 111.344 98.1076 109.931C100.228 107.735 100.53 105.067 99.9096 102.402C100.611 101.997 101.244 101.473 101.786 100.842C102.293 100.252 102.704 99.6019 103.015 98.9092C103.57 98.9599 104.126 98.9641 104.672 98.9156C106.84 98.7185 108.696 97.7576 110.037 96.1366C112.477 93.1894 112.25 89.1518 109.685 85.5711C114.334 83.6473 115.884 80.2151 116.375 77.7438C116.904 75.0816 116.795 69.9179 110.232 65.0223C108.62 63.5532 106.654 62.2313 104.385 61.0903C104.247 61.021 104.056 60.9274 103.84 60.8231C103.989 60.796 104.141 60.7691 104.272 60.7376C105.4 60.4666 106.408 59.9563 107.243 59.2482Z" fill="white"/>
<path d="M47.1557 73.0423C48.37 78.0155 53.6232 87.05 64.5965 85.1745C73.1671 83.7097 76.228 78.5647 78.1115 75.0814C79.9184 71.7395 84.2138 59.8541 79.9284 56.6664C75.9026 53.6718 75.3345 60.5649 72.8238 63.4635C70.1921 66.5018 67.3369 65.7279 65.9787 62.1637C64.6692 58.7273 64.7516 54.3034 68.4685 54.845C71.3243 55.2611 72.2655 61.4842 74.6147 59.3287C78.6723 55.6058 72.642 43.1595 65.4403 44.5659C60.2849 45.5726 58.5357 54.1317 59.0221 52.0617C60.0987 47.4805 55.1239 37.5291 51.3497 37.3184C45.2501 36.9779 48.3063 45.5916 48.3063 45.5916C48.3063 45.5916 45.1694 42.2198 43.1479 44.7156C41.2626 47.0431 43.1502 51.8565 43.1502 51.8565C43.1502 51.8565 40.1667 51.6763 40.2074 54.1387C40.2482 56.601 43.1862 58.1799 44.9784 63.4662C45.8398 66.0072 47.1557 73.0423 47.1557 73.0423Z" fill="#22093A" stroke="#22093A" stroke-miterlimit="10" stroke-linecap="round" stroke-linejoin="round"/>
<path d="M43.1504 51.8564C44.3009 52.6618 45.7868 54.8605 46.6671 56.3516C48.2338 59.0051 49.5221 63.8746 49.5221 63.8746" fill="#22093A"/>
<path d="M43.1504 51.8564C44.3009 52.6618 45.7868 54.8605 46.6671 56.3516C48.2338 59.0051 49.5221 63.8746 49.5221 63.8746" stroke="#22093A" stroke-miterlimit="10" stroke-linecap="round" stroke-linejoin="round"/>
<path d="M47.9727 45.2529C47.9727 45.2529 50.3185 47.8991 51.3034 51.0506C53.0448 56.6228 53.2376 57.9843 53.5742 60.5626" fill="#22093A"/>
<path d="M47.9727 45.2529C47.9727 45.2529 50.3185 47.8991 51.3034 51.0506C53.0448 56.6228 53.2376 57.9843 53.5742 60.5626" stroke="#22093A" stroke-miterlimit="10" stroke-linecap="round" stroke-linejoin="round"/>
<path d="M59.59 50.2251C58.7901 52.3242 58.2551 55.4285 58.4266 57.973L59.59 50.2251Z" fill="#22093A"/>
<path d="M59.59 50.2251C58.7901 52.3242 58.2551 55.4285 58.4266 57.973" stroke="#22093A" stroke-miterlimit="10" stroke-linecap="round" stroke-linejoin="round"/>
<path d="M28.2319 42.123C25.2702 41.5009 10.9806 39.0236 9.50265 46.4526C8.73333 50.3193 12.4948 53.909 17.1725 56.2617C22.2475 58.8143 30.1613 61.1053 31.0201 58.1058C31.7012 55.7268 28.6935 53.4796 25.474 51.813C25.5271 51.6918 26.2479 49.8659 26.2479 49.8659C29.6402 49.9271 33.9128 49.609 33.8825 47.2845C33.85 44.7871 30.9698 42.6981 28.2319 42.123ZM22.1371 50.3157C19.7012 49.2555 18.6486 49.0053 18.6486 49.0053C18.6486 49.0053 19.8553 49.0651 22.5247 49.3166L22.1371 50.3157Z" fill="#22093A" stroke="#22093A" stroke-miterlimit="10" stroke-linecap="round" stroke-linejoin="round"/>
<path d="M36.1145 43.5733C37.8524 41.2344 35.6253 38.6196 34.3804 36.1586C36.8239 36.7416 39.8537 38.2428 41.531 35.9348C43.4697 33.2671 41.1919 28.69 37.6607 24.6353C33.8295 20.2363 27.9897 15.0012 25.6402 17.7846C22.9315 20.9935 31.2648 29.0411 31.2648 29.0411C31.2648 29.0411 24.9622 23.9285 22.7605 26.869C20.2467 30.2263 26.6725 34.9239 26.6725 34.9239C26.6725 34.9239 17.6025 28.289 14.8968 32.042C13.6602 33.7573 15.2156 36.338 17.5411 38.0845C20.0567 39.9737 32.3355 48.6589 36.1145 43.5733Z" fill="#22093A" stroke="#22093A" stroke-miterlimit="10" stroke-linecap="round" stroke-linejoin="round"/>
<path d="M51.0208 8.38409C49.0656 6.74339 39.3582 9.97214 38.8652 16.2707C38.5435 20.3805 40.6654 34.2212 47.2581 33.2182C53.8508 32.2152 58.5976 28.8746 57.381 25.5098C56.1643 22.1449 48.2602 25.0116 48.2602 25.0116C48.2602 25.0116 54.8637 22.0632 53.8391 18.4884C52.8145 14.9137 46.1929 18.7998 46.1929 18.7998C46.1929 18.7998 56.2666 12.7861 51.0208 8.38409Z" fill="#22093A" stroke="#22093A" stroke-miterlimit="10" stroke-linecap="round" stroke-linejoin="round"/>
<path d="M69.5317 12.1419C69.5639 9.45504 68.0224 6.2323 62.1518 6.40563C55.3485 6.60649 51.9075 14.3771 58.1895 17.5764C65.5928 21.3468 62.6408 24.732 59.4092 22.2404C54.6603 18.579 50.0967 26.3177 56.1661 29.6059C62.2356 32.8942 69.184 29.4207 70.1446 25.4915C71.9644 18.0487 66.2761 16.5665 63.6684 15.2645C63.6684 15.2645 69.4826 16.2428 69.5317 12.1419Z" fill="#22093A" stroke="#22093A" stroke-miterlimit="10" stroke-linecap="round" stroke-linejoin="round"/>
<path d="M82.3128 10.4008C86.1105 11.5816 90.4034 17.3236 87.3101 24.408C84.2168 31.4925 78.2567 33.0876 74.1127 31.7658C70.3737 30.5731 66.5354 25.9348 69.5772 18.2883C72.0692 12.0238 76.7347 8.6664 82.3128 10.4008Z" fill="#22093A" stroke="#22093A" stroke-miterlimit="10" stroke-linecap="round" stroke-linejoin="round"/>
<path d="M80.7847 16.2142C81.425 16.1408 81.6539 17.8243 80.2292 21.1095C78.8044 24.3946 77.4126 25.8921 76.7177 25.9589C76.0908 26.0191 75.8305 24.7125 77.3078 21.2095C78.5182 18.3396 79.8444 16.3221 80.7847 16.2142Z" fill="#22093A" stroke="#22093A" stroke-miterlimit="10" stroke-linecap="round" stroke-linejoin="round"/>
<path d="M103.616 30.1576C101.747 28.1394 98.9352 29.7517 96.4363 30.4795C97.401 28.314 99.3195 25.7638 97.4694 23.8074C95.3311 21.546 90.6898 22.8648 86.3158 25.437C81.5701 28.2278 75.7004 32.7367 77.8747 35.3992C80.3815 38.4688 89.293 32.1347 89.293 32.1347C89.293 32.1347 83.4566 37.0943 85.8023 39.6469C88.4805 42.5615 93.9533 37.4156 93.9533 37.4156C93.9533 37.4156 86.2245 44.6782 89.2365 47.8394C90.6132 49.2842 93.2772 48.2891 95.3009 46.4349C97.4899 44.4292 107.677 34.5456 103.616 30.1576Z" fill="#22093A" stroke="#22093A" stroke-miterlimit="10" stroke-linecap="round" stroke-linejoin="round"/>
<path d="M113.311 53.4539C115.035 51.5717 112.23 41.7335 105.959 40.9679C101.867 40.4684 87.9471 41.9883 88.6634 48.6183C89.3797 55.2483 92.5113 60.1355 95.9258 59.0658C99.3402 57.9961 96.8188 49.9752 96.8188 49.9752C96.8188 49.9752 99.4782 56.7003 103.094 55.8316C106.71 54.9629 103.114 48.1791 103.114 48.1791C103.114 48.1791 108.686 58.504 113.311 53.4539Z" fill="#22093A" stroke="#22093A" stroke-miterlimit="10" stroke-linecap="round" stroke-linejoin="round"/>
<path d="M85.7513 79.9949C83.8608 82.2124 85.9081 84.9703 86.9856 87.509C84.5866 86.764 81.6639 85.0634 79.8361 87.2541C77.7233 89.7863 79.69 94.5054 82.9422 98.7871C86.4706 103.433 91.9472 109.046 94.4776 106.426C97.3948 103.406 89.6183 94.8189 89.6183 94.8189C89.6183 94.8189 95.5649 100.341 97.9583 97.5549C100.691 94.3732 94.5937 89.2564 94.5937 89.2564C94.5937 89.2564 103.2 96.483 106.15 92.9193C107.499 91.2905 106.12 88.6115 103.916 86.7134C101.532 84.6602 89.8618 75.1734 85.7513 79.9949Z" fill="#22093A" stroke="#22093A" stroke-miterlimit="10" stroke-linecap="round" stroke-linejoin="round"/>
<path d="M71.8791 113.722C73.8343 115.363 83.5417 112.134 84.0347 105.836C84.3564 101.726 82.2345 87.8852 75.6418 88.8882C69.0491 89.8912 64.3022 93.2318 65.5189 96.5967C66.7356 99.9616 74.6397 97.0948 74.6397 97.0948C74.6397 97.0948 68.0362 100.043 69.0608 103.618C70.0854 107.193 76.707 103.307 76.707 103.307C76.707 103.307 66.6333 109.32 71.8791 113.722Z" fill="#22093A" stroke="#22093A" stroke-miterlimit="10" stroke-linecap="round" stroke-linejoin="round"/>
<path d="M53.6587 110.101C53.8603 112.781 55.6762 115.857 61.5095 115.174C68.2696 114.383 71.0218 106.342 64.4854 103.701C56.7823 100.589 59.4287 96.9599 62.8648 99.161C67.914 102.396 71.7875 94.2893 65.4551 91.5413C59.1226 88.7933 52.5026 92.8579 51.8873 96.8557C50.7217 104.429 56.5172 105.411 59.2283 106.481C59.2283 106.481 53.3511 106.012 53.6587 110.101Z" fill="#22093A" stroke="#22093A" stroke-miterlimit="10" stroke-linecap="round" stroke-linejoin="round"/>
<path d="M39.7954 111.641C35.9977 110.46 31.7048 104.718 34.7981 97.6338C37.8913 90.5494 43.8514 88.9543 47.9955 90.2761C51.7345 91.4688 55.5728 96.1071 52.531 103.754C50.0389 110.018 45.3735 113.375 39.7954 111.641Z" fill="#22093A" stroke="#22093A" stroke-miterlimit="10" stroke-linecap="round" stroke-linejoin="round"/>
<path d="M41.3218 105.828C40.6816 105.901 40.4526 104.218 41.8774 100.932C43.3021 97.6473 44.6939 96.1498 45.3888 96.083C46.0157 96.0228 46.2761 97.3294 44.7987 100.832C43.5884 103.702 42.2621 105.72 41.3218 105.828Z" fill="#22093A" stroke="#22093A" stroke-miterlimit="10" stroke-linecap="round" stroke-linejoin="round"/>
<path d="M17.4781 93.4652C19.3463 95.4833 22.1584 93.871 24.6574 93.1432C23.6926 95.3088 21.7742 97.8589 23.6242 99.8154C25.7625 102.077 30.4038 100.758 34.7779 98.1857C39.5235 95.395 45.3932 90.886 43.2189 88.2235C40.7121 85.1539 31.8006 91.488 31.8006 91.488C31.8006 91.488 37.637 86.5285 35.2914 83.9758C32.6131 81.0613 27.1403 86.2071 27.1403 86.2071C27.1403 86.2071 34.8691 78.9445 31.8571 75.7833C30.4804 74.3385 27.8164 75.3336 25.7928 77.1878C23.6037 79.1936 13.4161 89.0771 17.4781 93.4652Z" fill="#22093A" stroke="#22093A" stroke-miterlimit="10" stroke-linecap="round" stroke-linejoin="round"/>
<path d="M8.49974 69.4906C6.77583 71.3728 9.58076 81.211 15.852 81.9766C19.9441 82.4761 33.8637 80.9562 33.1474 74.3262C32.4311 67.6962 29.2995 62.809 25.885 63.8787C22.4705 64.9484 24.992 72.9693 24.992 72.9693C24.992 72.9693 22.3325 66.2442 18.7167 67.1129C15.1009 67.9816 18.6964 74.7654 18.6964 74.7654C18.6964 74.7654 13.125 64.4405 8.49974 69.4906Z" fill="#22093A" stroke="#22093A" stroke-miterlimit="10" stroke-linecap="round" stroke-linejoin="round"/>
<path d="M92.6977 81.0908C95.6594 81.7129 109.949 84.1902 111.427 76.7612C112.196 72.8944 108.435 69.3047 103.757 66.952C98.682 64.3995 90.7683 62.1085 89.9095 65.108C89.2283 67.487 92.2361 69.7341 95.4555 71.4008C95.4024 71.522 94.6816 73.3478 94.6816 73.3478C91.2894 73.2867 87.0167 73.6048 87.047 75.9293C87.0796 78.4267 89.9598 80.5157 92.6977 81.0908ZM98.7925 72.8981C101.228 73.9582 102.281 74.2085 102.281 74.2085C102.281 74.2085 101.074 74.1486 98.4048 73.8972L98.7925 72.8981Z" fill="#22093A" stroke="#22093A" stroke-miterlimit="10" stroke-linecap="round" stroke-linejoin="round"/>
<path d="M105.755 22.2444C108.962 22.2444 111.562 19.6444 111.562 16.4371C111.562 13.2299 108.962 10.6299 105.755 10.6299C102.547 10.6299 99.9473 13.2299 99.9473 16.4371C99.9473 19.6444 102.547 22.2444 105.755 22.2444Z" fill="white"/>
<path d="M105.754 13.3232L104.156 16.4371L105.754 18.035L107.353 16.4371L105.754 13.3232Z" fill="#FCC707"/>
<path d="M105.754 22.9653C105.379 22.9653 105.065 22.6753 105.037 22.3001C104.669 17.572 104.62 17.5241 99.891 17.156C99.5166 17.1264 99.2266 16.8139 99.2266 16.4373C99.2266 16.0607 99.5166 15.7482 99.891 15.7186C104.62 15.3498 104.669 15.3019 105.037 10.5739C105.065 10.1987 105.379 9.90869 105.754 9.90869C106.13 9.90869 106.444 10.198 106.472 10.5732C106.841 15.3019 106.891 15.3498 111.618 15.7186C111.992 15.7482 112.282 16.0607 112.282 16.4373C112.282 16.8139 111.992 17.1264 111.618 17.156C106.891 17.5241 106.841 17.572 106.472 22.3008C106.444 22.676 106.13 22.9653 105.754 22.9653ZM104.157 16.4373C104.928 16.7703 105.421 17.2637 105.754 18.0352C106.088 17.263 106.581 16.771 107.354 16.4373C106.581 16.1037 106.088 15.611 105.754 14.8388C105.421 15.6102 104.928 16.1037 104.157 16.4373Z" fill="#22093A"/>
<path d="M12.5242 110.38C16.6549 110.38 20.0034 107.031 20.0034 102.901C20.0034 98.77 16.6549 95.4214 12.5242 95.4214C8.3935 95.4214 5.04492 98.77 5.04492 102.901C5.04492 107.031 8.3935 110.38 12.5242 110.38Z" fill="white"/>
<path d="M12.5245 100.278L9.90234 102.901L12.5252 105.524L15.1474 102.901L12.5245 100.278Z" fill="#FCC707"/>
<path d="M12.5239 111.101C12.1473 111.101 11.8348 110.811 11.8052 110.437C11.3224 104.23 11.1949 104.102 4.9894 103.619C4.61422 103.591 4.32422 103.277 4.32422 102.901C4.32422 102.525 4.61352 102.211 4.9887 102.183C11.1949 101.699 11.3224 101.571 11.8052 95.3652C11.8348 94.9907 12.1473 94.7007 12.5239 94.7007C12.9005 94.7007 13.213 94.9907 13.2426 95.3652C13.7255 101.571 13.8529 101.699 20.0598 102.183C20.435 102.211 20.7243 102.525 20.7243 102.901C20.7243 103.277 20.4343 103.591 20.0591 103.619C13.8529 104.102 13.7255 104.23 13.2426 110.437C13.213 110.811 12.9005 111.101 12.5239 111.101ZM9.90189 102.901C11.3012 103.363 12.0614 104.123 12.5239 105.524C12.9871 104.123 13.7466 103.363 15.1466 102.901C13.7466 102.438 12.9871 101.678 12.5239 100.278C12.0614 101.678 11.3012 102.438 9.90189 102.901Z" fill="#22093A"/>
<path d="M26.5932 40.7685C23.6315 40.1464 9.34191 37.6691 7.86398 45.0981C7.09466 48.9648 10.8561 52.5546 15.5338 54.9072C20.6088 57.4598 28.5226 59.7508 29.3814 56.7513C30.0626 54.3723 27.0548 52.1251 23.8353 50.4585C23.8884 50.3373 24.6092 48.5114 24.6092 48.5114C28.0015 48.5726 32.2741 48.2545 32.2438 45.93C32.2113 43.4326 29.3311 41.3436 26.5932 40.7685ZM20.4984 48.9612C18.0626 47.901 17.01 47.6508 17.01 47.6508C17.01 47.6508 18.2167 47.7106 20.886 47.9621L20.4984 48.9612Z" fill="#35CCAD" stroke="#22093A" stroke-miterlimit="10" stroke-linecap="round" stroke-linejoin="round"/>
<path d="M34.4758 42.2188C36.2138 39.8799 33.9866 37.2651 32.7418 34.8041C35.1852 35.3871 38.215 36.8884 39.8923 34.5803C41.8311 31.9126 39.5532 27.3355 36.022 23.2809C32.1908 18.8818 26.351 13.6467 24.0015 16.4301C21.2928 19.639 29.6261 27.6866 29.6261 27.6866C29.6261 27.6866 23.3235 22.574 21.1219 25.5145C18.608 28.8718 25.0338 33.5694 25.0338 33.5694C25.0338 33.5694 15.9638 26.9345 13.2582 30.6875C12.0216 32.4028 13.577 34.9836 15.9024 36.73C18.418 38.6192 30.6968 47.3044 34.4758 42.2188Z" fill="#35CCAD" stroke="#22093A" stroke-miterlimit="10" stroke-linecap="round" stroke-linejoin="round"/>
<path d="M49.3821 7.0296C47.4269 5.3889 37.7195 8.61765 37.2265 14.9162C36.9048 19.026 39.0267 32.8667 45.6194 31.8637C52.2121 30.8607 56.959 27.5202 55.7423 24.1553C54.5256 20.7904 46.6215 23.6571 46.6215 23.6571C46.6215 23.6571 53.225 20.7087 52.2004 17.1339C51.1758 13.5592 44.5542 17.4453 44.5542 17.4453C44.5542 17.4453 54.6279 11.4317 49.3821 7.0296Z" fill="#35CCAD" stroke="#22093A" stroke-miterlimit="10" stroke-linecap="round" stroke-linejoin="round"/>
<path d="M67.893 10.7874C67.9252 8.10055 66.3838 4.87781 60.5131 5.05114C53.7098 5.252 50.2688 13.0226 56.5509 16.2219C63.9541 19.9923 61.0022 23.3775 57.7705 20.8859C53.0217 17.2245 48.458 24.9632 54.5274 28.2515C60.5969 31.5397 67.5453 28.0662 68.506 24.137C70.3257 16.6942 64.6375 15.212 62.0298 13.91C62.0298 13.91 67.8439 14.8884 67.893 10.7874Z" fill="#35CCAD" stroke="#22093A" stroke-miterlimit="10" stroke-linecap="round" stroke-linejoin="round"/>
<path d="M80.6741 9.04632C84.4718 10.2272 88.7647 15.9691 85.6714 23.0535C82.5781 30.138 76.6181 31.7331 72.474 30.4113C68.735 29.2186 64.8967 24.5803 67.9385 16.9338C70.4305 10.6693 75.096 7.31191 80.6741 9.04632Z" fill="#35CCAD" stroke="#22093A" stroke-miterlimit="10" stroke-linecap="round" stroke-linejoin="round"/>
<path d="M79.1461 14.8597C79.7863 14.7863 80.0152 16.4698 78.5905 19.755C77.1658 23.0401 75.7739 24.5376 75.0791 24.6044C74.4521 24.6646 74.1918 23.358 75.6692 19.855C76.8795 16.9851 78.2057 14.9676 79.1461 14.8597Z" fill="#22093A" stroke="#22093A" stroke-miterlimit="10" stroke-linecap="round" stroke-linejoin="round"/>
<path d="M101.977 28.8031C100.109 26.7849 97.2965 28.3972 94.7976 29.125C95.7624 26.9595 97.6808 24.4093 95.8308 22.4529C93.6924 20.1915 89.0512 21.5103 84.6771 24.0825C79.9315 26.8733 74.0617 31.3822 76.2361 34.0447C78.7428 37.1143 87.6543 30.7803 87.6543 30.7803C87.6543 30.7803 81.8179 35.7398 84.1636 38.2924C86.8419 41.207 92.3147 36.0611 92.3147 36.0611C92.3147 36.0611 84.5858 43.3238 87.5979 46.4849C88.9745 47.9297 91.6385 46.9346 93.6622 45.0804C95.8512 43.0747 106.039 33.1911 101.977 28.8031Z" fill="#35CCAD" stroke="#22093A" stroke-miterlimit="10" stroke-linecap="round" stroke-linejoin="round"/>
<path d="M111.672 52.0994C113.396 50.2172 110.591 40.379 104.32 39.6134C100.228 39.1139 86.3084 40.6338 87.0247 47.2638C87.741 53.8938 90.8726 58.781 94.2871 57.7113C97.7016 56.6416 95.1801 48.6207 95.1801 48.6207C95.1801 48.6207 97.8395 55.3458 101.455 54.4771C105.071 53.6084 101.476 46.8246 101.476 46.8246C101.476 46.8246 107.047 57.1495 111.672 52.0994Z" fill="#35CCAD" stroke="#22093A" stroke-miterlimit="10" stroke-linecap="round" stroke-linejoin="round"/>
<path d="M84.1126 78.6404C82.2221 80.8579 84.2694 83.6158 85.3469 86.1545C82.9479 85.4095 80.0253 83.7089 78.1974 85.8996C76.0846 88.4318 78.0513 93.1509 81.3035 97.4326C84.8319 102.078 90.3086 107.692 92.8389 105.072C95.7562 102.051 87.9797 93.4644 87.9797 93.4644C87.9797 93.4644 93.9262 98.987 96.3196 96.2004C99.0523 93.0187 92.955 87.9019 92.955 87.9019C92.955 87.9019 101.561 95.1285 104.512 91.5648C105.86 89.936 104.481 87.257 102.277 85.3589C99.8938 83.3058 88.2232 73.8189 84.1126 78.6404Z" fill="#9736FF" stroke="#22093A" stroke-miterlimit="10" stroke-linecap="round" stroke-linejoin="round"/>
<path d="M70.2404 112.368C72.1956 114.009 81.903 110.78 82.396 104.481C82.7177 100.371 80.5958 86.5308 74.0031 87.5338C67.4104 88.5368 62.6636 91.8773 63.8802 95.2422C65.0969 98.6071 73.001 95.7403 73.001 95.7403C73.001 95.7403 66.3975 98.6888 67.4221 102.264C68.4467 105.838 75.0683 101.952 75.0683 101.952C75.0683 101.952 64.9946 107.966 70.2404 112.368Z" fill="#9736FF" stroke="#22093A" stroke-miterlimit="10" stroke-linecap="round" stroke-linejoin="round"/>
<path d="M52.0201 108.989C52.2216 111.668 54.0375 114.745 59.8709 114.061C66.631 113.27 69.3832 105.229 62.8467 102.588C55.1436 99.4761 57.79 95.8471 61.2261 98.0482C66.2754 101.283 70.1488 93.1765 63.8164 90.4285C57.484 87.6805 50.8639 91.7451 50.2486 95.7429C49.083 103.316 54.8786 104.298 57.5896 105.368C57.5896 105.368 51.7124 104.899 52.0201 108.989Z" fill="#9736FF" stroke="#22093A" stroke-miterlimit="10" stroke-linecap="round" stroke-linejoin="round"/>
<path d="M38.1567 110.287C34.359 109.106 30.0661 103.364 33.1594 96.2793C36.2527 89.1949 42.2127 87.5998 46.3568 88.9216C50.0958 90.1143 53.9341 94.7526 50.8923 102.399C48.4003 108.664 43.7348 112.021 38.1567 110.287Z" fill="#9736FF" stroke="#22093A" stroke-miterlimit="10" stroke-linecap="round" stroke-linejoin="round"/>
<path d="M39.6831 104.473C39.0429 104.547 38.814 102.863 40.2387 99.578C41.6634 96.2928 43.0553 94.7953 43.7501 94.7285C44.3771 94.6683 44.6374 95.9749 43.16 99.4779C41.9497 102.348 40.6235 104.365 39.6831 104.473Z" fill="#22093A" stroke="#22093A" stroke-miterlimit="10" stroke-linecap="round" stroke-linejoin="round"/>
<path d="M15.8395 92.1107C17.7076 94.1288 20.5197 92.5165 23.0187 91.7887C22.0539 93.9543 20.1355 96.5044 21.9855 98.4609C24.1239 100.722 28.7651 99.4034 33.1392 96.8312C37.8848 94.0405 43.7545 89.5315 41.5802 86.869C39.0734 83.7994 30.162 90.1335 30.162 90.1335C30.162 90.1335 35.9984 85.174 33.6527 82.6213C30.9744 79.7068 25.5016 84.8526 25.5016 84.8526C25.5016 84.8526 33.2304 77.59 30.2184 74.4288C28.8418 72.984 26.1778 73.9791 24.1541 75.8333C21.965 77.8391 11.7775 87.7226 15.8395 92.1107Z" fill="#9736FF" stroke="#22093A" stroke-miterlimit="10" stroke-linecap="round" stroke-linejoin="round"/>
<path d="M6.86107 68.1361C5.13716 70.0183 7.94209 79.8565 14.2133 80.6221C18.3054 81.1216 32.225 79.6017 31.5087 72.9717C30.7924 66.3418 27.6608 61.4546 24.2463 62.5242C20.8318 63.5939 23.3533 71.6148 23.3533 71.6148C23.3533 71.6148 20.6939 64.8897 17.0781 65.7584C13.4622 66.6271 17.0577 73.4109 17.0577 73.4109C17.0577 73.4109 11.4864 63.086 6.86107 68.1361Z" fill="#9736FF" stroke="#22093A" stroke-miterlimit="10" stroke-linecap="round" stroke-linejoin="round"/>
<path d="M91.059 79.7363C94.0207 80.3584 108.31 82.8357 109.788 75.4067C110.558 71.5399 106.796 67.9502 102.118 65.5976C97.0434 63.045 89.1296 60.754 88.2708 63.7535C87.5896 66.1325 90.5974 68.3796 93.8169 70.0463C93.7638 70.1675 93.043 71.9933 93.043 71.9933C89.6507 71.9322 85.3781 72.2503 85.4084 74.5748C85.4409 77.0722 88.3211 79.1612 91.059 79.7363ZM97.1538 71.5436C99.5896 72.6038 100.642 72.854 100.642 72.854C100.642 72.854 99.4355 72.7942 96.7662 72.5427L97.1538 71.5436Z" fill="#9736FF" stroke="#22093A" stroke-miterlimit="10" stroke-linecap="round" stroke-linejoin="round"/>
<path d="M46.4076 73.0423C47.622 78.0155 52.8752 87.05 63.8484 85.1745C72.4191 83.7097 75.4799 78.5647 77.3634 75.0814C79.1704 71.7395 83.4658 59.8541 79.1803 56.6664C75.1546 53.6718 74.5865 60.5649 72.0758 63.4635C69.4441 66.5018 66.5888 65.7279 65.2306 62.1637C63.9211 58.7273 64.0035 54.3034 67.7205 54.845C70.5763 55.2611 71.5175 61.4842 73.8667 59.3287C77.9242 55.6058 71.8939 43.1595 64.6922 44.5659C59.5369 45.5726 57.7876 54.1317 58.2741 52.0617C59.3507 47.4805 54.3759 37.5291 50.6017 37.3184C44.5021 36.9779 47.5583 45.5916 47.5583 45.5916C47.5583 45.5916 44.4214 42.2198 42.3999 44.7156C40.5146 47.0431 42.4021 51.8565 42.4021 51.8565C42.4021 51.8565 39.4187 51.6763 39.4594 54.1387C39.5001 56.601 42.4382 58.1799 44.2304 63.4662C45.0918 66.0072 46.4076 73.0423 46.4076 73.0423Z" fill="#FCC707" stroke="#22093A" stroke-miterlimit="10" stroke-linecap="round" stroke-linejoin="round"/>
<path d="M42.4023 51.8564C43.5529 52.6618 45.0387 54.8605 45.9191 56.3516C47.4857 59.0051 48.774 63.8746 48.774 63.8746" stroke="#22093A" stroke-miterlimit="10" stroke-linecap="round" stroke-linejoin="round"/>
<path d="M47.2246 45.2529C47.2246 45.2529 49.5704 47.8991 50.5553 51.0506C52.2967 56.6228 52.4895 57.9843 52.8262 60.5626" stroke="#22093A" stroke-miterlimit="10" stroke-linecap="round" stroke-linejoin="round"/>
<path d="M58.8419 50.2251C58.042 52.3242 57.507 55.4285 57.6786 57.973" stroke="#22093A" stroke-miterlimit="10" stroke-linecap="round" stroke-linejoin="round"/>
<path d="M14.6436 42.7959C12.3782 42.7959 8.85346 45.0611 11.1527 48.529" stroke="white" stroke-miterlimit="10" stroke-linecap="round" stroke-linejoin="round"/>
<path d="M18.9483 32.9153C16.2501 31.4881 15.191 32.8606 16.3049 34.2291" stroke="white" stroke-miterlimit="10" stroke-linecap="round" stroke-linejoin="round"/>
<path d="M26.8741 18.6562C25.9127 18.8205 26.5136 19.8649 26.5136 19.8649" stroke="white" stroke-miterlimit="10" stroke-linecap="round" stroke-linejoin="round"/>
<path d="M44.806 9.9585C43.7074 10.3644 39.4064 11.9877 39.6848 16.2242" stroke="white" stroke-miterlimit="10" stroke-linecap="round" stroke-linejoin="round"/>
<path d="M60.5728 7.65072C59.1739 7.18165 55.916 9.07405 55.916 11.2091" stroke="white" stroke-miterlimit="10" stroke-linecap="round" stroke-linejoin="round"/>
<path d="M54.9929 22.7759C54.4455 23.2709 54.2361 24.3719 54.6193 25.372" stroke="white" stroke-miterlimit="10" stroke-linecap="round" stroke-linejoin="round"/>
<path d="M77.6089 11.2221C75.9703 11.0254 72.8092 13.0641 71.5508 15.4374" stroke="white" stroke-miterlimit="10" stroke-linecap="round" stroke-linejoin="round"/>
<path d="M82.7575 28.2588C81.3704 28.9426 79.6164 30.7477 79.2891 31.1864" stroke="white" stroke-miterlimit="10" stroke-linecap="round" stroke-linejoin="round"/>
<path d="M93.9573 24.4107C93.5741 23.5287 91.585 23.4958 89.8516 24.4107" stroke="white" stroke-miterlimit="10" stroke-linecap="round" stroke-linejoin="round"/>
<path d="M94.029 43.6323C92.0287 44.3016 89.8316 45.6666 89.8716 47.3121C89.9117 48.9575 90.549 50.6828 90.549 50.6828" stroke="white" stroke-miterlimit="10" stroke-linecap="round" stroke-linejoin="round"/>
<path d="M9.77341 70.2715C8.98989 71.0322 9.77431 73.0764 10.4876 74.0237" stroke="#D9BBFF" stroke-miterlimit="10" stroke-linecap="round" stroke-linejoin="round"/>
<path d="M19.8144 85.1821C18.9519 86.0572 17.5685 88.7035 18.2738 89.8106" stroke="#D9BBFF" stroke-miterlimit="10" stroke-linecap="round" stroke-linejoin="round"/>
<path d="M35.5373 98.4229C34.7161 100.127 34.9625 102.729 35.5373 104.125" stroke="#D9BBFF" stroke-miterlimit="10" stroke-linecap="round" stroke-linejoin="round"/>
<path d="M59.5905 92.3086C56.849 92.3086 55.0928 93.4873 54.1074 94.3435" stroke="#D9BBFF" stroke-miterlimit="10" stroke-linecap="round" stroke-linejoin="round"/>
<path d="M71.998 90.9379C71.998 90.9379 73.9611 90.2233 74.9613 90.32C76.5959 90.478 77.1536 91.8457 77.4087 92.6813" stroke="#D9BBFF" stroke-miterlimit="10" stroke-linecap="round" stroke-linejoin="round"/>
<path d="M90.4483 74.5588C89.6287 74.5259 86.9613 74.5872 88.9885 76.2418" stroke="#D9BBFF" stroke-miterlimit="10" stroke-linecap="round" stroke-linejoin="round"/>
<path d="M93.6549 64.7244C92.9745 64.7244 89.905 64.2895 91.7799 65.9698" stroke="#D9BBFF" stroke-miterlimit="10" stroke-linecap="round" stroke-linejoin="round"/>
<path d="M84.0662 89.0675C83.1219 88.5001 81.6438 87.584 80.4531 88.0653" stroke="#D9BBFF" stroke-miterlimit="10" stroke-linecap="round" stroke-linejoin="round"/>
<path d="M51.2458 40.5463C49.8534 40.1456 48.9987 40.5222 49.4036 42.8082" stroke="white" stroke-miterlimit="10" stroke-linecap="round" stroke-linejoin="round"/>
<path d="M49.1582 70.7153C49.1582 70.7153 49.6035 75.5536 53.2511 78.9373" stroke="white" stroke-miterlimit="10" stroke-linecap="round" stroke-linejoin="round"/>
<path d="M55.3066 80.6333C56.5155 81.532 57.5707 82.0644 58.9924 82.4307" stroke="white" stroke-miterlimit="10" stroke-linecap="round" stroke-linejoin="round"/>
</g>
<defs>
<clipPath id="clip0_5_10986">
<rect width="120" height="121.061" fill="white"/>
</clipPath>
</defs>
</svg>
