<svg width="120" height="74" viewBox="0 0 120 74" fill="none" xmlns="http://www.w3.org/2000/svg">
<g clip-path="url(#clip0_5_10995)">
<path opacity="0.5" d="M119.069 33.7346C120.53 22.4527 120.62 15.0285 116.759 10.4651C116.668 10.3577 116.573 10.2512 116.478 10.1469C116.067 9.29951 115.554 8.50593 114.949 7.78416C112.424 5.07022 108.856 3.56945 105.15 3.66234C99.7287 3.41474 94.6249 6.22306 91.9325 10.9352C91.6545 10.6357 91.3714 10.342 91.0831 10.0542C85.5931 4.58358 78.0075 1.42787 71.2867 1.83317C65.7183 2.05096 60.3586 4.01028 55.9626 7.43513C54.2919 4.93862 51.5788 3.33487 48.5862 3.0748C44.1339 2.67645 39.7138 4.12738 36.3638 7.0869C34.2857 8.95584 32.5821 11.2031 31.3441 13.7089C29.5587 11.727 27.4035 10.1128 24.9994 8.95705C21.4536 7.27978 17.376 7.12551 13.7136 8.53009C2.53742 12.7236 0.584665 41.5805 3.29103 55.2715C3.89905 59.3624 5.52179 63.236 8.01121 66.5387C11.3809 72.6742 16.1613 73.6139 18.7673 73.6139H18.772L19.1318 73.6086C23.3293 73.5442 27.2866 71.6387 29.9543 68.3973C30.9632 67.1731 31.8045 65.82 32.456 64.3736C38.0132 70.5308 43.4252 71.35 47.2991 70.7392C51.2157 69.9977 54.5901 67.5318 56.4861 64.0254C61.2123 67.9319 67.2156 69.9538 73.3422 69.7022C78.2562 69.4358 83.0113 67.8684 87.1205 65.1604C87.224 65.2871 87.329 65.4122 87.4386 65.5365C87.6396 65.9359 87.8613 66.3245 88.1027 66.7009C90.0686 69.7665 93.1794 71.918 96.7415 72.6758C104.151 74.2743 111.454 69.5635 113.052 62.1539C113.82 58.594 113.142 54.8749 111.167 51.8153C111.11 51.7273 111.053 51.6401 110.992 51.5528C114.544 48.5445 117.843 43.195 119.069 33.7346Z" fill="#231F20"/>
<path d="M116.864 31.9363C118.325 20.6544 118.414 13.2302 114.554 8.66677C114.463 8.55944 114.368 8.45289 114.273 8.34865C113.862 7.50122 113.349 6.70764 112.744 5.98587C110.219 3.27196 106.651 1.77122 102.945 1.86411C97.5237 1.61651 92.4199 4.42483 89.7275 9.13701C89.4495 8.83741 89.1664 8.54374 88.8781 8.25598C83.3881 2.78529 75.8025 -0.370487 69.0816 0.034833C63.5133 0.252628 58.1535 2.21196 53.7575 5.63679C52.0869 3.1403 49.3738 1.53656 46.3812 1.27651C41.9289 0.878159 37.5088 2.32908 34.1588 5.28861C32.0806 7.15756 30.3771 9.40484 29.139 11.9106C27.3536 9.92868 25.1984 8.31453 22.7943 7.15876C19.2484 5.48149 15.1709 5.32722 11.5085 6.7318C0.33234 10.9253 -1.62043 39.7822 1.08597 53.4732C1.69398 57.5641 3.31672 61.4377 5.80613 64.7404C9.1758 70.876 13.9562 71.8157 16.5622 71.8157H16.5668L16.9267 71.8103C21.1242 71.7459 25.0814 69.8404 27.7491 66.599C28.7581 65.3749 29.5994 64.0217 30.2509 62.5753C35.808 68.7325 41.2201 69.5517 45.0939 68.9409C49.0106 68.1994 52.385 65.7335 54.281 62.2271C59.0072 66.1337 65.0106 68.1555 71.1371 67.9039C76.0512 67.6375 80.8062 66.0701 84.9154 63.3621C85.0189 63.4888 85.1239 63.6139 85.2335 63.7382C85.4345 64.1376 85.6562 64.5262 85.8976 64.9026C87.8635 67.9682 90.9743 70.1197 94.5364 70.8775C101.946 72.476 109.249 67.7652 110.847 60.3555C111.615 56.7957 110.937 53.0766 108.962 50.0171C108.905 49.9291 108.847 49.8418 108.787 49.7546C112.339 46.7462 115.638 41.3967 116.864 31.9363Z" fill="white"/>
<path d="M71.2707 9.03078C80.3894 8.51152 94.2468 17.4028 93.3003 35.1306C92.3539 52.8584 80.8205 61.0895 70.8433 61.5844C61.8412 62.0309 49.8505 55.1471 50.2336 36.252C50.5474 20.7719 57.8771 9.79346 71.2707 9.03078Z" fill="#22093A" stroke="#22093A" stroke-linecap="round" stroke-linejoin="round"/>
<path d="M72.6684 22.7641C73.9861 22.0904 75.8345 25.5268 75.4164 33.7396C74.9982 41.9524 73.211 46.2941 71.7704 46.9974C70.4705 47.6319 68.8583 45.0316 69.2141 36.3078C69.5056 29.1607 70.733 23.7535 72.6684 22.7641Z" fill="#22093A" stroke="#22093A" stroke-linecap="round" stroke-linejoin="round"/>
<path d="M15.5593 15.3351C6.9625 18.5604 3.95812 65.8896 16.747 65.4863C29.5358 65.083 26.0575 41.7995 26.0575 41.7995C26.0575 41.7995 33.4161 64.3742 44.1294 62.6905C56.4105 60.7605 57.571 11.0223 47.7243 10.2642C34.4567 9.24262 33.2047 30.5016 33.2047 30.5016C33.2047 30.5016 26.2198 11.3355 15.5593 15.3351Z" fill="#22093A" stroke="#22093A" stroke-linecap="round" stroke-linejoin="round"/>
<path d="M104.527 10.8654C100.308 10.7042 95.0502 12.6815 92.0932 30.4153C89.4532 46.2485 95.6785 47.1594 97.2947 47.221C98.9108 47.2827 108.363 48.4614 110.608 31.1227C112.854 13.7841 110.778 11.1042 104.527 10.8654Z" fill="#22093A" stroke="#22093A" stroke-linecap="round" stroke-linejoin="round"/>
<path d="M97.449 64.8593C101.536 64.8593 104.849 61.5462 104.849 57.4592C104.849 53.3722 101.536 50.0591 97.449 50.0591C93.362 50.0591 90.0488 53.3722 90.0488 57.4592C90.0488 61.5462 93.362 64.8593 97.449 64.8593Z" fill="#22093A" stroke="#22093A" stroke-linecap="round" stroke-linejoin="round"/>
<path d="M69.4601 6.34816C78.5789 5.82892 92.4363 14.7202 91.4898 32.448C90.5433 50.1758 79.0099 58.4069 69.0328 58.9018C60.0307 59.3483 48.0399 52.4645 48.423 33.5694C48.7369 18.0893 56.0665 7.11084 69.4601 6.34816Z" fill="#E9022C" stroke="#22093A" stroke-linecap="round" stroke-linejoin="round"/>
<path d="M70.8579 20.0815C72.1756 19.4078 74.024 22.8442 73.6058 31.057C73.1877 39.2698 71.4005 43.6115 69.9599 44.3148C68.66 44.9493 67.0478 42.3489 67.4036 33.6252C67.6951 26.4781 68.9224 21.0709 70.8579 20.0815Z" fill="#22093A" stroke="#22093A" stroke-linecap="round" stroke-linejoin="round"/>
<path d="M13.7487 12.6525C5.15195 15.8778 2.14757 63.207 14.9364 62.8037C27.7253 62.4004 24.247 39.1169 24.247 39.1169C24.247 39.1169 31.6055 61.6915 42.3188 60.0079C54.6 58.0778 55.7604 8.33971 45.9138 7.58157C32.6462 6.56001 31.3942 27.8189 31.3942 27.8189C31.3942 27.8189 24.4093 8.65289 13.7487 12.6525Z" fill="#E9022C" stroke="#22093A" stroke-linecap="round" stroke-linejoin="round"/>
<path d="M102.717 8.18329C98.4978 8.02211 93.2396 9.99938 90.2827 27.7331C87.6427 43.5664 93.8679 44.4771 95.4841 44.5389C97.1003 44.6006 106.552 45.7792 108.798 28.4406C111.043 11.1019 108.968 8.42211 102.717 8.18329Z" fill="#E9022C" stroke="#22093A" stroke-linecap="round" stroke-linejoin="round"/>
<path d="M95.6365 62.1767C99.7234 62.1767 103.037 58.8636 103.037 54.7766C103.037 50.6896 99.7234 47.3765 95.6365 47.3765C91.5495 47.3765 88.2363 50.6896 88.2363 54.7766C88.2363 58.8636 91.5495 62.1767 95.6365 62.1767Z" fill="#E9022C" stroke="#22093A" stroke-linecap="round" stroke-linejoin="round"/>
<path d="M11.7109 52.7866C11.917 53.8726 12.1468 54.9955 12.4003 56.1554" stroke="white" stroke-linecap="round" stroke-linejoin="round"/>
<path d="M12.8817 19.999C11.5228 25.7795 8.8128 32.8345 10.8757 47.7182" stroke="white" stroke-linecap="round" stroke-linejoin="round"/>
<path d="M44.5279 10.8569C42.0058 10.8569 38.763 13.278 36.7812 19.7036" stroke="white" stroke-linecap="round" stroke-linejoin="round"/>
<path d="M72.3203 9.91535C69.164 9.24168 60.3824 10.0955 56.7793 17.7221" stroke="white" stroke-linecap="round" stroke-linejoin="round"/>
<path d="M94.8526 50.528C92.8109 50.0297 89.3879 53.6929 92.5707 57.9566" stroke="white" stroke-linecap="round" stroke-linejoin="round"/>
<path d="M93.8085 26.3755C92.8661 31.2665 92.4353 37.5885 94.8803 40.4818" stroke="white" stroke-linecap="round" stroke-linejoin="round"/>
<path d="M95.2413 20.9048C95.0373 21.4613 94.8017 22.2111 94.5625 23.097" stroke="white" stroke-linecap="round" stroke-linejoin="round"/>
<path d="M55.2773 47.0879C57.6696 51.4018 62.0203 54.2732 66.9274 54.7765" stroke="white" stroke-linecap="round" stroke-linejoin="round"/>
</g>
<defs>
<clipPath id="clip0_5_10995">
<rect width="120" height="73.6141" fill="white"/>
</clipPath>
</defs>
</svg>
