<svg width="120" height="120" viewBox="0 0 120 120" fill="none" xmlns="http://www.w3.org/2000/svg">
<path d="M33.3944 39.9442C27.7166 46.1667 25.0556 54.5674 26.1151 62.9241C27.7001 75.477 33.7536 87.6205 53.522 90.5465C69.337 92.8874 91.5285 84.0903 92.6851 60.1245C93.843 36.131 81.838 29.5849 81.838 29.5849C81.838 29.5849 82.7799 38.9451 79.7825 37.6605C76.7851 36.3759 81.3616 31.157 77.9361 25.8045C76.576 23.4741 74.7489 21.4499 72.5695 19.859C72.5695 19.859 71.0126 30.6035 68.2211 27.812C66.5797 26.1705 70.0619 22.4743 69.4673 17.8655C68.6109 11.2284 62.9354 10.9866 64.1007 5.16016C61.9597 5.58836 58.5338 11.7607 60.2285 16.8216C61.6646 21.1099 55.0898 19.462 52.1637 23.3872C49.3396 27.1757 51.6709 30.5479 49.6659 31.0947C48.0959 31.5229 46.3689 24.2323 47.6536 18.7371C43.9426 20.3786 37.8905 27.5264 38.176 35.5908C38.3249 39.7988 38.8274 45.6333 35.7644 44.1249C34.6098 43.5563 33.3944 39.9442 33.3944 39.9442Z" fill="#22093A" stroke="#22093A" stroke-linecap="round" stroke-linejoin="round"/>
<path d="M33.1659 38.4342C27.4881 44.6567 24.827 53.0574 25.8866 61.4141C27.4715 73.967 33.525 86.1105 53.2935 89.0366C69.1085 91.3774 91.2999 82.5803 92.4565 58.6145C93.6144 34.6209 81.8377 29.5848 81.8377 29.5848C81.8377 29.5848 82.5513 37.4351 79.5539 36.1505C76.5566 34.8659 81.1331 29.647 77.7075 24.2945C74.91 19.9234 72.5691 19.8589 72.5691 19.8589C72.5691 19.8589 70.7841 29.0934 67.9926 26.3019C66.3512 24.6605 69.8334 20.9643 69.2388 16.3555C68.3823 9.71851 62.9351 10.9866 64.1004 5.16016C61.9594 5.58836 58.3054 10.2508 60.0001 15.3117C61.4361 19.6 54.8613 17.9521 51.9353 21.8773C49.1111 25.6657 51.4424 29.038 49.4375 29.5848C47.8674 30.013 46.3687 24.2323 47.6533 18.7371C43.9423 20.3786 37.662 26.0165 37.9475 34.0809C38.0964 38.2888 38.5989 44.1234 35.536 42.615C34.3813 42.0463 33.1659 38.4342 33.1659 38.4342Z" fill="#FCC707" stroke="#22093A" stroke-linecap="round" stroke-linejoin="round"/>
<path d="M66.0062 16.6685C66.2377 17.9309 66.038 19.2344 65.4392 20.3697C63.85 23.5159 63.38 24.8185 64.1361 26.2515" stroke="white" stroke-linecap="round" stroke-linejoin="round"/>
<path d="M64.1367 12.2388C64.4414 12.8158 64.7652 13.4011 65.0603 14.0007" stroke="white" stroke-linecap="round" stroke-linejoin="round"/>
<path d="M29.6218 51.0308C28.9843 53.5143 28.8116 56.0942 29.1122 58.6405" stroke="white" stroke-linecap="round" stroke-linejoin="round"/>
<path d="M31.762 45.2656C31.4665 45.838 31.166 46.4817 30.877 47.1832" stroke="white" stroke-linecap="round" stroke-linejoin="round"/>
<path d="M44.8078 24.1616C43.7825 26.668 45.688 30.6553 46.4597 31.4528" stroke="white" stroke-linecap="round" stroke-linejoin="round"/>
<path d="M75.252 25.5381C76.1156 26.6782 76.5179 28.1019 76.3786 29.5254" stroke="white" stroke-linecap="round" stroke-linejoin="round"/>
<path d="M87.7363 65.0493C86.3356 70.5141 83.217 75.3846 78.8398 78.9435" stroke="#22093A" stroke-linecap="round" stroke-linejoin="round"/>
<path d="M88.7289 60.228C88.6493 60.8029 88.5455 61.4954 88.3965 62.2761" stroke="#22093A" stroke-linecap="round" stroke-linejoin="round"/>
<path d="M31.9808 16.3555C31.9808 16.3555 36.6752 18.0275 36.3983 22.7968C36.1703 26.7251 34.7392 25.0437 33.6739 30.1356C32.6128 27.0373 29.9105 25.4657 31.7235 22.7978C33.7854 19.7638 31.9808 17.4487 31.9808 16.3555Z" fill="#FCC707" stroke="#22093A" stroke-linecap="round" stroke-linejoin="round"/>
<path d="M81.5076 62.7C82.7528 46.5247 73.292 39.4497 62.0023 38.4345C53.0034 37.6254 41.5659 41.8052 39.0827 53.5046C37.1728 62.5025 37.8313 67.8053 44.1394 70.8517C44.1394 70.8517 41.9506 77.7337 45.9525 77.8889C48.7943 77.9991 50.1278 74.252 50.1278 74.252C50.1278 74.252 50.2747 78.068 52.6117 78.165C54.9487 78.2619 56.2631 73.8102 56.2631 73.8102C56.2631 73.8102 56.4865 78.5322 59.518 78.6579C62.5495 78.7836 63.2618 75.225 63.2618 75.225C63.2618 75.225 63.5433 78.7712 66.1072 78.9311C68.6845 79.0918 70.228 77.7095 70.413 73.8689C70.552 70.9828 73.9466 70.6874 77.5885 69.6678C80.9894 68.7159 81.3772 64.3941 81.5076 62.7Z" fill="#22093A" stroke="#22093A" stroke-linecap="round" stroke-linejoin="round"/>
<path d="M49.5731 73.3858C49.5731 73.3858 48.2396 77.1328 45.3978 77.0227C41.3959 76.8675 43.5847 69.9855 43.5847 69.9855C37.2766 66.9391 36.6181 61.6363 38.528 52.6384C41.0113 40.939 52.4488 36.7591 61.4477 37.5683C72.7373 38.5834 82.1982 45.6585 80.9529 61.8338C80.8225 63.5279 80.4347 67.8496 77.0339 68.8017C73.3919 69.8212 69.9973 70.1166 69.8583 73.0027C69.6733 76.8433 68.1298 78.2256 65.5525 78.0649C62.9886 77.905 62.7072 74.3588 62.7072 74.3588C62.7072 74.3588 61.9948 77.9174 58.9633 77.7917C55.9318 77.666 55.7084 72.944 55.7084 72.944C55.7084 72.944 54.394 77.3957 52.057 77.2988C49.72 77.2019 49.5731 73.3858 49.5731 73.3858Z" fill="#E6E7E8" stroke="#22093A" stroke-linecap="round" stroke-linejoin="round"/>
<path d="M50.8898 68.3603C49.1849 67.7284 50.6916 61.4511 53.487 61.567C56.2824 61.6829 56.6159 68.1651 54.8788 68.5257C54.238 68.6587 53.5852 66.6816 53.0532 66.6497C52.4788 66.6152 51.5363 68.6 50.8898 68.3603Z" fill="#22093A" stroke="#22093A" stroke-linecap="round" stroke-linejoin="round"/>
<path d="M69.4277 60.828C69.5942 56.8124 67.3762 53.4595 64.4737 53.3392C61.5711 53.2189 59.0832 56.3766 58.9167 60.3922C58.7502 64.4078 60.9682 67.7606 63.8707 67.881C66.7733 68.0013 69.2612 64.8436 69.4277 60.828Z" fill="#22093A" stroke="#22093A" stroke-linecap="round" stroke-linejoin="round"/>
<path d="M49.644 59.917C49.772 56.8315 48.0677 54.2552 45.8374 54.1627C43.6072 54.0702 41.6955 56.4966 41.5676 59.5821C41.4396 62.6676 43.1439 65.2439 45.3742 65.3364C47.6044 65.4288 49.5161 63.0025 49.644 59.917Z" fill="#22093A" stroke="#22093A" stroke-linecap="round" stroke-linejoin="round"/>
<path d="M44.6621 46.9556C47.1136 43.0777 51.3572 40.6995 55.9445 40.6328" stroke="white" stroke-linecap="round" stroke-linejoin="round"/>
<path d="M45.8594 70.8228C45.3467 72.5886 45.3775 73.5 45.8594 74.1835" stroke="white" stroke-linecap="round" stroke-linejoin="round"/>
<path d="M58.0625 73.7847C58.0625 74.81 58.4346 75.5505 59.0967 75.5505" stroke="white" stroke-linecap="round" stroke-linejoin="round"/>
<path d="M64.9414 73.7847C65.1123 74.81 65.568 75.8353 66.2515 75.8353" stroke="white" stroke-linecap="round" stroke-linejoin="round"/>
<path d="M58.0625 53.3926C61.4677 47.6394 67.5057 50.467 68.7019 52.0255" stroke="white" stroke-linecap="round" stroke-linejoin="round"/>
<path d="M42.5547 52.424C43.595 51.5341 44.9509 51.1026 46.3142 51.2278" stroke="white" stroke-linecap="round" stroke-linejoin="round"/>
<path d="M80.2009 17.3801C77.9748 16.6736 76.4407 14.6343 76.3789 12.2996C76.4243 9.09703 78.3778 9.33886 79.0626 5.16016C80.0359 7.64189 81.5597 9.89795 80.1805 12.1322C78.6119 14.6728 80.1619 16.4911 80.2009 17.3801Z" fill="#FCC707" stroke="#22093A" stroke-linecap="round" stroke-linejoin="round"/>
<path d="M89.3851 48.8111C88.3577 50.1202 88.5861 52.0144 89.8953 53.0418C90.2454 53.3165 90.6519 53.5103 91.0858 53.6092C93.424 53.9947 96.3601 51.7921 95.0486 49.3382C94.4426 47.7043 92.6267 46.8711 90.9928 47.4771C90.321 47.7263 89.754 48.1968 89.3851 48.8111Z" fill="#EC6509" stroke="#22093A" stroke-linecap="round" stroke-linejoin="round"/>
<path d="M21.9036 37.5062C21.8202 38.868 22.8565 40.0395 24.2182 40.1229C24.5823 40.1452 24.9469 40.0866 25.2856 39.9512C27.0426 39.1224 27.9977 36.2689 25.97 35.2242C24.8002 34.4041 23.1871 34.6877 22.367 35.8575C22.0298 36.3385 21.8664 36.92 21.9036 37.5062Z" fill="#EC6509" stroke="#22093A" stroke-linecap="round" stroke-linejoin="round"/>
<path d="M46.6361 9.83386C46.5527 11.1956 47.5889 12.3671 48.9507 12.4505C49.3147 12.4728 49.6793 12.4142 50.018 12.2789C51.775 11.45 52.7301 8.59654 50.7024 7.5518C49.5326 6.73177 47.9195 7.01535 47.0994 8.1852C46.7623 8.6662 46.5988 9.24763 46.6361 9.83386Z" fill="#FCC707" stroke="#22093A" stroke-linecap="round" stroke-linejoin="round"/>
<path d="M91.4471 86.9773C89.4747 87.0008 87.0673 88.0465 86.1025 96.3908C85.241 103.841 88.1672 104.12 88.9228 104.111C89.6784 104.102 94.1167 104.431 94.7588 96.2878C95.4008 88.1444 94.3696 86.9425 91.4471 86.9773Z" fill="#22093A" stroke="#22093A" stroke-linecap="round" stroke-linejoin="round"/>
<path d="M89.2348 112.343C91.1443 112.343 92.6923 110.795 92.6923 108.885C92.6923 106.976 91.1443 105.428 89.2348 105.428C87.3253 105.428 85.7773 106.976 85.7773 108.885C85.7773 110.795 87.3253 112.343 89.2348 112.343Z" fill="#22093A" stroke="#22093A" stroke-linecap="round" stroke-linejoin="round"/>
<path d="M57.4502 84.9138C64.018 84.5113 69.6687 89.5093 70.0712 96.0772C70.088 96.3517 70.0954 96.6268 70.0931 96.9019C70.4397 105.766 64.8543 110.385 59.7097 111.084C55.0679 111.714 48.532 108.832 47.8384 99.413C47.2702 91.6959 50.5486 85.9007 57.4502 84.9138Z" fill="#22093A" stroke="#22093A" stroke-linecap="round" stroke-linejoin="round"/>
<path d="M58.8228 91.6839C59.4735 91.289 60.5932 92.9151 60.7643 97.0207C60.9354 101.126 60.2146 103.368 59.5016 103.783C58.8583 104.158 57.9004 102.937 57.6729 98.5798C57.4865 95.0103 57.867 92.264 58.8228 91.6839Z" fill="#22093A" stroke="#22093A" stroke-linecap="round" stroke-linejoin="round"/>
<path d="M77.5968 85.9287C68.1476 85.4978 65.1556 87.8122 65.811 90.8886C66.7958 95.5116 72.8093 94.947 72.8093 94.947C72.8093 94.947 68.569 110.73 74.8874 111.155C82.7651 111.683 79.2406 94.6701 79.2406 94.6701C79.2406 94.6701 88.4201 95.41 88.1951 91.5454C88.0059 88.2981 83.9295 86.2174 77.5968 85.9287Z" fill="#22093A" stroke="#22093A" stroke-linecap="round" stroke-linejoin="round"/>
<path d="M43.8479 86.4195C41.0818 86.5785 39.6401 89.744 39.7784 96.6027C38.9813 96.6007 38.1253 96.644 37.2309 96.7129C36.9865 90.7509 35.8445 87.6392 32.7065 87.8197C29.6928 87.9929 28.2456 91.7214 28.7075 99.9215C29.1694 108.122 30.5915 112.882 34.5397 112.382C36.4723 112.137 37.0587 108.767 37.2245 104.266C37.6668 104.227 38.1268 104.173 38.6212 104.088C39.2488 103.981 39.8201 103.853 40.3588 103.714C41.1243 108.665 42.6635 111.364 45.6812 110.982C48.2772 110.653 48.4454 104.689 48.426 97.9139C48.4042 90.2593 47.415 86.2144 43.8479 86.4195Z" fill="#22093A" stroke="#22093A" stroke-linecap="round" stroke-linejoin="round"/>
<path d="M90.3026 86.404C88.3302 86.4275 85.9228 87.4732 84.9579 95.8176C84.0965 103.268 87.0227 103.547 87.7783 103.538C88.5339 103.529 92.9722 103.858 93.6142 95.7145C94.2563 87.5712 93.2251 86.3692 90.3026 86.404Z" fill="#E9022C" stroke="#22093A" stroke-linecap="round" stroke-linejoin="round"/>
<path d="M88.0883 111.769C89.9979 111.769 91.5458 110.221 91.5458 108.311C91.5458 106.402 89.9979 104.854 88.0883 104.854C86.1788 104.854 84.6309 106.402 84.6309 108.311C84.6309 110.221 86.1788 111.769 88.0883 111.769Z" fill="#E9022C" stroke="#22093A" stroke-linecap="round" stroke-linejoin="round"/>
<path d="M56.3037 84.3401C62.8716 83.9375 68.5222 88.9355 68.9247 95.5034C68.9416 95.778 68.9489 96.0531 68.9467 96.3282C69.2933 105.192 63.7078 109.811 58.5632 110.51C53.9214 111.14 47.3855 108.259 46.6919 98.8392C46.1237 91.1222 49.4021 85.327 56.3037 84.3401Z" fill="#E9022C" stroke="#22093A" stroke-linecap="round" stroke-linejoin="round"/>
<path d="M57.6763 91.1102C58.327 90.7152 59.4467 92.3413 59.6178 96.4469C59.7889 100.553 59.0681 102.794 58.3551 103.209C57.7118 103.584 56.7539 102.363 56.5264 98.0061C56.34 94.4366 56.7205 91.6903 57.6763 91.1102Z" fill="#22093A" stroke="#22093A" stroke-linecap="round" stroke-linejoin="round"/>
<path d="M76.4503 85.3549C67.0011 84.9241 64.0091 87.2385 64.6645 90.3149C65.6493 94.9379 71.6628 94.3733 71.6628 94.3733C71.6628 94.3733 67.4225 110.157 73.7409 110.581C81.6186 111.11 78.0941 94.0963 78.0941 94.0963C78.0941 94.0963 87.2737 94.8363 87.0486 90.9717C86.8594 87.7243 82.7831 85.6437 76.4503 85.3549Z" fill="#E9022C" stroke="#22093A" stroke-linecap="round" stroke-linejoin="round"/>
<path d="M42.7014 85.8458C39.9353 86.0048 38.4936 89.1703 38.6319 96.029C37.8348 96.027 36.9788 96.0703 36.0844 96.1392C35.8401 90.1771 34.698 87.0654 31.56 87.2459C28.5464 87.4192 27.0991 91.1476 27.561 99.3478C28.0229 107.548 29.445 112.309 33.3932 111.809C35.3258 111.564 35.9122 108.193 36.0781 103.692C36.5203 103.654 36.9803 103.599 37.4747 103.515C38.1023 103.407 38.6736 103.28 39.2123 103.14C39.9778 108.091 41.517 110.791 44.5347 110.408C47.1307 110.08 47.2989 104.115 47.2795 97.3402C47.2578 89.6855 46.2685 85.6406 42.7014 85.8458Z" fill="#E9022C" stroke="#22093A" stroke-linecap="round" stroke-linejoin="round"/>
<path d="M31.5409 89.6826C30.2487 90.2267 29.2285 93.7171 29.7726 98.8411" stroke="white" stroke-linecap="round" stroke-linejoin="round"/>
<path d="M40.9943 91.6265C40.7883 93.2354 40.7883 94.864 40.9943 96.4729" stroke="white" stroke-linecap="round" stroke-linejoin="round"/>
<path d="M49.9034 100.088C49.5633 103.273 52.2869 107.294 57.7956 107.796" stroke="white" stroke-linecap="round" stroke-linejoin="round"/>
<path d="M50.1758 91.0528C50.804 89.7456 51.798 88.6489 53.0373 87.8955" stroke="white" stroke-linecap="round" stroke-linejoin="round"/>
<path d="M87.6155 107.026C86.8382 107.441 86.5448 108.408 86.9601 109.185C86.9883 109.238 87.0193 109.289 87.0532 109.338" stroke="white" stroke-linecap="round" stroke-linejoin="round"/>
<path d="M91.5096 93.2886C91.4464 95.8935 91.1148 98.5868 90.4453 99.4149" stroke="white" stroke-linecap="round" stroke-linejoin="round"/>
<path d="M91.3223 88.9346C91.4168 89.6374 91.4748 90.3447 91.4962 91.0535" stroke="white" stroke-linecap="round" stroke-linejoin="round"/>
<path d="M72.8912 99.415C72.211 103.538 72.1749 106.119 73.8932 107.796" stroke="white" stroke-linecap="round" stroke-linejoin="round"/>
</svg>
