<svg width="120" height="120" viewBox="0 0 120 120" fill="none" xmlns="http://www.w3.org/2000/svg">
<path d="M100.428 35.2314C82.5292 23.3039 58.6637 14.9368 34.3893 19.0124C13.2101 22.5683 1.9734 36.0677 4.64144 55.4676C7.30947 74.8674 30.6131 86.3758 30.6131 86.3758L19.6133 101.775L40.9831 92.3454C40.9831 92.3454 74.6273 102.957 96.5575 96.284C117.322 89.9659 132.6 56.6711 100.428 35.2314Z" fill="#22093A" stroke="#22093A" stroke-linecap="round" stroke-linejoin="round"/>
<path d="M99.0076 34.9243C81.1092 22.9968 57.2437 14.6297 32.9694 18.7052C11.7901 22.2611 0.55348 35.7605 3.22151 55.1604C5.88955 74.5603 29.1931 86.0685 29.1931 86.0685L19.7754 101.333L40.8045 91.4905C40.8045 91.4905 73.2074 102.65 95.1375 95.9768C115.902 89.6587 131.18 56.364 99.0076 34.9243Z" fill="#EC6509" stroke="#22093A" stroke-linecap="round" stroke-linejoin="round"/>
<path d="M66.8322 21.2336C66.2321 23.3155 67.4334 25.4896 69.5153 26.0897C70.072 26.2501 70.6573 26.2853 71.2293 26.1926C74.2393 25.5152 76.7062 21.4224 73.9243 19.102C71.1425 16.7816 67.9159 17.5805 66.8322 21.2336Z" fill="#9736FF" stroke="#22093A" stroke-linecap="round" stroke-linejoin="round"/>
<path d="M31.186 25.9504C29.1261 25.9265 28.6961 27.9873 28.8773 29.5633C29.0892 31.4061 32.9158 32.7546 33.7661 29.9869C34.4544 27.7468 33.6508 25.979 31.186 25.9504Z" fill="white" stroke="#22093A" stroke-linecap="round" stroke-linejoin="round"/>
<path d="M82.6607 96.7377C82.135 98.5615 83.1874 100.466 85.0112 100.992C85.4988 101.132 86.0116 101.163 86.5126 101.082C89.1494 100.488 91.3104 96.9031 88.8735 94.8704C86.4366 92.8377 83.61 93.5376 82.6607 96.7377Z" fill="white" stroke="#22093A" stroke-linecap="round" stroke-linejoin="round"/>
<path d="M41.4241 43.5427C39.0051 43.2915 37.3162 45.988 36.4839 52.2989C35.7934 52.1826 35.0456 52.0994 34.261 52.0342C34.877 46.5305 34.3193 43.5124 31.575 43.2275C28.9395 42.9538 27.1677 46.1659 26.4295 53.7537C25.6914 61.3415 26.2628 65.9125 29.7535 66.0205C31.4622 66.0734 32.4383 63.0659 33.2069 58.9612C33.5955 58.9894 34.0016 59.0058 34.4418 58.9989C35.0006 58.9902 35.5134 58.9556 35.9995 58.905C35.9755 63.5564 36.9346 66.2531 39.6027 66.3357C41.8979 66.4067 42.8717 60.96 43.7955 54.743C44.8393 47.7187 44.5437 43.8666 41.4241 43.5427Z" fill="#22093A" stroke="#22093A" stroke-linecap="round" stroke-linejoin="round"/>
<path d="M54.1407 68.3692C56.6511 68.0878 58.5924 66.0363 58.7347 63.5141C59.1717 60.5526 60.7624 46.2948 53.3386 45.2801C49.4745 44.752 46.1552 48.6809 44.1122 53.4405C41.8956 58.6044 40.1072 66.5555 43.1203 67.224C47.9605 68.2978 51.3655 54.4637 51.3655 54.4637C51.3655 54.4637 49.34 68.7231 54.1407 68.3692Z" fill="#22093A" stroke="#22093A" stroke-linecap="round" stroke-linejoin="round"/>
<path d="M63.6576 47.3853C59.755 48.253 55.5813 68.476 61.1196 69.0799C66.6579 69.6838 66.5743 59.4337 66.5743 59.4337C66.5743 59.4337 68.374 69.6142 73.0953 69.5398C78.5077 69.4545 82.0328 48.0809 77.8337 47.1552C72.1755 45.9078 70.3429 54.9973 70.3429 54.9973C70.3429 54.9973 68.4971 46.3092 63.6576 47.3853Z" fill="#22093A" stroke="#22093A" stroke-linecap="round" stroke-linejoin="round"/>
<path d="M22.1141 41.4337C13.3792 40.3924 10.4469 42.3359 10.8459 45.2338C11.4453 49.5885 17.0612 49.4732 17.0612 49.4732C17.0612 49.4732 12.0565 63.8243 17.8881 64.6469C25.1587 65.6725 23.0451 49.6531 23.0451 49.6531C23.0451 49.6531 31.509 50.9628 31.5626 47.3631C31.6077 44.3383 27.9681 42.1316 22.1141 41.4337Z" fill="#22093A" stroke="#22093A" stroke-linecap="round" stroke-linejoin="round"/>
<path d="M81.746 48.3577C77.9388 48.6574 73.9107 69.5209 77.8258 71.2363C82.4324 73.2548 85.2134 63.7918 85.2134 63.7918C85.2134 63.7918 87.6848 72.2147 89.7995 72.8903C95.4161 74.6847 95.8519 67.5042 90.9723 60.5164C90.9723 60.5164 101.159 54.6612 95.8544 50.9276C92.1809 48.3421 86.2469 57.7809 86.2469 57.7809C86.2469 57.7809 87.0682 47.9389 81.746 48.3577Z" fill="#22093A" stroke="#22093A" stroke-linecap="round" stroke-linejoin="round"/>
<path d="M110.29 57.8687C110.661 55.2557 109.563 51.9603 103.827 51.3488C98.1798 50.7468 93.372 57.666 98.5563 61.7285C103.357 65.4902 101.139 68.7569 99.1548 66.4254C95.3375 61.9403 89.5691 69.2198 95.0652 73.1896C100.561 77.1594 107.768 74.6544 109.2 70.9487C111.913 63.9293 106.56 61.7668 104.185 60.1691C104.185 60.1691 109.724 61.8568 110.29 57.8687Z" fill="#22093A" stroke="#22093A" stroke-linecap="round" stroke-linejoin="round"/>
<path d="M40.9925 42.6838C38.5734 42.4326 36.8846 45.1291 36.0523 51.44C35.3617 51.3237 34.614 51.2405 33.8294 51.1754C34.4453 45.6717 33.8877 42.6535 31.1433 42.3686C28.5078 42.0949 26.736 45.307 25.9979 52.8948C25.2597 60.4827 25.8312 65.0536 29.3219 65.1616C31.0306 65.2145 32.0067 62.207 32.7753 58.1024C33.1639 58.1306 33.57 58.1469 34.0102 58.14C34.569 58.1313 35.0817 58.0967 35.5679 58.0461C35.5439 62.6975 36.5029 65.3943 39.171 65.4768C41.4662 65.5478 42.4401 60.1011 43.3639 53.8842C44.4077 46.8599 44.112 43.0077 40.9925 42.6838Z" fill="#F1F2F2" stroke="#22093A" stroke-linecap="round" stroke-linejoin="round"/>
<path d="M63.2259 46.5269C59.3233 47.3947 55.1496 67.6176 60.6879 68.2215C66.2262 68.8254 66.1426 58.5753 66.1426 58.5753C66.1426 58.5753 67.9423 68.7558 72.6637 68.6814C78.076 68.5961 81.6012 47.2224 77.402 46.2968C71.7439 45.0494 69.9112 54.1389 69.9112 54.1389C69.9112 54.1389 68.0653 45.4508 63.2259 46.5269Z" fill="#F1F2F2" stroke="#22093A" stroke-linecap="round" stroke-linejoin="round"/>
<path d="M21.6805 40.5753C12.9456 39.534 10.0133 41.4775 10.4123 44.3754C11.0117 48.7301 16.6276 48.6149 16.6276 48.6149C16.6276 48.6149 11.6229 62.966 17.4545 63.7886C24.7251 64.8141 22.6115 48.7947 22.6115 48.7947C22.6115 48.7947 31.0754 50.1044 31.129 46.5047C31.1741 43.4799 27.5346 41.2732 21.6805 40.5753Z" fill="#F1F2F2" stroke="#22093A" stroke-linecap="round" stroke-linejoin="round"/>
<path d="M81.3124 47.4993C77.5052 47.799 73.4771 68.6625 77.3922 70.378C81.9989 72.3964 84.7798 62.9335 84.7798 62.9335C84.7798 62.9335 87.2513 71.3564 89.3659 72.0319C94.9825 73.8263 95.4183 66.6459 90.5387 59.6581C90.5387 59.6581 100.726 53.8028 95.4208 50.0692C91.7473 47.4837 85.8133 56.9225 85.8133 56.9225C85.8133 56.9225 86.6346 47.0805 81.3124 47.4993Z" fill="#F1F2F2" stroke="#22093A" stroke-linecap="round" stroke-linejoin="round"/>
<path d="M109.857 57.0103C110.228 54.3973 109.13 51.1019 103.394 50.4904C97.7462 49.8885 92.9385 56.8077 98.1227 60.8701C102.923 64.6318 100.706 67.8985 98.7212 65.567C94.9039 61.082 89.1355 68.3615 94.6316 72.3312C100.128 76.301 107.334 73.796 108.767 70.0903C111.48 63.0709 106.127 60.9084 103.751 59.3107C103.751 59.3107 109.291 60.9984 109.857 57.0103Z" fill="#F1F2F2" stroke="#22093A" stroke-linecap="round" stroke-linejoin="round"/>
<path d="M52.9069 44.4217C49.0428 43.8936 45.7235 47.8225 43.6805 52.5821C41.464 57.7459 39.6755 65.6971 42.6886 66.3656C44.9772 66.8733 46.9441 64.0476 48.3828 60.9278L50.5454 61.3304C50.7056 64.6198 51.4544 67.6769 53.709 67.5107C56.2195 67.2294 58.1607 65.1779 58.303 62.6557C58.74 59.6941 60.3307 45.4365 52.9069 44.4217ZM50.9338 53.6053C50.9338 53.6053 50.67 55.471 50.5588 57.8336L49.6802 57.7016C50.4832 55.4306 50.9338 53.6053 50.9338 53.6053Z" fill="#F1F2F2" stroke="#22093A" stroke-linecap="round" stroke-linejoin="round"/>
<path d="M54.3205 83.1487C53.7203 85.2312 54.9219 87.4061 57.0045 88.0063C57.5613 88.1668 58.1469 88.202 58.719 88.1093C61.7299 87.4317 64.1976 83.3376 61.4149 81.0165C58.6321 78.6954 55.4046 79.4945 54.3205 83.1487Z" fill="#9736FF" stroke="#22093A" stroke-linecap="round" stroke-linejoin="round"/>
<path d="M58.5905 82.7954C57.685 83.041 57.15 83.9742 57.3956 84.8797C57.4223 84.9781 57.4578 85.0739 57.5017 85.166" stroke="white" stroke-linecap="round" stroke-linejoin="round"/>
<path d="M70.7524 20.2354C69.9796 20.4449 69.523 21.2413 69.7325 22.0141C69.7553 22.0982 69.7856 22.18 69.8231 22.2586" stroke="white" stroke-linecap="round" stroke-linejoin="round"/>
<path d="M9.9668 64.1855C10.3828 64.9717 10.8363 65.7708 11.3272 66.5831" stroke="white" stroke-linecap="round" stroke-linejoin="round"/>
<path d="M14.5822 30.3198C12.0883 32.525 10.0139 35.1629 8.45892 38.1064C6.01779 42.98 4.10998 50.6811 8.37931 60.8435" stroke="white" stroke-linecap="round" stroke-linejoin="round"/>
<path d="M22.8617 24.9863C21.4877 25.5299 20.1696 26.2051 18.9258 27.0027" stroke="white" stroke-linecap="round" stroke-linejoin="round"/>
<path d="M31.1309 89.3198L27.0195 94.3862" stroke="white" stroke-linecap="round" stroke-linejoin="round"/>
<path d="M95.9418 90.5493C94.9161 90.9576 93.8681 91.3073 92.8027 91.5966" stroke="#22093A" stroke-linecap="round" stroke-linejoin="round"/>
<path d="M108.531 80.1899C106.515 83.4217 103.793 86.1553 100.57 88.1857" stroke="#22093A" stroke-linecap="round" stroke-linejoin="round"/>
<path d="M48.0391 21.1245C48.5873 21.1565 49.1346 21.1973 49.6809 21.247" stroke="white" stroke-linecap="round" stroke-linejoin="round"/>
<path d="M27.3613 23.4112C33.3544 21.8137 39.5325 21.0164 45.7347 21.0401" stroke="white" stroke-linecap="round" stroke-linejoin="round"/>
</svg>
