<svg width="120" height="120" viewBox="0 0 120 120" fill="none" xmlns="http://www.w3.org/2000/svg">
<path d="M97.1167 107.47C97.1167 107.47 70.8834 100.366 60.6836 85.7659C50.5138 100.253 26.7342 107.619 26.7342 107.619C23.6997 86.8223 33.5881 72.9223 33.5881 72.9223C33.5881 72.9223 15.8922 58.1896 12.1602 45.691C22.872 39.5371 45.132 40.7055 45.132 40.7055C46.6361 22.1754 60.562 10.9209 60.562 10.9209C60.562 10.9209 74.9261 21.0899 75.6076 37.8039C75.6076 37.8039 103.747 37.3482 110.692 40.249C110.692 40.249 104.271 59.7194 90.7595 70.728C90.7595 70.7279 99.5575 89.1614 97.1167 107.47Z" fill="#22093A" stroke="#22093A" stroke-linecap="round" stroke-linejoin="round"/>
<path d="M95.8433 106.343C95.8433 106.343 70.946 99.3565 60.7461 84.756C50.5764 99.2426 26.6038 106.399 26.6038 106.399C23.5693 85.6027 32.3147 71.7949 32.3147 71.7949C32.3147 71.7949 14.6188 57.0621 10.8867 44.5636C21.5986 38.4096 43.8586 39.578 43.8586 39.578C45.3626 21.048 59.2885 9.79346 59.2885 9.79346C59.2885 9.79346 74.0859 21.8876 74.7673 38.6016C86.3353 38.1601 97.9201 38.6125 109.418 39.9548C109.418 39.9548 103.257 59.6688 89.7457 70.6773C89.7457 70.6773 98.284 88.0339 95.8433 106.343Z" fill="#FCC707" stroke="#22093A" stroke-linecap="round" stroke-linejoin="round"/>
<path d="M44.5393 52.665C44.5393 52.665 42.9218 61.3591 47.9765 61.7635C53.0312 62.1679 52.6268 52.665 52.6268 52.665" stroke="#22093A" stroke-linecap="round" stroke-linejoin="round"/>
<path d="M68.5988 52.6647C68.5988 52.6647 68.2505 60.7522 72.4684 60.7522C76.6863 60.7522 76.6863 51.6538 76.6863 51.6538" stroke="#22093A" stroke-linecap="round" stroke-linejoin="round"/>
<path d="M58.2866 60.27C58.2866 60.27 56.8591 66.5378 61.772 66.5378C64.8061 66.5378 64.7566 60.27 64.7566 60.27" stroke="#22093A" stroke-linecap="round" stroke-linejoin="round"/>
<path d="M78.3255 73.2385C81.4976 73.2385 84.069 70.667 84.069 67.495C84.069 64.3229 81.4976 61.7515 78.3255 61.7515C75.1535 61.7515 72.582 64.3229 72.582 67.495C72.582 70.667 75.1535 73.2385 78.3255 73.2385Z" fill="#FF897D"/>
<path d="M44.0379 76.19C47.6885 76.19 50.648 73.2305 50.648 69.5799C50.648 65.9292 47.6885 62.9697 44.0379 62.9697C40.3872 62.9697 37.4277 65.9292 37.4277 69.5799C37.4277 73.2305 40.3872 76.19 44.0379 76.19Z" fill="#FF897D"/>
<path d="M97.8341 13.7812C100.511 15.5603 88.9719 27.8015 87.7191 27.3191C86.0934 26.693 95.1568 12.002 97.8341 13.7812Z" fill="#FCC707" stroke="#22093A" stroke-linecap="round" stroke-linejoin="round"/>
<path d="M4.65474 78.0136C3.80859 74.9823 20.1801 74.0446 20.7998 75.2168C21.6039 76.7381 5.50091 81.045 4.65474 78.0136Z" fill="#FCC707" stroke="#22093A" stroke-linecap="round" stroke-linejoin="round"/>
<path d="M17.1202 16.0387C19.585 12.4649 35.8456 28.3319 35.165 30.0123C34.2817 32.1929 14.6554 19.6123 17.1202 16.0387Z" fill="#FCC707" stroke="#22093A" stroke-linecap="round" stroke-linejoin="round"/>
<path d="M114.405 74.2691C114.122 77.2909 98.7838 73.167 98.625 71.9096C98.4189 70.2778 114.687 71.2474 114.405 74.2691Z" fill="#FCC707" stroke="#22093A" stroke-linecap="round" stroke-linejoin="round"/>
<path d="M58.8695 113.223C55.2708 113.205 58.5372 94.6568 60.0059 94.3376C61.9118 93.9234 62.4683 113.241 58.8695 113.223Z" fill="#FCC707" stroke="#22093A" stroke-linecap="round" stroke-linejoin="round"/>
<path d="M35.6083 9.85551C38.1801 8.66679 39.7703 17.2466 38.8298 17.9645C37.6092 18.896 33.0366 11.0442 35.6083 9.85551Z" fill="#FCC707" stroke="#22093A" stroke-linecap="round" stroke-linejoin="round"/>
<path d="M76.0407 112.795C73.8877 113.79 72.5564 106.607 73.3438 106.006C74.3657 105.227 78.1938 111.8 76.0407 112.795Z" fill="#FCC707" stroke="#22093A" stroke-linecap="round" stroke-linejoin="round"/>
<path d="M85.5379 8.37578C87.7269 9.28928 83.3349 15.1267 82.3597 14.9529C81.0942 14.7273 83.349 7.46236 85.5379 8.37578Z" fill="#FCC707" stroke="#22093A" stroke-linecap="round" stroke-linejoin="round"/>
<path d="M11.3562 93.5748C9.78256 91.8001 16.2766 88.4544 17.0791 89.0351C18.1204 89.7887 12.9299 95.3495 11.3562 93.5748Z" fill="#FCC707" stroke="#22093A" stroke-linecap="round" stroke-linejoin="round"/>
<path d="M105.949 84.0425C106.648 82.0838 111.962 85.6595 111.855 86.5214C111.716 87.6398 105.251 86.0013 105.949 84.0425Z" fill="#FCC707" stroke="#22093A" stroke-linecap="round" stroke-linejoin="round"/>
<path d="M29.875 62.5762C31.1964 63.8821 32.2495 64.926 32.2495 64.926" stroke="white" stroke-linecap="round" stroke-linejoin="round"/>
<path d="M16.9062 46.6616C19.4302 50.8783 22.3725 54.8301 25.6885 58.4571" stroke="white" stroke-linecap="round" stroke-linejoin="round"/>
<path d="M54.0645 20.6787C55.3498 18.8595 55.7269 18.7783 55.7269 18.7783" stroke="white" stroke-linecap="round" stroke-linejoin="round"/>
<path d="M47.2383 38.6183C47.4241 33.7268 48.8771 28.9673 51.4551 24.8062" stroke="white" stroke-linecap="round" stroke-linejoin="round"/>
<path d="M43.9707 94.2268C44.5187 93.8814 45.0057 93.5558 45.4117 93.2593" stroke="white" stroke-linecap="round" stroke-linejoin="round"/>
<path d="M29.8223 101.373C33.9156 99.7036 37.893 97.7627 41.728 95.5635" stroke="white" stroke-linecap="round" stroke-linejoin="round"/>
<path d="M89.543 79.3149C90.3703 81.5441 90.9356 83.8619 91.2275 86.2217" stroke="white" stroke-linecap="round" stroke-linejoin="round"/>
<path d="M87.3691 74.6328C87.6131 75.0675 87.8944 75.5881 88.193 76.1896" stroke="white" stroke-linecap="round" stroke-linejoin="round"/>
<path d="M62.0215 17.0127C64.1846 19.2816 65.9212 21.9216 67.1481 24.8063" stroke="white" stroke-linecap="round" stroke-linejoin="round"/>
<path d="M96.6387 42.5547C97.7577 42.6271 98.7384 42.6912 99.5323 42.7311" stroke="white" stroke-linecap="round" stroke-linejoin="round"/>
<path d="M80.8203 42.236C85.1778 42.0347 89.5432 42.0841 93.895 42.3839" stroke="white" stroke-linecap="round" stroke-linejoin="round"/>
<path d="M73.1133 90.9346C78.1064 94.2483 83.3057 97.2403 88.6795 99.8926L73.1133 90.9346Z" fill="#22093A"/>
<path d="M73.1133 90.9346C78.1064 94.2483 83.3057 97.2403 88.6795 99.8926" stroke="#22093A" stroke-linecap="round" stroke-linejoin="round"/>
<path d="M68.8574 87.7593C69.451 88.2571 70.0963 88.7642 70.7817 89.2758L68.8574 87.7593Z" fill="#22093A"/>
<path d="M68.8574 87.7593C69.451 88.2571 70.0963 88.7642 70.7817 89.2758" stroke="#22093A" stroke-linecap="round" stroke-linejoin="round"/>
<path d="M93.1523 62.2406C95.3285 59.8939 97.2919 57.3586 99.0194 54.6646L93.1523 62.2406Z" fill="#22093A"/>
<path d="M93.1523 62.2406C95.3285 59.8939 97.2919 57.3586 99.0194 54.6646" stroke="#22093A" stroke-linecap="round" stroke-linejoin="round"/>
</svg>
