<svg width="120" height="120" viewBox="0 0 120 120" fill="none" xmlns="http://www.w3.org/2000/svg">
<path d="M23.8368 13.2396C20.0703 14.3556 19.0632 26.4738 23.9422 29.5574C27.6082 31.8745 44.7154 36.2213 46.8179 29.5283C48.9205 22.8353 48.1116 15.2383 42.9603 15.1538C39.1965 15.0921 38.2698 23.5409 38.2698 23.5409C38.2698 23.5409 39.3173 15.6406 35.4657 14.9547C31.6141 14.2689 31.4442 22.6201 31.4442 22.6201C31.4442 22.6201 30.7443 11.1928 23.8368 13.2396Z" fill="#22093A" stroke="#22093A" stroke-linecap="round" stroke-linejoin="round"/>
<path d="M18.4428 72.4058C14.6205 73.5384 13.5984 85.8361 18.5497 88.9654C22.2701 91.3168 39.6306 95.728 41.7643 88.9358C43.8981 82.1436 43.0772 74.4341 37.8495 74.3483C34.03 74.2857 33.0895 82.8597 33.0895 82.8597C33.0895 82.8597 34.1526 74.8423 30.2439 74.1463C26.3352 73.4503 26.1628 81.9253 26.1628 81.9253C26.1628 81.9253 25.4526 70.3287 18.4428 72.4058Z" fill="#22093A" stroke="#22093A" stroke-linecap="round" stroke-linejoin="round"/>
<path d="M37.0182 52.9116C33.3567 52.9468 15.8272 53.7364 16.0132 62.8992C16.1099 67.6684 21.4883 70.9318 27.6276 72.4951C34.2883 74.1912 44.2355 74.8399 44.4701 71.0722C44.6562 68.084 40.5176 66.211 36.2798 65.079C36.3111 64.922 36.6878 62.577 36.6878 62.577C40.7122 61.767 45.6782 60.2797 45.0377 57.5409C44.3497 54.5983 40.403 52.879 37.0182 52.9116ZM31.9473 64.1777C30.4782 63.8506 28.9862 63.6362 27.4844 63.5367C27.4844 63.5367 28.9259 63.2935 32.1455 62.8963L31.9473 64.1777Z" fill="#22093A" stroke="#22093A" stroke-linecap="round" stroke-linejoin="round"/>
<path d="M29.7716 32.5446C31.1793 30.1452 20.3999 24.6723 18.7489 37.103C16.5531 53.6351 37.4167 58.6989 44.7406 49.574C49.6723 43.4295 48.1963 25.1503 39.3291 31.0865C35.7932 33.4537 38.6758 37.3111 38.0411 40.7852C37.0301 46.3196 31.2465 46.5075 28.7001 42.5897C26.5749 39.3199 27.1699 36.9796 29.7716 32.5446Z" fill="#22093A" stroke="#22093A" stroke-linecap="round" stroke-linejoin="round"/>
<path d="M15.7673 104.837C16.5125 109.128 21.4904 109.093 31.3426 111.489C39.6606 113.512 41.3781 110.578 41.8134 107.635C42.6832 101.754 31.3119 100.96 31.3119 100.96C31.3119 100.96 37.0516 89.076 23.9783 86.9618C16.6362 85.7743 15.0016 100.428 15.7673 104.837Z" fill="#22093A" stroke="#22093A" stroke-linecap="round" stroke-linejoin="round"/>
<path d="M22.1016 99.2281C22.1016 99.2281 22.2159 95.5413 24.0302 96.3305C25.8445 97.1197 25.2815 100.013 25.2815 100.013L22.1016 99.2281Z" fill="#22093A" stroke="#22093A" stroke-linecap="round" stroke-linejoin="round"/>
<path d="M22.2177 12.4393C18.4512 13.5553 17.444 25.6735 22.3231 28.7571C25.9891 31.0742 43.0962 35.421 45.1988 28.728C47.3013 22.035 46.4924 14.4379 41.3411 14.3535C37.5774 14.2918 36.6506 22.7406 36.6506 22.7406C36.6506 22.7406 37.6981 14.8403 33.8465 14.1544C29.995 13.4686 29.825 21.8198 29.825 21.8198C29.825 21.8198 29.1252 10.3925 22.2177 12.4393Z" fill="#9736FF" stroke="#22093A" stroke-linecap="round" stroke-linejoin="round"/>
<path d="M16.8236 71.605C13.0014 72.7376 11.9793 85.0353 16.9306 88.1646C20.651 90.516 38.0115 94.9272 40.1452 88.135C42.2789 81.3429 41.458 73.6333 36.2304 73.5475C32.4109 73.485 31.4704 82.059 31.4704 82.059C31.4704 82.059 32.5334 74.0416 28.6248 73.3457C24.7161 72.6497 24.5437 81.1245 24.5437 81.1245C24.5437 81.1245 23.8335 69.5279 16.8236 71.605Z" fill="#9736FF" stroke="#22093A" stroke-linecap="round" stroke-linejoin="round"/>
<path d="M35.3971 52.1108C31.7356 52.1461 14.2062 52.9356 14.3921 62.0984C14.4888 66.8676 19.8672 70.131 26.0065 71.6943C32.6673 73.3904 42.6143 74.0392 42.849 70.2715C43.0351 67.2832 38.8965 65.4102 34.6587 64.2782C34.6899 64.1212 35.0667 61.7762 35.0667 61.7762C39.0911 60.9662 44.0571 59.4789 43.4166 56.7401C42.7286 53.7975 38.7819 52.0783 35.3971 52.1108ZM30.3262 63.3769C28.8571 63.0498 27.3651 62.8355 25.8633 62.7359C25.8633 62.7359 27.3048 62.4927 30.5244 62.0955L30.3262 63.3769Z" fill="#9736FF" stroke="#22093A" stroke-linecap="round" stroke-linejoin="round"/>
<path d="M28.1525 31.7443C29.5601 29.3449 18.7808 23.8721 17.1298 36.3027C14.934 52.8348 35.7976 57.8986 43.1215 48.7737C48.0532 42.6292 46.5771 24.3499 37.71 30.2862C34.1741 32.6534 37.0567 36.5107 36.422 39.9849C35.411 45.5193 29.6274 45.7072 27.081 41.7894C24.9558 38.5196 25.5507 36.1793 28.1525 31.7443Z" fill="#9736FF" stroke="#22093A" stroke-linecap="round" stroke-linejoin="round"/>
<path d="M14.1482 104.037C14.8933 108.328 19.8713 108.293 29.7235 110.689C38.0415 112.712 39.759 109.778 40.1943 106.835C41.0641 100.954 29.6928 100.159 29.6928 100.159C29.6928 100.159 35.4324 88.2757 22.3592 86.1615C15.017 84.9741 13.3824 99.6276 14.1482 104.037Z" fill="#9736FF" stroke="#22093A" stroke-linecap="round" stroke-linejoin="round"/>
<path d="M20.4824 98.4274C20.4824 98.4274 20.5968 94.7405 22.4111 95.5297C24.2254 96.3189 23.6624 99.2126 23.6624 99.2126L20.4824 98.4274Z" fill="#22093A" stroke="#22093A" stroke-linecap="round" stroke-linejoin="round"/>
<path d="M17.9902 93.6431C18.4745 91.4829 20.112 88.9436 22.1128 89.3769" stroke="#D9BBFF" stroke-linecap="round" stroke-linejoin="round"/>
<path d="M20.0379 58.438C18.5831 59.3645 17.5973 60.8722 17.332 62.5765" stroke="#D9BBFF" stroke-linecap="round" stroke-linejoin="round"/>
<path d="M25.365 56.2847C24.348 56.4833 23.3526 56.7797 22.3926 57.1696" stroke="#D9BBFF" stroke-linecap="round" stroke-linejoin="round"/>
<path d="M19.4165 37.415C19.1412 39.8272 19.7473 42.2576 21.1231 44.258" stroke="#D9BBFF" stroke-linecap="round" stroke-linejoin="round"/>
<path d="M20.6387 32.7344C20.3071 33.538 20.0304 34.3633 19.8105 35.2044" stroke="#D9BBFF" stroke-linecap="round" stroke-linejoin="round"/>
<path d="M23.0892 15.2632C21.6367 16.0726 21.3804 19.234 21.4658 21.7973" stroke="#D9BBFF" stroke-linecap="round" stroke-linejoin="round"/>
<path d="M32.6484 88.0412C34.5378 87.9557 37.6992 87.6494 38.2118 83.9224" stroke="#D9BBFF" stroke-linecap="round" stroke-linejoin="round"/>
<path d="M17.2221 95.9907L16.8008 97.8459" stroke="#D9BBFF" stroke-linecap="round" stroke-linejoin="round"/>
<path d="M101.842 44.7253L101.855 44.7227C101.855 44.7227 114.759 21.4942 107.284 17.8604C100.254 14.4427 89.6259 43.3045 89.6259 43.3045C89.6259 43.3045 96.6892 17.2908 89.6259 15.3775C82.5626 13.464 82.1309 36.2063 82.1309 36.2063L82.1282 36.2233C82.2777 31.2382 80.6986 28.8358 76.7704 28.4272C73.66 28.1038 71.6259 33.1263 71.6259 33.1263C71.6259 33.1263 71.512 28.513 67.7525 28.4272C63.9931 28.3415 56.5486 39.3921 57.9354 46.3415C57.9958 46.6445 58.0775 46.9261 58.1562 47.2105L58.1501 47.2092C58.1501 47.2092 56.4741 54.0883 59.7778 59.6464C61.7806 63.0157 63.8972 63.3634 63.8972 63.3634L50.0692 92.4439L50.0761 92.4396C47.774 94.7739 52.0293 99.0065 60.9002 100.865L60.7511 102.164C60.7511 102.164 49.1901 104.616 54.7471 110.501C59.3221 115.346 62.5109 108.544 62.5109 108.544C62.5109 108.544 64.5382 115.171 69.9552 111.725C75.4921 108.202 67.2969 103.778 67.2969 103.778L67.9704 101.695C76.0032 101.87 85.2105 99.7418 83.6805 96.3611C83.7944 96.4973 83.8569 96.5811 83.8569 96.5811L88.3652 67.3723C88.3652 67.3723 106.373 68.6706 106.601 53.0709C106.892 49.573 105.001 46.2565 101.842 44.7253ZM80.2244 47.9346L79.9826 49.4223L79.9851 49.4218C79.8021 49.776 79.6852 50.1606 79.6401 50.5567C79.6045 50.925 79.6218 51.2966 79.6916 51.66L78.9152 51.4996C79.4515 50.3504 79.8894 49.1578 80.2244 47.9346L80.2244 47.9346ZM68.55 89.3798C72.019 89.7671 75.3873 90.7879 78.4876 92.3916C75.37 90.8311 72.0095 89.8126 68.55 89.3798ZM69.0057 48.62C69.0057 48.62 69.0595 48.967 69.1852 49.4892L68.5912 49.3665C68.7313 49.1236 68.8748 48.8909 69.0057 48.62Z" fill="#22093A" stroke="#22093A" stroke-linecap="round" stroke-linejoin="round"/>
<path d="M101.408 43.7042C101.408 43.7042 114.312 20.4757 106.837 16.8419C99.8064 13.4242 89.1786 42.286 89.1786 42.286C89.1786 42.286 96.2419 16.2723 89.1786 14.3589C82.1153 12.4455 81.6836 35.1877 81.6836 35.1877L79.5352 48.4038" fill="#FCC707"/>
<path d="M101.408 43.7042C101.408 43.7042 114.312 20.4757 106.837 16.8419C99.8064 13.4242 89.1786 42.286 89.1786 42.286C89.1786 42.286 96.2419 16.2723 89.1786 14.3589C82.1153 12.4455 81.6836 35.1877 81.6836 35.1877L79.5352 48.4038" stroke="#22093A" stroke-linecap="round" stroke-linejoin="round"/>
<path d="M57.7039 46.1907C57.7039 46.1907 56.0279 53.0698 59.3317 58.6279C61.3345 61.9973 63.4511 62.3449 63.4511 62.3449L49.623 91.4254C49.623 91.4254 56.4534 86.9007 68.1038 88.3615C79.194 89.7519 83.4106 95.5626 83.4106 95.5626L87.9191 66.3539C87.9191 66.3539 105.927 67.6522 106.154 52.0524C106.382 36.4526 79.838 42.5889 79.194 49.5383C78.5499 56.4877 94.3064 53.7535 94.3064 53.7535" fill="#FCC707"/>
<path d="M57.7039 46.1907C57.7039 46.1907 56.0279 53.0698 59.3317 58.6279C61.3345 61.9973 63.4511 62.3449 63.4511 62.3449L49.623 91.4254C49.623 91.4254 56.4534 86.9007 68.1038 88.3614C79.194 89.7519 83.4106 95.5626 83.4106 95.5626L87.9191 66.3539C87.9191 66.3539 105.927 67.6522 106.154 52.0524C106.382 36.4526 79.838 42.5889 79.194 49.5383C78.5499 56.4877 94.3064 53.7535 94.3064 53.7535" stroke="#22093A" stroke-linecap="round" stroke-linejoin="round"/>
<path d="M68.5586 47.6013C65.2548 54.4368 58.8751 52.2722 57.4883 45.3228C56.1015 38.3734 63.546 27.3228 67.3055 27.4085C71.065 27.4943 71.1789 32.1076 71.1789 32.1076C71.1789 32.1076 73.213 27.0851 76.3233 27.4085C80.9763 27.8924 82.3434 31.159 81.432 38.2223C80.5207 45.2856 78.7176 54.333 73.9226 54.333C69.5497 54.333 68.5586 47.6013 68.5586 47.6013Z" fill="#FCC707" stroke="#22093A" stroke-linecap="round" stroke-linejoin="round"/>
<path d="M82.7901 94.6519C86.4301 98.9314 73.2297 101.487 64.219 100.462C51.1397 98.9738 45.4435 92.4939 51.314 90.4367C56.6026 88.1753 62.423 87.4557 68.1031 88.3612C78.1991 89.7247 82.7901 94.6519 82.7901 94.6519Z" fill="#CC9C05" stroke="#22093A" stroke-linecap="round" stroke-linejoin="round"/>
<path d="M61.2061 93.2846L60.3039 101.145C60.3039 101.145 48.7429 103.597 54.2998 109.482C58.875 114.327 62.0637 107.525 62.0637 107.525C62.0637 107.525 64.091 114.152 69.508 110.706C75.0449 107.183 66.8496 102.759 66.8496 102.759L69.5079 94.5378C69.5079 94.5378 69.9737 93.2403 66.2075 92.715C64.5219 92.3748 62.772 92.5741 61.2061 93.2846Z" fill="#F1F2F2" stroke="#22093A" stroke-linecap="round" stroke-linejoin="round"/>
<path d="M71.1786 32.1074L69.5078 41.3353" stroke="#22093A" stroke-linecap="round" stroke-linejoin="round"/>
<path d="M67.2617 30.7267C65.382 30.5558 61.6225 36.6222 60.5117 40.3817" stroke="white" stroke-linecap="round" stroke-linejoin="round"/>
<path d="M76.5759 30.7231C74.4357 30.7231 73.5182 34.4653 72.8164 39.6549" stroke="white" stroke-linecap="round" stroke-linejoin="round"/>
<path d="M88.8804 28.457C88.7998 29.0294 88.8082 28.9357 88.707 29.5247" stroke="white" stroke-linecap="round" stroke-linejoin="round"/>
<path d="M88.1953 17.1641C89.7696 17.1641 89.7113 20.8757 89.2091 25.7161" stroke="white" stroke-linecap="round" stroke-linejoin="round"/>
<path d="M105.712 19.2344C106.78 19.5762 106.908 23.3784 104.814 28.7906" stroke="white" stroke-linecap="round" stroke-linejoin="round"/>
<path d="M58.6091 79.7808C58.0957 80.8821 57.7793 81.5567 57.7793 81.5567" stroke="white" stroke-linecap="round" stroke-linejoin="round"/>
<path d="M63.8873 68.2783C62.7658 70.7788 61.4781 73.5862 60.375 75.9733" stroke="white" stroke-linecap="round" stroke-linejoin="round"/>
</svg>
