<svg width="120" height="117" viewBox="0 0 120 117" fill="none" xmlns="http://www.w3.org/2000/svg">
<g clip-path="url(#clip0_5_11016)">
<path opacity="0.5" d="M119.984 49.4722L119.983 49.4393C119.85 47.6436 118.896 46.0097 117.397 45.0117L117.303 44.9487C117.041 44.6877 116.755 44.4524 116.449 44.2458L98.7128 32.3765L96.8937 6.12462C96.8556 5.62 96.7453 5.12344 96.5662 4.65016C96.4325 4.25395 96.258 3.87269 96.0456 3.51251C95.7898 3.09072 95.4759 2.70702 95.1132 2.37271C94.7651 2.01782 94.3689 1.71357 93.9362 1.46887C93.8918 1.44456 93.8489 1.42031 93.8046 1.39736L93.7331 1.36018C93.2783 1.12545 92.7917 0.958275 92.2887 0.863924C91.8381 0.763027 91.3775 0.713375 90.9158 0.715913C90.438 0.728331 89.9639 0.80358 89.5057 0.939723C89.0487 1.05784 88.6078 1.23145 88.1929 1.45667L64.9606 14.4579L54.6036 5.72418C54.4535 5.5929 54.296 5.47042 54.1317 5.35736L53.5754 4.88828C51.1046 2.80109 47.4096 3.11207 45.3224 5.58288C45.0876 5.86076 44.8793 6.1599 44.7001 6.47642L37.9542 18.3829L19.7588 13.1093C16.644 12.2345 13.4099 14.0504 12.5351 17.1651C12.1593 18.503 12.2714 19.9309 12.8513 21.1938L20.0405 36.8443L4.56095 43.9706C1.62074 45.3212 0.332112 48.7995 1.68271 51.7397C1.90891 52.2322 2.20232 52.6908 2.55456 53.1026L12.644 64.8932L5.15015 78.1768C3.63605 80.8705 4.47185 84.2769 7.06079 85.9638C7.74172 86.6425 8.57905 87.1435 9.49909 87.4226L19.1953 90.3729V106.11C19.1951 106.4 19.2166 106.689 19.2596 106.975L19.2511 107.182C19.1149 110.415 21.6253 113.146 24.858 113.282C26.0262 113.332 27.1824 113.03 28.1779 112.417L46.3246 101.233L60.7989 114.522C61.026 114.73 61.27 114.919 61.5281 115.087L61.7298 115.273C64.109 117.464 67.8139 117.311 70.005 114.932C70.4329 114.467 70.7829 113.936 71.0413 113.36L72.9762 109.044C73.1936 109.06 73.461 109.069 73.6284 109.067C75.0331 109.066 76.4214 108.765 77.6999 108.183C79.2289 107.476 80.5757 106.428 81.6372 105.12L86.4967 106.847C89.5374 107.951 92.8976 106.382 94.0019 103.341C94.2347 102.7 94.3538 102.023 94.3538 101.341V90.5481L111.093 86.8255C114.251 86.1212 116.24 82.9903 115.536 79.8324C115.375 79.112 115.08 78.4285 114.666 77.8179L106.015 65.0762L118.064 54.2316C119.407 53.0284 120.116 51.2706 119.984 49.4722Z" fill="#231F20"/>
<path d="M118.834 48.7569L118.833 48.7241C118.7 46.9284 117.746 45.2945 116.247 44.2964L116.153 44.2334C115.891 43.9725 115.605 43.7371 115.299 43.5305L97.5625 31.6612L95.7434 5.40929C95.7053 4.90465 95.595 4.40809 95.4159 3.9348C95.2822 3.5386 95.1078 3.15735 94.8953 2.79718C94.6395 2.37539 94.3256 1.99169 93.9629 1.65738C93.6148 1.3025 93.2186 0.998247 92.7859 0.753537C92.7415 0.729228 92.6987 0.704918 92.6543 0.682029L92.5828 0.644847C92.128 0.410123 91.6414 0.242953 91.1384 0.148606C90.6878 0.0477047 90.2272 -0.00195159 89.7655 0.000580429C89.2877 0.0129901 88.8136 0.0882404 88.3554 0.224391C87.8983 0.34251 87.4574 0.516116 87.0425 0.741339L63.8102 13.7426L53.4533 5.00885C53.3032 4.87757 53.1456 4.75509 52.9814 4.64202L52.4251 4.17295C49.9543 2.08575 46.2593 2.39674 44.1721 4.86756C43.9373 5.14543 43.729 5.44457 43.5498 5.76109L36.8039 17.6676L18.6085 12.394C15.4937 11.5192 12.2596 13.335 11.3847 16.4498C11.009 17.7877 11.1211 19.2156 11.701 20.4784L18.8902 36.1289L3.41062 43.2552C0.470396 44.6058 -0.818274 48.0842 0.532298 51.0244C0.758494 51.5168 1.05192 51.9755 1.40418 52.3873L11.4937 64.1778L3.99984 77.4615C2.48571 80.1551 3.32151 83.5616 5.91047 85.2485C6.5914 85.9272 7.42873 86.4282 8.34876 86.7072L18.045 89.6576V105.395C18.0448 105.684 18.0663 105.973 18.1093 106.26L18.1007 106.467C17.9646 109.7 20.4749 112.431 23.7077 112.567C24.8759 112.616 26.0321 112.315 27.0275 111.701L45.1743 100.518L59.6485 113.807C59.8757 114.015 60.1196 114.204 60.3778 114.372L60.5795 114.557C62.9587 116.748 66.6636 116.596 68.8547 114.217C69.2827 113.752 69.6326 113.221 69.891 112.645L71.8259 108.329C72.0433 108.344 72.3107 108.354 72.4781 108.351C73.8828 108.351 75.2711 108.049 76.5496 107.468C78.0785 106.761 79.4253 105.713 80.4867 104.405L85.3463 106.132C88.3869 107.236 91.7471 105.667 92.8515 102.626C93.0844 101.985 93.2035 101.308 93.2035 100.626V89.8327L109.943 86.1101C113.101 85.4059 115.09 82.275 114.386 79.1171C114.225 78.3967 113.93 77.7132 113.515 77.1025L104.865 64.3609L116.913 53.5164C118.256 52.3131 118.966 50.5553 118.834 48.7569Z" fill="white"/>
<path d="M27.6076 39.7709L17.9745 18.8031L40.5693 25.3506L49.5961 9.41748L64.0604 21.6163L89.9049 5.85596L91.9302 35.073L112.992 49.1683L97.1509 63.4261L108.67 80.3945L87.3465 85.1364V100.629L71.4031 94.9613L64.5481 110.25L45.9424 93.1674L23.9567 106.716L24.8544 85.608L10.0548 81.1048L19.5605 64.2535L6.80664 49.3484L27.6076 39.7709Z" fill="#22093A" stroke="#22093A" stroke-linecap="round" stroke-linejoin="round"/>
<path d="M26.6579 39.0036L17.0248 18.0357L39.6196 24.5832L48.645 8.65011L63.1107 20.8489L89.9041 5.85596L90.979 34.3057L112.042 48.4009L96.2012 62.6587L107.721 79.6272L86.3968 84.369V99.8614L70.452 94.194L63.5984 109.483L44.9912 92.4L23.9047 105.397V84.8406L9.10506 80.3374L18.6107 63.4876L5.85547 48.581L26.6579 39.0036Z" fill="#E9022C" stroke="#22093A" stroke-linecap="round" stroke-linejoin="round"/>
<path d="M42.2395 36.5963C46.6759 33.8312 58.1055 29.724 66.9896 30.2337C75.7538 30.7366 81.2342 30.7297 82.2501 37.2901C83.1884 43.3491 72.1519 44.7641 72.1519 44.7641C72.1519 44.7641 84.869 42.7059 85.1344 51.7048C85.377 59.9272 74.4004 59.7529 74.4004 59.7529C74.4004 59.7529 87.6719 58.8459 86.6343 68.2959C85.6506 77.2547 69.0831 73.7565 69.0831 73.7565C72.6852 78.5045 77.4732 84.4309 77.9595 93.0572C78.4259 101.328 72.9076 104.644 69.2909 101.072C63.1432 95.0013 60.4695 86.5896 56.0455 84.0079C46.8961 78.6684 40.5754 79.9039 34.6535 70.2052C28.7316 60.5065 29.9427 44.2605 42.2395 36.5963Z" fill="#22093A" stroke="#22093A" stroke-linecap="round" stroke-linejoin="round"/>
<path d="M41.1614 36.1764C45.5978 33.4113 57.0274 29.304 65.9115 29.8138C74.6757 30.3166 80.1561 30.3098 81.172 36.8702C82.1103 42.9292 71.0738 44.3442 71.0738 44.3442C71.0738 44.3442 83.7908 42.286 84.0563 51.2848C84.2988 59.5073 73.3223 59.333 73.3223 59.333C73.3223 59.333 86.5938 58.426 85.5562 67.876C84.5725 76.8348 68.005 73.3366 68.005 73.3366C71.607 78.0845 76.3951 84.011 76.8814 92.6373C77.3477 100.908 71.8295 104.224 68.2128 100.652C62.0651 94.5814 59.3914 86.1697 54.9674 83.5879C45.818 78.2485 39.4972 79.484 33.5753 69.7853C27.6534 60.0865 28.8646 43.8406 41.1614 36.1764Z" fill="#FCC707" stroke="#22093A" stroke-linecap="round" stroke-linejoin="round"/>
<path d="M52.0918 35.7592C52.8622 35.5546 53.6583 35.3606 54.4802 35.1772" stroke="white" stroke-linecap="round" stroke-linejoin="round"/>
<path d="M34.459 50.3789C36.6297 43.4989 41.1879 39.4145 48.6621 36.8037" stroke="white" stroke-linecap="round" stroke-linejoin="round"/>
<path d="M68.1113 95.6611C68.5911 96.4773 69.2346 97.1853 70.0015 97.7405" stroke="white" stroke-linecap="round" stroke-linejoin="round"/>
<path d="M59.8984 83.0586C61.3068 84.2577 63.7696 88.6696 66.0022 92.3585" stroke="white" stroke-linecap="round" stroke-linejoin="round"/>
<path d="M70.752 33.5922C73.3702 33.2585 77.1751 34.3826 77.9259 36.8037" stroke="white" stroke-linecap="round" stroke-linejoin="round"/>
<path d="M73.9629 62.8662C76.9659 62.8662 80.8031 63.3068 81.8875 65.5473" stroke="white" stroke-linecap="round" stroke-linejoin="round"/>
<path d="M39.9031 90.7363L32.5703 95.6034" stroke="#22093A" stroke-linecap="round" stroke-linejoin="round"/>
<path d="M30.1081 97.356L29.0176 98.05" stroke="#22093A" stroke-linecap="round" stroke-linejoin="round"/>
<path d="M82.0561 14.7188L76.3887 18.0593" stroke="white" stroke-linecap="round" stroke-linejoin="round"/>
<path d="M86.1455 12.3076L84.4316 13.3178" stroke="white" stroke-linecap="round" stroke-linejoin="round"/>
<path d="M30.416 26.0928L34.5974 27.5978" stroke="white" stroke-linecap="round" stroke-linejoin="round"/>
<path d="M25.7461 24.1821L27.0106 24.6373" stroke="white" stroke-linecap="round" stroke-linejoin="round"/>
<path d="M82.3301 85.2686L82.4102 94.0692" stroke="#22093A" stroke-linecap="round" stroke-linejoin="round"/>
<path d="M15.4062 77.7373L23.7737 80.4656" stroke="#22093A" stroke-linecap="round" stroke-linejoin="round"/>
<path d="M43.3066 25.334L48.1399 16.3892" stroke="white" stroke-linecap="round" stroke-linejoin="round"/>
<path d="M16.9062 47.0069L20.8792 45.2734" stroke="white" stroke-linecap="round" stroke-linejoin="round"/>
<path d="M106.123 49.6226L102.727 52.3154" stroke="white" stroke-linecap="round" stroke-linejoin="round"/>
</g>
<defs>
<clipPath id="clip0_5_11016">
<rect width="120" height="116.822" fill="white"/>
</clipPath>
</defs>
</svg>
