<svg width="120" height="119" viewBox="0 0 120 119" fill="none" xmlns="http://www.w3.org/2000/svg">
<path d="M20.6915 43.3801C24.6483 42.8038 25.0324 38.1063 26.2185 34.5126C28.0187 37.4522 29.4944 41.8512 33.3623 41.2458C37.8331 40.546 40.0754 33.8985 40.5958 26.5389C41.1603 18.5541 39.8613 6.62874 34.8802 7.04118C29.1375 7.51675 30.1183 24.59 30.1183 24.59C30.1183 24.59 28.9826 13.5121 23.992 14.2204C18.2939 15.0292 19.9524 25.8249 19.9524 25.8249C19.9524 25.8249 17.6156 10.5826 11.3471 11.5881C8.4821 12.0478 7.48035 16.0594 8.0354 20.0113C8.63588 24.2862 12.0882 44.6333 20.6915 43.3801Z" fill="#22093A" stroke="#22093A" stroke-linecap="round" stroke-linejoin="round"/>
<path d="M51.1973 6.66326C56.7254 6.13185 65.3555 11.206 65.2002 21.9995C65.0449 32.7931 58.2323 38.0673 52.182 38.6042C46.7231 39.0887 39.2746 35.1901 39.06 23.7006C38.8842 14.2877 43.0776 7.44379 51.1973 6.66326Z" fill="#22093A" stroke="#22093A" stroke-linecap="round" stroke-linejoin="round"/>
<path d="M52.3719 14.9743C53.1566 14.5338 54.361 16.5779 54.3014 21.5778C54.2419 26.5776 53.2588 29.2579 52.4001 29.7194C51.6254 30.1357 50.5842 28.594 50.5938 23.2851C50.6017 18.9357 51.2193 15.6212 52.3719 14.9743Z" fill="#22093A" stroke="#22093A" stroke-linecap="round" stroke-linejoin="round"/>
<path d="M93.7181 8.61183C86.8023 9.02953 83.4956 35.1588 88.4023 37.3851C94.1756 40.0047 97.8359 28.1227 97.8359 28.1227C97.8359 28.1227 100.16 38.376 102.815 39.2622C109.865 41.6158 111.184 32.9762 105.148 24.0885C105.148 24.0885 117.375 14.8242 110.75 10.0313C106.162 6.71232 99.2368 20.5631 99.2368 20.5631C99.2368 20.5631 100.436 8.2061 93.7181 8.61183Z" fill="#22093A" stroke="#22093A" stroke-linecap="round" stroke-linejoin="round"/>
<path d="M72.1733 7.6593C64.9924 8.93096 64.5119 13.3499 64.0976 22.4035C63.6854 31.4093 61.53 36.8237 68.423 38.2261C72.727 39.1018 74.6087 25.7457 74.6087 25.7457C74.6087 25.7457 79.6766 38.9102 85.2085 36.7877C92.5482 33.9715 81.6925 22.8422 81.6925 22.8422C87.6199 22.8422 96.4197 3.36557 72.1733 7.6593Z" fill="#22093A" stroke="#22093A" stroke-linecap="round" stroke-linejoin="round"/>
<path d="M73.9551 13.2532C73.9551 13.2532 78.1011 12.3648 77.7204 14.607C77.3396 16.8493 73.9551 17.0185 73.9551 17.0185V13.2532Z" fill="#22093A" stroke="#22093A" stroke-linecap="round" stroke-linejoin="round"/>
<path d="M19.1856 41.975C23.1424 41.3987 23.5266 36.7012 24.7126 33.1075C26.5129 36.0471 27.9885 40.4461 31.8565 39.8407C36.3273 39.1409 38.5695 32.4934 39.0899 25.1338C39.6545 17.1491 39.086 6.40224 34.105 6.81475C28.3623 7.29032 28.6125 23.185 28.6125 23.185C28.6125 23.185 27.4767 12.1071 22.4862 12.8154C16.7881 13.6241 18.4465 24.4199 18.4465 24.4199C18.4465 24.4199 16.1097 9.1775 9.84125 10.1831C6.97624 10.6427 5.97448 14.6542 6.52954 18.6062C7.13003 22.8812 10.5823 43.2283 19.1856 41.975Z" fill="#71C1F2" stroke="#22093A" stroke-linecap="round" stroke-linejoin="round"/>
<path d="M49.6914 5.25848C55.2195 4.72706 63.8496 9.80117 63.6943 20.5947C63.539 31.3883 56.7264 36.6625 50.6762 37.1994C45.2172 37.6839 37.7688 33.7853 37.5541 22.2958C37.3783 12.883 41.5717 6.03901 49.6914 5.25848Z" fill="#71C1F2" stroke="#22093A" stroke-linecap="round" stroke-linejoin="round"/>
<path d="M50.866 13.5695C51.6507 13.129 52.8551 15.1731 52.7956 20.173C52.7361 25.1728 51.7529 27.8531 50.8942 28.3146C50.1195 28.7309 49.0783 27.1891 49.088 21.8803C49.0958 17.5309 49.7135 14.2165 50.866 13.5695Z" fill="#22093A" stroke="#22093A" stroke-linecap="round" stroke-linejoin="round"/>
<path d="M92.2123 7.20704C85.2965 7.62475 81.9897 33.754 86.8964 35.9803C92.6698 38.5999 96.3301 26.7179 96.3301 26.7179C96.3301 26.7179 99.3073 37.3751 101.962 38.2612C109.012 40.6148 109.679 31.5714 103.643 22.6836C103.643 22.6836 116.486 14.4033 109.861 9.61039C105.273 6.29138 97.7311 19.1582 97.7311 19.1582C97.7311 19.1582 98.9297 6.80131 92.2123 7.20704Z" fill="#71C1F2" stroke="#22093A" stroke-linecap="round" stroke-linejoin="round"/>
<path d="M70.6668 6.25452C63.4859 7.52616 63.0053 11.9451 62.591 20.9987C62.1789 30.0045 62.5268 36.9685 66.9165 36.8213C71.3062 36.6741 73.1022 24.3409 73.1022 24.3409C73.1022 24.3409 78.1701 37.5054 83.702 35.3829C91.0417 32.5667 80.186 21.4374 80.186 21.4374C86.1134 21.4374 94.9132 1.96077 70.6668 6.25452Z" fill="#71C1F2" stroke="#22093A" stroke-linecap="round" stroke-linejoin="round"/>
<path d="M72.4492 11.8485C72.4492 11.8485 76.5953 10.96 76.2145 13.2023C75.8337 15.4445 72.4492 15.6137 72.4492 15.6137V11.8485Z" fill="#22093A" stroke="#22093A" stroke-linecap="round" stroke-linejoin="round"/>
<path d="M13.3555 32.4521C13.9552 33.5763 14.6688 34.6359 15.4851 35.6142" stroke="white" stroke-linecap="round" stroke-linejoin="round"/>
<path d="M11.1495 13.2202C9.20949 13.3227 8.43175 17.3858 10.3598 24.3275C10.7184 25.6184 11.084 26.866 11.4918 28.0654" stroke="white" stroke-linecap="round" stroke-linejoin="round"/>
<path d="M33.0146 10.9341C33.0146 10.9341 31.6448 14.2417 31.9348 15.4083" stroke="white" stroke-linecap="round" stroke-linejoin="round"/>
<path d="M40.7064 18.9478C39.7057 22.3497 40.8309 28.9645 43.9641 31.8211" stroke="white" stroke-linecap="round" stroke-linejoin="round"/>
<path d="M70.8122 9.02441C67.4277 10.0312 66.5533 10.4543 65.9551 15.408" stroke="white" stroke-linecap="round" stroke-linejoin="round"/>
<path d="M65.8026 18.1147L65.7266 19.53" stroke="white" stroke-linecap="round" stroke-linejoin="round"/>
<path d="M92.5846 10.4545C91.4846 10.3417 89.7993 12.0057 88.248 19.367" stroke="white" stroke-linecap="round" stroke-linejoin="round"/>
<path d="M65.498 83.1064L66.9247 91.3353" stroke="#22093A" stroke-linecap="round" stroke-linejoin="round"/>
<path d="M62.1847 93.8651C39.025 99.5213 22.8311 82.2131 20.6221 64.2153C18.4131 46.2175 32.4837 28.9891 54.2687 27.0068" fill="#22093A"/>
<path d="M62.1847 93.8651C39.025 99.5213 22.8311 82.2131 20.6221 64.2153C18.4131 46.2175 32.4837 28.9891 54.2687 27.0068" stroke="#22093A" stroke-linecap="round" stroke-linejoin="round"/>
<path d="M95.0516 53.9143C97.5059 74.5194 84.0807 90.9267 66.4494 93.0908C48.8181 95.2549 32.0901 80.8258 29.8811 62.828C27.8365 44.8521 40.592 28.5604 58.5334 26.2326C76.1646 24.0686 92.907 35.9088 95.0516 53.9143Z" fill="#E6E7E8" stroke="#22093A" stroke-linecap="round" stroke-linejoin="round"/>
<path d="M58.6582 30.8716L59.6756 39.161" stroke="#22093A" stroke-linecap="round" stroke-linejoin="round"/>
<path d="M35.5605 62.2274L43.85 61.21" stroke="#22093A" stroke-linecap="round" stroke-linejoin="round"/>
<path d="M81.2422 56.6209L89.5316 55.6035" stroke="#22093A" stroke-linecap="round" stroke-linejoin="round"/>
<path d="M63.5741 61.1315L60.4102 73.2838L57.0605 77.4593L56.9551 72.2514L60.7236 60.9814L63.5741 61.1315Z" fill="#22093A" stroke="#22093A" stroke-linecap="round" stroke-linejoin="round"/>
<path d="M59.5102 58.1693L45.7953 47.7951L42.9863 43.2363L47.9269 44.8866L60.6094 55.5342L59.5102 58.1693Z" fill="#22093A" stroke="#22093A" stroke-linecap="round" stroke-linejoin="round"/>
<path d="M62.4867 61.9158C64.4016 61.9158 65.9539 60.3635 65.9539 58.4486C65.9539 56.5338 64.4016 54.9814 62.4867 54.9814C60.5718 54.9814 59.0195 56.5338 59.0195 58.4486C59.0195 60.3635 60.5718 61.9158 62.4867 61.9158Z" fill="white" stroke="#22093A" stroke-linecap="round" stroke-linejoin="round"/>
<path d="M71.9395 32.3242C71.9395 32.3242 81.0501 33.3071 85.6192 41.3098" stroke="white" stroke-linecap="round" stroke-linejoin="round"/>
<path d="M87.5625 44.5742C88.001 45.1975 88.3792 45.8611 88.6922 46.5559" stroke="white" stroke-linecap="round" stroke-linejoin="round"/>
<path d="M91.5692 61.7651C91.2511 65.5871 90.1187 69.2968 88.248 72.6449" stroke="white" stroke-linecap="round" stroke-linejoin="round"/>
<path d="M16.9693 83.5103C12.4225 86.0705 10.6241 92.3912 11.8648 104.477C12.9123 114.68 20.398 115.398 26.744 114.93C33.8475 114.407 41.4684 110.932 40.6952 102.891C39.8905 94.5221 28.8447 96.2329 28.8447 96.2329C28.8447 96.2329 39.5662 93.3357 37.6956 85.7619C35.8672 78.3585 21.6417 80.8794 16.9693 83.5103Z" fill="#22093A" stroke="#22093A" stroke-linecap="round" stroke-linejoin="round"/>
<path d="M23.0879 88.2921C23.0879 88.2921 27.2971 86.9443 27.1327 89.3093C26.9683 91.6742 23.4749 92.1977 23.4749 92.1977L23.0879 88.2921Z" fill="#22093A" stroke="#22093A" stroke-linecap="round" stroke-linejoin="round"/>
<path d="M24.5254 102.752C24.5254 102.752 29.9105 101.274 29.7461 103.639C29.5816 106.004 24.9125 106.657 24.9125 106.657L24.5254 102.752Z" fill="#22093A" stroke="#22093A" stroke-linecap="round" stroke-linejoin="round"/>
<path d="M43.3965 79.8651C36.0654 81.1231 34.4275 114.853 53.2715 113.729C67.4863 112.88 68.3285 79.6704 62.4898 79.0703C50.3434 77.822 59.8041 101.654 53.15 101.735C49.6896 101.778 52.9296 78.2293 43.3965 79.8651Z" fill="#22093A" stroke="#22093A" stroke-linecap="round" stroke-linejoin="round"/>
<path d="M86.4141 86.3978C86.4177 82.3447 84.0409 77.5689 75.187 77.8695C66.4698 78.1654 60.6428 89.7187 69.398 94.7845C77.505 99.4752 74.8336 104.919 71.3157 101.799C64.5486 95.7972 57.3381 108.104 66.5476 112.962C75.7571 117.82 86.1791 112.465 87.5622 106.522C90.1821 95.2661 81.5779 93.1258 77.6229 91.2057C77.6229 91.2057 86.4087 92.5839 86.4141 86.3978Z" fill="#22093A" stroke="#22093A" stroke-linecap="round" stroke-linejoin="round"/>
<path d="M106.518 77.4584C99.4227 76.9884 98.3177 94.9084 98.3177 94.9084C98.3177 94.9084 98.0258 75.8139 91.2805 77.0132C82.4453 78.584 85.1387 94.0425 91.2776 100.603C87.0569 104.476 87.5819 117.495 96.785 112.828C101.791 110.289 108.357 97.8473 109.59 94.8163C112.013 88.8569 113.66 77.9315 106.518 77.4584Z" fill="#22093A" stroke="#22093A" stroke-linecap="round" stroke-linejoin="round"/>
<path d="M15.1587 81.6431C10.6118 84.2034 10.2237 91.4526 11.4644 103.538C12.5119 113.742 18.5873 113.531 24.9333 113.063C32.0368 112.54 39.6577 109.065 38.8846 101.024C38.0798 92.6549 27.0341 94.3657 27.0341 94.3657C27.0341 94.3657 37.7555 91.4685 35.885 83.8947C34.0566 76.4913 19.8311 79.0122 15.1587 81.6431Z" fill="#35CCAD" stroke="#22093A" stroke-linecap="round" stroke-linejoin="round"/>
<path d="M21.2773 86.4249C21.2773 86.4249 25.4865 85.0771 25.3222 87.4421C25.1578 89.807 21.6644 90.3304 21.6644 90.3304L21.2773 86.4249Z" fill="#22093A" stroke="#22093A" stroke-linecap="round" stroke-linejoin="round"/>
<path d="M22.7148 100.884C22.7148 100.884 28.0999 99.4071 27.9355 101.772C27.7711 104.137 23.1019 104.79 23.1019 104.79L22.7148 100.884Z" fill="#22093A" stroke="#22093A" stroke-linecap="round" stroke-linejoin="round"/>
<path d="M42.1157 79.4598C34.8386 80.9999 34.5691 112.865 51.4609 111.862C65.6759 111.018 67.4153 79.5407 61.5765 78.9406C49.4302 77.6923 57.9934 99.7868 51.3394 99.8686C47.8789 99.9111 50.7006 77.6428 42.1157 79.4598Z" fill="#35CCAD" stroke="#22093A" stroke-linecap="round" stroke-linejoin="round"/>
<path d="M84.6036 84.5306C84.6071 80.4775 82.2304 75.7017 73.3765 76.0023C64.6592 76.2982 58.8323 87.8515 67.5874 92.9173C75.6944 97.608 73.0231 103.051 69.5051 99.9314C62.7381 93.93 55.5275 106.237 64.737 111.095C73.9466 115.953 84.3684 110.598 85.7516 104.655C88.3716 93.3989 79.7674 91.2586 75.8124 89.3385C75.8124 89.3385 84.5982 90.7167 84.6036 84.5306Z" fill="#35CCAD" stroke="#22093A" stroke-linecap="round" stroke-linejoin="round"/>
<path d="M105.637 77.0882C98.5417 76.6182 96.5071 93.0417 96.5071 93.0417C96.5071 93.0417 96.2152 73.9472 89.4699 75.1465C80.6348 76.7173 83.3281 92.1758 89.4671 98.7364C88.4901 101.214 85.7714 115.629 94.9745 110.962C99.981 108.423 106.547 95.9806 107.779 92.9497C110.203 86.9901 112.779 77.5613 105.637 77.0882Z" fill="#35CCAD" stroke="#22093A" stroke-linecap="round" stroke-linejoin="round"/>
<path d="M14.3008 102.819C14.413 103.88 14.6 104.932 14.8606 105.967" stroke="white" stroke-linecap="round" stroke-linejoin="round"/>
<path d="M19.7112 83.0083C18.019 83.5724 14.0704 83.7416 13.8447 91.1311C13.7659 93.7141 13.8042 96.0903 13.909 98.1634" stroke="white" stroke-linecap="round" stroke-linejoin="round"/>
<path d="M40.75 97.2754C40.75 97.2754 41.8218 103.875 45.8268 107.316" stroke="white" stroke-linecap="round" stroke-linejoin="round"/>
<path d="M73.911 78.8896C70.8085 78.8896 65.7881 81.7101 66.2394 86.8433" stroke="white" stroke-linecap="round" stroke-linejoin="round"/>
<path d="M65.5578 101.131C63.6146 102.147 62.8626 104.546 63.8781 106.489C64.0345 106.788 64.2285 107.066 64.4553 107.316" stroke="white" stroke-linecap="round" stroke-linejoin="round"/>
<path d="M89.2572 77.856C87.5296 78.2857 85.221 82.0086 87.0008 88.7213" stroke="white" stroke-linecap="round" stroke-linejoin="round"/>
</svg>
