<svg width="120" height="120" viewBox="0 0 120 120" fill="none" xmlns="http://www.w3.org/2000/svg">
<g clip-path="url(#clip0_5_11003)">
<path opacity="0.5" d="M105.165 47.883C105.479 47.9211 105.791 47.9391 106.099 47.9391C113.749 47.9376 116.086 38.2892 118.349 28.9562C120.247 21.1067 120.887 15.401 118.206 11.217C117.181 9.61775 115.73 8.41224 113.961 7.68016C112.816 6.82021 111.467 6.22464 109.995 5.93727C108.257 5.59171 105.718 5.55723 103.189 7.17942C102.603 6.75699 101.964 6.40209 101.277 6.11832C100.133 5.26196 98.7896 4.66926 97.324 4.38261C94.9115 3.90773 92.5465 4.35459 90.4674 5.67936C89.8007 5.20664 89.0765 4.78924 88.2992 4.43002C85.6898 2.62032 82.3219 1.70361 78.1708 1.70361C75.596 1.71583 73.0471 2.42491 70.7941 3.71232C67.8428 2.08725 64.0625 1.80132 61.7736 1.79988C56.509 1.79988 52.0131 3.23457 48.8952 5.78928C45.2456 4.09308 40.323 3.84738 34.2006 5.06655C31.6013 5.58309 29.4748 6.49692 27.7922 7.82816C23.5133 6.83171 18.5232 7.76637 15.7644 8.70176C9.62766 10.7816 5.73094 15.0806 5.34156 20.203C5.32719 20.3955 4.65331 40.1492 12.4654 47.1445C13.3304 47.919 14.283 48.5246 15.3089 48.9542C17.5044 50.5656 20.1712 51.172 22.7891 50.6756C27.3224 49.8206 29.5524 47.1732 30.6257 45.1013C30.7909 44.7823 30.9375 44.4583 31.0668 44.1322C32.2579 44.6336 33.5439 44.8664 34.9535 44.7838C37.5657 44.6422 39.7511 43.3807 41.4882 41.02C41.8086 41.1996 42.1305 41.3605 42.4567 41.5027C44.507 42.9547 43.4308 45.0891 41.0629 45.4742C34.2983 46.582 28.6701 50.1525 24.3151 56.0946C23.2532 54.5004 21.4385 53.453 19.4126 53.453C16.3506 53.453 13.773 55.8439 13.5459 58.8806C13.4137 60.5675 13.1795 63.5806 12.8289 64.6855C11.724 65.0368 8.70952 65.2717 7.01835 65.4032C3.97799 65.6432 1.5957 68.2209 1.5957 71.2706C1.5957 74.3203 3.97799 76.8979 7.0241 77.1379C8.71095 77.2694 11.724 77.5043 12.8289 77.8549C13.1795 78.9598 13.4137 81.9715 13.5445 83.6447C13.773 86.6965 16.3507 89.0874 19.4126 89.0874C19.4169 89.0874 19.4197 89.0874 19.4241 89.0874C25.1255 102.635 39.1965 111.491 50.8263 114.298L51.0303 114.347C58.1111 116.058 64.7335 116.926 70.7136 116.926C71.0513 116.926 71.3875 116.923 71.728 116.916C72.7496 118.695 74.6721 119.89 76.836 119.89C79.4784 119.89 81.7601 118.109 82.4814 115.667C95.1989 112.744 104.479 104.767 109.457 92.4072C113.374 82.6784 113.842 73.8403 110.856 66.6569C110.873 66.4729 110.882 66.2869 110.882 66.0986C110.882 63.6725 109.375 61.546 107.224 60.6559C106.559 59.8534 105.849 59.1048 105.102 58.4187C104.206 57.5968 103.221 56.826 102.153 56.1126C101.626 54.0299 99.9821 52.3933 97.9246 51.8538C99.4548 49.7998 100.435 47.8471 101.025 46.4347C102.242 47.2041 103.643 47.6977 105.165 47.883Z" fill="#231F20"/>
<path d="M103.569 46.1794C103.884 46.2175 104.196 46.2355 104.503 46.2355C112.153 46.234 114.491 36.5856 116.754 27.2526C118.652 19.4031 119.291 13.6974 116.61 9.51334C115.585 7.91413 114.134 6.70862 112.365 5.97655C111.22 5.1166 109.871 4.52103 108.4 4.23366C106.661 3.8881 104.122 3.85361 101.593 5.47581C101.007 5.05338 100.368 4.69848 99.681 4.4147C98.5373 3.55834 97.1939 2.96564 95.7283 2.67899C93.3158 2.20412 90.9508 2.65098 88.8717 3.97575C88.205 3.50302 87.4808 3.08562 86.7035 2.72641C84.0941 0.916706 80.7262 0 76.5751 0C74.0003 0.0122135 71.4514 0.721295 69.1984 2.00871C66.2471 0.383637 62.4668 0.097705 60.1779 0.0962675C54.9133 0.0962675 50.4174 1.53096 47.2995 4.08566C43.6499 2.38947 38.7272 2.14377 32.6049 3.36293C30.0056 3.87948 27.8791 4.79331 26.1965 6.12455C21.9176 5.12809 16.9275 6.06276 14.1687 6.99815C8.03196 9.07798 4.13524 13.377 3.74585 18.4994C3.73148 18.6919 3.05761 38.4456 10.8697 45.4409C11.7347 46.2154 12.6873 46.821 13.7132 47.2506C15.9087 48.862 18.5755 49.4684 21.1934 48.9719C25.7267 48.117 27.9567 45.4696 29.03 43.3977C29.1952 43.0787 29.3418 42.7547 29.4711 42.4286C30.6622 42.93 31.9482 43.1628 33.3578 43.0802C35.9699 42.9386 38.1554 41.6771 39.8925 39.3164C40.2129 39.496 40.5348 39.6569 40.861 39.7991C42.9113 41.2511 41.8351 43.3855 39.4672 43.7706C32.7026 44.8784 27.0744 48.4489 22.7194 54.391C21.6575 52.7968 19.8428 51.7494 17.8169 51.7494C14.7549 51.7494 12.1773 54.1403 11.9502 57.177C11.818 58.8639 11.5838 61.877 11.2332 62.9819C10.1283 63.3332 7.11381 63.5681 5.42265 63.6996C2.38229 63.9395 0 66.5172 0 69.5669C0 72.6166 2.38229 75.1943 5.42839 75.4343C7.11525 75.5658 10.1283 75.8007 11.2332 76.1513C11.5838 77.2562 11.818 80.2678 11.9488 81.941C12.1772 84.9929 14.7549 87.3838 17.8169 87.3838C17.8212 87.3838 17.824 87.3838 17.8284 87.3838C23.5298 100.931 37.6008 109.787 49.2306 112.594L49.4346 112.644C56.5154 114.355 63.1378 115.223 69.1179 115.223C69.4556 115.223 69.7918 115.219 70.1323 115.213C71.1539 116.991 73.0764 118.186 75.2403 118.186C77.8827 118.186 80.1644 116.405 80.8857 113.963C93.6032 111.041 102.884 103.063 107.861 90.7036C111.778 80.9748 112.246 72.1367 109.26 64.9532C109.278 64.7693 109.286 64.5833 109.286 64.395C109.286 61.9689 107.779 59.8424 105.628 58.9523C104.963 58.1498 104.253 57.4012 103.506 56.7151C102.611 55.8932 101.625 55.1224 100.558 54.409C100.03 52.3263 98.3864 50.6897 96.3289 50.1502C97.8591 48.0962 98.839 46.1435 99.4296 44.7311C100.647 45.5005 102.048 45.9941 103.569 46.1794Z" fill="white"/>
<path d="M29.1277 14.1136C26.4052 11.0672 12.1823 12.9357 11.6381 20.0818C11.2795 24.7913 12.8051 44.5665 20.1111 43.1891C27.619 41.7737 23.0801 31.8579 23.0801 31.8579C23.0801 31.8579 29.7528 30.3804 29.5668 26.1239C29.3807 21.8675 20.965 24.4271 20.965 24.4271C20.965 24.4271 34.3558 19.9637 29.1277 14.1136Z" fill="#22093A" stroke="#22093A" stroke-miterlimit="10" stroke-linecap="round" stroke-linejoin="round"/>
<path d="M69.4735 9.31507C68.3559 6.45237 53.8098 5.38012 51.0298 12.4607C49.2159 17.0809 48.5762 33.7164 56.521 34.8767C64.4658 36.0371 71.579 33.3934 71.3596 29.0908C71.1402 24.7883 58.7797 25.827 58.7797 25.827C58.7797 25.827 66.762 25.4549 66.8375 20.9782C66.913 16.5014 58.5806 17.947 58.5806 17.947C58.5806 17.947 71.8906 15.5062 69.4735 9.31507Z" fill="#22093A" stroke="#22093A" stroke-miterlimit="10" stroke-linecap="round" stroke-linejoin="round"/>
<path d="M35.7758 10.2711C29.4882 11.5213 29.1475 15.4138 28.9506 23.3784C28.7547 31.301 29.1891 37.415 33.0443 37.2046C36.8996 36.9941 38.2502 26.1217 38.2502 26.1217C38.2502 26.1217 42.9475 37.5979 47.77 35.6304C54.1687 33.0198 44.4224 23.439 44.4224 23.439C49.6318 23.3296 57.0059 6.04961 35.7758 10.2711Z" fill="#22093A" stroke="#22093A" stroke-miterlimit="10" stroke-linecap="round" stroke-linejoin="round"/>
<path d="M37.4453 15.1546C37.4453 15.1546 41.0727 14.2972 40.7795 16.2749C40.4863 18.2526 37.5149 18.4638 37.5149 18.4638L37.4453 15.1546Z" fill="#22093A" stroke="#22093A" stroke-miterlimit="10" stroke-linecap="round" stroke-linejoin="round"/>
<path d="M88.2428 14.7783C88.3495 11.2282 86.3898 6.98426 78.6269 7.02124C70.9838 7.05764 65.5846 17.0284 73.1238 21.6893C80.1049 26.0051 77.6259 30.7047 74.6243 27.882C68.8503 22.4524 62.2199 33.048 70.1625 37.5385C78.105 42.0291 87.3706 37.6047 88.734 32.435C91.3166 22.6424 83.8347 20.5478 80.4196 18.7648C80.4196 18.7648 88.0799 20.1966 88.2428 14.7783Z" fill="#22093A" stroke="#22093A" stroke-miterlimit="10" stroke-linecap="round" stroke-linejoin="round"/>
<path d="M109.286 11.1438C106.194 10.5379 103.702 13.8197 101.893 21.8642C101.015 21.6337 100.06 21.4394 99.0558 21.2638C100.492 14.2355 100.124 10.277 96.6167 9.58971C93.2486 8.92954 90.5887 12.8669 88.7524 22.5696C86.9162 32.2723 87.1208 38.2357 91.6115 38.7817C93.8096 39.049 95.4192 35.2829 96.889 30.0772C97.387 30.1589 97.909 30.2272 98.4777 30.2697C99.1996 30.3235 99.8651 30.3386 100.498 30.33C99.9252 36.3277 100.848 39.9184 104.281 40.3358C107.233 40.6948 109.124 33.7817 111.04 25.8691C113.205 16.929 113.273 11.9251 109.286 11.1438Z" fill="#22093A" stroke="#22093A" stroke-miterlimit="10" stroke-linecap="round" stroke-linejoin="round"/>
<path d="M27.1121 12.9778C24.3896 9.93144 10.1667 11.7999 9.62247 18.9461C9.26384 23.6555 10.7894 43.4308 18.0955 42.0534C25.6034 40.6379 21.0645 30.7221 21.0645 30.7221C21.0645 30.7221 27.7372 29.2446 27.5511 24.9882C27.3651 20.7317 18.9494 23.2914 18.9494 23.2914C18.9494 23.2914 32.3402 18.828 27.1121 12.9778Z" fill="#71C1F2" stroke="#22093A" stroke-miterlimit="10" stroke-linecap="round" stroke-linejoin="round"/>
<path d="M67.4579 8.17933C66.3403 5.31663 51.7941 4.24438 49.0142 11.325C47.2003 15.9452 46.5606 32.5806 54.5054 33.741C62.4502 34.9013 69.5633 32.2576 69.344 27.9551C69.1246 23.6526 56.7641 24.6913 56.7641 24.6913C56.7641 24.6913 64.7464 24.3192 64.8219 19.8424C64.8974 15.3657 56.565 16.8113 56.565 16.8113C56.565 16.8113 69.8749 14.3704 67.4579 8.17933Z" fill="#71C1F2" stroke="#22093A" stroke-miterlimit="10" stroke-linecap="round" stroke-linejoin="round"/>
<path d="M33.7602 9.13531C27.4726 10.3856 27.1319 14.2781 26.935 22.2427C26.7391 30.1653 27.1735 36.2793 31.0287 36.0688C34.8839 35.8584 36.2346 24.9859 36.2346 24.9859C36.2346 24.9859 40.9318 36.4622 45.7544 34.4946C52.153 31.884 42.4068 22.3033 42.4068 22.3033C47.6162 22.1938 54.9903 4.91386 33.7602 9.13531Z" fill="#71C1F2" stroke="#22093A" stroke-miterlimit="10" stroke-linecap="round" stroke-linejoin="round"/>
<path d="M35.4297 14.0189C35.4297 14.0189 39.0571 13.1615 38.7639 15.1392C38.4707 17.1168 35.4992 17.3281 35.4992 17.3281L35.4297 14.0189Z" fill="#22093A" stroke="#22093A" stroke-miterlimit="10" stroke-linecap="round" stroke-linejoin="round"/>
<path d="M86.2272 13.6425C86.3339 10.0924 84.3741 5.84852 76.6113 5.88549C68.9682 5.92189 63.5689 15.8926 71.1082 20.5536C78.0893 24.8694 75.6103 29.569 72.6086 26.7463C66.8347 21.3166 60.2043 31.9122 68.1468 36.4028C76.0894 40.8933 85.355 36.4689 86.7184 31.2992C89.3009 21.5066 81.8191 19.412 78.404 17.6291C78.404 17.6291 86.0643 19.0609 86.2272 13.6425Z" fill="#71C1F2" stroke="#22093A" stroke-miterlimit="10" stroke-linecap="round" stroke-linejoin="round"/>
<path d="M107.27 10.0081C104.179 9.40213 101.686 12.684 99.877 20.7285C98.9997 20.498 98.0448 20.3036 97.0402 20.1281C98.476 13.0998 98.1082 9.14122 94.6011 8.45397C91.233 7.79379 88.5731 11.7312 86.7368 21.4339C84.9006 31.1365 85.1052 37.0999 89.5959 37.6459C91.794 37.9132 93.4036 34.1472 94.8733 28.9415C95.3713 29.0231 95.8934 29.0915 96.462 29.1339C97.184 29.1877 97.8494 29.2029 98.4825 29.1943C97.9096 35.192 98.8327 38.7827 102.265 39.2C105.218 39.5591 107.109 32.6459 109.025 24.7334C111.19 15.7933 111.257 10.7893 107.27 10.0081Z" fill="#71C1F2" stroke="#22093A" stroke-miterlimit="10" stroke-linecap="round" stroke-linejoin="round"/>
<path d="M16.5844 15.7554C14.4839 16.5585 12.6128 17.7715 12.6981 19.5642" stroke="white" stroke-miterlimit="10" stroke-linecap="round" stroke-linejoin="round"/>
<path d="M21.7489 14.4238C21.2987 14.5057 20.5189 14.6441 19.5996 14.8579" stroke="white" stroke-miterlimit="10" stroke-linecap="round" stroke-linejoin="round"/>
<path d="M14.6387 35.6558C14.9319 37.2104 15.5465 38.8048 16.9992 39.2138" stroke="white" stroke-miterlimit="10" stroke-linecap="round" stroke-linejoin="round"/>
<path d="M29.7743 23.7925C29.7743 26.8096 29.6593 31.6147 30.904 32.1735" stroke="white" stroke-miterlimit="10" stroke-linecap="round" stroke-linejoin="round"/>
<path d="M51.5595 11.6377C50.9383 12.9493 50.0557 17.6796 50.6035 21.7964" stroke="white" stroke-miterlimit="10" stroke-linecap="round" stroke-linejoin="round"/>
<path d="M68.3823 28.2275C67.3114 28.8867 65.4579 32.3063 70.4401 34.4295" stroke="white" stroke-miterlimit="10" stroke-linecap="round" stroke-linejoin="round"/>
<path d="M76.7842 8.4716C73.2642 7.88682 67.8445 13.1342 71.6439 17.6599" stroke="white" stroke-miterlimit="10" stroke-linecap="round" stroke-linejoin="round"/>
<path d="M94.2166 11.5723C92.7639 11.1273 91.1994 13.4181 90.3613 17.6597" stroke="white" stroke-miterlimit="10" stroke-linecap="round" stroke-linejoin="round"/>
<path d="M107.275 12.7388C105.822 12.2938 104.258 14.5846 103.42 18.8262" stroke="white" stroke-miterlimit="10" stroke-linecap="round" stroke-linejoin="round"/>
<path d="M69.8848 55.927C69.8848 55.927 70.5299 45.8383 80.1098 42.7331C88.3184 40.0725 94.5044 41.0901 94.5044 41.0901C94.5044 41.0901 92.6187 47.9823 85.6512 51.8921C80.4208 54.8271 69.8848 55.927 69.8848 55.927Z" fill="#35CCAD" stroke="#22093A" stroke-miterlimit="10" stroke-linecap="round" stroke-linejoin="round"/>
<path d="M64.8975 54.6683C64.8975 54.6683 67.0559 46.2275 62.8374 39.3953C58.9673 33.1274 52.9389 30.5815 52.9389 30.5815C52.9389 30.5815 51.066 37.1277 52.7658 42.9125C54.8255 49.9226 62.5584 56.0102 62.5584 56.0102" fill="#35CCAD"/>
<path d="M64.8975 54.6683C64.8975 54.6683 67.0559 46.2275 62.8374 39.3953C58.9673 33.1274 52.9389 30.5815 52.9389 30.5815C52.9389 30.5815 51.066 37.1277 52.7658 42.9125C54.8255 49.9226 62.5584 56.0102 62.5584 56.0102" stroke="#22093A" stroke-miterlimit="10" stroke-linecap="round" stroke-linejoin="round"/>
<path d="M65.7842 57.3291C65.7842 57.3291 61.5255 50.4539 70.0682 40.3565C77.1779 31.9529 80.3555 31.2537 80.6692 34.0929C80.9344 36.4935 74.996 37.6668 69.5373 48.3731C67.3011 52.7591 70.4755 56.0766 70.4755 56.0766" fill="#35CCAD"/>
<path d="M65.7842 57.3291C65.7842 57.3291 61.5255 50.4539 70.0682 40.3565C77.1779 31.9529 80.3555 31.2537 80.6692 34.0929C80.9344 36.4935 74.996 37.6668 69.5373 48.3731C67.3011 52.7591 70.4755 56.0766 70.4755 56.0766" stroke="#22093A" stroke-miterlimit="10" stroke-linecap="round" stroke-linejoin="round"/>
<path d="M66.2213 57.5372C66.2213 57.5372 40.7962 38.2596 26.8975 58.6875C10.6724 82.5347 32.7767 102.567 50.6334 106.877C57.8272 108.613 90.9779 116.895 102.409 88.5061C115.054 57.1027 84.2543 47.9623 60.2769 60.0687" fill="#E9022C"/>
<path d="M66.2213 57.5372C66.2213 57.5372 40.7962 38.2596 26.8975 58.6875C10.6724 82.5347 32.7767 102.567 50.6334 106.877C57.8272 108.613 90.9779 116.895 102.409 88.5061C115.054 57.1027 84.2543 47.9623 60.2769 60.0687" stroke="#22093A" stroke-miterlimit="10" stroke-linecap="round" stroke-linejoin="round"/>
<path d="M41.4883 73.3876C41.4883 73.3876 42.0793 63.3976 47.1361 64.4765C52.1929 65.5555 48.3904 76.148 48.3904 76.148" stroke="#22093A" stroke-miterlimit="10" stroke-linecap="round" stroke-linejoin="round"/>
<path d="M54.4199 77.6703C54.4199 77.6703 55.7267 65.6265 60.2456 66.8818C64.7644 68.137 61.9909 78.563 61.9909 78.563" stroke="#22093A" stroke-miterlimit="10" stroke-linecap="round" stroke-linejoin="round"/>
<path d="M34.6387 78.7534C34.6387 78.7534 41.7633 83.9278 49.1061 85.948C63.7784 89.9848 69.902 84.1002 69.902 84.1002C69.902 84.1002 65.5907 101.181 53.8166 99.3464C46.5179 98.2092 43.5811 93.1622 43.9106 84.6366" fill="white"/>
<path d="M34.6387 78.7534C34.6387 78.7534 41.7633 83.9278 49.1061 85.948C63.7784 89.9848 69.902 84.1002 69.902 84.1002C69.902 84.1002 65.5907 101.181 53.8166 99.3464C46.5179 98.2092 43.5811 93.1622 43.9106 84.6366" stroke="#22093A" stroke-miterlimit="10" stroke-linecap="round" stroke-linejoin="round"/>
<path d="M69.5877 72.8018C69.5877 72.8018 66.4102 80.1243 70.4599 84.2404C74.8581 88.7106 80.5059 86.2751 80.5059 86.2751" stroke="#22093A" stroke-miterlimit="10" stroke-linecap="round" stroke-linejoin="round"/>
<path d="M44.332 90.5503L65.2372 93.9176" stroke="#22093A" stroke-miterlimit="10" stroke-linecap="round" stroke-linejoin="round"/>
<path d="M51.7098 86.9375L50.3223 98.3642" stroke="#22093A" stroke-miterlimit="10" stroke-linecap="round" stroke-linejoin="round"/>
<path d="M59.44 88.0059L57.8691 99.2219" stroke="#22093A" stroke-miterlimit="10" stroke-linecap="round" stroke-linejoin="round"/>
<path d="M45.6241 53.7718C39.7638 53.3755 33.4582 55.1024 29.7715 62.2229" stroke="white" stroke-miterlimit="10" stroke-linecap="round" stroke-linejoin="round"/>
<path d="M51.0166 54.6982C50.3896 54.5289 49.7424 54.3749 49.0801 54.2417" stroke="white" stroke-miterlimit="10" stroke-linecap="round" stroke-linejoin="round"/>
<path d="M99.8797 82.7793C97.8533 89.4928 93.726 96.6177 87.25 100.943" stroke="#22093A" stroke-miterlimit="10" stroke-linecap="round" stroke-linejoin="round"/>
<path d="M101.314 75.2134C101.258 76.0251 101.164 76.8686 101.031 77.7357" stroke="#22093A" stroke-miterlimit="10" stroke-linecap="round" stroke-linejoin="round"/>
<path d="M55.1333 36.4937C54.9657 38.086 56.2911 43.8689 58.6036 47.0537" stroke="white" stroke-miterlimit="10" stroke-linecap="round" stroke-linejoin="round"/>
<path d="M86.6816 47.2675C87.2352 46.9106 87.7578 46.5322 88.2382 46.1318" stroke="#22093A" stroke-miterlimit="10" stroke-linecap="round" stroke-linejoin="round"/>
<path d="M75.248 51.4955C77.7852 51.0342 81.3141 50.0572 84.4154 48.5371" stroke="#22093A" stroke-miterlimit="10" stroke-linecap="round" stroke-linejoin="round"/>
<path d="M17.8247 63.7915L14.6392 68.7091L12.0508 69.5676L16.5838 72.1059L17.8247 75.3423L19.5997 71.4535L23.5987 69.5676L19.6233 67.7069L17.8247 63.7915Z" fill="#FCC707"/>
<path d="M17.8242 82.2353C17.4398 82.2353 17.1208 81.9393 17.0907 81.5571C16.3076 71.5035 15.8866 71.0839 5.83516 70.3009C5.45152 70.2721 5.15625 69.9517 5.15625 69.5681C5.15625 69.1844 5.45152 68.864 5.83444 68.8353C15.8866 68.0522 16.3076 67.6312 17.0907 57.5776C17.1208 57.1947 17.4398 56.8994 17.8242 56.8994C18.2085 56.8994 18.5275 57.1947 18.5577 57.5776C19.3408 67.6312 19.7618 68.0522 29.8139 68.8353C30.1968 68.864 30.4921 69.1844 30.4921 69.5681C30.4921 69.9517 30.1968 70.2721 29.8132 70.3009C19.7618 71.0839 19.3408 71.5035 18.5577 81.5571C18.5275 81.9393 18.2085 82.2353 17.8242 82.2353ZM12.0502 69.5681C15.6323 70.3253 17.0662 71.7593 17.8242 75.3427C18.5821 71.7593 20.0161 70.3253 23.5981 69.5681C20.0161 68.8094 18.5821 67.3754 17.8242 63.792C17.0662 67.3754 15.6323 68.8094 12.0502 69.5681Z" fill="#22093A"/>
<path d="M75.2475 100.44L71.9355 103.752L75.2475 107.064L78.5594 103.752L75.2475 100.44Z" fill="#FCC707"/>
<path d="M75.2478 113.037C74.8641 113.037 74.5437 112.741 74.515 112.358C73.9604 105.259 73.7391 105.038 66.6411 104.484C66.2589 104.456 65.9629 104.135 65.9629 103.752C65.9629 103.368 66.2589 103.048 66.6411 103.019C73.7391 102.466 73.9604 102.244 74.515 95.1465C74.5437 94.7643 74.8641 94.4683 75.2478 94.4683C75.6314 94.4683 75.9518 94.7643 75.9806 95.1465C76.5337 102.244 76.755 102.466 83.853 103.019C84.2352 103.048 84.5312 103.368 84.5312 103.752C84.5312 104.135 84.2352 104.456 83.853 104.484C76.755 105.038 76.5337 105.259 75.9806 112.358C75.9518 112.741 75.6314 113.037 75.2478 113.037ZM71.9358 103.752C73.7764 104.293 74.7046 105.223 75.2478 107.065C75.7895 105.223 76.7177 104.293 78.5583 103.752C76.7177 103.21 75.7895 102.282 75.2478 100.44C74.7046 102.282 73.7764 103.21 71.9358 103.752Z" fill="#22093A"/>
<path d="M94.8588 61.0831L91.5469 64.395L94.8588 67.7069L98.1707 64.395L94.8588 61.0831Z" fill="#FCC707"/>
<path d="M94.8591 73.6801C94.4755 73.6801 94.155 73.3841 94.1263 73.0019C93.5731 65.9025 93.3519 65.6812 86.2524 65.128C85.8702 65.0993 85.5742 64.7789 85.5742 64.3952C85.5742 64.0116 85.8702 63.6912 86.2524 63.6624C93.3519 63.1093 93.5731 62.888 94.1263 55.7893C94.155 55.4056 94.4755 55.1104 94.8591 55.1104C95.2427 55.1104 95.5632 55.4056 95.5919 55.7893C96.1451 62.888 96.3664 63.1093 103.466 63.6624C103.848 63.6912 104.144 64.0116 104.144 64.3952C104.144 64.7789 103.848 65.0993 103.466 65.128C96.3664 65.6812 96.1451 65.9025 95.5919 73.0019C95.5632 73.3841 95.2427 73.6801 94.8591 73.6801ZM91.5472 64.3952C93.3892 64.9369 94.3174 65.8651 94.8591 67.7072C95.4008 65.8651 96.329 64.9369 98.171 64.3952C96.329 63.8535 95.4008 62.9253 94.8591 61.0833C94.3174 62.9253 93.3892 63.8535 91.5472 64.3952Z" fill="#22093A"/>
</g>
<defs>
<clipPath id="clip0_5_11003">
<rect width="120" height="119.89" fill="white"/>
</clipPath>
</defs>
</svg>
