<svg width="120" height="120" viewBox="0 0 120 120" fill="none" xmlns="http://www.w3.org/2000/svg">
<path d="M98.3885 11.3163C95.9105 11.3459 92.8862 12.6596 91.674 23.1426C90.5917 32.5022 94.268 32.8531 95.2173 32.8418C96.1665 32.8305 101.742 33.2436 102.549 23.013C103.356 12.7825 102.06 11.2726 98.3885 11.3163Z" fill="#22093A" stroke="#22093A" stroke-linecap="round" stroke-linejoin="round"/>
<path d="M95.6093 43.1829C98.0082 43.1829 99.9529 41.2382 99.9529 38.8393C99.9529 36.4403 98.0082 34.4956 95.6093 34.4956C93.2103 34.4956 91.2656 36.4403 91.2656 38.8393C91.2656 41.2382 93.2103 43.1829 95.6093 43.1829Z" fill="#22093A" stroke="#22093A" stroke-linecap="round" stroke-linejoin="round"/>
<path d="M55.6779 8.7238C61.581 7.87969 71.1258 12.6484 71.5613 23.7845C71.9967 34.9206 64.9797 40.7232 58.5165 41.6009C52.685 42.3929 44.4739 38.7728 43.6026 26.939C42.8888 17.2442 47.0074 9.96364 55.6779 8.7238Z" fill="#22093A" stroke="#22093A" stroke-linecap="round" stroke-linejoin="round"/>
<path d="M57.4007 17.2294C58.2182 16.7332 59.6249 18.7761 59.8399 23.934C60.0548 29.0919 59.1493 31.9078 58.2536 32.4295C57.4454 32.9002 56.242 31.3665 55.9561 25.8928C55.722 21.4083 56.2 17.9582 57.4007 17.2294Z" fill="#22093A" stroke="#22093A" stroke-linecap="round" stroke-linejoin="round"/>
<path d="M80.9873 9.99857C69.1163 9.45728 65.3575 12.3648 66.1808 16.2298C67.418 22.0377 74.9727 21.3283 74.9727 21.3283C74.9727 21.3283 69.6456 41.1568 77.5836 41.6899C87.4802 42.3544 83.0524 20.9804 83.0524 20.9804C83.0524 20.9804 94.5847 21.91 94.302 17.0549C94.0644 12.9753 88.9431 10.3613 80.9873 9.99857Z" fill="#22093A" stroke="#22093A" stroke-linecap="round" stroke-linejoin="round"/>
<path d="M38.588 10.6153C35.1129 10.8151 33.3016 14.7918 33.4754 23.4085C32.4739 23.4059 31.3986 23.4603 30.275 23.5469C29.968 16.0568 28.5332 12.1475 24.5909 12.3743C20.8049 12.5919 18.9867 17.276 19.567 27.5779C20.1473 37.8797 21.934 43.8608 26.8941 43.2323C29.322 42.9248 30.0587 38.6903 30.267 33.0357C30.8226 32.9874 31.4005 32.9193 32.0216 32.8127C32.8101 32.6773 33.5278 32.5176 34.2045 32.3424C35.1663 38.5626 37.1 41.9536 40.8911 41.4733C44.1525 41.0602 44.3638 33.567 44.3394 25.0557C44.3121 15.4391 43.0693 10.3575 38.588 10.6153Z" fill="#22093A" stroke="#22093A" stroke-linecap="round" stroke-linejoin="round"/>
<path d="M96.9491 10.5956C94.4711 10.6252 91.4467 11.9389 90.2345 22.4219C89.1523 31.7815 92.8285 32.1324 93.7778 32.1211C94.7271 32.1098 100.303 32.5229 101.109 22.2923C101.916 12.0618 100.621 10.5519 96.9491 10.5956Z" fill="#E9022C" stroke="#22093A" stroke-linecap="round" stroke-linejoin="round"/>
<path d="M94.1679 42.4622C96.5668 42.4622 98.5115 40.5175 98.5115 38.1186C98.5115 35.7196 96.5668 33.7749 94.1679 33.7749C91.7689 33.7749 89.8242 35.7196 89.8242 38.1186C89.8242 40.5175 91.7689 42.4622 94.1679 42.4622Z" fill="#E9022C" stroke="#22093A" stroke-linecap="round" stroke-linejoin="round"/>
<path d="M54.2365 8.00309C60.1396 7.15898 69.6844 11.9277 70.1199 23.0638C70.5553 34.1999 63.5383 40.0024 57.0752 40.8802C51.2436 41.6722 43.0325 38.0521 42.1612 26.2184C41.4474 16.5235 45.566 9.24293 54.2365 8.00309Z" fill="#E9022C" stroke="#22093A" stroke-linecap="round" stroke-linejoin="round"/>
<path d="M55.9613 16.5082C56.7788 16.0121 58.1854 18.0549 58.4004 23.2128C58.6154 28.3707 57.7099 31.1866 56.8141 31.7083C56.0059 32.1791 54.8025 30.6453 54.5167 25.1716C54.2825 20.6872 54.7605 17.237 55.9613 16.5082Z" fill="#22093A" stroke="#22093A" stroke-linecap="round" stroke-linejoin="round"/>
<path d="M79.5478 9.27786C67.6768 8.73657 63.918 11.6441 64.7413 15.5091C65.9785 21.3169 73.5333 20.6076 73.5333 20.6076C73.5333 20.6076 68.2062 40.4361 76.1441 40.9691C86.0408 41.6336 81.613 20.2597 81.613 20.2597C81.613 20.2597 93.1453 21.1893 92.8625 16.3342C92.6249 12.2545 87.5037 9.64062 79.5478 9.27786Z" fill="#E9022C" stroke="#22093A" stroke-linecap="round" stroke-linejoin="round"/>
<path d="M37.1485 9.8946C33.6735 10.0944 31.8622 14.0711 32.036 22.6878C31.0345 22.6852 29.9592 22.7396 28.8355 22.8262C28.5286 15.336 27.0937 11.4268 23.1515 11.6536C19.3655 11.8712 17.5472 16.5553 18.1276 26.8572C18.7079 37.159 20.4946 43.14 25.4546 42.5116C27.8825 42.2041 28.6192 37.9696 28.8276 32.315C29.3832 32.2667 29.9611 32.1986 30.5822 32.0919C31.3706 31.9566 32.0884 31.7969 32.7651 31.6217C33.7268 37.8419 35.6606 41.2329 39.4517 40.7526C42.713 40.3395 42.9243 32.8463 42.9 24.335C42.8726 14.7184 41.6299 9.63681 37.1485 9.8946Z" fill="#E9022C" stroke="#22093A" stroke-linecap="round" stroke-linejoin="round"/>
<path d="M23.1262 14.7153C21.5028 15.3989 20.2212 19.7838 20.9047 26.2211" stroke="white" stroke-linecap="round" stroke-linejoin="round"/>
<path d="M35.0027 17.1572C34.7439 19.1785 34.7439 21.2245 35.0027 23.2457" stroke="white" stroke-linecap="round" stroke-linejoin="round"/>
<path d="M46.1958 27.7881C45.7686 31.7887 49.1903 36.8402 56.1108 37.4714" stroke="white" stroke-linecap="round" stroke-linejoin="round"/>
<path d="M46.5371 16.4362C47.3264 14.7941 48.5752 13.4162 50.132 12.4697" stroke="white" stroke-linecap="round" stroke-linejoin="round"/>
<path d="M93.5741 36.5029C92.5975 37.0247 92.2288 38.2394 92.7507 39.216C92.786 39.2821 92.825 39.3462 92.8676 39.408" stroke="white" stroke-linecap="round" stroke-linejoin="round"/>
<path d="M98.4659 19.2451C98.3866 22.5177 97.9701 25.9013 97.1289 26.9416" stroke="white" stroke-linecap="round" stroke-linejoin="round"/>
<path d="M98.2305 13.7754C98.3492 14.6584 98.4222 15.5469 98.449 16.4375" stroke="white" stroke-linecap="round" stroke-linejoin="round"/>
<path d="M75.0752 26.9419C74.2208 32.1216 74.1753 35.3637 76.3341 37.4715" stroke="white" stroke-linecap="round" stroke-linejoin="round"/>
<path d="M50.9037 32.1089C51.1998 46.8309 38.4761 54.3815 30.0734 69.9236C23.322 82.4113 22.0387 114.048 61.6314 113.326C99.3669 112.638 95.4426 81.1323 90.4109 69.3245C87.49 62.8721 82.485 57.5886 76.1999 54.323C69.9079 61.0439 66.8789 64.6247 66.8789 64.6247C66.8789 64.6247 73.8709 46.1404 50.9037 32.1089Z" fill="#22093A" stroke="#22093A" stroke-linecap="round" stroke-linejoin="round"/>
<path d="M50.9033 32.1089C51.1994 46.8309 37.6655 54.3815 29.2628 69.9236C22.5114 82.4113 21.2282 114.048 60.8209 113.326C98.5564 112.638 94.6321 81.1323 89.6004 69.3245C86.8628 63.0131 82.1634 57.7524 76.1996 54.323C69.9075 61.0439 66.0684 64.6247 66.0684 64.6247C66.0684 64.6247 73.8705 46.1404 50.9033 32.1089Z" fill="#FCC707" stroke="#22093A" stroke-linecap="round" stroke-linejoin="round"/>
<path d="M76.3183 79.6097C76.3183 79.6097 76.7964 71.6834 72.7106 72.0557C68.6248 72.428 70.6198 81.1323 70.6198 81.1323" stroke="#22093A" stroke-linecap="round" stroke-linejoin="round"/>
<path d="M64.68 81.7925C64.68 81.7925 64.679 72.9186 61.0132 73.5584C57.3474 74.1982 58.6416 81.9806 58.6416 81.9806" stroke="#22093A" stroke-linecap="round" stroke-linejoin="round"/>
<path d="M81.6181 85.1597C77.9228 87.7713 73.8473 89.798 69.5348 91.1687C57.2804 94.5402 52.166 89.6253 52.166 89.6253C52.166 89.6253 53.9774 104.714 65.6007 102.359C71.6473 101.134 74.1494 97.194 73.8742 90.0734" fill="#22093A"/>
<path d="M81.6181 85.1597C77.9228 87.7713 73.8473 89.798 69.5348 91.1687C57.2804 94.5402 52.166 89.6253 52.166 89.6253C52.166 89.6253 53.9774 104.714 65.6007 102.359C71.6473 101.134 74.1494 97.194 73.8742 90.0734" stroke="#22093A" stroke-linecap="round" stroke-linejoin="round"/>
<path d="M52.4295 80.1895C52.4295 80.1895 55.0833 86.3053 51.701 89.7431C49.4861 91.9186 46.1974 92.5847 43.3105 91.4425" stroke="#22093A" stroke-linecap="round" stroke-linejoin="round"/>
<path d="M63.855 101.891C66.8532 101.754 69.2256 100.368 69.1537 98.7941C69.0819 97.2205 66.5931 96.0558 63.5948 96.1926C60.5966 96.3295 58.2242 97.7161 58.2961 99.2897C58.3679 100.863 60.8567 102.028 63.855 101.891Z" fill="#FD32B0" stroke="#22093A" stroke-linecap="round" stroke-linejoin="round"/>
<path d="M30.106 79.4087C28.5126 86.6252 28.6585 96.395 37.822 104.112" stroke="white" stroke-linecap="round" stroke-linejoin="round"/>
<path d="M32.4816 72.043C32.0649 73.0471 31.5769 74.2972 31.1113 75.7339" stroke="white" stroke-linecap="round" stroke-linejoin="round"/>
<path d="M59.873 44.1514C61.524 46.7106 62.6544 49.5701 63.1996 52.5665" stroke="white" stroke-linecap="round" stroke-linejoin="round"/>
<path d="M55.8984 39.4082C56.654 39.9387 57.3244 40.5812 57.8864 41.3136" stroke="white" stroke-linecap="round" stroke-linejoin="round"/>
<path d="M88.2982 91.8164C87.3163 96.171 84.9768 100.101 81.6172 103.04L88.2982 91.8164Z" fill="#FCC707"/>
<path d="M88.2982 91.8164C87.3163 96.171 84.9768 100.101 81.6172 103.04" stroke="#22093A" stroke-linecap="round" stroke-linejoin="round"/>
<path d="M86.2601 52.697C86.8602 53.9222 88.3399 54.4289 89.5651 53.8288C89.8927 53.6684 90.1807 53.4373 90.4084 53.1523C91.5266 51.5637 88.5683 44.1328 87.7668 46.2682C86.9697 48.3916 85.2215 50.5342 86.2601 52.697Z" fill="#FCC707" stroke="#22093A" stroke-linecap="round" stroke-linejoin="round"/>
<path d="M30.9589 46.2468C29.9652 44.0118 25.0027 52.7683 28.5207 55.6585C29.7971 56.784 31.7443 56.6616 32.8697 55.3851C33.3199 54.8745 33.5883 54.2293 33.6331 53.5501C33.7878 51.064 32.3188 49.3054 30.9589 46.2468Z" fill="#EC6509" stroke="#22093A" stroke-linecap="round" stroke-linejoin="round"/>
<path d="M43.5222 89.5464C47.1729 89.5464 50.1324 86.587 50.1324 82.9363C50.1324 79.2856 47.1729 76.3262 43.5222 76.3262C39.8716 76.3262 36.9121 79.2856 36.9121 82.9363C36.9121 86.587 39.8716 89.5464 43.5222 89.5464Z" fill="#FF897D"/>
<path d="M55.2151 51.4451C55.8915 49.6558 60.1558 56.2722 57.5375 58.6854C56.5909 59.6209 55.0651 59.612 54.1296 58.6654C53.7554 58.2868 53.5171 57.7949 53.4519 57.2666C53.2205 55.3323 54.2893 53.8938 55.2151 51.4451Z" fill="#EC6509" stroke="#22093A" stroke-linecap="round" stroke-linejoin="round"/>
<path d="M89.4368 65.4624C90.2554 63.6214 94.3433 70.8346 91.4453 73.2155C90.3938 74.1426 88.7898 74.0417 87.8627 72.9902C87.4919 72.5696 87.2708 72.0381 87.2339 71.4786C87.1065 69.4307 88.3167 67.982 89.4368 65.4624Z" fill="#EC6509" stroke="#22093A" stroke-linecap="round" stroke-linejoin="round"/>
<path d="M41.9522 68.7322C42.4148 69.6766 43.5554 70.0672 44.4998 69.6046C44.7523 69.481 44.9743 69.3029 45.1499 69.0832C46.0118 67.8586 43.7315 62.1307 43.1136 63.7768C42.4993 65.4135 41.1517 67.0651 41.9522 68.7322Z" fill="#FCC707" stroke="#22093A" stroke-linecap="round" stroke-linejoin="round"/>
</svg>
