<svg width="120" height="121" viewBox="0 0 120 121" fill="none" xmlns="http://www.w3.org/2000/svg">
<g clip-path="url(#clip0_5_10994)">
<path opacity="0.5" d="M117.407 16.0145C115.615 12.9135 112.082 10.2269 107.127 8.20876C104.831 7.2743 99.2391 4.99587 94.3808 5.75873C91.78 3.81392 88.5545 2.89411 85.319 3.17458C83.4633 3.24113 81.6476 3.73327 80.0123 4.61302C77.4086 2.13075 73.9795 0.698149 70.3838 0.590442H70.3477C66.6161 0.527622 63.0031 1.90172 60.2563 4.42844C58.3576 1.963 55.3516 0.610706 52.2472 0.825495C50.4403 0.936303 48.7245 1.65695 47.3803 2.86958C45.9203 2.01103 44.2242 1.64144 42.5394 1.81473C39.7399 2.10485 37.2135 3.6221 35.6421 5.95695C31.8959 2.22342 25.8324 2.23367 22.0989 5.97985C21.2826 6.79889 20.6214 7.75899 20.1473 8.81368C17.4089 7.29505 14.1586 6.99654 11.1894 7.99099C5.09095 10.0048 1.72814 16.8661 2.19534 26.3446C2.29628 28.3829 2.99134 38.3828 7.07232 43.2432C10.1669 48.5896 14.4887 48.0322 15.7808 47.7251C18.4075 47.092 20.5582 45.2136 21.5389 42.6959C23.8986 44.1253 26.8523 44.1449 29.2308 42.7471C29.6189 42.5207 29.9922 42.2697 30.3484 41.9958C32.0327 42.2251 33.7459 42.1148 35.3869 41.6714C35.9284 48.8844 38.5651 57.6774 45.6142 62.9562C41.0516 67.0685 37.508 73.6786 35.2009 82.5598C34.4857 82.9509 33.8024 83.3979 33.1575 83.8966C29.9749 81.5633 24.9811 79.4284 17.4869 79.7694C15.1478 79.874 10.839 80.962 8.25056 87.0734C5.03184 94.6773 5.47454 110.233 10.34 115.724C10.7899 116.227 11.3026 116.671 11.8657 117.043C14.5652 119.936 19.1725 120.47 22.5368 120.426C26.7987 120.385 30.9853 119.298 34.7293 117.261C37.8914 119.706 41.8922 120.802 45.859 120.309C47.9623 120.028 49.9917 119.344 51.8362 118.295C53.3158 119.842 55.3863 120.681 57.5251 120.602C60.2484 120.526 62.8038 119.269 64.5248 117.157C66.5476 118.813 69.1762 119.539 71.7624 119.153C72.8474 118.982 73.8827 118.579 74.7979 117.972C76.2629 119.043 77.9959 119.687 79.8046 119.834C84.0047 120.331 88.2622 119.758 92.1817 118.17C95.7964 121.675 101.568 121.586 105.073 117.971C107.772 115.188 108.415 111.003 106.677 107.538C108.834 104.726 110.068 101.317 110.212 97.7762C110.7 92.6065 111.352 85.7063 106.609 82.74C104.885 81.0133 102.506 80.1033 100.07 80.2381H100.028C97.3911 80.1772 94.8612 81.2797 93.1107 83.2525C90.7198 80.911 86.6349 80.4274 82.67 81.0492C81.522 72.9031 78.002 66.4697 72.587 62.4649C78.7009 57.006 82.006 48.0083 83.7775 40.1817C85.7254 40.4582 87.7073 40.3778 89.6264 39.9445C90.5064 41.2128 91.7272 42.2062 93.1479 42.8098C95.7799 44.0078 98.826 43.8757 101.344 42.4544C105.398 40.1716 107.672 34.7849 108.904 30.3304C111.164 30.8377 113.525 30.6525 115.678 29.799C117.609 28.9238 119.057 27.2443 119.638 25.2061C120.536 21.9626 119.692 18.4856 117.407 16.0145Z" fill="#231F20"/>
<path d="M115.255 15.4242C113.463 12.3231 109.93 9.63657 104.975 7.61842C102.679 6.68398 97.0867 4.40555 92.2285 5.16839C89.6276 3.2236 86.4021 2.30379 83.1667 2.58425C81.311 2.65079 79.4953 3.14294 77.86 4.02269C75.2563 1.54042 71.8272 0.107816 68.2315 0.000108591H68.1954C64.4638 -0.0626949 60.8508 1.31141 58.104 3.83811C56.2053 1.37267 53.1993 0.0203786 50.0949 0.235162C48.288 0.345972 46.5721 1.06663 45.228 2.27926C43.768 1.4207 42.0719 1.05111 40.3871 1.2244C37.5876 1.51454 35.0612 3.03181 33.4898 5.36668C29.7436 1.63314 23.6801 1.64336 19.9466 5.38951C19.1303 6.20855 18.4691 7.16867 17.995 8.22336C15.2566 6.70473 12.0062 6.40622 9.03702 7.40068C2.93863 9.41449 -0.424228 16.2758 0.0429991 25.7543C0.143943 27.7926 0.839003 37.7925 4.91998 42.6529C8.01462 47.9992 12.3364 47.4419 13.6285 47.1347C16.2552 46.5016 18.4058 44.6232 19.3866 42.1056C21.7463 43.535 24.6999 43.5546 27.0785 42.1568C27.4666 41.9304 27.8398 41.6794 28.196 41.4055C29.8804 41.6348 31.5935 41.5245 33.2345 41.081C33.776 48.2941 36.4128 57.0871 43.4618 62.3659C38.8993 66.4781 35.3557 73.0883 33.0486 81.9694C32.3333 82.3606 31.6501 82.8075 31.0052 83.3062C27.8226 80.973 22.8288 78.8381 15.3345 79.1791C12.9955 79.2837 8.68663 80.3717 6.09822 86.483C2.87947 94.0869 3.3222 109.643 8.18765 115.134C8.63754 115.637 9.15031 116.08 9.71334 116.453C12.4128 119.346 17.0202 119.88 20.3845 119.836C24.6464 119.795 28.833 118.708 32.5769 116.671C35.7391 119.116 39.7399 120.212 43.7066 119.719C45.8099 119.438 47.8394 118.754 49.6839 117.705C51.1635 119.251 53.234 120.091 55.3728 120.011C58.0961 119.936 60.6515 118.678 62.3724 116.566C64.3952 118.223 67.0239 118.948 69.6101 118.563C70.695 118.392 71.7304 117.989 72.6456 117.382C74.1106 118.453 75.8435 119.097 77.6523 119.243C81.8523 119.74 86.1098 119.168 90.0294 117.579C93.6441 121.084 99.4158 120.995 102.921 117.38C105.619 114.597 106.263 110.412 104.525 106.947C106.681 104.136 107.916 100.726 108.059 97.1858C108.548 92.0161 109.2 85.1159 104.457 82.1496C102.733 80.4229 100.354 79.513 97.9174 79.6478H97.8755C95.2388 79.5869 92.7088 80.6894 90.9583 82.6622C88.5674 80.3207 84.4826 79.837 80.5177 80.4589C79.3697 72.3127 75.8497 65.8793 70.4346 61.8746C76.5485 56.4157 79.8537 47.418 81.6252 39.5914C83.573 39.8679 85.555 39.7875 87.4741 39.3542C88.354 40.6225 89.5749 41.6158 90.9956 42.2195C93.6276 43.4175 96.6737 43.2854 99.1921 41.8641C103.246 39.5813 105.52 34.1946 106.751 29.7401C109.012 30.2474 111.372 30.0622 113.526 29.2087C115.456 28.3335 116.904 26.654 117.486 24.6158C118.384 21.3723 117.54 17.8953 115.255 15.4242Z" fill="white"/>
<path d="M104.256 14.1697C95.3233 10.5326 91.6591 11.7358 91.2394 14.9154C90.6087 19.6932 96.5793 21.2019 96.5793 21.2019C96.5793 21.2019 87.1214 34.9208 93.0478 37.4837C100.437 40.679 102.853 23.1295 102.853 23.1295C102.853 23.1295 111.421 26.9716 112.523 23.1816C113.449 19.9969 110.242 16.6072 104.256 14.1697Z" fill="#22093A" stroke="#22093A" stroke-linecap="round" stroke-linejoin="round"/>
<path d="M51.7298 7.1522C48.7204 7.38899 48.2076 11.0478 47.143 13.7985C45.926 11.3982 45.0229 7.87226 42.0791 8.13671C38.6764 8.44229 36.6706 13.5278 35.9287 19.2645C35.1238 25.4886 35.0415 33.9377 38.8151 33.8849C43.1657 33.8239 43.7324 21.3596 43.7324 21.3596C43.7324 21.3596 44.062 30.0989 47.8567 29.8148C52.1895 29.4905 51.4526 20.9439 51.4526 20.9439C51.4526 20.9439 52.4894 33.0104 57.2614 32.5628C59.4424 32.3582 60.3881 29.2702 60.1575 26.1444C59.9082 22.7631 58.2733 6.6373 51.7298 7.1522Z" fill="#22093A" stroke="#22093A" stroke-linecap="round" stroke-linejoin="round"/>
<path d="M69.4419 6.93314C73.7601 6.9192 80.0768 11.4682 79.1804 19.8136C78.2841 28.159 72.6304 31.7525 67.9077 31.7331C63.6464 31.7157 58.16 28.1618 58.82 19.251C59.3606 11.9508 63.0994 6.95363 69.4419 6.93314Z" fill="#22093A" stroke="#22093A" stroke-linecap="round" stroke-linejoin="round"/>
<path d="M69.7528 13.4519C70.3919 13.1673 71.1774 14.8365 70.7718 18.7032C70.3662 22.5699 69.4123 24.5744 68.7144 24.8698C68.0847 25.1364 67.3894 23.8679 67.7786 19.7584C68.0974 16.3916 68.8139 13.8699 69.7528 13.4519Z" fill="#22093A" stroke="#22093A" stroke-linecap="round" stroke-linejoin="round"/>
<path d="M92.1828 15.2955C92.1852 12.5479 90.574 9.31026 84.5717 9.51404C78.6622 9.71467 74.712 17.5469 80.6472 20.981C86.1431 24.1609 84.3322 27.8511 81.9473 25.736C77.3598 21.6675 72.4716 30.0108 78.7149 33.3041C84.9582 36.5974 92.0234 32.9669 92.9611 28.9384C94.7372 21.3075 88.9042 19.8566 86.2231 18.5549C86.2231 18.5549 92.1791 19.4892 92.1828 15.2955Z" fill="#22093A" stroke="#22093A" stroke-linecap="round" stroke-linejoin="round"/>
<path d="M33.148 28.0627C38.6653 22.9341 41.3664 28.4825 40.7341 30.7081C40.2748 32.3244 37.2137 34.2993 34.2806 35.3235C31.3475 36.3477 24.528 39.5063 22.8231 25.7212C21.1183 11.9361 25.3469 9.76216 27.5159 9.52799C30.1184 9.24705 33.8438 11.4133 33.5002 19.3322C33.2391 25.3486 33.148 28.0627 33.148 28.0627Z" fill="#22093A" stroke="#22093A" stroke-linecap="round" stroke-linejoin="round"/>
<path d="M11.887 14.0731C7.59563 15.4899 6.13966 21.2693 6.43521 27.2641C6.7559 33.7679 8.94074 42.9555 12.4177 42.1179C15.0149 41.4922 15.6473 37.6683 15.5819 33.7562L18.0723 32.9458C19.9073 36.2581 22.226 39.0127 24.473 37.7013C26.9457 36.2581 27.7574 33.3647 26.7846 30.3089C25.7322 27.0034 20.1318 11.3511 11.887 14.0731ZM15.304 29.6892C14.9838 26.8431 14.5068 24.6376 14.5068 24.6376C14.5068 24.6376 15.2042 26.7842 16.3233 29.3575L15.304 29.6892Z" fill="#22093A" stroke="#22093A" stroke-linecap="round" stroke-linejoin="round"/>
<path d="M103.025 12.4129C94.0928 8.77577 90.4286 9.97899 90.0089 13.1586C89.3782 17.9364 95.3489 19.4451 95.3489 19.4451C95.3489 19.4451 85.8909 33.164 91.8173 35.7269C99.2061 38.9222 101.623 21.3727 101.623 21.3727C101.623 21.3727 110.191 25.2148 111.293 21.4248C112.219 18.24 109.011 14.8504 103.025 12.4129Z" fill="#35CCAD" stroke="#22093A" stroke-linecap="round" stroke-linejoin="round"/>
<path d="M50.5012 5.39536C47.4918 5.63211 46.9791 9.29096 45.9145 12.0417C44.6974 9.64135 43.7943 6.11543 40.8505 6.37981C37.4478 6.68539 35.442 11.7709 34.7002 17.5076C33.8953 23.7317 33.813 32.1808 37.5866 32.128C41.9371 32.067 42.5039 19.6027 42.5039 19.6027C42.5039 19.6027 42.8334 28.342 46.6281 28.0579C50.9609 27.7336 50.224 19.187 50.224 19.187C50.224 19.187 51.2609 31.2535 56.0329 30.8059C58.2139 30.6014 59.1595 27.5133 58.929 24.3875C58.6796 21.0062 57.0446 4.8805 50.5012 5.39536Z" fill="#35CCAD" stroke="#22093A" stroke-linecap="round" stroke-linejoin="round"/>
<path d="M68.2115 5.1763C72.5296 5.16236 78.8463 9.71134 77.95 18.0568C77.0536 26.4022 71.4 29.9957 66.6772 29.9763C62.4159 29.9589 56.9296 26.4049 57.5895 17.4942C58.1302 10.1939 61.8689 5.19678 68.2115 5.1763Z" fill="#35CCAD" stroke="#22093A" stroke-linecap="round" stroke-linejoin="round"/>
<path d="M68.5243 11.6956C69.1634 11.4109 69.9489 13.0801 69.5433 16.9468C69.1377 20.8135 68.1838 22.818 67.4859 23.1135C66.8561 23.3801 66.1609 22.1115 66.5501 18.002C66.8689 14.6353 67.5854 12.1136 68.5243 11.6956Z" fill="#22093A" stroke="#22093A" stroke-linecap="round" stroke-linejoin="round"/>
<path d="M90.9523 13.5387C90.9547 10.791 89.3435 7.55344 83.3413 7.7572C77.4317 7.95783 73.4815 15.79 79.4168 19.2242C84.9126 22.4041 83.1017 26.0942 80.7168 23.9792C76.1293 19.9107 71.2411 28.2539 77.4844 31.5473C83.7277 34.8406 90.793 31.21 91.7306 27.1816C93.5067 19.5507 87.6738 18.0998 84.9927 16.7981C84.9926 16.798 90.9487 17.7324 90.9523 13.5387Z" fill="#35CCAD" stroke="#22093A" stroke-linecap="round" stroke-linejoin="round"/>
<path d="M31.9175 26.3064C37.4348 21.1778 40.136 26.7262 39.5036 28.9518C39.0444 30.568 35.9833 32.543 33.0502 33.5672C30.1171 34.5914 23.2975 37.75 21.5927 23.9648C19.8878 10.1797 24.1164 8.0058 26.2855 7.77165C28.888 7.49069 32.6133 9.65691 32.2697 17.5758C32.0087 23.5923 31.9175 26.3064 31.9175 26.3064Z" fill="#35CCAD" stroke="#22093A" stroke-linecap="round" stroke-linejoin="round"/>
<path d="M10.6566 12.3162C6.36525 13.7331 4.90927 19.5125 5.20472 25.5073C5.52539 32.0111 7.71025 41.1987 11.1871 40.3611C13.7844 39.7354 14.4168 35.9115 14.3514 31.9994L16.8419 31.189C18.6769 34.5013 20.9956 37.2559 23.2426 35.9445C25.7153 34.5013 26.527 31.6079 25.5542 28.5521C24.5018 25.2466 18.9014 9.59424 10.6566 12.3162ZM14.0735 27.9323C13.7533 25.0862 13.2764 22.8808 13.2764 22.8808C13.2764 22.8808 13.9737 25.0274 15.0928 27.6007L14.0735 27.9323Z" fill="#35CCAD" stroke="#22093A" stroke-linecap="round" stroke-linejoin="round"/>
<path d="M10.3159 15.9321C7.68296 19.1622 7.52679 23.4071 8.76046 30.2229" stroke="white" stroke-linecap="round" stroke-linejoin="round"/>
<path d="M26.5414 10.661C25.2341 10.5488 23.5518 12.9399 23.7761 17.5762" stroke="white" stroke-linecap="round" stroke-linejoin="round"/>
<path d="M36.4492 26.9233C36.4492 26.9233 37.4016 27.6523 36.4492 28.9421" stroke="white" stroke-linecap="round" stroke-linejoin="round"/>
<path d="M39.4707 11.9267C39.4707 11.9267 39.7089 9.95941 40.992 9.38867" stroke="white" stroke-linecap="round" stroke-linejoin="round"/>
<path d="M49.6016 9.50458C49.6016 8.81467 50.5169 7.52634 51.2109 7.74796" stroke="white" stroke-linecap="round" stroke-linejoin="round"/>
<path d="M67.6541 7.72266C66.7864 7.76508 61.787 8.32633 60.625 15.2488" stroke="white" stroke-linecap="round" stroke-linejoin="round"/>
<path d="M60.429 17.9468C60.176 19.0201 60.2628 20.1455 60.6773 21.1674" stroke="white" stroke-linecap="round" stroke-linejoin="round"/>
<path d="M83.2931 10.1782C79.9836 10.1782 77.7683 14.2668 79.7382 16.2686" stroke="white" stroke-linecap="round" stroke-linejoin="round"/>
<path d="M88.8346 22.6924C89.171 23.2854 89.9 27.2107 87.1523 28.5565" stroke="white" stroke-linecap="round" stroke-linejoin="round"/>
<path d="M92.6934 32.8292C94.2635 33.8849 95.8336 32.4746 97.0112 28.9419" stroke="white" stroke-linecap="round" stroke-linejoin="round"/>
<path d="M58.3009 28.2474C47.7446 28.3015 39.2012 31.1182 39.2187 34.5389C39.2187 34.5389 36.7193 56.557 53.4062 61.0491C54.6548 61.3882 55.9379 61.5847 57.2307 61.6349L57.2575 61.6403C60.1632 62.0644 63.1114 61.2232 65.3557 59.3294C73.4924 53.8061 76.3656 40.032 77.2352 35.2768L77.2118 35.2763C77.3575 34.9862 77.4376 34.6676 77.4464 34.343C77.429 30.9224 68.8572 28.1933 58.3009 28.2474Z" stroke="#22093A" stroke-linecap="round" stroke-linejoin="round"/>
<path d="M37.6585 88.719C37.5105 89.0978 37.4234 89.4977 37.4004 89.9038C37.4179 93.3244 45.9897 96.0536 56.546 95.9995C67.1023 95.9454 75.6456 93.1286 75.6281 89.708C75.6281 89.708 78.1275 67.6899 61.4407 63.1978C44.0709 58.5218 38.9396 81.8105 37.6585 88.719Z" fill="#22093A" stroke="#22093A" stroke-linecap="round" stroke-linejoin="round"/>
<path d="M75.9677 35.6484C74.7791 42.1495 69.7991 65.7433 52.4583 61.0752C35.9952 56.6433 38.4611 34.9204 38.4611 34.9204C38.4611 34.9204 39.4357 41.1704 57.1534 40.9342C74.871 40.6979 75.9677 35.6484 75.9677 35.6484Z" fill="white" stroke="#22093A" stroke-linecap="round" stroke-linejoin="round"/>
<path d="M57.3499 40.9349C67.7647 40.8816 76.1935 38.1026 76.1762 34.7279C76.159 31.3532 67.7021 28.6607 57.2873 28.714C46.8725 28.7673 38.4437 31.5463 38.461 34.921C38.4783 38.2957 46.9351 40.9883 57.3499 40.9349Z" fill="white" stroke="#22093A" stroke-miterlimit="4.00001" stroke-linecap="round" stroke-linejoin="round"/>
<path d="M74.3836 89.3504C74.3836 89.3504 76.8495 67.6275 60.3864 63.1956C43.0456 58.5275 38.0655 82.1214 36.877 88.6224" fill="white"/>
<path d="M74.3836 89.3504C74.3836 89.3504 76.8495 67.6275 60.3864 63.1956C43.0456 58.5275 38.0655 82.1214 36.877 88.6224" stroke="#22093A" stroke-linecap="round" stroke-linejoin="round"/>
<path d="M36.6699 89.5435C36.6527 86.1688 45.6108 75.0648 56.0256 75.0114C66.4403 74.9581 74.3678 85.9756 74.3851 89.3503C74.4024 92.725 65.9736 95.504 55.5588 95.5574C45.1441 95.6107 36.6872 92.9182 36.6699 89.5435Z" fill="#9736FF" stroke="#22093A" stroke-linecap="round" stroke-linejoin="round"/>
<path d="M41.0938 50.0098C46.3524 51.8453 51.8405 52.9413 57.4008 53.2663C62.1211 53.253 66.8019 52.4063 71.2278 50.7653C71.2278 50.7653 64.9999 63.2577 56.2583 61.6588C47.5168 60.0598 43.5778 57.4962 41.0938 50.0098Z" fill="#9736FF" stroke="#22093A" stroke-linecap="round" stroke-linejoin="round"/>
<path d="M55.8974 70.4935C56.9765 70.4935 57.8514 69.6186 57.8514 68.5395C57.8514 67.4603 56.9765 66.5854 55.8974 66.5854C54.8182 66.5854 53.9434 67.4603 53.9434 68.5395C53.9434 69.6186 54.8182 70.4935 55.8974 70.4935Z" fill="#9736FF" stroke="#22093A" stroke-linecap="round" stroke-linejoin="round"/>
<path d="M61.7069 73.0671C62.409 73.0671 62.9782 72.4979 62.9782 71.7957C62.9782 71.0936 62.409 70.5244 61.7069 70.5244C61.0047 70.5244 60.4355 71.0936 60.4355 71.7957C60.4355 72.4979 61.0047 73.0671 61.7069 73.0671Z" fill="#9736FF" stroke="#22093A" stroke-linecap="round" stroke-linejoin="round"/>
<path d="M55.9465 53.476C64.4893 53.4322 71.4056 51.6152 71.3943 49.4175C71.383 47.2198 64.4486 45.4737 55.9057 45.5174C47.3628 45.5612 40.4466 47.3783 40.4579 49.576C40.4691 51.7736 47.4036 53.5197 55.9465 53.476Z" fill="#9736FF" stroke="#22093A" stroke-linecap="round" stroke-linejoin="round"/>
<path d="M61.4544 48.0659C63.8611 48.3068 66.2444 48.6962 66.0891 49.3115C65.7832 50.524 57.589 50.8143 52.1348 50.5274" stroke="#C295FC" stroke-linecap="round" stroke-linejoin="round"/>
<path d="M57.5391 47.8716C57.9908 47.8998 58.3697 47.8143 59.5088 47.8986" stroke="#C295FC" stroke-linecap="round" stroke-linejoin="round"/>
<path d="M49.9267 79.811C46.8228 81.4119 42.1248 85.0334 40.2324 88.7477" stroke="#C295FC" stroke-linecap="round" stroke-linejoin="round"/>
<path d="M47.5193 48.5762C46.817 48.5734 46.1228 48.726 45.4863 49.023" stroke="#C295FC" stroke-linecap="round" stroke-linejoin="round"/>
<path d="M16.9541 85.5189C8.83386 85.8824 9.39282 108.311 13.4436 112.883C16.1385 115.925 28.8688 115.298 33.072 109.58C37.2751 103.862 37.0692 84.6182 16.9541 85.5189Z" fill="#22093A" stroke="#22093A" stroke-linecap="round" stroke-linejoin="round"/>
<path d="M22.0047 97.0091C20.0646 97.096 20.1981 102.455 21.1659 103.547C21.8097 104.274 24.8514 104.124 25.8556 102.758C26.9497 100.958 26.3775 98.6119 24.5776 97.5178C23.8071 97.0494 22.8955 96.8692 22.0047 97.0091Z" fill="#22093A" stroke="#22093A" stroke-linecap="round" stroke-linejoin="round"/>
<path d="M40.9314 86.3693C45.804 85.687 53.6372 89.8474 53.9135 99.4069C54.1898 108.966 48.362 113.896 43.0274 114.603C38.2141 115.241 31.4719 112.076 30.8415 101.915C30.3251 93.5898 33.7745 87.3714 40.9314 86.3693Z" fill="#22093A" stroke="#22093A" stroke-linecap="round" stroke-linejoin="round"/>
<path d="M42.3111 95.8596C42.99 95.5776 44.1288 96.7488 44.2536 99.6987C44.3783 102.649 43.6033 104.257 42.8596 104.553C42.1886 104.821 41.2122 103.941 41.0322 100.811C40.8848 98.2457 41.3138 96.2738 42.3111 95.8596Z" fill="#22093A" stroke="#22093A" stroke-linecap="round" stroke-linejoin="round"/>
<path d="M54.6208 89.9471C50.3514 91.5489 48.8593 115.054 55.2106 114.854C61.5619 114.653 59.8345 103.09 59.8345 103.09C59.8345 103.09 63.489 114.301 68.8096 113.465C74.9087 112.507 75.485 87.8053 70.5949 87.4288C64.0059 86.9215 63.3841 97.4793 63.3841 97.4793C63.3841 97.4793 59.9151 87.9608 54.6208 89.9471Z" fill="#22093A" stroke="#22093A" stroke-linecap="round" stroke-linejoin="round"/>
<path d="M88.8885 87.6738C87.1669 85.339 75.5808 86.3125 73.3535 93.1386C71.9002 97.5928 70.5467 113.449 78.0975 114.102C85.6483 114.756 91.7845 112.334 91.3394 108.291C90.8943 104.249 81.3969 105.304 81.3969 105.304C81.3969 105.304 89.4794 103.811 89.3025 99.5888C89.1256 95.3661 80.7727 97.8901 80.7727 97.8901C80.7727 97.8901 93.5075 93.9381 88.8885 87.6738Z" fill="#22093A" stroke="#22093A" stroke-linecap="round" stroke-linejoin="round"/>
<path d="M99.2888 85.9927C97.0309 85.9848 94.257 87.1392 93.0053 96.6727C91.8878 105.185 95.2321 105.556 96.0971 105.559C96.9621 105.562 102.036 106.017 102.915 96.7075C103.793 87.3982 102.634 86.0045 99.2888 85.9927Z" fill="#22093A" stroke="#22093A" stroke-linecap="round" stroke-linejoin="round"/>
<path d="M96.3679 114.986C98.5537 114.986 100.326 113.214 100.326 111.029C100.326 108.843 98.5537 107.071 96.3679 107.071C94.1821 107.071 92.4102 108.843 92.4102 111.029C92.4102 113.214 94.1821 114.986 96.3679 114.986Z" fill="#22093A" stroke="#22093A" stroke-linecap="round" stroke-linejoin="round"/>
<path d="M15.5654 84.3499C7.44524 84.7135 8.00413 107.142 12.0549 111.714C14.7498 114.756 27.4801 114.129 31.6833 108.411C35.8864 102.693 35.6805 83.4492 15.5654 84.3499Z" fill="#35CCAD" stroke="#22093A" stroke-linecap="round" stroke-linejoin="round"/>
<path d="M20.614 95.8402C18.6739 95.927 18.8075 101.286 19.7753 102.378C20.4191 103.105 23.4607 102.955 24.465 101.589C25.5591 99.789 24.9869 97.443 23.187 96.3488C22.4165 95.8804 21.5049 95.7002 20.614 95.8402Z" fill="#22093A" stroke="#22093A" stroke-linecap="round" stroke-linejoin="round"/>
<path d="M39.5427 85.2008C44.4154 84.5186 52.2485 88.6789 52.5248 98.2384C52.8011 107.798 46.9733 112.727 41.6387 113.435C36.8254 114.073 30.0833 110.907 29.4529 100.746C28.9364 92.4213 32.3858 86.2029 39.5427 85.2008Z" fill="#35CCAD" stroke="#22093A" stroke-linecap="round" stroke-linejoin="round"/>
<path d="M40.9224 94.6912C41.6014 94.4091 42.7402 95.5803 42.8649 98.5302C42.9897 101.48 42.2146 103.088 41.471 103.385C40.7999 103.652 39.8235 102.773 39.6435 99.642C39.4961 97.0772 39.9251 95.1053 40.9224 94.6912Z" fill="#22093A" stroke="#22093A" stroke-linecap="round" stroke-linejoin="round"/>
<path d="M53.2301 88.7782C48.9607 90.38 47.4687 113.885 53.82 113.685C60.1713 113.484 58.4438 101.921 58.4438 101.921C58.4438 101.921 62.0983 113.132 67.4189 112.296C73.5181 111.338 74.0943 86.6363 69.2042 86.2599C62.6151 85.7526 61.9933 96.3104 61.9933 96.3104C61.9933 96.3104 58.5245 86.7919 53.2301 88.7782Z" fill="#35CCAD" stroke="#22093A" stroke-linecap="round" stroke-linejoin="round"/>
<path d="M87.4998 86.5048C85.7782 84.1701 74.1921 85.1435 71.9649 91.9697C70.5116 96.4239 69.1581 112.28 76.7089 112.933C84.2596 113.587 90.3958 111.165 89.9507 107.122C89.5056 103.08 80.0083 104.136 80.0083 104.136C80.0083 104.136 88.0907 102.643 87.9138 98.4198C87.7369 94.1971 79.384 96.7211 79.384 96.7211C79.384 96.7211 92.1188 92.7691 87.4998 86.5048Z" fill="#35CCAD" stroke="#22093A" stroke-linecap="round" stroke-linejoin="round"/>
<path d="M97.9001 84.8238C95.6422 84.8158 92.8683 85.9702 91.6167 95.5038C90.4992 104.016 93.8435 104.387 94.7085 104.39C95.5735 104.393 100.648 104.848 101.526 95.5386C102.405 86.2293 101.246 84.8355 97.9001 84.8238Z" fill="#35CCAD" stroke="#22093A" stroke-linecap="round" stroke-linejoin="round"/>
<path d="M94.9793 113.817C97.1651 113.817 98.937 112.045 98.937 109.86C98.937 107.674 97.1651 105.902 94.9793 105.902C92.7934 105.902 91.0215 107.674 91.0215 109.86C91.0215 112.045 92.7934 113.817 94.9793 113.817Z" fill="#35CCAD" stroke="#22093A" stroke-linecap="round" stroke-linejoin="round"/>
<path d="M18.6121 87.1089C16.4996 86.9462 14.2721 87.2232 13.5898 89.4062C12.2959 93.5913 11.8596 97.9944 12.307 102.352" stroke="white" stroke-linecap="round" stroke-linejoin="round"/>
<path d="M37.7057 88.6553C35.7999 88.9527 32.9784 91.1538 32.3848 96.621" stroke="white" stroke-linecap="round" stroke-linejoin="round"/>
<path d="M52.2148 99.7044C52.4262 96.3143 53.0784 93.0148 54.7028 91.5605" stroke="white" stroke-linecap="round" stroke-linejoin="round"/>
<path d="M52.2032 105.715C52.1696 104.993 52.1431 104.206 52.1328 103.382" stroke="white" stroke-linecap="round" stroke-linejoin="round"/>
<path d="M78.3678 89.1201C75.9339 90.015 73.6558 91.5134 73.5 99.9639" stroke="white" stroke-linecap="round" stroke-linejoin="round"/>
<path d="M96.9553 87.792C94.767 88.6879 93.5122 95.3325 93.8631 100.086" stroke="white" stroke-linecap="round" stroke-linejoin="round"/>
<path d="M94.1344 108.488C93.5781 109.209 93.3713 110.14 93.5699 111.028" stroke="white" stroke-linecap="round" stroke-linejoin="round"/>
</g>
<defs>
<clipPath id="clip0_5_10994">
<rect width="120" height="120.753" fill="white"/>
</clipPath>
</defs>
</svg>
