<svg width="120" height="125" viewBox="0 0 120 125" fill="none" xmlns="http://www.w3.org/2000/svg">
<g clip-path="url(#clip0_5_11006)">
<path opacity="0.5" d="M109.342 72.4606C109.155 72.3822 108.966 72.3107 108.775 72.2455C123.065 56.2919 121.024 35.4838 117.19 25.0142C114.313 17.4571 108.87 11.1525 101.813 7.20407C96.0747 3.47148 89.3826 1.47054 82.5371 1.44049C78.7019 1.32877 74.8961 2.14211 71.4416 3.81176C65.7223 4.24811 63.3433 6.49436 62.438 8.7842C61.0469 7.62726 59.5524 6.60062 57.9734 5.71723C52.5584 2.09977 43.4538 -1.29021 30.4732 2.64483C19.7628 5.89036 10.8089 14.6107 5.90326 26.5703C0.671622 39.325 1.09238 53.4579 7.02751 64.374C9.90768 69.7298 13.8047 74.4726 18.5003 78.3368C12.6848 79.3997 9.4128 85.6338 10.5278 93.5908C12.0372 104.319 16.2207 122.051 27.4279 123.376C28.6757 123.85 29.9989 124.093 31.3335 124.094C31.862 124.094 32.3898 124.056 32.9128 123.979C35.3426 123.676 37.5713 122.475 39.1616 120.613C39.8519 120.858 40.5685 121.022 41.2968 121.101C42.9568 121.772 44.7692 121.975 46.5363 121.687C49.4412 121.212 52.0507 119.634 53.8208 117.283C54.9869 117.932 56.2225 118.447 57.5043 118.818C60.2509 120.108 63.2882 120.655 66.3123 120.403C70.6108 119.987 74.6553 118.177 77.8286 115.248C79.3053 116.318 81.0224 117.01 82.8289 117.262C84.0253 117.73 85.2948 117.983 86.5792 118.01C88.8497 118.085 91.0775 117.381 92.8932 116.015C94.0836 116.729 95.4165 117.172 96.7972 117.312C97.9409 117.77 99.1603 118.009 100.392 118.017C107.608 118.138 113.214 111.54 116.128 99.5299C118.861 88.259 118.69 80.3828 115.62 76.12C114.158 74.046 111.867 72.7103 109.342 72.4606Z" fill="#231F20"/>
<path d="M107.084 71.5759C106.897 71.4975 106.708 71.426 106.517 71.3608C120.807 55.4072 118.766 34.5991 114.932 24.1295C112.055 16.5724 106.612 10.2678 99.5554 6.31931C93.8169 2.58674 87.1248 0.585823 80.2792 0.555793C76.444 0.444082 72.6383 1.25743 69.1838 2.92706C63.4645 3.36343 61.0855 5.60967 60.1801 7.89951C58.789 6.74255 57.2946 5.7159 55.7156 4.83251C50.3006 1.215 41.196 -2.17496 28.2153 1.76006C17.505 5.00558 8.55104 13.7259 3.64544 25.6855C-1.5862 38.4402 -1.16542 52.5731 4.76969 63.4892C7.64987 68.845 11.5469 73.5879 16.2425 77.452C10.4269 78.515 7.15494 84.7491 8.26991 92.7061C9.77933 103.434 13.9628 121.166 25.1701 122.492C26.4178 122.965 27.7411 123.208 29.0756 123.21C29.6041 123.21 30.1319 123.171 30.6549 123.095C33.0847 122.791 35.3134 121.59 36.9037 119.728C37.594 119.974 38.3107 120.137 39.039 120.216C40.699 120.887 42.5113 121.09 44.2785 120.802C47.1834 120.327 49.793 118.75 51.5631 116.398C52.7291 117.047 53.9648 117.562 55.2466 117.933C57.9932 119.223 61.0304 119.77 64.0546 119.518C68.3531 119.103 72.3976 117.292 75.5709 114.363C77.0477 115.433 78.7647 116.125 80.5713 116.377C81.7676 116.845 83.0371 117.098 84.3215 117.125C86.5921 117.2 88.8199 116.496 90.6356 115.131C91.8259 115.844 93.1588 116.287 94.5396 116.427C95.6833 116.885 96.9027 117.124 98.1345 117.132C105.351 117.254 110.957 110.655 113.87 98.6452C116.603 87.3743 116.432 79.498 113.362 75.2353C111.9 73.1612 109.609 71.8256 107.084 71.5759Z" fill="white"/>
<path d="M29.8422 117.591C34.078 116.974 34.4893 111.945 35.759 108.098C37.6861 111.245 39.2658 115.954 43.4065 115.306C48.1926 114.557 50.5929 107.441 51.15 99.562C51.7544 91.0143 51.1458 79.5097 45.8135 79.9513C39.666 80.4604 39.9338 97.4758 39.9338 97.4758C39.9338 97.4758 38.7179 85.6167 33.3755 86.375C27.2756 87.2408 29.051 98.7977 29.051 98.7977C29.051 98.7977 26.5495 82.4806 19.839 83.5571C16.772 84.0491 15.6996 88.3435 16.2938 92.5742C16.9366 97.1505 20.6323 118.932 29.8422 117.591Z" fill="#22093A" stroke="#22093A" stroke-linecap="round" stroke-linejoin="round"/>
<path d="M62.4988 79.7846C68.4167 79.2157 77.6553 84.6476 77.489 96.2022C77.3228 107.757 70.0298 113.403 63.553 113.978C57.7091 114.496 49.7355 110.323 49.5057 98.0232C49.3174 87.9466 53.8066 80.6201 62.4988 79.7846Z" fill="#22093A" stroke="#22093A" stroke-linecap="round" stroke-linejoin="round"/>
<path d="M63.757 88.6815C64.597 88.2099 65.8864 90.3982 65.8226 95.7506C65.7589 101.103 64.7064 103.972 63.7872 104.466C62.9579 104.912 61.8433 103.261 61.8536 97.5783C61.862 92.9222 62.5232 89.3741 63.757 88.6815Z" fill="#22093A" stroke="#22093A" stroke-linecap="round" stroke-linejoin="round"/>
<path d="M84.436 111.564C88.7154 111.662 89.9585 106.772 91.8513 103.19C93.2274 106.614 94.0006 111.52 98.1913 111.571C103.035 111.629 106.587 105.012 108.449 97.3368C110.469 89.0091 111.785 77.5639 106.454 77.1111C100.307 76.5891 97.7371 93.4114 97.7371 93.4114C97.7371 93.4114 98.5136 81.5155 93.1195 81.3733C86.9607 81.2109 86.7862 92.9021 86.7862 92.9021C86.7862 92.9021 87.0375 76.3962 80.2415 76.34C77.1354 76.3142 75.3627 80.3701 75.2439 84.6405C75.1154 89.26 75.1313 111.353 84.436 111.564Z" fill="#22093A" stroke="#22093A" stroke-linecap="round" stroke-linejoin="round"/>
<path d="M109.694 26.0453C105.276 14.7065 94.3274 7.26312 82.1584 7.32565C66.9431 7.08215 63.9219 21.8182 63.9219 21.8182C63.9219 21.8182 55.666 1.05865 31.7965 8.29185C11.8691 14.3304 1.12037 42.7119 11.6276 62.0353C22.1347 81.3588 41.096 83.5327 60.9026 94.6438C65.1966 97.3109 69.3116 100.256 73.2213 103.46C73.2213 103.46 74.7914 91.9868 98.7042 71.2414C115.901 56.3229 112.966 34.9785 109.694 26.0453Z" fill="#22093A"/>
<path d="M61.9433 20.6162C61.9433 20.6162 53.6875 -0.143488 29.8179 7.08969C9.89055 13.1283 -0.858103 41.5097 9.649 60.8333C20.1561 80.1568 39.1174 82.3307 58.924 93.4417C63.218 96.1088 67.333 99.0539 71.2427 102.258C71.2427 102.258 72.8128 90.7847 96.7256 70.0393C113.922 55.1207 110.987 33.7765 107.716 24.8432C103.298 13.5044 92.3488 6.06101 80.1799 6.12352C64.9645 5.88007 61.9433 20.6162 61.9433 20.6162Z" fill="#E9022C" stroke="#22093A" stroke-linecap="round" stroke-linejoin="round"/>
<path d="M73.9381 44.6914C73.9381 44.6914 75.4816 66.6003 67.1484 68.0091C58.8151 69.4179 52.918 47.4203 52.918 47.4203L73.9381 44.6914Z" fill="#22093A" stroke="#22093A" stroke-linecap="round" stroke-linejoin="round"/>
<path d="M52.918 47.4201L73.9384 44.6914V50.9201L54.8834 53.4135L52.918 47.4201Z" fill="white" stroke="#22093A" stroke-linecap="round" stroke-linejoin="round"/>
<path d="M61.0338 62.7007C60.5576 59.9569 62.6825 58.8904 65.4487 58.4104C68.2149 57.9304 70.5749 58.2184 71.0511 60.9622C71.505 63.7329 69.6268 66.347 66.856 66.8009C64.1223 67.2487 61.5333 65.4255 61.0338 62.7007L61.0338 62.7007Z" fill="#FD32B0" stroke="#22093A" stroke-linecap="round" stroke-linejoin="round"/>
<path d="M49.0414 42.6075C52.8371 42.168 55.4492 37.7961 54.8757 32.8426C54.3022 27.889 50.7602 24.2297 46.9645 24.6691C43.1688 25.1086 40.5567 29.4805 41.1303 34.434C41.7038 39.3876 45.2457 43.0469 49.0414 42.6075Z" fill="white" stroke="#22093A" stroke-linecap="round" stroke-linejoin="round"/>
<path d="M72.4491 38.347C75.6111 38.0943 77.9071 34.5441 77.5773 30.4175C77.2475 26.2909 74.4168 23.1505 71.2547 23.4032C68.0926 23.656 65.7967 27.2061 66.1265 31.3327C66.4563 35.4593 69.287 38.5997 72.4491 38.347Z" fill="white" stroke="#22093A" stroke-linecap="round" stroke-linejoin="round"/>
<path d="M52.2763 31.5288C52.0618 28.8458 50.2213 26.8039 48.1654 26.9682C46.1094 27.1326 44.6166 29.4409 44.831 32.1239C44.8993 33.0393 45.1783 33.9266 45.6464 34.7162L47.8234 33.2623V36.5324C48.1828 36.6554 48.5628 36.7071 48.942 36.6847C50.9979 36.5202 52.4907 34.212 52.2763 31.5288Z" fill="#22093A" stroke="#22093A" stroke-linecap="round" stroke-linejoin="round"/>
<path d="M75.4259 29.2259C75.22 26.6505 73.4534 24.6905 71.48 24.8482C69.5065 25.006 68.0736 27.2216 68.2794 29.797C68.3449 30.6757 68.6128 31.5273 69.0621 32.2853L71.1516 30.8897V34.0286C71.4966 34.1466 71.8613 34.1963 72.2253 34.1747C74.1988 34.0169 75.6317 31.8013 75.4259 29.2259Z" fill="#22093A"/>
<path d="M36.0738 67.6935C41.9848 67.6935 46.7765 62.9018 46.7765 56.9908C46.7765 51.0799 41.9848 46.2881 36.0738 46.2881C30.1629 46.2881 25.3711 51.0799 25.3711 56.9908C25.3711 62.9018 30.1629 67.6935 36.0738 67.6935Z" fill="#FF4069"/>
<path d="M90.1947 53.4139C95.0118 53.4139 98.9168 49.5089 98.9168 44.6918C98.9168 39.8747 95.0118 35.9697 90.1947 35.9697C85.3777 35.9697 81.4727 39.8747 81.4727 44.6918C81.4727 49.5089 85.3777 53.4139 90.1947 53.4139Z" fill="#FF4069"/>
<path d="M41.019 14.8038C38.18 16.2892 34.44 19.1016 35.1505 20.6804C35.8581 22.253 41.6442 19.3374 43.8773 17.8021C48.6629 14.5119 47.8841 11.212 41.019 14.8038Z" fill="#22093A" stroke="#22093A" stroke-linecap="round" stroke-linejoin="round"/>
<path d="M73.385 8.51487C70.1945 8.21953 65.5267 8.54882 65.2655 10.2603C65.0052 11.965 71.4469 12.6607 74.1558 12.5849C79.9611 12.4226 81.1 9.22904 73.385 8.51487Z" fill="#22093A" stroke="#22093A" stroke-linecap="round" stroke-linejoin="round"/>
<path d="M25.5938 13.5547C10.5841 22.3408 8.2109 43.0284 10.2794 51.3798" stroke="#FFB3CE" stroke-linecap="round" stroke-linejoin="round"/>
<path d="M13.9648 61.2881C16.2152 64.5692 18.9449 67.4943 22.0628 69.9658" stroke="#FFB3CE" stroke-linecap="round" stroke-linejoin="round"/>
<path d="M11.416 56.3828C11.7115 57.2143 12.0675 58.0231 12.4812 58.8026" stroke="#FFB3CE" stroke-linecap="round" stroke-linejoin="round"/>
<path d="M27.3188 116.95C31.5546 116.333 31.9658 111.304 33.2355 107.457C35.1627 110.604 36.7424 115.313 40.8831 114.665C45.6691 113.916 48.0695 106.799 48.6265 98.9209C49.2309 90.3732 48.6224 78.8686 43.2901 79.3102C37.1425 79.8193 37.4104 96.8347 37.4104 96.8347C37.4104 96.8347 36.1945 84.9756 30.8521 85.7339C24.7522 86.5997 26.5276 98.1566 26.5276 98.1566C26.5276 98.1566 24.026 81.8395 17.3156 82.916C14.2486 83.408 13.1762 87.7024 13.7704 91.9331C14.4132 96.5094 18.1089 118.291 27.3188 116.95Z" fill="#9736FF" stroke="#22093A" stroke-linecap="round" stroke-linejoin="round"/>
<path d="M59.9753 78.8388C65.8932 78.2699 75.1318 83.7018 74.9656 95.2564C74.7993 106.811 67.5064 112.457 61.0295 113.032C55.1857 113.55 47.212 109.377 46.9822 97.0774C46.794 87.0008 51.2831 79.6743 59.9753 78.8388Z" fill="#9736FF" stroke="#22093A" stroke-linecap="round" stroke-linejoin="round"/>
<path d="M61.2336 88.0404C62.0736 87.5688 63.3629 89.7571 63.2992 95.1095C63.2355 100.462 62.183 103.331 61.2638 103.825C60.4344 104.271 59.3199 102.62 59.3301 96.9372C59.3386 92.2811 59.9998 88.733 61.2336 88.0404Z" fill="#22093A" stroke="#22093A" stroke-linecap="round" stroke-linejoin="round"/>
<path d="M81.9146 110.923C86.1939 111.02 87.4371 106.13 89.3298 102.549C90.7059 105.973 91.4791 110.879 95.6698 110.93C100.514 110.988 104.066 104.371 105.928 96.6957C107.947 88.368 109.264 76.9228 103.932 76.47C97.7858 75.948 95.2156 92.7703 95.2156 92.7703C95.2156 92.7703 95.9921 80.8744 90.598 80.7322C84.4392 80.5698 84.2647 92.261 84.2647 92.261C84.2647 92.261 84.516 75.7551 77.72 75.6989C74.6139 75.6731 72.8412 79.7289 72.7223 83.9994C72.594 88.6189 72.6098 110.712 81.9146 110.923Z" fill="#9736FF" stroke="#22093A" stroke-linecap="round" stroke-linejoin="round"/>
<path d="M16.7398 86.5469C16.0664 89.0477 17.3625 98.7593 20.1123 105.555" stroke="#D9BBFF" stroke-linecap="round" stroke-linejoin="round"/>
<path d="M30.6809 88.6191C29.6483 89.6545 29.0421 91.0399 28.9824 92.501" stroke="#D9BBFF" stroke-linecap="round" stroke-linejoin="round"/>
<path d="M42.9389 81.832C41.6944 83.3252 40.9789 85.1882 40.9043 87.1306" stroke="#D9BBFF" stroke-linecap="round" stroke-linejoin="round"/>
<path d="M57.8818 82.5259C54.7585 83.0471 49.8693 86.2725 50.178 95.4498" stroke="#D9BBFF" stroke-linecap="round" stroke-linejoin="round"/>
<path d="M50.166 98.9678C50.3061 100.084 50.5452 101.185 50.8806 102.258" stroke="#D9BBFF" stroke-linecap="round" stroke-linejoin="round"/>
<path d="M77.2142 79.167C75.7144 80.5678 74.981 82.6053 75.244 84.6407" stroke="#D9BBFF" stroke-linecap="round" stroke-linejoin="round"/>
<path d="M76.2227 97.4785C76.7726 100.026 77.4541 102.543 78.2644 105.02" stroke="#D9BBFF" stroke-linecap="round" stroke-linejoin="round"/>
</g>
<defs>
<clipPath id="clip0_5_11006">
<rect width="120" height="124.095" fill="white"/>
</clipPath>
</defs>
</svg>
