<svg width="120" height="120" viewBox="0 0 120 120" fill="none" xmlns="http://www.w3.org/2000/svg">
<path d="M26.3744 43.3455L16.5074 21.867L39.6509 28.575L48.8969 12.2535L63.7124 24.75L90.1844 8.60547L92.2589 38.532L113.832 52.9695L97.6064 67.5735L109.405 84.9555L87.5639 89.8125V105.679L71.2334 99.876L64.2119 115.534L45.1529 98.0385L22.6349 111.916L23.5544 90.294L8.39536 85.6815L18.1319 68.4225L5.06836 53.154L26.3744 43.3455Z" fill="#22093A" stroke="#22093A" stroke-linecap="round" stroke-linejoin="round"/>
<path d="M25.4032 42.5595L15.5347 21.081L38.6797 27.789L47.9242 11.469L62.7412 23.964L90.1852 8.60547L91.2862 37.746L112.861 52.185L96.6352 66.789L108.434 84.1695L86.5927 89.0265V104.893L70.2607 99.09L63.2407 114.75L44.1817 97.2525L22.5832 110.563V89.508L7.4242 84.8955L17.1607 67.6365L4.0957 52.368L25.4032 42.5595Z" fill="#E9022C" stroke="#22093A" stroke-linecap="round" stroke-linejoin="round"/>
<path d="M41.3608 40.0927C45.905 37.2604 57.6122 33.0534 66.7119 33.5756C75.689 34.0906 81.3024 34.0836 82.343 40.8033C83.3041 47.0095 71.9996 48.4588 71.9996 48.4588C71.9996 48.4588 85.0254 46.3506 85.2973 55.568C85.5458 63.9901 74.3027 63.8115 74.3027 63.8115C74.3027 63.8115 87.8964 62.8825 86.8337 72.562C85.8261 81.7383 68.8563 78.1551 68.8563 78.1551C72.5458 83.0184 77.4501 89.0888 77.9483 97.9245C78.4259 106.396 72.7736 109.792 69.0691 106.134C62.7721 99.9158 60.0335 91.2998 55.5022 88.6554C46.1305 83.1863 39.6563 84.4518 33.5906 74.5176C27.5249 64.5834 28.7654 47.943 41.3608 40.0927Z" fill="#22093A" stroke="#22093A" stroke-linecap="round" stroke-linejoin="round"/>
<path d="M40.2573 39.663C44.8014 36.8308 56.5086 32.6238 65.6084 33.1459C74.5854 33.661 80.1989 33.6539 81.2395 40.3736C82.2005 46.5798 70.8961 48.0291 70.8961 48.0291C70.8961 48.0291 83.9219 45.921 84.1938 55.1383C84.4422 63.5604 73.1992 63.3818 73.1992 63.3818C73.1992 63.3818 86.7929 62.4528 85.7301 72.1323C84.7225 81.3086 67.7527 77.7255 67.7527 77.7255C71.4422 82.5887 76.3465 88.6591 76.8447 97.4949C77.3224 105.967 71.6701 109.363 67.9656 105.704C61.6686 99.4861 58.93 90.8701 54.3986 88.2257C45.027 82.7566 38.5527 84.0222 32.4871 74.088C26.4214 64.1537 27.6619 47.5133 40.2573 39.663Z" fill="#FCC707" stroke="#22093A" stroke-linecap="round" stroke-linejoin="round"/>
<path d="M51.4531 39.2352C52.2422 39.0256 53.0576 38.827 53.8995 38.6392" stroke="white" stroke-linecap="round" stroke-linejoin="round"/>
<path d="M33.3926 54.21C35.616 47.163 40.2849 42.9794 47.9405 40.3052" stroke="white" stroke-linecap="round" stroke-linejoin="round"/>
<path d="M67.8613 100.592C68.3527 101.428 69.0119 102.153 69.7974 102.722" stroke="white" stroke-linecap="round" stroke-linejoin="round"/>
<path d="M59.4492 87.6836C60.8917 88.9118 63.4144 93.4308 65.7011 97.2093" stroke="white" stroke-linecap="round" stroke-linejoin="round"/>
<path d="M70.5664 37.016C73.2483 36.6742 77.1455 37.8255 77.9145 40.3055" stroke="white" stroke-linecap="round" stroke-linejoin="round"/>
<path d="M73.8555 67.0005C76.9314 67.0005 80.8618 67.4517 81.9726 69.7467" stroke="white" stroke-linecap="round" stroke-linejoin="round"/>
<path d="M38.9679 95.5474L31.457 100.533" stroke="#22093A" stroke-linecap="round" stroke-linejoin="round"/>
<path d="M28.9353 102.328L27.8184 103.039" stroke="#22093A" stroke-linecap="round" stroke-linejoin="round"/>
<path d="M82.1449 17.6841L76.3398 21.1058" stroke="white" stroke-linecap="round" stroke-linejoin="round"/>
<path d="M86.3356 15.2148L84.5801 16.2496" stroke="white" stroke-linecap="round" stroke-linejoin="round"/>
<path d="M29.25 29.3345L33.5329 30.876" stroke="white" stroke-linecap="round" stroke-linejoin="round"/>
<path d="M24.4688 27.3774L25.7639 27.8436" stroke="white" stroke-linecap="round" stroke-linejoin="round"/>
<path d="M82.4258 89.9468L82.5078 98.9611" stroke="#22093A" stroke-linecap="round" stroke-linejoin="round"/>
<path d="M13.877 82.2329L22.4476 85.0275" stroke="#22093A" stroke-linecap="round" stroke-linejoin="round"/>
<path d="M42.4551 28.5571L47.4056 19.395" stroke="white" stroke-linecap="round" stroke-linejoin="round"/>
<path d="M15.4141 50.7566L19.4835 48.981" stroke="white" stroke-linecap="round" stroke-linejoin="round"/>
<path d="M106.796 53.4355L103.316 56.1938" stroke="white" stroke-linecap="round" stroke-linejoin="round"/>
</svg>
