<svg width="120" height="125" viewBox="0 0 120 125" fill="none" xmlns="http://www.w3.org/2000/svg">
<g clip-path="url(#clip0_4_10985)">
<path opacity="0.5" d="M106.122 75.6819C105.6 75.3279 105.054 75.0106 104.488 74.7323C106.696 66.8696 109.228 55.8728 110.271 51.2487C115.286 48.3923 118.782 43.4661 119.823 37.7898C120.713 31.9221 118.242 26.1161 112.864 21.4418C112.413 21.0495 111.92 20.7079 111.395 20.4229C111.19 20.2319 110.978 20.0411 110.759 19.8506C109.645 18.8886 108.298 18.2364 106.853 17.9594C105.737 16.3545 104.297 15.0019 102.625 13.9889C99.4956 11.2693 95.5322 9.69799 91.3892 9.5342H91.314C90.5515 8.62089 89.6316 7.85151 88.5979 7.26249C86.2713 4.95315 82.5189 3.67405 77.4145 3.45522C75.5637 3.36887 73.7113 3.58943 71.9326 4.10794C69.5081 1.8678 65.676 0.690198 60.5084 0.602969C56.0015 0.426224 51.6339 2.18472 48.5068 5.43517C45.7482 3.39244 42.1757 2.80065 38.9057 3.84475C35.9287 4.84418 33.5102 7.05112 32.2432 9.92448C30.8723 8.86783 29.2 8.27616 27.4696 8.23554C24.8064 8.19307 22.2832 9.42536 20.6792 11.5518C19.8481 12.6564 19.2185 13.8991 18.8195 15.2227C14.6323 14.5669 9.6834 17.3304 6.54802 20.5199C2.67834 24.4557 1.42855 29.0676 3.1205 33.1696C4.28005 35.9858 9.38447 45.0328 15.0559 48.6754C17.1018 50.7123 19.8292 51.9199 22.7125 52.0653C24.5342 52.0555 26.3023 51.4476 27.7448 50.335C29.7154 48.8939 31.0497 46.7441 31.4665 44.3386C32.7108 44.5843 33.995 44.5401 35.2194 44.2094C35.6466 44.0959 36.1729 43.9372 36.77 43.7349C32.7123 53.4422 28.4938 64.4745 25.1234 73.9501C21.7556 72.321 17.8579 72.1834 14.3836 73.5712C8.49691 76.2137 4.27911 81.5736 3.09489 87.9166C2.2046 93.7843 4.6756 99.5903 10.0507 104.261C10.6205 104.759 11.2567 105.175 11.9412 105.497C13.0321 106.315 14.3081 106.851 15.656 107.057C17.0299 109.335 19.0228 111.176 21.4026 112.365C24.2451 114.315 27.6022 115.377 31.049 115.418C32.0153 116.848 33.3404 117.999 34.8916 118.756C37.8647 120.607 41.3083 121.562 44.8102 121.507C46.5757 121.589 48.3431 121.394 50.0484 120.929C50.4541 121.204 50.8771 121.452 51.3148 121.673C54.4338 123.591 58.057 124.527 61.7146 124.361C61.8184 124.362 61.9207 124.363 62.0229 124.363C66.4101 124.427 70.6282 122.672 73.6756 119.516L73.7914 119.576C76.5449 121.567 80.0779 122.139 83.319 121.118C86.2886 120.123 88.7027 117.924 89.9709 115.061C90.007 115.078 90.0431 115.095 90.0792 115.112C91.4287 116.13 93.0652 116.695 94.755 116.727C97.416 116.759 99.9349 115.529 101.545 113.41C102.377 112.305 103.007 111.062 103.406 109.738C103.827 109.808 104.254 109.844 104.681 109.847C108.56 109.847 112.852 107.314 115.672 104.446C119.545 100.51 120.796 95.8982 119.104 91.7931C118.321 89.8936 112.696 79.1147 106.122 75.6819Z" fill="#231F20"/>
<path d="M103.739 75.0814C103.217 74.7273 102.671 74.41 102.105 74.1317C104.313 66.269 106.845 55.2723 107.889 50.6481C112.903 47.7917 116.399 42.8655 117.44 37.1892C118.331 31.3215 115.86 25.5155 110.481 20.8412C110.03 20.4489 109.538 20.1073 109.012 19.8223C108.808 19.6313 108.595 19.4405 108.376 19.25C107.262 18.288 105.915 17.6358 104.47 17.3588C103.354 15.754 101.914 14.4013 100.242 13.3884C97.1128 10.6688 93.1494 9.09744 89.0064 8.93365H88.9312C88.1687 8.02033 87.2488 7.25095 86.215 6.66193C83.8884 4.3526 80.136 3.07349 75.0316 2.85467C73.1808 2.76831 71.3285 2.98887 69.5497 3.50739C67.1253 1.26721 63.2932 0.0895508 58.1256 0.00238392C53.6186 -0.174365 49.2511 1.58413 46.124 4.83459C43.3654 2.79181 39.7928 2.20002 36.5228 3.24416C33.5457 4.24359 31.1272 6.45053 29.8602 9.3239C28.4893 8.26723 26.8171 7.67556 25.0867 7.63495C22.4235 7.59249 19.9003 8.82477 18.2963 10.9512C17.4652 12.0558 16.8356 13.2985 16.4367 14.6221C12.2496 13.9662 7.30058 16.7298 4.16521 19.9192C0.295523 23.8551 -0.954259 28.467 0.737687 32.569C1.89724 35.3852 7.00167 44.4323 12.6731 48.0748C14.719 50.1118 17.4464 51.3193 20.3297 51.4647C22.1514 51.455 23.9195 50.847 25.362 49.7344C27.3326 48.2933 28.6669 46.1435 29.0837 43.738C30.328 43.9837 31.6122 43.9395 32.8366 43.6088C33.2637 43.4953 33.7901 43.3366 34.3872 43.1343C30.3295 52.8416 26.111 63.8739 22.7406 73.3496C19.3728 71.7204 15.4751 71.5828 12.0008 72.9706C6.11411 75.6131 1.89632 80.973 0.712122 87.316C-0.178212 93.1837 2.29278 98.9897 7.66792 103.66C8.23764 104.158 8.87391 104.574 9.55839 104.897C10.6493 105.715 11.9253 106.251 13.2732 106.457C14.6471 108.735 16.64 110.575 19.0198 111.764C21.8623 113.714 25.2194 114.777 28.6662 114.817C29.6325 116.247 30.9576 117.399 32.5088 118.155C35.482 120.006 38.9255 120.962 42.4274 120.907C44.1929 120.988 45.9603 120.793 47.6656 120.329C48.0713 120.603 48.4943 120.852 48.932 121.072C52.051 122.99 55.6742 123.926 59.3318 123.76C59.4356 123.761 59.5379 123.762 59.6401 123.762C64.0273 123.826 68.2453 122.072 71.2928 118.915L71.4086 118.975C74.1621 120.966 77.695 121.538 80.9361 120.517C83.9058 119.522 86.3199 117.324 87.5881 114.46C87.6242 114.477 87.6603 114.495 87.6964 114.511C89.0459 115.529 90.6824 116.094 92.3723 116.127C95.0332 116.159 97.5521 114.928 99.1626 112.81C99.9942 111.705 100.624 110.462 101.023 109.138C101.445 109.207 101.871 109.244 102.298 109.247C106.177 109.246 110.469 106.713 113.289 103.845C117.162 99.9094 118.413 95.2976 116.721 91.1925C115.938 89.293 110.313 78.5141 103.739 75.0814Z" fill="white"/>
<path d="M18.0803 21.6283C15.0625 20.4423 5.65118 26.8486 7.81909 32.1071C9.24774 35.5725 17.395 49.0408 22.0802 45.4541C26.8948 41.7683 20.1352 36.3635 20.1352 36.3635C20.1352 36.3635 24.3357 32.9323 22.683 29.9824C21.0303 27.0325 15.9812 31.8535 15.9812 31.8535C15.9812 31.8535 23.8755 23.9058 18.0803 21.6283Z" fill="#22093A" stroke="#22093A" stroke-linecap="round" stroke-linejoin="round"/>
<path d="M27.089 14.6157C23.55 14.5524 22.1138 20.6127 23.7689 26.9293C25.424 33.246 27.6588 39.4134 31.4377 38.4024C35.2165 37.3914 44.1526 33.4488 43.5692 29.3317C42.6831 23.0783 32.9277 30.4402 32.9277 30.4402C32.9277 30.4402 32.354 14.7099 27.089 14.6157Z" fill="#22093A" stroke="#22093A" stroke-linecap="round" stroke-linejoin="round"/>
<path d="M52.8303 23.9227C51.9596 21.0975 47.3109 7.7145 40.2632 9.96895C36.5949 11.1423 35.3085 16.056 35.5129 21.1669C35.7347 26.7119 37.5239 34.5587 40.4935 33.8723C42.8487 33.328 43.3448 29.694 43.2446 26.154C43.3733 26.142 45.2748 25.8934 45.2748 25.8934C46.8286 28.821 49.1233 32.3212 51.0952 31.1948C53.2138 29.9846 53.6352 26.5345 52.8303 23.9227ZM42.9442 22.5938C42.8589 21.3816 42.6811 20.1777 42.4122 18.9926C42.4122 18.9926 42.9324 20.052 43.9814 22.452L42.9442 22.5938Z" fill="#22093A" stroke="#22093A" stroke-linecap="round" stroke-linejoin="round"/>
<path d="M65.3095 14.4067C68.9443 15.3492 73.3424 7.20711 60.1334 6.98244C47.4813 6.76724 45.5015 24.2006 55.1327 28.277C60.638 30.6071 69.9238 29.4187 67.3073 20.2448C66.024 15.7456 61.0988 15.8412 59.6795 18.4376C58.2603 21.0339 61.5028 23.8219 61.5028 23.8219C57.2369 23.5872 54.8157 18.2698 57.6913 15.2515C59.4813 13.3727 61.5331 13.4275 65.3095 14.4067Z" fill="#22093A" stroke="#22093A" stroke-linecap="round" stroke-linejoin="round"/>
<path d="M100.482 22.0958C100.934 18.9314 92.3132 14.0754 88.3772 16.6378C85.4198 18.5633 76.4012 29.7414 80.6382 33.5671C84.8752 37.3928 90.7685 39.3718 92.5786 35.5904C93.9011 32.8276 87.9666 29.2759 87.9666 29.2759C87.9666 29.2759 93.4544 32.7309 95.2683 30.1148C97.0822 27.4988 90.9632 24.54 90.9632 24.54C90.9632 24.54 99.6525 27.8991 100.482 22.0958Z" fill="#22093A" stroke="#22093A" stroke-linecap="round" stroke-linejoin="round"/>
<path d="M106.94 24.9098C102.693 21.2191 93.3233 32.6449 90.6015 38.4136C89.3048 41.1618 98.0805 49.1929 103.977 46.6002C110.023 43.9415 117.459 34.0523 106.94 24.9098Z" fill="#22093A" stroke="#22093A" stroke-linecap="round" stroke-linejoin="round"/>
<path d="M103.335 33.7073C102.321 32.8255 99.5309 35.8634 99.4317 36.9337C99.3656 37.6457 100.963 39.0206 102.193 38.7438C103.422 38.467 105.849 35.8916 103.335 33.7073Z" fill="#22093A" stroke="#22093A" stroke-linecap="round" stroke-linejoin="round"/>
<path d="M81.7483 17.1856C85.2615 18.1941 89.7461 10.3819 76.8984 9.83093C64.5922 9.30316 62.2271 26.2175 71.4965 30.4265C76.795 32.8324 85.8608 31.9095 83.5455 22.9168C82.4099 18.5063 77.6149 18.4755 76.1685 20.9663C74.7221 23.457 77.8071 26.2515 77.8071 26.2515C73.6619 25.9158 71.4396 20.6807 74.3139 17.8159C76.103 16.0327 78.0981 16.1376 81.7483 17.1856Z" fill="#22093A" stroke="#22093A" stroke-linecap="round" stroke-linejoin="round"/>
<path d="M15.9767 20.0375C12.959 18.8515 3.54771 25.2577 5.71556 30.5162C7.14421 33.9817 15.2914 47.45 19.9766 43.8633C24.7912 40.1775 18.0317 34.7727 18.0317 34.7727C18.0317 34.7727 22.2322 31.3414 20.5795 28.3916C18.9267 25.4417 13.8776 30.2627 13.8776 30.2627C13.8776 30.2627 21.772 22.315 15.9767 20.0375Z" fill="#71C1F2" stroke="#22093A" stroke-linecap="round" stroke-linejoin="round"/>
<path d="M50.7268 22.3319C49.8561 19.5066 45.2073 6.12368 38.1597 8.37813C34.4914 9.55152 33.205 14.4652 33.4094 19.5761C33.6312 25.121 35.4204 32.9678 38.3899 32.2815C40.7452 31.7372 41.2413 28.1032 41.1411 24.5631C41.2698 24.5511 43.1712 24.3026 43.1712 24.3026C44.7251 27.2302 47.0198 30.7304 48.9917 29.6039C51.1103 28.3938 51.5316 24.9437 50.7268 22.3319ZM40.8407 21.003C40.7554 19.7908 40.5776 18.5868 40.3087 17.4018C40.3087 17.4018 40.8289 18.4612 41.8779 20.8611L40.8407 21.003Z" fill="#71C1F2" stroke="#22093A" stroke-linecap="round" stroke-linejoin="round"/>
<path d="M63.2041 12.8159C66.8388 13.7584 71.2369 5.61629 58.028 5.39162C45.3758 5.17642 43.396 22.6098 53.0273 26.6862C58.5326 29.0163 67.8183 27.8279 65.2018 18.654C63.9185 14.1547 58.9933 14.2504 57.5741 16.8468C56.1548 19.4431 59.3972 22.231 59.3972 22.231C55.1313 21.9964 52.7101 16.679 55.5857 13.6607C57.3758 11.7818 59.4276 11.8366 63.2041 12.8159Z" fill="#71C1F2" stroke="#22093A" stroke-linecap="round" stroke-linejoin="round"/>
<path d="M98.3785 20.5049C98.8308 17.3406 90.2097 12.4846 86.2737 15.047C83.3163 16.9724 74.2977 28.1505 78.5347 31.9762C82.7717 35.8019 88.665 37.7809 90.475 33.9995C91.7976 31.2367 85.8631 27.685 85.8631 27.685C85.8631 27.685 91.3509 31.14 93.1648 28.524C94.9787 25.9079 88.8597 22.9491 88.8597 22.9491C88.8597 22.9491 97.549 26.3083 98.3785 20.5049Z" fill="#71C1F2" stroke="#22093A" stroke-linecap="round" stroke-linejoin="round"/>
<path d="M104.836 23.319C100.589 19.6283 91.2198 31.0541 88.498 36.8228C87.2013 39.571 95.977 47.6021 101.873 45.0094C107.92 42.3507 115.356 32.4615 104.836 23.319Z" fill="#71C1F2" stroke="#22093A" stroke-linecap="round" stroke-linejoin="round"/>
<path d="M101.232 32.1164C100.217 31.2347 97.4274 34.2726 97.3282 35.3429C97.2621 36.0548 98.86 37.4297 100.089 37.1529C101.319 36.8761 103.745 34.3008 101.232 32.1164Z" fill="#22093A" stroke="#22093A" stroke-linecap="round" stroke-linejoin="round"/>
<path d="M79.6448 15.5948C83.158 16.6033 87.6426 8.79105 74.7949 8.24011C62.4887 7.71238 60.1236 24.6267 69.393 28.8357C74.6915 31.2416 83.7572 30.3188 81.4419 21.326C80.3064 16.9156 75.5114 16.8848 74.065 19.3755C72.6186 21.8662 75.7036 24.6607 75.7036 24.6607C71.5584 24.325 69.3361 19.0899 72.2103 16.2251C73.9995 14.4419 75.9946 14.5468 79.6448 15.5948Z" fill="#71C1F2" stroke="#22093A" stroke-linecap="round" stroke-linejoin="round"/>
<path d="M24.9855 13.0244C21.4465 12.9611 20.0103 19.0214 21.6654 25.338C23.3204 31.6547 25.5553 37.8221 29.3342 36.8111C33.113 35.8001 42.0491 31.8575 41.4657 27.7403C40.5796 21.487 30.8242 28.8489 30.8242 28.8489C30.8242 28.8489 30.2505 13.1186 24.9855 13.0244Z" fill="#71C1F2" stroke="#22093A" stroke-linecap="round" stroke-linejoin="round"/>
<path d="M13.7096 23.0996C11.2405 23.8955 9.34869 25.8969 8.69311 28.4069C8.60895 29.7273 8.9221 31.0427 9.59223 32.1835" stroke="white" stroke-linecap="round" stroke-linejoin="round"/>
<path d="M25.0566 26.481C25.0566 26.481 26.8111 32.0291 28.127 33.4666" stroke="white" stroke-linecap="round" stroke-linejoin="round"/>
<path d="M36.5879 13.6695C36.8597 12.5022 37.59 11.4934 38.614 10.8706" stroke="white" stroke-linecap="round" stroke-linejoin="round"/>
<path d="M84.8008 20.9294C85.8575 19.4848 87.0963 18.1828 88.4866 17.0557" stroke="white" stroke-linecap="round" stroke-linejoin="round"/>
<path d="M55.2749 8.22754C52.7831 9.16659 50.8333 11.1582 49.9473 13.6693" stroke="white" stroke-linecap="round" stroke-linejoin="round"/>
<path d="M77.1384 10.8707C75.3187 10.4564 73.4264 10.4832 71.6191 10.9488" stroke="white" stroke-linecap="round" stroke-linejoin="round"/>
<path d="M97.6445 42.2674C99.5647 42.6407 101.553 42.1695 103.101 40.9741" stroke="white" stroke-linecap="round" stroke-linejoin="round"/>
<path d="M52.6546 28.1437C52.6546 28.1437 61.7604 21.8346 70.9911 27.7314C78.2124 32.3445 76.4618 42.1036 87.2518 48.9603C95.8856 54.4468 103.101 47.3317 103.101 47.3317C103.101 47.3317 98.4326 68.4736 95.5517 77.1911C92.1109 87.6026 73.8548 82.3732 63.6813 68.4736C59.0106 62.0923 47.0008 53.871 41.3022 58.2439C35.6036 62.6167 52.6546 28.1437 52.6546 28.1437Z" fill="#22093A" stroke="#22093A" stroke-linecap="round" stroke-linejoin="round"/>
<path d="M52.0374 21.457C55.1401 22.1716 24.2575 102.833 20.4477 102.236C16.6379 101.639 47.1196 20.3245 52.0374 21.457Z" fill="#22093A" stroke="#22093A" stroke-linecap="round" stroke-linejoin="round"/>
<path d="M51.8089 27.7546C51.8089 27.7546 60.9148 21.4454 70.1454 27.3423C77.3667 31.9554 75.6161 41.7145 86.4061 48.5712C95.0398 54.0577 102.255 46.9426 102.255 46.9426C102.255 46.9426 97.587 68.0845 94.706 76.802C91.2652 87.2135 73.009 81.9841 62.8356 68.0845C58.1649 61.7032 46.1551 53.4819 40.4565 57.8547C34.7579 62.2276 51.8089 27.7546 51.8089 27.7546Z" fill="#E9022C" stroke="#22093A" stroke-linecap="round" stroke-linejoin="round"/>
<path d="M75.7157 42.9735C73.9418 42.6861 71.6176 43.248 69.4465 50.586C67.508 57.1376 70.0905 57.846 70.7701 57.9561C71.4496 58.0662 75.3814 59.0555 77.2314 51.8475C79.0815 44.6395 78.344 43.3994 75.7157 42.9735Z" fill="white" stroke="#22093A" stroke-linecap="round" stroke-linejoin="round"/>
<path d="M68.6908 67.28C70.4304 67.28 71.8406 65.8698 71.8406 64.1303C71.8406 62.3907 70.4304 60.9805 68.6908 60.9805C66.9512 60.9805 65.541 62.3907 65.541 64.1303C65.541 65.8698 66.9512 67.28 68.6908 67.28Z" fill="white" stroke="#22093A" stroke-linecap="round" stroke-linejoin="round"/>
<path d="M101.471 103.725C104.488 104.911 113.9 98.5044 111.732 93.2459C110.303 89.7805 102.156 76.3121 97.4708 79.8988C92.6562 83.5846 99.4157 88.9894 99.4157 88.9894C99.4157 88.9894 95.2152 92.4207 96.8679 95.3706C98.5206 98.3204 103.57 93.4994 103.57 93.4994C103.57 93.4994 95.6754 101.447 101.471 103.725Z" fill="#22093A" stroke="#22093A" stroke-linecap="round" stroke-linejoin="round"/>
<path d="M92.4622 110.737C96.0012 110.8 97.4374 104.74 95.7823 98.4235C94.1273 92.1068 91.3661 84.9859 87.5872 85.9969C83.8084 87.0079 75.3986 91.9041 75.982 96.0212C76.8681 102.275 86.6235 94.9126 86.6235 94.9126C86.6235 94.9126 87.1972 110.643 92.4622 110.737Z" fill="#22093A" stroke="#22093A" stroke-linecap="round" stroke-linejoin="round"/>
<path d="M66.7208 101.43C67.5915 104.255 72.2402 117.638 79.2879 115.384C82.9561 114.211 84.2426 109.297 84.0382 104.186C83.8164 98.6411 82.0272 90.7942 79.0576 91.4806C76.7024 92.0249 76.2063 95.6589 76.3064 99.199C76.1778 99.211 74.2763 99.4595 74.2763 99.4595C72.7225 96.5319 70.4277 93.0317 68.4559 94.1582C66.3373 95.3683 65.916 98.8184 66.7208 101.43ZM76.6069 102.759C76.6921 103.971 76.87 105.175 77.1389 106.36C77.1389 106.36 76.6186 105.301 75.5697 102.901L76.6069 102.759Z" fill="#22093A" stroke="#22093A" stroke-linecap="round" stroke-linejoin="round"/>
<path d="M54.2415 110.946C50.6068 110.003 46.2087 118.146 59.4176 118.37C72.0697 118.585 74.0495 101.152 64.4183 97.0756C58.913 94.7455 49.6272 95.9339 52.2437 105.108C53.527 109.607 58.4522 109.511 59.8715 106.915C61.2907 104.319 58.0483 101.531 58.0483 101.531C62.3142 101.765 64.7354 107.083 61.8598 110.101C60.0698 111.98 58.018 111.925 54.2415 110.946Z" fill="#22093A" stroke="#22093A" stroke-linecap="round" stroke-linejoin="round"/>
<path d="M19.0679 103.257C18.6156 106.421 27.2367 111.277 31.1727 108.715C34.1302 106.789 43.1487 95.6113 38.9117 91.7856C34.6748 87.9599 28.7814 85.9809 26.9714 89.7622C25.6489 92.5251 31.5834 96.0767 31.5834 96.0767C31.5834 96.0767 26.0955 92.6217 24.2816 95.2378C22.4678 97.8539 28.5868 100.813 28.5868 100.813C28.5868 100.813 19.8974 97.4535 19.0679 103.257Z" fill="#22093A" stroke="#22093A" stroke-linecap="round" stroke-linejoin="round"/>
<path d="M12.6114 100.443C16.858 104.134 26.2277 92.7078 28.9494 86.9391C30.2461 84.1909 21.4704 76.1598 15.5741 78.7525C9.52765 81.4112 2.09187 91.3004 12.6114 100.443Z" fill="#22093A" stroke="#22093A" stroke-linecap="round" stroke-linejoin="round"/>
<path d="M16.2157 91.6455C17.2303 92.5273 20.0199 89.4894 20.1192 88.4191C20.1852 87.7071 18.5874 86.3322 17.358 86.609C16.1286 86.8859 13.7023 89.4612 16.2157 91.6455Z" fill="#22093A" stroke="#22093A" stroke-linecap="round" stroke-linejoin="round"/>
<path d="M37.8029 108.168C34.2897 107.159 29.8052 114.971 42.6529 115.522C54.959 116.05 57.3242 99.1357 48.0547 94.9267C42.7562 92.5208 33.6905 93.4436 36.0058 102.436C37.1413 106.847 41.9364 106.878 43.3827 104.387C44.8291 101.896 41.7441 99.1017 41.7441 99.1017C45.8893 99.4374 48.1116 104.672 45.2374 107.537C43.4483 109.32 41.4531 109.216 37.8029 108.168Z" fill="#22093A" stroke="#22093A" stroke-linecap="round" stroke-linejoin="round"/>
<path d="M100.06 102.877C103.078 104.063 112.49 97.6567 110.322 92.3982C108.893 88.9328 100.746 75.4644 96.0606 79.0511C91.246 82.7369 98.0056 88.1418 98.0056 88.1418C98.0056 88.1418 93.805 91.5731 95.4577 94.5229C97.1104 97.4726 102.16 92.6517 102.16 92.6517C102.16 92.6517 94.2652 100.599 100.06 102.877Z" fill="#71C1F2" stroke="#22093A" stroke-linecap="round" stroke-linejoin="round"/>
<path d="M91.0524 109.89C94.5914 109.953 96.0276 103.893 94.3725 97.5761C92.7175 91.2595 90.4826 85.092 86.7037 86.103C82.9248 87.1141 73.9888 91.0567 74.5722 95.1738C75.4583 101.427 85.2137 94.0652 85.2137 94.0652C85.2137 94.0652 85.7874 109.796 91.0524 109.89Z" fill="#71C1F2" stroke="#22093A" stroke-linecap="round" stroke-linejoin="round"/>
<path d="M65.3107 100.582C66.1813 103.407 70.8301 116.79 77.8777 114.536C81.546 113.362 82.8324 108.449 82.628 103.338C82.4062 97.7929 80.617 89.9461 77.6475 90.6325C75.2922 91.1768 74.7961 94.8108 74.8963 98.3508C74.7676 98.3628 72.8662 98.6114 72.8662 98.6114C71.3123 95.6838 69.0176 92.1836 67.0457 93.31C64.9271 94.5202 64.5058 97.9703 65.3107 100.582ZM75.1968 101.911C75.282 103.123 75.4598 104.327 75.7287 105.512C75.7287 105.512 75.2085 104.453 74.1595 102.053L75.1968 101.911Z" fill="#71C1F2" stroke="#22093A" stroke-linecap="round" stroke-linejoin="round"/>
<path d="M52.8313 110.098C49.1966 109.156 44.7985 117.298 58.0074 117.523C70.6595 117.738 72.6394 100.304 63.0081 96.228C57.5028 93.8979 48.217 95.0863 50.8336 104.26C52.1168 108.759 57.042 108.664 58.4613 106.067C59.8806 103.471 56.6381 100.683 56.6381 100.683C60.9041 100.918 63.3253 106.235 60.4496 109.254C58.6596 111.132 56.6078 111.078 52.8313 110.098Z" fill="#71C1F2" stroke="#22093A" stroke-linecap="round" stroke-linejoin="round"/>
<path d="M17.6578 102.409C17.2055 105.574 25.8265 110.43 29.7626 107.867C32.72 105.942 41.7386 94.7636 37.5016 90.9379C33.2646 87.1122 27.3713 85.1332 25.5612 88.9146C24.2387 91.6774 30.1732 95.2291 30.1732 95.2291C30.1732 95.2291 24.6854 91.7741 22.8715 94.3902C21.0576 97.0062 27.1766 99.965 27.1766 99.965C27.1766 99.965 18.4872 96.6058 17.6578 102.409Z" fill="#71C1F2" stroke="#22093A" stroke-linecap="round" stroke-linejoin="round"/>
<path d="M11.2013 99.5952C15.4479 103.286 24.8175 91.8601 27.5393 86.0914C28.836 83.3432 20.0603 75.3121 14.164 77.9048C8.11746 80.5635 0.681699 90.4527 11.2013 99.5952Z" fill="#71C1F2" stroke="#22093A" stroke-linecap="round" stroke-linejoin="round"/>
<path d="M14.8055 90.7979C15.8201 91.6797 18.6098 88.6417 18.709 87.5715C18.7751 86.8595 17.1772 85.4846 15.9478 85.7614C14.7184 86.0382 12.2922 88.6135 14.8055 90.7979Z" fill="#22093A" stroke="#22093A" stroke-linecap="round" stroke-linejoin="round"/>
<path d="M36.3928 107.319C32.8796 106.311 28.395 114.123 41.2427 114.674C53.5489 115.202 55.914 98.2876 46.6446 94.0785C41.3461 91.6726 32.2803 92.5955 34.5956 101.588C35.7311 105.999 40.5262 106.029 41.9726 103.539C43.4189 101.048 40.334 98.2535 40.334 98.2535C44.4792 98.5892 46.7015 103.824 43.8272 106.689C42.0381 108.472 40.043 108.367 36.3928 107.319Z" fill="#71C1F2" stroke="#22093A" stroke-linecap="round" stroke-linejoin="round"/>
<path d="M10.2718 84.814C9.13143 86.7439 7.90325 90.4002 9.65777 93.2653" stroke="white" stroke-linecap="round" stroke-linejoin="round"/>
<path d="M98.3951 84.8138C97.2254 83.4102 96.5917 81.9051 97.6443 81.2979" stroke="white" stroke-linecap="round" stroke-linejoin="round"/>
<path d="M37.028 97.3164C36.2855 98.9974 36.6708 100.963 37.993 102.239" stroke="white" stroke-linecap="round" stroke-linejoin="round"/>
<path d="M62.1172 98.5835C64.0853 99.6256 65.4617 101.518 65.8466 103.712" stroke="white" stroke-linecap="round" stroke-linejoin="round"/>
<path d="M89.1914 102.759C89.2718 103.082 89.3701 103.4 89.4858 103.712" stroke="white" stroke-linecap="round" stroke-linejoin="round"/>
<path d="M87.9082 95.6919C88.0619 97.2438 88.2947 98.7868 88.6056 100.315" stroke="white" stroke-linecap="round" stroke-linejoin="round"/>
</g>
<defs>
<clipPath id="clip0_4_10985">
<rect width="120" height="124.363" fill="white"/>
</clipPath>
</defs>
</svg>
