<svg width="120" height="126" viewBox="0 0 120 126" fill="none" xmlns="http://www.w3.org/2000/svg">
<g clip-path="url(#clip0_5_11017)">
<path opacity="0.5" d="M111.788 12.825C109.972 11.6123 107.813 10.5349 105.366 9.62102C101.508 8.18022 96.5479 6.65807 92.2232 7.20626C91.3777 6.38892 90.4334 5.70692 89.4055 5.17318C87.9183 4.06693 86.2213 3.33778 84.354 3.00173C81.1895 2.43225 78.0418 3.15683 75.1329 5.02112C74.4927 4.42275 73.7248 3.9065 72.8337 3.47464C69.5491 0.980813 64.3729 0.692654 60.6443 1.27809C57.2153 1.8164 54.2364 3.15835 51.9631 5.1268C47.8969 2.63069 42.0121 2.51284 34.4379 4.77934C31.3267 5.7092 28.956 7.16368 27.2985 9.17547C24.3941 8.5695 20.845 8.72765 16.6693 9.64915C8.37126 11.4807 2.8012 17.5328 1.77021 25.84C0.722499 34.2909 4.81147 42.6567 11.747 46.3548C13.5453 47.5808 15.5174 48.4197 17.6096 48.9031C17.5345 49.8408 17.4014 51.355 17.2304 52.2754C16.1493 52.4761 14.2439 52.6244 13.4228 52.689C10.5853 52.9095 8.39558 55.2763 8.39558 58.1222C8.39558 60.968 10.5853 63.3349 13.4228 63.5554C14.2439 63.62 16.1493 63.7683 17.2304 63.969C17.4312 65.0494 17.5802 66.9555 17.644 67.7767C17.8608 70.5667 20.1567 72.7182 22.9381 72.7898C21.71 74.2801 20.9733 76.0968 20.8282 78.0561C20.8282 78.0569 20.8282 78.0569 20.8282 78.0576C20.7289 79.4042 20.928 80.7179 21.3715 81.9393C18.6975 84.3659 16.3675 88.8752 15.1609 96.8389C14.0903 103.904 13.6494 111.588 18.1261 115.824C19.8794 118.389 22.58 119.914 25.8509 120.151C26.082 120.168 26.3071 120.176 26.5291 120.176C28.023 120.176 29.3067 119.795 30.4239 119.13C32.2193 121.505 35.5249 123.197 39.9425 123.896C44.6078 124.634 50.7223 124.168 55.199 121.117C57.1302 123.476 59.7548 124.872 62.7352 125.094C63.6445 125.161 64.5372 125.195 65.413 125.195C70.942 125.195 75.7366 123.869 78.8463 121.475C80.2118 121.89 81.4252 121.827 82.1475 121.722C84.4148 121.385 87.0242 120.157 88.8444 116.743C92.5076 119.413 96.008 118.188 97.1987 117.63C102.253 115.254 104.756 109.655 103.429 103.701C102.761 100.697 100.179 90.5617 94.7338 84.7522C94.6764 84.6773 94.618 84.6148 94.5604 84.5416C96.7714 83.9765 98.465 82.0759 98.6494 79.7037C98.771 78.1451 99.0463 74.6202 99.4781 73.5003C100.597 73.0684 104.122 72.794 105.681 72.6723C108.518 72.4518 110.708 70.085 110.708 67.2391C110.708 64.3933 108.518 62.0264 105.681 61.8059C104.122 61.6843 100.599 61.4098 99.4781 60.9779C99.0463 59.8572 98.771 56.3332 98.6494 54.7745C98.4289 51.937 96.0613 49.7481 93.2162 49.7481C90.3696 49.7481 88.0035 51.9378 87.783 54.7753C87.6613 56.3339 87.9308 49.8507 86.4357 44.1628C86.6881 44.1218 86.9375 44.0731 87.1854 44.0153C87.818 44.5916 88.5463 45.079 89.3614 45.466C90.0092 45.9648 90.7269 46.3731 91.51 46.6856C94.5072 47.88 97.6245 47.6542 100.29 46.0499C104.657 43.42 106.955 37.3801 108.138 32.4624C110.647 32.8547 113.374 32.8273 115.612 31.7127C117.669 30.6878 119.119 28.9049 119.692 26.6908C120.334 24.2152 120.834 17.9373 111.788 12.825Z" fill="#231F20"/>
<path d="M110.18 11.804C108.365 10.5913 106.205 9.51392 103.759 8.60002C99.9007 7.15923 94.9404 5.63708 90.6158 6.18526C89.7703 5.36793 88.826 4.68593 87.7981 4.15219C86.3109 3.04593 84.6139 2.31679 82.7465 1.98073C79.5821 1.41125 76.4344 2.13583 73.5255 4.00012C72.8853 3.40176 72.1174 2.8855 71.2263 2.45365C67.9417 -0.0401827 62.7655 -0.328342 59.0369 0.257098C55.6079 0.7954 52.629 2.13735 50.3557 4.10581C46.2895 1.6097 40.4047 1.49185 32.8304 3.75834C29.7192 4.68821 27.3486 6.14269 25.6911 8.15448C22.7867 7.54851 19.2375 7.70665 15.0619 8.62815C6.76383 10.4597 1.19377 16.5118 0.16279 24.819C-0.884923 33.2699 3.20404 41.6357 10.1396 45.3338C11.9379 46.5598 13.91 47.3987 16.0022 47.8821C15.927 48.8198 15.794 50.334 15.623 51.2544C14.5418 51.4551 12.6365 51.6034 11.8154 51.668C8.97787 51.8885 6.78816 54.2553 6.78816 57.1012C6.78816 59.947 8.97787 62.3139 11.8154 62.5344C12.6365 62.599 14.5418 62.7473 15.623 62.948C15.8237 64.0284 15.9728 65.9345 16.0366 66.7557C16.2534 69.5457 18.5493 71.6972 21.3307 71.7688C20.1026 73.2591 19.3658 75.0758 19.2208 77.0351C19.2208 77.0359 19.2208 77.0359 19.2208 77.0366C19.1215 78.3832 19.3206 79.6969 19.7641 80.9183C17.09 83.3448 14.7601 87.8542 13.5534 95.8179C12.4829 102.883 12.0419 110.567 16.5187 114.803C18.2719 117.368 20.9726 118.893 24.2434 119.13C24.4746 119.147 24.6996 119.155 24.9216 119.155C26.4156 119.155 27.6993 118.774 28.8164 118.109C30.6118 120.484 33.9175 122.176 38.3351 122.875C43.0004 123.613 49.1148 123.147 53.5916 120.096C55.5228 122.455 58.1474 123.851 61.1278 124.073C62.0371 124.14 62.9297 124.174 63.8056 124.174C69.3346 124.174 74.1292 122.848 77.2388 120.454C78.6044 120.869 79.8178 120.806 80.5401 120.701C82.8074 120.364 85.4168 119.136 87.237 115.722C90.9001 118.392 94.4006 117.168 95.5913 116.609C100.646 114.233 103.149 108.634 101.821 102.68C101.154 99.6757 98.5717 89.5407 93.1264 83.7312C93.0689 83.6563 93.0106 83.5938 92.953 83.5206C95.164 82.9555 96.8576 81.0549 97.042 78.6827C97.1636 77.1241 97.4389 73.5992 97.8707 72.4793C98.9899 72.0474 102.515 71.773 104.073 71.6513C106.911 71.4308 109.101 69.064 109.101 66.2181C109.101 63.3723 106.911 61.0054 104.073 60.7849C102.515 60.6633 98.9914 60.3888 97.8707 59.9569C97.4389 58.8362 97.1636 55.3122 97.042 53.7535C96.8215 50.916 94.4539 48.7271 91.6088 48.7271C88.7622 48.7271 86.3961 50.9168 86.1756 53.7543C86.0539 55.3129 86.3234 48.8297 84.8283 43.1418C85.0807 43.1008 85.3301 43.0521 85.578 42.9943C86.2105 43.5706 86.9389 44.058 87.754 44.445C88.4018 44.9438 89.1195 45.3521 89.9026 45.6646C92.8998 46.859 96.0171 46.6332 98.6827 45.0289C103.05 42.399 105.348 36.3591 106.531 31.4414C109.04 31.8337 111.766 31.8063 114.005 30.6917C116.062 29.6668 117.511 27.8839 118.084 25.6698C118.726 23.1942 119.226 16.9163 110.18 11.804Z" fill="white"/>
<path d="M28.3183 85.5288C32.8785 86.1437 33.1412 90.9455 31.2989 99.5934C29.6683 107.247 27.9985 113.942 24.636 113.697C19.5217 113.325 18.8867 107.612 20.3058 98.2438C21.725 88.8755 24.4657 85.0093 28.3183 85.5288Z" fill="#22093A" stroke="#22093A" stroke-miterlimit="10" stroke-linecap="round" stroke-linejoin="round"/>
<path d="M34.571 79.6774C34.7367 77.4286 32.9566 75.4644 30.5949 75.2904C28.2333 75.1164 26.1845 76.7984 26.0188 79.0472C25.8531 81.2961 27.6332 83.2602 29.9949 83.4342C32.3565 83.6082 34.4053 81.9263 34.571 79.6774Z" fill="#22093A" stroke="#22093A" stroke-miterlimit="9.99999" stroke-linecap="round" stroke-linejoin="round"/>
<path d="M40.8185 88.2809C33.7399 87.2798 31.6439 105.938 32.7277 113.97C33.244 117.797 48.1513 120.297 52.6473 113.457C57.2577 106.444 58.3533 90.761 40.8185 88.2809Z" fill="#22093A" stroke="#22093A" stroke-miterlimit="10" stroke-linecap="round" stroke-linejoin="round"/>
<path d="M43.0536 100.153C41.3624 99.9139 40.4869 105.081 41.1205 106.291C41.5421 107.096 44.196 107.458 45.3157 106.313C46.4354 105.168 47.2431 100.746 43.0536 100.153Z" fill="#22093A" stroke="#22093A" stroke-miterlimit="10" stroke-linecap="round" stroke-linejoin="round"/>
<path d="M73.0332 90.714C71.1789 88.2769 58.7475 89.4314 56.3772 96.6381C54.8305 101.341 53.4242 118.038 61.5296 118.64C69.635 119.243 76.2132 116.626 75.7237 112.378C75.2343 108.13 65.0448 109.347 65.0448 109.347C65.0448 109.347 73.7145 107.686 73.5123 103.245C73.3102 98.8042 64.3532 101.554 64.3532 101.554C64.3532 101.554 78.0086 97.2526 73.0332 90.714Z" fill="#22093A" stroke="#22093A" stroke-miterlimit="10" stroke-linecap="round" stroke-linejoin="round"/>
<path d="M81.8761 84.7713C77.0732 85.8955 74.93 92.0376 74.6702 98.5836C74.3882 105.685 75.8727 115.886 79.7339 115.312C82.5646 114.892 83.6351 110.939 83.9653 106.765L86.9819 106.352C88.6323 109.924 90.8044 112.838 93.2684 111.679C96.0966 110.35 97.2596 107.283 96.4982 103.867C95.6747 100.171 91.1036 82.6114 81.8761 84.7713ZM84.0867 102.669C84.043 99.2673 83.7 96.5108 83.7 96.5108C83.7 96.5108 84.3314 99.2659 85.4307 102.446L84.0867 102.669Z" fill="#22093A" stroke="#22093A" stroke-miterlimit="10" stroke-linecap="round" stroke-linejoin="round"/>
<path d="M26.9511 83.9219C31.5113 84.5368 31.774 89.3386 29.9317 97.9865C28.3011 105.64 26.6313 112.335 23.2688 112.09C18.1545 111.718 17.5195 106.005 18.9386 96.6368C20.3578 87.2686 23.0985 83.4024 26.9511 83.9219Z" fill="#9736FF" stroke="#22093A" stroke-miterlimit="10" stroke-linecap="round" stroke-linejoin="round"/>
<path d="M33.2038 78.0705C33.3695 75.8216 31.5894 73.8575 29.2278 73.6835C26.8661 73.5095 24.8173 75.1914 24.6516 77.4403C24.4859 79.6891 26.266 81.6533 28.6277 81.8273C30.9893 82.0013 33.0381 80.3193 33.2038 78.0705Z" fill="#9736FF" stroke="#22093A" stroke-miterlimit="10" stroke-linecap="round" stroke-linejoin="round"/>
<path d="M39.4513 86.674C32.3727 85.6728 30.2767 104.331 31.3605 112.363C31.8768 116.19 46.7841 118.69 51.2801 111.851C55.8905 104.837 56.9861 89.1541 39.4513 86.674Z" fill="#9736FF" stroke="#22093A" stroke-miterlimit="10" stroke-linecap="round" stroke-linejoin="round"/>
<path d="M41.6864 98.5461C39.9952 98.3069 39.1197 103.474 39.7534 104.684C40.1749 105.489 42.8288 105.851 43.9485 104.706C45.0682 103.561 45.8759 99.1387 41.6864 98.5461Z" fill="#22093A" stroke="#22093A" stroke-miterlimit="10" stroke-linecap="round" stroke-linejoin="round"/>
<path d="M71.666 89.107C69.8117 86.67 57.3803 87.8245 55.01 95.0312C53.4633 99.7337 52.0571 116.431 60.1624 117.034C68.2678 117.636 74.846 115.019 74.3565 110.771C73.8671 106.523 63.6776 107.74 63.6776 107.74C63.6776 107.74 72.3473 106.079 72.1451 101.638C71.943 97.1973 62.986 99.9467 62.986 99.9467C62.986 99.9467 76.6414 95.6456 71.666 89.107Z" fill="#9736FF" stroke="#22093A" stroke-miterlimit="10" stroke-linecap="round" stroke-linejoin="round"/>
<path d="M80.5089 83.1643C75.706 84.2886 73.5628 90.4307 73.303 96.9766C73.021 104.078 74.5055 114.279 78.3667 113.705C81.1974 113.285 82.268 109.332 82.5981 105.159L85.6147 104.745C87.2651 108.317 89.4372 111.231 91.9012 110.073C94.7294 108.743 95.8924 105.676 95.1311 102.26C94.3075 98.5641 89.7364 81.0044 80.5089 83.1643ZM82.7195 101.062C82.6758 97.6603 82.3329 94.9038 82.3329 94.9038C82.3329 94.9038 82.9642 97.659 84.0635 100.839L82.7195 101.062Z" fill="#9736FF" stroke="#22093A" stroke-miterlimit="10" stroke-linecap="round" stroke-linejoin="round"/>
<path d="M103.456 14.6915C94.5176 11.3523 90.4167 12.2016 89.435 14.9676C88.5301 11.6056 86.7302 8.93222 83.3865 8.3312C78.4837 7.44999 74.037 12.2859 71.1745 18.2503C69.705 21.3123 68.3337 25.1692 67.6904 28.4977C64.8378 26.7928 59.899 26.5864 59.899 26.5864C59.899 26.5864 68.4192 26.2736 68.863 21.621C69.3066 16.9684 60.3561 18.3659 60.3561 18.3659C60.3561 18.3659 74.0174 16.1215 70.2022 8.50692C68.7803 5.66886 56.7396 4.83974 53.4417 11.9497C52.1958 14.6358 50.4228 21.5097 50.6327 27.2025C48.7372 24.938 46.5807 23.1841 46.5807 23.1841C52.1449 22.5398 58.2886 3.3002 35.9945 9.96606C31.8044 11.219 30.2893 13.3738 29.8905 16.9608C28.8969 14.8168 25.4778 13.2507 17.8393 14.9365C2.13193 18.4031 4.82725 40.5429 17.9386 42.7419C23.3704 43.6528 30.7071 41.6899 32.075 36.5173C32.9183 38.342 34.0951 39.3226 35.7962 39.0676C39.9009 38.4524 40.2465 26.6796 40.2465 26.6796C40.2465 26.6796 46.4347 38.4867 51.3969 35.8929C52.1751 35.4862 52.6947 34.9961 53.019 34.4514C53.6153 35.0288 54.3343 35.4574 55.2084 35.6801C60.5514 37.041 65.4009 36.6445 67.8965 34.7548C68.1949 35.2648 68.6022 35.6358 69.1694 35.7869C71.9619 36.5308 74.5377 33.2946 76.5149 29.5581L79.4772 30.3828C79.5764 34.3557 80.4235 37.9263 83.1716 37.8395C86.3259 37.7398 88.6323 35.3623 89.2948 31.8901C89.6494 30.0313 90.5109 24.6577 90.1513 19.4977C91.8659 21.8789 95.2669 22.6449 95.2669 22.6449C95.2669 22.6449 85.3387 37.9843 91.9164 40.604C100.117 43.8702 102.205 24.5571 102.205 24.5571C102.205 24.5571 111.719 28.4946 112.806 24.3051C113.719 20.7848 110.095 17.1719 103.456 14.6915ZM79.6033 26.1406L78.2682 25.8087C79.5899 22.6378 80.3759 19.9451 80.3759 19.9451C80.3759 19.9451 79.8578 22.7521 79.6033 26.1406Z" fill="#22093A" stroke="#22093A" stroke-miterlimit="10" stroke-linecap="round" stroke-linejoin="round"/>
<path d="M34.3876 8.98221C27.7849 10.9564 27.8141 15.1568 28.4092 23.7007C29.0011 32.1995 30.0846 38.699 34.1893 38.0837C38.294 37.4684 38.6395 25.6957 38.6395 25.6957C38.6395 25.6957 44.8278 37.5028 49.79 34.9091C56.3739 31.4678 44.9738 22.2002 44.9738 22.2002C50.538 21.556 56.6817 2.31631 34.3876 8.98221Z" fill="#9736FF" stroke="#22093A" stroke-miterlimit="10" stroke-linecap="round" stroke-linejoin="round"/>
<path d="M36.668 14.0396C36.668 14.0396 40.4634 12.7549 40.3497 14.9012C40.236 17.0474 37.0772 17.5741 37.0772 17.5741L36.668 14.0396Z" fill="#22093A" stroke="#22093A" stroke-miterlimit="10" stroke-linecap="round" stroke-linejoin="round"/>
<path d="M68.5948 7.52302C67.1729 4.68498 55.1321 3.85585 51.8343 10.9659C49.6824 15.6053 45.9446 32.7459 53.601 34.6962C61.2574 36.6464 67.9167 34.9979 68.0583 30.4991C68.1998 26.0003 58.2917 25.6025 58.2917 25.6025C58.2917 25.6025 66.8118 25.2897 67.2555 20.6371C67.6992 15.9845 58.7487 17.382 58.7487 17.382C58.7487 17.382 72.4099 15.1376 68.5948 7.52302Z" fill="#9736FF" stroke="#22093A" stroke-miterlimit="10" stroke-linecap="round" stroke-linejoin="round"/>
<path d="M81.7793 7.34724C76.8765 6.46601 72.4298 11.3019 69.5673 17.2663C66.4617 23.7373 63.7528 33.7883 67.5621 34.8029C70.3547 35.5468 72.9304 32.3106 74.9077 28.5741L77.8701 29.3988C77.9693 33.3717 78.8163 36.9423 81.5644 36.8555C84.7187 36.7558 87.0251 34.3784 87.6876 30.9061C88.4042 27.1501 91.1989 9.04038 81.7793 7.34724ZM76.661 24.8248C77.9827 21.6539 78.7688 18.9611 78.7688 18.9611C78.7688 18.9611 78.2507 21.7681 77.9961 25.1566L76.661 24.8248Z" fill="#9736FF" stroke="#22093A" stroke-miterlimit="10" stroke-linecap="round" stroke-linejoin="round"/>
<path d="M101.849 13.7078C91.9418 10.0067 87.9639 11.4427 87.6055 14.9412C87.067 20.1983 93.6595 21.6611 93.6595 21.6611C93.6595 21.6611 83.7312 37.0006 90.309 39.6203C98.5099 42.8865 100.598 23.5734 100.598 23.5734C100.598 23.5734 110.112 27.5109 111.198 23.3214C112.112 19.8011 108.488 16.1882 101.849 13.7078Z" fill="#9736FF" stroke="#22093A" stroke-miterlimit="10" stroke-linecap="round" stroke-linejoin="round"/>
<path d="M24.8223 21.6053C29.5946 21.6983 32.6305 10.3333 16.2319 13.9525C0.524505 17.4191 3.21983 39.5589 16.3312 41.7578C23.8257 43.0148 34.9567 38.8057 29.0149 28.2345C26.1008 23.0499 20.0391 24.6213 19.0503 28.2503C18.0614 31.8793 22.893 34.3699 22.893 34.3699C17.5491 35.3383 12.9866 29.4779 15.6518 24.8974C17.3108 22.0462 19.8639 21.5086 24.8223 21.6053Z" fill="#9736FF" stroke="#22093A" stroke-miterlimit="10" stroke-linecap="round" stroke-linejoin="round"/>
<path d="M66.5496 84.2791C66.9797 82.9278 67.2186 81.5672 67.344 80.3708C67.3839 80.3613 67.4059 80.3559 67.4059 80.3559L67.3461 80.3517C67.5722 78.1767 67.4342 76.5538 67.4342 76.5538C67.4342 76.5538 67.3998 76.5643 67.3496 76.5793C69.0197 66.9651 76.8042 67.7388 79.2741 59.2136C82.3863 48.5274 80.1333 30.109 58.3521 29.7416C47.7301 29.5874 36.3441 37.1149 35.9839 52.4514C35.6374 65.5373 47.6616 68.4856 47.3118 73.8055C47.2709 74.4819 47.2179 75.122 47.1608 75.7399C47.1237 75.73 47.1016 75.7239 47.1016 75.7239C47.1016 75.7239 46.0005 78.9862 46.3058 82.5456L46.1999 82.5365C46.1999 82.5365 46.2442 82.5507 46.3082 82.5708C46.424 83.8924 46.732 85.2527 47.3665 86.5029L47.0156 86.4311C47.0156 86.4311 47.1476 86.4749 47.3923 86.5492C48.6224 88.9367 51.0411 90.9102 55.5565 91.405C62.1633 92.1288 65.1345 88.4534 66.4538 84.5786" fill="#22093A"/>
<path d="M66.5496 84.2791C66.9797 82.9278 67.2186 81.5672 67.344 80.3708C67.3839 80.3613 67.4059 80.3559 67.4059 80.3559L67.3461 80.3517C67.5722 78.1767 67.4342 76.5538 67.4342 76.5538C67.4342 76.5538 67.3998 76.5643 67.3496 76.5793C69.0197 66.9651 76.8042 67.7388 79.2741 59.2136C82.3863 48.5274 80.1333 30.109 58.3521 29.7416C47.7301 29.5874 36.3441 37.1149 35.9839 52.4514C35.6374 65.5373 47.6616 68.4856 47.3118 73.8055C47.2709 74.4819 47.2179 75.122 47.1608 75.7399C47.1237 75.73 47.1016 75.7239 47.1016 75.7239C47.1016 75.7239 46.0005 78.9862 46.3058 82.5456L46.1999 82.5365C46.1999 82.5365 46.2442 82.5507 46.3082 82.5708C46.424 83.8924 46.732 85.2527 47.3665 86.5029L47.0156 86.4311C47.0156 86.4311 47.1476 86.4749 47.3923 86.5492C48.6224 88.9367 51.0411 90.9102 55.5565 91.405C62.1633 92.1288 65.1345 88.4534 66.4538 84.5786" stroke="#22093A" stroke-miterlimit="10" stroke-linecap="round" stroke-linejoin="round"/>
<path d="M56.9849 29.9345C46.3629 29.7802 34.9769 37.3078 34.6167 52.6443C34.2702 65.7302 46.2945 68.6784 45.9446 73.9984C45.5621 80.3243 44.2293 83.9834 46.4673 86.9466C48.0903 89.1435 50.9149 91.0061 56.5407 90.6906C61.3056 90.4361 65.5733 88.341 65.6635 80.43C65.8303 66.8584 75.1594 68.8901 77.9069 59.4064C81.0191 48.7202 78.766 30.3018 56.9849 29.9345Z" fill="#FCC707" stroke="#22093A" stroke-miterlimit="10" stroke-linecap="round" stroke-linejoin="round"/>
<path d="M66.0666 76.7469C66.0666 76.7469 61.7212 78.1346 56.3413 77.6228C49.8787 77.07 45.734 75.917 45.734 75.917C45.734 75.917 40.9137 90.1435 54.1889 91.598C67.464 93.0525 66.0666 76.7469 66.0666 76.7469Z" fill="#22093A"/>
<path d="M51.4821 77.323C51.4821 77.323 56.5682 58.5439 51.5395 59.0801C47.9256 59.4607 51.3232 68.1422 55.9588 66.9416C60.5944 65.7411 60.9505 58.9464 58.5045 59.2996C55.351 59.7307 55.3955 72.0829 57.9699 77.6456" stroke="#050038" stroke-miterlimit="10" stroke-linecap="round" stroke-linejoin="round"/>
<path d="M8.89387 23.5454C8.01819 25.6866 7.76169 28.3328 8.77496 31.432C11.3139 39.1977 17.4826 39.1552 19.648 39.1076" stroke="#D9BBFF" stroke-miterlimit="10" stroke-linecap="round" stroke-linejoin="round"/>
<path d="M14.6295 17.5742C13.457 18.0835 12.0213 19.063 10.7969 20.475" stroke="#D9BBFF" stroke-miterlimit="10" stroke-linecap="round" stroke-linejoin="round"/>
<path d="M33.8764 12.0962C32.4584 12.8979 31.6606 14.1058 31.5703 15.8698C31.4841 17.5541 31.2497 23.0426 31.7477 26.7467" stroke="#D9BBFF" stroke-miterlimit="10" stroke-linecap="round" stroke-linejoin="round"/>
<path d="M58.789 8.97607C56.5044 9.92719 53.8139 10.7069 53.0156 18.7876" stroke="#D9BBFF" stroke-miterlimit="10" stroke-linecap="round" stroke-linejoin="round"/>
<path d="M61.707 8.54154C63.1262 8.3308 64.2886 8.23807 65.2549 8.54154" stroke="#D9BBFF" stroke-miterlimit="10" stroke-linecap="round" stroke-linejoin="round"/>
<path d="M82.0553 10.3179C79.1283 9.96314 75.9592 11.2129 73.375 16.2203" stroke="#D9BBFF" stroke-miterlimit="10" stroke-linecap="round" stroke-linejoin="round"/>
<path d="M90.998 15.6162C91.6063 17.5742 94.3685 18.961 95.7877 18.961" stroke="#D9BBFF" stroke-miterlimit="10" stroke-linecap="round" stroke-linejoin="round"/>
<path d="M90.998 36.9833C92.1117 37.85 93.3024 37.7519 94.6346 34.9802C96.295 31.5259 96.3727 30.7072 96.7274 29.481" stroke="#D9BBFF" stroke-miterlimit="10" stroke-linecap="round" stroke-linejoin="round"/>
<path d="M60.8931 33.5962C56.3991 32.8856 40.6126 32.9743 38.2754 49.2945" stroke="white" stroke-miterlimit="10" stroke-linecap="round" stroke-linejoin="round"/>
<path d="M48.1119 40.7065L45.8613 42.957L48.1119 45.2076L50.3624 42.957L48.1119 40.7065Z" fill="white"/>
<path d="M48.112 50.9344C47.7052 50.9344 47.3676 50.6219 47.3357 50.2159C46.8765 44.3144 46.7548 44.1927 40.8533 43.7335C40.4473 43.7015 40.1348 43.364 40.1348 42.9572C40.1348 42.5504 40.4473 42.2128 40.8533 42.1809C46.7548 41.7217 46.8765 41.6 47.3357 35.6985C47.3676 35.2925 47.7052 34.98 48.112 34.98C48.5187 34.98 48.8563 35.2925 48.8883 35.6985C49.3475 41.6 49.4691 41.7217 55.3707 42.1809C55.7767 42.2128 56.0892 42.5504 56.0892 42.9572C56.0892 43.364 55.7767 43.7015 55.3707 43.7335C49.4691 44.1927 49.3475 44.3144 48.8883 50.2159C48.8563 50.6219 48.5187 50.9344 48.112 50.9344ZM45.8614 42.9572C47.0103 43.3868 47.6824 44.0589 48.112 45.2077C48.5416 44.0589 49.2137 43.3868 50.3625 42.9572C49.2137 42.5276 48.5416 41.8555 48.112 40.7067C47.6824 41.8555 47.0103 42.5276 45.8614 42.9572Z" fill="#22093A"/>
<path d="M38.3213 52.9917C38.1439 54.3222 38.0697 56.5396 38.8164 58.4022" stroke="white" stroke-miterlimit="10" stroke-linecap="round" stroke-linejoin="round"/>
<path d="M24.6412 87.9492C22.3461 93.1364 19.2417 106.805 22.8783 109.308" stroke="#D9BBFF" stroke-miterlimit="10" stroke-linecap="round" stroke-linejoin="round"/>
<path d="M27.7571 76.6284C27.491 76.8534 27.4023 77.3361 27.4023 77.3361" stroke="#D9BBFF" stroke-miterlimit="10" stroke-linecap="round" stroke-linejoin="round"/>
<path d="M34.5082 104.781C34.4295 106.835 34.6091 107.8 34.6091 107.8" stroke="#D9BBFF" stroke-miterlimit="10" stroke-linecap="round" stroke-linejoin="round"/>
<path d="M43.1017 90.807C41.4165 90.1496 37.4902 88.4107 35.7761 96.0096C35.3303 97.9861 35.032 99.6966 34.8359 101.154" stroke="#D9BBFF" stroke-miterlimit="10" stroke-linecap="round" stroke-linejoin="round"/>
<path d="M60.0584 94.5688C58.9251 94.6042 58.2467 95.357 57.7433 98.7502C57.2399 102.143 57.7433 104.429 57.7433 104.429" stroke="#D9BBFF" stroke-miterlimit="10" stroke-linecap="round" stroke-linejoin="round"/>
<path d="M83.1994 86.2173C81.8624 85.8033 78.0536 85.4819 77.1641 91.4966" stroke="#D9BBFF" stroke-miterlimit="10" stroke-linecap="round" stroke-linejoin="round"/>
<path d="M76.0957 101.388C76.1844 102.922 76.0957 105.433 77.1626 108.388" stroke="#D9BBFF" stroke-miterlimit="10" stroke-linecap="round" stroke-linejoin="round"/>
<path d="M91.6048 60.5698L89.874 64.3102L85.4297 66.2212L90.0808 68.3571L91.6048 71.8726L93.8605 67.6534L98.3147 66.2212L93.3907 64.3738L91.6048 60.5698Z" fill="#FCC707"/>
<path d="M91.6056 79.0409C91.1996 79.0409 90.8605 78.7277 90.83 78.3232C90.0332 68.1107 89.7154 67.7929 79.5029 66.996C79.0984 66.9656 78.7852 66.6265 78.7852 66.2205C78.7852 65.8145 79.0984 65.4754 79.5029 65.445C89.7154 64.6497 90.0332 64.3319 90.83 54.1186C90.8605 53.7134 91.1996 53.4009 91.6056 53.4009C92.0116 53.4009 92.3507 53.7134 92.3811 54.1194C93.1764 64.3319 93.4942 64.6497 103.707 65.445C104.111 65.4754 104.424 65.8145 104.424 66.2205C104.424 66.6265 104.111 66.9656 103.707 66.996C93.4942 67.7929 93.1764 68.1107 92.3811 78.3232C92.3507 78.7277 92.0116 79.0409 91.6056 79.0409ZM85.9534 66.2205C89.4113 66.9854 90.8407 68.4148 91.6056 71.8727C92.3689 68.4148 93.7983 66.9854 97.2562 66.2205C93.7983 65.4572 92.3689 64.0278 91.6056 60.5699C90.8407 64.0278 89.4113 65.4572 85.9534 66.2205Z" fill="#22093A"/>
<path d="M21.8619 56.1513L19.6113 58.4019L21.8619 60.6524L24.1124 58.4019L21.8619 56.1513Z" fill="#FCC707"/>
<path d="M21.862 66.3792C21.4552 66.3792 21.1176 66.0667 21.0857 65.6607C20.6265 59.7592 20.5048 59.6375 14.6033 59.1783C14.1973 59.1464 13.8848 58.8088 13.8848 58.402C13.8848 57.9952 14.1973 57.6577 14.6033 57.6257C20.5048 57.1665 20.6265 57.0449 21.0857 51.1433C21.1176 50.7373 21.4552 50.4248 21.862 50.4248C22.2687 50.4248 22.6063 50.7373 22.6383 51.1433C23.0975 57.0449 23.2191 57.1665 29.1207 57.6257C29.5267 57.6577 29.8392 57.9952 29.8392 58.402C29.8392 58.8088 29.5267 59.1464 29.1207 59.1783C23.2191 59.6375 23.0975 59.7592 22.6383 65.6607C22.6063 66.0667 22.2687 66.3792 21.862 66.3792ZM19.6114 58.402C20.7603 58.8316 21.4324 59.5037 21.862 60.6525C22.2916 59.5037 22.9637 58.8316 24.1125 58.402C22.9637 57.9724 22.2916 57.3003 21.862 56.1515C21.4324 57.3003 20.7603 57.9724 19.6114 58.402Z" fill="#22093A"/>
</g>
<defs>
<clipPath id="clip0_5_11017">
<rect width="120" height="125.195" fill="white"/>
</clipPath>
</defs>
</svg>
