<svg width="120" height="145" viewBox="0 0 120 145" fill="none" xmlns="http://www.w3.org/2000/svg">
<g clip-path="url(#clip0_5_10988)">
<path opacity="0.5" d="M116.462 9.60664C115.369 8.43895 114.023 7.53699 112.527 6.96986C110.386 5.76881 107.956 5.17807 105.503 5.26193C103.276 5.26539 101.089 5.84979 99.1578 6.95738C94.6382 4.86007 89.7275 3.73869 84.7455 3.66632C77.4413 3.32758 71.9299 3.94266 67.8204 5.56677C67.4576 5.37957 67.0928 5.20309 66.7258 5.03734C62.4369 2.59471 57.4773 1.59297 52.5765 2.1795C48.3964 2.71383 44.4294 4.33481 41.0712 6.88076C40.5693 6.59429 40.0467 6.34579 39.5077 6.13734C37.3677 4.84758 34.8824 4.24813 32.3898 4.42049C28.9734 4.53028 25.7774 6.1343 23.6478 8.80798C23.2602 8.60544 22.8614 8.42508 22.4533 8.26779C20.3157 6.99224 17.8407 6.39718 15.3569 6.56164C5.7921 7.11244 1.42332 15.9303 2.3709 32.7671C3.08401 45.4161 5.23051 52.1195 9.78203 55.9079C10.7753 56.7335 11.8938 57.3955 13.0954 57.869C13.495 58.0956 13.9069 58.2998 14.329 58.4808C12.54 64.4103 13.757 69.8325 17.6781 73.0532C18.5935 73.7932 19.6196 74.3845 20.7187 74.8056C19.3652 76.8396 18.0455 78.9786 16.7921 81.2969C12.4955 89.2411 7.05528 108.677 17.2155 125.371C22.6397 134.286 34.4722 144.909 60.0385 144.909L60.6955 144.902C60.7989 144.906 60.9602 144.909 61.0244 144.909C61.586 144.909 62.1556 144.904 62.7421 144.893C81.549 144.551 94.9236 138.452 102.493 126.767C111.163 113.386 108.953 97.3261 106.95 89.1698C107.705 86.3411 107.575 83.3493 106.58 80.5963C105.827 78.3117 103.683 73.3492 99.1729 72.0265C100.954 71.3234 102.493 70.1196 103.604 68.5605C105.267 65.8415 105.712 62.5491 104.83 59.4863C111.764 59.0099 116.998 53.0033 116.522 46.07C116.409 44.4315 115.977 42.8309 115.249 41.3584C118.005 37.5308 119.551 32.9656 119.689 28.2512C120.405 19.1625 120.102 13.5003 116.462 9.60664ZM34.2742 57.3057C34.2364 57.354 34.1947 57.4044 34.1567 57.4527C34.1241 57.3822 34.0907 57.3163 34.0578 57.2466C34.1318 57.261 34.1999 57.2926 34.2742 57.3057Z" fill="#231F20"/>
<path d="M114.218 7.61984C113.124 6.45215 111.778 5.5502 110.283 4.98308C108.142 3.78201 105.712 3.19127 103.259 3.27514C101.032 3.27858 98.8451 3.86298 96.9136 4.97059C92.3941 2.8733 87.4833 1.75193 82.5014 1.67957C75.1972 1.34083 69.6857 1.95589 65.5763 3.58001C65.2135 3.39282 64.8486 3.21634 64.4817 3.05059C60.1928 0.607947 55.2332 -0.393817 50.3324 0.192659C46.1523 0.726992 42.1852 2.34798 38.8271 4.89393C38.3252 4.60747 37.8025 4.35896 37.2635 4.15049C35.1236 2.86074 32.6383 2.2613 30.1457 2.43365C26.7293 2.54343 23.5333 4.14745 21.4037 6.82114C21.0161 6.61861 20.6173 6.43826 20.2092 6.28095C18.0716 5.00542 15.5965 4.41036 13.1127 4.5748C3.54795 5.12569 -0.820805 13.9435 0.126752 30.7803C0.839884 43.4293 2.98638 50.1327 7.53789 53.9212C8.53115 54.7467 9.64962 55.4087 10.8512 55.8822C11.2508 56.1088 11.6626 56.313 12.0848 56.494C10.2957 62.4235 11.5128 67.8457 15.4339 71.0664C16.3493 71.8064 17.3754 72.3977 18.4745 72.8188C17.121 74.8527 15.8013 76.9918 14.5479 79.3101C10.2513 87.2543 4.81108 106.69 14.9713 123.385C20.3955 132.299 32.228 142.923 57.7943 142.923L58.4513 142.915C58.5547 142.919 58.716 142.923 58.7802 142.923C59.3418 142.923 59.9114 142.917 60.4979 142.906C79.3048 142.564 92.6794 136.465 100.249 124.781C108.919 111.399 106.708 95.3394 104.706 87.183C105.46 84.3543 105.331 81.3625 104.335 78.6095C103.583 76.3249 101.439 71.3624 96.9287 70.0397C98.7096 69.3367 100.249 68.1328 101.36 66.5737C103.023 63.8547 103.468 60.5624 102.586 57.4995C109.519 57.0232 114.754 51.0165 114.277 44.0832C114.165 42.4447 113.733 40.8441 113.005 39.3717C115.761 35.544 117.307 30.9788 117.444 26.2645C118.161 17.1757 117.858 11.5135 114.218 7.61984ZM32.0301 55.3189C31.9923 55.3672 31.9506 55.4176 31.9126 55.466C31.88 55.3954 31.8465 55.3296 31.8137 55.2598C31.8877 55.2742 31.9558 55.3057 32.0301 55.3189Z" fill="white"/>
<path d="M105.147 11.4674C102.131 11.5033 98.45 13.1022 96.9747 25.8607C95.6575 37.2519 100.132 37.679 101.287 37.6653C102.442 37.6515 109.228 38.1542 110.21 25.703C111.192 13.2518 109.615 11.4142 105.147 11.4674Z" fill="#22093A" stroke="#22093A" stroke-linecap="round" stroke-linejoin="round"/>
<path d="M101.763 50.2512C104.683 50.2512 107.05 47.8844 107.05 44.9647C107.05 42.0451 104.683 39.6782 101.763 39.6782C98.8434 39.6782 96.4766 42.0451 96.4766 44.9647C96.4766 47.8844 98.8434 50.2512 101.763 50.2512Z" fill="#22093A" stroke="#22093A" stroke-linecap="round" stroke-linejoin="round"/>
<path d="M53.1639 8.31227C60.3483 7.28493 71.965 13.0888 72.495 26.6421C73.025 40.1954 64.4848 47.2575 56.6186 48.3258C49.5213 49.2897 39.5279 44.8838 38.4675 30.4814C37.5987 18.6821 42.6114 9.82121 53.1639 8.31227Z" fill="#22093A" stroke="#22093A" stroke-linecap="round" stroke-linejoin="round"/>
<path d="M55.262 18.6635C56.2569 18.0597 57.9689 20.546 58.2306 26.8234C58.4922 33.1009 57.3901 36.5281 56.2999 37.163C55.3163 37.7359 53.8517 35.8693 53.5038 29.2074C53.2188 23.7496 53.8006 19.5505 55.262 18.6635Z" fill="#22093A" stroke="#22093A" stroke-linecap="round" stroke-linejoin="round"/>
<path d="M83.9689 9.86374C69.5212 9.20498 64.9464 12.7437 65.9485 17.4476C67.4542 24.5161 76.6489 23.6528 76.6489 23.6528C76.6489 23.6528 70.1654 47.7853 79.8264 48.434C91.8712 49.2428 86.4823 23.2293 86.4823 23.2293C86.4823 23.2293 100.518 24.3607 100.174 18.4517C99.8846 13.4865 93.6517 10.3052 83.9689 9.86374Z" fill="#22093A" stroke="#22093A" stroke-linecap="round" stroke-linejoin="round"/>
<path d="M32.3667 10.6144C28.1373 10.8576 25.9329 15.6975 26.1444 26.1845C24.9255 26.1814 23.6168 26.2476 22.2492 26.3529C21.8756 17.237 20.1294 12.4792 15.3314 12.7552C10.7236 13.0201 8.5107 18.7209 9.217 31.2589C9.92327 43.7969 12.0978 51.0762 18.1345 50.3114C21.0894 49.9371 21.986 44.7835 22.2396 37.9014C22.9158 37.8426 23.6191 37.7597 24.375 37.63C25.3346 37.4652 26.2082 37.2709 27.0318 37.0577C28.2023 44.628 30.5558 48.7551 35.1698 48.1706C39.139 47.6677 39.3962 38.548 39.3666 28.1893C39.3333 16.4853 37.8208 10.3007 32.3667 10.6144Z" fill="#22093A" stroke="#22093A" stroke-linecap="round" stroke-linejoin="round"/>
<path d="M103.395 10.5905C100.379 10.6264 96.698 12.2253 95.2227 24.9838C93.9055 36.3749 98.3798 36.8021 99.5351 36.7883C100.69 36.7745 107.476 37.2773 108.458 24.8261C109.44 12.3749 107.863 10.5372 103.395 10.5905Z" fill="#E9022C" stroke="#22093A" stroke-linecap="round" stroke-linejoin="round"/>
<path d="M100.011 49.3738C102.931 49.3738 105.298 47.0069 105.298 44.0873C105.298 41.1676 102.931 38.8008 100.011 38.8008C97.0915 38.8008 94.7246 41.1676 94.7246 44.0873C94.7246 47.0069 97.0915 49.3738 100.011 49.3738Z" fill="#E9022C" stroke="#22093A" stroke-linecap="round" stroke-linejoin="round"/>
<path d="M51.4118 7.43531C58.5963 6.40798 70.213 12.2118 70.743 25.7651C71.2729 39.3185 62.7328 46.3806 54.8667 47.4489C47.7694 48.4128 37.776 44.0069 36.7155 29.6045C35.8467 17.8052 40.8593 8.94428 51.4118 7.43531Z" fill="#E9022C" stroke="#22093A" stroke-linecap="round" stroke-linejoin="round"/>
<path d="M53.51 17.7866C54.505 17.1827 56.217 19.669 56.4786 25.9465C56.7402 32.2239 55.6382 35.6511 54.548 36.2861C53.5644 36.859 52.0997 34.9924 51.7519 28.3304C51.4669 22.8726 52.0486 18.6736 53.51 17.7866Z" fill="#22093A" stroke="#22093A" stroke-linecap="round" stroke-linejoin="round"/>
<path d="M82.217 8.9863C67.7692 8.32753 63.1945 11.8662 64.1965 16.5701C65.7023 23.6386 74.8969 22.7753 74.8969 22.7753C74.8969 22.7753 68.4134 46.9079 78.0744 47.5566C90.1193 48.3654 84.7304 22.3519 84.7304 22.3519C84.7304 22.3519 98.7659 23.4833 98.4218 17.5743C98.1326 12.6091 91.8997 9.4278 82.217 8.9863Z" fill="#E9022C" stroke="#22093A" stroke-linecap="round" stroke-linejoin="round"/>
<path d="M30.6128 9.73696C26.3834 9.98009 24.179 14.8201 24.3905 25.307C23.1716 25.3039 21.8629 25.3702 20.4953 25.4755C20.1217 16.3595 18.3755 11.6017 13.5775 11.8778C8.96968 12.1427 6.75681 17.8434 7.46309 30.3815C8.16938 42.9195 10.3439 50.1988 16.3806 49.4339C19.3355 49.0597 20.2321 43.906 20.4857 37.024C21.1619 36.9652 21.8652 36.8823 22.6211 36.7525C23.5807 36.5878 24.4543 36.3934 25.2779 36.1802C26.4484 43.7506 28.8019 47.8777 33.4159 47.2931C37.3851 46.7903 37.6423 37.6706 37.6127 27.3118C37.5794 15.6079 36.0669 9.42321 30.6128 9.73696Z" fill="#E9022C" stroke="#22093A" stroke-linecap="round" stroke-linejoin="round"/>
<path d="M13.5477 15.604C11.5719 16.4359 10.012 21.7727 10.844 29.6073" stroke="white" stroke-linecap="round" stroke-linejoin="round"/>
<path d="M28.0018 18.5757C27.6869 21.0357 27.6869 23.5258 28.0018 25.9858" stroke="white" stroke-linecap="round" stroke-linejoin="round"/>
<path d="M41.6254 31.5146C41.1054 36.3836 45.2699 42.5316 53.6926 43.2999" stroke="white" stroke-linecap="round" stroke-linejoin="round"/>
<path d="M42.041 17.6986C43.0016 15.7 44.5214 14.023 46.4163 12.8711" stroke="white" stroke-linecap="round" stroke-linejoin="round"/>
<path d="M99.2867 42.1216C98.0981 42.7567 97.6494 44.235 98.2845 45.4235C98.3275 45.504 98.375 45.5821 98.4268 45.6572" stroke="white" stroke-linecap="round" stroke-linejoin="round"/>
<path d="M105.241 21.1172C105.144 25.1001 104.637 29.2182 103.613 30.4843" stroke="white" stroke-linecap="round" stroke-linejoin="round"/>
<path d="M104.955 14.46C105.1 15.5346 105.188 16.616 105.221 17.6999" stroke="white" stroke-linecap="round" stroke-linejoin="round"/>
<path d="M76.7742 30.4844C75.7343 36.7884 75.679 40.7343 78.3064 43.2996" stroke="white" stroke-linecap="round" stroke-linejoin="round"/>
<path d="M47.3556 36.7734C47.716 54.6911 32.2305 63.8806 22.0038 82.7964C13.7869 97.9947 12.2251 136.498 60.412 135.62C106.339 134.783 101.562 96.4381 95.4384 82.0673C91.8835 74.2142 85.7921 67.7839 78.1427 63.8095C70.4849 71.9892 66.7985 76.3473 66.7985 76.3473C66.7985 76.3473 75.3082 53.8506 47.3556 36.7734Z" fill="#22093A" stroke="#22093A" stroke-linecap="round" stroke-linejoin="round"/>
<path d="M47.3553 36.7734C47.7156 54.6911 31.2441 63.8806 21.0174 82.7964C12.8006 97.9947 11.2388 136.498 59.4257 135.62C105.352 134.783 100.576 96.4381 94.4521 82.0673C91.1203 74.3859 85.4009 67.9833 78.1425 63.8095C70.4846 71.9892 65.8122 76.3473 65.8122 76.3473C65.8122 76.3473 75.3079 53.8506 47.3553 36.7734Z" fill="#FCC707" stroke="#22093A" stroke-linecap="round" stroke-linejoin="round"/>
<path d="M78.286 94.5847C78.286 94.5847 78.8678 84.9378 73.8952 85.391C68.9225 85.8441 71.3505 96.4378 71.3505 96.4378" stroke="#22093A" stroke-linecap="round" stroke-linejoin="round"/>
<path d="M64.1228 97.2413C64.1228 97.2413 64.1216 86.4412 59.6601 87.2199C55.1986 87.9985 56.7737 97.4702 56.7737 97.4702" stroke="#22093A" stroke-linecap="round" stroke-linejoin="round"/>
<path d="M84.7358 101.34C80.2384 104.518 75.2782 106.985 70.0297 108.653C55.1152 112.757 48.8906 106.775 48.8906 106.775C48.8906 106.775 51.0952 125.138 65.2414 122.273C72.6006 120.782 75.6458 115.986 75.3109 107.32" fill="#22093A"/>
<path d="M84.7358 101.34C80.2384 104.518 75.2782 106.985 70.0297 108.653C55.1152 112.757 48.8906 106.775 48.8906 106.775C48.8906 106.775 51.0952 125.138 65.2414 122.273C72.6006 120.782 75.6458 115.986 75.3109 107.32" stroke="#22093A" stroke-linecap="round" stroke-linejoin="round"/>
<path d="M49.2116 95.29C49.2116 95.29 52.4415 102.733 48.325 106.917C45.6294 109.565 41.6267 110.376 38.1133 108.986" stroke="#22093A" stroke-linecap="round" stroke-linejoin="round"/>
<path d="M63.1172 121.703C66.7663 121.536 69.6535 119.849 69.5661 117.933C69.4787 116.018 66.4497 114.601 62.8006 114.767C59.1515 114.934 56.2642 116.621 56.3517 118.537C56.4391 120.452 59.4681 121.869 63.1172 121.703Z" fill="#FD32B0" stroke="#22093A" stroke-linecap="round" stroke-linejoin="round"/>
<path d="M22.0427 94.3403C20.1035 103.123 20.281 115.014 31.4335 124.405" stroke="white" stroke-linecap="round" stroke-linejoin="round"/>
<path d="M24.9333 85.3755C24.4262 86.5976 23.8323 88.119 23.2656 89.8675" stroke="white" stroke-linecap="round" stroke-linejoin="round"/>
<path d="M58.2695 51.4297C60.2788 54.5445 61.6546 58.0247 62.3182 61.6714" stroke="white" stroke-linecap="round" stroke-linejoin="round"/>
<path d="M53.4336 45.6572C54.3532 46.3028 55.1691 47.0848 55.8531 47.9762" stroke="white" stroke-linecap="round" stroke-linejoin="round"/>
<path d="M92.8656 109.441C91.6705 114.741 88.8233 119.524 84.7344 123.102L92.8656 109.441Z" fill="#FCC707"/>
<path d="M92.8656 109.441C91.6705 114.741 88.8233 119.524 84.7344 123.102" stroke="#22093A" stroke-linecap="round" stroke-linejoin="round"/>
<path d="M90.3863 61.8308C91.1167 63.3219 92.9176 63.9386 94.4088 63.2083C94.8075 63.013 95.158 62.7318 95.4351 62.3849C96.7961 60.4515 93.1956 51.4075 92.22 54.0066C91.25 56.5908 89.1223 59.1985 90.3863 61.8308Z" fill="#FCC707" stroke="#22093A" stroke-linecap="round" stroke-linejoin="round"/>
<path d="M23.0803 53.9804C21.8709 51.2603 15.8313 61.9176 20.1128 65.4351C21.6663 66.8048 24.0361 66.6558 25.4059 65.1023C25.9538 64.4809 26.2805 63.6956 26.335 62.869C26.5232 59.8432 24.7353 57.7029 23.0803 53.9804Z" fill="#EC6509" stroke="#22093A" stroke-linecap="round" stroke-linejoin="round"/>
<path d="M38.3711 106.678C42.8142 106.678 46.4161 103.076 46.4161 98.6333C46.4161 94.1902 42.8142 90.5884 38.3711 90.5884C33.928 90.5884 30.3262 94.1902 30.3262 98.6333C30.3262 103.076 33.928 106.678 38.3711 106.678Z" fill="#FF897D"/>
<path d="M52.6008 60.3063C53.4242 58.1286 58.614 66.1811 55.4274 69.1182C54.2753 70.2568 52.4184 70.2459 51.2797 69.0938C50.8243 68.633 50.5343 68.0344 50.4549 67.3914C50.1733 65.0372 51.4741 63.2865 52.6008 60.3063Z" fill="#EC6509" stroke="#22093A" stroke-linecap="round" stroke-linejoin="round"/>
<path d="M94.2529 77.3668C95.2492 75.1261 100.224 83.9051 96.6974 86.8027C95.4177 87.9311 93.4655 87.8084 92.3372 86.5286C91.8859 86.0168 91.6167 85.3699 91.5718 84.6889C91.4168 82.1964 92.8896 80.4333 94.2529 77.3668Z" fill="#EC6509" stroke="#22093A" stroke-linecap="round" stroke-linejoin="round"/>
<path d="M36.459 81.3464C37.022 82.4958 38.4101 82.9713 39.5595 82.4083C39.8669 82.2578 40.1371 82.041 40.3507 81.7736C41.3998 80.2833 38.6244 73.312 37.8725 75.3154C37.1248 77.3073 35.4847 79.3174 36.459 81.3464Z" fill="#FCC707" stroke="#22093A" stroke-linecap="round" stroke-linejoin="round"/>
</g>
<defs>
<clipPath id="clip0_5_10988">
<rect width="120" height="144.909" fill="white"/>
</clipPath>
</defs>
</svg>
