<svg width="120" height="120" viewBox="0 0 120 120" fill="none" xmlns="http://www.w3.org/2000/svg">
<path d="M104.668 64.3741C106.143 64.5502 108.904 68.8519 109.186 72.0477C110.379 85.5947 96.7968 89.6032 96.7968 89.6032C96.7968 89.6032 92.692 98.9008 79.2847 102.269C65.6065 105.705 54.6312 103.379 46.5842 88.8773C37.416 72.3555 48.8529 56.2607 51.4226 50.7922C53.9924 45.3236 53.8967 41.8302 51.4381 33.9916C48.9794 26.1529 50.1473 17.9252 56.8658 15.4006C61.3449 13.7176 68.2871 17.194 71.0883 28.3116C73.5844 38.2183 71.4594 44.8452 71.4594 44.8452C71.4594 44.8452 83.7575 35.6489 91.5496 38.7565C96.5775 40.7616 97.8557 46.2447 97.8557 46.2447C97.8557 46.2447 103.548 47.6372 106.056 54.4815C108.225 60.3995 104.668 64.3741 104.668 64.3741Z" fill="#22093A" stroke="#22093A" stroke-miterlimit="10" stroke-linecap="round" stroke-linejoin="round"/>
<path d="M97.8547 46.2446C99.6538 51.0324 97.0963 58.1444 87.4983 63.8884C78.7549 69.1211 71.4952 69.3199 69.2023 63.2179C65.8362 54.2598 79.3016 49.2001 79.3016 49.2001" fill="#22093A"/>
<path d="M97.8547 46.2446C99.6538 51.0324 97.0963 58.1444 87.4983 63.8884C78.7549 69.1211 71.4952 69.3199 69.2023 63.2179C65.8362 54.2598 79.3016 49.2001 79.3016 49.2001" stroke="#22093A" stroke-miterlimit="10" stroke-linecap="round" stroke-linejoin="round"/>
<path d="M104.668 64.374C104.668 64.374 97.4108 70.7931 93.138 74.7891C83.344 83.9486 72.6943 76.6321 79.8174 67.4109" fill="#22093A"/>
<path d="M104.668 64.374C104.668 64.374 97.4108 70.7931 93.138 74.7891C83.344 83.9486 72.6943 76.6321 79.8174 67.4109" stroke="#22093A" stroke-miterlimit="10" stroke-linecap="round" stroke-linejoin="round"/>
<path d="M97.0423 71.6875C94.8833 73.8529 87.6276 77.5842 88.068 82.9022C88.3419 86.2085 92.3053 91.2503 98.8153 88.8041" fill="#22093A"/>
<path d="M97.0423 71.6875C94.8833 73.8529 87.6276 77.5842 88.068 82.9022C88.3419 86.2085 92.3053 91.2503 98.8153 88.8041" stroke="#22093A" stroke-miterlimit="10" stroke-linecap="round" stroke-linejoin="round"/>
<path d="M103.775 64.3741C105.25 64.5502 108.011 68.8519 108.293 72.0476C109.487 85.5947 95.9043 89.6032 95.9043 89.6032C95.9043 89.6032 91.7994 98.9008 78.3921 102.269C64.7139 105.705 53.7386 103.379 45.6916 88.8773C36.5234 72.3555 47.9603 56.2607 50.5301 50.7922C53.0998 45.3236 53.0042 41.8302 50.5455 33.9916C48.0868 26.1529 49.2547 17.9252 55.9733 15.4006C60.4523 13.7176 67.3946 17.194 70.1957 28.3116C72.6918 38.2183 70.5668 44.8452 70.5668 44.8452C70.5668 44.8452 82.8649 35.6489 90.657 38.7565C95.6849 40.7616 96.9632 46.2447 96.9632 46.2447C96.9632 46.2447 102.655 47.6372 105.164 54.4815C107.333 60.3995 103.775 64.3741 103.775 64.3741Z" fill="#FCC707" stroke="#22093A" stroke-miterlimit="10" stroke-linecap="round" stroke-linejoin="round"/>
<path d="M96.9622 46.2446C98.7613 51.0324 96.2037 58.1444 86.6058 63.8884C77.8623 69.1211 70.6027 69.3199 68.3097 63.2179C64.9436 54.2598 78.409 49.2001 78.409 49.2001" stroke="#22093A" stroke-miterlimit="10" stroke-linecap="round" stroke-linejoin="round"/>
<path d="M103.776 64.374C103.776 64.374 96.5182 70.7931 92.2454 74.7891C82.4515 83.9486 71.8017 76.6321 78.9248 67.4109" stroke="#22093A" stroke-miterlimit="10" stroke-linecap="round" stroke-linejoin="round"/>
<path d="M96.104 71.2441C93.945 73.4096 86.7332 77.5844 87.1736 82.9024C87.4475 86.2088 91.4109 91.2506 97.9209 88.8043" stroke="#22093A" stroke-miterlimit="10" stroke-linecap="round" stroke-linejoin="round"/>
<path d="M55.6421 44.0913C55.5563 44.9974 55.4388 45.7296 55.332 46.2447" stroke="white" stroke-miterlimit="10" stroke-linecap="round" stroke-linejoin="round"/>
<path d="M56.2723 20.707C53.7945 21.2864 52.4755 26.1754 54.4166 32.4127C55.2837 35.1989 55.6442 37.8448 55.7395 40.1035" stroke="white" stroke-miterlimit="10" stroke-linecap="round" stroke-linejoin="round"/>
<path d="M81.7676 74.9932C85.7834 76.029 91.9353 70.5398 94.4986 67.8057" stroke="white" stroke-miterlimit="10" stroke-linecap="round" stroke-linejoin="round"/>
<path d="M95.8672 86.1082C99.1995 85.644 102.959 81.8638 102.959 81.8638" stroke="white" stroke-miterlimit="10" stroke-linecap="round" stroke-linejoin="round"/>
<path d="M83.5291 96.2656C81.4101 97.5345 78.6857 98.6487 75.2787 99.2482C66.6452 100.767 63.0566 99.2482 63.0566 99.2482" stroke="#22093A" stroke-miterlimit="10" stroke-linecap="round" stroke-linejoin="round"/>
<path d="M88.604 91.7529C88.2329 92.2758 87.7528 92.8552 87.1562 93.4561" stroke="#22093A" stroke-miterlimit="10" stroke-linecap="round" stroke-linejoin="round"/>
<path d="M77.4955 53.8145C73.3212 55.3942 69.2931 59.2417 71.4292 62.574" stroke="white" stroke-miterlimit="10" stroke-linecap="round" stroke-linejoin="round"/>
<path d="M24.9338 77.5091C30.3061 77.1467 38.5298 82.3026 38.0812 92.7589C37.6326 103.215 30.8845 108.139 25.0061 108.492C19.7021 108.811 12.5912 104.827 12.7005 93.6856C12.79 84.5582 17.0431 78.0413 24.9338 77.5091Z" fill="#22093A" stroke="#22093A" stroke-miterlimit="10" stroke-linecap="round" stroke-linejoin="round"/>
<path d="M25.8425 85.5961C26.6151 85.1909 27.7259 87.2052 27.5301 92.0491C27.3343 96.8931 26.3075 99.4636 25.4626 99.887C24.7003 100.269 23.7338 98.7461 23.8898 93.6013C24.0175 89.3864 24.7077 86.1913 25.8425 85.5961Z" fill="#22093A" stroke="#22093A" stroke-miterlimit="10" stroke-linecap="round" stroke-linejoin="round"/>
<path d="M41.9338 79.7789C37.1974 80.8736 36.0586 107.898 41.3106 109.32C47.4903 110.992 49.2078 98.5554 49.2078 98.5554C49.2078 98.5554 53.9066 108.693 56.696 109.145C64.1049 110.346 63.3002 101.224 55.8404 93.3467C55.8404 93.3467 67.561 84.0556 60.1792 80.3552C55.0674 77.7927 49.376 90.7935 49.376 90.7935C49.376 90.7935 48.555 78.2485 41.9338 79.7789Z" fill="#22093A" stroke="#22093A" stroke-miterlimit="10" stroke-linecap="round" stroke-linejoin="round"/>
<path d="M70.4306 77.0784C67.9056 77.3307 64.9383 78.9421 64.6421 89.7443C64.3777 99.3889 68.1592 99.4171 69.1265 99.3204C70.0938 99.2238 75.8186 99.145 75.7238 88.6367C75.6289 78.1284 74.172 76.7044 70.4306 77.0784Z" fill="#22093A" stroke="#22093A" stroke-miterlimit="10" stroke-linecap="round" stroke-linejoin="round"/>
<path d="M70.0632 109.851C72.5197 109.851 74.5111 107.86 74.5111 105.403C74.5111 102.946 72.5197 100.955 70.0632 100.955C67.6066 100.955 65.6152 102.946 65.6152 105.403C65.6152 107.86 67.6066 109.851 70.0632 109.851Z" fill="#22093A" stroke="#22093A" stroke-miterlimit="10" stroke-linecap="round" stroke-linejoin="round"/>
<path d="M22.9768 75.4827C28.349 75.1204 36.5728 80.2763 36.1242 90.7325C35.6756 101.189 28.9275 106.112 23.049 106.465C17.7451 106.784 10.6341 102.8 10.7434 91.6592C10.833 82.5319 15.0861 76.0149 22.9768 75.4827Z" fill="#35CCAD" stroke="#22093A" stroke-miterlimit="10" stroke-linecap="round" stroke-linejoin="round"/>
<path d="M23.8855 83.5697C24.6581 83.1645 25.7689 85.1788 25.5731 90.0228C25.3773 94.8668 24.3505 97.4372 23.5056 97.8607C22.7433 98.2427 21.7768 96.7198 21.9327 91.575C22.0605 87.36 22.7506 84.1649 23.8855 83.5697Z" fill="#22093A" stroke="#22093A" stroke-miterlimit="10" stroke-linecap="round" stroke-linejoin="round"/>
<path d="M39.9807 77.7491C35.2443 78.8438 34.1055 105.868 39.3575 107.29C45.5372 108.963 47.2547 96.5256 47.2547 96.5256C47.2547 96.5256 51.9534 106.663 54.7429 107.115C62.1518 108.316 61.3471 99.1942 53.8873 91.3169C53.8873 91.3169 65.6079 82.0258 58.2261 78.3254C53.1143 75.7629 47.4229 88.7637 47.4229 88.7637C47.4229 88.7637 46.6019 76.2187 39.9807 77.7491Z" fill="#35CCAD" stroke="#22093A" stroke-miterlimit="10" stroke-linecap="round" stroke-linejoin="round"/>
<path d="M68.0791 75.176C65.554 75.4284 62.5867 77.0398 62.2906 87.842C62.0261 97.4866 65.8077 97.5148 66.775 97.4181C67.7423 97.3214 73.4671 97.2426 73.3722 86.7344C73.2773 76.2261 71.8204 74.8021 68.0791 75.176Z" fill="#35CCAD" stroke="#22093A" stroke-miterlimit="10" stroke-linecap="round" stroke-linejoin="round"/>
<path d="M67.7116 107.949C70.1682 107.949 72.1596 105.957 72.1596 103.501C72.1596 101.044 70.1682 99.0527 67.7116 99.0527C65.2551 99.0527 63.2637 101.044 63.2637 103.501C63.2637 105.957 65.2551 107.949 67.7116 107.949Z" fill="#35CCAD" stroke="#22093A" stroke-miterlimit="10" stroke-linecap="round" stroke-linejoin="round"/>
<path d="M14.9336 97.9175C15.1814 98.6733 15.4912 99.3734 15.8784 99.9425" stroke="white" stroke-miterlimit="10" stroke-linecap="round" stroke-linejoin="round"/>
<path d="M21.916 78.353C18.1577 79.0932 12.8744 84.8321 14.1763 94.3256" stroke="white" stroke-miterlimit="10" stroke-linecap="round" stroke-linejoin="round"/>
<path d="M66.9164 101.792C65.736 102.233 65.4527 104.212 66.3888 104.997" stroke="white" stroke-miterlimit="10" stroke-linecap="round" stroke-linejoin="round"/>
<path d="M65.6661 82.7979C65.2008 85.7273 64.9471 89.444 65.5671 91.9239" stroke="white" stroke-miterlimit="10" stroke-linecap="round" stroke-linejoin="round"/>
<path d="M66.4627 79.1704C66.3465 79.5319 66.2235 79.9896 66.1016 80.519" stroke="white" stroke-miterlimit="10" stroke-linecap="round" stroke-linejoin="round"/>
<path d="M38.6754 95C38.4191 97.0194 39.3199 102.638 40.0889 103.839" stroke="white" stroke-miterlimit="10" stroke-linecap="round" stroke-linejoin="round"/>
<path d="M51.7324 86.3395C52.0929 85.3023 54.161 82.269 56.5895 80.7407" stroke="white" stroke-miterlimit="10" stroke-linecap="round" stroke-linejoin="round"/>
<path d="M32.7844 45.0337L31.024 48.5024L27.8047 50.0134L30.2946 52.0443L32.7844 54.9932L34.7707 51.3414L37.7642 50.0134L34.445 47.6013L32.7844 45.0337Z" fill="#FCC707"/>
<path d="M32.7839 61.7622C32.3921 61.7622 32.0669 61.4604 32.0361 61.0708C31.3125 51.7742 31.0232 51.4849 21.7266 50.7612C21.3362 50.7305 21.0352 50.4053 21.0352 50.0134C21.0352 49.6216 21.3362 49.2964 21.7266 49.2656C31.0232 48.542 31.3125 48.2527 32.0361 38.9561C32.0669 38.5657 32.3921 38.2646 32.7839 38.2646C33.1758 38.2646 33.501 38.5657 33.5317 38.9561C34.2554 48.2527 34.5447 48.542 43.8406 49.2656C44.231 49.2964 44.532 49.6216 44.532 50.0134C44.532 50.4053 44.231 50.7305 43.8406 50.7612C34.5447 51.4849 34.2554 51.7742 33.5317 61.0708C33.501 61.4604 33.1758 61.7622 32.7839 61.7622ZM27.8042 50.0134C30.8013 50.71 32.0874 51.9961 32.7839 54.9932C33.4812 51.9954 34.7659 50.71 37.7637 50.0134C34.7659 49.3169 33.4812 48.0315 32.7839 45.0337C32.0874 48.0308 30.8013 49.3169 27.8042 50.0134Z" fill="#22093A"/>
<path d="M95.6392 16.4146L93.4295 19.5762L89.793 22.2615L93.4295 24.7028L95.6392 28.1091L97.9199 24.7028L101.485 22.2615L97.4968 20.4129L95.6392 16.4146Z" fill="#FCC707"/>
<path d="M95.6396 35.1248C95.2485 35.1248 94.9219 34.8237 94.8926 34.4333C94.0972 24.2307 93.6694 23.8037 83.4668 23.009C83.0771 22.9783 82.7754 22.6531 82.7754 22.2612C82.7754 21.8694 83.0771 21.5442 83.4668 21.5134C93.6694 20.7195 94.0972 20.2925 94.8926 10.0898C94.9219 9.69946 95.2485 9.39844 95.6396 9.39844C96.0308 9.39844 96.3574 9.69946 96.3867 10.0906C97.1807 20.2925 97.6084 20.7195 107.811 21.5134C108.201 21.5442 108.502 21.8694 108.502 22.2612C108.502 22.6531 108.201 22.9783 107.811 23.009C97.6084 23.8037 97.1807 24.2307 96.3867 34.4326C96.3574 34.8237 96.0308 35.1248 95.6396 35.1248ZM89.7935 22.2612C93.4145 23.031 94.8691 24.4856 95.6396 28.1089C96.4087 24.4856 97.8633 23.031 101.486 22.2612C97.8633 21.4922 96.4087 20.0376 95.6396 16.4143C94.8691 20.0376 93.4145 21.4922 89.7935 22.2612Z" fill="#22093A"/>
<path d="M25.4094 25.8936L23.2422 28.0806L25.4094 30.2668L27.6147 28.0798L25.4094 25.8936Z" fill="#35CCAD"/>
<path d="M25.3979 35.7454C25.0061 35.7454 24.6809 35.4443 24.6501 35.054C24.2085 29.3857 24.092 29.2693 18.4246 28.8284C18.0334 28.7976 17.7324 28.4724 17.7324 28.0806C17.7324 27.6887 18.0334 27.3635 18.4238 27.3328C24.092 26.8911 24.2085 26.7747 24.6501 21.1064C24.6809 20.7161 25.0061 20.415 25.3979 20.415C25.7898 20.415 26.115 20.7161 26.1458 21.1072C26.5867 26.7747 26.7031 26.8911 32.3713 27.332C32.7625 27.3628 33.0635 27.688 33.0635 28.0798C33.0635 28.4717 32.7625 28.7969 32.3721 28.8276C26.7031 29.2693 26.5867 29.3857 26.1458 35.0532C26.115 35.4443 25.7898 35.7454 25.3979 35.7454ZM23.2417 28.0806C24.3513 28.4959 24.9973 29.1484 25.4089 30.2668C25.8323 29.1543 26.4937 28.4995 27.6143 28.0798C26.4937 27.6609 25.8323 27.0054 25.4089 25.8936C24.9973 27.012 24.3513 27.6646 23.2417 28.0806Z" fill="#22093A"/>
<path d="M25.3979 35.7454C25.0061 35.7454 24.6809 35.4443 24.6501 35.054C24.2085 29.3857 24.092 29.2693 18.4246 28.8284C18.0334 28.7976 17.7324 28.4724 17.7324 28.0806C17.7324 27.6887 18.0334 27.3635 18.4238 27.3328C24.092 26.8911 24.2085 26.7747 24.6501 21.1064C24.6809 20.7161 25.0061 20.415 25.3979 20.415C25.7898 20.415 26.115 20.7161 26.1458 21.1072C26.5867 26.7747 26.7031 26.8911 32.3713 27.332C32.7625 27.3628 33.0635 27.688 33.0635 28.0798C33.0635 28.4717 32.7625 28.7969 32.3721 28.8276C26.7031 29.2693 26.5867 29.3857 26.1458 35.0532C26.115 35.4443 25.7898 35.7454 25.3979 35.7454ZM23.2417 28.0806C24.3513 28.4959 24.9973 29.1484 25.4089 30.2668C25.8323 29.1543 26.4937 28.4995 27.6143 28.0798C26.4937 27.6609 25.8323 27.0054 25.4089 25.8936C24.9973 27.012 24.3513 27.6646 23.2417 28.0806Z" fill="#22093A"/>
</svg>
