<svg width="120" height="124" viewBox="0 0 120 124" fill="none" xmlns="http://www.w3.org/2000/svg">
<g clip-path="url(#clip0_5_10992)">
<path opacity="0.5" d="M112.292 75.718C110.929 75.0073 109.431 74.5951 107.896 74.5087C105.01 74.3012 102.18 75.38 100.164 77.4561C99.9451 77.2097 99.718 76.9775 99.4831 76.7595C102.066 70.0404 102.947 62.7868 102.047 55.6448C101.519 51.1349 100.159 46.7622 98.0356 42.7484C98.1356 42.6653 98.2356 42.5799 98.3342 42.4924C98.6066 42.8493 98.9019 43.1882 99.2183 43.5067C100.149 44.8476 101.476 45.8631 103.014 46.4107C107.486 47.9017 111.634 46.8439 114.11 43.5759C117.076 39.6598 116.877 33.5003 113.784 27.1385C116.701 24.2507 120.051 19.911 119.999 15.2491C119.947 12.1345 118.385 9.23931 115.811 7.48527C115.271 7.09593 114.686 6.77452 114.068 6.52831C112.41 5.62003 110.491 5.30869 108.631 5.64638C106.564 6.07891 104.643 7.03475 103.052 8.42237C102.572 7.8568 102.03 7.34814 101.434 6.90639C99.5083 4.61832 96.596 3.40135 93.615 3.63906C92.0779 3.7372 90.5974 4.25632 89.3355 5.1396C85.4592 2.09588 79.3674 1.29045 71.1645 2.74391C68.2814 3.13518 65.5795 4.37401 63.4016 6.30324C57.2252 0.521325 47.774 0.0521876 41.0555 5.19402C40.1851 4.51898 39.1882 4.02548 38.1236 3.74278C36.9903 3.31613 35.7761 3.14752 34.5694 3.24922C30.9873 3.54639 28.3128 5.74643 26.571 9.81771C25.2688 9.32219 23.8615 9.16773 22.4828 9.36901C21.2217 9.54985 20.0102 9.98395 18.9213 10.6452C18.68 10.4245 18.4343 10.2174 18.1843 10.0236C16.0939 7.4803 12.8204 6.2232 9.56501 6.71368C3.93216 7.6162 0.74722 13.572 1.81966 21.1937C2.65082 27.1237 5.30765 41.2868 12.2071 46.9167C13.7525 48.6746 15.777 49.9437 18.0327 50.5687C16.0757 55.9348 15.4129 61.6871 16.0982 67.3576C16.5382 70.8899 17.4199 74.353 18.7226 77.6656C16.8038 78.1493 14.9509 78.8644 13.2045 79.7951C5.16201 84.3224 5.58569 95.3093 6.79934 107.132C7.00706 110.034 7.86156 112.853 9.30022 115.382C13.05 122.489 20.2865 123.537 24.8821 123.537C26.1355 123.537 27.1918 123.459 27.9288 123.405C33.1014 123.226 38.0715 121.35 42.0734 118.068C45.5725 121.095 50.1455 122.582 54.7558 122.191C57.7039 122.016 60.5249 120.93 62.8292 119.082C63.6401 119.748 64.5171 120.328 65.4463 120.814C71.454 124.003 78.607 124.202 84.7825 121.351C85.977 120.807 87.1169 120.151 88.1866 119.391C88.9954 120.26 89.9664 120.962 91.045 121.458C93.0663 122.384 96.4292 123.011 100.956 120.718C108.92 116.677 116.373 99.9008 116.441 99.7345C118.537 94.579 120.115 86.6057 117.668 81.1001C116.645 78.6745 114.716 76.7436 112.292 75.718Z" fill="#231F20"/>
<path d="M110.679 74.1057C109.316 73.395 107.818 72.9828 106.283 72.8964C103.397 72.6889 100.567 73.7677 98.5511 75.8438C98.3319 75.5974 98.1048 75.3652 97.87 75.1472C100.453 68.4281 101.334 61.1745 100.434 54.0325C99.9058 49.5226 98.5455 45.1498 96.4224 41.1361C96.5224 41.053 96.6225 40.9676 96.721 40.8801C96.9934 41.237 97.2888 41.5759 97.6051 41.8944C98.5357 43.2353 99.8631 44.2508 101.401 44.7984C105.873 46.2894 110.021 45.2316 112.497 41.9636C115.463 38.0475 115.264 31.888 112.171 25.5262C115.088 22.6385 118.437 18.2987 118.386 13.6368C118.334 10.5222 116.772 7.62699 114.198 5.87298C113.658 5.48364 113.073 5.16223 112.454 4.91601C110.797 4.00773 108.877 3.69639 107.017 4.0341C104.951 4.46662 103.03 5.42245 101.439 6.81007C100.959 6.2445 100.416 5.73585 99.8206 5.29409C97.8951 3.00601 94.9828 1.78905 92.0017 2.02678C90.4646 2.12492 88.9841 2.64403 87.7223 3.5273C83.8459 0.483584 77.7541 -0.321848 69.5512 1.13161C66.6681 1.52287 63.9662 2.7617 61.7882 4.69094C55.6119 -1.09098 46.1607 -1.56012 39.4421 3.58173C38.5718 2.90668 37.5748 2.41319 36.5102 2.13048C35.3769 1.70384 34.1627 1.53523 32.956 1.63694C29.3739 1.93409 26.6994 4.13413 24.9576 8.20541C23.6554 7.70989 22.2482 7.55544 20.8695 7.75672C19.6084 7.93756 18.3969 8.37166 17.3079 9.03289C17.0667 8.81223 16.821 8.60506 16.5709 8.41136C14.4806 5.86804 11.2071 4.61093 7.95173 5.10138C2.31888 6.0039 -0.866051 11.9597 0.206377 19.5814C1.03755 25.5115 3.69436 39.6744 10.5938 45.3044C12.1393 47.0623 14.1638 48.3315 16.4194 48.9564C14.4624 54.3225 13.7996 60.0748 14.4849 65.7454C14.9249 69.2776 15.8066 72.7407 17.1093 76.0534C15.1905 76.5371 13.3376 77.2521 11.5912 78.1828C3.54872 82.7101 3.9724 93.6971 5.18605 105.52C5.39376 108.422 6.24826 111.241 7.68693 113.77C11.4368 120.877 18.6732 121.925 23.2689 121.925C24.5222 121.925 25.5785 121.847 26.3155 121.793C31.4882 121.613 36.4583 119.738 40.4602 116.456C43.9593 119.483 48.5323 120.969 53.1426 120.578C56.0907 120.403 58.9116 119.317 61.216 117.47C62.0269 118.135 62.9038 118.715 63.833 119.202C69.8408 122.391 76.9938 122.59 83.1692 119.739C84.3637 119.195 85.5036 118.539 86.5733 117.778C87.3821 118.647 88.3531 119.35 89.4317 119.846C91.453 120.772 94.8159 121.399 99.3425 119.105C107.307 115.065 114.76 98.2884 114.827 98.1222C116.924 92.9667 118.502 84.9933 116.054 79.4877C115.032 77.0622 113.103 75.1313 110.679 74.1057Z" fill="white"/>
<path d="M19.7844 43.978C23.7971 43.3935 24.1867 38.6297 25.3895 34.9852C27.2152 37.9663 28.7117 42.4275 32.6343 41.8135C37.1682 41.1039 39.4421 34.3625 39.9699 26.8989C40.5424 18.8014 39.225 6.70752 34.1736 7.1258C28.3498 7.60809 29.3444 24.9225 29.3444 24.9225C29.3444 24.9225 28.1926 13.6881 23.1316 14.4064C17.353 15.2266 19.0349 26.1748 19.0349 26.1748C19.0349 26.1748 16.6651 10.7172 10.3081 11.737C7.40259 12.2031 6.38669 16.2713 6.94959 20.2791C7.5586 24.6144 11.0596 45.2489 19.7844 43.978Z" fill="#22093A" stroke="#22093A" stroke-linecap="round" stroke-linejoin="round"/>
<path d="M50.7223 6.7429C56.3285 6.20398 65.0805 11.3497 64.923 22.2958C64.7655 33.2418 57.8567 38.5905 51.721 39.135C46.1849 39.6263 38.6313 35.6727 38.4136 24.0209C38.2352 14.475 42.4879 7.53445 50.7223 6.7429Z" fill="#22093A" stroke="#22093A" stroke-linecap="round" stroke-linejoin="round"/>
<path d="M51.9126 15.1709C52.7084 14.7242 53.9298 16.7972 53.8694 21.8677C53.8091 26.9382 52.812 29.6563 51.9412 30.1243C51.1556 30.5465 50.0997 28.9829 50.1094 23.5991C50.1174 19.1882 50.7438 15.827 51.9126 15.1709Z" fill="#22093A" stroke="#22093A" stroke-linecap="round" stroke-linejoin="round"/>
<path d="M93.8438 8.7189C86.8304 9.1425 83.4769 35.6408 88.4529 37.8986C94.3079 40.5552 98.0198 28.5054 98.0198 28.5054C98.0198 28.5054 100.377 38.9035 103.069 39.8022C110.219 42.1891 111.557 33.4274 105.436 24.4142C105.436 24.4142 117.835 15.0191 111.116 10.1585C106.463 6.79257 99.4405 20.839 99.4405 20.839C99.4405 20.839 100.656 8.30744 93.8438 8.7189Z" fill="#22093A" stroke="#22093A" stroke-linecap="round" stroke-linejoin="round"/>
<path d="M71.9937 7.753C64.7114 9.04261 64.2241 13.524 63.8039 22.7054C63.3859 31.8385 61.2001 37.3294 68.1905 38.7516C72.5552 39.6396 74.4635 26.0949 74.4635 26.0949C74.4635 26.0949 79.603 39.4453 85.213 37.2928C92.6564 34.4369 81.6474 23.1504 81.6474 23.1504C87.6586 23.1504 96.5826 3.3986 71.9937 7.753Z" fill="#22093A" stroke="#22093A" stroke-linecap="round" stroke-linejoin="round"/>
<path d="M73.8008 13.4256C73.8008 13.4256 78.0054 12.5246 77.6192 14.7985C77.2331 17.0725 73.8008 17.2441 73.8008 17.2441V13.4256Z" fill="#22093A" stroke="#22093A" stroke-linecap="round" stroke-linejoin="round"/>
<path d="M18.259 42.5534C22.2717 41.9689 22.6613 37.2051 23.8641 33.5606C25.6898 36.5417 27.1863 41.0028 31.1088 40.3889C35.6428 39.6792 37.9167 32.9379 38.4445 25.4743C39.017 17.3767 38.4406 6.47812 33.3891 6.89645C27.5653 7.37875 27.8191 23.4979 27.8191 23.4979C27.8191 23.4979 26.6672 12.2635 21.6062 12.9818C15.8276 13.802 17.5095 24.7502 17.5095 24.7502C17.5095 24.7502 15.1397 9.29255 8.78267 10.3123C5.8772 10.7784 4.8613 14.8466 5.42419 18.8545C6.03322 23.1897 9.53421 43.8243 18.259 42.5534Z" fill="#71C1F2" stroke="#22093A" stroke-linecap="round" stroke-linejoin="round"/>
<path d="M49.195 5.31809C54.8012 4.77917 63.5532 9.92493 63.3957 20.871C63.2382 31.817 56.3293 37.1657 50.1936 37.7102C44.6576 38.2015 37.1039 34.2478 36.8862 22.5961C36.7079 13.0502 40.9606 6.10965 49.195 5.31809Z" fill="#71C1F2" stroke="#22093A" stroke-linecap="round" stroke-linejoin="round"/>
<path d="M50.3872 13.7466C51.183 13.2999 52.4044 15.3729 52.344 20.4434C52.2837 25.5139 51.2867 28.232 50.4158 28.6999C49.6302 29.1221 48.5743 27.5586 48.5841 22.1747C48.592 17.7639 49.2184 14.4027 50.3872 13.7466Z" fill="#22093A" stroke="#22093A" stroke-linecap="round" stroke-linejoin="round"/>
<path d="M92.3165 7.29458C85.303 7.7182 81.9496 34.2165 86.9255 36.4743C92.7805 39.1309 96.4924 27.081 96.4924 27.081C96.4924 27.081 99.5117 37.8887 102.204 38.7874C109.353 41.1743 110.03 32.003 103.908 22.9898C103.908 22.9898 116.933 14.5925 110.215 9.73188C105.562 6.36599 97.9133 19.4145 97.9133 19.4145C97.9133 19.4145 99.1288 6.88312 92.3165 7.29458Z" fill="#71C1F2" stroke="#22093A" stroke-linecap="round" stroke-linejoin="round"/>
<path d="M70.4683 6.32819C63.1859 7.6178 62.6986 12.0992 62.2784 21.2806C61.8605 30.4137 62.2133 37.476 66.665 37.3268C71.1167 37.1775 72.938 24.6701 72.938 24.6701C72.938 24.6701 78.0776 38.0205 83.6875 35.868C91.131 33.0121 80.1219 21.7255 80.1219 21.7255C86.1331 21.7255 95.0571 1.97381 70.4683 6.32819Z" fill="#71C1F2" stroke="#22093A" stroke-linecap="round" stroke-linejoin="round"/>
<path d="M72.2754 12.0013C72.2754 12.0013 76.48 11.1003 76.0939 13.3742C75.7077 15.6482 72.2754 15.8198 72.2754 15.8198V12.0013Z" fill="#22093A" stroke="#22093A" stroke-linecap="round" stroke-linejoin="round"/>
<path d="M12.3457 32.8955C12.9539 34.0356 13.6776 35.1102 14.5054 36.1023" stroke="white" stroke-linecap="round" stroke-linejoin="round"/>
<path d="M10.1099 13.3921C8.14256 13.496 7.35384 17.6165 9.30914 24.6563C9.67277 25.9654 10.0435 27.2306 10.457 28.4469" stroke="white" stroke-linecap="round" stroke-linejoin="round"/>
<path d="M32.2824 11.0737C32.2824 11.0737 30.8932 14.4281 31.1874 15.6112" stroke="white" stroke-linecap="round" stroke-linejoin="round"/>
<path d="M40.0825 19.2007C39.0677 22.6507 40.2088 29.3589 43.3863 32.2559" stroke="white" stroke-linecap="round" stroke-linejoin="round"/>
<path d="M70.6132 9.13721C67.1809 10.1582 66.2942 10.5873 65.6875 15.611" stroke="white" stroke-linecap="round" stroke-linejoin="round"/>
<path d="M65.5342 18.356L65.457 19.7912" stroke="white" stroke-linecap="round" stroke-linejoin="round"/>
<path d="M92.6947 10.5874C91.5792 10.4729 89.87 12.1605 88.2969 19.6258" stroke="white" stroke-linecap="round" stroke-linejoin="round"/>
<path d="M65.2246 84.2661L66.6714 92.6112" stroke="#22093A" stroke-linecap="round" stroke-linejoin="round"/>
<path d="M61.8648 95.1767C38.378 100.913 21.9553 83.3601 19.7151 65.1081C17.475 46.8561 31.7443 29.3843 53.837 27.374" fill="#22093A"/>
<path d="M61.8648 95.1767C38.378 100.913 21.9553 83.3601 19.7151 65.1081C17.475 46.8561 31.7443 29.3843 53.837 27.374" stroke="#22093A" stroke-linecap="round" stroke-linejoin="round"/>
<path d="M95.1959 54.6609C97.6848 75.5571 84.07 92.1961 66.1897 94.3908C48.3093 96.5854 31.345 81.9525 29.1049 63.7005C27.0314 45.4707 39.967 28.949 58.1619 26.5882C76.0421 24.3936 93.021 36.4011 95.1959 54.6609Z" fill="#E6E7E8" stroke="#22093A" stroke-linecap="round" stroke-linejoin="round"/>
<path d="M58.2891 31.2935L59.3209 39.7" stroke="#22093A" stroke-linecap="round" stroke-linejoin="round"/>
<path d="M34.8652 63.0918L43.2718 62.0601" stroke="#22093A" stroke-linecap="round" stroke-linejoin="round"/>
<path d="M81.1914 57.4058L89.5979 56.374" stroke="#22093A" stroke-linecap="round" stroke-linejoin="round"/>
<path d="M63.2751 61.9813L60.0664 74.3037L56.6695 78.5382L56.5625 73.2568L60.3828 61.8276L63.2751 61.9813Z" fill="#22093A" stroke="#22093A" stroke-linecap="round" stroke-linejoin="round"/>
<path d="M59.1538 58.976L45.2451 48.4552L42.3965 43.832L47.4068 45.5057L60.2685 56.3036L59.1538 58.976Z" fill="#22093A" stroke="#22093A" stroke-linecap="round" stroke-linejoin="round"/>
<path d="M62.1724 62.776C64.1143 62.776 65.6886 61.2018 65.6886 59.2598C65.6886 57.3179 64.1143 55.7437 62.1724 55.7437C60.2305 55.7437 58.6562 57.3179 58.6562 59.2598C58.6562 61.2018 60.2305 62.776 62.1724 62.776Z" fill="white" stroke="#22093A" stroke-linecap="round" stroke-linejoin="round"/>
<path d="M71.7578 32.7661C71.7578 32.7661 80.9971 33.7629 85.6308 41.8786" stroke="white" stroke-linecap="round" stroke-linejoin="round"/>
<path d="M87.6016 45.189C88.0462 45.8211 88.4298 46.494 88.7473 47.1987" stroke="white" stroke-linecap="round" stroke-linejoin="round"/>
<path d="M91.665 62.623C91.3423 66.499 90.1939 70.2611 88.2969 73.6565" stroke="white" stroke-linecap="round" stroke-linejoin="round"/>
<path d="M16.0117 84.6755C11.4006 87.2719 9.57686 93.6818 10.8351 105.938C11.8973 116.286 19.4887 117.014 25.9244 116.539C33.1282 116.008 40.8568 112.485 40.0727 104.33C39.2566 95.8428 28.0548 97.5778 28.0548 97.5778C28.0548 97.5778 38.9277 94.6396 37.0308 86.9589C35.1765 79.4509 20.7501 82.0074 16.0117 84.6755Z" fill="#22093A" stroke="#22093A" stroke-linecap="round" stroke-linejoin="round"/>
<path d="M22.2168 89.5245C22.2168 89.5245 26.4854 88.1577 26.3188 90.5561C26.1521 92.9544 22.6094 93.4853 22.6094 93.4853L22.2168 89.5245Z" fill="#22093A" stroke="#22093A" stroke-linecap="round" stroke-linejoin="round"/>
<path d="M23.6738 104.188C23.6738 104.188 29.135 102.69 28.9682 105.088C28.8014 107.487 24.0664 108.149 24.0664 108.149L23.6738 104.188Z" fill="#22093A" stroke="#22093A" stroke-linecap="round" stroke-linejoin="round"/>
<path d="M42.8127 80.9786C35.378 82.2544 33.717 116.461 52.8272 115.32C67.2427 114.46 68.0969 80.7811 62.1756 80.1726C49.8577 78.9066 59.4521 103.075 52.704 103.158C49.1946 103.201 52.4804 79.3196 42.8127 80.9786Z" fill="#22093A" stroke="#22093A" stroke-linecap="round" stroke-linejoin="round"/>
<path d="M86.438 87.6039C86.4416 83.4935 84.0312 78.6503 75.0523 78.9551C66.2119 79.2552 60.3027 90.9717 69.1815 96.109C77.403 100.866 74.6939 106.386 71.1263 103.222C64.2636 97.136 56.9512 109.617 66.2908 114.544C75.6304 119.47 86.1996 114.039 87.6023 108.013C90.2592 96.5974 81.5334 94.4269 77.5226 92.4797C77.5226 92.4797 86.4325 93.8774 86.438 87.6039Z" fill="#22093A" stroke="#22093A" stroke-linecap="round" stroke-linejoin="round"/>
<path d="M106.825 78.5382C99.6293 78.0615 98.5087 96.2347 98.5087 96.2347C98.5087 96.2347 98.2128 76.8705 91.3722 78.0867C82.4122 79.6797 85.1436 95.3565 91.3693 102.01C87.0889 105.938 87.6214 119.141 96.9544 114.408C102.032 111.833 108.69 99.2151 109.94 96.1413C112.398 90.0977 114.068 79.018 106.825 78.5382Z" fill="#22093A" stroke="#22093A" stroke-linecap="round" stroke-linejoin="round"/>
<path d="M14.1745 82.7819C9.56348 85.3783 9.16987 92.73 10.4281 104.986C11.4903 115.334 17.6516 115.12 24.0873 114.646C31.2911 114.115 39.0196 110.591 38.2356 102.437C37.4195 93.9493 26.2177 95.6842 26.2177 95.6842C26.2177 95.6842 37.0905 92.7461 35.1936 85.0653C33.3394 77.5574 18.9129 80.1138 14.1745 82.7819Z" fill="#35CCAD" stroke="#22093A" stroke-linecap="round" stroke-linejoin="round"/>
<path d="M20.3809 87.631C20.3809 87.631 24.6495 86.2642 24.4828 88.6625C24.3161 91.0609 20.7735 91.5917 20.7735 91.5917L20.3809 87.631Z" fill="#22093A" stroke="#22093A" stroke-linecap="round" stroke-linejoin="round"/>
<path d="M21.8379 102.295C21.8379 102.295 27.2991 100.797 27.1323 103.195C26.9655 105.594 22.2304 106.256 22.2304 106.256L21.8379 102.295Z" fill="#22093A" stroke="#22093A" stroke-linecap="round" stroke-linejoin="round"/>
<path d="M41.5124 80.5674C34.1325 82.1293 33.8592 114.445 50.9896 113.427C65.4054 112.571 67.1693 80.6495 61.2481 80.0409C48.9302 78.775 57.6144 101.182 50.8664 101.265C47.3571 101.308 50.2186 78.7248 41.5124 80.5674Z" fill="#35CCAD" stroke="#22093A" stroke-linecap="round" stroke-linejoin="round"/>
<path d="M84.6001 85.7103C84.6037 81.6 82.1934 76.7567 73.2144 77.0615C64.374 77.3617 58.4648 89.0782 67.3436 94.2155C75.5651 98.9724 72.856 104.493 69.2884 101.329C62.4258 95.2425 55.1133 107.723 64.4529 112.65C73.7925 117.577 84.3617 112.146 85.7644 106.119C88.4213 94.7039 79.6955 92.5334 75.6847 90.5861C75.6848 90.5861 84.5946 91.9839 84.6001 85.7103Z" fill="#35CCAD" stroke="#22093A" stroke-linecap="round" stroke-linejoin="round"/>
<path d="M105.932 78.1623C98.7361 77.6857 96.6728 94.3412 96.6728 94.3412C96.6728 94.3412 96.3768 74.9769 89.5362 76.1932C80.5763 77.7862 83.3076 93.463 89.5334 100.116C88.5426 102.629 85.7854 117.247 95.1185 112.514C100.196 109.939 106.854 97.3215 108.104 94.2478C110.562 88.2041 113.174 78.6421 105.932 78.1623Z" fill="#35CCAD" stroke="#22093A" stroke-linecap="round" stroke-linejoin="round"/>
<path d="M13.3047 104.257C13.4185 105.333 13.6082 106.4 13.8725 107.449" stroke="white" stroke-linecap="round" stroke-linejoin="round"/>
<path d="M18.7927 84.1665C17.0766 84.7386 13.0722 84.9102 12.8434 92.4041C12.7634 95.0236 12.8022 97.4333 12.9086 99.5357" stroke="white" stroke-linecap="round" stroke-linejoin="round"/>
<path d="M40.127 98.6348C40.127 98.6348 41.2139 105.328 45.2754 108.817" stroke="white" stroke-linecap="round" stroke-linejoin="round"/>
<path d="M73.7561 79.9893C70.6098 79.9893 65.5185 82.8495 65.9761 88.0552" stroke="white" stroke-linecap="round" stroke-linejoin="round"/>
<path d="M65.2852 102.545C63.3145 103.575 62.5519 106.007 63.5818 107.978C63.7404 108.282 63.9371 108.564 64.1671 108.817" stroke="white" stroke-linecap="round" stroke-linejoin="round"/>
<path d="M89.3196 78.9414C87.5677 79.3772 85.2264 83.1527 87.0314 89.9602" stroke="white" stroke-linecap="round" stroke-linejoin="round"/>
</g>
<defs>
<clipPath id="clip0_5_10992">
<rect width="120" height="123.537" fill="white"/>
</clipPath>
</defs>
</svg>
