<svg width="120" height="125" viewBox="0 0 120 125" fill="none" xmlns="http://www.w3.org/2000/svg">
<g clip-path="url(#clip0_5_10998)">
<path opacity="0.5" d="M113.133 41.2245C118.067 31.1905 122.19 19.3339 118.705 12.4001C117.829 9.94473 116.027 7.92985 113.684 6.78715C111.388 5.68648 108.738 5.59218 106.369 6.5269C103.887 7.48145 101.722 9.11459 100.123 11.24C99.9464 10.7639 99.7382 10.3 99.4999 9.85145C98.4743 6.84055 96.0433 4.52005 92.9879 3.63556C90.3318 2.89158 87.4812 3.40698 85.2538 5.03392C83.9876 5.94358 80.7308 8.27933 78.7515 18.1363C78.4219 18.0808 78.0858 18.0351 77.7431 17.9993C75.7478 17.7949 73.7405 18.2506 72.029 19.2965C70.5687 18.4495 68.915 17.9926 67.227 17.9698C64.0142 17.8858 60.6595 19.7916 57.4516 23.613C54.4038 27.2744 52.1712 31.5433 50.9026 36.1352C50.8257 33.6261 50.3683 31.1433 49.5461 28.7715C49.6604 28.4966 49.7621 28.2162 49.8513 27.9304C52.0133 21.0496 51.7946 14.2953 49.2671 9.86196C48.0354 7.63643 46.0599 5.91516 43.6868 4.99957C42.0564 3.99117 40.1816 3.44728 38.2647 3.42663C36.7587 3.39429 35.2715 3.76526 33.9571 4.50109C33.0096 3.90141 31.9544 3.49186 30.8504 3.29528C29.3225 3.01717 27.7475 3.1671 26.2996 3.7285C25.6452 3.28698 24.9429 2.92108 24.2061 2.63781C21.5155 0.963956 18.2242 0.560448 15.209 1.53478C11.3794 2.66962 8.66923 6.51875 7.77344 12.095C7.10824 16.0429 7.47069 20.0955 8.82587 23.8627C6.89868 26.5356 5.71771 29.6733 5.40424 32.9535C4.44452 39.0819 6.12659 45.3299 10.0333 50.1481C3.40218 53.9409 2.23719 59.1656 2.30736 62.575C2.37889 65.3499 3.3175 68.0328 4.99146 70.2471C3.10479 72.6614 1.94102 75.5609 1.63507 78.6096C0.830718 83.5339 1.76221 88.5847 4.27023 92.8982C2.19721 98.4052 1.46018 104.326 2.11968 110.173C2.78782 114.047 5.49166 117.261 9.19464 118.582C12.4821 120.185 15.9974 121.271 19.6162 121.8C21.3996 122.181 23.4082 122.61 25.6518 123.156C27.8371 123.72 30.0816 124.023 32.3384 124.058C34.9631 124.154 37.555 123.45 39.7707 122.039C42.4334 120.187 44.1541 117.264 44.4813 114.037C44.7669 112.113 45.0247 105.642 36.6623 102.076C36.3344 101.893 36.0015 101.72 35.6637 101.557C37.6944 101.08 39.5803 100.121 41.1621 98.7606C41.33 99.43 41.572 100.079 41.8837 100.694C42.861 103.127 44.5726 105.195 46.7804 106.61C46.4114 107.131 46.096 107.688 45.8389 108.273C44.7289 110.825 44.8497 113.746 46.1669 116.199C46.7687 117.763 47.6825 119.188 48.8526 120.388C51.134 123.13 54.6603 124.512 58.1972 124.052C59.2728 123.883 60.3124 123.535 61.2729 123.023C61.9846 123.495 62.7533 123.875 63.5605 124.154C64.5975 124.513 65.6873 124.697 66.7847 124.696C69.0678 124.653 71.2894 123.95 73.1809 122.671C77.3401 120.026 78.9375 115.821 77.5179 111.751C82.4162 110.965 87.7061 109.28 90.059 105.717C90.9246 104.43 91.3818 102.911 91.3708 101.359L95.5936 73.9943C101.006 73.527 106.137 71.381 110.271 67.8559C114.483 63.867 116.82 58.2889 116.711 52.4888C116.782 49.8805 116.249 47.2911 115.153 44.9235C114.66 43.6002 113.979 42.3545 113.133 41.2245Z" fill="#231F20"/>
<path d="M111.732 40.1987C116.666 30.1647 120.79 18.3081 117.304 11.3743C116.429 8.91886 114.627 6.90399 112.284 5.76128C109.988 4.66062 107.337 4.56631 104.969 5.50103C102.486 6.45558 100.322 8.08872 98.7228 10.2141C98.546 9.73801 98.3378 9.27414 98.0996 8.82558C97.0739 5.81468 94.6429 3.49418 91.5875 2.60969C88.9314 1.86572 86.0808 2.38112 83.8534 4.00805C82.5872 4.91771 79.3304 7.25345 77.3511 17.1104C77.0215 17.0549 76.6854 17.0093 76.3428 16.9734C74.3474 16.7691 72.3401 17.2248 70.6286 18.2706C69.1683 17.4236 67.5146 16.9668 65.8266 16.9441C62.6138 16.86 59.2591 18.7658 56.0512 22.5872C53.0034 26.2487 50.7709 30.5175 49.5022 35.1094C49.4253 32.6004 48.968 30.1175 48.1458 27.7458C48.26 27.4708 48.3617 27.1904 48.4509 26.9046C50.6129 20.0239 50.3942 13.2695 47.8667 8.83619C46.635 6.61066 44.6596 4.88938 42.2864 3.97378C40.6561 2.96539 38.7812 2.4215 36.8643 2.40084C35.3583 2.3685 33.8711 2.73947 32.5567 3.4753C31.6092 2.87563 30.554 2.46608 29.45 2.26949C27.9222 1.99139 26.3472 2.14132 24.8992 2.70271C24.2449 2.26116 23.5425 1.89523 22.8057 1.61193C20.1151 -0.0619248 16.8238 -0.465434 13.8086 0.508912C9.97906 1.64375 7.26884 5.49287 6.37306 11.0691C5.70786 15.0169 6.0703 19.0696 7.42549 22.8368C5.49828 25.5097 4.31731 28.6474 4.00386 31.9277C3.04411 38.0561 4.72618 44.3041 8.63293 49.1224C2.00179 52.9152 0.836801 58.1399 0.906977 61.5493C0.978504 64.3242 1.91711 67.0071 3.59108 69.2214C1.70443 71.6356 0.540665 74.535 0.234681 77.5837C-0.569674 82.508 0.361807 87.5588 2.86981 91.8723C0.796803 97.3793 0.0597847 103.3 0.719291 109.147C1.38741 113.021 4.09125 116.235 7.79426 117.557C11.0817 119.159 14.597 120.245 18.2158 120.774C19.9992 121.155 22.0078 121.584 24.2514 122.13C26.4367 122.694 28.6813 122.997 30.9381 123.032C33.5628 123.128 36.1547 122.424 38.3703 121.013C41.0331 119.161 42.7537 116.238 43.081 113.011C43.3666 111.087 43.6243 104.617 35.262 101.05C34.934 100.867 34.6012 100.694 34.2634 100.532C36.2941 100.054 38.18 99.0947 39.7618 97.7346C39.9296 98.404 40.1717 99.0526 40.4834 99.6684C41.4607 102.102 43.1723 104.169 45.38 105.584C45.0111 106.105 44.6957 106.662 44.4386 107.247C43.3286 109.8 43.4494 112.72 44.7665 115.173C45.3684 116.737 46.2822 118.162 47.4523 119.362C49.7336 122.104 53.26 123.486 56.7969 123.026C57.8724 122.857 58.9121 122.51 59.8726 121.997C60.5843 122.469 61.3529 122.849 62.1602 123.128C63.1971 123.487 64.2869 123.671 65.3844 123.67C67.6674 123.627 69.8891 122.924 71.7806 121.645C75.9397 119 77.5371 114.795 76.1176 110.725C81.0159 109.939 86.3058 108.254 88.6587 104.691C89.5243 103.404 89.9815 101.885 89.9705 100.333L94.1933 72.9684C99.6056 72.5011 104.737 70.3551 108.87 66.83C113.082 62.8411 115.42 57.263 115.31 51.4629C115.382 48.8547 114.849 46.2653 113.752 43.8977C113.259 42.5744 112.579 41.3286 111.732 40.1987Z" fill="white"/>
<path d="M17.2401 7.01364C13.0446 8.25683 11.9228 21.7551 17.3575 25.1899C21.4411 27.7709 40.4966 32.6128 42.8386 25.1575C45.1806 17.7022 44.2796 9.23993 38.5416 9.14585C34.3492 9.07709 33.3169 18.4881 33.3169 18.4881C33.3169 18.4881 34.4837 9.68807 30.1934 8.92413C25.9032 8.16018 25.7139 17.4625 25.7139 17.4625C25.7139 17.4625 24.9343 4.7337 17.2401 7.01364Z" fill="#22093A" stroke="#22093A" stroke-linecap="round" stroke-linejoin="round"/>
<path d="M11.2323 72.9181C6.97475 74.1797 5.83624 87.8779 11.3514 91.3637C15.4956 93.9829 34.8333 98.8965 37.21 91.3307C39.5867 83.765 38.6724 75.1774 32.8493 75.0818C28.5948 75.0121 27.5472 84.5625 27.5472 84.5625C27.5472 84.5625 28.7313 75.6321 24.3775 74.8568C20.0237 74.0816 19.8316 83.5218 19.8316 83.5218C19.8316 83.5218 19.0405 70.6044 11.2323 72.9181Z" fill="#22093A" stroke="#22093A" stroke-linecap="round" stroke-linejoin="round"/>
<path d="M31.9224 51.2036C27.8439 51.2429 8.31796 52.1223 8.52507 62.3287C8.63279 67.6411 14.6237 71.2761 21.4623 73.0175C28.8816 74.9068 39.9616 75.6294 40.223 71.4326C40.4303 68.104 35.8203 66.0177 31.0999 64.7568C31.1347 64.5819 31.5544 61.9698 31.5544 61.9698C36.0371 61.0676 41.5687 59.4109 40.8553 56.3601C40.0889 53.0825 35.6927 51.1674 31.9224 51.2036ZM26.274 63.7529C24.6376 63.3885 22.9756 63.1497 21.3028 63.0388C21.3028 63.0388 22.9084 62.7679 26.4947 62.3255L26.274 63.7529Z" fill="#22093A" stroke="#22093A" stroke-linecap="round" stroke-linejoin="round"/>
<path d="M23.8501 28.5172C25.418 25.8445 13.411 19.7483 11.5719 33.5947C9.12605 52.0097 32.3659 57.6502 40.5239 47.486C46.0172 40.6417 44.3731 20.2806 34.496 26.893C30.5574 29.5298 33.7683 33.8265 33.0614 37.6963C31.9353 43.8611 25.4929 44.0703 22.6565 39.7063C20.2893 36.0641 20.952 33.4573 23.8501 28.5172Z" fill="#22093A" stroke="#22093A" stroke-linecap="round" stroke-linejoin="round"/>
<path d="M8.2517 109.043C9.08171 113.823 14.6266 113.784 25.6009 116.453C34.8663 118.707 36.7794 115.438 37.2643 112.16C38.2331 105.61 25.5667 104.724 25.5667 104.724C25.5667 104.724 31.9601 91.4872 17.3978 89.1321C9.2195 87.8095 7.39877 104.132 8.2517 109.043Z" fill="#22093A" stroke="#22093A" stroke-linecap="round" stroke-linejoin="round"/>
<path d="M15.3066 102.795C15.3066 102.795 15.434 98.6886 17.455 99.5677C19.4759 100.447 18.8488 103.67 18.8488 103.67L15.3066 102.795Z" fill="#22093A" stroke="#22093A" stroke-linecap="round" stroke-linejoin="round"/>
<path d="M15.4354 6.12157C11.2399 7.36467 10.1181 20.863 15.5528 24.2979C19.6364 26.8788 38.6919 31.7207 41.0339 24.2654C43.3759 16.8101 42.4749 8.34785 36.7369 8.25376C32.5445 8.18502 31.5122 17.5961 31.5122 17.5961C31.5122 17.5961 32.679 8.796 28.3887 8.03204C24.0985 7.26808 23.9092 16.5704 23.9092 16.5704C23.9092 16.5704 23.1297 3.84153 15.4354 6.12157Z" fill="#9736FF" stroke="#22093A" stroke-linecap="round" stroke-linejoin="round"/>
<path d="M9.42764 72.026C5.17007 73.2876 4.03155 86.9858 9.54677 90.4716C13.6909 93.0907 33.0286 98.0044 35.4053 90.4386C37.7821 82.8729 36.8677 74.2852 31.0447 74.1897C26.7901 74.12 25.7425 83.6704 25.7425 83.6704C25.7425 83.6704 26.9266 74.74 22.5728 73.9647C18.219 73.1895 18.027 82.6296 18.027 82.6296C18.027 82.6296 17.2359 69.7123 9.42764 72.026Z" fill="#9736FF" stroke="#22093A" stroke-linecap="round" stroke-linejoin="round"/>
<path d="M30.1177 50.312C26.0392 50.3513 6.51327 51.2308 6.72039 61.4371C6.8281 66.7495 12.8189 70.3846 19.6576 72.1259C27.0769 74.0152 38.1569 74.7379 38.4183 70.541C38.6256 67.2125 34.0156 65.1261 29.2952 63.8652C29.33 63.6903 29.7497 61.0783 29.7497 61.0783C34.2324 60.176 39.764 58.5193 39.0506 55.4686C38.2842 52.1909 33.888 50.2758 30.1177 50.312ZM24.4693 62.8613C22.8329 62.4969 21.171 62.2581 19.4981 62.1472C19.4981 62.1472 21.1038 61.8763 24.69 61.4339L24.4693 62.8613Z" fill="#9736FF" stroke="#22093A" stroke-linecap="round" stroke-linejoin="round"/>
<path d="M22.0454 27.6256C23.6133 24.9529 11.6063 18.8567 9.76724 32.7031C7.32138 51.1181 30.5612 56.7586 38.7192 46.5944C44.2126 39.7501 42.5684 19.389 32.6914 26.0013C28.7527 28.6381 31.9637 32.9348 31.2567 36.8046C30.1306 42.9694 23.6882 43.1787 20.8518 38.8147C18.4846 35.1724 19.1473 32.5656 22.0454 27.6256Z" fill="#9736FF" stroke="#22093A" stroke-linecap="round" stroke-linejoin="round"/>
<path d="M6.44701 108.151C7.277 112.931 12.8219 112.892 23.7962 115.561C33.0616 117.814 34.9747 114.546 35.4596 111.268C36.4284 104.718 23.762 103.832 23.762 103.832C23.762 103.832 30.1554 90.5951 15.5931 88.24C7.4148 86.9174 5.59408 103.24 6.44701 108.151Z" fill="#9736FF" stroke="#22093A" stroke-linecap="round" stroke-linejoin="round"/>
<path d="M13.502 101.903C13.502 101.903 13.6293 97.7965 15.6503 98.6756C17.6712 99.5547 17.0441 102.778 17.0441 102.778L13.502 101.903Z" fill="#22093A" stroke="#22093A" stroke-linecap="round" stroke-linejoin="round"/>
<path d="M10.7285 96.574C11.2679 94.1678 13.0919 91.3393 15.3207 91.8219" stroke="#D9BBFF" stroke-linecap="round" stroke-linejoin="round"/>
<path d="M13.0082 57.3594C11.3877 58.3914 10.2896 60.0708 9.99414 61.9692" stroke="#D9BBFF" stroke-linecap="round" stroke-linejoin="round"/>
<path d="M18.9418 54.9609C17.809 55.1822 16.7002 55.5123 15.6309 55.9466" stroke="#D9BBFF" stroke-linecap="round" stroke-linejoin="round"/>
<path d="M12.3164 33.9424C12.0098 36.6293 12.685 39.3365 14.2174 41.5647" stroke="#D9BBFF" stroke-linecap="round" stroke-linejoin="round"/>
<path d="M13.6783 28.728C13.309 29.6232 13.0008 30.5424 12.7559 31.4793" stroke="#D9BBFF" stroke-linecap="round" stroke-linejoin="round"/>
<path d="M16.4067 9.26758C14.7887 10.1692 14.5032 13.6907 14.5984 16.5459" stroke="#D9BBFF" stroke-linecap="round" stroke-linejoin="round"/>
<path d="M27.0547 90.3346C29.1592 90.2393 32.6807 89.8981 33.2517 85.7466" stroke="#D9BBFF" stroke-linecap="round" stroke-linejoin="round"/>
<path d="M9.8717 99.189L9.40234 101.255" stroke="#D9BBFF" stroke-linecap="round" stroke-linejoin="round"/>
<path d="M104.129 42.0852L104.143 42.0823C104.143 42.0823 118.517 16.2083 110.19 12.1607C102.359 8.35366 90.5209 40.5026 90.5209 40.5026C90.5209 40.5026 98.3886 11.5261 90.5209 9.39489C82.6532 7.26367 82.1724 32.5959 82.1724 32.5959L82.1693 32.6149C82.3358 27.062 80.5769 24.386 76.2012 23.9309C72.7367 23.5706 70.4709 29.1651 70.4709 29.1651C70.4709 29.1651 70.344 24.0264 66.1563 23.9309C61.9686 23.8353 53.6763 36.1446 55.2211 43.8854C55.2884 44.2229 55.3794 44.5366 55.4671 44.8534L55.4603 44.852C55.4603 44.852 53.5933 52.5146 57.2734 58.7057C59.5043 62.4588 61.8619 62.8461 61.8619 62.8461L46.459 95.2386L46.4666 95.2338C43.9024 97.834 48.6424 102.549 58.5236 104.618L58.3575 106.066C58.3575 106.066 45.4798 108.797 51.6697 115.352C56.7658 120.748 60.3178 113.172 60.3178 113.172C60.3178 113.172 62.5759 120.554 68.6099 116.715C74.7774 112.792 65.6488 107.863 65.6488 107.863L66.399 105.543C75.3467 105.739 85.6026 103.368 83.8984 99.6018C84.0253 99.7535 84.0948 99.8468 84.0948 99.8468L89.1166 67.3115C89.1166 67.3115 109.175 68.7577 109.429 51.3812C109.753 47.485 107.647 43.7908 104.129 42.0852ZM80.0487 45.66L79.7793 47.3172L79.7823 47.3166C79.5785 47.7112 79.4482 48.1395 79.398 48.5808C79.3583 48.991 79.3776 49.4049 79.4554 49.8097L78.5905 49.631C79.1878 48.3509 79.6756 47.0225 80.0486 45.66H80.0487ZM67.0446 91.8255C70.9086 92.2569 74.6606 93.394 78.114 95.1804C74.6413 93.4421 70.898 92.3076 67.0446 91.8255ZM67.5522 46.4235C67.5522 46.4235 67.6121 46.81 67.7521 47.3917L67.0905 47.255C67.2465 46.9845 67.4064 46.7252 67.5522 46.4235H67.5522Z" fill="#22093A" stroke="#22093A" stroke-linecap="round" stroke-linejoin="round"/>
<path d="M103.647 40.9475C103.647 40.9475 118.021 15.0735 109.694 11.0258C101.863 7.21888 90.025 39.3678 90.025 39.3678C90.025 39.3678 97.8928 10.3913 90.025 8.26012C82.1573 6.1289 81.6763 31.4611 81.6763 31.4611L79.2832 46.1824" fill="#FCC707"/>
<path d="M103.647 40.9475C103.647 40.9475 118.021 15.0735 109.694 11.0258C101.863 7.21888 90.025 39.3678 90.025 39.3678C90.025 39.3678 97.8928 10.3913 90.025 8.26012C82.1573 6.1289 81.6763 31.4611 81.6763 31.4611L79.2832 46.1824" stroke="#22093A" stroke-linecap="round" stroke-linejoin="round"/>
<path d="M54.9641 43.7169C54.9641 43.7169 53.0972 51.3796 56.7773 57.5707C59.0082 61.3238 61.3659 61.711 61.3659 61.711L45.9629 94.1035C45.9629 94.1035 53.5712 89.0635 66.5485 90.6906C78.9017 92.2395 83.5986 98.712 83.5986 98.712L88.6205 66.1765C88.6205 66.1765 108.679 67.6227 108.933 50.2462C109.187 32.8697 79.6192 39.7049 78.9018 47.4458C78.1844 55.1866 95.7353 52.1409 95.7353 52.1409" fill="#FCC707"/>
<path d="M54.9641 43.7169C54.9641 43.7169 53.0972 51.3796 56.7773 57.5707C59.0082 61.3238 61.3659 61.711 61.3659 61.711L45.9629 94.1035C45.9629 94.1035 53.5712 89.0635 66.5485 90.6906C78.9017 92.2395 83.5986 98.712 83.5986 98.712L88.6205 66.1765C88.6205 66.1765 108.679 67.6227 108.933 50.2462C109.187 32.8697 79.6192 39.7049 78.9018 47.4458C78.1844 55.1866 95.7353 52.1409 95.7353 52.1409" stroke="#22093A" stroke-linecap="round" stroke-linejoin="round"/>
<path d="M67.0556 45.2885C63.3755 52.9025 56.2692 50.4914 54.7245 42.7505C53.1797 35.0097 61.472 22.7005 65.6597 22.796C69.8474 22.8915 69.9743 28.0302 69.9743 28.0302C69.9743 28.0302 72.2401 22.4357 75.7046 22.796C80.8876 23.335 82.4104 26.9736 81.3952 34.8414C80.38 42.7091 78.3715 52.7869 73.0304 52.7869C68.1596 52.7869 67.0556 45.2885 67.0556 45.2885Z" fill="#FCC707" stroke="#22093A" stroke-linecap="round" stroke-linejoin="round"/>
<path d="M82.9074 97.6978C86.962 102.465 72.2581 105.312 62.2212 104.17C47.6522 102.512 41.3074 95.294 47.8464 93.0026C53.7374 90.4835 60.2206 89.682 66.5477 90.6906C77.7935 92.2094 82.9074 97.6978 82.9074 97.6978Z" fill="#CC9C05" stroke="#22093A" stroke-linecap="round" stroke-linejoin="round"/>
<path d="M58.8659 96.175L57.861 104.931C57.861 104.931 44.9833 107.662 51.1731 114.217C56.2693 119.614 59.8212 112.037 59.8212 112.037C59.8212 112.037 62.0794 119.419 68.1133 115.581C74.2809 111.657 65.1522 106.728 65.1522 106.728L68.1133 97.571C68.1133 97.571 68.6322 96.1257 64.437 95.5406C62.5594 95.1616 60.6102 95.3836 58.8659 96.175Z" fill="#F1F2F2" stroke="#22093A" stroke-linecap="round" stroke-linejoin="round"/>
<path d="M69.9743 28.0303L68.1133 38.3091" stroke="#22093A" stroke-linecap="round" stroke-linejoin="round"/>
<path d="M65.6125 26.4922C63.5187 26.3019 59.331 33.0592 58.0938 37.2469" stroke="white" stroke-linecap="round" stroke-linejoin="round"/>
<path d="M75.9865 26.4883C73.6025 26.4883 72.5805 30.6566 71.7988 36.4373" stroke="white" stroke-linecap="round" stroke-linejoin="round"/>
<path d="M89.6911 23.9639C89.6013 24.6014 89.6107 24.497 89.498 25.1531" stroke="white" stroke-linecap="round" stroke-linejoin="round"/>
<path d="M88.9297 11.3848C90.6833 11.3848 90.6184 15.5191 90.0589 20.9108" stroke="white" stroke-linecap="round" stroke-linejoin="round"/>
<path d="M108.441 13.6904C109.63 14.0711 109.773 18.3064 107.441 24.3351" stroke="white" stroke-linecap="round" stroke-linejoin="round"/>
<path d="M55.9712 81.1328C55.3993 82.3596 55.0469 83.111 55.0469 83.111" stroke="white" stroke-linecap="round" stroke-linejoin="round"/>
<path d="M61.8518 68.3208C60.6025 71.1061 59.1682 74.2332 57.9395 76.8922" stroke="white" stroke-linecap="round" stroke-linejoin="round"/>
</g>
<defs>
<clipPath id="clip0_5_10998">
<rect width="120" height="124.697" fill="white"/>
</clipPath>
</defs>
</svg>
