<svg width="120" height="120" viewBox="0 0 120 120" fill="none" xmlns="http://www.w3.org/2000/svg">
<path d="M109.096 11.3903C103.583 10.2664 100.24 22.9271 100.24 22.9271C100.24 22.9271 102.043 7.92449 96.6269 8.14673C95.4046 8.17148 94.2376 8.66139 93.364 9.51663C90.8008 7.91609 87.8965 6.94223 84.8866 6.67401C77.7466 5.71875 73.9151 6.52469 72.3956 8.25668C70.8876 5.79068 66.9523 4.23968 58.9157 5.56137C52.5088 6.61514 52.0328 10.544 51.5651 18.5997C51.5483 18.8904 51.5346 19.1731 51.5197 19.4588C50.1461 13.3704 47.0897 5.00382 40.8136 5.78192C37.6771 6.17084 35.4721 8.88593 34.1123 12.5079C34.0478 12.2761 33.989 12.0483 33.9123 11.8075C31.653 4.72137 17.8428 9.88649 14.2558 12.5623C10.7651 15.1663 13.0461 19.591 15.3615 29.4625C17.3165 37.7968 20.7102 38.0026 23.5321 37.0608C29.1709 35.1788 24.7404 24.676 24.7404 24.676C27.5311 24.5748 30.2138 23.5718 32.3864 21.8173C32.0702 27.6823 32.8665 33.9523 35.8075 33.832C38.519 33.7212 39.9039 30.0357 40.6108 26.1245L43.2523 25.8085C44.4271 29.4713 46.1939 32.6736 48.6918 31.8104C50.0769 31.3388 51.2106 30.3242 51.8324 28.9997C52.3449 31.357 53.3686 32.7733 55.2432 32.7335C59.1529 32.6504 60.8864 21.6899 60.8864 21.6899C60.8864 21.6899 65.2546 33.4654 70.2026 31.6361C76.7679 29.2091 67.2247 19.1824 67.2247 19.1824C69.2979 19.2078 71.7914 16.5601 72.752 13.5535C74.7986 16.011 78.8383 15.9976 78.8383 15.9976C78.8383 15.9976 72.7406 32.7083 79.5514 33.7689C88.0429 35.0911 85.8381 16.3085 85.8381 16.3085C87.5914 16.5797 89.3674 16.6756 91.1397 16.5946C91.1492 20.1595 92.1813 23.6468 94.1135 26.6427C93.0837 28.4812 89.4173 39.494 97.1301 36.8145C101.326 35.3568 107.799 26.3002 109.088 24.0548C111.622 19.6402 114.646 12.5215 109.096 11.3903ZM41.1365 22.0172C41.3791 19.1179 41.3391 16.8261 41.3391 16.8261C41.3391 16.8261 41.6104 19.1028 42.2177 21.8878L41.1365 22.0172Z" fill="#22093A" stroke="#22093A" stroke-linecap="round" stroke-linejoin="round"/>
<path d="M13.7323 11.3742C10.2417 13.9782 12.5226 18.4029 14.8381 28.2744C16.793 36.6087 20.1868 36.8146 23.0087 35.8727C28.6475 33.9907 24.2169 23.4879 24.2169 23.4879C24.2169 23.4879 37.4116 23.2367 33.3888 10.6194C31.1296 3.53332 17.3194 8.69831 13.7323 11.3742Z" fill="#FD32B0" stroke="#22093A" stroke-linecap="round" stroke-linejoin="round"/>
<path d="M21.5996 14.4897C21.5996 14.4897 24.9401 12.9254 25.0561 14.9005C25.1721 16.8756 22.3364 17.6813 22.3364 17.6813L21.5996 14.4897Z" fill="#22093A" stroke="#22093A" stroke-linecap="round" stroke-linejoin="round"/>
<path d="M40.2915 4.59403C35.7357 5.15891 33.1443 10.6305 32.2556 16.6623C31.2916 23.2064 31.6554 32.7926 35.2853 32.6442C37.9968 32.5333 39.3817 28.8478 40.0886 24.9366L42.7302 24.6206C43.905 28.2834 45.6718 31.4857 48.1697 30.6225C50.9185 29.6724 52.2984 26.9495 51.932 23.7125C51.5357 20.211 49.0443 3.50887 40.2915 4.59403ZM40.6144 20.8292C40.857 17.9299 40.817 15.6382 40.817 15.6382C40.817 15.6382 41.0882 17.9149 41.6955 20.6998L40.6144 20.8292Z" fill="#FD32B0" stroke="#22093A" stroke-linecap="round" stroke-linejoin="round"/>
<path d="M58.3918 4.37325C51.9849 5.42699 51.5088 9.35585 51.0411 17.4116C50.5759 25.4248 50.8097 31.6286 54.7193 31.5453C58.629 31.4621 60.3625 20.5018 60.3625 20.5018C60.3625 20.5018 64.7307 32.2772 69.6788 30.448C76.2439 28.021 66.7008 17.9942 66.7008 17.9942C71.9779 18.0589 80.0248 0.815282 58.3918 4.37325Z" fill="#FD32B0" stroke="#22093A" stroke-linecap="round" stroke-linejoin="round"/>
<path d="M59.9181 9.37301C59.9181 9.37301 63.6189 8.62732 63.2554 10.6194C62.892 12.6115 59.877 12.7252 59.877 12.7252L59.9181 9.37301Z" fill="#22093A" stroke="#22093A" stroke-linecap="round" stroke-linejoin="round"/>
<path d="M84.3641 5.48591C74.1593 4.1207 70.6952 6.34583 71.1134 9.74392C71.7419 14.8502 78.316 14.8094 78.316 14.8094C78.316 14.8094 72.2182 31.5202 79.029 32.5807C87.5204 33.9029 85.3157 15.1204 85.3157 15.1204C85.3157 15.1204 95.1988 16.7951 95.322 12.5833C95.4256 9.04431 91.2033 6.40085 84.3641 5.48591Z" fill="#FD32B0" stroke="#22093A" stroke-linecap="round" stroke-linejoin="round"/>
<path d="M108.573 10.202C103.059 9.07815 99.7159 21.7389 99.7159 21.7389C99.7159 21.7389 101.52 6.73626 96.1032 6.9585C89.0085 7.24959 89.4747 19.6569 93.5898 25.4545C92.56 27.293 88.8938 38.3058 96.6065 35.6263C100.802 34.1686 107.275 25.1119 108.564 22.8666C111.099 18.4519 114.122 11.3333 108.573 10.202Z" fill="#FD32B0" stroke="#22093A" stroke-linecap="round" stroke-linejoin="round"/>
<path d="M40.2918 7.3291C38.3745 7.72783 36.0349 10.4689 35.1816 15.7914" stroke="white" stroke-linecap="round" stroke-linejoin="round"/>
<path d="M17.1113 27.168C18.0855 30.3503 19.3729 33.4747 20.6385 33.4747" stroke="white" stroke-linecap="round" stroke-linejoin="round"/>
<path d="M15.7402 21.9116C15.8794 22.5431 16.0668 23.3455 16.293 24.2323" stroke="white" stroke-linecap="round" stroke-linejoin="round"/>
<path d="M53.7803 18.8628C53.3246 21.6539 53.0584 26.1836 54.646 27.6931" stroke="white" stroke-linecap="round" stroke-linejoin="round"/>
<path d="M93.8184 18.8628C94.0157 19.5306 94.25 20.187 94.52 20.8289" stroke="white" stroke-linecap="round" stroke-linejoin="round"/>
<path d="M96.4922 10.9809C96.0007 9.23651 93.8362 9.66473 93.2182 13.0255C93.0592 14.007 93.0501 15.0069 93.1914 15.991" stroke="white" stroke-linecap="round" stroke-linejoin="round"/>
<path d="M79.3411 20.3735C78.7372 21.9115 77.1546 28.0073 79.3411 29.7727" stroke="white" stroke-linecap="round" stroke-linejoin="round"/>
<path d="M103.007 26.1265C101.274 28.5609 99.2232 30.7533 96.9102 32.6456" stroke="white" stroke-linecap="round" stroke-linejoin="round"/>
<path d="M33.041 29.7727C34.627 26.3034 43.4054 26.9163 52.6482 31.1415C61.8911 35.3668 68.0982 41.6045 66.5122 45.0737" fill="#E6E7E8"/>
<path d="M33.041 29.7727C34.627 26.3034 43.4054 26.9163 52.6482 31.1415C61.8911 35.3668 68.0982 41.6045 66.5122 45.0737" stroke="#22093A" stroke-linecap="round" stroke-linejoin="round"/>
<path d="M36.6429 60.7954L30.2664 75.2245C30.2664 75.2245 20.1652 74.7753 18.7869 77.3479C16.9031 80.8644 22.1334 86.2132 28.088 89.0434C35.2914 92.4672 41.7406 90.9731 42.6264 88.0615C43.5603 84.9919 35.794 77.1973 35.794 77.1973L41.7095 63.2184" fill="#E6E7E8"/>
<path d="M36.6429 60.7954L30.2664 75.2245C30.2664 75.2245 20.1652 74.7753 18.7869 77.3479C16.9031 80.8644 22.1334 86.2132 28.088 89.0434C35.2914 92.4672 41.7406 90.9731 42.6264 88.0615C43.5603 84.9919 35.794 77.1973 35.794 77.1973L41.7095 63.2184" stroke="#22093A" stroke-linecap="round" stroke-linejoin="round"/>
<path d="M33.0408 29.7725C33.0408 29.7725 17.8295 54.0978 39.0582 63.1002C60.029 71.9932 66.512 45.0735 66.512 45.0735" fill="#E6E7E8"/>
<path d="M33.0408 29.7725C33.0408 29.7725 17.8295 54.0978 39.0582 63.1002C60.029 71.9932 66.512 45.0735 66.512 45.0735" stroke="#22093A" stroke-linecap="round" stroke-linejoin="round"/>
<path d="M66.5115 45.0735C64.9256 48.5428 56.1471 47.9299 46.9043 43.7047C37.6615 39.4794 31.4543 33.2417 33.0403 29.7725" stroke="#22093A" stroke-linecap="round" stroke-linejoin="round"/>
<path d="M58.2252 54.0081C58.1426 58.1458 51.6196 62.9011 41.3987 59.7689C33.6839 57.4047 31.8026 53.3946 31.9711 48.7285L58.2252 54.0081Z" fill="#E9022C" stroke="#22093A" stroke-linecap="round" stroke-linejoin="round"/>
<path d="M58.2249 54.0082C58.6801 51.7444 53.172 48.7273 45.9221 47.2694C38.6722 45.8115 32.426 46.4648 31.9708 48.7286C31.5155 50.9925 37.0237 54.0095 44.2736 55.4674C51.5234 56.9253 57.7697 56.272 58.2249 54.0082Z" fill="#E9022C" stroke="#22093A" stroke-linecap="round" stroke-linejoin="round"/>
<path d="M88.759 72.1299L91.552 85.6123C91.552 85.6123 100.254 87.0828 100.958 89.5309C101.92 92.8772 96.5393 96.7914 90.8748 97.8036C84.1894 98.9982 78.871 96.9447 78.6495 94.2976C78.416 91.507 86.4733 86.2812 86.4733 86.2812L83.9911 73.2676" fill="#D1D3D4"/>
<path d="M88.759 72.1299L91.552 85.6123C91.552 85.6123 100.254 87.0828 100.958 89.5309C101.92 92.8772 96.5393 96.7914 90.8748 97.8036C84.1894 98.9982 78.871 96.9447 78.6495 94.2976C78.416 91.507 86.4733 86.2812 86.4733 86.2812L83.9911 73.2676" stroke="#22093A" stroke-linecap="round" stroke-linejoin="round"/>
<path d="M66.5938 35.5388L70.4774 59.183C71.3555 63.0606 73.7196 74.4884 85.7631 73.155C96.5506 71.9606 97.9517 62.958 96.3645 53.7939L91.6421 30.6973" fill="#D1D3D4"/>
<path d="M66.5938 35.5388L70.4774 59.183C71.3555 63.0606 73.7196 74.4884 85.7631 73.155C96.5506 71.9606 97.9516 62.958 96.3645 53.7939L91.6421 30.6973" stroke="#22093A" stroke-linecap="round" stroke-linejoin="round"/>
<path d="M80.0675 38.03C86.9844 36.6931 92.1666 33.4102 91.6422 30.6974C91.1179 27.9846 85.0856 26.8693 78.1687 28.2062C71.2518 29.5432 66.0696 32.8261 66.5939 35.5388C67.1183 38.2516 73.1506 39.3669 80.0675 38.03Z" fill="#D1D3D4" stroke="#22093A" stroke-linecap="round" stroke-linejoin="round"/>
<path d="M73.7031 54.6665C73.7031 54.6665 77.1792 70.1186 84.8553 69.4357C92.5314 68.7529 94.7911 64.4336 91.7013 48.2148" fill="#EC6509"/>
<path d="M73.7031 54.6665C73.7031 54.6665 77.1792 70.1186 84.8553 69.4357C92.5314 68.7529 94.7911 64.4336 91.7013 48.2148" stroke="#22093A" stroke-linecap="round" stroke-linejoin="round"/>
<path d="M83.9242 54.8479C88.8943 53.0663 92.3765 50.0966 91.702 48.2148C91.0274 46.3331 86.4516 46.2518 81.4815 48.0334C76.5114 49.815 73.0293 52.7848 73.7038 54.6665C74.3783 56.5483 78.9542 56.6295 83.9242 54.8479Z" fill="#EC6509" stroke="#22093A" stroke-linecap="round" stroke-linejoin="round"/>
<path d="M63.9395 44.3491L69.7235 38.5786L71.492 46.1941L79.613 45.8551L75.272 54.4651L81.0755 58.8286L71.957 62.1166L70.1405 72.5551L63.644 63.4576L54.902 66.7096L58.7675 57.7231L50.873 52.7296L57.6005 48.9451L56.2445 38.7256L63.9395 44.3491Z" fill="#FCC707" stroke="#22093A" stroke-linecap="round" stroke-linejoin="round"/>
<path d="M65.5736 49.5764L68.2826 47.3459L68.7266 50.6744L72.2126 50.8619L70.0046 54.3659L72.3071 56.4689L68.2736 57.5024L67.0691 61.8914L64.6646 57.7349L60.7931 58.7684L62.8136 55.0829L59.6426 52.6244L62.6741 51.2819L62.5121 46.8569L65.5736 49.5764Z" fill="#EC6509" stroke="#22093A" stroke-linecap="round" stroke-linejoin="round"/>
<path d="M21.5977 79.3859L31.3477 77.8484L36.9862 64.9019" stroke="white" stroke-linecap="round" stroke-linejoin="round"/>
<path d="M86.5449 75.1997L88.8519 86.8742L96.0294 91.9982" stroke="white" stroke-linecap="round" stroke-linejoin="round"/>
<path d="M32.7141 37.4443C31.5964 39.9481 30.977 42.6456 30.8906 45.3861" stroke="white" stroke-linecap="round" stroke-linejoin="round"/>
<path d="M89.8584 56.6582C90.418 58.8362 90.3895 62.6938 89.1934 63.9909" stroke="white" stroke-linecap="round" stroke-linejoin="round"/>
<path d="M37.1065 86.1517C27.2073 83.3219 23.4572 85.0214 23.3785 88.4442C23.2603 93.5877 29.7708 94.5002 29.7708 94.5002C29.7708 94.5002 21.3154 110.151 27.9006 112.187C36.1107 114.726 36.6516 95.8224 36.6516 95.8224C36.6516 95.8224 46.1876 98.9119 46.92 94.7624C47.5354 91.2758 43.7408 88.0482 37.1065 86.1517Z" fill="#22093A" stroke="#22093A" stroke-linecap="round" stroke-linejoin="round"/>
<path d="M46.5447 113.961C48.8384 113.969 51.6561 112.797 52.9275 103.112C54.0627 94.4658 50.6655 94.0886 49.7868 94.0855C48.9082 94.0824 43.7538 93.6205 42.8613 103.077C41.9688 112.533 43.1462 113.949 46.5447 113.961Z" fill="#22093A" stroke="#22093A" stroke-linecap="round" stroke-linejoin="round"/>
<path d="M49.5106 92.55C51.731 92.55 53.5309 90.75 53.5309 88.5296C53.5309 86.3092 51.731 84.5093 49.5106 84.5093C47.2902 84.5093 45.4902 86.3092 45.4902 88.5296C45.4902 90.75 47.2902 92.55 49.5106 92.55Z" fill="#22093A" stroke="#22093A" stroke-linecap="round" stroke-linejoin="round"/>
<path d="M70.7465 88.3623C67.6895 88.6029 67.1687 92.3195 66.0872 95.1137C64.8509 92.6755 63.9335 89.0938 60.9432 89.3624C57.4867 89.6728 55.4492 94.8387 54.6956 100.666C53.8779 106.989 53.7944 115.571 57.6276 115.518C62.047 115.456 62.6226 102.794 62.6226 102.794C62.6226 102.794 62.9574 111.672 66.8121 111.383C71.2134 111.054 70.4648 102.372 70.4648 102.372C70.4648 102.372 71.5181 114.629 76.3656 114.175C78.5811 113.967 79.5416 110.83 79.3075 107.655C79.0542 104.22 77.3934 87.8393 70.7465 88.3623Z" fill="#22093A" stroke="#22093A" stroke-linecap="round" stroke-linejoin="round"/>
<path d="M92.7997 86.9501C90.9772 84.9946 80.4741 87.1091 79.1561 93.593C78.296 97.8238 78.7314 112.482 85.7124 112.282C92.6934 112.083 98.0547 109.218 97.2204 105.565C96.3861 101.911 87.8036 103.88 87.8036 103.88C87.8036 103.88 95.0446 101.66 94.4368 97.8133C93.829 93.9666 86.4493 97.1591 86.4493 97.1591C86.4493 97.1591 97.6894 92.1967 92.7997 86.9501Z" fill="#22093A" stroke="#22093A" stroke-linecap="round" stroke-linejoin="round"/>
<path d="M36.292 85.3509C26.3928 82.5211 22.6428 84.2206 22.5641 87.6434C22.4458 92.7869 28.9564 93.6995 28.9564 93.6995C28.9564 93.6995 20.501 109.35 27.0862 111.386C35.2963 113.925 35.8372 95.0216 35.8372 95.0216C35.8372 95.0216 45.3731 98.1111 46.1055 93.9617C46.7209 90.475 42.9263 87.2475 36.292 85.3509Z" fill="#71C1F2" stroke="#22093A" stroke-linecap="round" stroke-linejoin="round"/>
<path d="M45.7302 113.161C48.0239 113.169 50.8416 111.996 52.1131 102.312C53.2483 93.6655 49.8511 93.2883 48.9724 93.2852C48.0937 93.2821 42.9394 92.8202 42.0469 102.277C41.1544 111.733 42.3317 113.149 45.7302 113.161Z" fill="#71C1F2" stroke="#22093A" stroke-linecap="round" stroke-linejoin="round"/>
<path d="M48.6961 91.7497C50.9165 91.7497 52.7165 89.9497 52.7165 87.7293C52.7165 85.509 50.9165 83.709 48.6961 83.709C46.4758 83.709 44.6758 85.509 44.6758 87.7293C44.6758 89.9497 46.4758 91.7497 48.6961 91.7497Z" fill="#71C1F2" stroke="#22093A" stroke-linecap="round" stroke-linejoin="round"/>
<path d="M69.9301 87.5616C66.8731 87.8021 66.3522 91.5188 65.2707 94.313C64.0344 91.8747 63.1171 88.293 60.1267 88.5616C56.6702 88.872 54.6327 94.0379 53.8792 99.8653C53.0615 106.188 52.978 114.771 56.8112 114.717C61.2305 114.655 61.8062 101.994 61.8062 101.994C61.8062 101.994 62.141 110.871 65.9957 110.582C70.397 110.253 69.6484 101.571 69.6484 101.571C69.6484 101.571 70.7017 113.829 75.5491 113.374C77.7646 113.166 78.7252 110.029 78.4911 106.854C78.2378 103.419 76.5769 87.0385 69.9301 87.5616Z" fill="#71C1F2" stroke="#22093A" stroke-linecap="round" stroke-linejoin="round"/>
<path d="M91.9852 86.1493C90.1627 84.1938 79.6596 86.3083 78.3416 92.7922C77.4816 97.023 77.9169 111.681 84.8979 111.481C91.8789 111.282 97.2402 108.417 96.4059 104.764C95.5716 101.111 86.9892 103.079 86.9892 103.079C86.9892 103.079 94.2302 100.859 93.6224 97.0125C93.0146 93.1657 85.6349 96.3582 85.6349 96.3582C85.6349 96.3582 96.8749 91.3959 91.9852 86.1493Z" fill="#71C1F2" stroke="#22093A" stroke-linecap="round" stroke-linejoin="round"/>
<path d="M28.1417 102.014C27.3692 104.323 26.8489 106.91 27.7627 108.038" stroke="white" stroke-linecap="round" stroke-linejoin="round"/>
<path d="M29.5831 98.4663C29.3732 98.8981 29.2871 99.058 29.0156 99.7226" stroke="white" stroke-linecap="round" stroke-linejoin="round"/>
<path d="M48.6969 85.8228C47.636 85.9173 46.8527 86.8539 46.9472 87.9147C46.9963 88.466 47.2799 88.9696 47.7259 89.2974" stroke="white" stroke-linecap="round" stroke-linejoin="round"/>
<path d="M47.7246 95.6772C46.6981 96.2333 44.6772 99.2793 44.7336 103.221" stroke="white" stroke-linecap="round" stroke-linejoin="round"/>
<path d="M30.5507 86.5632C28.1298 85.8797 25.7096 86.1278 24.9121 87.5493" stroke="white" stroke-linecap="round" stroke-linejoin="round"/>
<path d="M68.1465 93.9686C68.1465 92.9432 69.0009 89.8103 70.368 90.0382" stroke="white" stroke-linecap="round" stroke-linejoin="round"/>
<path d="M56.8105 97.7726C56.8105 95.6774 59.0737 91.0257 60.3422 91.0161" stroke="white" stroke-linecap="round" stroke-linejoin="round"/>
<path d="M81.752 104.677C82.1588 105.987 82.3867 109.12 86.0323 108.949" stroke="white" stroke-linecap="round" stroke-linejoin="round"/>
<path d="M86.5449 88.6138C88.0829 87.729 89.8588 87.729 90.4183 89.0125" stroke="white" stroke-linecap="round" stroke-linejoin="round"/>
<path d="M57.8695 74.1248C56.7476 74.3705 56.0372 75.4792 56.283 76.6012C56.3487 76.9012 56.48 77.1829 56.6675 77.4261C57.743 78.6583 60.2735 78.7753 60.653 76.8929C61.048 75.7568 60.4472 74.5157 59.3112 74.1208C58.8441 73.9584 58.3357 73.9598 57.8695 74.1248Z" fill="#FCC707" stroke="#22093A" stroke-linecap="round" stroke-linejoin="round"/>
<path d="M16.2451 61.4065C16.1359 63.1882 17.4918 64.7211 19.2736 64.8302C19.75 64.8594 20.227 64.7827 20.6702 64.6057C22.9692 63.5212 24.2189 59.7875 21.5657 58.4205C20.035 57.3476 17.9244 57.7186 16.8514 59.2493C16.4102 59.8787 16.1964 60.6394 16.2451 61.4065Z" fill="#FCC707" stroke="#22093A" stroke-linecap="round" stroke-linejoin="round"/>
<path d="M18.9541 60.2256L18.5098 60.9659" stroke="white" stroke-linecap="round" stroke-linejoin="round"/>
<path d="M99.1103 45.8264C99.0011 47.6081 100.357 49.141 102.139 49.2502C102.615 49.2794 103.092 49.2027 103.535 49.0256C105.834 47.9411 107.084 44.2075 104.431 42.8405C102.9 41.7675 100.79 42.1385 99.7166 43.6692C99.2755 44.2986 99.0616 45.0593 99.1103 45.8264Z" fill="#FCC707" stroke="#22093A" stroke-linecap="round" stroke-linejoin="round"/>
<path d="M101.821 44.6455L101.377 45.3858" stroke="white" stroke-linecap="round" stroke-linejoin="round"/>
</svg>
