<svg width="120" height="120" viewBox="0 0 120 120" fill="none" xmlns="http://www.w3.org/2000/svg">
<path d="M39.7034 58.5562C43.2674 55.0165 53.095 48.7226 61.5263 47.2987C69.8438 45.8939 74.1116 43.0954 76.4674 49.0234C78.6432 54.4984 69.4721 59.8052 69.4721 59.8052C69.4721 59.8052 80.0797 53.5362 82.2545 61.9091C84.2416 69.5595 74.7866 73.3647 74.7866 73.3647C74.7866 73.3647 86.6847 68.0694 87.7354 77.1438C88.7314 85.7465 72.8029 87.6208 72.8029 87.6208C77.1934 91.2974 82.947 95.8243 85.2489 103.801C87.456 111.449 82.9964 115.736 78.8441 113.164C71.7858 108.793 67.4808 101.486 62.784 100.014C53.0704 96.9707 48.9495 98.6855 39.7907 91.6632C31.1251 85.0192 29.8246 68.3676 39.7034 58.5562Z" fill="#22093A" stroke="#22093A" stroke-linecap="round" stroke-linejoin="round"/>
<path d="M38.838 56.9374C42.402 53.3977 52.2297 47.1039 60.661 45.6799C68.9785 44.2752 74.1109 43.0957 76.4667 49.0238C78.6424 54.4988 68.6068 58.1864 68.6068 58.1864C68.6068 58.1864 80.079 53.5366 82.2538 61.9094C84.2409 69.5599 73.9213 71.746 73.9213 71.746C73.9213 71.746 86.1592 68.0558 87.2099 77.1302C88.2059 85.7329 71.9375 86.002 71.9375 86.002C76.328 89.6787 82.0816 94.2055 84.3835 102.182C86.5906 109.83 82.131 114.117 77.9786 111.546C70.9203 107.175 66.6154 99.867 61.9186 98.3955C52.205 95.352 46.5485 97.8623 38.9253 90.0444C31.302 82.2266 28.9594 66.7489 38.838 56.9374Z" fill="#FCC707" stroke="#22093A" stroke-linecap="round" stroke-linejoin="round"/>
<path d="M53.2712 13.7701C58.4788 13.4735 66.3927 18.5513 65.8521 28.6755C65.3116 38.7997 58.725 43.5004 53.0271 43.783C47.8861 44.038 41.0383 40.1067 41.2571 29.3159C41.4363 20.4753 45.6222 14.2056 53.2712 13.7701Z" fill="#22093A" stroke="#22093A" stroke-linecap="round" stroke-linejoin="round"/>
<path d="M54.0697 21.613C54.8222 21.2283 55.8778 23.1908 55.639 27.881C55.4002 32.5713 54.3796 35.0508 53.5568 35.4524C52.8145 35.8148 51.8938 34.3298 52.097 29.3477C52.2634 25.266 52.9643 22.178 54.0697 21.613Z" fill="#22093A" stroke="#22093A" stroke-linecap="round" stroke-linejoin="round"/>
<path d="M18.808 17.3705C13.8985 19.2125 8.6202 46.013 19.4863 46.0116C26.7935 46.0106 24.8035 32.4842 24.8035 32.4842C24.8035 32.4842 29.0059 45.3764 35.1242 44.4149C42.1379 43.3127 41.6989 14.191 36.0756 13.758C28.4985 13.1746 28.8852 26.032 28.8852 26.032C28.8852 26.032 24.8962 15.0864 18.808 17.3705Z" fill="#22093A" stroke="#22093A" stroke-linecap="round" stroke-linejoin="round"/>
<path d="M70.2242 14.6687C66.1009 16.0701 66.9071 20.9825 66.0674 31.087C65.3585 39.6181 68.5237 40.8599 71.4985 40.8337C77.4428 40.7812 76.4649 29.4241 76.4649 29.4241C76.4649 29.4241 89.0947 33.2518 89.1564 20.0088C89.1911 12.5714 74.4613 13.2286 70.2242 14.6687Z" fill="#22093A" stroke="#22093A" stroke-linecap="round" stroke-linejoin="round"/>
<path d="M76.7476 20.0569C76.7476 20.0569 80.4076 19.5982 79.9092 21.513C79.4108 23.4277 76.4648 23.3202 76.4648 23.3202L76.7476 20.0569Z" fill="#22093A" stroke="#22093A" stroke-linecap="round" stroke-linejoin="round"/>
<path d="M107.032 18.1756C103.547 12.4153 93.8374 13.2946 90.7142 18.1484C88.3674 21.7955 83.8817 38.8667 90.5574 41.0236C97.2331 43.1805 104.836 42.4333 104.963 37.2828C105.055 33.5197 96.6141 32.5243 96.6141 32.5243C96.6141 32.5243 104.506 33.636 105.223 29.7901C105.94 25.9443 97.5903 25.7065 97.5903 25.7065C97.5903 25.7065 110.762 24.3397 107.032 18.1756Z" fill="#22093A" stroke="#22093A" stroke-linecap="round" stroke-linejoin="round"/>
<path d="M51.0974 12.5723C56.305 12.2758 64.2188 17.3535 63.6783 27.4777C63.1378 37.6019 56.5512 42.3026 50.8533 42.5853C45.7123 42.8403 38.8644 38.909 39.0832 28.1181C39.2625 19.2776 43.4484 13.0079 51.0974 12.5723Z" fill="#35CCAD" stroke="#22093A" stroke-linecap="round" stroke-linejoin="round"/>
<path d="M51.8958 20.4152C52.6484 20.0306 53.704 21.993 53.4652 26.6833C53.2264 31.3735 52.2057 33.8531 51.383 34.2547C50.6407 34.6171 49.7199 33.132 49.9231 28.1499C50.0896 24.0684 50.7905 20.9803 51.8958 20.4152Z" fill="#22093A" stroke="#22093A" stroke-linecap="round" stroke-linejoin="round"/>
<path d="M16.6357 16.1726C11.7262 18.0146 10.0104 45.0439 17.314 44.8136C24.6176 44.5834 22.6311 31.2863 22.6311 31.2863C22.6311 31.2863 26.8336 44.1785 32.9519 43.217C39.9655 42.1147 40.6282 13.7097 35.0049 13.2767C27.4279 12.6933 26.7129 24.8341 26.7129 24.8341C26.7129 24.8341 22.7239 13.8885 16.6357 16.1726Z" fill="#35CCAD" stroke="#22093A" stroke-linecap="round" stroke-linejoin="round"/>
<path d="M68.0503 13.471C63.927 14.8724 64.7333 19.7847 63.8936 29.8893C63.1847 38.4204 66.3498 39.6622 69.3247 39.6359C75.269 39.5834 74.2911 28.2264 74.2911 28.2264C74.2911 28.2264 86.9209 32.0541 86.9826 18.811C87.0173 11.3736 72.2875 12.0309 68.0503 13.471Z" fill="#35CCAD" stroke="#22093A" stroke-linecap="round" stroke-linejoin="round"/>
<path d="M74.5737 18.8592C74.5737 18.8592 78.2337 18.4005 77.7354 20.3152C77.237 22.2299 74.291 22.1225 74.291 22.1225L74.5737 18.8592Z" fill="#22093A" stroke="#22093A" stroke-linecap="round" stroke-linejoin="round"/>
<path d="M104.86 16.9777C103.775 13.2023 91.6655 12.0967 88.5423 16.9505C86.1955 20.5976 81.7098 37.6688 88.3855 39.8257C95.0612 41.9826 102.665 41.2355 102.791 36.085C102.883 32.3219 94.4422 31.3265 94.4422 31.3265C94.4422 31.3265 102.334 32.4382 103.051 28.5923C103.768 24.7464 95.4184 24.5086 95.4184 24.5086C95.4184 24.5086 106.851 23.9017 104.86 16.9777Z" fill="#35CCAD" stroke="#22093A" stroke-linecap="round" stroke-linejoin="round"/>
<path d="M20.07 19.5773C19.4694 19.083 17.8208 18.7633 17.3358 19.5773C16.0163 21.7918 15.2852 25.0646 15.2852 31.1489" stroke="white" stroke-linecap="round" stroke-linejoin="round"/>
<path d="M51.3921 15.7561C47.8385 15.3267 43.5678 18.1029 42.4941 23.8836" stroke="white" stroke-linecap="round" stroke-linejoin="round"/>
<path d="M67.242 27.3706C67.2427 29.1527 65.9668 35.021 68.26 36.1043" stroke="white" stroke-linecap="round" stroke-linejoin="round"/>
<path d="M70.3686 15.3706C68.6925 15.6833 67.5013 17.1808 67.5734 18.8843" stroke="white" stroke-linecap="round" stroke-linejoin="round"/>
<path d="M87.8792 32.1738C87.8792 32.1738 86.9707 36.0188 89.7048 37.0441C91.5153 37.6843 93.4092 38.0585 95.3271 38.1548" stroke="white" stroke-linecap="round" stroke-linejoin="round"/>
<path d="M42.6504 88.9888C43.0454 89.3447 43.4463 89.674 43.8531 89.9767" stroke="white" stroke-linecap="round" stroke-linejoin="round"/>
<path d="M39.299 61.3198C36.1977 65.3312 33.9221 71.5762 37.4428 81.0475C38.143 82.9789 39.1186 84.799 40.3393 86.4514" stroke="white" stroke-linecap="round" stroke-linejoin="round"/>
<path d="M43.8564 56.9248C43.4341 57.2454 42.9731 57.608 42.4922 58.0165" stroke="white" stroke-linecap="round" stroke-linejoin="round"/>
<path d="M67.5742 47.4192C70.3675 47.2974 72.5216 47.4983 72.9877 49.5055" stroke="white" stroke-linecap="round" stroke-linejoin="round"/>
<path d="M75.7188 74.9913C75.7188 74.9913 81.2755 73.3099 82.8617 76.0162" stroke="white" stroke-linecap="round" stroke-linejoin="round"/>
<path d="M15.2852 34.3062C15.3881 35.8704 15.5879 37.4267 15.8833 38.9663" stroke="white" stroke-linecap="round" stroke-linejoin="round"/>
<path d="M42.1322 27.5781C42.079 29.7466 42.4324 31.9058 43.1741 33.9441" stroke="white" stroke-linecap="round" stroke-linejoin="round"/>
</svg>
