<svg width="120" height="107" viewBox="0 0 120 107" fill="none" xmlns="http://www.w3.org/2000/svg">
<g clip-path="url(#clip0_5_11002)">
<path opacity="0.5" d="M112.743 69.3889C109.237 67.5459 105.428 66.35 101.498 65.8583C100.502 65.7018 99.5508 65.5578 98.6407 65.4373C111.513 51.1928 109.696 32.5466 106.265 23.1781C104.411 18.3069 101.341 13.9919 97.3458 10.6441C91.5489 5.29394 83.9543 2.31572 76.0658 2.29923C69.46 2.00991 63.1304 4.97062 59.1184 10.2265C58.6156 9.73485 58.0782 9.24594 57.5076 8.76672C52.3525 3.98141 43.3607 -0.788737 29.6294 3.37403C20.0781 6.26809 12.0919 14.0451 7.71652 24.7121C3.04893 36.0889 3.42425 48.6935 8.71925 58.4311C10.0831 60.9554 11.6989 63.3353 13.542 65.5343C11.0108 65.6104 8.60286 66.6448 6.80511 68.4283C3.17494 71.945 1.3716 78.2843 1.29266 87.8093C1.21648 96.916 3.78574 102.647 8.93259 104.858C10.7489 105.95 12.836 106.508 14.9548 106.469C16.4842 106.441 18.0059 106.244 19.4922 105.882L19.9354 105.787C21.9827 105.362 23.9683 104.681 25.8454 103.76C27.8003 104.318 29.848 104.474 31.8648 104.218C35.2516 103.753 38.4192 102.276 40.9535 99.9818C41.5305 100.376 42.1425 100.716 42.7818 100.998C44.5121 102.06 46.4982 102.633 48.5284 102.655C51.879 102.689 55.0913 101.321 57.3885 98.8814C57.6503 99.0233 57.9204 99.1535 58.1988 99.272C58.9862 99.7824 59.8464 100.171 60.75 100.424C67.3913 102.265 73.5617 101.816 77.2584 99.2186C77.372 99.1383 77.4828 99.0566 77.5922 98.9735C78.5704 100.221 79.8589 101.191 81.3291 101.784C82.9216 102.758 84.7565 103.261 86.6227 103.237C88.6531 103.289 90.6105 102.478 92.0105 101.007C92.9162 102.051 94.0575 102.865 95.3402 103.381C96.8712 104.33 98.6404 104.823 100.441 104.804C102.992 104.824 105.413 103.678 107.016 101.694C109.772 98.3391 110.163 92.6252 109.883 87.8294C111.71 87.9394 113.535 87.6056 115.205 86.8564C117.394 85.8157 119.022 83.8726 119.663 81.5344C120.184 79.7068 121.205 73.4671 112.743 69.3889Z" fill="#231F20"/>
<path d="M111.452 67.6086C107.946 65.7657 104.137 64.5697 100.207 64.0781C99.2112 63.9216 98.2598 63.7775 97.3497 63.6571C110.222 49.4125 108.405 30.7663 104.974 21.3979C103.12 16.5267 100.05 12.2116 96.0547 8.86387C90.2579 3.51369 82.6633 0.53546 74.7748 0.518959C68.169 0.229642 61.8394 3.19035 57.8274 8.44627C57.3246 7.95458 56.7872 7.46567 56.2166 6.98644C51.0614 2.20114 42.0697 -2.56901 28.3383 1.59375C18.7871 4.48781 10.8009 12.2648 6.4255 22.9318C1.75791 34.3086 2.13323 46.9132 7.42823 56.6508C8.79212 59.1751 10.4079 61.555 12.251 63.754C9.71974 63.8301 7.31184 64.8645 5.51409 66.6481C1.88393 70.1647 0.0805873 76.5041 0.00164532 86.029C-0.074531 95.1357 2.49477 100.867 7.64157 103.078C9.45793 104.169 11.545 104.728 13.6638 104.688C15.1932 104.66 16.7149 104.464 18.2012 104.102L18.6444 104.007C20.6917 103.582 22.6773 102.901 24.5544 101.98C26.5093 102.538 28.5571 102.694 30.5739 102.438C33.9606 101.972 37.1281 100.496 39.6624 98.2015C40.2394 98.5955 40.8514 98.9356 41.4907 99.2175C43.221 100.28 45.2071 100.852 47.2373 100.875C50.5879 100.909 53.8002 99.5405 56.0974 97.1011C56.3592 97.2431 56.6293 97.3733 56.9077 97.4917C57.6951 98.0022 58.5553 98.3904 59.4589 98.6433C66.1002 100.485 72.2706 100.035 75.9673 97.4383C76.0809 97.358 76.1917 97.2763 76.3011 97.1932C77.2793 98.441 78.5678 99.4103 80.038 100.004C81.6305 100.977 83.4655 101.481 85.3316 101.457C87.3621 101.508 89.3194 100.698 90.7195 99.2264C91.6251 100.271 92.7665 101.085 94.0491 101.601C95.5801 102.55 97.3494 103.043 99.1502 103.024C101.701 103.043 104.122 101.898 105.725 99.9134C108.481 96.5588 108.872 90.8449 108.592 86.0491C110.418 86.1591 112.244 85.8253 113.914 85.0761C116.103 84.0354 117.731 82.0923 118.372 79.7541C118.893 77.9265 119.913 71.6869 111.452 67.6086Z" fill="white"/>
<path d="M100.306 23.0928C96.3652 12.9796 86.5997 6.34078 75.7461 6.39654C62.1754 6.17943 59.4807 19.3227 59.4807 19.3227C59.4807 19.3227 52.1172 0.806922 30.8276 7.25829C13.0541 12.6441 3.46718 37.958 12.8387 55.1928C22.2102 72.4277 39.1219 74.3668 56.7877 84.2767C60.6176 86.6556 64.2878 89.2824 67.7749 92.1402C67.7749 92.1402 69.1753 81.9069 90.5035 63.4039C105.841 50.0978 103.224 31.0606 100.306 23.0928Z" fill="#22093A" stroke="#22093A" stroke-linecap="round" stroke-linejoin="round"/>
<path d="M58.424 18.396C58.424 18.396 51.0605 -0.119839 29.7709 6.33153C11.9974 11.7174 2.41054 37.0312 11.782 54.2661C21.1535 71.501 38.0652 73.4399 55.731 83.3501C59.5609 85.7289 63.2312 88.3557 66.7183 91.2135C66.7183 91.2135 68.1186 80.9803 89.4468 62.4772C104.785 49.1711 102.167 30.1339 99.2492 22.1662C95.3086 12.0529 85.5431 5.41403 74.6894 5.46979C61.1186 5.25265 58.424 18.396 58.424 18.396Z" fill="#E9022C" stroke="#22093A" stroke-linecap="round" stroke-linejoin="round"/>
<path d="M48.6216 26.0098C48.6216 26.0098 47.7695 32.5341 51.5397 31.78C55.3098 31.026 54.8019 26.0098 54.8019 26.0098" stroke="#22093A" stroke-linecap="round" stroke-linejoin="round"/>
<path d="M60.5781 25.3664C60.5781 25.3664 60.5781 31.3002 64.2405 30.6478C67.9029 29.9954 67.2567 24.394 67.2567 24.394" stroke="#22093A" stroke-linecap="round" stroke-linejoin="round"/>
<path d="M39.8887 33.3687C39.8887 33.3687 49.2885 33.3687 50.3753 42.3032C51.1965 49.0539 46.5955 55.2832 46.5955 55.2832" stroke="#22093A" stroke-linecap="round" stroke-linejoin="round"/>
<path d="M73.1954 28.0083C69.5588 31.0367 68.0193 35.9058 69.2538 40.4744C71.041 47.9081 79.3353 47.9081 79.3353 47.9081" stroke="#22093A" stroke-linecap="round" stroke-linejoin="round"/>
<path d="M50.375 42.3031C50.375 42.3031 53.6844 50.1368 61.117 48.8802C68.5495 47.6237 69.1231 39.8691 69.1231 39.8691" stroke="#22093A" stroke-linecap="round" stroke-linejoin="round"/>
<path d="M31.9443 55.702C36.2487 55.702 39.7382 52.2126 39.7382 47.9081C39.7382 43.6037 36.2487 40.1143 31.9443 40.1143C27.6398 40.1143 24.1504 43.6037 24.1504 47.9081C24.1504 52.2126 27.6398 55.702 31.9443 55.702Z" fill="#FF4069"/>
<path d="M85.0673 43.1337C89.3718 43.1337 92.8612 39.6442 92.8612 35.3398C92.8612 31.0353 89.3718 27.5459 85.0673 27.5459C80.7629 27.5459 77.2734 31.0353 77.2734 35.3398C77.2734 39.6442 80.7629 43.1337 85.0673 43.1337Z" fill="#FF4069"/>
<path d="M26.0844 11.9487C12.697 19.7851 9.79459 38.4766 12.4252 45.6854" stroke="#FFB3CE" stroke-linecap="round" stroke-linejoin="round"/>
<path d="M37.1987 8.52246C35.1731 8.68751 33.1716 9.07455 31.2305 9.67661" stroke="#FF94BB" stroke-linecap="round" stroke-linejoin="round"/>
<path d="M84.6489 58.6387C83.7325 58.8541 83.1642 59.7715 83.3796 60.6879C83.4257 60.884 83.5061 61.0704 83.6173 61.2384" stroke="white" stroke-linecap="round" stroke-linejoin="round"/>
<path d="M27.7466 68.2897C32.7886 67.5838 40.8938 71.8887 41.1797 81.7803C41.4656 91.672 35.4353 96.7727 29.9154 97.5044C24.9349 98.1646 17.9585 94.8895 17.3062 84.3751C16.7718 75.7611 20.341 69.3267 27.7466 68.2897Z" fill="#22093A" stroke="#22093A" stroke-linecap="round" stroke-linejoin="round"/>
<path d="M29.1514 75.8547C29.8526 75.4202 31.0367 77.2446 31.1805 81.8261C31.3242 86.4077 30.5302 88.9015 29.7621 89.3582C29.069 89.7702 28.0543 88.3994 27.8525 83.5368C27.6873 79.5531 28.1215 76.493 29.1514 75.8547Z" fill="#22093A" stroke="#22093A" stroke-linecap="round" stroke-linejoin="round"/>
<path d="M17.4355 90.8759C24.3383 85.973 26.5317 92.5532 25.4995 94.9401C24.7499 96.6735 21.0482 98.4238 17.6291 99.1334C14.2099 99.843 6.14595 102.359 6.27497 86.7471C6.40399 71.1352 11.4359 69.3351 13.8874 69.3934C16.8287 69.4634 20.6611 72.4255 19.1128 81.1991C17.9365 87.8649 17.4355 90.8759 17.4355 90.8759Z" fill="#22093A" stroke="#22093A" stroke-linecap="round" stroke-linejoin="round"/>
<path d="M42.9102 67.4952C39.8933 68.0838 38.0472 70.7298 37.9528 74.1715C37.8507 77.8945 37.9928 95.7419 47.3133 95.8982C52.1646 95.9795 55.6842 90.6357 57.5045 84.4542C59.4794 77.7478 60.5136 67.6617 56.6927 67.2812C50.555 66.6701 48.3934 84.2624 48.3934 84.2624C48.3934 84.2624 48.788 66.3486 42.9102 67.4952Z" fill="#22093A" stroke="#22093A" stroke-linecap="round" stroke-linejoin="round"/>
<path d="M76.1302 70.0115C74.8749 67.4183 63.386 66.2573 59.9676 72.5158C57.7371 76.5996 53.5261 91.8335 60.7789 93.8472C68.0316 95.861 74.4638 94.6145 74.7659 90.587C75.0679 86.5594 65.6033 85.8591 65.6033 85.8591C65.6033 85.8591 73.7663 85.8744 74.3631 81.7195C74.9599 77.5647 66.345 78.5068 66.345 78.5068C66.345 78.5068 79.4982 76.969 76.1302 70.0115Z" fill="#22093A" stroke="#22093A" stroke-linecap="round" stroke-linejoin="round"/>
<path d="M86.9364 67.8813C91.5677 68.1617 92.1876 72.971 90.9758 81.8039C89.9033 89.6215 88.7202 96.4772 85.3206 96.4803C80.1501 96.485 79.0882 90.7872 79.8212 81.2613C80.5541 71.7354 83.0237 67.6444 86.9364 67.8813Z" fill="#22093A" stroke="#22093A" stroke-linecap="round" stroke-linejoin="round"/>
<path d="M86.3859 65.252C88.7737 65.252 90.7094 63.4088 90.7094 61.135C90.7094 58.8613 88.7737 57.0181 86.3859 57.0181C83.9982 57.0181 82.0625 58.8613 82.0625 61.135C82.0625 63.4088 83.9982 65.252 86.3859 65.252Z" fill="#22093A" stroke="#22093A" stroke-linecap="round" stroke-linejoin="round"/>
<path d="M100.745 69.6584C111.099 71.2866 114.578 74.91 113.591 78.3839C112.107 83.6042 102.77 79.6399 102.77 79.6399C102.77 79.6399 106.414 98.0471 99.1426 98.0471C90.0775 98.0471 95.634 78.0112 95.634 78.0112C95.634 78.0112 87.3847 76.8311 88.536 72.5381C89.6873 68.245 93.5549 68.5277 100.745 69.6584Z" fill="#22093A" stroke="#22093A" stroke-linecap="round" stroke-linejoin="round"/>
<path d="M26.4282 67.5998C31.4702 66.8938 39.5755 71.1987 39.8614 81.0904C40.1472 90.9821 34.117 96.0827 28.597 96.8145C23.6165 97.4747 16.6401 94.1995 15.9878 83.6852C15.4534 75.0712 19.0226 68.6367 26.4282 67.5998Z" fill="#9736FF" stroke="#22093A" stroke-linecap="round" stroke-linejoin="round"/>
<path d="M27.835 75.1653C28.5362 74.7307 29.7203 76.5551 29.8641 81.1367C30.0078 85.7183 29.2137 88.2121 28.4457 88.6688C27.7526 89.0808 26.7379 87.7101 26.5361 82.8475C26.3708 78.8637 26.8051 75.8036 27.835 75.1653Z" fill="#22093A" stroke="#22093A" stroke-linecap="round" stroke-linejoin="round"/>
<path d="M16.1191 90.1864C23.0219 85.2835 25.2152 91.8637 24.1831 94.2507C23.4335 95.9841 19.7317 97.7343 16.3126 98.4439C12.8935 99.1536 4.8295 101.67 4.95856 86.0577C5.08763 70.4458 10.1194 68.6457 12.5709 68.704C15.5123 68.7739 19.3447 71.736 17.7964 80.5096C16.62 87.1755 16.1191 90.1864 16.1191 90.1864Z" fill="#9736FF" stroke="#22093A" stroke-linecap="round" stroke-linejoin="round"/>
<path d="M41.5918 66.8058C38.5749 67.3944 36.7288 70.0404 36.6344 73.4821C36.5323 77.2051 36.6744 95.0525 45.9949 95.2087C50.8462 95.29 54.3658 89.9462 56.1862 83.7648C58.161 77.0584 59.1952 66.9722 55.3744 66.5917C49.2367 65.9806 47.0751 83.5729 47.0751 83.5729C47.0751 83.5729 47.4696 65.6591 41.5918 66.8058Z" fill="#9736FF" stroke="#22093A" stroke-linecap="round" stroke-linejoin="round"/>
<path d="M74.8138 69.3215C73.5586 66.7284 62.0696 65.5673 58.6512 71.8259C56.4206 75.9096 52.2097 91.1435 59.4625 93.1573C66.7153 95.171 73.1474 93.9246 73.4495 89.8971C73.7515 85.8695 64.287 85.1692 64.287 85.1692C64.287 85.1692 72.45 85.1844 73.0468 81.0296C73.6436 76.8748 65.0287 77.8168 65.0287 77.8168C65.0287 77.8168 78.1818 76.2791 74.8138 69.3215Z" fill="#9736FF" stroke="#22093A" stroke-linecap="round" stroke-linejoin="round"/>
<path d="M85.618 67.1918C90.2493 67.4723 90.8693 72.2815 89.6574 81.1144C88.5849 88.932 87.4018 95.7877 84.0023 95.7908C78.8318 95.7954 77.7699 90.0976 78.5028 80.5718C79.2357 71.0459 81.7053 66.9549 85.618 67.1918Z" fill="#9736FF" stroke="#22093A" stroke-linecap="round" stroke-linejoin="round"/>
<path d="M85.0676 64.5621C87.4553 64.5621 89.391 62.7188 89.391 60.4451C89.391 58.1714 87.4553 56.3281 85.0676 56.3281C82.6798 56.3281 80.7441 58.1714 80.7441 60.4451C80.7441 62.7188 82.6798 64.5621 85.0676 64.5621Z" fill="#9736FF" stroke="#22093A" stroke-linecap="round" stroke-linejoin="round"/>
<path d="M99.4287 68.969C109.783 70.5972 113.262 74.2206 112.274 77.6945C110.79 82.9147 101.454 78.9505 101.454 78.9505C101.454 78.9505 105.097 97.3576 97.8262 97.3576C88.7611 97.3576 94.3175 77.3218 94.3175 77.3218C94.3175 77.3218 86.0683 76.1416 87.2196 71.8486C88.3709 67.5556 92.2385 67.8383 99.4287 68.969Z" fill="#9736FF" stroke="#22093A" stroke-linecap="round" stroke-linejoin="round"/>
<path d="M12.8013 71.3491C11.2933 71.403 8.18542 72.8289 7.63086 85.809" stroke="#D9BBFF" stroke-linecap="round" stroke-linejoin="round"/>
<path d="M7.632 88.7373C7.61012 90.4483 7.90219 92.1488 8.49374 93.7545" stroke="#D9BBFF" stroke-linecap="round" stroke-linejoin="round"/>
<path d="M20.8809 73.8806C21.7965 72.4803 24.1504 70.1925 26.9131 70.4336" stroke="#D9BBFF" stroke-linecap="round" stroke-linejoin="round"/>
<path d="M35.1539 89.5537C34.5137 90.6218 33.5786 91.4821 32.4609 92.0312" stroke="#D9BBFF" stroke-linecap="round" stroke-linejoin="round"/>
<path d="M41.7552 69.791C40.612 70.2355 38.9717 71.5775 39.3694 75.5539" stroke="#D9BBFF" stroke-linecap="round" stroke-linejoin="round"/>
<path d="M67.7466 70.1924C64.4516 70.1924 61.1219 70.3768 59.3984 77.446" stroke="#D9BBFF" stroke-linecap="round" stroke-linejoin="round"/>
<path d="M81.8364 75.0308C80.9055 79.5369 80.6557 84.1572 81.0953 88.7374C81.4454 91.3227 82.5495 92.5853 83.3035 92.693" stroke="#D9BBFF" stroke-linecap="round" stroke-linejoin="round"/>
<path d="M95.3676 85.5947C95.2698 86.3393 95.186 87.0913 95.1303 87.803C94.888 90.8999 95.2069 93.5929 96.6341 94.293" stroke="#D9BBFF" stroke-linecap="round" stroke-linejoin="round"/>
<path d="M96.311 80.0474C96.311 80.0474 96.0674 81.2052 95.7949 82.7953" stroke="#D9BBFF" stroke-linecap="round" stroke-linejoin="round"/>
<path d="M94.0751 70.8871C92.8902 70.6717 91.1129 70.4024 90.1973 71.6412" stroke="#D9BBFF" stroke-linecap="round" stroke-linejoin="round"/>
</g>
<defs>
<clipPath id="clip0_5_11002">
<rect width="120" height="106.469" fill="white"/>
</clipPath>
</defs>
</svg>
