<svg width="120" height="114" viewBox="0 0 120 114" fill="none" xmlns="http://www.w3.org/2000/svg">
<g clip-path="url(#clip0_5_11010)">
<path opacity="0.5" d="M119.78 38.2903C119.282 36.6717 117.997 35.4164 116.367 34.9571L104.966 31.7424C105.968 31.704 106.961 31.4816 107.878 31.0491C107.879 31.0484 107.879 31.0484 107.879 31.0484C110.863 29.6407 112.906 26.4808 112.964 23.1851C113.016 20.2444 111.486 17.6843 108.87 16.335C106.137 14.9294 103.183 14.9022 100.765 16.2654C98.3596 17.6203 96.8593 20.1519 96.6492 23.2109C96.4515 26.0591 97.7417 28.7214 100.099 30.3324C100.14 30.3605 100.185 30.379 100.227 30.4062L96.9539 29.4834L95.0932 16.699C95.0417 16.3531 94.9554 16.0198 94.8343 15.7018C94.5073 13.9781 93.2951 12.546 91.6361 11.9441C89.9062 11.3171 87.9773 11.6901 86.6078 12.9162L84.5703 14.7394C84.0567 14.5077 83.4959 14.3595 82.9044 14.3135C81.3443 14.1918 77.7773 13.9141 76.7836 13.4632C76.3326 12.4695 76.0557 8.90177 75.9332 7.34094C75.7314 4.74466 73.5645 2.74057 70.9605 2.74057C69.7052 2.74057 68.5501 3.2068 67.6691 3.9806L67.4575 3.55195C66.6183 1.84499 64.8814 0.76709 62.9831 0.76709C62.9595 0.76709 62.9344 0.76709 62.9094 0.767785C60.9832 0.79562 59.2449 1.93127 58.4461 3.68416L48.8236 24.7648L40.5456 15.3497C39.46 14.1138 37.8345 13.4952 36.1978 13.6914C34.5639 13.8897 33.1332 14.8814 32.3733 16.342L27.3603 25.9811L12.2349 21.2854C10.377 20.7099 8.35897 21.2632 7.05492 22.7043C5.80096 24.0912 5.43215 26.057 6.08349 27.7966C6.15029 28.1327 6.25049 28.4654 6.38827 28.7883L11.2176 40.1337C9.50297 41.6806 8.06253 43.5615 6.94218 45.7243L4.3299 47.3658C4.12114 47.4973 3.92352 47.6435 3.73981 47.8028C2.63895 48.5996 1.90411 49.8173 1.7204 51.1805C1.51025 52.74 2.05024 54.3078 3.17476 55.4086L4.1963 56.4093C4.10166 58.0383 4.12114 59.7119 4.25475 61.4112C4.59712 65.7186 5.66875 69.4839 7.44878 72.6522L3.41275 78.9094L2.87276 79.6965C1.82896 81.2162 1.70788 83.1869 2.55823 84.8222C3.40858 86.4575 5.09118 87.4902 6.93523 87.509L10.5047 87.5443C9.64598 89.4236 9.56326 91.5684 10.3311 93.5672C11.3303 96.1642 13.5877 98.0465 16.2181 98.48C16.6634 98.5538 17.1116 98.5893 17.5597 98.5893C18.7945 98.5893 20.0194 98.305 21.1474 97.8039L19.6418 105.628C19.2215 107.806 20.2917 109.999 22.2652 111.01C24.2373 112.021 26.645 111.608 28.1661 109.995L40.6388 96.7814L43.8315 103.115C44.6596 104.758 46.3255 105.812 48.1653 105.856C48.2057 105.857 48.2461 105.858 48.285 105.858C50.079 105.858 51.7393 104.893 52.6258 103.327L55.8505 97.6283C56.8706 97.7215 58.0369 97.8509 58.7063 98.0117C58.9554 99.0478 59.1294 101.274 59.2101 102.307C59.4119 104.904 61.5775 106.908 64.1828 106.908C64.3401 106.908 64.4945 106.901 64.649 106.887L67.0859 110.809C68.0045 112.287 69.6147 113.163 71.321 113.163C71.5701 113.163 71.822 113.145 72.0725 113.106C74.0446 112.807 75.6493 111.36 76.1503 109.429L82.0707 86.6329L87.6436 89.0042C86.8669 89.1893 86.1163 89.4754 85.4095 89.8735C82.7151 91.3919 81.0325 94.2631 80.7931 97.7473C80.5718 100.933 82.0137 103.911 84.6496 105.712C86.2014 106.773 87.9981 107.315 89.7726 107.315C90.9973 107.315 92.2123 107.057 93.3271 106.53C96.6714 104.953 99.0527 101.272 99.1181 97.5789C99.1442 96.0874 98.7872 94.6933 98.1315 93.4672L102.72 95.4196C104.567 96.208 106.711 95.8065 108.152 94.4036C109.592 93.0014 110.05 90.8714 109.314 89.0009L106.784 82.5801C106.969 82.4674 107.15 82.3498 107.329 82.2253C112.035 78.9505 113.216 72.4734 109.981 67.7498C112.529 65.3393 114.704 61.2539 115.353 54.3857C115.65 51.232 115.785 48.7047 115.76 46.6219L118.832 42.9665C119.922 41.6701 120.278 39.9089 119.78 38.2903Z" fill="#231F20"/>
<path d="M118.104 37.5232C117.606 35.9046 116.321 34.6493 114.691 34.19L103.29 30.9753C104.293 30.9369 105.285 30.7145 106.202 30.282C106.203 30.2813 106.203 30.2813 106.203 30.2813C109.187 28.8736 111.23 25.7137 111.289 22.418C111.34 19.4773 109.811 16.9172 107.194 15.5679C104.461 14.1623 101.508 14.1351 99.0887 15.4983C96.6838 16.8532 95.1835 19.3848 94.9734 22.4438C94.7757 25.292 93.4174 15.9319 93.4174 15.9319C93.3659 15.586 93.2796 15.2527 93.1586 14.9347C92.8315 13.211 91.6193 11.7789 89.9604 11.177C88.2304 10.55 86.3015 10.923 84.932 12.1491L82.8945 13.9723C82.381 13.7406 81.8201 13.5924 81.2286 13.5464C79.6685 13.4247 76.1015 13.147 75.1078 12.6961C74.6569 11.7024 74.3799 8.13468 74.2574 6.57385C74.0556 3.97757 71.8887 1.97348 69.2848 1.97348C68.0294 1.97348 66.8743 2.43971 65.9933 3.21351L65.7818 2.78486C64.9426 1.0779 63.2057 0 61.3073 0C61.2837 0 61.2586 0 61.2336 0.000695466C59.3074 0.0285298 57.5691 1.16418 56.7703 2.91707L47.1478 23.9977L38.8698 14.5826C37.7843 13.3467 36.1587 12.7281 34.522 12.9243C32.8881 13.1227 31.4574 14.1143 30.6975 15.5749L25.6845 25.214L10.5592 20.5183C8.7012 19.9428 6.68319 20.4961 5.37914 21.9372C4.12518 23.3241 3.75637 25.2899 4.40771 27.0296C4.47451 27.3657 4.57471 27.6983 4.71249 28.0212L9.54181 39.3666C7.8272 40.9135 6.38675 42.7944 5.26641 44.9572L2.65412 46.5987C2.44536 46.7302 2.24774 46.8764 2.06403 47.0357C0.963165 47.8325 0.22833 49.0503 0.0446214 50.4135C-0.16553 51.9729 0.374462 53.5407 1.49898 54.6416L2.52052 55.6422C2.42588 57.2712 2.44536 58.9448 2.57897 60.6441C2.92133 64.9515 3.99297 68.7169 5.773 71.8851L1.73697 78.1424L1.19698 78.9294C0.153177 80.4492 0.0320959 82.4199 0.882446 84.0551C1.7328 85.6904 3.4154 86.7231 5.25945 86.7419L8.8289 86.7772C7.9702 88.6566 7.88748 90.8013 8.65528 92.8001C9.65454 95.3971 11.9119 97.2794 14.5423 97.7129C14.9877 97.7867 15.4358 97.8222 15.8839 97.8222C17.1187 97.8222 18.3437 97.5379 19.4717 97.0368L17.966 104.861C17.5457 107.039 18.6159 109.232 20.5894 110.243C22.5615 111.254 24.9692 110.84 26.4903 109.227L38.9631 96.0143L42.1557 102.348C42.9838 103.991 44.6497 105.045 46.4896 105.089C46.5299 105.09 46.5703 105.09 46.6092 105.09C48.4032 105.09 50.0635 104.126 50.9501 102.56L54.1747 96.8612C55.1948 96.9544 56.3611 97.0839 57.0305 97.2446C57.2797 98.2807 57.4536 100.507 57.5344 101.54C57.7362 104.137 59.9017 106.141 62.507 106.141C62.6643 106.141 62.8188 106.134 62.9732 106.12L65.4102 110.042C66.3287 111.52 67.9389 112.396 69.6452 112.396C69.8943 112.396 70.1462 112.378 70.3968 112.339C72.3688 112.039 73.9735 110.593 74.4745 108.662L80.395 85.8658L85.9678 88.2371C85.1911 88.4222 84.4406 88.7083 83.7337 89.1064C81.0393 90.6248 79.3567 93.496 79.1173 96.9802C78.8961 100.166 80.3379 103.143 82.9738 104.945C84.5256 106.006 86.3224 106.548 88.0968 106.548C89.3215 106.548 90.5365 106.289 91.6513 105.763C94.9956 104.186 97.3769 100.505 97.4423 96.8118C97.4684 95.3204 97.1114 93.9262 96.4557 92.7001L101.044 94.6525C102.891 95.4409 105.036 95.0394 106.476 93.6365C107.916 92.2344 108.374 90.1043 107.638 88.2338L105.108 81.8131C105.293 81.7003 105.474 81.5827 105.654 81.4582C110.359 78.1834 111.541 71.7063 108.305 66.9827C110.853 64.5723 113.028 60.4868 113.677 53.6186C113.975 50.465 114.11 47.9376 114.085 45.8548L117.156 42.1994C118.246 40.903 118.602 39.1418 118.104 37.5232Z" fill="white"/>
<path d="M48.7086 33.8607L61.5289 5.77295L73.4893 30.0676L88.4802 16.6509L90.9181 33.3923L113.337 38.991L92.5986 63.6722L102.997 90.063L77.0208 79.0097L69.6468 107.409L55.4241 84.5272L46.6088 100.102L40.2156 87.4196L22.8632 105.804L27.4496 81.973L5.30769 81.7537L17.7785 63.6037L4.98828 51.077L17.0813 44.3472L9.3015 26.0676L28.4081 31.9987L35.3446 18.6615L48.7086 33.8607Z" fill="#22093A" stroke="#22093A" stroke-miterlimit="10" stroke-linecap="round" stroke-linejoin="round"/>
<path d="M48.4874 33.0756L61.3077 4.98779L73.268 29.2825L88.259 15.8657L90.6969 32.6072L113.338 38.9909L92.3774 62.887L102.11 88.5671L76.7995 78.2246L69.4256 106.623L55.2029 83.7421L46.3876 99.3173L39.9944 86.6344L23.4452 104.168L27.2284 81.1878L5.89047 80.9068L17.5573 62.8185L5.30859 50.8222L16.8601 43.562L9.08026 25.2824L28.1869 31.2135L35.1234 17.8763L48.4874 33.0756Z" fill="#9736FF" stroke="#22093A" stroke-miterlimit="10" stroke-linecap="round" stroke-linejoin="round"/>
<path d="M22.476 40.3338C28.8622 39.3263 39.2485 44.6134 39.8297 57.1666C40.4109 69.7198 32.8667 76.3292 25.8741 77.3801C19.5649 78.3282 10.6347 74.3236 9.57454 60.9879C8.706 50.0624 13.0959 41.8138 22.476 40.3338Z" fill="#22093A" stroke="#22093A" stroke-miterlimit="10" stroke-linecap="round" stroke-linejoin="round"/>
<path d="M24.4279 49.9085C25.3086 49.3413 26.8524 51.6316 27.1359 57.4457C27.4195 63.2598 26.4663 66.4437 25.5011 67.0404C24.6302 67.5789 23.3116 65.8608 22.9482 59.6912C22.6504 54.6366 23.1343 50.7416 24.4279 49.9085Z" fill="#22093A" stroke="#22093A" stroke-miterlimit="10" stroke-linecap="round" stroke-linejoin="round"/>
<path d="M58.3784 37.9082C54.2054 37.9081 53.1019 42.7015 51.3364 46.2344C49.9195 42.9278 49.0574 38.1628 44.9718 38.2061C40.2494 38.2561 36.9336 44.7837 35.2889 52.3059C33.5046 60.467 32.4747 71.651 37.6808 71.9744C43.683 72.3473 45.816 55.8948 45.816 55.8948C45.816 55.8948 45.3223 67.5062 50.5827 67.5256C56.5889 67.5476 56.5004 56.1491 56.5004 56.1491C56.5004 56.1491 56.6205 72.2418 63.2454 72.1464C66.2733 72.1028 67.9114 68.1107 67.9327 63.9459C67.9558 59.4407 67.4518 37.9084 58.3784 37.9082Z" fill="#22093A" stroke="#22093A" stroke-miterlimit="10" stroke-linecap="round" stroke-linejoin="round"/>
<path d="M88.5573 51.5956C91.642 52.8944 96.4624 39.1707 81.3745 39.1704C61.3083 39.17 58.5732 64.8567 70.6168 72.1468C78.7266 77.0557 93.8347 75.9346 90.9308 61.0882C89.5067 53.8069 81.7116 53.2975 79.1208 57.2095C76.5301 61.1216 81.2794 65.9617 81.2794 65.9617C74.5704 65.0187 71.4107 56.2383 76.4065 51.9086C79.9523 48.8355 82.8554 49.1948 88.5573 51.5956Z" fill="#22093A" stroke="#22093A" stroke-miterlimit="10" stroke-linecap="round" stroke-linejoin="round"/>
<path d="M103.713 38.3819C100.602 38.371 96.7787 39.9619 95.0537 53.1009C93.5136 64.8318 98.1227 65.3436 99.3148 65.3478C100.507 65.3519 107.5 65.9786 108.711 53.1488C109.922 40.319 108.324 38.3981 103.713 38.3819Z" fill="#22093A" stroke="#22093A" stroke-miterlimit="10" stroke-linecap="round" stroke-linejoin="round"/>
<path d="M99.6889 78.3402C102.701 78.3402 105.143 75.8981 105.143 72.8857C105.143 69.8732 102.701 67.4312 99.6889 67.4312C96.6764 67.4312 94.2344 69.8732 94.2344 72.8857C94.2344 75.8981 96.6764 78.3402 99.6889 78.3402Z" fill="#22093A" stroke="#22093A" stroke-miterlimit="10" stroke-linecap="round" stroke-linejoin="round"/>
<path d="M20.4525 39.5951C26.8388 38.5875 37.2251 43.8747 37.8063 56.4279C38.3874 68.9811 30.8433 75.5904 23.8507 76.6413C17.5415 77.5894 8.61126 73.5848 7.55111 60.2491C6.68256 49.3236 11.0725 41.075 20.4525 39.5951Z" fill="#FCC707" stroke="#22093A" stroke-miterlimit="10" stroke-linecap="round" stroke-linejoin="round"/>
<path d="M22.4044 49.1697C23.2851 48.6025 24.8289 50.8928 25.1125 56.7069C25.3961 62.521 24.4428 65.7049 23.4777 66.3017C22.6068 66.8401 21.2882 65.122 20.9247 58.9524C20.627 53.8978 21.1108 50.0029 22.4044 49.1697Z" fill="#22093A" stroke="#22093A" stroke-miterlimit="10" stroke-linecap="round" stroke-linejoin="round"/>
<path d="M56.3549 37.1694C52.182 37.1693 51.0785 41.9627 49.3129 45.4956C47.896 42.189 47.0339 37.424 42.9483 37.4673C38.2259 37.5173 34.9102 44.045 33.2655 51.5671C31.4811 59.7282 30.4513 70.9123 35.6574 71.2357C41.6595 71.6085 43.7926 55.1561 43.7926 55.1561C43.7926 55.1561 43.2988 66.7674 48.5592 66.7868C54.5655 66.8089 54.477 55.4103 54.477 55.4103C54.477 55.4103 54.597 71.5031 61.2219 71.4077C64.2498 71.3641 65.8879 67.3719 65.9093 63.2071C65.9323 58.702 65.4283 37.1696 56.3549 37.1694Z" fill="#FCC707" stroke="#22093A" stroke-miterlimit="10" stroke-linecap="round" stroke-linejoin="round"/>
<path d="M86.5338 50.8568C89.6186 52.1557 94.4389 38.432 79.351 38.4316C59.2849 38.4312 56.5497 64.1179 68.5934 71.408C76.7032 76.317 91.8113 75.1959 88.9074 60.3495C87.4832 53.0682 79.6882 52.5587 77.0974 56.4708C74.5066 60.3828 79.256 65.2229 79.256 65.2229C72.5469 64.2799 69.3872 55.4995 74.383 51.1698C77.9289 48.0967 80.832 48.456 86.5338 50.8568Z" fill="#FCC707" stroke="#22093A" stroke-miterlimit="10" stroke-linecap="round" stroke-linejoin="round"/>
<path d="M101.69 37.6436C98.5782 37.6327 94.7553 39.2236 93.0303 52.3626C91.4902 64.0935 96.0992 64.6053 97.2914 64.6095C98.4835 64.6137 105.476 65.2403 106.687 52.4105C107.898 39.5807 106.301 37.6598 101.69 37.6436Z" fill="#FCC707" stroke="#22093A" stroke-miterlimit="10" stroke-linecap="round" stroke-linejoin="round"/>
<path d="M97.6655 77.6019C100.678 77.6019 103.12 75.1598 103.12 72.1474C103.12 69.1349 100.678 66.6929 97.6655 66.6929C94.653 66.6929 92.2109 69.1349 92.2109 72.1474C92.2109 75.1598 94.653 77.6019 97.6655 77.6019Z" fill="#FCC707" stroke="#22093A" stroke-miterlimit="10" stroke-linecap="round" stroke-linejoin="round"/>
<path d="M13.7389 88.2332C12.2901 90.0501 13.589 92.5008 15.3547 92.7919C17.5762 93.1581 20.3658 91.0654 19.1197 88.734C17.8736 86.4026 15.4724 86.0592 13.7389 88.2332Z" fill="#EC6509" stroke="#22093A" stroke-miterlimit="10" stroke-linecap="round" stroke-linejoin="round"/>
<path d="M99.9492 22.7872C99.7807 25.2277 102.372 26.574 104.075 25.7702C106.219 24.759 107.384 21.2777 104.91 20.003C102.437 18.7284 100.151 19.867 99.9492 22.7872Z" fill="#FD32B0" stroke="#22093A" stroke-miterlimit="10" stroke-linecap="round" stroke-linejoin="round"/>
<path d="M32.5784 33.7633C32.4471 35.6638 34.4648 36.7122 35.7915 36.0863C37.4609 35.2988 38.3683 32.5877 36.4418 31.5952C34.5153 30.6026 32.7354 31.4892 32.5784 33.7633Z" fill="white" stroke="#22093A" stroke-miterlimit="10" stroke-linecap="round" stroke-linejoin="round"/>
<path d="M84.0923 97.3256C83.8704 100.538 87.281 102.31 89.5236 101.252C92.3452 99.921 93.879 95.3386 90.6227 93.6608C87.3664 91.983 84.3578 93.4817 84.0923 97.3256Z" fill="#9736FF" stroke="#22093A" stroke-miterlimit="10" stroke-linecap="round" stroke-linejoin="round"/>
<path d="M69.2846 12.9249L63.6914 18.5195L69.286 24.1127L74.8792 18.5181L69.2846 12.9249Z" fill="#EC6509"/>
<path d="M62.5073 87.8359L58.5742 91.7676L62.5059 95.7006L66.4389 91.769L62.5073 87.8359Z" fill="#FCC707"/>
<path d="M62.5079 101.865C62.1363 101.865 61.8259 101.578 61.7981 101.208C61.1829 93.3378 60.938 93.0929 53.0671 92.4777C52.6962 92.4499 52.4102 92.1395 52.4102 91.7679C52.4102 91.3963 52.6962 91.086 53.0678 91.0581C60.938 90.4444 61.1829 90.1994 61.7981 82.3278C61.8259 81.9576 62.1363 81.6709 62.5079 81.6709C62.8795 81.6709 63.1898 81.9576 63.2177 82.3278C63.8314 90.1994 64.0764 90.4444 71.948 91.0581C72.3182 91.086 72.6049 91.3963 72.6049 91.7679C72.6049 92.1395 72.3182 92.4499 71.948 92.4777C64.0764 93.0929 63.8314 93.3378 63.2177 101.208C63.1898 101.578 62.8795 101.865 62.5079 101.865ZM58.5748 91.7679C60.8629 92.3594 61.9164 93.413 62.5079 95.701C63.098 93.413 64.1515 92.3594 66.4395 91.7679C64.1515 91.1778 63.098 90.1243 62.5079 87.8363C61.9164 90.1243 60.8629 91.1778 58.5748 91.7679Z" fill="#22093A"/>
<path d="M69.2858 30.7888C68.9143 30.7888 68.6039 30.5028 68.5761 30.1319C67.8162 20.3953 67.4098 19.9875 57.6732 19.2297C57.3016 19.2005 57.0156 18.8915 57.0156 18.5192C57.0156 18.147 57.3016 17.838 57.6725 17.8088C67.4098 17.0503 67.8176 16.6425 68.5761 6.90592C68.6039 6.53503 68.9143 6.24902 69.2858 6.24902C69.6574 6.24902 69.9678 6.53503 69.9956 6.90592C70.7541 16.6425 71.1619 17.0503 80.8985 17.8088C81.2687 17.838 81.5554 18.147 81.5554 18.5192C81.5554 18.8915 81.2687 19.2005 80.8985 19.2297C71.1619 19.9875 70.7555 20.3953 69.9956 30.1319C69.9678 30.5028 69.6574 30.7888 69.2858 30.7888ZM63.6925 18.5192C67.1621 19.2534 68.551 20.6423 69.2858 24.1133C70.0207 20.6423 71.4082 19.2534 74.8792 18.5192C71.4082 17.7844 70.0207 16.3955 69.2858 12.9245C68.551 16.3955 67.1621 17.7844 63.6925 18.5192Z" fill="#22093A"/>
<path d="M11.0023 51.8662C10.3901 53.793 10.1339 56.1009 10.2915 58.863C10.9139 69.7684 17.76 72.8859 17.76 72.8859" stroke="white" stroke-miterlimit="10" stroke-linecap="round" stroke-linejoin="round"/>
<path d="M17.7589 43.6211C16.5141 43.9129 14.2817 45.4553 13.0391 47.7964" stroke="white" stroke-miterlimit="10" stroke-linecap="round" stroke-linejoin="round"/>
<path d="M43.6693 40.4628C41.7616 39.4747 39.3262 42.411 38.0273 45.577" stroke="white" stroke-miterlimit="10" stroke-linecap="round" stroke-linejoin="round"/>
<path d="M36.8492 49.0859C35.0485 54.6691 34.6168 59.9457 34.5762 62.0969" stroke="white" stroke-miterlimit="10" stroke-linecap="round" stroke-linejoin="round"/>
<path d="M56.8966 40.0736C55.3615 39.394 53.6022 41.8006 52.7402 44.332" stroke="white" stroke-miterlimit="10" stroke-linecap="round" stroke-linejoin="round"/>
<path d="M71.6341 43.1011C66.6822 45.7087 63.435 51.3271 64.0844 59.0527" stroke="white" stroke-miterlimit="10" stroke-linecap="round" stroke-linejoin="round"/>
<path d="M83.0392 56.9654C80.3603 55.9273 78.3714 58.4787 79.4267 60.9197" stroke="white" stroke-miterlimit="10" stroke-linecap="round" stroke-linejoin="round"/>
<path d="M97.0425 69.2002C95.8805 69.2002 93.7954 70.9861 95.1348 73.5027" stroke="white" stroke-miterlimit="10" stroke-linecap="round" stroke-linejoin="round"/>
<path d="M101.467 40.2134C98.3665 40.6253 97.0428 44.7654 96.1626 49.4853C95.2818 54.2084 94.7419 57.7403 95.8721 60.7982" stroke="white" stroke-miterlimit="10" stroke-linecap="round" stroke-linejoin="round"/>
<path d="M64.8965 62.376C65.343 63.8829 65.9095 64.857 66.8448 65.8312" stroke="white" stroke-miterlimit="10" stroke-linecap="round" stroke-linejoin="round"/>
<path d="M29.5152 86.3218L28.2812 93.792L32.5723 89.8067" stroke="#22093A" stroke-miterlimit="10" stroke-linecap="round" stroke-linejoin="round"/>
<path d="M30.2834 81.6694L29.9746 83.5389" stroke="#22093A" stroke-miterlimit="10" stroke-linecap="round" stroke-linejoin="round"/>
<path d="M43.25 86.7793L44.9277 90.3875" stroke="#22093A" stroke-miterlimit="10" stroke-linecap="round" stroke-linejoin="round"/>
<path d="M72.3991 82.7397L71.2812 87.11" stroke="#22093A" stroke-miterlimit="10" stroke-linecap="round" stroke-linejoin="round"/>
<path d="M73.5011 78.4272L73.1367 79.8519" stroke="#22093A" stroke-miterlimit="10" stroke-linecap="round" stroke-linejoin="round"/>
<path d="M84.3867 23.0721L85.2448 22.3057" stroke="#D9BBFF" stroke-miterlimit="10" stroke-linecap="round" stroke-linejoin="round"/>
<path d="M79.1387 27.7591L81.6997 25.4717" stroke="#D9BBFF" stroke-miterlimit="10" stroke-linecap="round" stroke-linejoin="round"/>
<path d="M103.029 21.5483C102.65 21.5483 101.907 22.3601 102.333 23.0637" stroke="white" stroke-miterlimit="10" stroke-linecap="round" stroke-linejoin="round"/>
<path d="M87.8002 95.4683C87.1035 95.4683 85.8534 96.539 86.6565 98.0477" stroke="#D9BBFF" stroke-miterlimit="10" stroke-linecap="round" stroke-linejoin="round"/>
<path d="M20.0859 31.7227L23.9012 32.9133" stroke="#D9BBFF" stroke-miterlimit="10" stroke-linecap="round" stroke-linejoin="round"/>
<path d="M16.2715 30.5322L17.8722 31.0318" stroke="#D9BBFF" stroke-miterlimit="10" stroke-linecap="round" stroke-linejoin="round"/>
<path d="M52.998 30.7664L56.6422 22.2905" stroke="#D9BBFF" stroke-miterlimit="10" stroke-linecap="round" stroke-linejoin="round"/>
<path d="M51.9395 33.2279L52.0439 32.9849" stroke="#D9BBFF" stroke-miterlimit="10" stroke-linecap="round" stroke-linejoin="round"/>
<path d="M60.8379 11.5633L60.9424 11.3203" stroke="#D9BBFF" stroke-miterlimit="10" stroke-linecap="round" stroke-linejoin="round"/>
<path d="M15.334 90.057L15.4385 89.814" stroke="white" stroke-miterlimit="10" stroke-linecap="round" stroke-linejoin="round"/>
</g>
<defs>
<clipPath id="clip0_5_11010">
<rect width="120" height="113.164" fill="white"/>
</clipPath>
</defs>
</svg>
