<svg width="120" height="120" viewBox="0 0 120 120" fill="none" xmlns="http://www.w3.org/2000/svg">
<path d="M51.6528 26.2009L60.9344 5.72266L77.9394 31.2079L93.7179 17.0864L96.8698 37.3447L117.375 33.3229L96.8098 62.4984L113.741 95.4823L82.0263 91.1588L74.2694 113.796L55.6085 95.9509L32.1637 114.277L29.8556 87.0242L6.59313 85.8543L19.6764 67.6899L2.42578 61.3525L17.992 50.8776L10.7541 28.182L30.8644 34.4247L35.5805 18.6179L51.6528 26.2009Z" fill="#22093A" stroke="#22093A" stroke-miterlimit="10" stroke-linecap="round" stroke-linejoin="round"/>
<path d="M50.8492 25.3268L60.9344 5.72266L77.5102 31.5181L93.2886 17.3965L96.0662 36.4706L116.592 33.271L96.0061 61.6243L112.937 94.6081L81.2227 90.2847L73.4658 112.922L54.8049 95.0768L31.9759 112.922L29.052 86.1501L6.59313 85.8543L18.8728 66.8158L2.42578 61.3525L17.1884 50.0035L9.95049 27.3079L30.0608 33.5506L34.7769 17.7438L50.8492 25.3268Z" fill="#9736FF" stroke="#22093A" stroke-miterlimit="10" stroke-linecap="round" stroke-linejoin="round"/>
<path d="M24.16 79.9603C28.7855 79.2865 29.2346 73.7951 30.6211 69.594C32.7256 73.0304 34.4507 78.1729 38.9723 77.4652C44.1988 76.6471 46.82 68.8762 47.4283 60.2727C48.0883 50.9384 44.6391 37.7391 38.8161 38.2213C32.1029 38.7773 35.1801 57.9945 35.1801 57.9945C35.1801 57.9945 31.374 44.3922 25.5399 45.2202C18.8788 46.1657 23.296 59.438 23.296 59.438C23.296 59.438 18.2427 40.9495 10.9148 42.1251C7.56555 42.6624 8.71601 48.022 9.36487 52.6418C10.0668 57.6393 14.1026 81.4253 24.16 79.9603Z" fill="#22093A" stroke="#22093A" stroke-miterlimit="10" stroke-linecap="round" stroke-linejoin="round"/>
<path d="M55.5113 37.9206C61.9737 37.2994 72.0624 43.2311 71.8808 55.8489C71.6993 68.4667 63.7353 74.6323 56.6624 75.26C50.2808 75.8263 41.5735 71.2688 41.3226 57.8375C41.117 46.8337 46.0192 38.8331 55.5113 37.9206Z" fill="#22093A" stroke="#22093A" stroke-miterlimit="10" stroke-linecap="round" stroke-linejoin="round"/>
<path d="M56.8833 47.636C57.8006 47.121 59.2086 49.5106 59.139 55.3555C59.0693 61.2004 57.9201 64.3337 56.9163 64.8731C56.0107 65.3598 54.7935 63.5574 54.8048 57.3513C54.814 52.2669 55.536 48.3923 56.8833 47.636Z" fill="#22093A" stroke="#22093A" stroke-miterlimit="10" stroke-linecap="round" stroke-linejoin="round"/>
<path d="M76.0524 76.2034C80.6968 76.7317 82.5317 71.5365 84.9439 67.828C86.1023 71.6875 86.4586 77.0999 91.0112 77.5689C96.2735 78.111 100.79 71.2657 103.573 63.102C106.592 54.2448 106.612 41.2341 100.858 40.2152C94.2254 39.0404 92.3107 57.775 92.3107 57.775C92.3107 57.775 92.3519 44.3203 86.4997 43.6329C79.8177 42.848 80.4515 56.1396 80.4515 56.1396C80.4515 56.1396 80.3074 37.9635 72.9221 37.231C69.5466 36.8963 69.2657 41.3822 68.7147 46.0148C68.1188 51.026 65.954 75.0546 76.0524 76.2034Z" fill="#22093A" stroke="#22093A" stroke-miterlimit="10" stroke-linecap="round" stroke-linejoin="round"/>
<path d="M111.555 42.8956C108.513 42.541 106.485 44.1422 103.232 57.7817C100.327 69.9595 104.774 71.0064 105.939 71.1422C107.104 71.2781 113.868 72.7086 116.582 59.3379C119.296 45.9671 116.062 43.421 111.555 42.8956Z" fill="#22093A" stroke="#22093A" stroke-miterlimit="10" stroke-linecap="round" stroke-linejoin="round"/>
<path d="M103.384 83.7439C106.348 83.7439 108.752 81.3405 108.752 78.3758C108.752 75.4112 106.348 73.0078 103.384 73.0078C100.419 73.0078 98.0156 75.4112 98.0156 78.3758C98.0156 81.3405 100.419 83.7439 103.384 83.7439Z" fill="#22093A" stroke="#22093A" stroke-miterlimit="10" stroke-linecap="round" stroke-linejoin="round"/>
<path d="M20.7108 79.315C25.3363 78.6412 25.7854 73.1498 27.1719 68.9487C29.2764 72.3851 31.0015 77.5276 35.5231 76.8199C40.7496 76.0019 43.3708 68.2309 43.9791 59.6274C44.6391 50.2931 43.9746 37.73 38.1517 38.2122C31.4384 38.7682 31.7309 57.3492 31.7309 57.3492C31.7309 57.3492 30.4032 44.3989 24.5691 45.227C17.908 46.1724 19.8468 58.7928 19.8468 58.7928C19.8468 58.7928 17.115 40.9743 9.78709 42.1498C6.43786 42.6871 5.26681 47.3767 5.91567 51.9966C6.61764 56.994 10.6534 80.78 20.7108 79.315Z" fill="#FCC707" stroke="#22093A" stroke-miterlimit="10" stroke-linecap="round" stroke-linejoin="round"/>
<path d="M52.062 37.2751C58.5245 36.6539 68.6132 42.5856 68.4316 55.2034C68.25 67.8212 60.286 73.9868 53.2132 74.6144C46.8316 75.1808 38.1243 70.6233 37.8734 57.192C37.6678 46.1882 42.57 38.1876 52.062 37.2751Z" fill="#FCC707" stroke="#22093A" stroke-miterlimit="10" stroke-linecap="round" stroke-linejoin="round"/>
<path d="M53.4341 46.9905C54.3514 46.4755 55.7594 48.8651 55.6897 54.71C55.6201 60.5549 54.4709 63.6882 53.4671 64.2276C52.5615 64.7143 51.3443 62.9119 51.3555 56.7058C51.3648 51.6214 52.0868 47.7468 53.4341 46.9905Z" fill="#22093A" stroke="#22093A" stroke-miterlimit="10" stroke-linecap="round" stroke-linejoin="round"/>
<path d="M72.6032 75.5581C77.2476 76.0865 79.0825 70.8913 81.4947 67.1828C82.6531 71.0423 83.0094 76.4547 87.562 76.9237C92.8242 77.4658 97.3409 70.6205 100.124 62.4567C103.143 53.5995 105.704 41.2824 99.9511 40.2635C93.3181 39.0887 88.8615 57.1298 88.8615 57.1298C88.8615 57.1298 90.8809 44.2692 85.0286 43.5818C78.3467 42.7969 77.0023 55.4943 77.0023 55.4943C77.0023 55.4943 78.9058 37.5684 71.5204 36.836C68.1449 36.5012 65.8164 40.737 65.2655 45.3696C64.6695 50.3808 62.5048 74.4094 72.6032 75.5581Z" fill="#FCC707" stroke="#22093A" stroke-miterlimit="10" stroke-linecap="round" stroke-linejoin="round"/>
<path d="M110.006 42.5988C106.964 42.2442 103.036 43.4972 99.7826 57.1368C96.8779 69.3146 101.324 70.3615 102.49 70.4973C103.655 70.6331 110.419 72.0637 113.133 58.693C115.846 45.3222 114.513 43.1242 110.006 42.5988Z" fill="#FCC707" stroke="#22093A" stroke-miterlimit="10" stroke-linecap="round" stroke-linejoin="round"/>
<path d="M102.022 83.278C104.987 83.278 107.39 80.8747 107.39 77.91C107.39 74.9453 104.987 72.542 102.022 72.542C99.0576 72.542 96.6543 74.9453 96.6543 77.91C96.6543 80.8747 99.0576 83.278 102.022 83.278Z" fill="#FCC707" stroke="#22093A" stroke-miterlimit="10" stroke-linecap="round" stroke-linejoin="round"/>
<path d="M11.0605 62.0938C12.2382 66.5529 11.7217 64.4565 11.7217 64.4565" stroke="white" stroke-miterlimit="10" stroke-linecap="round" stroke-linejoin="round"/>
<path d="M10.1726 45.2563C8.54915 46.3671 7.5337 48.6279 10.0116 58.1026" stroke="white" stroke-miterlimit="10" stroke-linecap="round" stroke-linejoin="round"/>
<path d="M30.9609 69.2729C31.7875 71.5125 33.6672 73.388 34.778 73.2171" stroke="white" stroke-miterlimit="10" stroke-linecap="round" stroke-linejoin="round"/>
<path d="M49.3915 40.8809C46.1446 42.0096 42.4692 45.0001 41.3164 52.5191" stroke="white" stroke-miterlimit="10" stroke-linecap="round" stroke-linejoin="round"/>
<path d="M102.099 61.1714C101.965 62.1308 101.911 62.9278 101.967 63.5212" stroke="white" stroke-miterlimit="10" stroke-linecap="round" stroke-linejoin="round"/>
<path d="M109.629 45.2563C107.389 45.9399 104.74 49.1013 103.715 53.5443" stroke="white" stroke-miterlimit="10" stroke-linecap="round" stroke-linejoin="round"/>
<path d="M101.318 75.3062C100.058 75.5885 98.9474 77.3828 99.5455 78.8354" stroke="white" stroke-miterlimit="10" stroke-linecap="round" stroke-linejoin="round"/>
<path d="M68.1055 62.9434C68.1055 66.4465 70.1538 71.1897 72.3754 71.6377" stroke="white" stroke-miterlimit="10" stroke-linecap="round" stroke-linejoin="round"/>
<path d="M84.9365 67.2905C84.8287 69.3908 86.0061 72.1208 87.7562 73.2283" stroke="white" stroke-miterlimit="10" stroke-linecap="round" stroke-linejoin="round"/>
<path d="M48.2658 82.1138C46.7408 84.0261 48.1081 86.6055 49.9665 86.9119C52.3047 87.2974 55.2408 85.0948 53.9293 82.6409C52.6178 80.187 50.0904 79.8256 48.2658 82.1138Z" fill="#EC6509" stroke="#22093A" stroke-miterlimit="10" stroke-linecap="round" stroke-linejoin="round"/>
<path d="M100.866 20.0168C100.688 22.5855 103.415 24.0025 105.209 23.1565C107.465 22.0921 108.691 18.4279 106.087 17.0864C103.484 15.7448 101.078 16.9432 100.866 20.0168Z" fill="#9736FF" stroke="#22093A" stroke-miterlimit="10" stroke-linecap="round" stroke-linejoin="round"/>
<path d="M36.2154 28.7094C36.0772 30.7097 38.2009 31.8132 39.5974 31.1544C41.3544 30.3255 42.3095 27.4721 40.2818 26.4273C38.2541 25.3826 36.3807 26.3158 36.2154 28.7094Z" fill="white" stroke="#22093A" stroke-miterlimit="10" stroke-linecap="round" stroke-linejoin="round"/>
<path d="M75.6353 100.918C75.4972 102.918 77.6208 104.022 79.0173 103.363C80.7743 102.534 81.7294 99.6806 79.7017 98.6358C77.6741 97.5911 75.8006 98.5243 75.6353 100.918Z" fill="white" stroke="#22093A" stroke-miterlimit="10" stroke-linecap="round" stroke-linejoin="round"/>
<path d="M23.8184 94.0752L21.8617 97.2776L19.6816 98.2119L22.6227 99.841L23.8184 102.349L25.197 99.6344L27.9551 98.2119L25.197 96.7894L23.8184 94.0752Z" fill="#EC6509"/>
<path d="M23.8188 108.839C23.427 108.839 23.1018 108.538 23.071 108.148C22.4258 99.8628 22.168 99.605 13.8835 98.959C13.4924 98.9297 13.1914 98.603 13.1914 98.2119C13.1914 97.8208 13.4924 97.4941 13.8835 97.4648C22.168 96.8189 22.4258 96.561 23.071 88.2759C23.1018 87.8862 23.427 87.5845 23.8188 87.5845C24.2107 87.5845 24.5359 87.8862 24.5667 88.2759C25.2112 96.561 25.469 96.8189 33.7542 97.4648C34.1453 97.4941 34.4463 97.8208 34.4463 98.2119C34.4463 98.603 34.1453 98.9297 33.7542 98.959C25.469 99.605 25.2112 99.8628 24.5667 108.148C24.5359 108.538 24.2107 108.839 23.8188 108.839ZM19.6821 98.2119C22.0881 98.833 23.1978 99.9434 23.8188 102.349C24.4399 99.9434 25.5496 98.833 27.9556 98.2119C25.5496 97.5908 24.4399 96.4805 23.8188 94.0752C23.1978 96.4805 22.0881 97.5908 19.6821 98.2119Z" fill="#22093A"/>
<path d="M72.127 14.0859L69.759 17.5823L66.1328 19.864L69.759 22.3671L71.9116 25.8596L73.9706 21.7623L77.9058 20.0793L73.8603 17.0127L72.127 14.0859Z" fill="#EC6509"/>
<path d="M71.7968 32.8843C71.7924 32.8843 71.788 32.8843 71.7836 32.8843C71.391 32.877 71.0717 32.5693 71.0482 32.179C70.4389 21.9177 70.017 21.4812 59.7858 20.4946C59.3961 20.4573 59.1002 20.1262 59.1076 19.7344C59.1149 19.3433 59.4218 19.0232 59.8129 18.9998C70.0741 18.3896 70.5106 17.9692 71.4965 7.7373C71.5346 7.34765 71.9154 7.10449 72.2567 7.05908C72.6493 7.06641 72.9686 7.37329 72.9921 7.7644C73.6015 18.0256 74.0233 18.4622 84.2553 19.448C84.6449 19.4854 84.9408 19.8164 84.9335 20.2083C84.9262 20.5994 84.6185 20.9194 84.2274 20.9429C73.9677 21.553 73.5297 21.9741 72.5438 32.2061C72.5057 32.5913 72.182 32.8843 71.7968 32.8843ZM66.1337 19.864C69.7723 20.7034 71.2064 22.1924 71.9125 25.8596C72.7518 22.2209 74.2401 20.7854 77.9066 20.0793C74.2694 19.24 72.8339 17.751 72.1278 14.0859C71.2885 17.7224 69.7987 19.158 66.1337 19.864Z" fill="#22093A"/>
<path d="M48.4375 95.5446L50.4166 94.1572" stroke="#22093A" stroke-miterlimit="10" stroke-linecap="round" stroke-linejoin="round"/>
<path d="M35.4629 106.139L44.1845 98.5254" stroke="#22093A" stroke-miterlimit="10" stroke-linecap="round" stroke-linejoin="round"/>
<path d="M104.844 90.5396L107.553 90.9871" stroke="#22093A" stroke-miterlimit="10" stroke-linecap="round" stroke-linejoin="round"/>
<path d="M98.4355 89.481L102.632 90.174" stroke="#22093A" stroke-miterlimit="10" stroke-linecap="round" stroke-linejoin="round"/>
<path d="M80.4922 32.9527L87.7548 26.459" stroke="#D9BBFF" stroke-miterlimit="10" stroke-linecap="round" stroke-linejoin="round"/>
<path d="M89.5488 24.9208L90.3178 24.1519" stroke="#D9BBFF" stroke-miterlimit="10" stroke-linecap="round" stroke-linejoin="round"/>
<path d="M17.9766 32.7173L22.6232 34.4905" stroke="#D9BBFF" stroke-miterlimit="10" stroke-linecap="round" stroke-linejoin="round"/>
<path d="M25.1973 35.4697L26.197 35.7275" stroke="#D9BBFF" stroke-miterlimit="10" stroke-linecap="round" stroke-linejoin="round"/>
</svg>
