<svg width="120" height="119" viewBox="0 0 120 119" fill="none" xmlns="http://www.w3.org/2000/svg">
<g clip-path="url(#clip0_4_10980)">
<path opacity="0.5" d="M117.235 70.6509V70.6502C114.803 68.5334 108.669 66.1886 103.416 65.404C108.967 57.6744 113.293 49.135 116.24 40.0869L116.242 40.0817C117.187 36.8898 115.365 33.5364 112.173 32.5916C111.904 32.5121 111.63 32.4514 111.353 32.41C104.758 31.424 98.8827 30.8558 93.846 30.5423C96.8949 27.8531 99.6157 24.8133 101.952 21.4862C105.873 14.9843 101.762 11.3592 100.903 10.703C98.5666 8.98702 95.4426 8.79652 92.9153 10.2159C88.4758 12.4585 79.9189 22.9364 80.0057 28.1477C80.0209 28.8605 80.152 29.5661 80.3938 30.2368C80.3132 30.2387 80.2246 30.2398 80.1455 30.2417C76.8626 14.4038 64.337 4.70948 63.7514 4.26361C63.6675 4.20032 63.5807 4.13854 63.4909 4.07967C63.126 3.7574 62.8817 3.5536 62.8067 3.49179C60.59 1.68655 57.4134 1.67551 55.1842 3.4653C47.6549 10.0895 42.1228 18.6827 39.2099 28.2788C39.0444 20.0638 23.0273 8.8299 22.8419 8.71787C15.7801 4.45785 12.0248 8.32719 11.0404 9.61403C9.19234 12.1154 9.0174 15.4788 10.596 18.1584C12.7391 22.4024 20.663 29.2383 26.9809 32.5327C20.1745 33.2447 12.7443 34.7542 7.35275 37.8524C4.92239 39.2399 3.773 42.1225 4.58189 44.8016C7.42237 54.3173 16.3921 64.1818 22.5663 70.1223C15.8736 69.0792 5.46 75.8266 5.2837 75.9506V75.9513C-0.75245 80.3401 1.61228 85.2299 2.14497 86.1607C3.47134 88.4361 5.94189 89.7975 8.57402 89.7033C8.78739 89.7033 9.01251 89.696 9.22737 89.6805C11.8553 89.4997 16.5263 87.5566 20.5 85.0724C19.4415 90.9829 19.2129 97.0122 19.8208 102.986C19.9311 104.382 20.0768 105.688 20.2666 106.992C20.7555 110.285 23.8214 112.559 27.1145 112.07C27.4156 112.025 27.7129 111.958 28.0038 111.868C34.3253 109.814 40.4268 107.136 46.2182 103.874C47.8244 104.69 49.6443 104.988 51.4267 104.726C51.3065 106.689 51.2851 108.657 51.3626 110.623C52.1882 118.468 57.7667 118.892 58.91 118.897C61.8598 118.825 64.4998 117.048 65.676 114.341C67.0918 111.453 67.8481 104.804 67.4616 99.063C76.0087 104.717 85.3693 109.033 95.2196 111.86C96.8929 112.331 98.6881 112.048 100.136 111.086C101.595 110.125 102.567 108.579 102.799 106.847C103.809 97.7863 103.033 88.6156 100.514 79.8537C103.658 81.2909 106.945 82.3956 110.319 83.1498C111.001 83.2614 111.692 83.3189 112.383 83.322C115.755 83.5513 118.828 81.3932 119.757 78.1439C120.456 75.3679 119.47 72.4392 117.235 70.6509ZM38.4754 31.1508C38.4151 31.4178 38.3385 31.6709 38.2824 31.9413C38.1751 31.9418 38.0556 31.9441 37.9463 31.9449C38.1422 31.6937 38.319 31.4283 38.4754 31.1508Z" fill="#231F20"/>
<path d="M115.993 68.5205V68.5198C113.561 66.403 107.427 64.0583 102.174 63.2737C107.725 55.544 112.05 47.0046 114.998 37.9565L114.999 37.9513C115.944 34.7594 114.123 31.406 110.931 30.4612C110.662 30.3817 110.388 30.321 110.111 30.2796C103.516 29.2936 97.6404 28.7254 92.6038 28.412C95.6526 25.7227 98.3734 22.683 100.71 19.3558C104.631 12.8539 100.52 9.22887 99.6604 8.57257C97.3243 6.85665 94.2003 6.66615 91.673 8.0855C87.2335 10.3281 78.6766 20.806 78.7634 26.0174C78.7786 26.7301 78.9097 27.4357 79.1515 28.1064C79.0709 28.1083 78.9823 28.1095 78.9032 28.1113C75.6203 12.2734 63.0948 2.57909 62.5091 2.13324C62.4253 2.06995 62.3384 2.00817 62.2487 1.9493C61.8837 1.62703 61.6395 1.42322 61.5644 1.36143C59.3478 -0.443825 56.1711 -0.454864 53.942 1.33494C46.4127 7.95909 40.8805 16.5523 37.9676 26.1484C37.8021 17.9334 21.785 6.69952 21.5996 6.5875C14.5378 2.32747 10.7825 6.19681 9.79808 7.48366C7.95005 9.985 7.77512 13.3484 9.35369 16.028C11.4968 20.272 19.4207 27.1079 25.7386 30.4024C18.9323 31.1143 11.502 32.6238 6.11047 35.722C3.68011 37.1095 2.53072 39.9921 3.33961 42.6712C6.18009 52.1869 15.1498 62.0514 21.324 67.992C14.6313 66.9489 4.21772 73.6962 4.04151 73.8202V73.8209C-1.99464 78.2097 0.37009 83.0995 0.902784 84.0303C2.22915 86.3057 4.69969 87.6671 7.33182 87.5729C7.5452 87.5729 7.77031 87.5656 7.98518 87.5501C10.6131 87.3693 15.2842 85.4263 19.2578 82.942C18.1993 88.8525 17.9707 94.8818 18.5786 100.856C18.6889 102.252 18.8346 103.557 19.0244 104.862C19.5133 108.155 22.5793 110.428 25.8725 109.939C26.1735 109.895 26.4708 109.827 26.7617 109.738C33.0831 107.683 39.1846 105.005 44.976 101.744C46.5822 102.56 48.4021 102.857 50.1846 102.595C50.0643 104.559 50.0429 106.527 50.1205 108.493C50.946 116.338 56.5245 116.761 57.6678 116.766C60.6176 116.695 63.2576 114.917 64.4339 112.211C65.8496 109.322 66.6059 102.674 66.2195 96.9326C74.7665 102.587 84.1271 106.902 93.9774 109.73C95.6507 110.2 97.4459 109.918 98.8937 108.956C100.353 107.995 101.325 106.449 101.557 104.717C102.567 95.6561 101.79 86.4854 99.2716 77.7235C102.416 79.1607 105.702 80.2654 109.077 81.0195C109.759 81.1311 110.45 81.1887 111.141 81.1917C114.513 81.421 117.586 79.2628 118.515 76.0135C119.214 73.2374 118.228 70.3088 115.993 68.5205ZM37.2331 29.0204C37.1729 29.2874 37.0962 29.5405 37.0402 29.8109C36.9329 29.8114 36.8134 29.8138 36.704 29.8145C36.8999 29.5633 37.0768 29.2979 37.2331 29.0204Z" fill="white"/>
<path d="M95.5816 103.926C95.5816 103.926 69.4512 96.7095 59.205 82.0424C48.989 96.595 24.9867 103.982 24.9867 103.982C21.9383 83.0908 31.7638 69.2202 31.7638 69.2202C31.7638 69.2202 13.9874 54.4204 10.2383 41.8649C20.9989 35.6829 43.3603 36.8567 43.3603 36.8567C44.8711 18.2423 58.8604 6.93652 58.8604 6.93652C58.8604 6.93652 72.9463 17.6361 73.6308 34.4262C73.6308 34.4262 87.2149 32.9549 109.219 36.2452C109.219 36.2452 103.03 57.0389 89.4563 68.0976C89.4563 68.0976 98.0335 85.5332 95.5816 103.926Z" fill="#22093A" stroke="#22093A" stroke-linecap="round" stroke-linejoin="round"/>
<path d="M94.4586 103.012C94.4586 103.012 69.4479 95.9932 59.2016 81.3262C48.9856 95.8788 24.9039 103.068 24.9039 103.068C21.8556 82.1768 30.6407 68.3061 30.6407 68.3061C30.6407 68.3061 12.8643 53.5063 9.11523 40.9509C19.8758 34.7689 42.2373 35.9427 42.2373 35.9427C43.7481 17.3282 57.7374 6.02246 57.7374 6.02246C57.7374 6.02246 72.6021 18.1717 73.2867 34.9618C84.9073 34.5183 96.5448 34.9727 108.095 36.3211C108.095 36.3211 101.907 56.1248 88.3332 67.1835C88.3332 67.1835 96.9104 84.6192 94.4586 103.012Z" fill="#FCC707" stroke="#22093A" stroke-linecap="round" stroke-linejoin="round"/>
<path d="M42.9193 49.0889C42.9193 49.0889 41.2945 57.8225 46.3722 58.2287C51.4499 58.6349 51.0436 49.0889 51.0436 49.0889" stroke="#22093A" stroke-linecap="round" stroke-linejoin="round"/>
<path d="M67.091 49.0893C67.091 49.0893 66.7411 57.2136 70.9782 57.2136C75.2153 57.2136 75.2154 48.0737 75.2154 48.0737" stroke="#22093A" stroke-linecap="round" stroke-linejoin="round"/>
<path d="M65.0131 63.0253C65.0131 63.0253 65.3281 56.729 59.3182 56.729C54.3605 56.729 54.4415 63.0253 54.4415 63.0253" stroke="#22093A" stroke-linecap="round" stroke-linejoin="round"/>
<path d="M77.0386 70.5278C77.0386 72.1544 75.7201 73.4729 74.0935 73.4729C72.467 73.4729 71.1484 72.1544 71.1484 70.5278C71.1484 68.1514 74.0935 64.1187 74.0935 64.1187C74.0935 64.1187 77.0386 68.1514 77.0386 70.5278Z" fill="#71C1F2" stroke="#22093A" stroke-linecap="round" stroke-linejoin="round"/>
<path d="M48.9674 72.9778C48.9674 75.6138 46.8306 77.7506 44.1947 77.7506C41.5587 77.7506 39.4219 75.6138 39.4219 72.9778C39.4219 68.7961 44.1946 64.752 44.1946 64.752C44.1946 64.752 48.9674 68.7961 48.9674 72.9778Z" fill="#71C1F2" stroke="#22093A" stroke-linecap="round" stroke-linejoin="round"/>
<path d="M51.9117 93.7197C51.9117 95.3462 50.5931 96.6648 48.9666 96.6648C47.34 96.6648 46.0215 95.3462 46.0215 93.7197C46.0215 91.3432 48.9666 87.3105 48.9666 87.3105C48.9666 87.3105 51.9117 91.3432 51.9117 93.7197Z" fill="#71C1F2" stroke="#22093A" stroke-linecap="round" stroke-linejoin="round"/>
<path d="M95.9944 13.3614C98.5601 15.3222 86.1818 26.8274 84.9581 26.2608C83.37 25.5255 93.4287 11.4005 95.9944 13.3614Z" fill="#FCC707" stroke="#22093A" stroke-linecap="round" stroke-linejoin="round"/>
<path d="M6.13653 81.0473C4.62333 78.4006 19.6112 72.9297 20.4681 73.8714C21.5801 75.0934 7.64972 83.6941 6.13653 81.0473Z" fill="#FCC707" stroke="#22093A" stroke-linecap="round" stroke-linejoin="round"/>
<path d="M14.5879 11.1482C17.236 7.68321 32.7738 24.4001 32.0087 26.0528C31.0156 28.1975 11.9398 14.6131 14.5879 11.1482Z" fill="#FCC707" stroke="#22093A" stroke-linecap="round" stroke-linejoin="round"/>
<path d="M112.699 74.4346C111.897 77.3761 97.4305 70.6466 97.4904 69.3748C97.5682 67.7243 113.5 71.493 112.699 74.4346Z" fill="#FCC707" stroke="#22093A" stroke-linecap="round" stroke-linejoin="round"/>
<path d="M57.6641 110.744C54.0489 110.726 57.3303 92.0928 58.8056 91.7722C60.7201 91.3562 61.2793 110.762 57.6641 110.744Z" fill="#FCC707" stroke="#22093A" stroke-linecap="round" stroke-linejoin="round"/>
<path d="M28.1973 59.3335C29.5247 60.6453 30.5826 61.694 30.5826 61.694" stroke="white" stroke-linecap="round" stroke-linejoin="round"/>
<path d="M15.1699 43.3462C17.7054 47.5821 20.6611 51.5518 23.9921 55.1954" stroke="white" stroke-linecap="round" stroke-linejoin="round"/>
<path d="M52.498 17.2454C53.7892 15.4179 54.1681 15.3364 54.1681 15.3364" stroke="white" stroke-linecap="round" stroke-linejoin="round"/>
<path d="M45.6406 35.2666C45.8272 30.3528 47.2869 25.5717 49.8766 21.3916" stroke="white" stroke-linecap="round" stroke-linejoin="round"/>
<path d="M42.3574 91.1282C42.9079 90.7812 43.3971 90.4541 43.805 90.1562" stroke="white" stroke-linecap="round" stroke-linejoin="round"/>
<path d="M28.1445 98.3074C32.2565 96.6302 36.2521 94.6805 40.1044 92.4712" stroke="white" stroke-linecap="round" stroke-linejoin="round"/>
<path d="M88.1367 76.1484C88.9678 78.3878 89.5357 80.7161 89.8289 83.0866" stroke="white" stroke-linecap="round" stroke-linejoin="round"/>
<path d="M85.9531 71.4453C86.1982 71.882 86.4808 72.4049 86.7807 73.0092" stroke="white" stroke-linecap="round" stroke-linejoin="round"/>
<path d="M60.4902 13.5625C62.6632 15.8417 64.4077 18.4938 65.6402 21.3916" stroke="white" stroke-linecap="round" stroke-linejoin="round"/>
<path d="M95.2637 39.2207C96.3878 39.2934 97.373 39.3578 98.1705 39.398" stroke="white" stroke-linecap="round" stroke-linejoin="round"/>
<path d="M79.375 38.9006C83.7523 38.6984 88.1377 38.748 92.5093 39.0492" stroke="white" stroke-linecap="round" stroke-linejoin="round"/>
<path d="M71.6328 87.8208C76.6487 91.1496 81.8716 94.1553 87.2699 96.8196L71.6328 87.8208Z" fill="#22093A"/>
<path d="M71.6328 87.8208C76.6487 91.1496 81.8716 94.1553 87.2699 96.8196" stroke="#22093A" stroke-linecap="round" stroke-linejoin="round"/>
<path d="M67.3574 84.6313C67.9537 85.1314 68.602 85.6408 69.2904 86.1548L67.3574 84.6313Z" fill="#22093A"/>
<path d="M67.3574 84.6313C67.9537 85.1314 68.602 85.6408 69.2904 86.1548" stroke="#22093A" stroke-linecap="round" stroke-linejoin="round"/>
<path d="M91.7617 58.9962C93.9477 56.6388 95.9201 54.092 97.6555 51.3857L91.7617 58.9962Z" fill="#22093A"/>
<path d="M91.7617 58.9962C93.9477 56.6388 95.9201 54.092 97.6555 51.3857" stroke="#22093A" stroke-linecap="round" stroke-linejoin="round"/>
</g>
<defs>
<clipPath id="clip0_4_10980">
<rect width="120" height="118.897" fill="white"/>
</clipPath>
</defs>
</svg>
