<svg width="120" height="132" viewBox="0 0 120 132" fill="none" xmlns="http://www.w3.org/2000/svg">
<g clip-path="url(#clip0_5_10993)">
<path opacity="0.5" d="M13.5287 81.212C15.0342 82.2232 16.8067 82.7632 18.6202 82.7631C19.9264 82.7648 21.2162 82.4724 22.394 81.9076C25.7114 80.2498 27.837 76.8901 27.914 73.1823C27.9531 69.8686 26.093 66.8246 23.1264 65.3476C20.2995 63.8474 16.9064 63.875 14.1044 65.4212C11.3547 67.055 9.6313 69.9813 9.53594 73.1783C9.33094 76.3782 10.8542 79.4432 13.5287 81.212Z" fill="#231F20"/>
<path opacity="0.5" d="M118.07 108.071C117.464 106.76 116.559 105.608 115.43 104.708C113.239 103.087 110.561 102.26 107.837 102.364C108.209 95.4122 107.236 90.2953 104.919 87.0131C108.059 84.8724 109.99 81.364 110.121 77.5663C110.191 73.6724 107.973 70.0988 104.452 68.4339C103.462 67.9526 102.417 67.5928 101.34 67.3624L101.89 66.5735C109.937 66.4791 111.977 62.3919 112.454 59.7479C112.865 56.8841 111.828 54.0029 109.687 52.0571C113.009 46.2385 112.856 39.0629 109.289 33.3912C107.733 30.6544 105.615 28.2777 103.075 26.4169C103.67 20.3419 102.151 10.726 89.3216 3.78606C87.9411 2.9663 86.5138 2.22787 85.0472 1.57455C81.7458 0.0955566 77.8705 1.57291 76.3915 4.87432C75.7415 6.32538 75.6414 7.96335 76.11 9.48275C76.3078 10.1559 76.4527 10.8434 76.5434 11.5391C75.7167 11.2002 74.8339 10.8092 74.108 10.4878C72.9759 9.98565 71.6646 9.40439 70.2463 8.84313C69.2738 7.25291 67.8802 5.96283 66.2198 5.11569C62.8041 3.19851 58.6465 3.15631 55.1926 5.00376C54.2185 5.55497 53.3417 6.26268 52.5973 7.09854C45.3539 9.17181 40.057 15.3822 39.1525 22.862C38.3241 21.1427 36.9498 19.7461 35.2442 18.8901C32.4171 17.3908 29.0247 17.4181 26.2222 18.9628C23.4725 20.5966 21.7491 23.5229 21.6537 26.7199C21.4478 29.9213 22.9727 32.9876 25.6498 34.7552L25.6515 34.7569C26.099 35.0499 26.5711 35.3035 27.0624 35.5149C26.9977 35.6588 26.9194 35.7874 26.8619 35.9394C26.027 38.1312 26.1618 40.5745 27.2329 42.6611C27.4967 43.1799 27.81 43.6721 28.1684 44.1306C27.7776 44.6241 27.4589 45.1706 27.2217 45.7537C26.6221 47.232 23.8045 54.9547 27.2633 61.8931C28.405 64.1712 30.1269 66.1083 32.2556 67.509L32.641 86.4612C30.3328 85.5708 27.8867 85.0913 25.4132 85.0444C15.1642 84.3341 5.80025 90.8468 2.89995 100.702C0.552645 107.673 1.5197 115.334 5.52555 121.502C7.01312 124.24 9.14336 126.576 11.7331 128.308C15.4903 130.521 19.7994 131.621 24.1579 131.479C27.6268 131.517 31.0732 130.917 34.3248 129.708C35.8943 130.534 37.6442 130.958 39.4178 130.942C39.4514 130.942 39.5985 130.941 39.6321 130.94C42.0905 130.943 44.4236 129.855 46.0012 127.97C47.9697 129.767 50.5488 130.749 53.2146 130.714C53.2482 130.714 53.3985 130.713 53.432 130.712C55.6283 130.716 57.7353 129.843 59.2846 128.286C61.1589 129.186 63.2315 129.592 65.3067 129.468C67.7957 129.432 70.2007 128.562 72.138 126.999C73.8488 128.241 75.9037 128.92 78.0177 128.941L78.4159 128.944C82.5889 128.894 86.7388 128.317 90.7672 127.227C92.1343 127.892 93.6315 128.247 95.1518 128.266L95.5516 128.27C97.8622 128.27 118.177 127.919 119.877 115.766C120.339 113.062 119.687 110.286 118.07 108.071Z" fill="#231F20"/>
<path d="M11.8588 80.2071C13.3643 81.2184 15.1367 81.7583 16.9503 81.7582C18.2565 81.7599 19.5463 81.4675 20.7241 80.9027C24.0415 79.2449 26.167 75.8852 26.2441 72.1774C26.2832 68.8637 24.4231 65.8197 21.4564 64.3428C18.6296 62.8425 15.2365 62.8702 12.4345 64.4163C9.68479 66.0501 7.96137 68.9764 7.86602 72.1734C7.66101 75.3734 9.18431 78.4383 11.8588 80.2071Z" fill="white"/>
<path d="M116.4 107.066C115.794 105.755 114.89 104.603 113.76 103.703C111.569 102.082 108.891 101.255 106.167 101.359C106.539 94.4073 105.566 89.2903 103.249 86.0081C106.389 83.8675 108.321 80.359 108.451 76.5614C108.521 72.6675 106.303 69.0939 102.782 67.4291C101.792 66.9477 100.747 66.5879 99.6705 66.3575L100.22 65.5686C108.267 65.4742 110.307 61.387 110.784 58.7429C111.195 55.8792 110.159 52.998 108.017 51.0522C111.34 45.2336 111.186 38.058 107.619 32.3863C106.063 29.6495 103.945 27.2728 101.405 25.412C102 19.337 100.481 9.72111 87.6517 2.78115C86.2712 1.9614 84.844 1.22298 83.3774 0.569669C80.076 -0.909326 76.2007 0.568028 74.7217 3.86943C74.0716 5.32049 73.9716 6.95847 74.4402 8.47786C74.6379 9.15101 74.7828 9.83856 74.8735 10.5343C74.0468 10.1953 73.164 9.80429 72.4382 9.48288C71.306 8.98077 69.9948 8.39951 68.5764 7.83824C67.6039 6.24803 66.2103 4.95795 64.5499 4.11081C61.1343 2.19363 56.9766 2.15142 53.5228 3.99887C52.5486 4.55008 51.6718 5.2578 50.9274 6.09366C43.684 8.16693 38.3871 14.3773 37.4826 21.8571C36.6543 20.1378 35.28 18.7412 33.5743 17.8852C30.7473 16.3859 27.3548 16.4133 24.5524 17.958C21.8027 19.5917 20.0793 22.518 19.9839 25.715C19.7779 28.9164 21.3029 31.9828 23.98 33.7504L23.9816 33.752C24.4291 34.045 24.9012 34.2987 25.3926 34.5101C25.3278 34.654 25.2496 34.7826 25.1921 34.9346C24.3572 37.1264 24.492 39.5697 25.5631 41.6563C25.8269 42.1751 26.1401 42.6672 26.4985 43.1258C26.1078 43.6193 25.7891 44.1658 25.5519 44.7489C24.9522 46.2272 22.1347 53.9499 25.5935 60.8883C26.7352 63.1664 28.4571 65.1034 30.5858 66.5042L30.9711 85.4564C28.663 84.566 26.2168 84.0865 23.7433 84.0396C13.4944 83.3293 4.13042 89.8419 1.23003 99.6975C-1.11729 106.668 -0.150207 114.329 3.85571 120.497C5.34327 123.235 7.47351 125.571 10.0633 127.303C13.8205 129.517 18.1296 130.616 22.488 130.474C25.9569 130.513 29.4033 129.912 32.6549 128.703C34.2244 129.529 35.9743 129.953 37.7479 129.937C37.7815 129.937 37.9286 129.936 37.9622 129.935C40.4206 129.938 42.7537 128.85 44.3313 126.965C46.2999 128.763 48.8789 129.744 51.5447 129.709C51.5783 129.709 51.7286 129.708 51.7622 129.707C53.9584 129.711 56.0654 128.838 57.6148 127.281C59.4891 128.181 61.5617 128.587 63.6369 128.463C66.1258 128.426 68.5308 127.557 70.4681 125.994C72.1789 127.236 74.2338 127.915 76.3478 127.936L76.746 127.939C80.919 127.889 85.0689 127.312 89.0973 126.222C90.4644 126.887 91.9616 127.242 93.4819 127.261L93.8817 127.264C96.1923 127.264 116.507 126.913 118.207 114.761C118.669 112.057 118.017 109.281 116.4 107.066Z" fill="white"/>
<path d="M98.4345 52.3587C100.912 50.1672 106.61 43.8831 101.775 35.7275C99.3618 31.6574 96.626 29.7334 93.6253 29.0409C93.6619 28.9523 93.7096 28.8824 93.7448 28.7913C95.8746 23.2716 96.1308 13.7152 81.8291 7.31055C81.8291 7.31055 84.7986 16.9245 79.6595 18.4708C74.5204 20.0171 64.9749 10.6862 54.7026 12.9353C48.6239 14.1322 44.4711 19.7803 45.1413 25.9393C45.2375 26.7846 45.4302 27.616 45.7157 28.4174C41.2804 28.1994 38.5094 30.0123 39.3037 36.6344C35.3929 36.5069 32.8625 36.9239 32.4541 38.0048C31.431 40.7125 37.1829 42.3186 37.1829 42.3186L37.7605 42.4788L37.8902 48.8423L32.7502 47.9773C32.7502 47.9773 27.8848 59.9647 38.1811 63.12L38.8203 94.4815C38.9592 101.297 43.6779 107.16 50.3056 108.753H50.3057C56.3073 110.196 62.5799 107.813 66.1096 102.749L96.7311 58.8195C96.7311 58.8195 103.745 59.7008 104.125 57.5867C104.285 56.6944 103.127 54.9203 98.4345 52.3587Z" fill="#22093A" stroke="#22093A" stroke-linecap="round" stroke-linejoin="round"/>
<path d="M80.4872 6.54883C80.4872 6.54883 83.4567 16.1628 78.3176 17.7092C73.1785 19.2555 63.633 9.9246 53.3606 12.1736C47.282 13.3706 43.1292 19.0187 43.7994 25.1776C44.6872 32.8262 51.926 34.7857 57.0683 35.2032C65.3886 35.5819 73.7242 35.4546 82.0291 34.8222C86.7684 34.0885 90.585 32.7412 92.4029 28.0297C94.5327 22.51 94.789 12.9535 80.4872 6.54883Z" fill="#71C1F2" stroke="#22093A" stroke-linecap="round" stroke-linejoin="round"/>
<path d="M38.1541 37.177C35.5828 22.2807 48.6041 28.478 60.7106 31.6224C76.6952 35.7741 91.011 19.0722 100.434 34.9657C106.48 45.1635 96.0516 52.442 96.0516 52.442" fill="#71C1F2"/>
<path d="M38.1541 37.177C35.5828 22.2807 48.6041 28.478 60.7106 31.6224C76.6952 35.7741 91.011 19.0722 100.434 34.9657C106.48 45.1635 96.0516 52.442 96.0516 52.442" stroke="#22093A" stroke-linecap="round" stroke-linejoin="round"/>
<path d="M35.8409 41.5569C35.8409 41.5569 30.0891 39.9508 31.1122 37.243C32.52 33.5168 59.0339 37.6341 81.0672 45.0248C99.581 51.235 103.056 55.3031 102.783 56.8249C102.404 58.939 95.3893 58.0577 95.3893 58.0577" fill="#E6E7E8"/>
<path d="M35.8409 41.5569C35.8409 41.5569 30.0891 39.9508 31.1122 37.243C32.52 33.5168 59.0339 37.6341 81.0672 45.0248C99.581 51.235 103.056 55.3031 102.783 56.8249C102.404 58.939 95.3893 58.0577 95.3893 58.0577" stroke="#22093A" stroke-linecap="round" stroke-linejoin="round"/>
<path d="M36.3672 39.1333L37.4797 93.7195C37.6186 100.535 42.3373 106.398 48.965 107.992C54.9667 109.434 61.2392 107.051 64.769 101.987L96.9642 55.7998" fill="#E6E7E8"/>
<path d="M36.3672 39.1333L37.4797 93.7195C37.6186 100.535 42.3373 106.398 48.965 107.991C54.9667 109.434 61.2392 107.051 64.769 101.987L96.9642 55.7998" stroke="#22093A" stroke-linecap="round" stroke-linejoin="round"/>
<path d="M31.408 47.2153L49.4432 50.2504C49.4432 50.2504 48.3118 65.4207 37.3416 62.5115C26.3714 59.6023 31.408 47.2153 31.408 47.2153Z" fill="#22093A" stroke="#22093A" stroke-linecap="round" stroke-linejoin="round"/>
<path d="M53.0393 50.6978L72.4852 53.9702C72.4852 53.9702 71.2653 70.3272 59.437 67.1904C47.6087 64.0537 53.0393 50.6978 53.0393 50.6978Z" fill="#22093A" stroke="#22093A" stroke-linecap="round" stroke-linejoin="round"/>
<path d="M49.0312 54.5029L51.9637 54.7889" stroke="#22093A" stroke-linecap="round" stroke-linejoin="round"/>
<path d="M39.8483 50.4688L32.9531 56.3789" stroke="white" stroke-miterlimit="10" stroke-linecap="round"/>
<path d="M35.2188 59.144L39.2761 55.4233" stroke="white" stroke-miterlimit="10" stroke-linecap="round"/>
<path d="M58.4551 64.1761L68.191 55.75" stroke="white" stroke-miterlimit="10" stroke-linecap="round"/>
<path d="M63.6282 54.2476L59.2266 57.9416" stroke="white" stroke-miterlimit="10" stroke-linecap="round"/>
<path d="M51.1414 66.997C51.1414 66.997 51.4631 74.0454 47.1604 73.4327C43.0433 72.8465 45.4392 66.1147 45.4392 66.1147L51.1414 66.997Z" fill="#22093A" stroke="#22093A" stroke-linecap="round" stroke-linejoin="round"/>
<path d="M47.7248 73.4716C49.1303 73.4074 50.226 72.3965 50.172 71.2136C50.118 70.0308 48.9348 69.1239 47.5293 69.188C46.1238 69.2522 45.0281 70.2631 45.0821 71.446C45.1361 72.6288 46.3193 73.5357 47.7248 73.4716Z" fill="#FD32B0" stroke="#22093A" stroke-linecap="round" stroke-linejoin="round"/>
<path d="M75.0753 30.8749C74.9634 32.7024 76.3541 34.2746 78.1816 34.3865C78.6702 34.4165 79.1594 34.3378 79.6141 34.1562C81.972 33.0438 83.2538 29.2144 80.5326 27.8123C78.9627 26.7117 76.7978 27.0923 75.6973 28.6622C75.2447 29.3078 75.0254 30.0881 75.0753 30.8749Z" fill="#FD32B0" stroke="#22093A" stroke-linecap="round" stroke-linejoin="round"/>
<path d="M81.5208 45.8442C81.4499 47.2293 82.5153 48.4097 83.9005 48.4806C84.2709 48.4995 84.6409 48.4362 84.984 48.2951C86.7616 47.4345 87.7033 44.5239 85.6314 43.4827C84.4338 42.6609 82.7969 42.9655 81.9751 44.163C81.6371 44.6556 81.4769 45.2485 81.5208 45.8442Z" fill="#FD32B0" stroke="#22093A" stroke-linecap="round" stroke-linejoin="round"/>
<path d="M78.0292 73.4971L61.7988 97.8654" stroke="#22093A" stroke-linecap="round" stroke-linejoin="round"/>
<path d="M84.6876 63.502L81.7246 67.9506" stroke="#22093A" stroke-linecap="round" stroke-linejoin="round"/>
<path d="M40.207 40.8257C51.0755 41.0594 70.7499 46.0895 76.4196 48.498" stroke="#22093A" stroke-linecap="round" stroke-linejoin="round"/>
<path d="M54.2582 13.9063C54.113 16.2765 55.9167 18.3156 58.2869 18.4608C58.9207 18.4997 59.5552 18.3976 60.1448 18.1621C63.2031 16.7193 64.8656 11.7526 61.3361 9.93418C57.8067 8.11571 54.546 9.74009 54.2582 13.9063Z" fill="#FD32B0" stroke="#22093A" stroke-linecap="round" stroke-linejoin="round"/>
<path d="M58.7854 11.9536C57.7101 12.0376 56.9064 12.9775 56.9904 14.0528C57.0068 14.2631 57.0572 14.4693 57.1395 14.6634" stroke="white" stroke-linecap="round" stroke-linejoin="round"/>
<path d="M78.3704 29.6812C77.7261 30.0623 77.4011 30.8154 77.5658 31.5457" stroke="white" stroke-linecap="round" stroke-linejoin="round"/>
<path d="M47.6275 24.2706C47.0152 21.7143 48.191 19.0647 50.4973 17.8037" stroke="white" stroke-linecap="round" stroke-linejoin="round"/>
<path d="M84.6881 13.8452C85.1521 15.8709 84.8474 19.5447 81.5176 20.0422" stroke="white" stroke-linecap="round" stroke-linejoin="round"/>
<path d="M90.4805 33.1003C93.3237 32.2298 98.0852 35.8664 97.5878 40.8258" stroke="white" stroke-linecap="round" stroke-linejoin="round"/>
<path d="M92.6276 77.075C92.5877 79.4325 94.4666 81.3761 96.8241 81.416C97.4037 81.4258 97.9792 81.3174 98.5156 81.0976C101.575 79.7339 103.237 75.0393 99.7072 73.3205C96.177 71.6017 92.9154 73.137 92.6276 77.075Z" fill="#FD32B0" stroke="#22093A" stroke-linecap="round" stroke-linejoin="round"/>
<path d="M97.1539 75.2295C96.1324 75.2637 95.3321 76.1196 95.3663 77.1411C95.3738 77.3644 95.4217 77.5845 95.5076 77.7908" stroke="white" stroke-linecap="round" stroke-linejoin="round"/>
<path d="M14.1946 72.559C14.1237 73.9442 15.1891 75.1245 16.5743 75.1954C16.9447 75.2144 17.3148 75.151 17.6578 75.01C19.4355 74.1493 20.3772 71.2388 18.3052 70.1975C17.1076 69.3758 15.4707 69.6804 14.6489 70.8779C14.311 71.3704 14.1507 71.9633 14.1946 72.559Z" fill="#FD32B0" stroke="#22093A" stroke-linecap="round" stroke-linejoin="round"/>
<path d="M26.3118 26.1005C26.2409 27.4857 27.3063 28.666 28.6915 28.7369C29.0619 28.7559 29.4319 28.6925 29.775 28.5515C31.5527 27.6908 32.4944 24.7803 30.4224 23.739C29.2248 22.9173 27.5879 23.2219 26.7661 24.4194C26.4281 24.9119 26.2679 25.5048 26.3118 26.1005Z" fill="#FD32B0" stroke="#22093A" stroke-linecap="round" stroke-linejoin="round"/>
<path d="M96.1426 88.4874C91.8132 87.158 88.4055 95.5407 88.2068 103.893C88.0082 112.246 88.5753 120.621 93.5796 120.714C98.5839 120.807 110.967 119.119 111.705 113.85C112.827 105.847 98.2277 111.45 98.2277 111.45C98.2277 111.45 102.583 90.4652 96.1426 88.4874Z" fill="#22093A" stroke="#22093A" stroke-linecap="round" stroke-linejoin="round"/>
<path d="M51.8824 89.7621C48.481 89.575 47.0478 94.8475 46.312 103.733C45.338 103.618 44.2863 103.552 43.1841 103.514C43.6721 95.7723 42.195 90.2707 38.3362 90.0585C34.6304 89.8546 32.8616 95.7858 32.3443 106.452C31.827 117.117 32.9369 123.474 37.828 123.388C40.2222 123.346 41.3834 119.072 42.18 113.277C42.7255 113.29 43.2948 113.285 43.9102 113.246C44.6914 113.195 45.4064 113.112 46.0831 113.009C46.3654 119.518 47.8904 123.225 51.6288 123.16C54.8447 123.103 55.8372 115.417 56.7073 106.656C57.6906 96.758 56.2688 90.0034 51.8824 89.7621Z" fill="#22093A" stroke="#22093A" stroke-linecap="round" stroke-linejoin="round"/>
<path d="M30.6047 103.747C33.3641 105.027 38.1909 92.72 24.4869 92.2265C6.26126 91.5702 2.93741 114.812 13.6381 121.827C20.8436 126.55 40.5859 123.027 33.1942 113.997C30.2467 110.397 26.3503 113.939 22.5021 113.612C16.3717 113.092 15.5607 106.817 19.5582 103.634C22.8946 100.978 25.5043 101.38 30.6047 103.747Z" fill="#22093A" stroke="#22093A" stroke-linecap="round" stroke-linejoin="round"/>
<path d="M63.3881 121.92C66.3423 121.814 69.9026 119.915 70.9765 105.362C71.9353 92.3692 67.5386 91.9797 66.4069 92.0202C65.2752 92.0608 58.6108 91.635 58.0117 105.827C57.4126 120.019 59.0109 122.077 63.3881 121.92Z" fill="#22093A" stroke="#22093A" stroke-linecap="round" stroke-linejoin="round"/>
<path d="M71.1145 86.2093C72.9244 83.4212 72.3749 79.8518 69.887 78.2368C67.3992 76.6218 63.9152 77.5728 62.1053 80.3609C60.2954 83.149 60.8449 86.7184 63.3327 88.3334C65.8206 89.9484 69.3046 88.9974 71.1145 86.2093Z" fill="#22093A" stroke="#22093A" stroke-linecap="round" stroke-linejoin="round"/>
<path d="M79.1284 89.2237C74.799 87.8942 71.2727 96.2156 71.074 104.568C70.8753 112.921 71.4425 121.295 76.4468 121.389C81.4511 121.482 93.8339 119.794 94.5726 114.525C95.6944 106.522 81.0949 112.125 81.0949 112.125C81.0949 112.125 85.5693 91.2014 79.1284 89.2237Z" fill="#22093A" stroke="#22093A" stroke-linecap="round" stroke-linejoin="round"/>
<path d="M95.6424 88.2851C91.3129 86.9556 87.4036 93.8999 87.2049 102.253C87.0062 110.606 87.5733 118.98 92.5776 119.073C97.5819 119.166 109.965 117.478 110.703 112.209C111.825 104.206 97.2257 109.809 97.2257 109.809C97.2257 109.809 102.083 90.2628 95.6424 88.2851Z" fill="#71C1F2" stroke="#22093A" stroke-linecap="round" stroke-linejoin="round"/>
<path d="M51.6288 89.5064C48.2274 89.3192 46.0478 93.2065 45.312 102.092C44.338 101.977 43.2863 101.911 42.1841 101.873C42.6721 94.1313 41.6868 89.9466 37.8281 89.7344C34.1222 89.5305 31.8616 94.1447 31.3443 104.811C30.827 115.476 31.9369 121.833 36.828 121.747C39.2221 121.704 40.3834 117.431 41.1799 111.636C41.7254 111.649 42.2947 111.644 42.9101 111.605C43.6913 111.554 44.4063 111.471 45.083 111.368C45.3654 117.877 46.8904 121.584 50.6287 121.519C53.8447 121.462 54.8371 113.776 55.7072 105.015C56.6905 95.1169 56.0152 89.7476 51.6288 89.5064Z" fill="#71C1F2" stroke="#22093A" stroke-linecap="round" stroke-linejoin="round"/>
<path d="M29.6028 102.106C32.3622 103.386 37.1889 91.0789 23.4849 90.5854C5.25931 89.9291 1.93546 113.17 12.6361 120.186C19.8417 124.909 39.5839 121.386 32.1923 112.356C29.2448 108.756 25.3483 112.298 21.5001 111.971C15.3698 111.451 14.5587 105.175 18.5563 101.993C21.8926 99.3366 24.5024 99.7387 29.6028 102.106Z" fill="#71C1F2" stroke="#22093A" stroke-linecap="round" stroke-linejoin="round"/>
<path d="M62.3861 120.279C65.3403 120.173 68.9007 118.274 69.9746 103.721C70.9334 90.7281 66.5366 90.3386 65.4049 90.3791C64.2732 90.4197 57.6088 89.9939 57.0097 104.186C56.4106 118.378 58.009 120.436 62.3861 120.279Z" fill="#71C1F2" stroke="#22093A" stroke-linecap="round" stroke-linejoin="round"/>
<path d="M70.1125 84.5682C71.9225 81.7801 71.3729 78.2107 68.8851 76.5957C66.3972 74.9807 62.9132 75.9317 61.1033 78.7198C59.2934 81.5079 59.843 85.0773 62.3308 86.6923C64.8186 88.3073 68.3026 87.3563 70.1125 84.5682Z" fill="#71C1F2" stroke="#22093A" stroke-linecap="round" stroke-linejoin="round"/>
<path d="M78.5096 88.9599C74.1801 87.6304 70.2708 94.5747 70.0721 102.927C69.8734 111.28 70.4405 119.655 75.4448 119.748C80.4492 119.841 92.832 118.153 93.5706 112.884C94.6925 104.881 80.0929 110.484 80.0929 110.484C80.0929 110.484 84.9504 90.9376 78.5096 88.9599Z" fill="#71C1F2" stroke="#22093A" stroke-linecap="round" stroke-linejoin="round"/>
<path d="M17.9718 94.9429C12.5462 96.7986 9.13515 102.171 9.76381 107.871" stroke="white" stroke-linecap="round" stroke-linejoin="round"/>
<path d="M36.748 92.6392C38.2707 92.8257 39.6126 94.3773 39.1462 99.5724" stroke="white" stroke-linecap="round" stroke-linejoin="round"/>
<path d="M50.7168 92.6392C52.2395 92.8257 53.6035 93.9139 52.8262 102.246" stroke="white" stroke-linecap="round" stroke-linejoin="round"/>
<path d="M66.0082 78.4614C64.2018 78.8213 63.0292 80.5775 63.3892 82.3839C63.4827 82.8531 63.676 83.2968 63.9562 83.6847" stroke="white" stroke-linecap="round" stroke-linejoin="round"/>
<path d="M60.3721 105.533C59.9998 110.69 60.5075 114.887 61.5059 116.603" stroke="white" stroke-linecap="round" stroke-linejoin="round"/>
<path d="M60.9769 100.542C60.856 101.255 60.7808 101.735 60.6914 102.429" stroke="white" stroke-linecap="round" stroke-linejoin="round"/>
<path d="M77.2014 92.2129C75.8023 92.2129 74.0923 95.2195 73.4395 100.287" stroke="white" stroke-linecap="round" stroke-linejoin="round"/>
<path d="M90.1566 102.874C90.1489 103.356 90.1606 103.826 90.1956 104.274" stroke="white" stroke-linecap="round" stroke-linejoin="round"/>
<path d="M91.8759 94.3491C91.051 96.3239 90.5279 98.4115 90.3242 100.542" stroke="white" stroke-linecap="round" stroke-linejoin="round"/>
</g>
<defs>
<clipPath id="clip0_5_10993">
<rect width="120" height="131.479" fill="white"/>
</clipPath>
</defs>
</svg>
