<svg width="120" height="120" viewBox="0 0 120 120" fill="none" xmlns="http://www.w3.org/2000/svg">
<path d="M95.0667 45.7429C97.3362 43.7353 102.556 37.9788 98.1267 30.5077C95.9161 26.7792 93.41 25.0167 90.6612 24.3824C90.6947 24.3013 90.7384 24.2372 90.7707 24.1538C92.7217 19.0974 92.9564 10.3431 79.8552 4.47607C79.8552 4.47607 82.5754 13.2831 77.8677 14.6996C73.1599 16.1161 64.4157 7.56835 55.0056 9.62866C49.4372 10.7251 45.633 15.8991 46.2469 21.5411C46.335 22.3155 46.5115 23.0771 46.7731 23.8113C42.71 23.6115 40.1717 25.2723 40.8993 31.3385C37.3168 31.2217 34.9987 31.6037 34.6247 32.5938C33.6874 35.0743 38.9565 36.5456 38.9565 36.5456L39.4857 36.6923L39.6045 42.5216L34.896 41.7292C34.896 41.7292 30.4389 52.7104 39.871 55.601L40.4565 84.3299C40.5837 90.5729 44.9063 95.9444 50.9777 97.4039H50.9778C56.4757 98.7256 62.2217 96.5426 65.4551 91.9039L93.5063 51.6614C93.5063 51.6614 99.9319 52.4687 100.279 50.532C100.426 49.7147 99.3657 48.0895 95.0667 45.7429Z" fill="#22093A" stroke="#22093A" stroke-linecap="round" stroke-linejoin="round"/>
<path d="M78.6263 3.77832C78.6263 3.77832 81.3466 12.5853 76.6388 14.0019C71.9311 15.4184 63.1868 6.87068 53.7767 8.93097C48.2083 10.0274 44.4041 15.2014 45.018 20.8434C45.8313 27.8499 52.4625 29.645 57.1732 30.0275C64.7951 30.3743 72.431 30.2578 80.0387 29.6784C84.3802 29.0064 87.8765 27.7721 89.5418 23.4561C91.4928 18.3996 91.7276 9.64539 78.6263 3.77832Z" fill="#71C1F2" stroke="#22093A" stroke-linecap="round" stroke-linejoin="round"/>
<path d="M39.8453 31.8358C37.4898 18.1899 49.4182 23.867 60.5085 26.7475C75.1513 30.5506 88.2655 15.2507 96.8975 29.8101C102.436 39.1519 92.8829 45.8195 92.8829 45.8195" fill="#71C1F2"/>
<path d="M39.8453 31.8358C37.4898 18.1899 49.4182 23.867 60.5085 26.7475C75.1513 30.5506 88.2655 15.2507 96.8975 29.8101C102.436 39.1519 92.8829 45.8195 92.8829 45.8195" stroke="#22093A" stroke-linecap="round" stroke-linejoin="round"/>
<path d="M37.7286 35.8481C37.7286 35.8481 32.4596 34.3768 33.3968 31.8963C34.6865 28.4829 58.9748 32.2546 79.1587 39.0249C96.1185 44.7139 99.3014 48.4404 99.0514 49.8345C98.7042 51.7712 92.2786 50.9638 92.2786 50.9638" fill="#E6E7E8"/>
<path d="M37.7286 35.8481C37.7286 35.8481 32.4596 34.3768 33.3968 31.8963C34.6865 28.4829 58.9748 32.2546 79.1587 39.0249C96.1185 44.7139 99.3014 48.4404 99.0514 49.8345C98.7042 51.7712 92.2786 50.9638 92.2786 50.9638" stroke="#22093A" stroke-linecap="round" stroke-linejoin="round"/>
<path d="M38.209 33.6279L39.2282 83.6322C39.3554 89.8753 43.6781 95.2467 49.7495 96.7062C55.2474 98.0279 60.9934 95.8449 64.2269 91.2062L93.7196 48.8956" fill="#E6E7E8"/>
<path d="M38.209 33.6279L39.2282 83.6322C39.3554 89.8753 43.6781 95.2467 49.7495 96.7062C55.2474 98.0279 60.9934 95.8449 64.2269 91.2062L93.7196 48.8956" stroke="#22093A" stroke-linecap="round" stroke-linejoin="round"/>
<path d="M33.6666 41.0317L50.1879 43.812C50.1879 43.812 49.1514 57.7089 39.1021 55.0439C29.0528 52.3789 33.6666 41.0317 33.6666 41.0317Z" fill="#22093A" stroke="#22093A" stroke-linecap="round" stroke-linejoin="round"/>
<path d="M53.4817 44.2217L71.2953 47.2195C71.2953 47.2195 70.1778 62.2034 59.3424 59.33C48.5069 56.4565 53.4817 44.2217 53.4817 44.2217Z" fill="#22093A" stroke="#22093A" stroke-linecap="round" stroke-linejoin="round"/>
<path d="M49.8105 47.7075L52.4968 47.9695" stroke="#22093A" stroke-linecap="round" stroke-linejoin="round"/>
<path d="M41.3985 44.0122L35.082 49.4263" stroke="white" stroke-miterlimit="10" stroke-linecap="round"/>
<path d="M37.1582 51.9592L40.875 48.5508" stroke="white" stroke-miterlimit="10" stroke-linecap="round"/>
<path d="M58.4434 56.5685L67.3621 48.8496" stroke="white" stroke-miterlimit="10" stroke-linecap="round"/>
<path d="M63.1826 47.4736L59.1504 50.8576" stroke="white" stroke-miterlimit="10" stroke-linecap="round"/>
<path d="M51.7432 59.1529C51.7432 59.1529 52.038 65.6097 48.0964 65.0484C44.3249 64.5114 46.5197 58.3447 46.5197 58.3447L51.7432 59.1529Z" fill="#22093A" stroke="#22093A" stroke-linecap="round" stroke-linejoin="round"/>
<path d="M48.6139 65.0842C49.9015 65.0254 50.9051 64.0993 50.8556 63.0158C50.8062 61.9322 49.7223 61.1014 48.4348 61.1602C47.1473 61.219 46.1436 62.145 46.1931 63.2286C46.2425 64.3122 47.3264 65.143 48.6139 65.0842Z" fill="#FD32B0" stroke="#22093A" stroke-linecap="round" stroke-linejoin="round"/>
<path d="M73.6685 26.0626C73.566 27.7367 74.84 29.1769 76.514 29.2794C76.9617 29.3069 77.4098 29.2348 77.8263 29.0684C79.9863 28.0494 81.1605 24.5414 78.6677 23.257C77.2295 22.2489 75.2464 22.5974 74.2382 24.0356C73.8237 24.627 73.6227 25.3418 73.6685 26.0626Z" fill="#FD32B0" stroke="#22093A" stroke-linecap="round" stroke-linejoin="round"/>
<path d="M79.5729 39.7752C79.508 41.0441 80.484 42.1253 81.7529 42.1903C82.0922 42.2076 82.4312 42.1496 82.7454 42.0204C84.3739 41.232 85.2365 38.5658 83.3384 37.6119C82.2414 36.8591 80.7419 37.1381 79.9891 38.2351C79.6795 38.6863 79.5327 39.2295 79.5729 39.7752Z" fill="#FD32B0" stroke="#22093A" stroke-linecap="round" stroke-linejoin="round"/>
<path d="M76.3758 65.1069L61.5078 87.4298" stroke="#22093A" stroke-linecap="round" stroke-linejoin="round"/>
<path d="M82.474 55.9512L79.7598 60.0264" stroke="#22093A" stroke-linecap="round" stroke-linejoin="round"/>
<path d="M41.7266 35.1782C51.6827 35.3923 69.7057 40.0002 74.8995 42.2065" stroke="#22093A" stroke-linecap="round" stroke-linejoin="round"/>
<path d="M54.5993 10.5183C54.4663 12.6895 56.1186 14.5575 58.2898 14.6905C58.8704 14.7261 59.4516 14.6326 59.9918 14.4168C62.7933 13.0952 64.3163 8.54539 61.0831 6.87956C57.85 5.21374 54.8629 6.70177 54.5993 10.5183Z" fill="#FD32B0" stroke="#22093A" stroke-linecap="round" stroke-linejoin="round"/>
<path d="M58.7455 8.72949C57.7604 8.80646 57.0243 9.66745 57.1012 10.6525C57.1163 10.8451 57.1624 11.034 57.2378 11.2118" stroke="white" stroke-linecap="round" stroke-linejoin="round"/>
<path d="M76.6861 24.9692C76.0958 25.3184 75.7981 26.0083 75.949 26.6773" stroke="white" stroke-linecap="round" stroke-linejoin="round"/>
<path d="M48.5242 20.0124C47.9632 17.6707 49.0404 15.2435 51.1531 14.0884" stroke="white" stroke-linecap="round" stroke-linejoin="round"/>
<path d="M82.4728 10.4624C82.8978 12.318 82.6187 15.6835 79.5684 16.1392" stroke="white" stroke-linecap="round" stroke-linejoin="round"/>
<path d="M87.7812 28.1012C90.3859 27.3037 94.7477 30.6351 94.292 35.1782" stroke="white" stroke-linecap="round" stroke-linejoin="round"/>
<path d="M89.7467 68.3849C89.7101 70.5445 91.4313 72.3249 93.5909 72.3615C94.1219 72.3705 94.6491 72.2712 95.1404 72.0698C97.9426 70.8206 99.4658 66.5201 96.232 64.9455C92.9981 63.371 90.0103 64.7775 89.7467 68.3849Z" fill="#FD32B0" stroke="#22093A" stroke-linecap="round" stroke-linejoin="round"/>
<path d="M93.8944 66.6943C92.9586 66.7257 92.2255 67.5097 92.2568 68.4455C92.2637 68.6501 92.3075 68.8517 92.3863 69.0407" stroke="white" stroke-linecap="round" stroke-linejoin="round"/>
<path d="M17.8971 64.2478C17.8322 65.5167 18.8082 66.598 20.0771 66.6629C20.4164 66.6803 20.7554 66.6223 21.0696 66.493C22.6981 65.7046 23.5607 63.0384 21.6627 62.0845C20.5657 61.3318 19.0661 61.6108 18.3133 62.7078C18.0037 63.159 17.8569 63.7021 17.8971 64.2478Z" fill="#FD32B0" stroke="#22093A" stroke-linecap="round" stroke-linejoin="round"/>
<path d="M28.9987 21.6892C28.9338 22.9581 29.9097 24.0394 31.1786 24.1043C31.518 24.1217 31.8569 24.0637 32.1712 23.9344C33.7996 23.146 34.6623 20.4798 32.7642 19.5259C31.6672 18.7732 30.1677 19.0522 29.4149 20.1492C29.1053 20.6004 28.9585 21.1435 28.9987 21.6892Z" fill="#FD32B0" stroke="#22093A" stroke-linecap="round" stroke-linejoin="round"/>
<path d="M92.7881 78.8395C88.8221 77.6216 85.7005 85.3007 85.5185 92.9524C85.3365 100.604 85.856 108.275 90.4403 108.361C95.0245 108.446 106.368 106.9 107.045 102.073C108.072 94.7418 94.6982 99.8744 94.6982 99.8744C94.6982 99.8744 98.6884 80.6512 92.7881 78.8395Z" fill="#22093A" stroke="#22093A" stroke-linecap="round" stroke-linejoin="round"/>
<path d="M52.2444 80.0069C49.1285 79.8354 47.8156 84.6654 47.1416 92.8054C46.2494 92.6993 45.2859 92.6392 44.2762 92.6045C44.7232 85.5125 43.3701 80.4727 39.8352 80.2784C36.4405 80.0916 34.8202 85.5249 34.3463 95.2955C33.8725 105.066 34.8892 110.889 39.3697 110.81C41.5629 110.771 42.6267 106.856 43.3563 101.548C43.8561 101.56 44.3776 101.555 44.9413 101.519C45.657 101.473 46.312 101.397 46.9318 101.302C47.1905 107.265 48.5875 110.661 52.0121 110.601C54.9581 110.549 55.8672 103.508 56.6643 95.4828C57.565 86.4154 56.2626 80.2278 52.2444 80.0069Z" fill="#22093A" stroke="#22093A" stroke-linecap="round" stroke-linejoin="round"/>
<path d="M32.7526 92.8177C35.2804 93.9907 39.702 82.7165 27.1483 82.2644C10.4525 81.6632 7.40767 102.954 17.2101 109.38C23.8108 113.707 41.896 110.479 35.1248 102.208C32.4247 98.9094 28.8553 102.154 25.3301 101.855C19.7143 101.379 18.9714 95.6298 22.6333 92.7143C25.6896 90.281 28.0803 90.6494 32.7526 92.8177Z" fill="#22093A" stroke="#22093A" stroke-linecap="round" stroke-linejoin="round"/>
<path d="M62.7821 109.465C65.4883 109.368 68.7498 107.628 69.7336 94.2972C70.6119 82.3949 66.5842 82.0381 65.5475 82.0752C64.5108 82.1124 58.4058 81.7224 57.857 94.7232C57.3082 107.724 58.7724 109.609 62.7821 109.465Z" fill="#22093A" stroke="#22093A" stroke-linecap="round" stroke-linejoin="round"/>
<path d="M69.8625 76.7525C71.5205 74.1984 71.017 70.9286 68.738 69.4492C66.459 67.9698 63.2675 68.8409 61.6095 71.395C59.9515 73.9491 60.4549 77.2189 62.7339 78.6983C65.0129 80.1777 68.2045 79.3066 69.8625 76.7525Z" fill="#22093A" stroke="#22093A" stroke-linecap="round" stroke-linejoin="round"/>
<path d="M77.2035 79.5136C73.2375 78.2958 70.0072 85.9186 69.8252 93.5702C69.6432 101.222 70.1627 108.893 74.7469 108.979C79.3312 109.064 90.6746 107.518 91.3512 102.691C92.3789 95.3597 79.0049 100.492 79.0049 100.492C79.0049 100.492 83.1037 81.3254 77.2035 79.5136Z" fill="#22093A" stroke="#22093A" stroke-linecap="round" stroke-linejoin="round"/>
<path d="M92.3317 78.6541C88.3657 77.4363 84.7845 83.7976 84.6025 91.4493C84.4205 99.101 84.94 106.772 89.5243 106.858C94.1085 106.943 105.452 105.397 106.129 100.57C107.156 93.2388 93.7822 98.3713 93.7822 98.3713C93.7822 98.3713 98.2319 80.4658 92.3317 78.6541Z" fill="#71C1F2" stroke="#22093A" stroke-linecap="round" stroke-linejoin="round"/>
<path d="M52.0102 79.773C48.8943 79.6015 46.8976 83.1624 46.2236 91.3024C45.3314 91.1963 44.3679 91.1363 43.3582 91.1015C43.8052 84.0096 42.9027 80.1762 39.3678 79.9818C35.9731 79.795 33.9022 84.0219 33.4284 93.7925C32.9545 103.563 33.9712 109.386 38.4517 109.307C40.6449 109.268 41.7087 105.353 42.4384 100.045C42.9381 100.057 43.4596 100.052 44.0234 100.016C44.739 99.9703 45.394 99.8941 46.0139 99.7991C46.2725 105.762 47.6695 109.158 51.0941 109.098C54.0401 109.046 54.9492 102.005 55.7463 93.98C56.647 84.9125 56.0284 79.9939 52.0102 79.773Z" fill="#71C1F2" stroke="#22093A" stroke-linecap="round" stroke-linejoin="round"/>
<path d="M31.8346 91.3148C34.3624 92.4878 38.784 81.2135 26.2303 80.7615C9.53456 80.1603 6.4897 101.451 16.2922 107.877C22.8929 112.204 40.978 108.976 34.2068 100.705C31.5067 97.4065 27.9373 100.651 24.4121 100.352C18.7964 99.8759 18.0534 94.1269 21.7154 91.2114C24.7717 88.7781 27.1624 89.1465 31.8346 91.3148Z" fill="#71C1F2" stroke="#22093A" stroke-linecap="round" stroke-linejoin="round"/>
<path d="M61.8661 107.962C64.5723 107.865 67.8338 106.125 68.8175 92.7943C69.6959 80.892 65.6682 80.5352 64.6315 80.5723C63.5948 80.6095 57.4898 80.2194 56.941 93.2203C56.3922 106.221 57.8563 108.106 61.8661 107.962Z" fill="#71C1F2" stroke="#22093A" stroke-linecap="round" stroke-linejoin="round"/>
<path d="M68.9445 75.2491C70.6025 72.695 70.0991 69.4252 67.8201 67.9458C65.5411 66.4663 62.3495 67.3375 60.6915 69.8916C59.0335 72.4456 59.537 75.7154 61.816 77.1949C64.095 78.6743 67.2865 77.8031 68.9445 75.2491Z" fill="#71C1F2" stroke="#22093A" stroke-linecap="round" stroke-linejoin="round"/>
<path d="M76.6364 79.2718C72.6704 78.0539 69.0892 84.4153 68.9072 92.067C68.7252 99.7187 69.2447 107.39 73.8289 107.475C78.4132 107.561 89.7567 106.015 90.4333 101.188C91.461 93.8564 78.0869 98.989 78.0869 98.989C78.0869 98.989 82.5367 81.0835 76.6364 79.2718Z" fill="#71C1F2" stroke="#22093A" stroke-linecap="round" stroke-linejoin="round"/>
<path d="M21.1809 84.7529C16.2107 86.4529 13.086 91.3744 13.6619 96.5956" stroke="white" stroke-linecap="round" stroke-linejoin="round"/>
<path d="M38.3789 82.6426C39.7738 82.8135 41.003 84.2348 40.5758 88.9938" stroke="white" stroke-linecap="round" stroke-linejoin="round"/>
<path d="M51.1758 82.6426C52.5707 82.8135 53.8201 83.8103 53.1081 91.4432" stroke="white" stroke-linecap="round" stroke-linejoin="round"/>
<path d="M65.1833 69.6553C63.5285 69.985 62.4544 71.5937 62.7841 73.2485C62.8698 73.6783 63.0469 74.0847 63.3035 74.4401" stroke="white" stroke-linecap="round" stroke-linejoin="round"/>
<path d="M60.02 94.4541C59.679 99.1783 60.1441 103.023 61.0587 104.595" stroke="white" stroke-linecap="round" stroke-linejoin="round"/>
<path d="M60.576 89.8818C60.4652 90.5348 60.3964 90.9746 60.3145 91.6102" stroke="white" stroke-linecap="round" stroke-linejoin="round"/>
<path d="M75.4364 82.252C74.1548 82.252 72.5883 85.0062 71.9902 89.6486" stroke="white" stroke-linecap="round" stroke-linejoin="round"/>
<path d="M87.3068 92.0181C87.2997 92.4599 87.3105 92.8904 87.3425 93.3006" stroke="white" stroke-linecap="round" stroke-linejoin="round"/>
<path d="M88.8805 84.209C88.1248 86.018 87.6456 87.9304 87.459 89.882" stroke="white" stroke-linecap="round" stroke-linejoin="round"/>
</svg>
