<svg width="120" height="91" viewBox="0 0 120 91" fill="none" xmlns="http://www.w3.org/2000/svg">
<g clip-path="url(#clip0_4_10982)">
<path opacity="0.5" d="M100.329 19.0885L100.327 19.0878C93.4391 14.4834 86.0376 10.6979 78.2726 7.80785C77.7891 6.40011 76.9259 5.15346 75.7782 4.20571C73.5801 2.25236 70.5869 1.45516 67.7083 2.05641C66.4548 2.35462 65.2882 2.94146 64.3015 3.77018C54.096 1.42419 43.5325 1.07849 33.1955 2.75221C10.5224 6.55861 -1.7826 21.85 1.07898 42.6582C3.16753 57.842 16.3531 68.2165 23.5768 72.838L17.3705 82.8984C15.7551 85.1631 16.2815 88.3085 18.5462 89.9239C19.3886 90.5247 20.3956 90.8515 21.4303 90.8599C22.1177 90.86 22.7975 90.7166 23.4263 90.4389L41.9016 82.2869C47.1017 83.7729 62.4655 87.7561 77.7798 87.7554C77.8847 87.7554 77.9882 87.7554 78.0917 87.7547C78.5471 88.2255 79.0563 88.6412 79.6088 88.9929C81.3697 90.1277 83.5077 90.5204 85.5569 90.0856C87.6859 89.5853 89.5685 88.3463 90.8702 86.5889C92.3902 86.292 93.8944 85.919 95.3772 85.4715C107.699 81.7223 117.675 69.7936 119.638 56.4623C120.866 48.1281 119.99 32.19 100.329 19.0885Z" fill="#231F20"/>
<path d="M99.6588 17.3864L99.6573 17.3858C92.7692 12.7813 85.3676 8.99577 77.6026 6.10575C77.1192 4.69801 76.256 3.45135 75.1083 2.50358C72.9101 0.550233 69.9169 -0.246966 67.0384 0.354289C65.7848 0.652494 64.6182 1.23934 63.6316 2.06807C53.4261 -0.277942 42.8626 -0.623659 32.5255 1.05004C9.85239 4.85651 -2.45249 20.1479 0.40905 40.9562C2.4976 56.1399 15.6832 66.5143 22.9069 71.1359L16.7006 81.1963C15.0852 83.461 15.6116 86.6064 17.8763 88.2217C18.7187 88.8226 19.7257 89.1494 20.7603 89.1578C21.4477 89.1579 22.1276 89.0145 22.7564 88.7368L41.2318 80.5848C46.4318 82.0708 61.7956 86.054 77.1099 86.0534C77.2148 86.0534 77.3183 86.0534 77.4218 86.0527C77.8772 86.5235 78.3864 86.9391 78.9389 87.2909C80.6998 88.4257 82.8378 88.8184 84.887 88.3836C87.016 87.8833 88.8985 86.6444 90.2002 84.887C91.7203 84.5901 93.2245 84.2171 94.7072 83.7696C107.029 80.0204 117.005 68.0916 118.968 54.7604C120.196 46.426 119.32 30.4879 99.6588 17.3864Z" fill="white"/>
<path d="M96.915 21.5043C80.0483 10.2644 57.5585 2.37963 34.6835 6.22024C14.725 9.57117 4.13612 22.2924 6.65034 40.574C9.16457 58.8556 31.1248 69.7005 31.1248 69.7005L20.7592 84.2117L40.8971 75.326C40.8971 75.326 72.602 85.3257 93.268 79.0376C112.836 73.0837 127.233 41.7082 96.915 21.5043Z" fill="#22093A" stroke="#22093A" stroke-linecap="round" stroke-linejoin="round"/>
<path d="M95.5751 21.2143C78.7085 9.97437 56.2187 2.08959 33.3436 5.9302C13.3852 9.28113 2.79626 22.0024 5.3105 40.284C7.82474 58.5655 29.785 69.4105 29.785 69.4105L20.9101 83.7953L40.7271 74.5199C40.7271 74.5199 71.2621 85.0357 91.9281 78.7476C111.496 72.7936 125.893 41.4182 95.5751 21.2143Z" fill="#EC6509" stroke="#22093A" stroke-linecap="round" stroke-linejoin="round"/>
<path d="M65.2549 8.31309C64.6895 10.275 65.8215 12.3238 67.7834 12.8893C68.308 13.0405 68.8596 13.0736 69.3985 12.9863C72.2351 12.3479 74.5597 8.49102 71.9383 6.3044C69.3168 4.11777 66.2762 4.87065 65.2549 8.31309Z" fill="#9736FF" stroke="#22093A" stroke-linecap="round" stroke-linejoin="round"/>
<path d="M31.664 12.758C29.7229 12.7355 29.3177 14.6775 29.4884 16.1626C29.6881 17.8992 33.2941 19.1699 34.0954 16.5618C34.744 14.4508 33.9867 12.7849 31.664 12.758Z" fill="white" stroke="#22093A" stroke-linecap="round" stroke-linejoin="round"/>
<path d="M80.1725 79.4648C79.6771 81.1834 80.6687 82.9783 82.3873 83.4737C82.8469 83.6062 83.3302 83.6352 83.8023 83.5587C86.2872 82.9994 88.3236 79.6207 86.0272 77.7052C83.7307 75.7897 81.0671 76.4492 80.1725 79.4648Z" fill="white" stroke="#22093A" stroke-linecap="round" stroke-linejoin="round"/>
<path d="M41.313 29.3361C39.0334 29.0994 37.4419 31.6404 36.6575 37.5876C36.0068 37.478 35.3022 37.3996 34.5628 37.3382C35.1432 32.1517 34.6177 29.3075 32.0316 29.0391C29.548 28.7811 27.8783 31.8081 27.1827 38.9585C26.4871 46.1089 27.0256 50.4164 30.3151 50.5182C31.9253 50.568 32.8451 47.7339 33.5694 43.8659C33.9356 43.8924 34.3183 43.9078 34.7332 43.9013C35.2598 43.8931 35.7429 43.8605 36.2011 43.8129C36.1784 48.1961 37.0823 50.7374 39.5965 50.8152C41.7594 50.8822 42.6771 45.7494 43.5477 39.8908C44.5313 33.2714 44.2527 29.6413 41.313 29.3361Z" fill="#22093A" stroke="#22093A" stroke-linecap="round" stroke-linejoin="round"/>
<path d="M53.2963 52.7318C55.6621 52.4667 57.4914 50.5334 57.6255 48.1566C58.0373 45.3657 59.5363 31.9299 52.5404 30.9737C48.8991 30.476 45.7711 34.1784 43.8459 38.6637C41.7571 43.5299 40.0717 51.0227 42.9112 51.6526C47.4724 52.6645 50.6811 39.6279 50.6811 39.6279C50.6811 39.6279 48.7724 53.0653 53.2963 52.7318Z" fill="#22093A" stroke="#22093A" stroke-linecap="round" stroke-linejoin="round"/>
<path d="M62.2653 32.9575C58.5877 33.7753 54.6546 52.8325 59.8736 53.4016C65.0926 53.9707 65.0139 44.3114 65.0139 44.3114C65.0139 44.3114 66.7098 53.9051 71.1591 53.8349C76.2594 53.7546 79.5814 33.613 75.6242 32.7407C70.2923 31.5652 68.5653 40.1308 68.5653 40.1308C68.5653 40.1308 66.8258 31.9435 62.2653 32.9575Z" fill="#22093A" stroke="#22093A" stroke-linecap="round" stroke-linejoin="round"/>
<path d="M23.1148 27.349C14.8834 26.3677 12.1202 28.1991 12.4962 30.93C13.0611 35.0337 18.3532 34.925 18.3532 34.925C18.3532 34.925 13.637 48.4489 19.1325 49.2241C25.984 50.1905 23.9922 35.0946 23.9922 35.0946C23.9922 35.0946 31.9682 36.3287 32.0187 32.9365C32.0613 30.0861 28.6314 28.0066 23.1148 27.349Z" fill="#22093A" stroke="#22093A" stroke-linecap="round" stroke-linejoin="round"/>
<path d="M79.3086 33.8736C75.7208 34.1559 71.925 53.8169 75.6143 55.4334C79.9555 57.3355 82.5761 48.418 82.5761 48.418C82.5761 48.418 84.9051 56.3554 86.8979 56.992C92.1907 58.683 92.6014 51.9164 88.0031 45.3314C88.0031 45.3314 97.6026 39.8137 92.6037 36.2953C89.1419 33.8589 83.55 42.7536 83.55 42.7536C83.55 42.7536 84.324 33.4789 79.3086 33.8736Z" fill="#22093A" stroke="#22093A" stroke-linecap="round" stroke-linejoin="round"/>
<path d="M106.208 42.8364C106.558 40.3741 105.523 37.2686 100.118 36.6924C94.7956 36.1251 90.265 42.6455 95.1504 46.4738C99.6742 50.0186 97.5845 53.097 95.7144 50.8999C92.1172 46.6734 86.6812 53.5333 91.8606 57.2742C97.0399 61.0152 103.831 58.6545 105.181 55.1625C107.737 48.5477 102.693 46.5099 100.455 45.0042C100.455 45.0042 105.675 46.5947 106.208 42.8364Z" fill="#22093A" stroke="#22093A" stroke-linecap="round" stroke-linejoin="round"/>
<path d="M40.9048 28.527C38.6252 28.2903 37.0337 30.8313 36.2493 36.7785C35.5986 36.6689 34.894 36.5905 34.1546 36.5291C34.735 31.3426 34.2095 28.4984 31.6234 28.23C29.1398 27.972 27.4701 30.999 26.7745 38.1494C26.0789 45.2999 26.6174 49.6073 29.9069 49.7091C31.5171 49.7589 32.4369 46.9248 33.1612 43.0568C33.5274 43.0834 33.9101 43.0987 34.325 43.0923C34.8515 43.084 35.3347 43.0514 35.7929 43.0038C35.7702 47.387 36.674 49.9283 39.1883 50.0061C41.3512 50.0731 42.2689 44.9403 43.1395 39.0817C44.1231 32.4623 43.8445 28.8322 40.9048 28.527Z" fill="#F1F2F2" stroke="#22093A" stroke-linecap="round" stroke-linejoin="round"/>
<path d="M61.8571 32.1485C58.1795 32.9662 54.2464 52.0234 59.4654 52.5925C64.6844 53.1616 64.6057 43.5024 64.6057 43.5024C64.6057 43.5024 66.3016 53.096 70.7509 53.0259C75.8512 52.9455 79.1732 32.8039 75.216 31.9316C69.8841 30.7562 68.157 39.3217 68.157 39.3217C68.157 39.3217 66.4176 31.1344 61.8571 32.1485Z" fill="#F1F2F2" stroke="#22093A" stroke-linecap="round" stroke-linejoin="round"/>
<path d="M22.7066 26.5399C14.4752 25.5586 11.712 27.39 12.088 30.1209C12.6529 34.2246 17.945 34.116 17.945 34.116C17.945 34.116 13.2288 47.6398 18.7243 48.415C25.5758 49.3814 23.584 34.2855 23.584 34.2855C23.584 34.2855 31.56 35.5196 31.6105 32.1274C31.653 29.277 28.2232 27.1975 22.7066 26.5399Z" fill="#F1F2F2" stroke="#22093A" stroke-linecap="round" stroke-linejoin="round"/>
<path d="M78.9023 33.0645C75.3146 33.3469 71.5187 53.0078 75.2081 54.6243C79.5492 56.5264 82.1699 47.6089 82.1699 47.6089C82.1699 47.6089 84.4988 55.5463 86.4916 56.183C91.7844 57.8739 92.1951 51.1073 87.5968 44.5223C87.5968 44.5223 97.1964 39.0046 92.1974 35.4862C88.7357 33.0498 83.1437 41.9445 83.1437 41.9445C83.1437 41.9445 83.9178 32.6698 78.9023 33.0645Z" fill="#F1F2F2" stroke="#22093A" stroke-linecap="round" stroke-linejoin="round"/>
<path d="M105.8 42.0274C106.149 39.565 105.115 36.4595 99.7094 35.8833C94.3874 35.316 89.8568 41.8364 94.7422 45.6647C99.266 49.2096 97.1763 52.288 95.3062 50.0908C91.709 45.8643 86.273 52.7242 91.4523 56.4652C96.6316 60.2061 103.423 57.8455 104.773 54.3534C107.329 47.7386 102.285 45.7008 100.046 44.1951C100.046 44.1951 105.266 45.7856 105.8 42.0274Z" fill="#F1F2F2" stroke="#22093A" stroke-linecap="round" stroke-linejoin="round"/>
<path d="M52.1322 30.1646C48.4908 29.6669 45.3629 33.3693 43.4377 37.8546C41.3489 42.7207 39.6635 50.2136 42.5029 50.8435C44.6596 51.322 46.5131 48.6592 47.8689 45.7192L49.9068 46.0986C50.0578 49.1983 50.7634 52.0793 52.8881 51.9227C55.2538 51.6575 57.0832 49.7243 57.2173 47.3475C57.6291 44.5566 59.1281 31.1208 52.1322 30.1646ZM50.2729 38.8188C50.2729 38.8188 50.0243 40.577 49.9195 42.8034L49.0916 42.679C49.8482 40.5388 50.2729 38.8188 50.2729 38.8188Z" fill="#F1F2F2" stroke="#22093A" stroke-linecap="round" stroke-linejoin="round"/>
<path d="M53.4659 66.6593C52.9003 68.6218 54.0327 70.6713 55.9952 71.2369C56.5199 71.3882 57.0717 71.4213 57.6108 71.334C60.4482 70.6954 62.7736 66.8373 60.1513 64.65C57.529 62.4627 54.4875 63.2158 53.4659 66.6593Z" fill="#9736FF" stroke="#22093A" stroke-linecap="round" stroke-linejoin="round"/>
<path d="M57.4889 66.3262C56.6356 66.5576 56.1314 67.437 56.3629 68.2903C56.388 68.3831 56.4215 68.4733 56.4628 68.5601" stroke="white" stroke-linecap="round" stroke-linejoin="round"/>
<path d="M68.9484 7.37207C68.2202 7.56958 67.7899 8.32007 67.9874 9.04834C68.0089 9.12751 68.0375 9.20458 68.0728 9.27862" stroke="white" stroke-linecap="round" stroke-linejoin="round"/>
<path d="M11.668 48.7891C12.06 49.5299 12.4873 50.283 12.9499 51.0484" stroke="white" stroke-linecap="round" stroke-linejoin="round"/>
<path d="M16.0182 16.8755C13.6682 18.9535 11.7133 21.4394 10.248 24.2132C7.94756 28.8059 6.14969 36.063 10.173 45.6397" stroke="white" stroke-linecap="round" stroke-linejoin="round"/>
<path d="M23.8184 11.8496C22.5236 12.3618 21.2815 12.9981 20.1094 13.7497" stroke="white" stroke-linecap="round" stroke-linejoin="round"/>
<path d="M31.6127 72.4746L27.7383 77.2489" stroke="white" stroke-linecap="round" stroke-linejoin="round"/>
<path d="M92.6866 73.6328C91.7201 74.0176 90.7325 74.3471 89.7285 74.6197" stroke="#22093A" stroke-linecap="round" stroke-linejoin="round"/>
<path d="M104.55 63.8711C102.65 66.9166 100.086 69.4926 97.0488 71.406" stroke="#22093A" stroke-linecap="round" stroke-linejoin="round"/>
<path d="M47.5449 8.20996C48.0616 8.24012 48.5773 8.2786 49.0921 8.3254" stroke="white" stroke-linecap="round" stroke-linejoin="round"/>
<path d="M28.0586 10.3653C33.7062 8.8599 39.5281 8.10856 45.3729 8.13085" stroke="white" stroke-linecap="round" stroke-linejoin="round"/>
</g>
<defs>
<clipPath id="clip0_4_10982">
<rect width="120" height="90.8598" fill="white"/>
</clipPath>
</defs>
</svg>
