<svg width="120" height="128" viewBox="0 0 120 128" fill="none" xmlns="http://www.w3.org/2000/svg">
<g clip-path="url(#clip0_5_10996)">
<path opacity="0.5" d="M118.404 10.9603C116.285 7.5451 112.895 5.11261 108.981 4.19875C103.393 2.43947 97.3451 2.87529 92.0674 5.41752C91.913 5.3436 91.757 5.2716 91.5993 5.20152C84.4887 0.405255 71.9758 1.72585 67.7594 3.15734C66.0083 3.72474 64.4386 4.74535 63.2095 6.11557C62.4823 5.65881 61.7269 5.2487 60.9477 4.88773C57.8092 2.78235 54.0877 1.71808 50.3106 1.84573C46.4054 2.00533 42.6454 3.3701 39.547 5.75257C38.6086 4.72358 37.4171 3.95823 36.0911 3.53266C35.1505 3.02933 34.1159 2.72647 33.0524 2.64321C28.496 2.24796 24.092 4.39283 21.594 8.22376C21.2753 8.05622 20.9528 7.90456 20.6265 7.76879C17.5567 5.46817 13.5245 4.89484 9.93515 6.24861C5.95033 7.74334 3.38467 12.3416 2.09199 20.3047C1.9573 21.135 -1.05833 40.361 6.50716 47.3213C8.72261 49.7792 11.8926 51.159 15.2012 51.1057C18.7486 51.1234 22.0884 49.4352 24.1777 46.5682C24.5499 46.7733 24.9326 46.9589 25.3242 47.1242C27.7044 48.9158 30.7031 49.6793 33.6503 49.2439C36.5098 48.7647 39.0063 47.0343 40.4587 44.5249C41.1533 44.9617 41.8772 45.3503 42.6252 45.6878C42.7218 45.7512 42.8233 45.8045 42.9209 45.8659C39.2512 47.9341 35.8374 50.4268 32.7501 53.2927C24.9292 61.2256 21.8457 72.6811 24.6277 83.4679C25.4822 90.379 28.9788 96.691 34.3845 101.081C39.9347 105.568 46.6076 108.45 53.6795 109.414C56.4873 109.901 59.2624 110.562 61.9891 111.39C63.3508 111.817 65.8015 114.282 67.9647 116.458C71.1536 119.896 74.7436 122.94 78.6577 125.523C80.4083 126.632 82.4345 127.229 84.5068 127.246C86.7338 127.245 88.8986 126.51 90.6663 125.156C95.1045 121.791 96.6107 115.365 94.5953 108.387C93.8257 105.722 92.7137 103.169 91.2872 100.79C90.1495 98.5837 88.7836 96.5025 87.212 94.5806C94.5624 91.2512 98.3272 85.9359 97.5749 79.4503C97.2849 75.2899 94.8402 71.5842 91.1296 69.6804C91.9528 67.0466 92.0058 64.2324 91.2823 61.5695C91.0469 60.6527 90.7234 59.7608 90.3165 58.9061C89.9699 58.1764 89.5499 57.4838 89.0633 56.839C88.7908 56.4751 88.4974 56.1273 88.1845 55.7976C88.1418 55.7508 88.0974 55.7048 88.0531 55.6588C87.1673 54.7253 86.1422 53.9346 85.0144 53.3149C85.5914 51.0305 85.4351 48.6225 84.5676 46.4318C84.3331 45.8351 84.0644 45.2524 83.7627 44.6866C83.1471 43.5166 82.3706 42.4385 81.4559 41.4839C82.5019 40.1791 83.3065 38.698 83.8317 37.1104C84.8481 40.1239 87.145 42.5338 90.1062 43.6937C91.0072 44.3653 92.0128 44.8836 93.0825 45.2279C98.9611 47.1283 107.123 47.8263 112.392 44.0888C115.192 42.1514 116.883 38.98 116.931 35.5755C116.97 34.0643 116.612 32.5693 115.893 31.24C116.496 30.2818 116.915 29.2187 117.126 28.106C117.422 26.5396 117.269 24.9212 116.683 23.4387C117.784 22.4717 118.661 21.275 119.25 19.9327C120.477 16.9873 120.16 13.6243 118.404 10.9603Z" fill="#231F20"/>
<path d="M117.017 9.13892C114.898 5.72377 111.508 3.29129 107.594 2.37741C102.006 0.61814 95.9584 1.05396 90.6807 3.59618C90.5263 3.52228 90.3703 3.45028 90.2126 3.3802C83.102 -1.41608 70.5891 -0.0954683 66.3727 1.336C64.6216 1.90341 63.0519 2.92402 61.8228 4.29423C61.0956 3.83747 60.3402 3.42737 59.561 3.0664C56.4225 0.96103 52.701 -0.103227 48.9239 0.0244392C45.0187 0.184019 41.2587 1.54877 38.1603 3.93123C37.2219 2.90224 36.0304 2.13689 34.7044 1.71134C33.7638 1.208 32.7291 0.90515 31.6656 0.821894C27.1093 0.426636 22.7053 2.5715 20.2072 6.40245C19.8886 6.23491 19.5661 6.08325 19.2398 5.94746C16.17 3.64685 12.1378 3.07352 8.54844 4.42728C4.56363 5.92197 1.99797 10.5203 0.705276 18.4834C0.570584 19.3137 -2.44505 38.5397 5.12044 45.5C7.3359 47.9579 10.5059 49.3377 13.8145 49.2844C17.3619 49.3021 20.7017 47.6139 22.791 44.7468C23.1632 44.952 23.5459 45.1375 23.9375 45.3028C26.3177 47.0944 29.3164 47.8579 32.2635 47.4226C35.1231 46.9433 37.6195 45.2129 39.0719 42.7035C39.7665 43.1404 40.4904 43.5289 41.2384 43.8664C41.335 43.9298 41.4365 43.9832 41.5342 44.0446C37.8644 46.1128 34.4507 48.6055 31.3634 51.4714C23.5425 59.4043 20.459 70.8598 23.241 81.6467C24.0955 88.5577 27.5921 94.8698 32.9978 99.2597C38.5479 103.747 45.2209 106.629 52.2928 107.592C55.1006 108.08 57.8757 108.74 60.6024 109.569C61.9641 109.995 64.4147 112.461 66.578 114.636C69.7669 118.075 73.3569 121.118 77.271 123.702C79.0216 124.811 81.0478 125.408 83.1201 125.425C85.3471 125.424 87.5118 124.689 89.2796 123.335C93.7178 119.97 95.224 113.544 93.2086 106.566C92.439 103.901 91.327 101.348 89.9005 98.969C88.7627 96.7624 87.3969 94.6812 85.8253 92.7593C93.1757 89.4299 96.9405 84.1146 96.1882 77.629C95.8982 73.4686 93.4535 69.7629 89.7429 67.8591C90.5661 65.2254 90.6191 62.4111 89.8956 59.7482C89.6602 58.8314 89.3368 57.9395 88.9298 57.0848C88.5832 56.3551 88.1633 55.6625 87.6766 55.0177C87.4042 54.6538 87.1107 54.3061 86.7978 53.9763C86.7551 53.9295 86.7107 53.8835 86.6664 53.8375C85.7806 52.904 84.7555 52.1133 83.6277 51.4936C84.2047 49.2092 84.0484 46.8012 83.1809 44.6105C82.9464 44.0138 82.6777 43.4311 82.3761 42.8653C81.7604 41.6953 80.9839 40.6172 80.0692 39.6626C81.1152 38.3578 81.9198 36.8768 82.445 35.2891C83.4614 38.3026 85.7583 40.7125 88.7195 41.8724C89.6205 42.5439 90.6261 43.0623 91.6958 43.4065C97.5745 45.3069 105.736 46.005 111.006 42.2674C113.806 40.33 115.496 37.1586 115.544 33.7541C115.583 32.2429 115.225 30.7479 114.506 29.4186C115.11 28.4604 115.528 27.3973 115.739 26.2846C116.036 24.7182 115.882 23.0999 115.296 21.6173C116.398 20.6503 117.274 19.4536 117.863 18.1113C119.091 15.1659 118.774 11.803 117.017 9.13892Z" fill="white"/>
<path d="M36.4998 57.4646C40.4962 53.4954 51.5161 46.4381 60.9702 44.8414C70.2967 43.2662 75.0822 40.1282 77.7238 46.7754C80.1635 52.9145 69.8799 58.8651 69.8799 58.8651C69.8799 58.8651 81.7744 51.8356 84.2129 61.2242C86.4411 69.8027 75.8391 74.0695 75.8391 74.0695C75.8391 74.0695 89.1806 68.1318 90.3587 78.3071C91.4755 87.9534 73.6147 90.055 73.6147 90.055C78.5378 94.1777 84.9895 99.2537 87.5706 108.198C90.0455 116.774 85.0448 121.581 80.3887 118.697C72.4742 113.796 67.647 105.602 62.3805 103.952C51.4885 100.539 46.8677 102.462 36.5977 94.5879C26.881 87.1379 25.4228 68.4663 36.4998 57.4646Z" fill="#22093A" stroke="#22093A" stroke-linecap="round" stroke-linejoin="round"/>
<path d="M35.5312 55.649C39.5275 51.6799 50.5474 44.6226 60.0015 43.0259C69.328 41.4507 75.083 40.1282 77.7246 46.7753C80.1643 52.9145 68.9113 57.0495 68.9113 57.0495C68.9113 57.0495 81.7752 51.8356 84.2137 61.2242C86.4419 69.8027 74.8704 72.254 74.8704 72.254C74.8704 72.254 88.593 68.1161 89.7711 78.2913C90.8879 87.9377 72.646 88.2394 72.646 88.2394C77.5691 92.3621 84.0207 97.4381 86.6019 106.382C89.0767 114.958 84.0761 119.765 79.42 116.882C71.5055 111.98 66.6783 103.786 61.4117 102.136C50.5198 98.7237 44.177 101.538 35.629 92.7723C27.081 84.006 24.4541 66.6507 35.5312 55.649Z" fill="#FCC707" stroke="#22093A" stroke-linecap="round" stroke-linejoin="round"/>
<path d="M51.7136 7.24521C57.553 6.9127 66.4269 12.6064 65.8208 23.9588C65.2147 35.3112 57.8291 40.5822 51.44 40.8991C45.6753 41.185 37.9967 36.7768 38.2421 24.6769C38.4431 14.7639 43.1368 7.73361 51.7136 7.24521Z" fill="#22093A" stroke="#22093A" stroke-linecap="round" stroke-linejoin="round"/>
<path d="M52.6093 16.0396C53.4531 15.6082 54.6368 17.8088 54.369 23.068C54.1013 28.3273 52.9568 31.1076 52.0343 31.5579C51.2019 31.9643 50.1694 30.2991 50.3973 24.7126C50.584 20.1358 51.3699 16.6732 52.6093 16.0396Z" fill="#22093A" stroke="#22093A" stroke-linecap="round" stroke-linejoin="round"/>
<path d="M13.0694 11.2823C7.56431 13.3478 1.6457 43.3994 13.83 43.3978C22.0237 43.3967 19.7922 28.2294 19.7922 28.2294C19.7922 28.2294 24.5044 42.6856 31.365 41.6075C39.2295 40.3715 38.7372 7.71707 32.4317 7.23157C23.9355 6.5774 24.3691 20.9946 24.3691 20.9946C24.3691 20.9946 19.8962 8.72108 13.0694 11.2823Z" fill="#22093A" stroke="#22093A" stroke-linecap="round" stroke-linejoin="round"/>
<path d="M70.7231 8.25287C66.0996 9.82428 67.0036 15.3325 66.0621 26.6629C65.2672 36.229 68.8163 37.6214 72.152 37.592C78.8174 37.5331 77.7209 24.7983 77.7209 24.7983C77.7209 24.7983 91.8829 29.0903 91.952 14.2407C91.9909 5.90109 75.4742 6.63806 70.7231 8.25287Z" fill="#22093A" stroke="#22093A" stroke-linecap="round" stroke-linejoin="round"/>
<path d="M78.0377 14.2947C78.0377 14.2947 82.1417 13.7804 81.5829 15.9274C81.0241 18.0744 77.7207 17.9539 77.7207 17.9539L78.0377 14.2947Z" fill="#22093A" stroke="#22093A" stroke-linecap="round" stroke-linejoin="round"/>
<path d="M111.997 12.1853C108.09 5.72616 97.2017 6.71216 93.6996 12.1548C91.0681 16.2443 86.0382 35.3865 93.5238 37.805C101.009 40.2235 109.535 39.3858 109.677 33.6105C109.78 29.3908 100.315 28.2747 100.315 28.2747C100.315 28.2747 109.164 29.5213 109.968 25.2088C110.772 20.8964 101.41 20.6298 101.41 20.6298C101.41 20.6298 116.179 19.0971 111.997 12.1853Z" fill="#22093A" stroke="#22093A" stroke-linecap="round" stroke-linejoin="round"/>
<path d="M49.2781 5.90195C55.1175 5.56944 63.9914 11.2632 63.3853 22.6156C62.7792 33.968 55.3935 39.2389 49.0044 39.5558C43.2398 39.8417 35.5612 35.4336 35.8065 23.3337C36.0075 13.4207 40.7012 6.39036 49.2781 5.90195Z" fill="#35CCAD" stroke="#22093A" stroke-linecap="round" stroke-linejoin="round"/>
<path d="M50.1718 14.6963C51.0156 14.265 52.1993 16.4655 51.9315 21.7248C51.6638 26.984 50.5193 29.7643 49.5968 30.2147C48.7644 30.621 47.7319 28.9558 47.9598 23.3693C48.1465 18.7926 48.9324 15.3299 50.1718 14.6963Z" fill="#22093A" stroke="#22093A" stroke-linecap="round" stroke-linejoin="round"/>
<path d="M10.6336 9.93901C5.12849 12.0045 3.20452 42.3127 11.3941 42.0545C19.5838 41.7963 17.3563 26.8861 17.3563 26.8861C17.3563 26.8861 22.0686 41.3423 28.9291 40.2642C36.7936 39.0282 37.5367 7.17729 31.2312 6.69179C22.735 6.03762 21.9333 19.6513 21.9333 19.6513C21.9333 19.6513 17.4603 7.37778 10.6336 9.93901Z" fill="#35CCAD" stroke="#22093A" stroke-linecap="round" stroke-linejoin="round"/>
<path d="M68.2875 6.9096C63.664 8.48101 64.568 13.9893 63.6265 25.3197C62.8316 34.8857 66.3807 36.2782 69.7164 36.2487C76.3819 36.1898 75.2853 23.455 75.2853 23.455C75.2853 23.455 89.4473 27.747 89.5164 12.8975C89.5554 4.55783 73.0387 5.2948 68.2875 6.9096Z" fill="#35CCAD" stroke="#22093A" stroke-linecap="round" stroke-linejoin="round"/>
<path d="M75.6022 12.9514C75.6022 12.9514 79.7062 12.4371 79.1474 14.5841C78.5886 16.7311 75.2852 16.6106 75.2852 16.6106L75.6022 12.9514Z" fill="#22093A" stroke="#22093A" stroke-linecap="round" stroke-linejoin="round"/>
<path d="M109.562 10.8424C108.345 6.60898 94.7661 5.36924 91.264 10.8119C88.6326 14.9014 83.6027 34.0436 91.0883 36.4621C98.5739 38.8806 107.1 38.0429 107.241 32.2676C107.345 28.0479 97.8797 26.9318 97.8797 26.9318C97.8797 26.9318 106.729 28.1783 107.533 23.8659C108.337 19.5535 98.9743 19.2868 98.9743 19.2868C98.9743 19.2868 111.794 18.6063 109.562 10.8424Z" fill="#35CCAD" stroke="#22093A" stroke-linecap="round" stroke-linejoin="round"/>
<path d="M14.4843 13.7568C13.8109 13.2026 11.9623 12.8441 11.4185 13.7568C9.93888 16.2399 9.11914 19.9098 9.11914 26.7322" stroke="white" stroke-linecap="round" stroke-linejoin="round"/>
<path d="M49.6063 9.47227C45.6216 8.99079 40.8329 12.1038 39.6289 18.5858" stroke="white" stroke-linecap="round" stroke-linejoin="round"/>
<path d="M67.3786 22.4961C67.3793 24.4944 65.9487 31.0746 68.5201 32.2893" stroke="white" stroke-linecap="round" stroke-linejoin="round"/>
<path d="M70.8858 9.04004C69.0064 9.39072 67.6706 11.0698 67.7515 12.98" stroke="white" stroke-linecap="round" stroke-linejoin="round"/>
<path d="M90.5218 27.8818C90.5218 27.8818 89.503 32.1932 92.5689 33.3429C94.599 34.0608 96.7226 34.4804 98.8732 34.5884" stroke="white" stroke-linecap="round" stroke-linejoin="round"/>
<path d="M39.8066 91.5889C40.2496 91.9879 40.6991 92.3572 41.1553 92.6967" stroke="white" stroke-linecap="round" stroke-linejoin="round"/>
<path d="M36.0469 60.5635C32.5692 65.0615 30.0177 72.0641 33.9654 82.6843C34.7506 84.85 35.8445 86.8909 37.2133 88.7438" stroke="white" stroke-linecap="round" stroke-linejoin="round"/>
<path d="M41.1567 55.6353C40.6831 55.9947 40.1662 56.4013 39.627 56.8593" stroke="white" stroke-linecap="round" stroke-linejoin="round"/>
<path d="M67.752 44.9764C70.8841 44.8398 73.2995 45.065 73.8222 47.3157" stroke="white" stroke-linecap="round" stroke-linejoin="round"/>
<path d="M76.8848 75.8938C76.8848 75.8938 83.1156 74.0084 84.8942 77.043" stroke="white" stroke-linecap="round" stroke-linejoin="round"/>
<path d="M9.11914 30.2729C9.23458 32.0269 9.45856 33.7721 9.78979 35.4984" stroke="white" stroke-linecap="round" stroke-linejoin="round"/>
<path d="M39.2227 22.7285C39.163 25.16 39.5593 27.5812 40.391 29.8668" stroke="white" stroke-linecap="round" stroke-linejoin="round"/>
</g>
<defs>
<clipPath id="clip0_5_10996">
<rect width="120" height="127.246" fill="white"/>
</clipPath>
</defs>
</svg>
