<svg width="120" height="121" viewBox="0 0 120 121" fill="none" xmlns="http://www.w3.org/2000/svg">
<g clip-path="url(#clip0_5_10989)">
<path opacity="0.5" d="M115.692 74.5212C112.979 71.3298 109.15 71.0106 108.033 71.0106C105.958 70.851 103.405 71.3298 101.011 73.0851C99.8943 72.4468 98.6177 71.9681 97.3411 71.6489C99.7347 67.9787 100.692 63.6702 100.373 59.0425C100.213 56.6489 99.0964 53.9361 97.6603 51.7021C98.139 50.1063 98.2986 48.351 98.139 46.5957C101.171 46.2766 103.724 43.8829 103.884 40.6915C104.043 37.8191 104.522 32.5532 105.16 31.7553C106.118 30.9574 111.384 30.6383 114.256 30.4787C117.607 30.1595 120.16 27.4468 120.16 24.0957C120.16 20.7446 117.607 18.0319 114.256 17.7127C111.384 17.5532 106.118 17.0744 105.32 16.4361C104.522 15.4787 104.203 10.2127 104.043 7.49996C103.724 4.14889 101.011 1.5957 97.6603 1.5957C94.3092 1.5957 91.5964 4.14889 91.2773 7.49996C91.1177 10.3723 90.639 15.6383 90.0007 16.4361C89.0432 17.234 83.7773 17.5532 80.9049 17.7127C77.7134 18.0319 75.3198 20.4255 75.0007 23.617C72.6071 23.617 70.0539 24.0957 67.8198 24.734C67.6603 23.1383 67.3411 21.5425 66.8624 19.7872C65.1071 12.7659 61.4368 7.49996 56.49 4.94677C54.5751 3.98932 52.5007 3.35102 50.4262 3.35102C48.6709 3.19145 46.9156 3.5106 45.1603 4.1489C37.8198 6.86166 34.1496 14.6808 35.5858 23.7766C34.9475 23.4574 34.1496 23.2978 33.3517 23.1383C32.873 23.1383 32.2347 22.9787 31.5964 22.9787C31.5964 22.3404 31.4369 21.7021 31.4369 21.2234C31.1177 17.8723 28.4049 15.3191 25.0539 15.3191C21.7028 15.3191 18.99 17.8723 18.6709 21.2234C18.6709 21.7021 18.5113 22.3404 18.5113 22.9787C17.873 22.9787 17.2347 23.1383 16.756 23.1383C13.4049 23.4574 10.8517 26.1702 10.8517 29.5212C10.8517 32.8723 13.4049 35.5851 16.756 35.9042C17.2347 35.9042 17.873 36.0638 18.5113 36.0638C18.5113 36.7021 18.6709 37.3404 18.6709 37.8191C18.6709 38.1383 18.6709 38.2978 18.8305 38.617C16.1177 39.0957 13.8837 41.4893 13.5645 44.3617C13.4049 45.6383 13.2454 47.3936 13.0858 48.5106C11.9688 48.6702 10.0539 48.8298 8.93685 48.9893C5.58578 49.3085 3.03259 52.0212 3.03259 55.3723C3.03259 58.7234 5.58578 61.4361 8.93685 61.7553C10.2134 61.9149 11.9688 62.0744 13.0858 62.234C13.2454 63.351 13.4049 65.2659 13.5645 66.3829C13.8837 69.734 16.5964 72.2872 19.9475 72.2872C23.2986 72.2872 26.0113 69.734 26.3305 66.3829C26.49 65.1063 26.6496 63.351 26.8092 62.234C27.4475 62.0744 28.2454 62.0744 29.0432 61.9149C28.8837 66.0638 29.6815 70.5319 31.5964 75C30.9581 75.3191 30.3198 75.7978 29.8411 76.117C26.49 73.8829 22.022 72.1276 15.639 72.1276H15.3198C11.3305 72.1276 7.81983 74.3617 5.58578 78.1915C0.479401 86.8085 0.958125 104.202 4.94749 112.021C5.26664 112.819 5.58578 113.457 5.90493 114.096C6.86238 116.011 9.73472 119.362 16.756 120C17.3943 120 17.873 120 18.5113 120C22.022 120 26.6496 119.202 30.4794 117.128C34.1496 120 38.9369 121.436 43.5645 120.798C46.2773 120.479 48.99 119.681 51.3837 118.245C53.2986 119.84 55.373 120.16 56.8092 120.16H56.9688C60.0007 120.16 62.873 118.883 64.9475 116.649L65.1071 116.489C68.139 119.043 71.0113 119.521 73.4049 119.202C74.8411 119.043 76.4369 118.564 78.1922 117.287C79.3092 117.926 80.2666 118.245 81.2241 118.404C86.9688 119.84 92.7135 119.681 97.022 118.245C98.2986 119.362 99.8943 120.16 101.49 120.479C102.288 120.638 103.086 120.798 104.043 120.798C106.118 120.798 108.033 120.16 109.788 119.202C112.341 117.606 113.937 115.213 114.575 112.34C115.054 110.106 114.894 107.713 113.937 105.638C116.011 103.245 117.767 99.5744 118.565 93.8298C119.522 86.3298 119.682 81.3829 117.607 77.8723C117.128 76.5957 116.49 75.4787 115.692 74.5212Z" fill="#231F20"/>
<path d="M114.096 73.0851C111.384 69.8936 107.554 69.5745 106.437 69.5745C104.362 69.4149 101.809 69.8936 99.4156 71.6489C98.2985 71.0106 97.0219 70.5319 95.7454 70.2128C98.139 66.5426 99.0964 62.234 98.7773 57.6064C98.6177 55.2128 97.5007 52.5 96.0645 50.2659C96.5432 48.6702 96.7028 46.9149 96.5432 45.1596C99.5751 44.8404 102.128 42.4468 102.288 39.2553C102.447 36.383 102.926 31.117 103.565 30.3191C104.522 29.5213 109.788 29.2021 112.66 29.0425C116.011 28.7234 118.564 26.0106 118.564 22.6596C118.564 19.3085 116.011 16.5957 112.66 16.2766C109.788 16.117 104.522 15.6383 103.724 15C102.926 14.0425 102.607 8.77658 102.447 6.06382C101.969 2.55319 99.0964 0 95.7454 0C92.3943 0 89.6815 2.55319 89.3624 5.90426C89.2028 8.7766 88.7241 14.0426 88.0858 14.8404C87.1283 15.6383 81.8624 15.9574 78.99 16.117C75.7985 16.4362 73.4049 18.8298 73.0858 22.0213C70.6922 22.0213 68.139 22.5 65.9049 23.1383C65.7454 21.5426 65.4262 19.9468 64.9475 18.1915C63.1922 11.1702 59.5219 5.90426 54.5751 3.35106C52.6602 2.39362 50.5858 1.75532 48.5113 1.75532C46.756 1.59574 45.0007 1.91489 43.2454 2.55319C35.9049 5.26596 32.2347 13.0851 33.6709 22.1809C33.0326 21.8617 32.2347 21.7021 31.4368 21.5426C30.9581 21.5426 30.3198 21.383 29.6815 21.383C29.6815 20.7447 29.522 20.1064 29.522 19.6277C29.2028 16.2766 26.49 13.7234 23.139 13.7234C19.7879 13.7234 17.0751 16.2766 16.756 19.6277C16.756 20.1064 16.5964 20.7447 16.5964 21.383C15.9581 21.383 15.3198 21.5426 14.8411 21.5426C11.49 21.8617 8.93684 24.5745 8.93684 27.9255C8.93684 31.2766 11.49 33.9894 14.8411 34.3085C15.3198 34.3085 15.9581 34.4681 16.5964 34.4681C16.5964 35.1064 16.756 35.7447 16.756 36.2234C16.756 36.5426 16.756 36.7021 16.9156 37.0213C14.3624 37.5 12.1283 39.8936 11.8092 42.766C11.6496 44.0426 11.49 45.7979 11.3305 46.9149C10.2134 47.0745 8.29854 47.234 7.18152 47.3936C3.83046 47.7128 1.27727 50.4255 1.27727 53.7766C1.27727 57.1277 3.83046 59.8404 7.18152 60.1596C8.45812 60.3191 10.2134 60.4787 11.3305 60.6383C11.49 61.7553 11.6496 63.6702 11.8092 64.7872C12.1283 68.1383 14.8411 70.6915 18.1922 70.6915C21.5432 70.6915 24.256 68.1383 24.5751 64.7872C24.7347 63.5106 24.8943 61.7553 25.0539 60.6383C25.6922 60.4787 26.49 60.4787 27.2879 60.3191C27.1283 64.4681 27.9262 68.9362 29.8411 73.4043C29.2028 73.7234 28.5645 74.2021 28.0858 74.5213C24.7347 72.2872 20.2666 70.5319 13.8836 70.5319H13.5645C9.57514 70.5319 6.0645 72.766 3.83046 76.5957C-1.4355 85.2128 -0.956778 102.766 3.19216 110.426C3.51131 111.223 3.83046 111.862 4.14961 112.5C5.10705 114.415 7.97939 117.766 15.0007 118.404C15.639 118.404 16.1177 118.404 16.756 118.404C20.2666 118.404 24.8943 117.606 28.7241 115.532C32.3943 118.404 37.1815 119.84 41.8092 119.202C44.522 118.883 47.2347 118.085 49.6283 116.649C51.5432 118.245 53.6177 118.564 55.0539 118.564H55.2134C58.2454 118.564 61.1177 117.287 63.1922 115.053L63.3517 114.894C66.3837 117.447 69.256 117.926 71.6496 117.606C73.0858 117.447 74.6815 116.968 76.4368 115.691C77.5539 116.33 78.5113 116.649 79.4688 116.809C85.2134 118.245 90.9581 118.085 95.2666 116.649C96.5432 117.766 98.139 118.564 99.7347 118.883C100.533 119.043 101.33 119.202 102.288 119.202C104.362 119.202 106.277 118.564 108.033 117.606C110.586 116.011 112.182 113.617 112.82 110.745C113.299 108.511 113.139 106.117 112.182 104.043C114.256 101.649 116.011 97.9787 116.809 92.234C117.767 84.734 117.926 79.7872 115.852 76.2766C115.533 75.1596 114.894 74.0426 114.096 73.0851Z" fill="white"/>
<path d="M88.2452 51.3827C89.5218 51.5423 91.9154 55.3721 92.2345 58.0848C93.192 69.8934 81.3835 73.404 81.3835 73.404C81.3835 73.404 77.8728 81.5423 66.0643 84.4146C54.0962 87.4465 44.5218 85.3721 37.5005 72.7657C29.5218 58.404 39.4154 44.2019 41.6494 39.5742C43.8835 34.9466 43.8835 31.7551 41.6494 24.8934C39.575 18.0317 40.5324 10.8508 46.4367 8.61676C50.426 7.18059 56.4899 10.2125 58.8835 19.9465C61.1175 28.5636 59.2026 34.4678 59.2026 34.4678C59.2026 34.4678 69.8941 26.4891 76.7558 29.2019C81.2239 30.9572 82.3409 35.7444 82.3409 35.7444C82.3409 35.7444 87.2877 37.021 89.5218 42.9253C91.2771 47.8721 88.2452 51.3827 88.2452 51.3827Z" fill="#22093A" stroke="#22093A" stroke-miterlimit="10" stroke-linecap="round" stroke-linejoin="round"/>
<path d="M82.1807 35.585C83.7764 39.7339 81.5424 45.9573 73.0849 51.0637C65.4253 55.6913 59.0424 55.8509 57.1275 50.4254C54.2551 42.6062 65.9041 38.1382 65.9041 38.1382" fill="#22093A"/>
<path d="M82.1807 35.585C83.7764 39.7339 81.5424 45.9573 73.0849 51.0637C65.4253 55.6913 59.0424 55.8509 57.1275 50.4254C54.2551 42.6062 65.9041 38.1382 65.9041 38.1382" stroke="#22093A" stroke-miterlimit="10" stroke-linecap="round" stroke-linejoin="round"/>
<path d="M88.2458 51.3828C88.2458 51.3828 81.8628 56.9679 78.1926 60.4786C69.5756 68.4573 60.3203 62.0743 66.5437 54.0956" fill="#22093A"/>
<path d="M88.2458 51.3828C88.2458 51.3828 81.8628 56.9679 78.1926 60.4786C69.5756 68.4573 60.3203 62.0743 66.5437 54.0956" stroke="#22093A" stroke-miterlimit="10" stroke-linecap="round" stroke-linejoin="round"/>
<path d="M81.5439 57.7656C79.629 59.6805 73.246 62.872 73.7248 67.4997C73.8843 70.372 77.395 74.8401 83.1397 72.6061" fill="#22093A"/>
<path d="M81.5439 57.7656C79.629 59.6805 73.246 62.872 73.7248 67.4997C73.8843 70.372 77.395 74.8401 83.1397 72.6061" stroke="#22093A" stroke-miterlimit="10" stroke-linecap="round" stroke-linejoin="round"/>
<path d="M87.4463 51.3827C88.7229 51.5423 91.1166 55.3721 91.4357 58.0848C92.5527 69.8934 80.5846 73.404 80.5846 73.404C80.5846 73.404 77.074 81.5423 65.2655 84.4146C53.2974 87.4465 43.7229 85.3721 36.7017 72.7657C28.7229 58.404 38.6166 44.2019 40.8506 39.5742C43.0846 34.9466 43.0846 31.7551 40.8506 24.8934C38.7761 18.0317 39.7336 10.8508 45.6378 8.61676C49.6272 7.18059 55.691 10.2125 58.0846 19.9465C60.3187 28.5636 58.4038 34.4678 58.4038 34.4678C58.4038 34.4678 69.0953 26.4891 75.957 29.2019C80.4251 30.9572 81.5421 35.7444 81.5421 35.7444C81.5421 35.7444 86.4889 37.021 88.7229 42.9253C90.4783 47.8721 87.4463 51.3827 87.4463 51.3827Z" fill="#FCC707" stroke="#22093A" stroke-miterlimit="10" stroke-linecap="round" stroke-linejoin="round"/>
<path d="M81.542 35.585C83.1377 39.7339 80.9037 45.9573 72.4462 51.0637C64.7867 55.6913 58.4037 55.8509 56.4888 50.4254C53.6164 42.6062 65.2654 38.1382 65.2654 38.1382" stroke="#22093A" stroke-miterlimit="10" stroke-linecap="round" stroke-linejoin="round"/>
<path d="M87.447 51.3828C87.447 51.3828 81.064 56.9679 77.3938 60.4786C68.7767 68.4573 59.5214 62.0743 65.7448 54.0956" stroke="#22093A" stroke-miterlimit="10" stroke-linecap="round" stroke-linejoin="round"/>
<path d="M80.7451 57.4468C78.8302 59.3617 72.6068 63.0319 72.9259 67.6595C73.0855 70.5319 76.5961 75 82.3408 72.7659" stroke="#22093A" stroke-miterlimit="10" stroke-linecap="round" stroke-linejoin="round"/>
<path d="M45.3192 33.6699C45.3192 34.4678 45.1596 35.1061 45 35.5848" stroke="white" stroke-miterlimit="10" stroke-linecap="round" stroke-linejoin="round"/>
<path d="M45.9571 13.2446C43.723 13.7234 42.606 18.0319 44.3613 23.4574C45.1592 25.851 45.4784 28.2446 45.4784 30.1595" stroke="white" stroke-miterlimit="10" stroke-linecap="round" stroke-linejoin="round"/>
<path d="M68.1387 60.638C71.6493 61.5954 77.0748 56.8082 79.3089 54.4146" stroke="white" stroke-miterlimit="10" stroke-linecap="round" stroke-linejoin="round"/>
<path d="M80.584 70.3719C83.4563 69.8931 86.8074 66.7017 86.8074 66.7017" stroke="white" stroke-miterlimit="10" stroke-linecap="round" stroke-linejoin="round"/>
<path d="M69.7337 79.3081C67.8188 80.4251 65.4252 81.3826 62.5528 81.8613C55.0528 83.1379 51.8613 81.8613 51.8613 81.8613" stroke="#22093A" stroke-miterlimit="10" stroke-linecap="round" stroke-linejoin="round"/>
<path d="M74.2024 75.3188C73.8832 75.7976 73.4045 76.2763 72.9258 76.755" stroke="#22093A" stroke-miterlimit="10" stroke-linecap="round" stroke-linejoin="round"/>
<path d="M64.4684 42.1274C60.7982 43.5636 57.2876 46.9147 59.2025 49.787" stroke="white" stroke-miterlimit="10" stroke-linecap="round" stroke-linejoin="round"/>
<path d="M14.5209 79.1493C6.38259 79.1493 5.74429 102.128 9.73365 109.628C11.8081 113.617 25.2124 112.979 29.6805 106.756C34.1485 100.532 34.7868 78.9897 14.5209 79.1493Z" fill="#22093A" stroke="#22093A" stroke-miterlimit="10" stroke-linecap="round" stroke-linejoin="round"/>
<path d="M19.1487 92.2344C17.2338 92.2344 17.0743 98.2982 18.0317 99.5748C18.67 100.373 21.7019 100.373 22.8189 98.9365C23.7764 97.3408 23.936 92.2344 19.1487 92.2344Z" fill="#22093A" stroke="#22093A" stroke-miterlimit="10" stroke-linecap="round" stroke-linejoin="round"/>
<path d="M39.4144 79.4681C45.1591 78.8298 54.4144 83.9362 54.4144 95.4256C54.4144 106.755 47.3931 112.5 41.0102 113.138C35.2655 113.777 27.2868 109.787 26.9676 97.6596C26.4889 87.6064 30.7974 80.4256 39.4144 79.4681Z" fill="#22093A" stroke="#22093A" stroke-miterlimit="10" stroke-linecap="round" stroke-linejoin="round"/>
<path d="M40.8499 89.5211C41.6477 89.0423 42.7648 89.8402 42.9243 95.1062C42.9243 100.372 41.6477 101.649 40.6903 102.127C39.8924 102.606 39.0946 102.606 39.0946 96.8615C38.935 92.3934 39.7328 90.1594 40.8499 89.5211Z" fill="#22093A" stroke="#22093A" stroke-miterlimit="10" stroke-linecap="round" stroke-linejoin="round"/>
<path d="M54.0945 78.6704C49.1477 80.4257 47.5519 112.181 54.8923 112.341C62.2328 112.5 60.637 97.5002 60.637 97.5002C60.637 97.5002 64.4668 112.341 70.6902 111.543C77.8711 110.745 78.9881 80.2662 73.7221 78.0321C66.2221 74.8406 64.9455 90.4789 64.9455 90.4789C64.9455 90.4789 60.3179 76.4364 54.0945 78.6704Z" fill="#22093A" stroke="#22093A" stroke-miterlimit="10" stroke-linecap="round" stroke-linejoin="round"/>
<path d="M98.9362 81.2234C97.1809 76.7553 82.1809 76.4362 78.8298 82.8192C76.2766 87.4468 72.4468 108.989 80.7447 110.904C89.2022 112.979 98.4575 111.223 98.1383 105C97.8192 100.372 87.4468 99.8936 87.4468 99.8936C87.4468 99.8936 97.1809 100.532 97.8192 95.7447C98.4575 90.9575 88.0851 91.4362 88.0851 91.4362C88.0851 91.4362 101.968 89.5213 98.9362 81.2234Z" fill="#22093A" stroke="#22093A" stroke-miterlimit="10" stroke-linecap="round" stroke-linejoin="round"/>
<path d="M106.914 78.1917C104.36 78.0322 101.009 79.3088 98.9349 91.1173C97.1795 101.649 101.009 102.287 101.967 102.287C102.924 102.287 108.828 103.245 110.424 91.7556C112.02 80.2662 110.903 78.3513 106.914 78.1917Z" fill="#22093A" stroke="#22093A" stroke-miterlimit="10" stroke-linecap="round" stroke-linejoin="round"/>
<path d="M102.128 113.139C104.683 113.139 106.755 111.067 106.755 108.511C106.755 105.955 104.683 103.883 102.128 103.883C99.5719 103.883 97.5 105.955 97.5 108.511C97.5 111.067 99.5719 113.139 102.128 113.139Z" fill="#22093A" stroke="#22093A" stroke-miterlimit="10" stroke-linecap="round" stroke-linejoin="round"/>
<path d="M13.5639 76.9149C5.42555 76.9149 4.78726 99.8937 8.77662 107.394C10.8511 111.383 24.2553 110.745 28.7234 104.521C33.1915 98.4575 33.8298 76.7554 13.5639 76.9149Z" fill="#35CCAD" stroke="#22093A" stroke-miterlimit="10" stroke-linecap="round" stroke-linejoin="round"/>
<path d="M18.1917 90C16.2768 90 16.1172 96.0638 17.0747 97.3404C17.713 98.1383 20.7449 98.1383 21.8619 96.7021C22.8194 95.1064 22.9789 90 18.1917 90Z" fill="#22093A" stroke="#22093A" stroke-miterlimit="10" stroke-linecap="round" stroke-linejoin="round"/>
<path d="M38.4574 77.2342C44.2021 76.5959 53.4574 81.7023 53.4574 93.1917C53.4574 104.681 46.4361 110.266 40.0531 110.904C34.3084 111.543 26.3297 107.553 26.0106 95.4257C25.5319 85.5321 29.8404 78.1917 38.4574 77.2342Z" fill="#35CCAD" stroke="#22093A" stroke-miterlimit="10" stroke-linecap="round" stroke-linejoin="round"/>
<path d="M39.8928 87.2872C40.6907 86.8085 41.8077 87.6063 41.9673 92.8723C41.9673 98.1382 40.6907 99.4148 39.7333 99.8936C38.9354 100.372 38.1375 100.372 38.1375 94.6276C37.9779 90.1595 38.7758 88.0851 39.8928 87.2872Z" fill="#22093A" stroke="#22093A" stroke-miterlimit="10" stroke-linecap="round" stroke-linejoin="round"/>
<path d="M53.1374 76.5957C48.1906 78.351 46.5949 110.106 53.9353 110.266C61.2757 110.425 59.68 95.4255 59.68 95.4255C59.68 95.4255 63.5098 110.266 69.7332 109.468C76.914 108.67 78.0311 78.1915 72.7651 75.9574C65.2651 72.7659 63.9885 88.4042 63.9885 88.4042C63.9885 88.4042 59.3608 74.3617 53.1374 76.5957Z" fill="#35CCAD" stroke="#22093A" stroke-miterlimit="10" stroke-linecap="round" stroke-linejoin="round"/>
<path d="M97.9792 79.1487C96.2238 74.6806 81.2238 74.3615 77.8728 80.7444C75.3196 85.3721 71.4898 106.915 79.7877 108.83C88.0856 110.744 97.5004 109.149 97.1813 102.925C96.8621 98.2976 86.4898 97.8189 86.4898 97.8189C86.4898 97.8189 96.2238 98.4572 96.8621 93.67C97.5004 88.8828 87.1281 89.3615 87.1281 89.3615C87.1281 89.3615 101.011 87.4466 97.9792 79.1487Z" fill="#35CCAD" stroke="#22093A" stroke-miterlimit="10" stroke-linecap="round" stroke-linejoin="round"/>
<path d="M106.117 75.9574C103.564 75.7978 100.212 77.0744 98.138 88.8829C96.3827 99.4148 100.212 100.053 101.17 100.053C102.127 100.053 108.032 101.011 109.627 89.5212C111.223 78.0318 109.946 76.1169 106.117 75.9574Z" fill="#35CCAD" stroke="#22093A" stroke-miterlimit="10" stroke-linecap="round" stroke-linejoin="round"/>
<path d="M101.171 111.064C103.726 111.064 105.798 108.992 105.798 106.436C105.798 103.88 103.726 101.809 101.171 101.809C98.6148 101.809 96.543 103.88 96.543 106.436C96.543 108.992 98.6148 111.064 101.171 111.064Z" fill="#35CCAD" stroke="#22093A" stroke-miterlimit="10" stroke-linecap="round" stroke-linejoin="round"/>
<path d="M10.0527 100.372C10.2123 101.01 10.3719 101.808 10.5315 102.287" stroke="white" stroke-miterlimit="10" stroke-linecap="round" stroke-linejoin="round"/>
<path d="M10.5323 85.3721C10.0536 87.6061 9.57485 92.0742 9.73443 96.2231" stroke="white" stroke-miterlimit="10" stroke-linecap="round" stroke-linejoin="round"/>
<path d="M30 87.1277C30.7979 83.6171 35.5851 80.1064 38.9362 80.1064" stroke="white" stroke-miterlimit="10" stroke-linecap="round" stroke-linejoin="round"/>
<path d="M52.3398 94.9468C52.3398 99.2553 52.8186 105 54.4143 106.436" stroke="white" stroke-miterlimit="10" stroke-linecap="round" stroke-linejoin="round"/>
<path d="M100.371 104.521C99.5735 105 98.4565 106.436 99.414 107.553" stroke="white" stroke-miterlimit="10" stroke-linecap="round" stroke-linejoin="round"/>
<path d="M103.085 81.7021C101.649 85.5319 100.372 91.5958 101.17 95.7447" stroke="white" stroke-miterlimit="10" stroke-linecap="round" stroke-linejoin="round"/>
<path d="M78.3516 91.1172C78.3516 87.1278 80.2665 81.3831 82.6601 80.2661" stroke="white" stroke-miterlimit="10" stroke-linecap="round" stroke-linejoin="round"/>
<path d="M67.0215 86.6491C67.3406 84.8938 67.8194 82.5002 68.9364 80.2661" stroke="white" stroke-miterlimit="10" stroke-linecap="round" stroke-linejoin="round"/>
<path d="M23.2973 25.5318L20.7441 28.085L23.2973 30.6382L25.8505 28.085L23.2973 25.5318Z" fill="#35CCAD"/>
<path d="M18.3509 49.3083L13.8828 53.7764L18.3509 58.2445L22.819 53.7764L18.3509 49.3083Z" fill="#FCC707"/>
<path d="M86.8086 22.6593L92.9775 19.4678L95.7448 13.7231L99.7092 21.0807L104.681 22.6593L98.4118 25.223L95.7448 31.5955L93.3655 25.5317L86.8086 22.6593Z" fill="#FCC707"/>
<path d="M95.7444 39.5742C95.2657 39.5742 94.9465 39.2551 94.9465 38.7764C93.8295 24.8934 93.3508 24.4147 79.4678 23.2976C78.9891 23.2976 78.6699 22.9785 78.6699 22.4998C78.6699 22.021 78.9891 21.7019 79.4678 21.7019C93.3508 20.5849 93.8295 20.1061 94.9465 6.22317C94.9465 5.74444 95.2657 5.42529 95.7444 5.42529C96.2231 5.42529 96.5423 5.74444 96.5423 6.22317C97.6593 20.1061 98.138 20.5849 112.021 21.7019C112.5 21.7019 112.819 22.021 112.819 22.4998C112.819 22.9785 112.5 23.2976 112.021 23.2976C98.138 24.4147 97.6593 24.8934 96.5423 38.7764C96.5423 39.2551 96.2231 39.5742 95.7444 39.5742ZM86.8082 22.6593C92.7125 23.6168 94.7869 25.6913 95.7444 31.5955C96.7018 25.6912 98.7763 23.6168 104.681 22.6593C98.7763 21.7019 96.7018 19.6274 95.7444 13.7232C94.7869 19.4678 92.7125 21.5423 86.8082 22.6593Z" fill="#22093A"/>
<path d="M18.1911 65.1064C17.7124 65.1064 17.3932 64.7872 17.3932 64.3085C16.7549 55.5319 16.4358 55.2127 7.6592 54.5744C7.18048 54.5744 6.86133 54.2553 6.86133 53.7766C6.86133 53.2978 7.18048 52.9787 7.6592 52.9787C16.4358 52.3404 16.7549 52.0212 17.3932 43.2446C17.3932 42.7659 17.7124 42.4468 18.1911 42.4468C18.6698 42.4468 18.989 42.7659 18.989 43.2446C19.6273 52.0212 19.9464 52.3404 28.723 52.9787C29.2018 52.9787 29.5209 53.2978 29.5209 53.7766C29.5209 54.2553 29.2018 54.5744 28.723 54.5744C19.9464 55.2127 19.6273 55.5319 18.989 64.3085C18.989 64.7872 18.6698 65.1064 18.1911 65.1064ZM13.8826 53.7766C16.4358 54.4149 17.5528 55.6915 18.3507 58.2447C18.989 55.6915 20.2656 54.5744 22.8188 53.7766C20.2656 53.1383 19.1486 51.8617 18.3507 49.3085C17.5528 52.0212 16.4358 53.1383 13.8826 53.7766Z" fill="#22093A"/>
<path d="M23.2987 36.7018C22.8199 36.7018 22.5008 36.3827 22.5008 35.9039C22.0221 29.521 21.8625 29.3614 15.4795 28.8827C15.0008 28.8827 14.6816 28.5635 14.6816 28.0848C14.6816 27.6061 15.0008 27.2869 15.4795 27.2869C21.8625 26.8082 22.0221 26.6486 22.5008 20.2656C22.5008 19.7869 22.8199 19.4678 23.2987 19.4678C23.7774 19.4678 24.0965 19.7869 24.0965 20.2656C24.5753 26.6486 24.7348 26.8082 31.1178 27.2869C31.5965 27.2869 31.9157 27.6061 31.9157 28.0848C31.9157 28.5635 31.5965 28.8827 31.1178 28.8827C24.7348 29.3614 24.5753 29.521 24.0965 35.9039C24.0965 36.3827 23.7774 36.7018 23.2987 36.7018ZM20.7455 28.0848C22.0221 28.5635 22.8199 29.3614 23.2987 30.638C23.7774 29.3614 24.5753 28.5635 25.8519 28.0848C24.5753 27.6061 23.7774 26.8082 23.2987 25.5316C22.8199 26.8082 22.0221 27.6061 20.7455 28.0848Z" fill="#22093A"/>
</g>
<defs>
<clipPath id="clip0_5_10989">
<rect width="120" height="120.957" fill="white"/>
</clipPath>
</defs>
</svg>
