<svg width="120" height="120" viewBox="0 0 120 120" fill="none" xmlns="http://www.w3.org/2000/svg">
<path d="M103.959 46.5436C95.9969 40.621 94.8732 54.254 89.9076 59.9868C84.7026 65.996 79.0556 64.4654 76.3693 57.416C73.7794 50.6196 73.9423 41.87 81.2937 42.9412C86.9418 43.7642 88.8035 56.0722 93.4496 51.8092C101.475 44.446 89.548 22.8298 75.3045 25.6113C70.0327 26.4854 65.5888 30.0254 63.5582 34.9683L63.7329 33.8042C63.2352 35.1471 62.8245 36.5207 62.5035 37.9164C62.4171 38.2048 62.4547 38.1004 62.6107 37.4364C64.7399 28.3757 54.9008 8.69401 47.4363 8.27727C35.3726 7.60377 41.4171 24.6399 41.4171 24.6399C41.4171 24.6399 41.2204 24.4317 40.891 24.1257C40.8117 24.0327 40.7574 23.9702 40.7574 23.9702L40.7754 24.0192C39.092 22.4891 34.4387 18.9271 31.2148 22.9073C27.4862 27.5107 31.2193 37.0306 31.2193 37.0306C31.2193 37.0306 25.3187 36.6743 25.3993 41.5442C25.4798 46.4143 31.2907 49.5369 34.8352 59.9921C36.5389 65.0176 39.1414 78.9317 39.1414 78.9317C41.5431 88.7677 51.9328 106.636 73.6357 102.927C90.5866 100.03 96.6404 89.8539 100.365 82.9646C103.939 76.3552 112.435 52.8481 103.959 46.5436Z" fill="#22093A" stroke="#22093A" stroke-linecap="round" stroke-linejoin="round"/>
<path d="M38.7605 77.7979C41.1623 87.6338 51.552 105.502 73.2548 101.793C90.2058 98.8959 96.2595 88.7201 99.9847 81.8308C103.559 75.2213 112.054 51.7143 103.578 45.4097C95.616 39.4871 94.4924 53.1201 89.5268 58.853C84.3218 64.8621 78.6748 63.3315 75.9885 56.2822C73.3986 49.4857 73.5615 40.7362 80.9129 41.8073C86.5611 42.6303 88.4226 54.9383 93.0688 50.6753C101.094 43.3122 89.1671 21.696 74.9236 24.4774C64.7274 26.4685 61.2678 40.3967 62.2299 36.3026C64.3592 27.2419 54.5201 7.56024 47.0554 7.14348C34.9917 6.46998 41.0362 23.506 41.0362 23.506C41.0362 23.506 34.8321 16.8373 30.834 21.7734C27.1053 26.3769 30.8385 35.8967 30.8385 35.8967C30.8385 35.8967 24.9378 35.5405 25.0184 40.4104C25.099 45.2804 30.9098 48.4031 34.4543 58.8584C36.1581 63.8838 38.7605 77.7979 38.7605 77.7979Z" fill="#FCC707" stroke="#22093A" stroke-linecap="round" stroke-linejoin="round"/>
<path d="M30.8379 35.897C33.1134 37.4899 36.0521 41.8385 37.7933 44.7874C40.8918 50.0354 43.4398 59.6664 43.4398 59.6664" stroke="#22093A" stroke-linecap="round" stroke-linejoin="round"/>
<path d="M40.375 22.8364C43.2575 26.2208 45.4907 30.1081 46.9625 34.303C50.4066 45.3238 50.7879 48.0164 51.4538 53.1159" stroke="#22093A" stroke-linecap="round" stroke-linejoin="round"/>
<path d="M63.3508 32.6704C61.5863 37.578 60.8045 42.7848 61.0499 47.9942" stroke="#22093A" stroke-linecap="round" stroke-linejoin="round"/>
<path d="M34.5941 23.7153C33.3409 23.5444 30.8368 26.3925 32.7713 31.9178" stroke="white" stroke-linecap="round" stroke-linejoin="round"/>
<path d="M38.3711 62.3403C38.6284 63.5754 38.8413 64.7789 39.022 65.9238" stroke="white" stroke-linecap="round" stroke-linejoin="round"/>
<path d="M27.9727 41.3237C28.8598 43.4663 30.0968 45.4465 31.6333 47.1834" stroke="white" stroke-linecap="round" stroke-linejoin="round"/>
<path d="M78.1147 27.5314C75.4905 26.677 68.408 29.4681 65.7539 37.5567" stroke="white" stroke-linecap="round" stroke-linejoin="round"/>
<path d="M64.7845 40.8037C64.4554 42.3598 64.2648 43.9419 64.2148 45.5316" stroke="white" stroke-linecap="round" stroke-linejoin="round"/>
<path d="M96.3125 52.8311C97.2524 49.9462 99.7587 46.6082 101.382 47.5823" stroke="white" stroke-linecap="round" stroke-linejoin="round"/>
<path d="M75.9785 63.3892C78.0288 66.2174 81.7536 67.2665 84.9785 65.924" stroke="white" stroke-linecap="round" stroke-linejoin="round"/>
<path d="M44.7018 10.728C40.4896 12.6742 41.5712 17.8028 44.4543 22.8367" stroke="white" stroke-linecap="round" stroke-linejoin="round"/>
<path d="M28.0109 73.6582C33.5846 73.0387 42.3745 78.0327 42.3795 88.9333C42.3845 99.8338 35.5849 105.261 29.484 105.894C23.9793 106.465 16.4002 102.64 16.0113 91.0426C15.6926 81.5411 19.8241 74.568 28.0109 73.6582Z" fill="#22093A" stroke="#22093A" stroke-linecap="round" stroke-linejoin="round"/>
<path d="M29.3211 82.0318C30.1068 81.5753 31.3535 83.6212 31.3683 88.6704C31.3831 93.7197 30.4307 96.4407 29.5706 96.9195C28.7946 97.3515 27.7203 95.8103 27.6504 90.4498C27.5931 86.0582 28.1671 82.7023 29.3211 82.0318Z" fill="#22093A" stroke="#22093A" stroke-linecap="round" stroke-linejoin="round"/>
<path d="M46.1475 77.8211C41.2081 78.9343 39.8683 107.074 45.3302 108.585C51.757 110.362 53.6166 97.4186 53.6166 97.4186C53.6166 97.4186 58.4527 108.004 61.3554 108.491C69.0651 109.783 68.2789 100.278 60.5542 92.0313C60.5542 92.0313 72.8142 82.4212 65.147 78.5252C59.8376 75.8272 53.8359 89.3354 53.8359 89.3354C53.8359 89.3354 53.0523 76.2649 46.1475 77.8211Z" fill="#22093A" stroke="#22093A" stroke-linecap="round" stroke-linejoin="round"/>
<path d="M77.0817 77.5131C74.6206 77.464 71.5763 78.6726 70.0413 89.042C68.6707 98.3 72.3095 98.7647 73.2523 98.7836C74.1951 98.8024 79.7177 99.3888 80.8422 89.2574C81.9666 79.1259 80.7282 77.5858 77.0817 77.5131Z" fill="#22093A" stroke="#22093A" stroke-linecap="round" stroke-linejoin="round"/>
<path d="M72.9006 108.764C75.2835 108.764 77.2152 106.833 77.2152 104.45C77.2152 102.067 75.2835 100.135 72.9006 100.135C70.5177 100.135 68.5859 102.067 68.5859 104.45C68.5859 106.833 70.5177 108.764 72.9006 108.764Z" fill="#22093A" stroke="#22093A" stroke-linecap="round" stroke-linejoin="round"/>
<path d="M26.4777 72.1591C32.0514 71.5396 40.8413 76.5336 40.8463 87.4342C40.8513 98.3348 34.0517 103.762 27.9508 104.395C22.4461 104.966 14.867 101.141 14.4781 89.5436C14.1594 80.0421 18.2909 73.069 26.4777 72.1591Z" fill="#35CCAD" stroke="#22093A" stroke-linecap="round" stroke-linejoin="round"/>
<path d="M27.7879 80.5333C28.5736 80.0768 29.8203 82.1227 29.8351 87.1719C29.8499 92.2212 28.8975 94.9422 28.0374 95.4209C27.2614 95.8529 26.1871 94.3118 26.1172 88.9513C26.0599 84.5597 26.6339 81.2038 27.7879 80.5333Z" fill="#22093A" stroke="#22093A" stroke-linecap="round" stroke-linejoin="round"/>
<path d="M44.7217 76.2171C39.7824 77.3303 38.4425 105.47 43.9044 106.981C50.3312 108.758 52.1908 95.8146 52.1908 95.8146C52.1908 95.8146 57.0269 106.4 59.9296 106.887C67.6393 108.179 66.8531 98.6741 59.1284 90.4273C59.1284 90.4273 71.3885 80.8173 63.7212 76.9211C58.4118 74.2232 52.4101 87.7314 52.4101 87.7314C52.4101 87.7314 51.6265 74.6609 44.7217 76.2171Z" fill="#35CCAD" stroke="#22093A" stroke-linecap="round" stroke-linejoin="round"/>
<path d="M75.6325 75.9296C73.1714 75.8805 70.1271 77.0891 68.5921 87.4585C67.2215 96.7165 70.8602 97.1812 71.803 97.2001C72.7459 97.2189 78.2685 97.8053 79.393 87.6739C80.5174 77.5424 79.279 76.0023 75.6325 75.9296Z" fill="#35CCAD" stroke="#22093A" stroke-linecap="round" stroke-linejoin="round"/>
<path d="M72.0021 107.481C74.385 107.481 76.3167 105.55 76.3167 103.167C76.3167 100.784 74.385 98.8521 72.0021 98.8521C69.6192 98.8521 67.6875 100.784 67.6875 103.167C67.6875 105.55 69.6192 107.481 72.0021 107.481Z" fill="#35CCAD" stroke="#22093A" stroke-linecap="round" stroke-linejoin="round"/>
<path d="M25.3987 75.2373C21.779 75.2373 16.4815 80.471 17.336 89.7777" stroke="white" stroke-linecap="round" stroke-linejoin="round"/>
<path d="M43.4068 91.6172C43.246 94.5062 43.4029 97.4041 43.8745 100.259C44.8782 105.197 46.3502 102.949 46.3502 102.949" stroke="white" stroke-linecap="round" stroke-linejoin="round"/>
<path d="M74.5388 78.4844C73.8207 78.7303 71.7041 82.0316 71.1371 86.4877C70.5702 90.9438 70.7591 92.2963 71.1371 93.6078" stroke="white" stroke-linecap="round" stroke-linejoin="round"/>
<path d="M70.9516 101.639C70.167 102.165 69.9572 103.228 70.4832 104.012C70.528 104.079 70.5774 104.143 70.6312 104.202" stroke="white" stroke-linecap="round" stroke-linejoin="round"/>
<path d="M17.7617 93.0625C17.9742 94.4697 18.4998 95.8112 19.2997 96.9883" stroke="white" stroke-linecap="round" stroke-linejoin="round"/>
</svg>
