<svg width="120" height="120" viewBox="0 0 120 120" fill="none" xmlns="http://www.w3.org/2000/svg">
<path d="M17.1365 19.9679C11.2979 17.2786 5.87984 25.8368 7.99132 30.9586C9.38281 34.3339 15.8834 47.6679 21.8815 43.9586C26.9044 40.8524 19.9871 35.1044 19.9871 35.1044C19.9871 35.1044 24.0784 31.7624 22.4687 28.8892C20.8589 26.016 15.9411 30.7117 15.9411 30.7117C15.9411 30.7117 22.6451 22.5051 17.1365 19.9679Z" fill="#22093A" stroke="#22093A" stroke-linecap="round" stroke-linejoin="round"/>
<path d="M105.257 20.9781C105.698 17.896 97.301 13.1663 93.4674 15.6621C90.5868 17.5374 81.8028 28.4248 85.9296 32.151C90.0564 35.8772 95.7964 37.8047 97.5594 34.1217C98.8475 31.4307 93.0674 27.9714 93.0674 27.9714C93.0674 27.9714 98.4125 31.3365 100.179 28.7885C101.946 26.2405 95.986 23.3587 95.986 23.3587C95.986 23.3587 104.449 26.6305 105.257 20.9781Z" fill="#22093A" stroke="#22093A" stroke-linecap="round" stroke-linejoin="round"/>
<path d="M109.871 22.576C105.735 18.9813 98.2844 31.253 95.6334 36.8717C94.3704 39.5484 102.918 47.3707 108.661 44.8454C114.55 42.2559 120.117 31.4808 109.871 22.576Z" fill="#22093A" stroke="#22093A" stroke-linecap="round" stroke-linejoin="round"/>
<path d="M108.034 32.2876C107.046 31.4288 104.329 34.3877 104.232 35.4301C104.168 36.1236 105.724 37.4627 106.922 37.1931C108.119 36.9235 110.482 34.4152 108.034 32.2876Z" fill="#22093A" stroke="#22093A" stroke-linecap="round" stroke-linejoin="round"/>
<path d="M29.8729 39.4513C31.9327 38.7499 34.0977 36.8276 32.2461 27.7487C30.593 19.6427 25.7864 18.8059 24.9973 19.0746C24.2082 19.3433 17.9584 22.0783 20.0794 30.8358C22.2004 39.5933 26.821 40.4906 29.8729 39.4513Z" fill="#22093A" stroke="#22093A" stroke-linecap="round" stroke-linejoin="round"/>
<path d="M23.8608 18.0008C25.9671 18.0008 27.6747 16.2933 27.6747 14.1869C27.6747 12.0806 25.9671 10.373 23.8608 10.373C21.7544 10.373 20.0469 12.0806 20.0469 14.1869C20.0469 16.2933 21.7544 18.0008 23.8608 18.0008Z" fill="#22093A" stroke="#22093A" stroke-linecap="round" stroke-linejoin="round"/>
<path d="M31.1771 13.7754C28.1088 15.7958 29.0126 34.6951 37.9735 34.6314C43.0928 34.595 39.5067 24.5643 39.5067 24.5643C40.3774 28.6935 44.2083 31.5116 48.4094 31.1135C53.3702 30.75 48.9874 8.68747 43.367 8.78941C38.0437 8.88595 41.2939 19.5228 41.2939 19.5228C41.2939 19.5228 34.982 11.27 31.1771 13.7754Z" fill="#22093A" stroke="#22093A" stroke-linecap="round" stroke-linejoin="round"/>
<path d="M55.1424 29.9964C57.1556 29.6078 60.1422 28.5564 59.5866 19.8431C59.0905 12.0637 54.7422 10.875 53.9711 11.0239C53.1999 11.1727 48.0581 12.8038 48.9067 21.2518C49.7554 29.6998 52.1596 30.5722 55.1424 29.9964Z" fill="#22093A" stroke="#22093A" stroke-linecap="round" stroke-linejoin="round"/>
<path d="M53.3066 10.1411C55.2914 10.1411 56.9004 8.53211 56.9004 6.54734C56.9004 4.56258 55.2914 2.95361 53.3066 2.95361C51.3219 2.95361 49.7129 4.56258 49.7129 6.54734C49.7129 8.53211 51.3219 10.1411 53.3066 10.1411Z" fill="#22093A" stroke="#22093A" stroke-linecap="round" stroke-linejoin="round"/>
<path d="M73.3453 14.2896C73.3475 11.8334 70.6856 7.82579 65.32 8.00795C60.0371 8.18731 57.7274 16.3022 63.0332 19.3721C67.9462 22.2147 66.3273 25.5135 64.1954 23.6228C60.0944 19.9858 53.8177 26.681 59.3988 29.625C64.9799 32.569 73.2029 30.0867 74.0411 26.4855C75.6288 19.664 70.4145 18.367 68.0177 17.2033C68.0177 17.2033 73.342 18.0385 73.3453 14.2896Z" fill="#22093A" stroke="#22093A" stroke-linecap="round" stroke-linejoin="round"/>
<path d="M86.7149 8.78915C84.5241 8.2883 83.7961 11.2282 82.3273 16.9238C81.7069 16.7399 81.0303 16.5801 80.318 16.4326C81.4982 11.4532 80.4198 8.14343 77.9345 7.57535C75.5476 7.02967 74.4678 10.257 72.9425 17.1343C71.4172 24.0115 71.4304 28.2681 74.6201 28.7573C76.1815 28.9968 77.413 26.3474 78.5768 22.6684C78.9301 22.7377 79.3007 22.7981 79.7053 22.841C80.2188 22.8954 78.1252 22.6604 78.5768 22.6684C78.0348 26.9321 79.0221 29.7631 81.4601 30.137C83.5574 30.4588 87.2182 25.5821 88.7605 19.983C90.5031 13.6567 89.5401 9.43493 86.7149 8.78915Z" fill="#22093A" stroke="#22093A" stroke-linecap="round" stroke-linejoin="round"/>
<path d="M15.3968 19.2144C12.4576 18.0592 3.29105 24.2989 5.40253 29.4206C6.79402 32.7959 14.7294 45.914 19.2927 42.4206C23.9821 38.8307 17.3983 33.5664 17.3983 33.5664C17.3983 33.5664 21.4896 30.2244 19.8799 27.3512C18.2701 24.4781 13.3523 29.1737 13.3523 29.1737C13.3523 29.1737 21.0415 21.4327 15.3968 19.2144Z" fill="#FD32B0" stroke="#22093A" stroke-linecap="round" stroke-linejoin="round"/>
<path d="M102.669 19.4405C103.11 16.3584 94.7131 11.6287 90.8795 14.1245C87.9989 15.9998 79.2149 26.8872 83.3417 30.6134C87.4685 34.3396 93.2085 36.2671 94.9715 32.5841C96.2597 29.8931 90.4795 26.4338 90.4795 26.4338C90.4795 26.4338 95.8246 29.7989 97.5913 27.2509C99.3581 24.7029 93.3981 21.821 93.3981 21.821C93.3981 21.821 101.862 25.0929 102.669 19.4405Z" fill="#FD32B0" stroke="#22093A" stroke-linecap="round" stroke-linejoin="round"/>
<path d="M108.959 22.1811C104.822 18.5864 95.6964 29.715 93.0455 35.3337C91.7825 38.0105 100.33 45.8327 106.073 43.3074C111.962 40.7179 119.204 31.0859 108.959 22.1811Z" fill="#FD32B0" stroke="#22093A" stroke-linecap="round" stroke-linejoin="round"/>
<path d="M105.446 30.75C104.458 29.8912 101.741 32.85 101.645 33.8925C101.58 34.586 103.136 35.9251 104.334 35.6555C105.531 35.3859 107.894 32.8775 105.446 30.75Z" fill="#22093A" stroke="#22093A" stroke-linecap="round" stroke-linejoin="round"/>
<path d="M27.2838 37.9133C29.3436 37.2118 31.5086 35.2896 29.657 26.2106C28.0039 18.1046 24.8403 18.8158 24.0512 19.0845C23.2621 19.3532 18.4964 20.5314 20.6175 29.2888C22.7385 38.0463 24.2319 38.9525 27.2838 37.9133Z" fill="#FD32B0" stroke="#22093A" stroke-linecap="round" stroke-linejoin="round"/>
<path d="M22.0873 18.0008C24.1937 18.0008 25.9012 16.2933 25.9012 14.1869C25.9012 12.0806 24.1937 10.373 22.0873 10.373C19.981 10.373 18.2734 12.0806 18.2734 14.1869C18.2734 16.2933 19.981 18.0008 22.0873 18.0008Z" fill="#FD32B0" stroke="#22093A" stroke-linecap="round" stroke-linejoin="round"/>
<path d="M30.4763 13.6316C27.408 15.652 30.4309 34.3846 35.3849 33.0937C40.3389 31.8027 36.9181 23.0266 36.9181 23.0266C36.9181 23.0266 41.7901 31.1822 45.8208 29.5757C50.4415 27.7341 46.4856 8.22514 42.5766 8.80209C37.3095 9.57951 38.7053 17.985 38.7053 17.985C38.7053 17.985 34.2812 11.1262 30.4763 13.6316Z" fill="#FD32B0" stroke="#22093A" stroke-linecap="round" stroke-linejoin="round"/>
<path d="M53.2729 28.9214C55.286 28.5327 57.5551 27.0181 56.9995 18.3049C56.5034 10.5254 53.4587 10.7806 52.6875 10.9295C51.9163 11.0784 47.3159 11.5625 48.1646 20.0105C49.0132 28.4585 50.2901 29.4972 53.2729 28.9214Z" fill="#FD32B0" stroke="#22093A" stroke-linecap="round" stroke-linejoin="round"/>
<path d="M51.4863 9.6982C53.4711 9.6982 55.08 8.08923 55.08 6.10447C55.08 4.11971 53.4711 2.51074 51.4863 2.51074C49.5015 2.51074 47.8926 4.11971 47.8926 6.10447C47.8926 8.08923 49.5015 9.6982 51.4863 9.6982Z" fill="#FD32B0" stroke="#22093A" stroke-linecap="round" stroke-linejoin="round"/>
<path d="M70.7572 12.7517C70.7593 10.2954 69.319 7.4012 63.9534 7.58338C58.6705 7.76273 55.1394 14.7643 60.4451 17.8342C65.3581 20.6768 63.7392 23.9756 61.6073 22.0849C57.5062 18.4479 53.1366 25.9062 58.7177 28.8502C64.2988 31.7943 70.6147 28.5487 71.4529 24.9476C73.0407 18.126 67.8263 16.829 65.4296 15.6654C65.4296 15.6653 70.7539 16.5006 70.7572 12.7517Z" fill="#FD32B0" stroke="#22093A" stroke-linecap="round" stroke-linejoin="round"/>
<path d="M85.8471 8.66202C83.6564 8.16115 81.8059 10.4457 80.337 16.1413C79.7166 15.9574 79.0401 15.7975 78.3277 15.65C79.5079 10.6707 79.3338 7.84 76.8484 7.27192C74.4616 6.72624 72.4774 9.47443 70.9522 16.3517C69.427 23.2289 69.4401 27.4855 72.6299 27.9748C74.1913 28.2143 75.4227 25.5649 76.5866 21.8858C76.9398 21.9552 77.3105 22.0155 77.715 22.0584C78.2286 22.1129 78.7028 22.1385 79.1543 22.1464C78.6124 26.4101 79.1906 28.9909 81.6286 29.3649C83.7259 29.6866 85.228 24.7995 86.7703 19.2004C88.5129 12.8742 88.6723 9.3078 85.8471 8.66202Z" fill="#FD32B0" stroke="#22093A" stroke-linecap="round" stroke-linejoin="round"/>
<path d="M10.2713 23.624C6.99771 27.272 7.10333 28.0603 9.60683 31.9331" stroke="#FFC2EB" stroke-linecap="round" stroke-linejoin="round"/>
<path d="M20.8429 13.2725C20.6177 13.9044 20.7622 14.6091 21.2179 15.1014" stroke="#FFC2EB" stroke-linecap="round" stroke-linejoin="round"/>
<path d="M50.3585 5.18994C50.1333 5.82187 50.2778 6.52659 50.7335 7.01891" stroke="#FFC2EB" stroke-linecap="round" stroke-linejoin="round"/>
<path d="M23.1484 27.6309C23.4048 30.2088 24.6036 35.0217 25.9053 34.8508" stroke="#FFC2EB" stroke-linecap="round" stroke-linejoin="round"/>
<path d="M31.8611 16.2104C31.4552 18.1403 31.4551 20.1335 31.8611 22.0633" stroke="#FFC2EB" stroke-linecap="round" stroke-linejoin="round"/>
<path d="M50.7692 19.9678C50.6913 21.5837 51.0881 25.4361 52.2112 25.7779" stroke="#FFC2EB" stroke-linecap="round" stroke-linejoin="round"/>
<path d="M64.1244 10.1014C62.1591 10.012 60.4935 11.5327 60.4041 13.4979C60.3814 13.9971 60.4639 14.4955 60.6464 14.9607" stroke="#FFC2EB" stroke-linecap="round" stroke-linejoin="round"/>
<path d="M72.8978 18.6802C72.5579 20.3019 71.8121 23.6722 72.9218 24.7098" stroke="#FFC2EB" stroke-linecap="round" stroke-linejoin="round"/>
<path d="M89.1504 18.9418C90.9488 17.3117 92.4712 14.5872 95.5073 16.2107" stroke="#FFC2EB" stroke-linecap="round" stroke-linejoin="round"/>
<path d="M97.7268 32.1328C96.5385 33.6732 95.5104 35.3335 95.6905 35.849C96.3587 37.1076 97.3256 38.183 98.5063 38.981" stroke="#FFC2EB" stroke-linecap="round" stroke-linejoin="round"/>
<path d="M100.258 29.0527C99.8541 29.3582 99.9595 29.4607 99.373 30.137" stroke="#FFC2EB" stroke-linecap="round" stroke-linejoin="round"/>
<path d="M55.9646 27.642C58.9076 28.3197 29.6148 104.829 26.0011 104.263C22.3874 103.696 51.2999 26.5678 55.9646 27.642Z" fill="#22093A" stroke="#22093A" stroke-linecap="round" stroke-linejoin="round"/>
<path d="M56.3481 33.6154C56.3481 33.6154 64.9852 27.6311 73.7406 33.2243C80.5902 37.6 78.9297 46.8567 89.1643 53.3604C97.3536 58.5645 104.198 51.8157 104.198 51.8157C104.198 51.8157 99.7696 71.8693 97.0369 80.138C93.7732 90.0136 76.4569 85.0533 66.8071 71.8693C62.3769 65.8165 50.9854 58.0184 45.5801 62.1661C40.1748 66.3138 56.3481 33.6154 56.3481 33.6154Z" fill="#22093A" stroke="#22093A" stroke-linecap="round" stroke-linejoin="round"/>
<path d="M55.7466 33.6154C55.7466 33.6154 64.3837 27.6311 73.1391 33.2243C79.9887 37.6 78.3282 46.8567 88.5628 53.3604C96.7521 58.5645 103.596 51.8157 103.596 51.8157C103.596 51.8157 99.168 71.8693 96.4354 80.138C93.1717 90.0136 75.8554 85.0533 66.2056 71.8693C61.7754 65.8165 50.3838 58.0184 44.9785 62.1661C39.5732 66.3138 55.7466 33.6154 55.7466 33.6154Z" fill="#F1F2F2" stroke="#22093A" stroke-linecap="round" stroke-linejoin="round"/>
<path d="M51.1582 42.8997C51.1582 42.8997 58.5305 38.7567 64.1212 41.0382C75.3344 45.6143 72.7206 55.2769 83.8317 61.2027C95.4097 67.3775 100.555 63.5302 100.555 63.5302" stroke="#22093A" stroke-linecap="round" stroke-linejoin="round"/>
<path d="M46.0137 54.4124C51.2614 51.1019 57.8764 50.8414 63.3683 53.7289C71.9155 57.9227 72.5371 68.5295 83.3808 73.4377C93.8618 78.1818 98.5048 74.0628 98.5048 74.0628" stroke="#22093A" stroke-linecap="round" stroke-linejoin="round"/>
<path d="M66.9756 30.3521L54.2793 62.3712" stroke="#22093A" stroke-linecap="round" stroke-linejoin="round"/>
<path d="M76.0004 35.8491L64.6426 70.4687" stroke="#22093A" stroke-linecap="round" stroke-linejoin="round"/>
<path d="M83.6093 49.6748L74.3066 79.7537" stroke="#22093A" stroke-linecap="round" stroke-linejoin="round"/>
<path d="M93.742 55.1338L84.4375 84.9225" stroke="#22093A" stroke-linecap="round" stroke-linejoin="round"/>
<path d="M55.748 33.6155L52.0137 42.1169C55.4138 39.7814 63.0117 40.3527 63.0117 40.3527L66.7853 30.836C66.7853 30.836 60.3125 29.6992 55.748 33.6155Z" fill="#22093A"/>
<path d="M47.0959 54.1359L43.9707 62.3713C47.3709 60.0358 54.4066 62.0506 54.4066 62.0506L57.9849 51.8858C57.9849 51.8858 51.6604 50.2197 47.0959 54.1359Z" fill="#22093A"/>
<path d="M62.8957 40.646L58.3809 52.0322C60.7168 51.8961 62.9984 52.7715 64.6439 54.4352C67.5471 57.2688 68.626 58.3313 68.626 58.3313L72.261 47.7258C71.3723 45.8222 69.9074 44.2463 68.0736 43.2212C66.4196 42.2251 64.6881 41.3639 62.8957 40.646Z" fill="#22093A"/>
<path d="M80.6752 59.1616L83.6091 49.0958C82.036 47.0282 80.6807 44.8035 79.5648 42.4573C78.6153 40.3564 77.4188 38.3762 76.0005 36.5586L72.2598 47.7258C73.4201 50.2265 74.8606 52.5874 76.5536 54.7631C77.8256 56.3215 79.2027 57.7911 80.6752 59.1616Z" fill="#22093A"/>
<path d="M68.6247 58.3311L64.7871 70.0283C66.3348 72.2489 68.0716 74.3315 69.978 76.2529C71.2909 77.4871 72.8254 78.462 74.5006 79.1261L77.4073 69.7278C77.4073 69.7278 74.8087 66.4597 72.6154 63.3635C71.3864 61.6083 70.0537 59.9278 68.6247 58.3311Z" fill="#22093A"/>
<path d="M80.6762 59.1616L77.4082 69.728C78.9162 71.0864 80.6322 72.1943 82.4909 73.0094C85.5071 74.3105 87.7701 75.0341 87.7701 75.0341L90.9494 64.0755C88.5685 63.5291 86.2853 62.6218 84.1788 61.385L80.6762 59.1616Z" fill="#22093A"/>
<path d="M90.9492 64.0752L93.424 56.1522C95.8787 55.5217 98.2668 54.6556 100.555 53.5659C101.608 53.0531 102.625 52.4682 103.598 51.8154L100.837 63.7266C98.9941 64.7586 96.8744 65.1892 94.7744 64.9583C91.1289 64.6166 90.9492 64.0752 90.9492 64.0752Z" fill="#22093A"/>
<path d="M87.7703 75.0339L84.6902 84.1148C84.6902 84.1148 84.187 85.1777 87.7703 85.3439C91.1767 85.502 92.7401 85.8142 95.914 81.2496C96.8985 79.1979 97.6071 77.0248 98.0213 74.7871C95.8222 75.2575 93.5892 75.5528 91.3434 75.67C90.1186 75.7478 88.893 75.5296 87.7703 75.0339Z" fill="#22093A"/>
<path d="M26.0887 89.6751C19.4013 89.9745 19.8616 108.445 23.1976 112.211C25.417 114.716 35.9011 114.2 39.3627 109.491C42.8243 104.782 42.6547 88.9333 26.0887 89.6751Z" fill="#22093A" stroke="#22093A" stroke-linecap="round" stroke-linejoin="round"/>
<path d="M30.2471 99.1381C28.6493 99.2097 28.7593 103.623 29.5564 104.522C30.8507 105.151 32.4011 104.89 33.4185 103.873C34.3196 102.39 33.8483 100.458 32.366 99.557C31.7314 99.1713 30.9807 99.0229 30.2471 99.1381Z" fill="#22093A" stroke="#22093A" stroke-linecap="round" stroke-linejoin="round"/>
<path d="M45.8355 90.3756C49.8484 89.8137 56.2995 93.24 56.527 101.113C56.7545 108.986 51.955 113.045 47.5617 113.628C43.5977 114.153 38.0451 111.546 37.526 103.178C37.1006 96.3221 39.9414 91.2009 45.8355 90.3756Z" fill="#22093A" stroke="#22093A" stroke-linecap="round" stroke-linejoin="round"/>
<path d="M46.9711 98.1913C47.5302 97.959 48.4681 98.9236 48.5708 101.353C48.6736 103.782 48.0353 105.107 47.4228 105.351C46.8702 105.571 46.0661 104.847 45.9178 102.269C45.7964 100.156 46.1497 98.5324 46.9711 98.1913Z" fill="#22093A" stroke="#22093A" stroke-linecap="round" stroke-linejoin="round"/>
<path d="M57.1094 93.322C53.5933 94.6412 52.3645 113.999 57.5952 113.834C62.8258 113.669 61.4032 104.146 61.4032 104.146C61.4032 104.146 64.4129 113.379 68.7946 112.69C73.8177 111.901 74.2923 91.5581 70.265 91.248C64.8385 90.8302 64.3265 99.5251 64.3265 99.5251C64.3265 99.5251 61.4696 91.6862 57.1094 93.322Z" fill="#22093A" stroke="#22093A" stroke-linecap="round" stroke-linejoin="round"/>
<path d="M85.3303 91.4498C83.9125 89.527 74.3707 90.3287 72.5365 95.9504C71.3396 99.6187 70.225 112.677 76.4434 113.215C82.6618 113.753 87.7154 111.758 87.3488 108.429C86.9822 105.101 79.1606 105.97 79.1606 105.97C79.1606 105.97 85.817 104.74 85.6713 101.262C85.5256 97.7848 78.6465 99.8635 78.6465 99.8635C78.6465 99.8635 89.1343 96.6088 85.3303 91.4498Z" fill="#22093A" stroke="#22093A" stroke-linecap="round" stroke-linejoin="round"/>
<path d="M93.8961 90.0655C92.0366 90.0589 89.7521 91.0096 88.7213 98.861C87.801 105.871 90.5552 106.177 91.2676 106.179C91.98 106.182 96.1587 106.556 96.8823 98.8897C97.6059 91.2231 96.6514 90.0751 93.8961 90.0655Z" fill="#22093A" stroke="#22093A" stroke-linecap="round" stroke-linejoin="round"/>
<path d="M91.4919 113.943C93.292 113.943 94.7513 112.484 94.7513 110.684C94.7513 108.884 93.292 107.424 91.4919 107.424C89.6917 107.424 88.2324 108.884 88.2324 110.684C88.2324 112.484 89.6917 113.943 91.4919 113.943Z" fill="#22093A" stroke="#22093A" stroke-linecap="round" stroke-linejoin="round"/>
<path d="M24.4911 88.5877C17.8036 88.8871 18.264 107.358 21.6 111.124C23.8194 113.629 34.3035 113.113 37.765 108.404C41.2266 103.695 41.057 87.8459 24.4911 88.5877Z" fill="#71C1F2" stroke="#22093A" stroke-linecap="round" stroke-linejoin="round"/>
<path d="M28.6494 98.0507C27.0517 98.1223 27.1617 102.535 27.9587 103.435C29.253 104.064 30.8035 103.803 31.8209 102.785C32.7219 101.303 32.2507 99.3707 30.7683 98.4696C30.1337 98.0839 29.383 97.9355 28.6494 98.0507Z" fill="#22093A" stroke="#22093A" stroke-linecap="round" stroke-linejoin="round"/>
<path d="M44.2379 89.2887C48.2508 88.7268 54.7019 92.1531 54.9293 100.026C55.1568 107.899 50.3573 111.958 45.964 112.541C42 113.066 36.4475 110.46 35.9283 102.091C35.503 95.2352 38.3437 90.114 44.2379 89.2887Z" fill="#71C1F2" stroke="#22093A" stroke-linecap="round" stroke-linejoin="round"/>
<path d="M45.3734 97.1044C45.9326 96.8721 46.8704 97.8367 46.9732 100.266C47.0759 102.695 46.4377 104.02 45.8252 104.264C45.2726 104.484 44.4684 103.76 44.3202 101.182C44.1987 99.0694 44.5521 97.4455 45.3734 97.1044Z" fill="#22093A" stroke="#22093A" stroke-linecap="round" stroke-linejoin="round"/>
<path d="M55.5118 92.2346C51.9957 93.5538 50.7669 112.911 55.9975 112.747C61.2282 112.582 59.8056 103.059 59.8056 103.059C59.8056 103.059 62.8152 112.292 67.197 111.603C72.22 110.814 72.6946 90.4707 68.6673 90.1606C63.2409 89.7428 62.7288 98.4377 62.7288 98.4377C62.7288 98.4377 59.872 90.5988 55.5118 92.2346Z" fill="#71C1F2" stroke="#22093A" stroke-linecap="round" stroke-linejoin="round"/>
<path d="M83.7346 90.3629C82.3168 88.4401 72.775 89.2418 70.9407 94.8635C69.7439 98.5317 68.6292 111.59 74.8477 112.128C81.0661 112.666 86.1197 110.672 85.7531 107.343C85.3865 104.014 77.5649 104.883 77.5649 104.883C77.5649 104.883 84.2213 103.653 84.0756 100.176C83.9299 96.6979 77.0508 98.7766 77.0508 98.7766C77.0508 98.7766 87.5386 95.5219 83.7346 90.3629Z" fill="#71C1F2" stroke="#22093A" stroke-linecap="round" stroke-linejoin="round"/>
<path d="M92.2984 88.9781C90.4389 88.9715 88.1545 89.9222 87.1237 97.7736C86.2033 104.784 88.9576 105.089 89.6699 105.092C90.3823 105.094 94.5611 105.469 95.2846 97.8023C96.0082 90.1356 95.0537 88.9877 92.2984 88.9781Z" fill="#71C1F2" stroke="#22093A" stroke-linecap="round" stroke-linejoin="round"/>
<path d="M89.8942 112.856C91.6943 112.856 93.1536 111.396 93.1536 109.596C93.1536 107.796 91.6943 106.337 89.8942 106.337C88.0941 106.337 86.6348 107.796 86.6348 109.596C86.6348 111.396 88.0941 112.856 89.8942 112.856Z" fill="#71C1F2" stroke="#22093A" stroke-linecap="round" stroke-linejoin="round"/>
<path d="M22.5184 97.0371C22.1767 99.5033 22.1657 104.972 23.7092 108.048" stroke="white" stroke-linecap="round" stroke-linejoin="round"/>
<path d="M44.4744 92.041C42.9678 91.4745 39.4505 93.6359 39.1016 96.7688" stroke="white" stroke-linecap="round" stroke-linejoin="round"/>
<path d="M54.9382 102.534C54.7246 104.745 54.9942 106.976 55.7281 109.073" stroke="white" stroke-linecap="round" stroke-linejoin="round"/>
<path d="M74.3074 94.6616C73.0306 96.9925 72.4603 99.6448 72.6661 102.295" stroke="white" stroke-linecap="round" stroke-linejoin="round"/>
<path d="M92.267 91.9321C91.3955 92.0133 90.2321 92.6037 89.7832 96.8802" stroke="white" stroke-linecap="round" stroke-linejoin="round"/>
<path d="M89.6868 108.731C89.2271 109.047 89.0072 109.612 89.1324 110.155" stroke="white" stroke-linecap="round" stroke-linejoin="round"/>
</svg>
