<svg width="120" height="126" viewBox="0 0 120 126" fill="none" xmlns="http://www.w3.org/2000/svg">
<g clip-path="url(#clip0_5_11008)">
<path opacity="0.5" d="M111.604 3.40687C110.489 2.44019 109.138 1.78656 107.688 1.51265C102.599 0.590559 97.1406 3.29711 92.6918 8.93149C91.2839 10.7142 87.3842 16.1948 87.6995 21.5822C86.8552 18.1121 85.2472 14.5103 82.0553 12.799C80.7177 11.6556 79.0518 10.9662 77.2974 10.8301C74.1502 10.5392 71.0524 11.7625 68.9529 14.125C66.6675 17.1239 65.5043 20.8284 65.665 24.5955C63.696 25.0167 61.8104 25.7617 60.0852 26.8002C57.5251 22.6105 54.1644 18.9664 50.1951 16.0763C44.4097 11.2305 39.1792 10.6211 35.7965 10.9741C32.2715 11.2225 29.0759 13.1357 27.1921 16.1255C23.2421 22.6143 26.825 31.7763 29.7037 39.1372C30.0005 39.8942 30.2798 40.6064 30.5239 41.2571C30.8331 42.079 31.1896 43.1935 31.5742 44.4967C28.6374 44.2311 25.6838 44.7715 23.0313 46.0599C17.4681 48.5833 13.5616 53.7528 12.6531 59.7937C10.8004 60.4144 9.09783 61.4152 7.65441 62.7321C2.97555 66.986 1.16123 74.1397 2.2607 83.9954C3.00188 90.63 6.23539 107.076 20.2054 117.001C27.8769 123.096 37.4616 126.273 47.2549 125.966C49.8313 125.96 52.405 125.798 54.9617 125.48C75.1793 123.015 88.1042 110.644 91.357 90.6458C93.4611 77.7181 91.8242 67.4303 86.6219 60.8958C85.2465 59.1674 83.5806 57.6916 81.6989 56.5347C83.2475 56.1404 84.654 55.3185 85.7577 54.1628C88.2025 51.6021 89.0228 47.5914 89.1685 43.868C91.0995 43.4448 92.9698 42.7817 94.7361 41.894C95.9932 52.9724 99.9742 56.1175 102.355 57.3067C104.195 58.7487 106.465 59.5314 108.803 59.5294C109.012 59.5294 109.221 59.5232 109.43 59.5109C118.624 58.9744 119.487 45.2248 119.812 40.0479C120.021 36.7038 121.433 9.16506 111.604 3.40687ZM72.067 53.5903C71.879 53.5666 71.6911 53.5472 71.5014 53.5349C71.3503 53.5253 71.1976 53.5165 71.0448 53.5095C70.9066 52.9855 70.76 52.4825 70.6182 51.9676C71.0579 52.5614 71.5601 53.1063 72.1161 53.5929L72.067 53.5903Z" fill="#231F20"/>
<path d="M109.655 2.07143C108.54 1.10474 107.188 0.451111 105.738 0.177204C100.65 -0.74489 95.1914 1.96165 90.7426 7.59604C89.3346 9.37873 85.435 14.8593 85.7503 20.2467C84.906 16.7766 83.298 13.1749 80.1061 11.4635C78.7685 10.3201 77.1026 9.63075 75.3481 9.49467C72.201 9.2038 69.1031 10.427 67.0037 12.7895C64.7183 15.7885 63.555 19.493 63.7158 23.2601C61.7467 23.6813 59.8612 24.4263 58.136 25.4648C55.5759 21.2751 52.2151 17.631 48.2459 14.7409C42.4605 9.8951 37.23 9.28564 33.8473 9.63867C30.3223 9.88712 27.1267 11.8003 25.2429 14.7901C21.2929 21.2789 24.8758 30.4409 27.7545 37.8018C28.0513 38.5588 28.3306 39.271 28.5747 39.9217C28.8838 40.7436 29.2404 41.8581 29.625 43.1613C26.6882 42.8956 23.7346 43.4361 21.0821 44.7245C15.5189 47.2478 11.6124 52.4174 10.7038 58.4583C8.8512 59.079 7.14864 60.0798 5.70524 61.3966C1.02632 65.6505 -0.787994 72.8041 0.311486 82.6599C1.05267 89.2946 4.28618 105.74 18.2561 115.665C25.9277 121.76 35.5124 124.937 45.3057 124.631C47.8821 124.625 50.4558 124.463 53.0126 124.145C73.2299 121.679 86.1549 109.308 89.4077 89.3104C91.5118 76.3827 89.8749 66.0949 84.6726 59.5604C83.2972 57.8319 81.6313 56.3562 79.7496 55.1993C81.2983 54.805 82.7048 53.983 83.8086 52.8274C86.2534 50.2666 87.0736 46.256 87.2194 42.5325C89.1503 42.1094 91.0207 41.4462 92.7869 40.5585C94.0441 51.6369 98.025 54.7821 100.406 55.9713C102.246 57.4132 104.516 58.1959 106.854 58.1939C107.063 58.1939 107.272 58.1878 107.481 58.1755C116.675 57.6389 117.538 43.8893 117.863 38.7125C118.071 35.3684 119.484 7.82963 109.655 2.07143ZM70.1177 52.2548C69.9298 52.2311 69.7419 52.2118 69.5522 52.1995C69.4011 52.1898 69.2483 52.1811 69.0955 52.174C68.9573 51.6501 68.8108 51.1471 68.669 50.6322C69.1087 51.226 69.6109 51.7709 70.1669 52.2575L70.1177 52.2548Z" fill="white"/>
<path d="M69.8492 58.5447C67.9555 58.4217 67.015 60.1014 64.6498 60.5829L64.648 60.5771C57.8197 29.0429 45.6366 16.5005 36.546 17.4519C27.4556 18.4033 33.8642 32.22 36.5103 39.2606C38.4588 44.4448 41.4935 57.7618 41.4935 57.7618C41.4935 57.7618 34.678 47.7528 25.828 51.9613C16.9779 56.1697 18.9604 65.6277 18.9604 65.6277C18.9604 65.6277 6.31995 62.9831 8.61182 83.5133C10.274 98.4025 20.1266 121.819 52.256 117.899C69.7788 115.761 80.391 105.572 83.2011 88.3014C85.8498 72.0229 82.107 59.3408 69.8492 58.5447Z" fill="#22093A" stroke="#22093A" stroke-linecap="round" stroke-linejoin="round"/>
<path d="M68.6838 77.4651C68.6838 77.4651 47.2002 84.5104 46.5364 73.7464C45.8725 62.9824 61.0128 57.9541 69.1475 58.4825C81.4053 59.2786 83.8107 70.4723 81.162 86.7509C78.3519 104.021 67.7397 114.21 50.2169 116.348C18.0876 120.269 8.23494 96.852 6.57276 81.9626C4.28087 61.4325 16.9214 64.0771 16.9214 64.0771C16.9214 64.0771 14.9387 54.619 23.7888 50.4105C32.6388 46.202 39.4544 56.211 39.4544 56.211C39.4544 56.211 36.4196 42.894 34.4712 37.7098C31.825 30.6692 25.4164 16.8526 34.5069 15.9011C43.5974 14.9497 55.7806 27.4921 62.6088 59.0262" fill="#FCC707"/>
<path d="M68.6838 77.4651C68.6838 77.4651 47.2002 84.5104 46.5364 73.7464C45.8725 62.9824 61.0128 57.9541 69.1475 58.4825C81.4053 59.2786 83.8107 70.4723 81.162 86.7509C78.3519 104.021 67.7398 114.21 50.2169 116.348C18.0875 120.269 8.23494 96.852 6.57276 81.9626C4.28087 61.4325 16.9214 64.0771 16.9214 64.0771C16.9214 64.0771 14.9387 54.619 23.7888 50.4105C32.6388 46.202 39.4544 56.211 39.4544 56.211C39.4544 56.211 36.4196 42.894 34.4712 37.7098C31.825 30.6692 25.4164 16.8526 34.5069 15.9011C43.5973 14.9497 55.7806 27.4921 62.6088 59.0262" stroke="#22093A" stroke-linecap="round" stroke-linejoin="round"/>
<path d="M16.9219 64.0767C21.309 65.011 30.0421 67.883 30.9164 75.006C32.1484 85.043 18.4606 82.9435 18.4606 82.9435" stroke="#22093A" stroke-linecap="round" stroke-linejoin="round"/>
<path d="M39.4556 56.2109C42.1563 60.8093 47.7413 70.1649 40.5905 73.4902C34.2294 76.4483 30.7383 73.5492 30.7383 73.5492" stroke="#22093A" stroke-linecap="round" stroke-linejoin="round"/>
<path d="M76.3197 16.7435C80.2976 17.0322 80.5 29.227 80.5 29.227C80.5 29.227 91.2018 25.5691 92.4603 30.9654C93.7188 36.3616 80.6942 37.1128 80.6942 37.1128C80.6942 37.1128 82.2062 49.5637 77.3872 49.2034C72.5683 48.8432 73.0465 37.3413 73.0465 37.3413C73.0465 37.3413 61.8265 38.9429 61.0801 35.6967C59.7214 29.787 71.9314 29.7916 71.9314 29.7916C71.9314 29.7916 69.3079 16.2345 76.3197 16.7435Z" fill="#22093A" stroke="#22093A" stroke-linecap="round" stroke-linejoin="round"/>
<path d="M106.045 7.34156C112.837 8.57125 114.031 51.4895 107.12 51.8926C97.2444 52.4686 100.745 22.6863 100.745 22.6863C100.745 22.6863 95.3528 25.6948 93.6795 21.8798C92.0063 18.0648 99.7889 6.20881 106.045 7.34156Z" fill="#22093A" stroke="#22093A" stroke-linecap="round" stroke-linejoin="round"/>
<path d="M74.8959 15.7742C78.8737 16.063 79.0762 28.2578 79.0762 28.2578C79.0762 28.2578 89.778 24.5999 91.0365 29.9962C92.2949 35.3924 79.2703 36.1436 79.2703 36.1436C79.2703 36.1436 80.7823 48.5945 75.9634 48.2342C71.1445 47.874 71.6227 36.3721 71.6227 36.3721C71.6227 36.3721 60.4027 37.9736 59.6563 34.7275C58.2976 28.8177 70.5075 28.8224 70.5075 28.8224C70.5075 28.8224 67.8841 15.2652 74.8959 15.7742Z" fill="#35CCAD" stroke="#22093A" stroke-linecap="round" stroke-linejoin="round"/>
<path d="M104.621 6.37232C111.413 7.60201 112.607 50.5202 105.696 50.9234C95.8205 51.4994 99.3216 21.7171 99.3216 21.7171C99.3216 21.7171 93.9289 24.7255 92.2557 20.9106C90.5825 17.0956 98.3651 5.23955 104.621 6.37232Z" fill="#35CCAD" stroke="#22093A" stroke-linecap="round" stroke-linejoin="round"/>
<path d="M95.2715 18.1199C96.4574 15.314 98.2814 12.8235 100.599 10.8462" stroke="white" stroke-linecap="round" stroke-linejoin="round"/>
<path d="M102.257 35.3569C102.022 38.079 103.002 44.9845 104.87 45.9688" stroke="white" stroke-linecap="round" stroke-linejoin="round"/>
<path d="M74.11 19.3062C73.4302 19.7752 72.6696 21.7138 73.5064 26.7204" stroke="white" stroke-linecap="round" stroke-linejoin="round"/>
<path d="M35.1074 56.8838C36.4956 58.3216 37.6137 59.9975 38.4083 61.8314C41.4816 68.6953 38.8226 70.7938 38.8226 70.7938" stroke="white" stroke-linecap="round" stroke-linejoin="round"/>
<path d="M30.3203 53.8906C31.2495 54.1462 32.1301 54.5536 32.9263 55.0965" stroke="white" stroke-linecap="round" stroke-linejoin="round"/>
<path d="M23.457 71.0845C26.1206 72.0065 28.272 76.3092 26.3255 78.1533" stroke="white" stroke-linecap="round" stroke-linejoin="round"/>
<path d="M33.8535 22.5107C33.9332 25.1064 35.3349 29.5425 38.3116 36.1122" stroke="white" stroke-linecap="round" stroke-linejoin="round"/>
<path d="M10.0353 75.2852C9.36614 80.6134 10.2527 86.0214 12.588 90.857" stroke="white" stroke-linecap="round" stroke-linejoin="round"/>
<path d="M13.5195 94.7168C13.9511 95.9063 14.5002 97.0498 15.1587 98.1304" stroke="white" stroke-linecap="round" stroke-linejoin="round"/>
</g>
<defs>
<clipPath id="clip0_5_11008">
<rect width="120" height="125.966" fill="white"/>
</clipPath>
</defs>
</svg>
