<svg width="120" height="120" viewBox="0 0 120 120" fill="none" xmlns="http://www.w3.org/2000/svg">
<path d="M37.7335 81.3068C38.9094 78.2757 38.5138 74.015 31.8033 71.677C25.1963 69.3751 17.4929 76.3314 22.5763 82.6553C27.2833 88.511 23.7092 91.8099 21.9806 88.4576C18.6554 82.0092 9.69877 89.1289 15.1821 95.4289C20.6655 101.729 30.0123 100.739 32.7671 96.6942C37.9854 89.0318 32.1681 84.9401 29.7653 82.3588C29.7653 82.3588 35.9389 85.9331 37.7335 81.3068Z" fill="#22093A" stroke="#22093A" stroke-miterlimit="10" stroke-linecap="round" stroke-linejoin="round"/>
<path d="M52.147 83.0165C41.7742 79.2805 37.6451 80.8264 37.3147 84.4777C36.8181 89.9646 43.7084 91.4083 43.7084 91.4083C43.7084 91.4083 33.5478 107.521 40.437 110.171C49.0262 113.475 50.9649 93.3163 50.9649 93.3163C50.9649 93.3163 60.931 97.3036 62.0122 92.9229C62.9207 89.2419 59.0988 85.5204 52.147 83.0165Z" fill="#22093A" stroke="#22093A" stroke-miterlimit="10" stroke-linecap="round" stroke-linejoin="round"/>
<path d="M83.8093 102.474C83.2068 98.8625 79.7088 81.6675 70.6857 83.2719C65.9891 84.1069 63.5991 89.9262 63.0066 96.2337C62.3637 103.077 63.2652 113.004 67.0237 112.652C70.0046 112.372 71.2133 107.993 71.6745 103.631C71.8345 103.638 74.2096 103.647 74.2096 103.647C75.6338 107.497 77.873 112.172 80.4794 111.115C83.2797 109.979 84.3663 105.813 83.8093 102.474ZM71.8932 99.2116C72.0158 95.9997 71.8345 94.7032 71.8345 94.7032C71.8345 94.7032 72.2982 96.0895 73.1898 99.2086L71.8932 99.2116Z" fill="#22093A" stroke="#22093A" stroke-miterlimit="10" stroke-linecap="round" stroke-linejoin="round"/>
<path d="M85.5102 76.006C79.5679 79.7909 80.7693 83.9136 83.7398 92.1499C86.6947 100.343 89.5747 106.432 93.4397 104.681C97.3046 102.93 94.3577 91.2557 94.3577 91.2557C94.3577 91.2557 103.74 101.14 107.896 97.2036C113.41 91.9811 99.6112 86.0497 99.6112 86.0497C104.903 83.8627 105.574 63.2265 85.5102 76.006Z" fill="#22093A" stroke="#22093A" stroke-miterlimit="10" stroke-linecap="round" stroke-linejoin="round"/>
<path d="M89.1641 80.3434C89.1641 80.3434 92.538 78.0205 93.0254 80.1629C93.5127 82.3054 90.5533 83.7052 90.5533 83.7052L89.1641 80.3434Z" fill="#22093A" stroke="#22093A" stroke-miterlimit="10" stroke-linecap="round" stroke-linejoin="round"/>
<path d="M36.2394 82.2223C37.4153 79.1912 37.0197 74.9305 30.3091 72.5925C23.7021 70.2906 15.9988 77.2469 21.0821 83.5708C25.7891 89.4266 22.2151 92.7254 20.4864 89.3731C17.1612 82.9247 8.20463 90.0444 13.688 96.3444C19.1714 102.644 28.5182 101.655 31.273 97.6097C36.4912 89.9473 30.674 85.8556 28.2711 83.2744C28.2711 83.2744 34.4447 86.8486 36.2394 82.2223Z" fill="#9736FF" stroke="#22093A" stroke-miterlimit="10" stroke-linecap="round" stroke-linejoin="round"/>
<path d="M50.6529 83.9321C40.28 80.196 36.151 81.7419 35.8205 85.3933C35.3239 90.8802 42.2143 92.3238 42.2143 92.3238C42.2143 92.3238 32.0537 108.437 38.9429 111.086C47.5321 114.39 49.4708 94.2318 49.4708 94.2318C49.4708 94.2318 59.4369 98.2191 60.5181 93.8385C61.4266 90.1575 57.6046 86.4359 50.6529 83.9321Z" fill="#9736FF" stroke="#22093A" stroke-miterlimit="10" stroke-linecap="round" stroke-linejoin="round"/>
<path d="M82.3152 103.39C81.7126 99.7781 78.2147 82.583 69.1915 84.1874C64.495 85.0224 62.105 90.8417 61.5125 97.1492C60.8696 103.992 61.771 113.92 65.5295 113.567C68.5105 113.288 69.7192 108.909 70.1804 104.547C70.3404 104.553 72.7154 104.562 72.7154 104.562C74.1396 108.412 76.3789 113.087 78.9853 112.03C81.7856 110.894 82.8721 106.729 82.3152 103.39ZM70.399 100.127C70.5217 96.9152 70.3404 95.6187 70.3404 95.6187C70.3404 95.6187 70.8041 97.005 71.6957 100.124L70.399 100.127Z" fill="#9736FF" stroke="#22093A" stroke-miterlimit="10" stroke-linecap="round" stroke-linejoin="round"/>
<path d="M84.016 76.9216C78.0738 80.7064 79.2752 84.8291 82.2457 93.0654C85.2005 101.258 88.0806 107.348 91.9456 105.597C95.8105 103.845 92.8636 92.1713 92.8636 92.1713C92.8636 92.1713 102.246 102.055 106.402 98.1191C111.916 92.8966 98.1171 86.9653 98.1171 86.9653C103.409 84.7783 104.08 64.142 84.016 76.9216Z" fill="#9736FF" stroke="#22093A" stroke-miterlimit="10" stroke-linecap="round" stroke-linejoin="round"/>
<path d="M87.6699 81.259C87.6699 81.259 91.0439 78.936 91.5312 81.0785C92.0186 83.2209 89.0592 84.6207 89.0592 84.6207L87.6699 81.259Z" fill="#22093A" stroke="#22093A" stroke-miterlimit="10" stroke-linecap="round" stroke-linejoin="round"/>
<path d="M15.2246 92.1182C15.2246 93.6561 16.9335 96.6163 21.7183 97.5865" stroke="#D9BBFF" stroke-miterlimit="10" stroke-linecap="round" stroke-linejoin="round"/>
<path d="M22.4883 79.8716C22.1465 78.2197 23.9693 75.2007 26.9313 75.2007" stroke="#D9BBFF" stroke-miterlimit="10" stroke-linecap="round" stroke-linejoin="round"/>
<path d="M64.6514 96.957C64.6076 97.3976 64.5726 97.8533 64.5469 98.3242" stroke="#D9BBFF" stroke-miterlimit="10" stroke-linecap="round" stroke-linejoin="round"/>
<path d="M68.5992 87.2197C66.2068 89.0425 65.6327 90.9483 65.0469 94.3357" stroke="#D9BBFF" stroke-miterlimit="10" stroke-linecap="round" stroke-linejoin="round"/>
<path d="M41.142 100.492C40.0639 102.577 38.0091 106.644 40.4585 108.295" stroke="#D9BBFF" stroke-miterlimit="10" stroke-linecap="round" stroke-linejoin="round"/>
<path d="M85.2324 92.1182C85.5172 94.3354 88.3188 101.232 90.0742 101.574" stroke="#D9BBFF" stroke-miterlimit="10" stroke-linecap="round" stroke-linejoin="round"/>
<path d="M43.4128 85.059C39.4824 83.6047 37.3357 86.4342 40.1659 88.3415" stroke="#D9BBFF" stroke-miterlimit="10" stroke-linecap="round" stroke-linejoin="round"/>
<path d="M23.1418 23.1701C21.5048 20.3611 17.9012 17.9742 11.9153 21.8039C4.97837 26.242 6.23762 36.447 14.7473 35.8624C24.7758 35.1734 23.8163 40.5224 18.9129 39.9452C11.7073 39.0971 11.7814 49.967 20.1257 49.6068C28.4701 49.2467 33.523 41.3214 32.0774 36.6457C29.339 27.7888 22.5132 29.7867 18.997 30.0564C18.997 30.0564 25.6403 27.4573 23.1418 23.1701Z" fill="#22093A" stroke="#22093A" stroke-miterlimit="10" stroke-linecap="round" stroke-linejoin="round"/>
<path d="M103.723 18.8476C97.6851 16.3694 95.2053 19.4797 90.5556 26.1253C85.9305 32.7358 82.858 38.1669 86.2468 40.1581C89.6357 42.1494 96.9007 33.6864 96.9007 33.6864C96.9007 33.6864 94.4263 46.0655 99.6247 47.1106C106.522 48.4972 103.646 34.8845 103.646 34.8845C108.127 37.7236 124.108 27.2151 103.723 18.8476Z" fill="#22093A" stroke="#22093A" stroke-miterlimit="10" stroke-linecap="round" stroke-linejoin="round"/>
<path d="M102.389 23.9297C102.389 23.9297 105.949 25.2439 104.587 26.7566C103.226 28.2692 100.586 26.776 100.586 26.776L102.389 23.9297Z" fill="#22093A" stroke="#22093A" stroke-miterlimit="10" stroke-linecap="round" stroke-linejoin="round"/>
<path d="M27.959 12.8123C22.4199 15.5695 28.8453 41.2862 42.2388 36.9571C53.5099 33.3141 48.8676 9.60651 44.0406 10.3404C33.9992 11.8671 44.9823 25.8715 39.6409 27.3245C36.8631 28.0801 34.4935 9.55961 27.959 12.8123Z" fill="#22093A" stroke="#22093A" stroke-miterlimit="10" stroke-linecap="round" stroke-linejoin="round"/>
<path d="M53.9878 9.51638C49.8645 10.9178 50.6708 15.8301 49.8311 25.9347C49.1222 34.4658 52.2873 35.7076 55.2622 35.6813C61.2065 35.6288 60.2286 24.2718 60.2286 24.2718C60.2286 24.2718 72.8584 28.0995 72.9201 14.8564C72.9548 7.41904 58.225 8.07628 53.9878 9.51638Z" fill="#22093A" stroke="#22093A" stroke-miterlimit="10" stroke-linecap="round" stroke-linejoin="round"/>
<path d="M60.5112 14.9046C60.5112 14.9046 64.1712 14.4459 63.6729 16.3606C63.1745 18.2753 60.2285 18.1679 60.2285 18.1679L60.5112 14.9046Z" fill="#22093A" stroke="#22093A" stroke-miterlimit="10" stroke-linecap="round" stroke-linejoin="round"/>
<path d="M93.8336 15.5814C93.4675 11.6701 81.7734 8.33679 77.8038 12.5268C74.8211 15.6751 67.2457 31.6175 73.4053 34.9757C79.5649 38.3338 87.1748 39.0104 88.2546 33.9728C89.0436 30.2922 80.9339 27.7478 80.9339 27.7478C80.9339 27.7478 88.482 30.3045 89.9003 26.6585C91.3186 23.0124 83.1582 21.2295 83.1582 21.2295C83.1582 21.2295 94.5049 22.7544 93.8336 15.5814Z" fill="#22093A" stroke="#22093A" stroke-miterlimit="10" stroke-linecap="round" stroke-linejoin="round"/>
<path d="M21.8644 20.9884C20.2274 18.1794 16.6238 15.7926 10.6379 19.6223C3.70103 24.0604 4.96028 34.2653 13.47 33.6807C23.4985 32.9918 22.5389 38.3407 17.6355 37.7636C10.43 36.9155 10.5041 47.7853 18.8484 47.4252C27.1927 47.065 32.2456 39.1398 30.8 34.4641C28.0617 25.6072 21.2359 27.605 17.7197 27.8747C17.7197 27.8747 24.363 25.2757 21.8644 20.9884Z" fill="#9736FF" stroke="#22093A" stroke-miterlimit="10" stroke-linecap="round" stroke-linejoin="round"/>
<path d="M102.445 16.6654C96.4077 14.1873 93.9279 17.2976 89.2783 23.9432C84.6532 30.5537 81.5806 35.9848 84.9695 37.976C88.3584 39.9673 95.6233 31.5043 95.6233 31.5043C95.6233 31.5043 93.149 43.8833 98.3474 44.9284C105.245 46.3151 102.369 32.7024 102.369 32.7024C106.85 35.5414 122.831 25.033 102.445 16.6654Z" fill="#9736FF" stroke="#22093A" stroke-miterlimit="10" stroke-linecap="round" stroke-linejoin="round"/>
<path d="M101.112 21.7476C101.112 21.7476 104.672 23.0618 103.31 24.5744C101.948 26.0871 99.3086 24.5939 99.3086 24.5939L101.112 21.7476Z" fill="#22093A" stroke="#22093A" stroke-miterlimit="10" stroke-linecap="round" stroke-linejoin="round"/>
<path d="M26.6797 10.6307C21.1406 13.3879 27.566 39.1045 40.9595 34.7755C52.2306 31.1324 47.5883 7.42487 42.7613 8.15877C32.7199 9.68549 43.703 23.6899 38.3616 25.1428C35.5839 25.8984 33.2142 7.37797 26.6797 10.6307Z" fill="#9736FF" stroke="#22093A" stroke-miterlimit="10" stroke-linecap="round" stroke-linejoin="round"/>
<path d="M52.7105 7.33426C48.5872 8.73566 49.3934 13.648 48.5538 23.7526C47.8449 32.2837 51.01 33.5255 53.9848 33.4992C59.9291 33.4467 58.9512 22.0897 58.9512 22.0897C58.9512 22.0897 71.5811 25.9173 71.6428 12.6743C71.6775 5.23691 56.9477 5.89415 52.7105 7.33426Z" fill="#9736FF" stroke="#22093A" stroke-miterlimit="10" stroke-linecap="round" stroke-linejoin="round"/>
<path d="M59.2339 12.7224C59.2339 12.7224 62.8939 12.2638 62.3955 14.1785C61.8972 16.0932 58.9512 15.9857 58.9512 15.9857L59.2339 12.7224Z" fill="#22093A" stroke="#22093A" stroke-miterlimit="10" stroke-linecap="round" stroke-linejoin="round"/>
<path d="M92.5543 13.3992C92.1882 9.48802 80.4942 6.15466 76.5245 10.3447C73.5418 13.493 65.9664 29.4354 72.126 32.7935C78.2856 36.1516 85.8955 36.8283 86.9753 31.7907C87.7643 28.11 79.6545 25.5657 79.6545 25.5657C79.6545 25.5657 87.2028 28.1224 88.621 24.4763C90.0393 20.8303 81.8789 19.0474 81.8789 19.0474C81.8789 19.0474 93.2256 20.5723 92.5543 13.3992Z" fill="#9736FF" stroke="#22093A" stroke-miterlimit="10" stroke-linecap="round" stroke-linejoin="round"/>
<path d="M11.9518 22.1436C9.28038 23.8392 6.91028 29.0615 11.5802 30.8842" stroke="#D9BBFF" stroke-miterlimit="10" stroke-linecap="round" stroke-linejoin="round"/>
<path d="M26.5039 32.6372C27.0628 32.8912 28.889 35.1267 27.5695 38.175" stroke="#D9BBFF" stroke-miterlimit="10" stroke-linecap="round" stroke-linejoin="round"/>
<path d="M28.4785 21.9233C29.3072 24.473 30.4417 27.1227 31.7419 28.6625" stroke="#D9BBFF" stroke-miterlimit="10" stroke-linecap="round" stroke-linejoin="round"/>
<path d="M27.2715 17.3271C27.3793 17.8905 27.523 18.5349 27.6985 19.228" stroke="#D9BBFF" stroke-miterlimit="10" stroke-linecap="round" stroke-linejoin="round"/>
<path d="M66.7793 9.83887C68.0518 10.3436 69.0076 11.2527 68.9786 12.6741C68.9217 15.4652 67.7445 17.6306 67.7445 17.6306" stroke="#D9BBFF" stroke-miterlimit="10" stroke-linecap="round" stroke-linejoin="round"/>
<path d="M62.8164 9.06055C63.4955 9.1007 63.509 9.15273 64.1915 9.21934" stroke="#D9BBFF" stroke-miterlimit="10" stroke-linecap="round" stroke-linejoin="round"/>
<path d="M51.0506 27.4371C50.9735 26.7612 51.0224 26.739 50.9707 26.0552" stroke="#D9BBFF" stroke-miterlimit="10" stroke-linecap="round" stroke-linejoin="round"/>
<path d="M73.7408 21.9233C73.2709 23.2162 71.263 27.8792 73.57 30.4225" stroke="#D9BBFF" stroke-miterlimit="10" stroke-linecap="round" stroke-linejoin="round"/>
<path d="M108.515 23.6196C109.584 24.0677 110.353 27.7418 106.807 29.4079" stroke="#D9BBFF" stroke-miterlimit="10" stroke-linecap="round" stroke-linejoin="round"/>
<path d="M83.3344 85.24L61.8015 72.1417L41.1769 84.2888L46.4149 65.2498L33.5488 48.8991L53.3464 45.9056L60.1527 25.0747L70.5886 43.0516L91.5852 44.4978L79.931 62.9055L83.3344 85.24Z" fill="#22093A" stroke="#22093A" stroke-miterlimit="10" stroke-linecap="round" stroke-linejoin="round"/>
<path d="M82.7512 84.255L61.6776 71.2933L41.1773 84.2888L44.6063 63.511L31.7402 47.1604L51.5378 44.1669L60.1531 25.0747L70.0965 43.5806L90.9022 44.3931L79.09 62.84L82.7512 84.255Z" fill="#FCC707" stroke="#22093A" stroke-miterlimit="10" stroke-linecap="round" stroke-linejoin="round"/>
<path d="M76.3051 47.3711L61.9355 47.7993C61.9355 47.7993 61.1887 59.7338 70.0434 58.6456C78.898 57.5573 76.3051 47.3711 76.3051 47.3711Z" fill="#22093A" stroke="#22093A" stroke-miterlimit="10" stroke-linecap="round" stroke-linejoin="round"/>
<path d="M59.1274 47.7637L44.7577 48.1919C44.7577 48.1919 44.011 60.1264 52.8656 59.0381C61.7203 57.9499 59.1274 47.7637 59.1274 47.7637Z" fill="#22093A" stroke="#22093A" stroke-miterlimit="10" stroke-linecap="round" stroke-linejoin="round"/>
<path d="M61.8025 51.1549L59.4883 51.063" stroke="#22093A" stroke-miterlimit="10" stroke-linecap="round" stroke-linejoin="round"/>
<path d="M51.3961 49.6152L48.2227 54.4088" stroke="white" stroke-miterlimit="10" stroke-linecap="round" stroke-linejoin="round"/>
<path d="M55.8662 49.2256L50.6562 57.3712" stroke="white" stroke-miterlimit="10" stroke-linecap="round" stroke-linejoin="round"/>
<path d="M74.8065 49.6152L71.0566 56.0037" stroke="white" stroke-miterlimit="10" stroke-linecap="round" stroke-linejoin="round"/>
<path d="M71.0584 49.0547L69.291 52.0123" stroke="white" stroke-miterlimit="10" stroke-linecap="round" stroke-linejoin="round"/>
<path d="M66.7306 60.5898L55.8791 60.7517C55.7012 65.3528 57.2236 68.6799 61.2252 68.6903C67.6562 68.707 66.7306 60.5898 66.7306 60.5898Z" fill="white" stroke="#22093A" stroke-miterlimit="10" stroke-linecap="round" stroke-linejoin="round"/>
<path d="M56.5469 63.9951H66.0351" stroke="#22093A" stroke-miterlimit="10" stroke-linecap="round" stroke-linejoin="round"/>
<path d="M59.7943 33.8579L56.8535 40.6318" stroke="white" stroke-miterlimit="10" stroke-linecap="round" stroke-linejoin="round"/>
<path d="M93.0817 55.5665L90.8301 57.8174L93.081 60.069L95.3326 57.8181L93.0817 55.5665Z" fill="#EC6509"/>
<path d="M93.0815 65.6309C92.6904 65.6309 92.3638 65.3291 92.3345 64.9395C91.8818 59.1365 91.7632 59.0178 85.9609 58.5652C85.5713 58.5344 85.2695 58.2092 85.2695 57.8174C85.2695 57.4255 85.5713 57.1003 85.9609 57.0696C91.7632 56.6177 91.8818 56.499 92.3345 50.6975C92.3638 50.3064 92.6904 50.0054 93.0815 50.0054C93.4727 50.0054 93.7993 50.3064 93.8286 50.6975C94.2812 56.499 94.3999 56.6177 100.204 57.0696C100.593 57.1003 100.895 57.4255 100.895 57.8174C100.895 58.2092 100.593 58.5344 100.204 58.5652C94.3999 59.0178 94.2812 59.1365 93.8286 64.9395C93.7993 65.3291 93.4727 65.6309 93.0815 65.6309ZM90.8301 57.8174C91.9873 58.2422 92.6567 58.9116 93.0815 60.0688C93.5063 58.9116 94.1758 58.2422 95.333 57.8174C94.1758 57.3933 93.5063 56.7239 93.0815 55.5667C92.6567 56.7239 91.9873 57.3933 90.8301 57.8174Z" fill="#22093A"/>
<path d="M27.6999 58.8604L24.0508 62.5088L27.6992 66.1579L31.3483 62.5095L27.6999 58.8604Z" fill="#EC6509"/>
<path d="M27.6995 72.3557C27.3076 72.3557 26.9824 72.054 26.9517 71.6643C26.3613 64.0837 26.1255 63.8479 18.5449 63.2561C18.1545 63.2268 17.8535 62.9001 17.8535 62.509C17.8535 62.1179 18.1545 61.7913 18.5449 61.762C26.1255 61.1702 26.3613 60.9343 26.9517 53.3545C26.9824 52.9641 27.3076 52.6631 27.6995 52.6631C28.0913 52.6631 28.4165 52.9641 28.4473 53.3545C29.0376 60.9343 29.2734 61.1702 36.854 61.762C37.2444 61.7913 37.5454 62.1179 37.5454 62.509C37.5454 62.9001 37.2444 63.2268 36.854 63.2561C29.2734 63.8479 29.0376 64.0837 28.4473 71.6643C28.4165 72.054 28.0913 72.3557 27.6995 72.3557ZM24.0505 62.509C26.1094 63.0891 27.1194 64.0999 27.6995 66.158C28.2795 64.0999 29.2896 63.0891 31.3484 62.509C29.2895 61.929 28.2795 60.9182 27.6995 58.8608C27.1194 60.9182 26.1094 61.929 24.0505 62.509Z" fill="#22093A"/>
</svg>
