<svg width="120" height="120" viewBox="0 0 120 120" fill="none" xmlns="http://www.w3.org/2000/svg">
<path d="M109.434 37.0124C106.279 36.8492 102.415 38.2153 99.647 49.643C99.9959 41.7409 98.5111 37.4203 93.9707 36.9908C89.2914 36.5481 86.0754 41.7889 84.5787 53.9996C83.2422 53.787 81.7956 53.6396 80.2783 53.5273C81.3712 42.8806 80.2402 37.0579 74.9317 36.5559C71.8105 36.2606 69.3419 38.4993 67.5972 43.6365C67.5543 42.3584 67.207 41.109 66.5841 39.9921C63.6787 34.4911 47.0958 34.3751 43.3704 44.1169C41.4101 40.356 38.7501 37.8037 35.1379 37.9457C29.7616 38.157 28.5829 44.3885 26.4872 49.0294C24.4942 44.8412 23.1422 38.746 17.8807 39.0087C11.7991 39.3125 7.85807 47.8902 6.12032 57.6647C4.23491 68.2694 3.47474 82.7304 10.1985 82.8833C17.9501 83.0595 19.8645 61.7551 19.8645 61.7551C19.8645 61.7551 19.8167 76.7395 26.5949 76.4979C34.3341 76.2219 33.6425 61.5413 33.6425 61.5413C33.6425 61.5413 34.6126 82.2681 43.1429 81.8095C44.2513 81.7406 45.2918 81.2521 46.053 80.4435C46.7348 80.8268 47.4873 81.0679 48.2649 81.1521C55.4279 81.9181 62.7783 80.6744 66.7437 77.5487C67.7177 79.4507 69.6781 80.6439 71.815 80.6355C75.118 80.7075 76.951 74.8783 78.3637 66.9324C79.1152 66.9801 79.9003 67.0044 80.7509 66.9833C81.8306 66.9566 82.8209 66.8807 83.7594 66.7744C83.7953 75.7635 85.6965 80.958 90.854 81.0704C94.6814 81.1537 96.5348 73.3143 98.0475 63.4377C98.6118 69.5407 101.752 70.0555 102.765 70.108C104.134 70.1789 112.129 71.3388 114.289 55.544C116.448 39.7492 114.729 37.2863 109.434 37.0124ZM66.607 47.2062C66.0162 49.9366 65.5883 52.6997 65.3258 55.4809C61.5446 53.5696 54.2653 54.8711 54.2653 54.8711C54.2653 54.8711 63.5165 52.4168 66.607 47.2062ZM55.1274 65.8518C58.4975 65.6105 61.7826 64.682 64.7804 63.1233C64.7352 64.3205 64.7114 65.4722 64.7194 66.5586C61.5752 65.8457 58.3421 65.6075 55.1274 65.8518Z" fill="#22093A" stroke="#22093A" stroke-linecap="round" stroke-linejoin="round"/>
<path d="M99.4474 73.4712C96.5117 75.3102 95.6226 79.1808 97.4615 82.1165C99.3004 85.0523 103.171 85.9414 106.107 84.1025C109.042 82.2635 109.932 78.393 108.093 75.4572C106.254 72.5215 102.383 71.6323 99.4474 73.4712C99.4474 73.4712 99.4474 73.4712 99.4474 73.4712Z" fill="#22093A" stroke="#22093A" stroke-linecap="round" stroke-linejoin="round"/>
<path d="M33.4855 36.199C28.1092 36.4103 26.9305 42.6417 24.8348 47.2827C22.8418 43.0945 21.4898 36.9993 16.2283 37.262C10.1468 37.5657 6.20571 46.1435 4.46794 55.918C2.58256 66.5227 1.82245 80.9837 8.54609 81.1366C16.2978 81.3128 18.2122 60.0084 18.2122 60.0084C18.2122 60.0084 18.1644 74.9928 24.9426 74.7512C32.6818 74.4753 31.9902 59.7946 31.9902 59.7946C31.9902 59.7946 32.9603 80.5214 41.4906 80.0629C45.3893 79.8533 47.2975 74.627 47.114 69.2603C46.9154 63.455 45.1751 35.7395 33.4855 36.199Z" fill="#71C1F2" stroke="#22093A" stroke-linecap="round" stroke-linejoin="round"/>
<path d="M6.82227 63.5968C6.94201 62.535 7.09443 61.4459 7.27503 60.3521" stroke="white" stroke-linecap="round" stroke-linejoin="round"/>
<path d="M8.173 74.7108C6.91699 74.0365 6.44711 71.3241 6.526 67.7808" stroke="white" stroke-linecap="round" stroke-linejoin="round"/>
<path d="M29.748 44.697C30.2018 42.7735 31.04 39.4305 34.0413 39.5021" stroke="white" stroke-linecap="round" stroke-linejoin="round"/>
<path d="M55.6157 35.6431C54.8692 35.6735 54.1148 35.725 53.3652 35.8043" stroke="white" stroke-linecap="round" stroke-linejoin="round"/>
<path d="M64.9311 38.2454C61.9968 32.6897 45.0915 32.6107 41.5902 42.6479C39.3057 49.1975 35.4549 78.2124 46.612 79.4054C57.769 80.5985 69.4284 76.9416 67.9414 68.8367C66.8549 62.915 53.3141 64.1177 53.3141 64.1177C53.3141 64.1177 66.0327 63.2768 65.8973 57.0211C65.762 50.7654 52.6122 53.1245 52.6122 53.1245C52.6122 53.1245 70.3126 48.4344 64.9311 38.2454Z" fill="#71C1F2" stroke="#22093A" stroke-linecap="round" stroke-linejoin="round"/>
<path d="M50.3737 38.6255C48.2292 39.2053 46.3421 40.4895 45.0156 42.2715" stroke="white" stroke-linecap="round" stroke-linejoin="round"/>
<path d="M43.3574 71.9351C43.5654 73.8227 47.5667 76.2414 52.7743 75.9061" stroke="white" stroke-linecap="round" stroke-linejoin="round"/>
<path d="M92.3179 35.244C87.6386 34.8013 84.4226 40.0421 82.9258 52.2527C81.5893 52.0402 80.1428 51.8927 78.6254 51.7806C79.7184 41.1338 78.5873 35.3111 73.2789 34.8091C68.1809 34.3267 64.8138 40.5655 63.5215 55.242C62.2293 69.9184 63.4144 78.7417 70.1622 78.8887C73.4652 78.9607 75.2982 73.1315 76.711 65.1856C77.4624 65.2333 78.2475 65.2576 79.0981 65.2365C80.1778 65.2098 81.1681 65.1339 82.1066 65.0276C82.1425 74.0167 84.0437 79.2112 89.2012 79.3236C93.6379 79.4202 95.4235 68.8772 97.0987 56.8467C98.9916 43.2538 98.3521 35.8147 92.3179 35.244Z" fill="#71C1F2" stroke="#22093A" stroke-linecap="round" stroke-linejoin="round"/>
<path d="M72.3242 38.7974C73.6127 39.0052 74.9842 40.543 74.6933 46.8606" stroke="white" stroke-linecap="round" stroke-linejoin="round"/>
<path d="M91.7344 39.2129C93.0644 39.4207 94.2697 40.5429 93.8125 44.5745" stroke="white" stroke-linecap="round" stroke-linejoin="round"/>
<path d="M107.781 35.266C104.207 35.0811 99.721 36.8374 96.9522 52.9861C94.4801 67.4041 99.7435 68.2908 101.113 68.3616C102.482 68.4325 110.476 69.5924 112.636 53.7977C114.796 38.0029 113.076 35.54 107.781 35.266Z" fill="#71C1F2" stroke="#22093A" stroke-linecap="round" stroke-linejoin="round"/>
<path d="M101.126 83.3127C104.59 83.3127 107.398 80.5045 107.398 77.0404C107.398 73.5763 104.59 70.7681 101.126 70.7681C97.6617 70.7681 94.8535 73.5763 94.8535 77.0404C94.8535 80.5045 97.6617 83.3127 101.126 83.3127Z" fill="#71C1F2" stroke="#22093A" stroke-linecap="round" stroke-linejoin="round"/>
<path d="M100.885 73.313C98.6186 73.1463 96.4349 76.8738 98.0906 79.5136" stroke="white" stroke-linecap="round" stroke-linejoin="round"/>
<path d="M106.601 38.0728C104.07 38.2358 98.9605 49.2246 99.2353 59.7366" stroke="white" stroke-linecap="round" stroke-linejoin="round"/>
</svg>
