<svg width="120" height="112" viewBox="0 0 120 112" fill="none" xmlns="http://www.w3.org/2000/svg">
<g clip-path="url(#clip0_4_10979)">
<path opacity="0.5" d="M119.473 44.6656C120.64 31.8312 119.928 25.9567 116.753 22.2162C115.329 20.5417 113.395 19.3814 111.247 18.914C108.812 16.8588 105.676 15.8253 102.496 16.0297C95.0399 16.0297 90.8792 21.1083 88.4322 27.4764C86.6382 24.9849 84.064 23.1634 81.1176 22.3007C78.9382 20.4921 76.2187 19.4606 73.3881 19.369C70.6162 19.3135 64.448 20.1134 59.9447 27.6446C59.6753 27.5262 59.4035 27.412 59.1293 27.302C57.4954 26.2515 55.759 25.3698 53.9467 24.6708C56.6504 15.348 51.2847 5.59857 41.9619 2.8948C40.3745 2.43442 38.7301 2.20025 37.0773 2.19922C36.9996 2.19922 36.9234 2.20074 36.8457 2.20366L36.583 2.19922C27.0193 2.19362 19.2619 9.94196 19.2563 19.5056C19.2551 21.5798 19.6265 23.6373 20.3529 25.5801H20.3048C16.5722 25.5926 12.9986 27.0927 10.3755 29.7482C4.61724 35.3245 1.75438 45.8103 1.62194 61.8035C1.49244 77.4653 5.86109 86.7731 14.6088 89.499C20.777 94.2628 28.3748 92.6076 32.136 91.7862L32.9766 91.6057C36.8567 90.8142 40.5981 89.452 44.0787 87.5633C45.334 87.901 46.6142 88.1376 47.9072 88.2707C47.7651 89.2159 47.6944 90.1704 47.6956 91.1262C47.4947 102.252 56.3508 111.433 67.4762 111.634C67.6004 111.637 67.7246 111.638 67.8488 111.638C68.4777 111.637 69.1141 111.608 69.7534 111.548C80.8615 110.487 89.006 100.621 87.9446 89.5132C87.8012 88.0127 87.4904 86.5329 87.0179 85.1015C89.7488 84.4467 92.4057 83.5144 94.9471 82.3193C100.921 86.1246 108.849 84.3663 112.654 78.3922C115.443 74.0144 115.318 68.3876 112.337 64.1381C112.072 63.7646 111.787 63.406 111.483 63.0636C115.207 60.1178 118.565 54.6652 119.473 44.6656Z" fill="#231F20"/>
<path d="M117.854 42.4664C119.02 29.632 118.309 23.7576 115.134 20.0171C113.71 18.3425 111.775 17.1822 109.628 16.7147C107.192 14.6596 104.057 13.626 100.877 13.8304C93.4207 13.8304 89.26 18.909 86.813 25.2771C85.0191 22.7856 82.4448 20.9642 79.4984 20.1015C77.319 18.2928 74.5995 17.2613 71.7689 17.1698C68.997 17.1143 62.8288 17.9142 58.3255 25.4454C58.0562 25.327 57.7843 25.2128 57.5101 25.1028C55.8762 24.0522 54.1398 23.1706 52.3275 22.4715C55.0312 13.1487 49.6654 3.39929 40.3426 0.695558C38.7553 0.235203 37.1109 0.00104415 35.4581 3.06261e-06C35.3804 3.06261e-06 35.3042 0.00151848 35.2265 0.00444322L34.9639 3.06261e-06C25.4002 -0.00562367 17.6428 7.74268 17.6372 17.3063C17.6359 19.3805 18.0074 21.438 18.7338 23.3809H18.6857C14.9531 23.3934 11.3795 24.8935 8.75637 27.549C2.9981 33.1253 0.135243 43.6111 0.00279628 59.6043C-0.126697 75.2661 4.24195 84.5737 12.9896 87.2998C19.1578 92.0635 26.7556 90.4083 30.5168 89.587L31.3573 89.4064C35.2375 88.615 38.9789 87.2527 42.4595 85.3641C43.7147 85.7018 44.995 85.9383 46.288 86.0714C46.1459 87.0166 46.0752 87.9711 46.0764 88.9269C45.8754 100.052 54.7314 109.234 65.8567 109.435C65.981 109.437 66.1053 109.438 66.2296 109.438C66.8585 109.438 67.495 109.409 68.1343 109.349C79.2424 108.287 87.3869 98.4219 86.3254 87.3137C86.182 85.8133 85.8712 84.3336 85.3987 82.9023C88.1297 82.2474 90.7866 81.3152 93.328 80.1201C99.3022 83.9254 107.23 82.1671 111.035 76.1929C113.824 71.8152 113.699 66.1883 110.718 61.9388C110.453 61.5654 110.168 61.2067 109.863 60.8644C113.588 57.9186 116.946 52.466 117.854 42.4664Z" fill="white"/>
<path d="M82.6895 63.2654C95.0046 54.5182 98.9179 66.2578 97.0763 70.5163C95.739 73.6089 89.1348 76.7315 83.0348 77.9975C76.9348 79.2635 62.5479 83.7523 62.7781 55.8994C63.0083 28.0465 71.9857 24.8349 76.3593 24.9389C81.6069 25.0637 87.1365 31.1516 85.6819 46.0012C84.5047 58.0199 82.6895 63.2654 82.6895 63.2654Z" fill="#22093A" stroke="#22093A" stroke-linecap="round" stroke-linejoin="round"/>
<path d="M105.594 21.6011C101.293 21.6011 96.0173 23.8184 93.697 41.9861C91.6253 58.2067 97.998 58.8918 99.6456 58.8918C101.293 58.8918 110.961 59.724 112.573 41.9861C114.184 24.2483 111.967 21.6011 105.594 21.6011Z" fill="#22093A" stroke="#22093A" stroke-linecap="round" stroke-linejoin="round"/>
<path d="M100.199 76.8469C104.362 76.8469 107.738 73.4717 107.738 69.3082C107.738 65.1447 104.362 61.7695 100.199 61.7695C96.0353 61.7695 92.6602 65.1447 92.6602 69.3082C92.6602 73.4717 96.0353 76.8469 100.199 76.8469Z" fill="#22093A" stroke="#22093A" stroke-linecap="round" stroke-linejoin="round"/>
<path d="M45.4719 28.7374C54.4049 27.0934 69.1814 34.1468 70.4474 51.7563C71.7135 69.3658 61.355 78.9186 51.5719 80.6451C42.745 82.2028 30.0595 76.8985 28.0926 58.2072C26.4813 42.894 32.3511 31.152 45.4719 28.7374Z" fill="#22093A" stroke="#22093A" stroke-linecap="round" stroke-linejoin="round"/>
<path d="M48.5558 42.1142C49.7724 41.286 52.0227 44.4473 52.6293 52.6027C53.2359 60.7582 52.0112 65.264 50.677 66.1366C49.4733 66.924 47.5597 64.5583 46.8282 55.9064C46.229 48.8182 46.769 43.3306 48.5558 42.1142Z" fill="#22093A" stroke="#22093A" stroke-linecap="round" stroke-linejoin="round"/>
<path d="M29.9337 69.4808C42.2488 60.7336 46.1621 72.4732 44.3205 76.7317C42.9832 79.8243 36.379 82.9468 30.279 84.2129C24.179 85.4789 9.79213 89.9676 10.0223 62.1147C10.2524 34.2618 19.2299 31.0502 23.6034 31.1542C28.851 31.279 35.6883 36.5637 32.9261 52.2165C30.8275 64.109 29.9337 69.4808 29.9337 69.4808Z" fill="#22093A" stroke="#22093A" stroke-linecap="round" stroke-linejoin="round"/>
<path d="M77.9727 60.7991C90.2878 52.0519 94.2011 63.7916 92.3595 68.0501C91.0222 71.1427 84.418 74.2652 78.318 75.5312C72.218 76.7973 57.8311 81.286 58.0613 53.4331C58.2915 25.5801 67.2689 22.3686 71.6425 22.4726C76.8901 22.5974 82.4197 28.6853 80.9651 43.5349C79.7879 55.5536 77.9727 60.7991 77.9727 60.7991Z" fill="#9736FF" stroke="#22093A" stroke-linecap="round" stroke-linejoin="round"/>
<path d="M100.877 19.1348C96.5764 19.1348 91.3005 21.3521 88.9802 39.5198C86.9085 55.7404 93.2811 56.4255 94.9288 56.4255C96.5764 56.4255 106.244 57.2576 107.856 39.5198C109.467 21.7819 107.25 19.1348 100.877 19.1348Z" fill="#9736FF" stroke="#22093A" stroke-linecap="round" stroke-linejoin="round"/>
<path d="M95.4821 74.3801C99.6456 74.3801 103.021 71.0049 103.021 66.8414C103.021 62.6779 99.6456 59.3027 95.4821 59.3027C91.3185 59.3027 87.9434 62.6779 87.9434 66.8414C87.9434 71.0049 91.3185 74.3801 95.4821 74.3801Z" fill="#9736FF" stroke="#22093A" stroke-linecap="round" stroke-linejoin="round"/>
<path d="M66.2438 104.134C74.4566 104.134 81.1145 97.4757 81.1145 89.2628C81.1145 81.0499 74.4566 74.3921 66.2438 74.3921C58.0309 74.3921 51.373 81.0499 51.373 89.2628C51.373 97.4757 58.0309 104.134 66.2438 104.134Z" fill="#22093A" stroke="#22093A" stroke-linecap="round" stroke-linejoin="round"/>
<path d="M40.7551 26.2706C49.6881 24.6266 64.4646 31.68 65.7307 49.2895C66.9967 66.899 56.6382 76.4519 46.8551 78.1783C38.0281 79.736 25.3426 74.4317 23.3758 55.7404C21.7645 40.4272 27.6343 28.6852 40.7551 26.2706Z" fill="#9736FF" stroke="#22093A" stroke-linecap="round" stroke-linejoin="round"/>
<path d="M43.8391 39.6474C45.0557 38.8192 47.3059 41.9805 47.9125 50.1359C48.5191 58.2914 47.2944 62.7971 45.9603 63.6698C44.7565 64.4572 42.843 62.0915 42.1115 53.4396C41.5122 46.3514 42.0521 40.8638 43.8391 39.6474Z" fill="#22093A" stroke="#22093A" stroke-linecap="round" stroke-linejoin="round"/>
<path d="M65.9699 103.599C74.0305 103.599 80.5648 97.0646 80.5648 89.0041C80.5648 80.9435 74.0305 74.4092 65.9699 74.4092C57.9094 74.4092 51.375 80.9435 51.375 89.0041C51.375 97.0646 57.9094 103.599 65.9699 103.599Z" fill="#FCC707" stroke="#22093A" stroke-linecap="round" stroke-linejoin="round"/>
<path d="M25.2168 67.014C37.532 58.2668 41.4452 70.0064 39.6037 74.2649C38.2664 77.3575 31.6622 80.48 25.5621 81.7461C19.4621 83.0121 5.07527 87.5008 5.30546 59.6479C5.53566 31.795 14.513 28.5834 18.8866 28.6874C24.1342 28.8122 30.9715 34.0969 28.2093 49.7498C26.1107 61.6422 25.2168 67.014 25.2168 67.014Z" fill="#9736FF" stroke="#22093A" stroke-linecap="round" stroke-linejoin="round"/>
<path d="M35.4582 29.826C42.2297 29.826 47.719 24.3366 47.719 17.5651C47.719 10.7936 42.2297 5.3042 35.4582 5.3042C28.6867 5.3042 23.1973 10.7936 23.1973 17.5651C23.1973 24.3366 28.6867 29.826 35.4582 29.826Z" fill="#22093A" stroke="#22093A" stroke-linecap="round" stroke-linejoin="round"/>
<path d="M34.9636 29.3485C41.6032 29.3485 46.9857 23.966 46.9857 17.3264C46.9857 10.6867 41.6032 5.3042 34.9636 5.3042C28.3239 5.3042 22.9414 10.6867 22.9414 17.3264C22.9414 23.966 28.3239 29.3485 34.9636 29.3485Z" fill="#FCC707" stroke="#22093A" stroke-linecap="round" stroke-linejoin="round"/>
<path d="M41.9091 17.8037C41.9091 17.8037 41.0966 24.3154 36.7049 25.1499C30.9501 26.2433 29.4844 19.4167 29.4844 19.4167L41.9091 17.8037Z" fill="white" stroke="#22093A" stroke-linecap="round" stroke-linejoin="round"/>
<path d="M27.6699 12.5479L32.3495 13.0646L28.7049 15.8848" stroke="#22093A" stroke-linecap="round" stroke-linejoin="round"/>
<path d="M39.8115 10.4746L36.3594 12.5477L40.7904 13.9282" stroke="#22093A" stroke-linecap="round" stroke-linejoin="round"/>
<path d="M74.0307 93.1081C74.0307 93.1081 68.8607 98.9563 63.9583 97.4177C57.5344 95.4015 59.2028 87.48 59.2028 87.48L74.0307 93.1081Z" fill="white" stroke="#22093A" stroke-linecap="round" stroke-linejoin="round"/>
<path d="M61.647 79.7441L66.8782 83.3387L60.8848 83.6888" stroke="#22093A" stroke-linecap="round" stroke-linejoin="round"/>
<path d="M75.0738 84.2371L69.3789 84.0977L74.1903 88.2666" stroke="#22093A" stroke-linecap="round" stroke-linejoin="round"/>
<path d="M10.0205 44.5039C9.10983 48.1807 8.63807 51.9524 8.61514 55.7402C8.44249 70.5244 10.6005 75.6173 13.6217 77.689C15.4786 78.8357 17.671 79.3147 19.8369 79.0469" stroke="#D9BBFF" stroke-linecap="round" stroke-linejoin="round"/>
<path d="M16.3839 32.457C15.6422 32.7043 13.8774 34.6524 12.2168 38.2295" stroke="#D9BBFF" stroke-linecap="round" stroke-linejoin="round"/>
<path d="M70.5526 26.0391C67.6578 26.5007 64.7229 30.4133 63.8809 34.7875" stroke="#D9BBFF" stroke-linecap="round" stroke-linejoin="round"/>
<path d="M100.978 22.1846C95.9999 22.4699 93.4678 28.7082 92.3456 37.783C91.2234 46.8577 92.0003 52.138 93.8994 53.1738" stroke="#D9BBFF" stroke-linecap="round" stroke-linejoin="round"/>
<path d="M94.6471 62.3525C92.875 62.5304 91.4211 63.8332 91.0505 65.5752C90.5614 67.4455 91.367 70.4667 93.4963 70.8983" stroke="#D9BBFF" stroke-linecap="round" stroke-linejoin="round"/>
<path d="M45.4727 29.3481C51.4951 30.112 56.6795 33.97 59.1407 39.5194" stroke="#D9BBFF" stroke-linecap="round" stroke-linejoin="round"/>
<path d="M53.6465 71.3302C57.9713 68.2298 60.824 63.4813 61.5305 58.207" stroke="#D9BBFF" stroke-linecap="round" stroke-linejoin="round"/>
</g>
<defs>
<clipPath id="clip0_4_10979">
<rect width="120" height="111.637" fill="white"/>
</clipPath>
</defs>
</svg>
