<svg width="120" height="120" viewBox="0 0 120 120" fill="none" xmlns="http://www.w3.org/2000/svg">
<path d="M108.827 12.4691C99.7534 8.77464 96.0312 9.9968 95.6049 13.2266C94.9643 18.0801 101.029 19.6126 101.029 19.6126C101.029 19.6126 91.4218 33.5484 97.4419 36.1518C104.947 39.3977 107.402 21.5707 107.402 21.5707C107.402 21.5707 116.106 25.4736 117.225 21.6236C118.166 18.3885 114.908 14.9452 108.827 12.4691Z" fill="#22093A" stroke="#22093A" stroke-linecap="round" stroke-linejoin="round"/>
<path d="M55.473 5.34038C52.416 5.58092 51.8952 9.29757 50.8137 12.0918C49.5774 9.6535 48.66 6.07182 45.6696 6.34038C42.2132 6.65079 40.1757 11.8167 39.4221 17.6442C38.6045 23.9667 38.5209 32.5493 42.3542 32.4957C46.7735 32.4337 47.3492 19.7723 47.3492 19.7723C47.3492 19.7723 47.684 28.6498 51.5387 28.3613C55.94 28.0317 55.1915 19.35 55.1915 19.35C55.1915 19.35 56.2447 31.6074 61.0921 31.1527C63.3077 30.9449 64.2682 27.808 64.0341 24.6328C63.7807 21.198 62.1199 4.81734 55.473 5.34038Z" fill="#22093A" stroke="#22093A" stroke-linecap="round" stroke-linejoin="round"/>
<path d="M73.4642 5.1182C77.8507 5.10404 84.2672 9.72495 83.3567 18.2023C82.4462 26.6797 76.7032 30.33 71.9057 30.3103C67.5771 30.2926 62.004 26.6825 62.6743 17.6308C63.2235 10.2151 67.0214 5.13893 73.4642 5.1182Z" fill="#22093A" stroke="#22093A" stroke-linecap="round" stroke-linejoin="round"/>
<path d="M73.7799 11.74C74.4292 11.4509 75.2271 13.1465 74.8151 17.0743C74.403 21.0021 73.4341 23.0383 72.7251 23.3384C72.0854 23.6093 71.3792 22.3207 71.7745 18.1462C72.0984 14.7262 72.8262 12.1646 73.7799 11.74Z" fill="#22093A" stroke="#22093A" stroke-linecap="round" stroke-linejoin="round"/>
<path d="M96.5636 13.6122C96.566 10.8211 94.9293 7.53228 88.8322 7.73928C82.8292 7.94308 78.8165 15.8991 84.8456 19.3876C90.4284 22.6178 88.5888 26.3662 86.1663 24.2177C81.5062 20.0849 76.5408 28.5601 82.8828 31.9055C89.2248 35.2508 96.4017 31.5629 97.3542 27.4707C99.1584 19.7192 93.2332 18.2453 90.5097 16.9231C90.5097 16.9231 96.5599 17.8722 96.5636 13.6122Z" fill="#22093A" stroke="#22093A" stroke-linecap="round" stroke-linejoin="round"/>
<path d="M36.5968 26.5817C42.2013 21.3721 44.9452 27.0082 44.3028 29.269C43.8363 30.9108 40.7268 32.917 37.7473 33.9573C34.7678 34.9977 27.8405 38.2062 26.1087 24.2032C24.3769 10.2001 28.6723 7.99181 30.8756 7.75395C33.5193 7.46856 37.3035 9.66903 36.9545 17.7131C36.6894 23.8247 36.5968 26.5817 36.5968 26.5817Z" fill="#22093A" stroke="#22093A" stroke-linecap="round" stroke-linejoin="round"/>
<path d="M14.9992 12.371C10.6399 13.8103 9.16096 19.681 9.46119 25.7706C9.78694 32.3773 12.0063 41.7102 15.5382 40.8593C18.1765 40.2237 18.819 36.3394 18.7525 32.3654L21.2823 31.5422C23.1464 34.9069 25.5017 37.705 27.7843 36.3729C30.2961 34.9069 31.1206 31.9677 30.1324 28.8636C29.0634 25.5059 23.3744 9.60602 14.9992 12.371ZM18.4702 28.2341C18.1449 25.3429 17.6604 23.1027 17.6604 23.1027C17.6604 23.1027 18.3688 25.2833 19.5056 27.8972L18.4702 28.2341Z" fill="#22093A" stroke="#22093A" stroke-linecap="round" stroke-linejoin="round"/>
<path d="M107.577 10.6845C98.5034 6.98992 94.7812 8.21217 94.3549 11.442C93.7143 16.2954 99.7793 17.828 99.7793 17.828C99.7793 17.828 90.1718 31.7638 96.1919 34.3672C103.697 37.613 106.152 19.7861 106.152 19.7861C106.152 19.7861 114.856 23.6889 115.975 19.8389C116.916 16.6038 113.658 13.1606 107.577 10.6845Z" fill="#35CCAD" stroke="#22093A" stroke-linecap="round" stroke-linejoin="round"/>
<path d="M54.223 3.55571C51.166 3.79626 50.6452 7.5129 49.5637 10.3071C48.3274 7.86879 47.4101 4.28717 44.4196 4.55573C40.9632 4.86614 38.9257 10.032 38.1721 15.8595C37.3545 22.182 37.2709 30.7647 41.1042 30.711C45.5235 30.6491 46.0992 17.9877 46.0992 17.9877C46.0992 17.9877 46.434 26.8652 50.2887 26.5766C54.69 26.2471 53.9414 17.5654 53.9414 17.5654C53.9414 17.5654 54.9947 29.8227 59.8421 29.3681C62.0576 29.1602 63.0182 26.0234 62.784 22.8482C62.5307 19.4134 60.8699 3.03269 54.223 3.55571Z" fill="#35CCAD" stroke="#22093A" stroke-linecap="round" stroke-linejoin="round"/>
<path d="M72.2142 3.33353C76.6007 3.31937 83.0172 7.94027 82.1067 16.4176C81.1962 24.895 75.4532 28.5453 70.6557 28.5256C66.3271 28.5079 60.754 24.8978 61.4243 15.8461C61.9736 8.4305 65.7714 3.35433 72.2142 3.33353Z" fill="#35CCAD" stroke="#22093A" stroke-linecap="round" stroke-linejoin="round"/>
<path d="M72.5319 9.95532C73.1812 9.66621 73.9791 11.3618 73.567 15.2896C73.155 19.2175 72.186 21.2536 71.4771 21.5538C70.8374 21.8246 70.1311 20.536 70.5265 16.3615C70.8503 12.9415 71.5782 10.38 72.5319 9.95532Z" fill="#22093A" stroke="#22093A" stroke-linecap="round" stroke-linejoin="round"/>
<path d="M95.3136 11.828C95.316 9.03689 93.6793 5.74811 87.5822 5.9551C81.5792 6.1589 77.5665 14.1149 83.5956 17.6034C89.1784 20.8336 87.3388 24.5821 84.9163 22.4336C80.2562 18.3008 75.2908 26.7759 81.6328 30.1213C87.9748 33.4667 95.1517 29.7787 96.1042 25.6866C97.9084 17.935 91.9832 16.4612 89.2597 15.1389C89.2597 15.1389 95.3098 16.088 95.3136 11.828Z" fill="#35CCAD" stroke="#22093A" stroke-linecap="round" stroke-linejoin="round"/>
<path d="M35.3468 24.7976C40.9513 19.5879 43.6952 25.224 43.0528 27.4848C42.5863 29.1266 39.4768 31.1328 36.4974 32.1732C33.5179 33.2136 26.5905 36.422 24.8587 22.419C23.1269 8.41593 27.4223 6.20763 29.6257 5.96978C32.2693 5.68437 36.0536 7.88484 35.7046 15.929C35.4394 22.0406 35.3468 24.7976 35.3468 24.7976Z" fill="#35CCAD" stroke="#22093A" stroke-linecap="round" stroke-linejoin="round"/>
<path d="M13.7492 10.5864C9.38996 12.0256 7.91096 17.8964 8.21119 23.986C8.5369 30.5926 10.7563 39.9255 14.2882 39.0746C16.9265 38.4391 17.5689 34.5547 17.5024 30.5807L20.0323 29.7576C21.8964 33.1222 24.2517 35.9203 26.5342 34.5882C29.046 33.1222 29.8706 30.1831 28.8823 27.079C27.8134 23.7212 22.1244 7.82134 13.7492 10.5864ZM17.2202 26.4494C16.8949 23.5583 16.4104 21.318 16.4104 21.318C16.4104 21.318 17.1188 23.4986 18.2556 26.1126L17.2202 26.4494Z" fill="#35CCAD" stroke="#22093A" stroke-linecap="round" stroke-linejoin="round"/>
<path d="M13.4031 14.2593C10.7285 17.5404 10.5698 21.8524 11.823 28.776" stroke="white" stroke-linecap="round" stroke-linejoin="round"/>
<path d="M29.8843 8.9052C28.5563 8.79127 26.8474 11.2201 27.0753 15.9298" stroke="white" stroke-linecap="round" stroke-linejoin="round"/>
<path d="M39.9492 25.4238C39.9492 25.4238 40.9166 26.1643 39.9492 27.4745" stroke="white" stroke-linecap="round" stroke-linejoin="round"/>
<path d="M43.0195 10.1904C43.0195 10.1904 43.2615 8.19207 44.5649 7.6123" stroke="white" stroke-linecap="round" stroke-linejoin="round"/>
<path d="M53.3105 7.73002C53.3105 7.02921 54.2404 5.7205 54.9453 5.94562" stroke="white" stroke-linecap="round" stroke-linejoin="round"/>
<path d="M71.6481 5.91992C70.7666 5.96302 65.6882 6.53314 64.5078 13.5651" stroke="white" stroke-linecap="round" stroke-linejoin="round"/>
<path d="M64.3102 16.3057C64.0532 17.3959 64.1413 18.5392 64.5624 19.5772" stroke="white" stroke-linecap="round" stroke-linejoin="round"/>
<path d="M87.5349 8.41455C84.173 8.41455 81.9227 12.5678 83.9237 14.6012" stroke="white" stroke-linecap="round" stroke-linejoin="round"/>
<path d="M93.1639 21.1265C93.5057 21.7288 94.2462 25.7162 91.4551 27.0833" stroke="white" stroke-linecap="round" stroke-linejoin="round"/>
<path d="M97.082 31.4234C98.677 32.4957 100.272 31.0632 101.468 27.4746" stroke="white" stroke-linecap="round" stroke-linejoin="round"/>
<path d="M62.1457 26.7694C51.4225 26.8243 42.7441 29.6856 42.7619 33.1603C42.7619 33.1603 40.2229 55.5266 57.1736 60.0897C58.442 60.4341 59.7453 60.6338 61.0587 60.6848L61.0858 60.6902C64.0375 61.1211 67.0323 60.2665 69.3121 58.3428C77.5774 52.7322 80.4961 38.7403 81.3794 33.9099L81.3556 33.9095C81.5036 33.6147 81.585 33.2911 81.594 32.9614C81.5763 29.4867 72.8689 26.7144 62.1457 26.7694Z" stroke="#22093A" stroke-linecap="round" stroke-linejoin="round"/>
<path d="M41.1782 88.1972C41.0278 88.582 40.9394 88.9882 40.916 89.4008C40.9338 92.8754 49.6411 95.6477 60.3643 95.5928C71.0875 95.5378 79.7659 92.6765 79.7482 89.2019C79.7482 89.2019 82.2871 66.8356 65.3364 62.2725C47.692 57.5226 42.4796 81.1794 41.1782 88.1972Z" fill="#22093A" stroke="#22093A" stroke-linecap="round" stroke-linejoin="round"/>
<path d="M80.0941 34.2874C78.8867 40.8912 73.8279 64.8581 56.2129 60.1161C39.4895 55.6142 41.9944 33.5479 41.9944 33.5479C41.9944 33.5479 42.9844 39.8967 60.9822 39.6567C78.98 39.4167 80.0941 34.2874 80.0941 34.2874Z" fill="white" stroke="#22093A" stroke-linecap="round" stroke-linejoin="round"/>
<path d="M61.1803 39.6574C71.7598 39.6032 80.3219 36.7803 80.3043 33.3522C80.2868 29.9242 71.6962 27.1891 61.1167 27.2432C50.5373 27.2974 41.9752 30.1203 41.9927 33.5484C42.0103 36.9765 50.6008 39.7116 61.1803 39.6574Z" fill="white" stroke="#22093A" stroke-miterlimit="4.00001" stroke-linecap="round" stroke-linejoin="round"/>
<path d="M78.4845 88.838C78.4845 88.838 80.9893 66.7716 64.266 62.2697C46.6509 57.5278 41.5921 81.4946 40.3848 88.0984" fill="white"/>
<path d="M78.4845 88.838C78.4845 88.838 80.9893 66.7716 64.266 62.2697C46.6509 57.5278 41.5921 81.4946 40.3848 88.0984" stroke="#22093A" stroke-linecap="round" stroke-linejoin="round"/>
<path d="M40.1739 89.0345C40.1563 85.6064 49.2561 74.3269 59.8355 74.2727C70.415 74.2184 78.4678 85.4102 78.4853 88.8382C78.5029 92.2663 69.9408 95.0893 59.3614 95.1435C48.782 95.1977 40.1914 92.4626 40.1739 89.0345Z" fill="#9736FF" stroke="#22093A" stroke-linecap="round" stroke-linejoin="round"/>
<path d="M44.668 48.8755C50.0097 50.74 55.5847 51.8533 61.2329 52.1835C66.0278 52.17 70.7826 51.3099 75.2785 49.6429C75.2785 49.6429 68.9521 62.3329 60.0723 60.7087C51.1926 59.0844 47.1913 56.4803 44.668 48.8755Z" fill="#9736FF" stroke="#22093A" stroke-linecap="round" stroke-linejoin="round"/>
<path d="M59.7056 69.6832C60.8018 69.6832 61.6905 68.7945 61.6905 67.6983C61.6905 66.6021 60.8018 65.7134 59.7056 65.7134C58.6094 65.7134 57.7207 66.6021 57.7207 67.6983C57.7207 68.7945 58.6094 69.6832 59.7056 69.6832Z" fill="#9736FF" stroke="#22093A" stroke-linecap="round" stroke-linejoin="round"/>
<path d="M65.6059 72.2972C66.3191 72.2972 66.8973 71.719 66.8973 71.0058C66.8973 70.2925 66.3191 69.7144 65.6059 69.7144C64.8926 69.7144 64.3145 70.2925 64.3145 71.0058C64.3145 71.719 64.8926 72.2972 65.6059 72.2972Z" fill="#9736FF" stroke="#22093A" stroke-linecap="round" stroke-linejoin="round"/>
<path d="M59.7561 52.397C68.4341 52.3525 75.4596 50.5067 75.4482 48.2743C75.4368 46.0418 68.3927 44.2681 59.7147 44.3126C51.0368 44.357 44.0112 46.2028 44.0227 48.4353C44.0341 50.6677 51.0782 52.4414 59.7561 52.397Z" fill="#9736FF" stroke="#22093A" stroke-linecap="round" stroke-linejoin="round"/>
<path d="M65.3499 46.9014C67.7946 47.1461 70.2155 47.5417 70.0578 48.1666C69.7471 49.3983 61.4233 49.6932 55.8828 49.4017" stroke="#C295FC" stroke-linecap="round" stroke-linejoin="round"/>
<path d="M61.373 46.7038C61.8319 46.7324 62.2168 46.6456 63.3739 46.7313" stroke="#C295FC" stroke-linecap="round" stroke-linejoin="round"/>
<path d="M53.6386 79.1484C50.4856 80.7746 45.7134 84.4533 43.791 88.2264" stroke="#C295FC" stroke-linecap="round" stroke-linejoin="round"/>
<path d="M51.194 47.4195C50.4806 47.4166 49.7754 47.5716 49.1289 47.8734" stroke="#C295FC" stroke-linecap="round" stroke-linejoin="round"/>
<path d="M20.1469 84.9461C11.8983 85.3155 12.4661 108.098 16.5809 112.743C19.3184 115.833 32.25 115.196 36.5196 109.388C40.7893 103.58 40.5801 84.0312 20.1469 84.9461Z" fill="#22093A" stroke="#22093A" stroke-linecap="round" stroke-linejoin="round"/>
<path d="M25.2768 96.6182C23.3061 96.7065 23.4417 102.15 24.4248 103.259C25.0788 103.998 28.1685 103.846 29.1886 102.458C30.3001 100.63 29.7189 98.2464 27.8905 97.135C27.1078 96.6591 26.1818 96.4761 25.2768 96.6182Z" fill="#22093A" stroke="#22093A" stroke-linecap="round" stroke-linejoin="round"/>
<path d="M44.5038 85.8103C49.4535 85.1173 57.4105 89.3434 57.6912 99.0541C57.9718 108.765 52.0519 113.772 46.6329 114.49C41.7436 115.139 34.8948 111.923 34.2544 101.601C33.7299 93.145 37.2338 86.8283 44.5038 85.8103Z" fill="#22093A" stroke="#22093A" stroke-linecap="round" stroke-linejoin="round"/>
<path d="M45.904 95.4506C46.5937 95.1641 47.7505 96.3538 47.8772 99.3504C48.0039 102.347 47.2167 103.981 46.4612 104.282C45.7796 104.553 44.7878 103.66 44.6049 100.48C44.4551 97.8744 44.891 95.8713 45.904 95.4506Z" fill="#22093A" stroke="#22093A" stroke-linecap="round" stroke-linejoin="round"/>
<path d="M58.4077 89.4443C54.0708 91.0714 52.5551 114.948 59.0069 114.745C65.4586 114.541 63.7039 102.795 63.7039 102.795C63.7039 102.795 67.4161 114.184 72.8209 113.334C79.0165 112.361 79.6019 87.2686 74.6344 86.8862C67.9412 86.3708 67.3096 97.0955 67.3096 97.0955C67.3096 97.0955 63.7857 87.4266 58.4077 89.4443Z" fill="#22093A" stroke="#22093A" stroke-linecap="round" stroke-linejoin="round"/>
<path d="M93.2184 87.1352C91.4696 84.7635 79.7003 85.7524 77.4379 92.6864C75.9616 97.211 74.5867 113.318 82.2568 113.982C89.927 114.645 96.1602 112.185 95.7081 108.079C95.2559 103.973 85.6084 105.045 85.6084 105.045C85.6084 105.045 93.8187 103.528 93.639 99.2386C93.4593 94.9491 84.9743 97.513 84.9743 97.513C84.9743 97.513 97.9104 93.4985 93.2184 87.1352Z" fill="#22093A" stroke="#22093A" stroke-linecap="round" stroke-linejoin="round"/>
<path d="M103.782 85.4278C101.489 85.4197 98.671 86.5923 97.3995 96.2766C96.2644 104.923 99.6616 105.3 100.54 105.303C101.419 105.306 106.573 105.768 107.466 96.312C108.358 86.8555 107.181 85.4397 103.782 85.4278Z" fill="#22093A" stroke="#22093A" stroke-linecap="round" stroke-linejoin="round"/>
<path d="M100.817 114.88C103.038 114.88 104.838 113.08 104.838 110.859C104.838 108.639 103.038 106.839 100.817 106.839C98.5968 106.839 96.7969 108.639 96.7969 110.859C96.7969 113.08 98.5968 114.88 100.817 114.88Z" fill="#22093A" stroke="#22093A" stroke-linecap="round" stroke-linejoin="round"/>
<path d="M18.7347 83.7586C10.4862 84.1279 11.0539 106.911 15.1687 111.555C17.9062 114.645 30.8378 114.009 35.1075 108.2C39.3771 102.392 39.1679 82.8437 18.7347 83.7586Z" fill="#35CCAD" stroke="#22093A" stroke-linecap="round" stroke-linejoin="round"/>
<path d="M23.8647 95.4312C21.894 95.5195 22.0296 100.963 23.0127 102.072C23.6667 102.811 26.7564 102.659 27.7765 101.271C28.888 99.4425 28.3068 97.0594 26.4784 95.9479C25.6957 95.4721 24.7696 95.2891 23.8647 95.4312Z" fill="#22093A" stroke="#22093A" stroke-linecap="round" stroke-linejoin="round"/>
<path d="M43.0917 84.6228C48.0414 83.9298 55.9984 88.1559 56.2791 97.8666C56.5597 107.577 50.6398 112.585 45.2208 113.303C40.3315 113.951 33.4827 110.736 32.8423 100.414C32.3177 91.9575 35.8216 85.6408 43.0917 84.6228Z" fill="#35CCAD" stroke="#22093A" stroke-linecap="round" stroke-linejoin="round"/>
<path d="M44.4939 94.2636C45.1836 93.9771 46.3404 95.1668 46.4671 98.1633C46.5938 101.16 45.8065 102.794 45.0511 103.095C44.3695 103.366 43.3776 102.473 43.1948 99.2928C43.045 96.6874 43.4808 94.6843 44.4939 94.2636Z" fill="#22093A" stroke="#22093A" stroke-linecap="round" stroke-linejoin="round"/>
<path d="M56.9956 88.2573C52.6587 89.8844 51.143 113.761 57.5948 113.558C64.0465 113.354 62.2917 101.608 62.2917 101.608C62.2917 101.608 66.004 112.997 71.4087 112.147C77.6043 111.174 78.1897 86.0816 73.2222 85.6991C66.529 85.1838 65.8974 95.9085 65.8974 95.9085C65.8974 95.9085 62.3736 86.2397 56.9956 88.2573Z" fill="#35CCAD" stroke="#22093A" stroke-linecap="round" stroke-linejoin="round"/>
<path d="M91.8063 85.9482C90.0575 83.5765 78.2882 84.5653 76.0257 91.4994C74.5495 96.024 73.1746 112.131 80.8447 112.795C88.5149 113.458 94.7481 110.998 94.296 106.892C93.8439 102.786 84.1963 103.858 84.1963 103.858C84.1963 103.858 92.4066 102.341 92.2269 98.0516C92.0472 93.7621 83.5622 96.326 83.5622 96.326C83.5622 96.326 96.4983 92.3115 91.8063 85.9482Z" fill="#35CCAD" stroke="#22093A" stroke-linecap="round" stroke-linejoin="round"/>
<path d="M102.37 84.2403C100.077 84.2322 97.2589 85.4048 95.9874 95.0891C94.8523 103.736 98.2494 104.113 99.1281 104.116C100.007 104.119 105.161 104.581 106.054 95.1245C106.946 85.668 105.769 84.2522 102.37 84.2403Z" fill="#35CCAD" stroke="#22093A" stroke-linecap="round" stroke-linejoin="round"/>
<path d="M99.4051 113.692C101.625 113.692 103.425 111.892 103.425 109.672C103.425 107.451 101.625 105.651 99.4051 105.651C97.1847 105.651 95.3848 107.451 95.3848 109.672C95.3848 111.892 97.1847 113.692 99.4051 113.692Z" fill="#35CCAD" stroke="#22093A" stroke-linecap="round" stroke-linejoin="round"/>
<path d="M21.8316 86.5612C19.6858 86.3959 17.423 86.6773 16.73 88.8948C15.4156 93.1461 14.9724 97.6188 15.4269 102.045" stroke="white" stroke-linecap="round" stroke-linejoin="round"/>
<path d="M41.2254 88.1323C39.2895 88.4344 36.4233 90.6703 35.8203 96.224" stroke="white" stroke-linecap="round" stroke-linejoin="round"/>
<path d="M55.9648 99.3561C56.1795 95.9124 56.842 92.5607 58.4922 91.0835" stroke="white" stroke-linecap="round" stroke-linejoin="round"/>
<path d="M55.9543 105.462C55.9201 104.728 55.8933 103.929 55.8828 103.092" stroke="white" stroke-linecap="round" stroke-linejoin="round"/>
<path d="M82.5307 88.6045C80.0583 89.5135 77.7442 91.0356 77.5859 99.6197" stroke="white" stroke-linecap="round" stroke-linejoin="round"/>
<path d="M101.413 87.2554C99.1904 88.1655 97.9158 94.9151 98.2722 99.7434" stroke="white" stroke-linecap="round" stroke-linejoin="round"/>
<path d="M98.5468 108.278C97.9818 109.011 97.7716 109.956 97.9734 110.859" stroke="white" stroke-linecap="round" stroke-linejoin="round"/>
</svg>
