<svg width="120" height="120" viewBox="0 0 120 120" fill="none" xmlns="http://www.w3.org/2000/svg">
<path d="M96.6676 106.412C96.6676 106.412 70.6556 99.2284 60.4558 84.6278C50.2861 99.1145 26.3925 106.468 26.3925 106.468C23.3581 85.6715 33.1389 71.8636 33.1389 71.8636C33.1389 71.8636 15.443 57.131 11.7109 44.6324C22.4228 38.4784 44.6829 39.6469 44.6829 39.6469C46.1868 21.1168 60.1127 9.8623 60.1127 9.8623C60.1127 9.8623 74.1347 20.5134 74.8162 37.2274C74.8162 37.2274 88.3387 35.7628 110.243 39.0381C110.243 39.0381 104.082 59.7376 90.5699 70.7462C90.5699 70.7462 99.1082 88.1028 96.6676 106.412Z" fill="#22093A" stroke="#22093A" stroke-linecap="round" stroke-linejoin="round"/>
<path d="M95.5484 105.502C95.5484 105.502 70.6511 98.5152 60.4512 83.9146C50.2815 98.4012 26.3089 105.558 26.3089 105.558C23.2744 84.7613 32.0197 70.9535 32.0197 70.9535C32.0197 70.9535 14.3239 56.2208 10.5918 43.7223C21.3037 37.5683 43.5637 38.7367 43.5637 38.7367C45.0677 20.2067 58.9936 8.95215 58.9936 8.95215C58.9936 8.95215 73.7909 21.0463 74.4724 37.7603C86.0404 37.3188 97.6252 37.7712 109.123 39.1135C109.123 39.1135 102.963 58.8275 89.4508 69.836C89.4508 69.836 97.9891 87.1926 95.5484 105.502Z" fill="#FCC707" stroke="#22093A" stroke-linecap="round" stroke-linejoin="round"/>
<path d="M44.2444 51.8237C44.2444 51.8237 42.6269 60.5178 47.6816 60.9222C52.7363 61.3265 52.3318 51.8237 52.3318 51.8237" stroke="#22093A" stroke-linecap="round" stroke-linejoin="round"/>
<path d="M68.3058 51.8234C68.3058 51.8234 67.9575 59.9109 72.1754 59.9109C76.3933 59.9109 76.3933 50.8125 76.3933 50.8125" stroke="#22093A" stroke-linecap="round" stroke-linejoin="round"/>
<path d="M66.2366 65.6965C66.2366 65.6965 66.5503 59.4287 60.5675 59.4287C55.6324 59.4287 55.713 65.6965 55.713 65.6965" stroke="#22093A" stroke-linecap="round" stroke-linejoin="round"/>
<path d="M78.2092 73.1653C78.2092 74.7844 76.8966 76.097 75.2775 76.097C73.6583 76.097 72.3457 74.7844 72.3457 73.1653C72.3457 70.7996 75.2774 66.7852 75.2774 66.7852C75.2774 66.7852 78.2092 70.7995 78.2092 73.1653Z" fill="#71C1F2" stroke="#22093A" stroke-linecap="round" stroke-linejoin="round"/>
<path d="M50.264 75.6041C50.264 78.2281 48.1368 80.3553 45.5129 80.3553C42.8889 80.3553 40.7617 78.2281 40.7617 75.6041C40.7617 71.4413 45.5129 67.4155 45.5129 67.4155C45.5129 67.4155 50.264 71.4413 50.264 75.6041Z" fill="#71C1F2" stroke="#22093A" stroke-linecap="round" stroke-linejoin="round"/>
<path d="M53.1955 96.2522C53.1955 97.8713 51.8829 99.1839 50.2638 99.1839C48.6446 99.1839 47.332 97.8713 47.332 96.2522C47.332 93.8865 50.2638 89.8721 50.2638 89.8721C50.2638 89.8721 53.1955 93.8865 53.1955 96.2522Z" fill="#71C1F2" stroke="#22093A" stroke-linecap="round" stroke-linejoin="round"/>
<path d="M97.0783 16.258C99.6324 18.2099 87.3103 29.663 86.0921 29.0989C84.5113 28.367 94.5243 14.306 97.0783 16.258Z" fill="#FCC707" stroke="#22093A" stroke-linecap="round" stroke-linejoin="round"/>
<path d="M7.62823 83.6369C6.1219 81.0022 21.0419 75.556 21.8949 76.4934C23.0018 77.7099 9.13457 86.2716 7.62823 83.6369Z" fill="#FCC707" stroke="#22093A" stroke-linecap="round" stroke-linejoin="round"/>
<path d="M16.0399 14.0547C18.676 10.6055 34.1434 27.2466 33.3817 28.8918C32.3931 31.0267 13.4038 17.504 16.0399 14.0547Z" fill="#FCC707" stroke="#22093A" stroke-linecap="round" stroke-linejoin="round"/>
<path d="M113.708 77.0543C112.91 79.9825 98.5089 73.2835 98.5685 72.0175C98.646 70.3745 114.506 74.1261 113.708 77.0543Z" fill="#FCC707" stroke="#22093A" stroke-linecap="round" stroke-linejoin="round"/>
<path d="M58.9223 113.199C55.3235 113.181 58.59 94.6323 60.0586 94.3132C61.9644 93.899 62.521 113.216 58.9223 113.199Z" fill="#FCC707" stroke="#22093A" stroke-linecap="round" stroke-linejoin="round"/>
<path d="M29.5898 62.0215C30.9112 63.3274 31.9643 64.3713 31.9643 64.3713" stroke="white" stroke-linecap="round" stroke-linejoin="round"/>
<path d="M16.6211 46.1069C19.1451 50.3236 22.0874 54.2754 25.4033 57.9024" stroke="white" stroke-linecap="round" stroke-linejoin="round"/>
<path d="M53.7793 20.1245C55.0646 18.3053 55.4418 18.2241 55.4418 18.2241" stroke="white" stroke-linecap="round" stroke-linejoin="round"/>
<path d="M46.9531 38.0641C47.1389 33.1726 48.5919 28.4131 51.1699 24.252" stroke="white" stroke-linecap="round" stroke-linejoin="round"/>
<path d="M43.6855 93.6721C44.2335 93.3267 44.7205 93.0011 45.1266 92.7046" stroke="white" stroke-linecap="round" stroke-linejoin="round"/>
<path d="M29.5352 100.819C33.6285 99.149 37.6059 97.208 41.4409 95.0088" stroke="white" stroke-linecap="round" stroke-linejoin="round"/>
<path d="M89.2559 78.7603C90.0832 80.9894 90.6485 83.3072 90.9404 85.667" stroke="white" stroke-linecap="round" stroke-linejoin="round"/>
<path d="M87.082 74.0786C87.326 74.5133 87.6073 75.0339 87.9059 75.6354" stroke="white" stroke-linecap="round" stroke-linejoin="round"/>
<path d="M61.7363 16.458C63.8994 18.7269 65.636 21.3669 66.8629 24.2516" stroke="white" stroke-linecap="round" stroke-linejoin="round"/>
<path d="M96.3516 42C97.4706 42.0724 98.4513 42.1365 99.2452 42.1764" stroke="white" stroke-linecap="round" stroke-linejoin="round"/>
<path d="M80.5332 41.6813C84.8907 41.48 89.2561 41.5294 93.6079 41.8292" stroke="white" stroke-linecap="round" stroke-linejoin="round"/>
<path d="M72.8281 90.3799C77.8213 93.6936 83.0205 96.6856 88.3943 99.3379L72.8281 90.3799Z" fill="#22093A"/>
<path d="M72.8281 90.3799C77.8213 93.6936 83.0205 96.6856 88.3943 99.3379" stroke="#22093A" stroke-linecap="round" stroke-linejoin="round"/>
<path d="M68.5703 87.2051C69.1638 87.7029 69.8092 88.21 70.4946 88.7216L68.5703 87.2051Z" fill="#22093A"/>
<path d="M68.5703 87.2051C69.1638 87.7029 69.8092 88.21 70.4946 88.7216" stroke="#22093A" stroke-linecap="round" stroke-linejoin="round"/>
<path d="M92.8652 61.6858C95.0413 59.3392 97.0048 56.8039 98.7323 54.1099L92.8652 61.6858Z" fill="#22093A"/>
<path d="M92.8652 61.6858C95.0413 59.3392 97.0048 56.8039 98.7323 54.1099" stroke="#22093A" stroke-linecap="round" stroke-linejoin="round"/>
</svg>
