<svg width="120" height="120" viewBox="0 0 120 120" fill="none" xmlns="http://www.w3.org/2000/svg">
<path d="M113.754 24.6714L67.459 26.1216L68.0084 27.5573C68.1646 28.7066 69.0608 30.5898 70.5851 33.0298L70.5886 33.0337L39.2586 67.0767C38.1059 68.1355 41.6074 73.6387 47.9544 81.1858L45.0758 78.1907L38.8769 82.8557C38.6194 83.0916 38.8927 83.8703 39.5648 85.0081L24.7447 92.7051L36.3015 93.5003L21.2383 109.162L41.5317 99.156L35.6904 108.193L46.1846 103.241L41.6854 116.23L54.6711 101.283C55.4692 101.797 56.0268 102.001 56.2409 101.805L61.0022 95.2791C67.3016 101.41 72.0022 104.842 73.0736 103.858L106.119 71.9269L106.123 71.9306C109.432 74.445 111.749 75.6063 112.487 74.9276C112.834 74.6088 112.861 73.8749 112.6 72.8118L113.754 24.6714Z" fill="#22093A" stroke="#22093A" stroke-miterlimit="10" stroke-linecap="round" stroke-linejoin="round"/>
<path d="M40.9616 82.5288L24.7447 92.7054L34.9387 92.7528L21.2383 109.162L40.1688 98.4085L35.6904 108.193L44.8218 102.494L41.6854 116.23L55.1753 98.0142L40.9616 82.5288Z" fill="#FCC707" stroke="#22093A" stroke-miterlimit="10" stroke-linecap="round" stroke-linejoin="round"/>
<path d="M59.8542 94.2375L54.8786 101.057C54.1655 101.71 49.7004 97.9982 44.9055 92.7656C40.1105 87.5329 36.8015 82.7613 37.5146 82.1079L43.7135 77.4429" fill="#9736FF"/>
<path d="M59.2061 93.8591C57.9723 95.5502 56.7384 97.2413 55.5045 98.9324C55.2166 99.3271 54.9286 99.7218 54.6407 100.116C54.4974 100.313 53.9237 100.898 54.4586 100.44C54.6915 100.24 54.7129 100.488 54.4609 100.324C54.2687 100.2 54.0425 100.111 53.845 99.9907C53.1398 99.5599 52.4894 99.0382 51.8571 98.5087C48.0779 95.3437 44.6719 91.6271 41.6089 87.7736C40.4944 86.3714 39.3591 84.9114 38.5298 83.3161C38.4096 83.0848 38.3146 82.8544 38.2198 82.6131C38.1352 82.3979 38.2041 82.4286 38.1579 82.4443C38.0151 82.4926 37.7155 82.8274 38.0507 82.6368C38.2028 82.5502 38.3421 82.4175 38.4817 82.3124C40.3517 80.9051 42.2216 79.4979 44.0916 78.0906C44.8535 77.5172 44.1067 76.2143 43.3345 76.7954C41.4802 78.1909 39.6259 79.5864 37.7716 80.9818C37.1245 81.4688 36.5299 81.8462 36.7135 82.7718C37.0051 84.2421 38.1637 85.6578 39.0198 86.8338C42.2281 91.2413 46.0026 95.3814 50.1026 98.9741C51.2395 99.9703 52.5571 101.26 54.0247 101.756C54.9407 102.065 55.3762 101.641 55.8742 100.958C57.4166 98.8441 58.959 96.7301 60.5013 94.6162C61.071 93.8354 59.7701 93.0862 59.2061 93.8591Z" fill="#22093A"/>
<path d="M111.124 74.1799L113.753 24.6714L66.0957 25.3738L67.7942 29.8126C67.7942 29.8126 77.4555 36.5454 89.6541 49.2845C101.554 61.7118 104.9 70.017 104.9 70.017L111.124 74.1799Z" fill="#9736FF"/>
<path d="M111.874 74.18C112.17 68.5975 112.467 63.0151 112.763 57.4326C113.235 48.5424 113.707 39.6523 114.179 30.7622C114.287 28.7319 114.395 26.7017 114.503 24.6715C114.524 24.2706 114.142 23.9157 113.753 23.9215C108.388 24.0005 103.022 24.0796 97.6572 24.1587C89.1032 24.2848 80.5492 24.4109 71.9951 24.5369C70.0285 24.5659 68.0619 24.5949 66.0953 24.6239C65.6483 24.6305 65.1926 25.1043 65.3721 25.5733C65.9311 27.034 66.3979 28.5759 67.0625 29.9908C67.3736 30.6532 68.3259 31.1165 68.8912 31.542C73.0801 34.6944 77.0556 38.1414 80.8952 41.7073C86.901 47.2849 92.7036 53.1882 97.6411 59.7464C100.008 62.8903 102.294 66.2069 103.976 69.7793C104.045 69.927 104.113 70.0757 104.179 70.2247C104.281 70.4525 104.123 70.1216 104.177 70.2164C104.521 70.8286 105.29 71.1787 105.866 71.5638C107.492 72.6518 109.119 73.7397 110.745 74.8276C111.55 75.3658 112.301 74.067 111.502 73.5324C109.428 72.1447 107.353 70.7571 105.278 69.3694C105.393 69.5188 105.508 69.6683 105.623 69.8177C105.097 68.5191 104.402 67.2816 103.698 66.0741C101.653 62.5662 99.2464 59.2707 96.6934 56.1178C89.7988 47.6029 81.6904 39.9032 73.1823 33.0122C71.5486 31.6891 69.8974 30.369 68.1723 29.165C68.2872 29.3144 68.4021 29.4639 68.517 29.6133C67.9509 28.1337 67.3847 26.6541 66.8185 25.1745C66.5775 25.491 66.3364 25.8074 66.0953 26.1239C71.4606 26.0448 76.8258 25.9657 82.191 25.8867C90.745 25.7606 99.299 25.6345 107.853 25.5084C109.82 25.4794 111.786 25.4504 113.753 25.4215C113.503 25.1715 113.253 24.9215 113.003 24.6715C112.706 30.2539 112.41 35.8364 112.113 41.4189C111.641 50.309 111.169 59.1992 110.697 68.0893C110.589 70.1195 110.481 72.1498 110.374 74.18C110.322 75.1447 111.823 75.1418 111.874 74.18Z" fill="#22093A"/>
<path d="M69.2233 32.2817C67.0506 28.8038 66.1194 26.4229 66.8522 25.7497C68.6716 24.0786 81.6416 32.843 93.8673 46.2165C106.093 59.5901 112.945 72.5085 111.125 74.1796C110.387 74.8582 108.07 73.6968 104.761 71.1824" fill="#22093A"/>
<path d="M69.8701 31.9033C69.0031 30.5045 68.082 29.0443 67.5671 27.4697C67.4446 27.095 67.405 26.7532 67.3547 26.3708C67.3353 26.2233 67.3686 26.3074 67.3772 26.3068C67.4501 26.301 67.3228 26.2823 67.4961 26.2962C67.5974 26.3044 67.6985 26.3017 67.7999 26.3143C67.9209 26.3293 68.3247 26.4432 68.5413 26.5144C69.25 26.7475 69.9225 27.0842 70.5792 27.4347C75.4349 30.0259 79.7802 33.6989 83.8583 37.3528C89.5664 42.4674 94.8411 48.0814 99.5855 54.1008C103.25 58.7507 106.798 63.7109 109.322 69.0904C109.745 69.9909 110.136 70.9133 110.412 71.8706C110.552 72.358 110.708 73.1225 110.661 73.4442C110.644 73.5635 110.548 73.6637 110.635 73.5887C110.505 73.7012 110.683 73.6465 110.597 73.6412C110.324 73.6242 109.939 73.5069 109.65 73.393C108.012 72.7473 106.53 71.5847 105.139 70.535C104.368 69.9536 103.62 71.2554 104.382 71.8302C105.795 72.8967 107.262 73.9867 108.897 74.693C109.707 75.0427 110.821 75.4149 111.586 74.7652C112.539 73.9552 112.127 72.3621 111.821 71.3466C111.155 69.1342 110.032 67.0385 108.893 65.0401C107.169 62.0153 105.213 59.1223 103.149 56.3205C98.0406 49.3865 92.2231 42.9628 85.8684 37.1518C83.2341 34.7428 80.5013 32.4377 77.6457 30.2945C75.5304 28.707 73.3377 27.1593 70.9782 25.952C69.8561 25.3778 67.9049 24.2843 66.6187 25.0027C65.7448 25.4908 65.7845 26.5695 65.9898 27.4172C66.443 29.2882 67.5745 31.0463 68.5749 32.6604C69.0825 33.4793 70.3806 32.727 69.8701 31.9033Z" fill="#22093A"/>
<path d="M71.711 103.111C70.2504 104.452 62.0572 97.6068 52.2419 86.87C42.4266 76.1332 36.4354 67.6709 37.896 66.3293L69.2379 32.2734C70.6985 30.9317 79.8394 38.548 89.6547 49.2849C99.47 60.0217 106.243 69.8132 104.782 71.1549L71.711 103.111Z" fill="#E6E7E8"/>
<path d="M71.1801 102.58C71.287 102.491 71.2401 102.535 71.1916 102.528C71.0637 102.51 70.9636 102.501 70.7319 102.426C70.2011 102.254 69.7079 101.955 69.2354 101.664C67.5913 100.65 66.0925 99.3986 64.6368 98.1357C60.0078 94.1198 55.7563 89.6586 51.6566 85.1112C47.8645 80.9051 44.0989 76.5843 40.9261 71.8823C40.07 70.6136 39.1422 69.2671 38.6292 67.8124C38.5538 67.5988 38.4769 67.3754 38.4428 67.1507C38.4379 67.1186 38.4297 66.7907 38.4291 66.8734C38.4299 66.7555 38.3444 66.9463 38.4802 66.8003C41.2177 63.8577 43.9239 60.8852 46.6455 57.9279C51.3651 52.7997 56.0846 47.6714 60.8042 42.5432C63.7385 39.3547 66.6535 36.147 69.6079 32.9771C69.6613 32.9198 69.7139 32.8619 69.7669 32.8043C69.6925 32.8851 69.6591 32.8535 69.7075 32.87C69.8512 32.9188 69.9482 32.8979 70.1857 32.9765C71.531 33.4218 72.7691 34.4201 73.883 35.2622C78.4085 38.6837 82.4735 42.7767 86.3791 46.8743C90.8817 51.5982 95.2145 56.5294 99.1091 61.7704C100.46 63.5882 101.777 65.4478 102.906 67.4135C103.276 68.0582 103.642 68.7181 103.918 69.4099C104.097 69.8606 104.119 70.3007 104.227 70.6644C104.236 70.6963 104.21 70.6615 104.251 70.6247C104.235 70.6389 104.221 70.6544 104.205 70.669C104.106 70.7628 104.009 70.8586 103.911 70.9534C103.448 71.4007 102.985 71.8481 102.522 72.2955C100.77 73.9884 99.0179 75.6813 97.2659 77.3742C92.2921 82.1802 87.3183 86.9863 82.3445 91.7923C78.8048 95.2127 75.2651 98.633 71.7254 102.053C71.5436 102.229 71.3619 102.405 71.1801 102.58C70.4846 103.252 71.546 104.312 72.2408 103.641C74.9929 100.982 77.745 98.3223 80.497 95.663C85.7158 90.6203 90.9345 85.5776 96.1532 80.5349C98.2295 78.5286 100.306 76.5224 102.382 74.5161C103.34 73.5907 104.365 72.7014 105.271 71.7245C105.805 71.1485 105.787 70.4414 105.6 69.7144C105.211 68.201 104.305 66.7744 103.484 65.4658C100.355 60.4764 96.5138 55.8943 92.6313 51.482C88.2066 46.4536 83.5489 41.5818 78.517 37.1545C76.8299 35.6701 75.0937 34.2127 73.2295 32.9532C72.2581 32.2969 71.0039 31.3967 69.7757 31.3719C68.6974 31.3501 67.9764 32.5367 67.3254 33.2441C65.6801 35.0318 64.0349 36.8195 62.3897 38.6072C57.5481 43.8681 52.7065 49.1289 47.8649 54.3898C44.4855 58.0618 41.106 61.7339 37.7266 65.406C37.4864 65.667 37.2064 65.9229 37.0633 66.2508C36.6481 67.2025 37.214 68.3907 37.6181 69.2455C38.4187 70.9388 39.5067 72.5044 40.5948 74.022C42.1951 76.2542 43.9127 78.4034 45.6726 80.5112C50.054 85.7588 54.6985 90.8213 59.623 95.5647C61.4945 97.3672 63.4125 99.1312 65.4417 100.756C66.7292 101.787 68.0727 102.859 69.5753 103.563C70.4186 103.958 71.4428 104.309 72.2408 103.641C72.9816 103.02 71.9157 101.964 71.1801 102.58Z" fill="#22093A"/>
<path d="M81.1924 59.5692C83.8049 56.008 83.7106 51.4982 80.9818 49.4964C78.2529 47.4945 73.9229 48.7586 71.3104 52.3199C68.6979 55.8811 68.7922 60.3909 71.5211 62.3927C74.2499 64.3946 78.5799 63.1305 81.1924 59.5692Z" fill="white" stroke="#22093A" stroke-miterlimit="10" stroke-linecap="round" stroke-linejoin="round"/>
<path d="M92.6288 66.7589C94.9012 63.8814 94.9559 60.1371 92.7509 58.3958C90.5459 56.6545 86.9163 57.5757 84.6439 60.4533C82.3715 63.3308 82.3168 67.0751 84.5217 68.8164C86.7267 70.5577 90.3564 69.6365 92.6288 66.7589Z" fill="white" stroke="#22093A" stroke-miterlimit="10" stroke-linecap="round" stroke-linejoin="round"/>
<path d="M80.2966 57.1503C81.7741 55.2794 81.8097 52.8448 80.3761 51.7127C78.9424 50.5805 76.5824 51.1795 75.1049 53.0504C74.5678 53.7306 74.227 54.4851 74.0723 55.2245L76.3615 55.5924L74.391 57.7152C74.5567 58.0067 74.7567 58.2759 75.0254 58.4881C76.4592 59.6202 78.8191 59.0213 80.2966 57.1503Z" fill="#22093A"/>
<path d="M91.9492 64.6884C93.3674 62.8925 93.4015 60.5557 92.0254 59.469C90.6493 58.3823 88.384 58.9572 86.9658 60.7531C86.4502 61.406 86.1231 62.1301 85.9746 62.8399L88.172 63.193L86.2806 65.2307C86.4396 65.5105 86.6315 65.7688 86.8895 65.9725C88.2657 67.0592 90.5309 66.4844 91.9492 64.6884Z" fill="#22093A"/>
<path d="M78.3719 76.1136C78.3719 76.1136 66.5889 87.9359 61.6213 83.8644C56.6537 79.7928 66.3141 65.4316 66.3141 65.4316L78.3719 76.1136Z" fill="#22093A" stroke="#22093A" stroke-miterlimit="10" stroke-linecap="round" stroke-linejoin="round"/>
<path d="M66.3144 65.4316L78.3723 76.1136L74.8034 79.2231L63.8613 69.5494L66.3144 65.4316Z" fill="white" stroke="#22093A" stroke-miterlimit="10" stroke-linecap="round" stroke-linejoin="round"/>
<path d="M61.6102 77.7101C62.9446 76.0675 64.6166 76.7526 66.2727 78.0979C67.9288 79.4432 68.9419 80.9394 67.6075 82.582C66.2731 84.2247 63.8488 84.4657 62.1927 83.1203C60.5366 81.775 60.2758 79.3528 61.6102 77.7101Z" fill="#FD32B0" stroke="#22093A" stroke-miterlimit="10" stroke-linecap="round" stroke-linejoin="round"/>
<path d="M37.2208 88.1738L35.459 89.2944" stroke="white" stroke-miterlimit="10" stroke-linecap="round" stroke-linejoin="round"/>
<path d="M36.3657 96.1406L31.4336 100.498" stroke="white" stroke-miterlimit="10" stroke-linecap="round" stroke-linejoin="round"/>
<path d="M48.5088 102.045L48.0645 102.785" stroke="white" stroke-miterlimit="10" stroke-linecap="round" stroke-linejoin="round"/>
<path d="M42.1197 81.8774L40.6152 83.1504C40.6152 83.1504 43.0069 86.815 44.7813 88.5895" stroke="#D9BBFF" stroke-miterlimit="10" stroke-linecap="round" stroke-linejoin="round"/>
<path d="M46.4258 90.8403C46.4258 90.8403 46.5443 91 47.1502 91.7193" stroke="#D9BBFF" stroke-miterlimit="10" stroke-linecap="round" stroke-linejoin="round"/>
<path d="M86.8125 34.0264C89.5453 36.3552 92.2833 38.9547 93.5853 40.7725" stroke="#D9BBFF" stroke-miterlimit="10" stroke-linecap="round" stroke-linejoin="round"/>
<path d="M88.3245 28.0508H85.2676" stroke="#D9BBFF" stroke-miterlimit="10" stroke-linecap="round" stroke-linejoin="round"/>
<path d="M106.803 28.0508H92.3105" stroke="#D9BBFF" stroke-miterlimit="10" stroke-linecap="round" stroke-linejoin="round"/>
<path d="M41.8145 67.9517C43.0259 70.1191 46.4404 74.799 49.5402 78.3687" stroke="white" stroke-miterlimit="10" stroke-linecap="round" stroke-linejoin="round"/>
<path d="M51.7748 55.6465L44.1738 63.8122" stroke="white" stroke-miterlimit="10" stroke-linecap="round" stroke-linejoin="round"/>
<path d="M56.5048 50.5659L55.1758 51.9936" stroke="white" stroke-miterlimit="10" stroke-linecap="round" stroke-linejoin="round"/>
<path d="M64.5053 41.9702L61.4824 45.2176" stroke="white" stroke-miterlimit="10" stroke-linecap="round" stroke-linejoin="round"/>
<path d="M108.844 47.2871L108.502 55.8716" stroke="#22093A" stroke-miterlimit="10" stroke-linecap="round" stroke-linejoin="round"/>
<path d="M108.33 58.5474V59.7289" stroke="#22093A" stroke-miterlimit="10" stroke-linecap="round" stroke-linejoin="round"/>
<path d="M10.9627 42.3765C14.3297 38.1702 23.6944 35.5942 31.1008 42.9982C38.5073 50.4023 37.5726 58.7084 33.8566 63.2818C30.5037 67.4083 22.7558 69.9564 14.615 62.3395C7.94557 56.0991 6.01739 48.5547 10.9627 42.3765Z" fill="#22093A" stroke="#22093A" stroke-miterlimit="10" stroke-linecap="round" stroke-linejoin="round"/>
<path d="M17.5409 47.177C17.7648 46.3332 20.0015 46.8767 23.4407 50.2979C26.8799 53.719 28.0806 56.2149 27.8213 57.1244C27.5874 57.9449 25.8106 57.6273 22.1226 54.0321C19.1012 51.0866 17.2121 48.4164 17.5409 47.177Z" fill="#22093A" stroke="#22093A" stroke-miterlimit="10" stroke-linecap="round" stroke-linejoin="round"/>
<path d="M31.7348 22.5873C28.0226 21.6604 17.989 30.5934 21.3285 36.4152C23.5294 40.2519 35.119 54.7668 40.0533 49.8546C45.124 44.8067 36.3894 39.5149 36.3894 39.5149C36.3894 39.5149 40.7804 34.8585 38.3961 31.6594C36.0118 28.4602 30.8401 34.8722 30.8401 34.8722C30.8401 34.8722 38.8635 24.3672 31.7348 22.5873Z" fill="#22093A" stroke="#22093A" stroke-miterlimit="10" stroke-linecap="round" stroke-linejoin="round"/>
<path d="M45.8055 10.1247C42.0555 8.77736 30.7271 16.9883 33.5809 23.3692C35.4616 27.5743 45.9583 43.8232 51.5835 39.2473C57.364 34.545 48.8644 28.1509 48.8644 28.1509C48.8644 28.1509 53.8999 23.7835 51.7626 20.2199C49.6254 16.6563 43.598 22.7616 43.598 22.7616C43.598 22.7616 53.007 12.7122 45.8055 10.1247Z" fill="#22093A" stroke="#22093A" stroke-miterlimit="10" stroke-linecap="round" stroke-linejoin="round"/>
<path d="M51.4945 4.39599C49.4764 5.41588 47.5267 7.70737 50.746 16.7822C53.6204 24.8844 56.773 23.6947 57.5461 23.304C58.3192 22.9133 63.0529 21.0112 59.6027 12.3062C56.1526 3.60122 54.4846 2.88484 51.4945 4.39599Z" fill="#22093A" stroke="#22093A" stroke-miterlimit="10" stroke-linecap="round" stroke-linejoin="round"/>
<path d="M60.2758 32.0234C62.4647 32.0234 64.2392 30.2489 64.2392 28.06C64.2392 25.8711 62.4647 24.0967 60.2758 24.0967C58.0869 24.0967 56.3125 25.8711 56.3125 28.06C56.3125 30.2489 58.0869 32.0234 60.2758 32.0234Z" fill="#22093A" stroke="#22093A" stroke-miterlimit="10" stroke-linecap="round" stroke-linejoin="round"/>
<path d="M9.02329 42.4258C12.3902 38.2195 21.7549 35.6435 29.1614 43.0476C36.5678 50.4516 35.6332 58.7577 31.9171 63.3311C28.5642 67.4576 20.8164 70.0058 12.6756 62.3888C6.00612 56.1485 4.07793 48.604 9.02329 42.4258Z" fill="#71C1F2" stroke="#22093A" stroke-miterlimit="10" stroke-linecap="round" stroke-linejoin="round"/>
<path d="M15.6015 47.2263C15.8253 46.3825 18.062 46.9261 21.5012 50.3472C24.9404 53.7684 26.1411 56.2643 25.8819 57.1737C25.6479 57.9942 23.8712 57.6766 20.1832 54.0814C17.1617 51.1359 15.2727 48.4657 15.6015 47.2263Z" fill="#22093A" stroke="#22093A" stroke-miterlimit="10" stroke-linecap="round" stroke-linejoin="round"/>
<path d="M29.7953 22.6366C26.0832 21.7097 16.0495 30.6427 19.3891 36.4645C21.5899 40.3012 33.1796 54.8162 38.1139 49.904C43.1845 44.8561 34.4499 39.5642 34.4499 39.5642C34.4499 39.5642 38.8409 34.9078 36.4566 31.7087C34.0723 28.5096 28.9007 34.9215 28.9007 34.9215C28.9007 34.9215 36.924 24.4165 29.7953 22.6366Z" fill="#71C1F2" stroke="#22093A" stroke-miterlimit="10" stroke-linecap="round" stroke-linejoin="round"/>
<path d="M43.8661 10.1741C40.116 8.82668 28.7877 17.0376 31.6414 23.4185C33.5221 27.6236 44.0189 43.8725 49.644 39.2966C55.4245 34.5943 46.925 28.2002 46.925 28.2002C46.925 28.2002 51.9604 23.8328 49.8232 20.2692C47.6859 16.7057 41.6586 22.8109 41.6586 22.8109C41.6586 22.8109 51.0676 12.7615 43.8661 10.1741Z" fill="#71C1F2" stroke="#22093A" stroke-miterlimit="10" stroke-linecap="round" stroke-linejoin="round"/>
<path d="M49.555 4.44531C47.537 5.46519 45.5872 7.75669 48.8066 16.8315C51.6809 24.9337 54.8335 23.744 55.6066 23.3533C56.3797 22.9626 61.1134 21.0605 57.6633 12.3555C54.2132 3.65054 52.5452 2.93415 49.555 4.44531Z" fill="#71C1F2" stroke="#22093A" stroke-miterlimit="10" stroke-linecap="round" stroke-linejoin="round"/>
<path d="M58.3364 32.0727C60.5253 32.0727 62.2997 30.2982 62.2997 28.1093C62.2997 25.9204 60.5253 24.146 58.3364 24.146C56.1475 24.146 54.373 25.9204 54.373 28.1093C54.373 30.2982 56.1475 32.0727 58.3364 32.0727Z" fill="#71C1F2" stroke="#22093A" stroke-miterlimit="10" stroke-linecap="round" stroke-linejoin="round"/>
<path d="M19.9902 63.6099C22.52 64.3704 24.1889 63.825 24.1889 63.825" stroke="white" stroke-miterlimit="10" stroke-linecap="round" stroke-linejoin="round"/>
<path d="M11.0739 44.7896C10.4342 46.0731 6.45642 50.8468 12.5932 58.2275C14.2143 60.1772 15.788 61.4874 17.2262 62.3599" stroke="white" stroke-miterlimit="10" stroke-linecap="round" stroke-linejoin="round"/>
<path d="M23.8652 29.3242C23.3526 29.9223 20.4477 32.8443 21.9856 35.2283C23.5235 37.6122 24.4631 38.4882 25.9158 40.1008" stroke="white" stroke-miterlimit="10" stroke-linecap="round" stroke-linejoin="round"/>
<path d="M36.4236 17.0601C34.8002 18.7295 32.4342 20.4383 35.8149 24.6715" stroke="white" stroke-miterlimit="10" stroke-linecap="round" stroke-linejoin="round"/>
<path d="M50.5314 7.25146C49.9704 7.71212 48.458 8.68794 50.8349 14.2922" stroke="white" stroke-miterlimit="10" stroke-linecap="round" stroke-linejoin="round"/>
<path d="M56.9933 27.2109C56.9933 27.2109 56.5965 28.6406 57.5789 29.3241" stroke="white" stroke-miterlimit="10" stroke-linecap="round" stroke-linejoin="round"/>
<path d="M15.5633 99.3904C13.9115 99.7387 13.5065 101.712 14.3613 102.692C15.4367 103.924 17.9673 104.041 18.3468 102.159C18.7264 100.276 17.5397 98.9737 15.5633 99.3904Z" fill="#FCC707" stroke="#22093A" stroke-miterlimit="10" stroke-linecap="round" stroke-linejoin="round"/>
<path d="M87.1821 83.6733L84.235 90.4107L78.0371 92.8154L85.2669 96.3863L87.1821 101.958L90.1969 95.1678L96.3257 92.8154L89.5047 89.7674L87.1821 83.6733Z" fill="#FCC707"/>
<path d="M87.1821 109.671C86.791 109.671 86.4644 109.37 86.4351 108.98C85.3613 95.2119 84.7856 94.6362 71.0176 93.5625C70.6279 93.5332 70.3262 93.2065 70.3262 92.8154C70.3262 92.4243 70.6279 92.0977 71.0176 92.0684C84.7856 90.9946 85.3613 90.4189 86.4351 76.6509C86.4644 76.2612 86.791 75.9595 87.1821 75.9595C87.5732 75.9595 87.8999 76.2612 87.9292 76.6509C89.0015 90.4189 89.5772 90.9946 103.347 92.0684C103.736 92.0977 104.038 92.4243 104.038 92.8154C104.038 93.2065 103.736 93.5332 103.347 93.5625C89.5771 94.6362 89.0015 95.2119 87.9292 108.98C87.8999 109.37 87.5732 109.671 87.1821 109.671ZM78.0371 92.8154C84.1411 93.835 86.1626 95.855 87.1821 101.958C88.2002 95.855 90.2217 93.835 96.3257 92.8154C90.2217 91.7959 88.2002 89.7759 87.1821 83.6733C86.1626 89.7759 84.1411 91.7959 78.0371 92.8154Z" fill="#22093A"/>
<path d="M95.3157 13.0425L93.5826 16.3028L89.5039 17.6487L94.3732 19.9172L95.3157 22.2549L97.3679 18.7369L99.9226 17.6487L96.3249 15.4971L95.3157 13.0425Z" fill="#FCC707"/>
<path d="M95.3164 28.9053C94.9253 28.9053 94.5986 28.6042 94.5693 28.2131C93.8794 19.3611 93.6055 19.0857 84.752 18.3965C84.3623 18.3657 84.0605 18.0405 84.0605 17.6487C84.0605 17.2568 84.3623 16.9316 84.752 16.9009C93.6055 16.2117 93.8794 15.9363 94.5693 7.08423C94.5986 6.69312 94.9253 6.39209 95.3164 6.39209C95.7075 6.39209 96.0342 6.69312 96.0635 7.0835C96.7549 15.9363 97.0288 16.2117 105.882 16.9009C106.272 16.9316 106.574 17.2568 106.574 17.6487C106.574 18.0405 106.272 18.3657 105.882 18.3965C97.0288 19.0857 96.7549 19.3611 96.0635 28.2139C96.0342 28.6042 95.7075 28.9053 95.3164 28.9053ZM90.7109 17.6487C93.4443 18.3123 94.6528 19.5215 95.3164 22.2549C95.9814 19.5215 97.1899 18.313 99.9233 17.6487C97.1899 16.9844 95.9814 15.7759 95.3164 13.0425C94.6528 15.7759 93.4443 16.9851 90.7109 17.6487Z" fill="#22093A"/>
<path d="M15.9303 77.5592C15.7495 80.1766 18.5282 81.6204 20.3554 80.7584C22.6544 79.6738 23.9041 75.9402 21.251 74.5732C18.5979 73.2063 16.1466 74.4273 15.9303 77.5592Z" fill="#FCC707" stroke="#22093A" stroke-miterlimit="10" stroke-linecap="round" stroke-linejoin="round"/>
<path d="M18.6397 76.3784L18.1953 77.1187" stroke="white" stroke-miterlimit="10" stroke-linecap="round" stroke-linejoin="round"/>
</svg>
