<svg width="120" height="60" viewBox="0 0 120 60" fill="none" xmlns="http://www.w3.org/2000/svg">
<g clip-path="url(#clip0_5_10990)">
<path opacity="0.5" d="M119.045 26.7221C120.383 16.9358 121.005 9.04404 116.126 5.1882C114.154 2.70002 111.14 1.26689 107.966 1.30826C104.897 1.0834 101.876 2.17119 99.6555 4.30125C95.5829 0.242233 88.9909 0.253247 84.9319 4.32585C84.3549 4.90472 83.8482 5.5495 83.422 6.24688C83.0047 5.7352 82.5374 5.26646 82.027 4.84762C78.5407 0.341426 72.0615 -0.485388 67.5553 3.00088C67.4606 3.07414 67.3672 3.14904 67.2752 3.22554C63.9231 1.24519 60.0511 0.323197 56.1662 0.580286C51.6284 0.682937 47.2449 2.24778 43.6679 5.04203C41.4066 3.10716 38.499 2.09574 35.525 2.20946C32.1502 2.28716 29.0161 3.97391 27.0925 6.74777C25.0066 4.34958 21.9265 3.05433 18.7537 3.24111C10.9371 3.63136 5.05196 11.746 2.60538 25.5044C-0.0214326 40.2776 1.09826 49.7929 5.93182 53.8289C7.56768 56.1487 10.2107 57.5506 13.0488 57.6038C17.3558 57.7102 20.9008 55.0167 23.4467 49.5928C25.0995 50.8638 27.1483 51.5097 29.2311 51.4164C31.0605 51.3469 32.8382 50.7909 34.3811 49.8057C35.0082 50.7256 35.7466 51.5645 36.5794 52.3034C38.6023 55.1081 41.9004 56.707 45.3553 56.5579C46.4821 56.4989 47.588 56.2303 48.6164 55.766C48.9088 55.8228 49.204 55.8673 49.502 55.8994C55.452 56.6724 61.5008 55.9169 67.0779 53.704C68.7651 54.8052 70.7313 55.4023 72.7459 55.4254C72.8112 55.4269 72.8765 55.4283 72.9432 55.4283C76.8075 55.4269 79.2952 52.881 80.9584 49.5503C81.5089 50.3491 82.1627 51.0715 82.9026 51.6989C84.8734 54.2915 87.9352 55.8237 91.1918 55.847C92.1588 55.8747 93.1222 55.7172 94.03 55.3829C97.8033 60.2575 104.814 61.1502 109.688 57.377C114.224 53.8657 115.36 47.4878 112.316 42.6264C112.23 42.4901 112.144 42.3567 112.053 42.2262C115.12 39.6546 117.913 35.0056 119.045 26.7221Z" fill="#231F20"/>
<path d="M117.822 26.1606C119.161 16.3742 119.782 8.48252 114.903 4.62668C112.932 2.13851 109.918 0.705392 106.743 0.746769C103.674 0.521916 100.654 1.60969 98.4328 3.73973C94.3602 -0.31929 87.7682 -0.308268 83.7092 3.76435C83.1323 4.3432 82.6255 4.98798 82.1994 5.68535C81.7821 5.17367 81.3147 4.70493 80.8043 4.28609C77.318 -0.220108 70.8388 -1.04691 66.3326 2.43938C66.238 2.51263 66.1446 2.58752 66.0525 2.66402C62.7004 0.683662 58.8284 -0.238332 54.9436 0.0187646C50.4057 0.121411 46.0223 1.68626 42.4453 4.48051C40.1839 2.54563 37.2763 1.53421 34.3023 1.64792C30.9276 1.72562 27.7935 3.41237 25.8698 6.18623C23.784 3.78805 20.7039 2.49279 17.531 2.67956C9.71445 3.0699 3.8293 11.1845 1.38273 24.943C-1.24409 39.7161 -0.124392 49.2313 4.70917 53.2674C6.34503 55.5872 8.98801 56.989 11.8261 57.0422C16.1331 57.1487 19.6781 54.4552 22.224 49.0313C23.8768 50.3022 25.9256 50.9481 28.0084 50.8548C29.8378 50.7853 31.6155 50.2293 33.1584 49.2441C33.7855 50.164 34.5238 51.003 35.3567 51.7418C37.3796 54.5465 40.6777 56.1454 44.1326 55.9964C45.2594 55.9373 46.3653 55.6688 47.3937 55.2045C47.6861 55.2612 47.9813 55.3057 48.2793 55.3379C54.2293 56.1109 60.2781 55.3553 65.8552 53.1425C67.5424 54.2436 69.5086 54.8408 71.5233 54.8639C71.5885 54.8654 71.6538 54.8668 71.7205 54.8668C75.5848 54.8654 78.0726 52.3194 79.7358 48.9887C80.2863 49.7874 80.94 50.5099 81.68 51.1372C83.6508 53.7299 86.7125 55.2621 89.9691 55.2853C90.9361 55.313 91.8995 55.1555 92.8074 54.8213C96.5807 59.6958 103.591 60.5886 108.466 56.8153C113.002 53.3041 114.138 46.9262 111.093 42.0647C111.008 41.9285 110.921 41.7951 110.83 41.6645C113.897 39.0931 116.69 34.444 117.822 26.1606Z" fill="white"/>
<path d="M108.079 7.5229C105.022 7.36475 101.279 8.68827 98.5975 19.7594C98.9354 12.1038 97.497 7.91804 93.0983 7.50196C88.565 7.07302 85.4494 12.1503 83.9994 23.9799C82.7046 23.774 81.3032 23.6312 79.8331 23.5224C80.892 13.2079 79.7962 7.56698 74.6535 7.08065C71.6297 6.79452 69.2381 8.96341 67.5478 13.9403C67.5063 12.7021 67.1698 11.4916 66.5664 10.4096C63.7516 5.08031 47.6862 4.96784 44.077 14.4057C42.1779 10.7621 39.6009 8.28949 36.1014 8.42706C30.8929 8.63177 29.7509 14.6687 27.7207 19.1649C25.7899 15.1073 24.4801 9.20235 19.3828 9.45691C13.491 9.75119 9.6729 18.0612 7.98938 27.5307C6.16286 37.8045 5.42641 51.8141 11.9403 51.9623C19.4501 52.133 21.3047 31.4934 21.3047 31.4934C21.3047 31.4934 21.2584 46.0103 27.8251 45.7762C35.3228 45.5088 34.6528 31.2863 34.6528 31.2863C34.6528 31.2863 35.5926 51.3663 43.8566 50.9221C44.9304 50.8552 45.9385 50.382 46.676 49.5986C47.3365 49.97 48.0655 50.2035 48.8189 50.2851C55.7582 51.0272 62.8794 49.8223 66.721 46.7942C67.6646 48.6368 69.5637 49.7928 71.634 49.7846C74.8339 49.8544 76.6097 44.2071 77.9784 36.5092C78.7064 36.5554 79.4669 36.5789 80.291 36.5585C81.337 36.5326 82.2964 36.4591 83.2057 36.3561C83.2404 45.0647 85.0823 50.0971 90.0789 50.2059C93.7868 50.2867 95.5824 42.6919 97.0479 33.1235C97.5946 39.036 100.636 39.5349 101.618 39.5857C102.945 39.6543 110.69 40.7781 112.782 25.4762C114.874 10.1743 113.209 7.78827 108.079 7.5229ZM66.5886 17.3985C66.0161 20.0437 65.6016 22.7206 65.3473 25.415C61.6841 23.5634 54.632 24.8243 54.632 24.8243C54.632 24.8243 63.5945 22.4466 66.5886 17.3985ZM55.4671 35.4623C58.7321 35.2286 61.9147 34.329 64.8189 32.8189C64.7751 33.9788 64.7521 35.0945 64.7598 36.1471C61.7137 35.4564 58.5815 35.2256 55.4671 35.4623Z" fill="#22093A" stroke="#22093A" stroke-linecap="round" stroke-linejoin="round"/>
<path d="M98.4063 42.8437C95.5622 44.6252 94.7008 48.3751 96.4824 51.2192C98.2639 54.0633 102.014 54.9247 104.858 53.1431C107.702 51.3616 108.563 47.6118 106.782 44.7677C105 41.9236 101.25 41.0622 98.4063 42.8437Z" fill="#22093A" stroke="#22093A" stroke-linecap="round" stroke-linejoin="round"/>
<path d="M34.5018 6.73496C29.2933 6.93969 28.1513 12.9766 26.1211 17.4728C24.1903 13.4153 22.8805 7.51024 17.7831 7.76481C11.8914 8.05905 8.07331 16.3692 6.38977 25.8386C4.56323 36.1123 3.82684 50.1221 10.3407 50.2702C17.8504 50.4409 19.7051 29.8013 19.7051 29.8013C19.7051 29.8013 19.6588 44.3181 26.2255 44.084C33.7232 43.8168 33.0532 29.5942 33.0532 29.5942C33.0532 29.5942 33.993 49.6742 42.257 49.23C46.0341 49.0269 47.8827 43.9638 47.705 38.7645C47.5126 33.1403 45.8266 6.28981 34.5018 6.73496Z" fill="#71C1F2" stroke="#22093A" stroke-linecap="round" stroke-linejoin="round"/>
<path d="M8.67188 33.2778C8.78788 32.2491 8.93554 31.194 9.11051 30.1343" stroke="white" stroke-linecap="round" stroke-linejoin="round"/>
<path d="M9.97876 44.0443C8.76194 43.3911 8.30673 40.7633 8.38316 37.3306" stroke="white" stroke-linecap="round" stroke-linejoin="round"/>
<path d="M30.8809 14.9675C31.3205 13.104 32.1325 9.86533 35.0402 9.93469" stroke="white" stroke-linecap="round" stroke-linejoin="round"/>
<path d="M55.9419 6.19629C55.2187 6.2258 54.4879 6.27568 53.7617 6.35246" stroke="white" stroke-linecap="round" stroke-linejoin="round"/>
<path d="M64.9673 8.71744C62.1245 3.33514 45.7468 3.25854 42.3548 12.9825C40.1415 19.3276 36.4109 47.437 47.2198 48.593C58.0286 49.7489 69.3242 46.206 67.8836 38.3541C66.831 32.6171 53.7127 33.7824 53.7127 33.7824C53.7127 33.7824 66.0344 32.9677 65.9033 26.9072C65.7722 20.8467 53.0328 23.1321 53.0328 23.1321C53.0328 23.1321 70.1808 18.5884 64.9673 8.71744Z" fill="#71C1F2" stroke="#22093A" stroke-linecap="round" stroke-linejoin="round"/>
<path d="M50.8628 9.08545C48.7852 9.64722 46.9569 10.8913 45.6719 12.6177" stroke="white" stroke-linecap="round" stroke-linejoin="round"/>
<path d="M44.0664 41.3555C44.2679 43.1842 48.1443 45.5274 53.1894 45.2026" stroke="white" stroke-linecap="round" stroke-linejoin="round"/>
<path d="M91.4986 5.8097C86.9653 5.38079 83.8497 10.4581 82.3996 22.2876C81.1048 22.0817 79.7035 21.9389 78.2334 21.8302C79.2923 11.5157 78.1965 5.87468 73.0538 5.38836C68.1148 4.92106 64.8528 10.9651 63.6009 25.1836C62.349 39.402 63.4971 47.95 70.0343 48.0923C73.2343 48.1621 75.01 42.5148 76.3787 34.8169C77.1068 34.8631 77.8673 34.8867 78.6913 34.8663C79.7374 34.8403 80.6967 34.7668 81.606 34.6638C81.6408 43.3724 83.4826 48.4048 88.4792 48.5137C92.7775 48.6073 94.5073 38.3933 96.1302 26.7382C97.9641 13.5695 97.3445 6.36258 91.4986 5.8097Z" fill="#71C1F2" stroke="#22093A" stroke-linecap="round" stroke-linejoin="round"/>
<path d="M72.1289 9.25195C73.3772 9.45328 74.7059 10.9431 74.424 17.0635" stroke="white" stroke-linecap="round" stroke-linejoin="round"/>
<path d="M90.9336 9.6543C92.2221 9.85564 93.3898 10.9428 92.9469 14.8486" stroke="white" stroke-linecap="round" stroke-linejoin="round"/>
<path d="M106.479 5.83058C103.017 5.65141 98.6709 7.35288 95.9885 22.9976C93.5936 36.9658 98.6927 37.8248 100.019 37.8934C101.345 37.962 109.09 39.0858 111.183 23.7839C113.275 8.48202 111.609 6.09603 106.479 5.83058Z" fill="#71C1F2" stroke="#22093A" stroke-linecap="round" stroke-linejoin="round"/>
<path d="M100.032 52.3783C103.388 52.3783 106.108 49.6577 106.108 46.3017C106.108 42.9457 103.388 40.2251 100.032 40.2251C96.6757 40.2251 93.9551 42.9457 93.9551 46.3017C93.9551 49.6577 96.6757 52.3783 100.032 52.3783Z" fill="#71C1F2" stroke="#22093A" stroke-linecap="round" stroke-linejoin="round"/>
<path d="M99.7975 42.6908C97.6016 42.5293 95.486 46.1405 97.09 48.6979" stroke="white" stroke-linecap="round" stroke-linejoin="round"/>
<path d="M105.335 8.5498C102.883 8.7078 97.9336 19.3536 98.1998 29.5376" stroke="white" stroke-linecap="round" stroke-linejoin="round"/>
</g>
<defs>
<clipPath id="clip0_5_10990">
<rect width="120" height="59.7066" fill="white"/>
</clipPath>
</defs>
</svg>
