<svg width="120" height="120" viewBox="0 0 120 120" fill="none" xmlns="http://www.w3.org/2000/svg">
<path d="M62.3375 26.4909C62.3375 26.4909 54.5497 6.90843 32.0337 13.7314C13.2362 19.4276 3.09695 46.1998 13.0083 64.4276C22.9197 82.6555 40.8058 84.7061 59.4893 95.1871C63.5399 97.703 67.4216 100.481 71.1096 103.504C71.1096 103.504 72.5906 92.6808 95.1476 73.1118C111.369 59.0391 108.601 38.905 105.515 30.4783C102.553 22.3897 95.9419 11.5305 79.54 12.82C71.4614 13.2004 64.5324 18.707 62.3375 26.4909Z" fill="#22093A" stroke="#22093A" stroke-linecap="round" stroke-linejoin="round"/>
<path d="M60.6324 25.8308C60.6324 25.8308 52.8447 6.24824 30.3286 13.0713C11.5311 18.7675 1.39186 45.5396 11.3033 63.7675C21.2147 81.9953 39.1007 84.046 57.7843 94.527C61.8348 97.0429 65.7165 99.821 69.4045 102.843C69.4045 102.843 70.8855 92.0206 93.4425 72.4516C109.664 58.3789 106.896 38.2449 103.81 29.8181C100.848 21.7295 94.2368 10.8704 77.8349 12.1599C69.7563 12.5403 62.8273 18.0468 60.6324 25.8308Z" fill="#E9022C" stroke="#22093A" stroke-linecap="round" stroke-linejoin="round"/>
<path d="M49.5385 38.3267C49.5385 38.3267 48.6373 45.2268 52.6246 44.4294C56.612 43.6319 56.0748 38.3267 56.0748 38.3267" stroke="#22093A" stroke-linecap="round" stroke-linejoin="round"/>
<path d="M62.1855 37.646C62.1855 37.646 62.1855 43.9217 66.059 43.2317C69.9324 42.5417 69.2488 36.6177 69.2488 36.6177" stroke="#22093A" stroke-linecap="round" stroke-linejoin="round"/>
<path d="M42.0176 50.5602C42.0176 50.5602 50.1309 49.4776 52.098 57.0641C53.5843 62.7964 50.3305 68.703 50.3305 68.703" stroke="#22093A" stroke-linecap="round" stroke-linejoin="round"/>
<path d="M73.8128 43.2847C70.3731 45.5542 68.5704 49.6192 69.1973 53.6921C70.0258 60.298 77.2038 61.0993 77.2038 61.0993" stroke="#22093A" stroke-linecap="round" stroke-linejoin="round"/>
<path d="M70.4689 57.0608C70.4689 57.0608 67.3184 49.3399 60.2427 50.5784C53.1671 51.8168 52.6211 59.4597 52.6211 59.4597" stroke="#22093A" stroke-linecap="round" stroke-linejoin="round"/>
<path d="M47.9383 28.6042C44.9159 28.6171 40.5633 29.3507 40.4736 30.9814C40.3843 32.6056 46.4956 32.673 49.0322 32.3556C54.4681 31.6752 55.247 28.5732 47.9383 28.6042Z" fill="#22093A" stroke="#22093A" stroke-linecap="round" stroke-linejoin="round"/>
<path d="M71.7358 27.0926C68.7259 26.8188 64.3232 27.1364 64.0793 28.7513C63.8363 30.3597 69.9138 31.0063 72.469 30.9308C77.9449 30.7689 79.0145 27.7548 71.7358 27.0926Z" fill="#22093A" stroke="#22093A" stroke-linecap="round" stroke-linejoin="round"/>
<path d="M26.7574 19.1006C12.5987 27.3885 10.3601 46.9031 12.3114 54.781" stroke="#FFB3CE" stroke-linecap="round" stroke-linejoin="round"/>
<path d="M38.5133 15.4771C36.3709 15.6516 34.2542 16.0609 32.2012 16.6977" stroke="#FFB3CE" stroke-linecap="round" stroke-linejoin="round"/>
<path d="M21.7285 70.8662C22.266 71.3482 22.8324 71.8305 23.4278 72.3131" stroke="#FFB3CE" stroke-linecap="round" stroke-linejoin="round"/>
<path d="M13.3848 59.5005C14.6661 62.7297 16.5707 65.675 18.9898 68.1684" stroke="#FFB3CE" stroke-linecap="round" stroke-linejoin="round"/>
<path d="M43.3762 109.254C46.6328 108.547 48.5734 105.637 48.5972 101.904C48.6229 97.866 48.0613 78.524 37.9551 78.5675C32.6948 78.5901 29.0018 84.4627 27.1698 91.2045C25.1823 98.5188 24.2916 109.475 28.4418 109.8C35.1086 110.323 37.05 91.2046 37.05 91.2046C37.05 91.2046 37.0312 110.631 43.3762 109.254Z" fill="#22093A" stroke="#22093A" stroke-linecap="round" stroke-linejoin="round"/>
<path d="M81.0107 81.0668C79.6832 78.3242 67.5323 77.0963 63.917 83.7154C61.5579 88.0344 57.1043 104.146 64.775 106.276C72.4456 108.405 79.2483 107.087 79.5678 102.828C79.8872 98.5681 69.8774 97.8274 69.8774 97.8274C69.8774 97.8274 78.5106 97.8435 79.1418 93.4493C79.773 89.0551 70.6619 90.0514 70.6619 90.0514C70.6619 90.0514 84.5727 88.4251 81.0107 81.0668Z" fill="#22093A" stroke="#22093A" stroke-linecap="round" stroke-linejoin="round"/>
<path d="M92.1239 78.688C97.0221 78.9846 97.6777 84.0709 96.3961 93.4127C95.2617 101.681 94.0105 108.931 90.415 108.935C84.9467 108.94 83.8236 102.914 84.5988 92.8388C85.3739 82.7641 87.9858 78.4374 92.1239 78.688Z" fill="#22093A" stroke="#22093A" stroke-linecap="round" stroke-linejoin="round"/>
<path d="M91.3752 76.6673C93.9006 76.6673 95.9478 74.7179 95.9478 72.3131C95.9478 69.9084 93.9006 67.959 91.3752 67.959C88.8499 67.959 86.8027 69.9084 86.8027 72.3131C86.8027 74.7179 88.8499 76.6673 91.3752 76.6673Z" fill="#22093A" stroke="#22093A" stroke-linecap="round" stroke-linejoin="round"/>
<path d="M104.723 78.904C115.773 79.782 119.735 83.321 118.975 87.0642C117.834 92.6892 107.667 89.2655 107.667 89.2655C107.667 89.2655 113 108.381 105.333 108.97C95.774 109.704 100.01 88.1262 100.01 88.1262C100.01 88.1262 91.2153 87.5502 92.0815 82.9299C92.9477 78.3096 97.0491 78.2943 104.723 78.904Z" fill="#22093A" stroke="#22093A" stroke-linecap="round" stroke-linejoin="round"/>
<path d="M56.0434 77.6772C44.5599 77.9239 41.1232 80.9714 42.1675 84.6454C43.7368 90.1664 50.9766 88.9931 50.9766 88.9931C50.9766 88.9931 47.1231 108.461 54.813 108.461C64.4005 108.461 58.7462 88.1344 58.7462 88.1344C58.7462 88.1344 69.9281 88.2841 69.341 83.6201C68.8477 79.7011 63.7395 77.5118 56.0434 77.6772Z" fill="#22093A" stroke="#22093A" stroke-linecap="round" stroke-linejoin="round"/>
<path d="M22.6897 79.7627C19.4711 79.8807 17.7552 83.729 17.8311 92.1587C16.9041 92.1339 15.9082 92.1632 14.8673 92.2228C14.657 84.8917 13.3674 81.0371 9.71603 81.1711C6.20936 81.2997 4.48016 85.8395 4.91574 95.9262C5.35131 106.013 6.94611 111.901 11.5436 111.397C13.7941 111.15 14.5177 107.026 14.7663 101.501C15.2811 101.466 15.8167 101.413 16.3927 101.322C17.1238 101.207 17.7898 101.067 18.4179 100.911C19.2468 107.015 21.0033 110.374 24.5173 109.988C27.5402 109.657 27.8097 102.335 27.8711 94.0112C27.9406 84.6071 26.8404 79.6103 22.6897 79.7627Z" fill="#22093A" stroke="#22093A" stroke-linecap="round" stroke-linejoin="round"/>
<path d="M36.7774 77.317C31.517 77.3396 27.8241 83.2122 25.9921 89.954C24.0046 97.2683 23.1139 108.225 27.2641 108.55C30.3553 108.792 32.4292 104.811 33.7661 100.472H36.8342C37.6743 104.784 39.2477 108.643 42.1985 108.003C45.4552 107.296 47.3958 104.386 47.4195 100.653C47.4452 96.6155 46.8836 77.2735 36.7774 77.317ZM34.9187 95.9146C35.602 92.6102 35.8722 89.954 35.8722 89.954C35.8722 89.954 35.8704 92.6251 36.1904 95.9146H34.9187Z" fill="#9736FF" stroke="#22093A" stroke-linecap="round" stroke-linejoin="round"/>
<path d="M79.833 79.8163C78.5054 77.0737 66.3546 75.8458 62.7392 82.4649C60.3802 86.7839 55.9266 102.895 63.5972 105.025C71.2679 107.155 78.0706 105.837 78.3901 101.577C78.7095 97.3176 68.6996 96.5769 68.6996 96.5769C68.6996 96.5769 77.3329 96.5931 77.9641 92.1988C78.5953 87.8046 69.4841 88.8009 69.4841 88.8009C69.4841 88.8009 83.395 87.1746 79.833 79.8163Z" fill="#9736FF" stroke="#22093A" stroke-linecap="round" stroke-linejoin="round"/>
<path d="M90.9481 77.4375C95.8463 77.7341 96.5019 82.8204 95.2203 92.1622C94.0859 100.43 92.8347 107.681 89.2393 107.684C83.7709 107.689 82.6478 101.663 83.423 91.5883C84.1981 81.5136 86.81 77.1869 90.9481 77.4375Z" fill="#9736FF" stroke="#22093A" stroke-linecap="round" stroke-linejoin="round"/>
<path d="M90.1975 76.0452C92.7228 76.0452 94.77 74.0958 94.77 71.6911C94.77 69.2863 92.7228 67.3369 90.1975 67.3369C87.6722 67.3369 85.625 69.2863 85.625 71.6911C85.625 74.0958 87.6722 76.0452 90.1975 76.0452Z" fill="#9736FF" stroke="#22093A" stroke-linecap="round" stroke-linejoin="round"/>
<path d="M103.545 77.653C114.595 78.531 118.557 82.07 117.798 85.8132C116.656 91.4382 106.489 88.0145 106.489 88.0145C106.489 88.0145 111.823 107.13 104.155 107.719C94.5962 108.453 98.8321 86.8752 98.8321 86.8752C98.8321 86.8752 90.0376 86.2992 90.9038 81.6789C91.77 77.0586 95.8714 77.0433 103.545 77.653Z" fill="#9736FF" stroke="#22093A" stroke-linecap="round" stroke-linejoin="round"/>
<path d="M54.8656 76.4267C43.3822 76.6734 39.9455 79.7209 40.9897 83.395C42.559 88.9159 49.7989 87.7426 49.7989 87.7426C49.7989 87.7426 45.9454 107.21 53.6353 107.21C63.2227 107.21 57.5684 86.8839 57.5684 86.8839C57.5684 86.8839 68.7504 87.0336 68.1633 82.3696C67.6699 78.4506 62.5617 76.2614 54.8656 76.4267Z" fill="#9736FF" stroke="#22093A" stroke-linecap="round" stroke-linejoin="round"/>
<path d="M21.512 78.5122C18.2933 78.6302 16.5775 82.4785 16.6534 90.9082C15.7264 90.8834 14.7304 90.9127 13.6895 90.9723C13.4792 83.6412 12.1897 79.7866 8.53829 79.9206C5.03162 80.0492 3.30242 84.589 3.73801 94.6757C4.17358 104.762 5.76838 110.651 10.3659 110.147C12.6163 109.9 13.34 105.776 13.5886 100.251C14.1034 100.216 14.639 100.162 15.2149 100.072C15.9461 99.957 16.6121 99.8168 17.2402 99.6606C18.0691 105.764 19.8256 109.123 23.3396 108.738C26.3625 108.407 26.632 101.084 26.6934 92.7608C26.7629 83.3566 25.6626 78.3598 21.512 78.5122Z" fill="#9736FF" stroke="#22093A" stroke-linecap="round" stroke-linejoin="round"/>
<path d="M31.4057 71.5209C37.1612 71.5209 41.827 66.8551 41.827 61.0996C41.827 55.344 37.1612 50.6782 31.4057 50.6782C25.6502 50.6782 20.9844 55.344 20.9844 61.0996C20.9844 66.8551 25.6502 71.5209 31.4057 71.5209Z" fill="#FF4069"/>
<path d="M89.4968 57.896C94.0492 57.896 97.7397 54.2055 97.7397 49.6531C97.7397 45.1006 94.0492 41.4102 89.4968 41.4102C84.9444 41.4102 81.2539 45.1006 81.2539 49.6531C81.2539 54.2055 84.9444 57.896 89.4968 57.896Z" fill="#FF4069"/>
<path d="M6.94958 84.1802C5.90791 88.682 5.73392 93.3411 6.43692 97.908" stroke="#D9BBFF" stroke-linecap="round" stroke-linejoin="round"/>
<path d="M20.2227 100.536C20.3788 102.231 21.043 103.839 22.1282 105.15" stroke="#D9BBFF" stroke-linecap="round" stroke-linejoin="round"/>
<path d="M36.4455 80.1362C33.8494 80.9979 31.7819 82.9868 30.8203 85.5476" stroke="#D9BBFF" stroke-linecap="round" stroke-linejoin="round"/>
<path d="M41.5586 104.603C41.5586 104.603 43.0077 105.476 43.8544 103.212" stroke="#D9BBFF" stroke-linecap="round" stroke-linejoin="round"/>
<path d="M43.8555 83.269C44.539 84.1235 45.5131 85.3197 49.0447 85.0918" stroke="#D9BBFF" stroke-linecap="round" stroke-linejoin="round"/>
<path d="M63.0377 90.6738C62.525 92.8383 61.5567 98.7212 62.6959 100.536" stroke="#D9BBFF" stroke-linecap="round" stroke-linejoin="round"/>
<path d="M89.214 70.2227C88.4087 70.9041 88.2461 72.0828 88.8369 72.9568" stroke="#D9BBFF" stroke-linecap="round" stroke-linejoin="round"/>
<path d="M87.5507 83.7817C86.7545 87.1976 86.2966 90.6835 86.1836 94.1891" stroke="#D9BBFF" stroke-linecap="round" stroke-linejoin="round"/>
<path d="M100.688 97.5659C100.78 100.953 101.276 104.825 103.329 105.15" stroke="#D9BBFF" stroke-linecap="round" stroke-linejoin="round"/>
<path d="M100.709 93.0688C100.709 93.5041 100.691 94.1373 100.68 94.8893" stroke="#D9BBFF" stroke-linecap="round" stroke-linejoin="round"/>
</svg>
