<svg width="120" height="120" viewBox="0 0 120 120" fill="none" xmlns="http://www.w3.org/2000/svg">
<path d="M23.1761 20.502C20.2369 19.3468 11.0703 25.5865 13.1818 30.7082C14.5733 34.0836 22.5087 47.2016 27.072 43.7082C31.7614 40.1183 25.1776 34.854 25.1776 34.854C25.1776 34.854 29.2689 31.512 27.6592 28.6388C26.0494 25.7657 21.1316 30.4613 21.1316 30.4613C21.1316 30.4613 28.8207 22.7203 23.1761 20.502Z" fill="#22093A" stroke="#22093A" stroke-linecap="round" stroke-linejoin="round"/>
<path d="M31.9497 13.6714C28.5027 13.6097 27.1039 19.5124 28.7159 25.6647C30.3279 31.8171 32.5047 37.8242 36.1853 36.8394C39.8659 35.8547 48.5695 32.0147 48.0013 28.0046C47.1382 21.9138 37.6366 29.0843 37.6366 29.0843C37.6366 29.0843 37.0777 13.7631 31.9497 13.6714Z" fill="#22093A" stroke="#22093A" stroke-linecap="round" stroke-linejoin="round"/>
<path d="M57.022 22.7368C56.1739 19.985 51.6461 6.95009 44.7817 9.14593C41.2088 10.2888 39.9559 15.0747 40.155 20.0527C40.371 25.4534 42.1136 33.0962 45.006 32.4277C47.3 31.8975 47.7832 28.358 47.6856 24.91C47.811 24.8983 49.6629 24.6562 49.6629 24.6562C51.1764 27.5077 53.4114 30.9169 55.332 29.8197C57.3955 28.6411 57.8059 25.2807 57.022 22.7368ZM47.393 21.4424C47.3099 20.2618 47.1367 19.0892 46.8749 17.9349C46.8749 17.9349 47.3815 18.9667 48.4032 21.3043L47.393 21.4424Z" fill="#22093A" stroke="#22093A" stroke-linecap="round" stroke-linejoin="round"/>
<path d="M69.1763 13.468C72.7165 14.386 77.0002 6.45562 64.1348 6.23679C51.8117 6.02719 49.8834 23.0072 59.2642 26.9776C64.6263 29.2471 73.6706 28.0896 71.1221 19.1543C69.8722 14.772 65.0751 14.8652 63.6928 17.394C62.3104 19.9228 65.4685 22.6383 65.4685 22.6383C61.3135 22.4097 58.9552 17.2306 61.7561 14.2908C63.4997 12.4608 65.4981 12.5142 69.1763 13.468Z" fill="#22093A" stroke="#22093A" stroke-linecap="round" stroke-linejoin="round"/>
<path d="M103.435 20.9575C103.876 17.8755 95.4787 13.1458 91.6451 15.6415C88.7645 17.5169 79.9805 28.4043 84.1073 32.1305C88.2341 35.8567 93.9742 37.7842 95.7371 34.1012C97.0253 31.4102 91.2451 27.9509 91.2451 27.9509C91.2451 27.9509 96.5902 31.316 98.357 28.768C100.124 26.22 94.1638 23.3381 94.1638 23.3381C94.1638 23.3381 102.627 26.61 103.435 20.9575Z" fill="#22093A" stroke="#22093A" stroke-linecap="round" stroke-linejoin="round"/>
<path d="M109.724 23.6982C105.588 20.1035 96.4621 31.2322 93.8111 36.8508C92.5481 39.5276 101.096 47.3498 106.839 44.8245C112.728 42.235 119.97 32.6029 109.724 23.6982Z" fill="#22093A" stroke="#22093A" stroke-linecap="round" stroke-linejoin="round"/>
<path d="M106.214 32.2666C105.226 31.4078 102.509 34.3667 102.412 35.4091C102.348 36.1026 103.904 37.4417 105.101 37.1721C106.299 36.9025 108.662 34.3942 106.214 32.2666Z" fill="#22093A" stroke="#22093A" stroke-linecap="round" stroke-linejoin="round"/>
<path d="M85.1883 16.1747C88.6101 17.157 92.978 9.5479 80.4645 9.01128C68.4783 8.49729 66.1747 24.9717 75.2031 29.0713C80.3638 31.4146 89.1938 30.5158 86.9387 21.7569C85.8327 17.4611 81.1623 17.4311 79.7536 19.8571C78.3448 22.2831 81.3496 25.0049 81.3496 25.0049C77.3122 24.6779 75.1477 19.5789 77.9472 16.7886C79.6897 15.0518 81.633 15.154 85.1883 16.1747Z" fill="#22093A" stroke="#22093A" stroke-linecap="round" stroke-linejoin="round"/>
<path d="M21.1273 18.9522C18.188 17.797 9.0215 24.0367 11.133 29.1584C12.5245 32.5337 20.4598 45.6518 25.0232 42.1584C29.7126 38.5685 23.1288 33.3042 23.1288 33.3042C23.1288 33.3042 27.2201 29.9622 25.6103 27.089C24.0006 24.2159 19.0828 28.9115 19.0828 28.9115C19.0828 28.9115 26.7718 21.1705 21.1273 18.9522Z" fill="#71C1F2" stroke="#22093A" stroke-linecap="round" stroke-linejoin="round"/>
<path d="M54.9731 21.187C54.1251 18.4352 49.5973 5.40029 42.7329 7.59612C39.16 8.739 37.907 13.5249 38.1061 18.5028C38.3221 23.9036 40.0648 31.5464 42.9571 30.8778C45.2512 30.3477 45.7343 26.8082 45.6368 23.3602C45.7621 23.3485 47.6141 23.1064 47.6141 23.1064C49.1276 25.9579 51.3626 29.3671 53.2832 28.2699C55.3467 27.0912 55.7571 23.7309 54.9731 21.187ZM45.3441 19.8926C45.2611 18.712 45.0879 17.5393 44.826 16.3851C44.826 16.3851 45.3327 17.4169 46.3544 19.7545L45.3441 19.8926Z" fill="#71C1F2" stroke="#22093A" stroke-linecap="round" stroke-linejoin="round"/>
<path d="M67.1256 11.9187C70.6658 12.8367 74.9495 4.90631 62.0841 4.68747C49.761 4.47788 47.8326 21.4579 57.2134 25.4283C62.5755 27.6978 71.6198 26.5403 69.0713 17.605C67.8214 13.2227 63.0243 13.3159 61.642 15.8447C60.2596 18.3735 63.4177 21.089 63.4177 21.089C59.2627 20.8604 56.9045 15.6813 59.7053 12.7415C61.4489 10.9115 63.4473 10.9649 67.1256 11.9187Z" fill="#71C1F2" stroke="#22093A" stroke-linecap="round" stroke-linejoin="round"/>
<path d="M101.386 19.4077C101.827 16.3257 93.4298 11.596 89.5962 14.0917C86.7157 15.9672 77.9317 26.8545 82.0585 30.5807C86.1852 34.3069 91.9253 36.2345 93.6883 32.5515C94.9764 29.8605 89.1963 26.4012 89.1963 26.4012C89.1963 26.4012 94.5414 29.7663 96.3081 27.2183C98.0748 24.6703 92.1149 21.7884 92.1149 21.7884C92.1149 21.7884 100.578 25.0601 101.386 19.4077Z" fill="#71C1F2" stroke="#22093A" stroke-linecap="round" stroke-linejoin="round"/>
<path d="M107.675 22.1484C103.539 18.5537 94.4133 29.6824 91.7623 35.301C90.4993 37.9778 99.0467 45.8 104.79 43.2747C110.679 40.6852 117.921 31.0531 107.675 22.1484Z" fill="#71C1F2" stroke="#22093A" stroke-linecap="round" stroke-linejoin="round"/>
<path d="M104.163 30.7173C103.175 29.8585 100.458 32.8174 100.361 33.8598C100.297 34.5533 101.853 35.8924 103.051 35.6228C104.248 35.3532 106.611 32.8448 104.163 30.7173Z" fill="#22093A" stroke="#22093A" stroke-linecap="round" stroke-linejoin="round"/>
<path d="M83.1395 14.6249C86.5613 15.6072 90.9292 7.9981 78.4156 7.46148C66.4295 6.94743 64.1259 23.4219 73.1543 27.5214C78.3149 29.8648 87.1449 28.9659 84.8898 20.207C83.7839 15.9113 79.1135 15.8813 77.7047 18.3072C76.296 20.7332 79.3007 23.455 79.3007 23.455C75.2633 23.128 73.0988 18.0291 75.8983 15.2388C77.6409 13.502 79.5842 13.6042 83.1395 14.6249Z" fill="#71C1F2" stroke="#22093A" stroke-linecap="round" stroke-linejoin="round"/>
<path d="M29.9009 12.1221C26.4539 12.0604 25.055 17.9631 26.6671 24.1154C28.2791 30.2678 30.4559 36.2749 34.1365 35.2901C37.817 34.3054 46.5207 30.4653 45.9525 26.4553C45.0894 20.3645 35.5877 27.535 35.5877 27.535C35.5877 27.535 35.0289 12.2138 29.9009 12.1221Z" fill="#71C1F2" stroke="#22093A" stroke-linecap="round" stroke-linejoin="round"/>
<path d="M18.9186 21.9351C16.5138 22.7102 14.6711 24.6596 14.0326 27.1044C13.9506 28.3904 14.2556 29.6716 14.9083 30.7827" stroke="white" stroke-linecap="round" stroke-linejoin="round"/>
<path d="M29.9707 25.2285C29.9707 25.2285 31.6796 30.6324 32.9612 32.0325" stroke="white" stroke-linecap="round" stroke-linejoin="round"/>
<path d="M41.2031 12.75C41.4679 11.6131 42.1792 10.6305 43.1766 10.0239" stroke="white" stroke-linecap="round" stroke-linejoin="round"/>
<path d="M88.1602 19.8214C89.1894 18.4144 90.396 17.1462 91.7502 16.0483" stroke="white" stroke-linecap="round" stroke-linejoin="round"/>
<path d="M59.4019 7.44971C56.975 8.36433 55.0759 10.3041 54.2129 12.7499" stroke="white" stroke-linecap="round" stroke-linejoin="round"/>
<path d="M80.698 10.0238C78.9257 9.62023 77.0825 9.64629 75.3223 10.0998" stroke="white" stroke-linecap="round" stroke-linejoin="round"/>
<path d="M100.67 40.6044C102.54 40.968 104.476 40.5091 105.985 39.3447" stroke="white" stroke-linecap="round" stroke-linejoin="round"/>
<path d="M56.8506 26.8478C56.8506 26.8478 65.7196 20.7028 74.7102 26.4462C81.7436 30.9394 80.0386 40.4446 90.548 47.123C98.9572 52.4669 105.985 45.5368 105.985 45.5368C105.985 45.5368 101.438 66.1289 98.6321 74.6197C95.2807 84.7605 77.4994 79.667 67.5905 66.1289C63.0413 59.9136 51.3438 51.9061 45.7934 56.1652C40.2429 60.4243 56.8506 26.8478 56.8506 26.8478Z" fill="#22093A" stroke="#22093A" stroke-linecap="round" stroke-linejoin="round"/>
<path d="M56.2483 20.3351C59.2704 21.0311 29.1909 99.5951 25.4802 99.0134C21.7694 98.4317 51.4584 19.2321 56.2483 20.3351Z" fill="#22093A" stroke="#22093A" stroke-linecap="round" stroke-linejoin="round"/>
<path d="M56.0264 26.4684C56.0264 26.4684 64.8954 20.3234 73.8859 26.0668C80.9194 30.56 79.2144 40.0653 89.7238 46.7436C98.133 52.0875 105.161 45.1574 105.161 45.1574C105.161 45.1574 100.614 65.7495 97.8079 74.2403C94.4565 84.3811 76.6751 79.2876 66.7663 65.7495C62.2171 59.5342 50.5196 51.5267 44.9692 55.7858C39.4187 60.0449 56.0264 26.4684 56.0264 26.4684Z" fill="#E9022C" stroke="#22093A" stroke-linecap="round" stroke-linejoin="round"/>
<path d="M79.3116 41.2919C77.5839 41.0119 75.3201 41.5592 73.2054 48.7064C71.3173 55.0875 73.8327 55.7776 74.4946 55.8848C75.1564 55.9921 78.986 56.9557 80.7879 49.9351C82.5898 42.9145 81.8716 41.7067 79.3116 41.2919Z" fill="white" stroke="#22093A" stroke-linecap="round" stroke-linejoin="round"/>
<path d="M72.4702 64.9663C74.1646 64.9663 75.5381 63.5928 75.5381 61.8984C75.5381 60.2041 74.1646 58.8306 72.4702 58.8306C70.7759 58.8306 69.4023 60.2041 69.4023 61.8984C69.4023 63.5928 70.7759 64.9663 72.4702 64.9663Z" fill="white" stroke="#22093A" stroke-linecap="round" stroke-linejoin="round"/>
<path d="M104.396 100.463C107.335 101.618 116.502 95.3784 114.39 90.2567C112.999 86.8813 105.063 73.7633 100.5 77.2567C95.8106 80.8466 102.394 86.1109 102.394 86.1109C102.394 86.1109 98.303 89.4529 99.9128 92.3261C101.523 95.1992 106.44 90.5036 106.44 90.5036C106.44 90.5036 98.7513 98.2446 104.396 100.463Z" fill="#22093A" stroke="#22093A" stroke-linecap="round" stroke-linejoin="round"/>
<path d="M95.6227 107.293C99.0697 107.355 100.469 101.452 98.8565 95.3C97.2445 89.1477 94.5551 82.2119 90.8745 83.1966C87.1939 84.1812 79.0029 88.9501 79.5711 92.9601C80.4342 99.0509 89.9358 91.8804 89.9358 91.8804C89.9358 91.8804 90.4947 107.202 95.6227 107.293Z" fill="#22093A" stroke="#22093A" stroke-linecap="round" stroke-linejoin="round"/>
<path d="M70.5508 98.228C71.3988 100.98 75.9266 114.015 82.791 111.819C86.3639 110.676 87.6168 105.89 87.4177 100.912C87.2017 95.5114 85.4591 87.8686 82.5667 88.5371C80.2727 89.0673 79.7895 92.6068 79.8871 96.0548C79.7617 96.0665 77.9098 96.3086 77.9098 96.3086C76.3964 93.4571 74.1613 90.0479 72.2407 91.1451C70.1772 92.3238 69.7668 95.6842 70.5508 98.228ZM80.1798 99.5224C80.2628 100.703 80.436 101.876 80.6979 103.03C80.6979 103.03 80.1912 101.998 79.1695 99.6606L80.1798 99.5224Z" fill="#22093A" stroke="#22093A" stroke-linecap="round" stroke-linejoin="round"/>
<path d="M58.3964 107.497C54.8562 106.579 50.5725 114.509 63.4379 114.728C75.761 114.938 77.6893 97.9577 68.3085 93.9873C62.9464 91.7178 53.9021 92.8753 56.4506 101.811C57.7005 106.193 62.4976 106.1 63.8799 103.571C65.2623 101.042 62.1042 98.3266 62.1042 98.3266C66.2592 98.5552 68.6174 103.734 65.8165 106.674C64.0731 108.504 62.0747 108.451 58.3964 107.497Z" fill="#22093A" stroke="#22093A" stroke-linecap="round" stroke-linejoin="round"/>
<path d="M24.1378 100.007C23.6972 103.089 32.0941 107.819 35.9278 105.323C38.8083 103.448 47.5924 92.5607 43.4655 88.8344C39.3387 85.1082 33.5987 83.1807 31.8357 86.8637C30.5476 89.5547 36.3277 93.014 36.3277 93.014C36.3277 93.014 30.9825 89.6488 29.2158 92.1969C27.4492 94.7449 33.409 97.6267 33.409 97.6267C33.409 97.6267 24.9457 94.355 24.1378 100.007Z" fill="#22093A" stroke="#22093A" stroke-linecap="round" stroke-linejoin="round"/>
<path d="M17.849 97.267C21.9852 100.862 31.1111 89.733 33.7621 84.1143C35.0251 81.4376 26.4776 73.6154 20.7346 76.1406C14.8455 78.7302 7.60305 88.3622 17.849 97.267Z" fill="#22093A" stroke="#22093A" stroke-linecap="round" stroke-linejoin="round"/>
<path d="M21.359 88.6982C22.3472 89.557 25.0644 86.5981 25.161 85.5557C25.2253 84.8622 23.6691 83.5231 22.4716 83.7927C21.2742 84.0623 18.9111 86.5707 21.359 88.6982Z" fill="#22093A" stroke="#22093A" stroke-linecap="round" stroke-linejoin="round"/>
<path d="M42.3841 104.79C38.9623 103.808 34.5944 111.417 47.108 111.954C59.0941 112.468 61.3977 95.9932 52.3693 91.8937C47.2086 89.5503 38.3787 90.4492 40.6338 99.208C41.7397 103.504 46.4101 103.534 47.8188 101.108C49.2276 98.6819 46.2228 95.96 46.2228 95.96C50.2602 96.2871 52.4247 101.386 49.6253 104.176C47.8827 105.913 45.9394 105.811 42.3841 104.79Z" fill="#22093A" stroke="#22093A" stroke-linecap="round" stroke-linejoin="round"/>
<path d="M103.023 99.6372C105.962 100.792 115.129 94.5527 113.017 89.431C111.626 86.0557 103.69 72.9376 99.1269 76.431C94.4375 80.0209 101.021 85.2852 101.021 85.2852C101.021 85.2852 96.93 88.6272 98.5398 91.5004C100.15 94.3735 105.067 89.6779 105.067 89.6779C105.067 89.6779 97.3783 97.4188 103.023 99.6372Z" fill="#71C1F2" stroke="#22093A" stroke-linecap="round" stroke-linejoin="round"/>
<path d="M94.25 106.468C97.697 106.53 99.0959 100.627 97.4838 94.4746C95.8718 88.3222 93.695 82.3152 90.0144 83.2999C86.3338 84.2846 77.6302 88.1247 78.1984 92.1348C79.0615 98.2255 88.5632 91.055 88.5632 91.055C88.5632 91.055 89.122 106.376 94.25 106.468Z" fill="#71C1F2" stroke="#22093A" stroke-linecap="round" stroke-linejoin="round"/>
<path d="M69.1777 97.4023C70.0257 100.154 74.5536 113.189 81.4179 110.993C84.9908 109.85 86.2438 105.064 86.0447 100.086C85.8287 94.6857 84.086 87.0429 81.1937 87.7115C78.8997 88.2416 78.4165 91.7811 78.5141 95.2291C78.3887 95.2408 76.5367 95.4829 76.5367 95.4829C75.0233 92.6314 72.7882 89.2222 70.8677 90.3194C68.8042 91.4981 68.3938 94.8585 69.1777 97.4023ZM78.8067 98.6966C78.8897 99.8773 79.0629 101.05 79.3248 102.204C79.3248 102.204 78.8181 101.172 77.7964 98.8348L78.8067 98.6966Z" fill="#71C1F2" stroke="#22093A" stroke-linecap="round" stroke-linejoin="round"/>
<path d="M57.0233 106.671C53.4831 105.753 49.1994 113.684 62.0648 113.902C74.3879 114.112 76.3162 97.132 66.9355 93.1616C61.5733 90.8921 52.529 92.0496 55.0775 100.985C56.3274 105.367 61.1246 105.274 62.5069 102.745C63.8892 100.216 60.7312 97.5009 60.7312 97.5009C64.8862 97.7295 67.2444 102.909 64.4435 105.848C62.7 107.678 60.7016 107.625 57.0233 106.671Z" fill="#71C1F2" stroke="#22093A" stroke-linecap="round" stroke-linejoin="round"/>
<path d="M22.7647 99.1817C22.3242 102.264 30.7211 106.993 34.5547 104.498C37.4352 102.622 46.2192 91.735 42.0924 88.0088C37.9656 84.2825 32.2256 82.355 30.4626 86.038C29.1745 88.729 34.9546 92.1883 34.9546 92.1883C34.9546 92.1883 29.6095 88.8232 27.8428 91.3712C26.076 93.9192 32.036 96.8011 32.036 96.8011C32.036 96.8011 23.5727 93.5293 22.7647 99.1817Z" fill="#71C1F2" stroke="#22093A" stroke-linecap="round" stroke-linejoin="round"/>
<path d="M16.474 96.4413C20.6102 100.036 29.7361 88.9073 32.3871 83.2886C33.6501 80.6119 25.1026 72.7897 19.3596 75.3149C13.4704 77.9045 6.22805 87.5365 16.474 96.4413Z" fill="#71C1F2" stroke="#22093A" stroke-linecap="round" stroke-linejoin="round"/>
<path d="M19.986 87.8725C20.9742 88.7314 23.6913 85.7724 23.788 84.73C23.8523 84.0365 22.296 82.6974 21.0986 82.967C19.9012 83.2366 17.538 85.745 19.986 87.8725Z" fill="#22093A" stroke="#22093A" stroke-linecap="round" stroke-linejoin="round"/>
<path d="M41.0111 103.965C37.5893 102.982 33.2213 110.591 45.7349 111.128C57.721 111.642 60.0247 95.1675 50.9963 91.068C45.8356 88.7246 37.0056 89.6235 39.2607 98.3824C40.3667 102.678 45.037 102.708 46.4458 100.282C47.8546 97.8562 44.8498 95.1344 44.8498 95.1344C48.8872 95.4614 51.0517 100.56 48.2523 103.351C46.5097 105.087 44.5663 104.985 41.0111 103.965Z" fill="#71C1F2" stroke="#22093A" stroke-linecap="round" stroke-linejoin="round"/>
<path d="M15.569 82.0444C14.4582 83.9242 13.262 87.4854 14.9709 90.276" stroke="white" stroke-linecap="round" stroke-linejoin="round"/>
<path d="M101.403 82.0441C100.263 80.677 99.6462 79.2111 100.671 78.6196" stroke="white" stroke-linecap="round" stroke-linejoin="round"/>
<path d="M41.6296 94.2217C40.9065 95.859 41.2817 97.7736 42.5695 99.0167" stroke="white" stroke-linecap="round" stroke-linejoin="round"/>
<path d="M66.0664 95.4556C67.9833 96.4705 69.324 98.3141 69.6988 100.45" stroke="white" stroke-linecap="round" stroke-linejoin="round"/>
<path d="M92.4375 99.5225C92.5158 99.8369 92.6115 100.147 92.7242 100.451" stroke="white" stroke-linecap="round" stroke-linejoin="round"/>
<path d="M91.1875 92.6392C91.3372 94.1507 91.5639 95.6536 91.8667 97.142" stroke="white" stroke-linecap="round" stroke-linejoin="round"/>
</svg>
