<svg width="120" height="120" viewBox="0 0 120 120" fill="none" xmlns="http://www.w3.org/2000/svg">
<path d="M48.9975 36.4891L62.4913 6.92578L75.0799 32.4967L90.8584 18.3751L93.4244 35.9961L117.021 41.8888L95.1931 67.8665L106.137 95.6437L78.797 84.0098L71.0356 113.9L56.0658 89.8172L46.7874 106.211L40.0583 92.8615L21.7944 112.211L26.6218 87.1287L3.31665 86.8979L16.4426 67.7944L2.98047 54.6097L15.7088 47.5264L7.52027 28.2865L27.6306 34.5292L34.9315 20.4914L48.9975 36.4891Z" fill="#22093A" stroke="#22093A" stroke-miterlimit="10" stroke-linecap="round" stroke-linejoin="round"/>
<path d="M48.7634 35.6629L62.2573 6.09961L74.8459 31.6705L90.6244 17.549L93.1903 35.1699L117.021 41.889L94.959 67.0404L105.203 94.0694L78.5629 83.1836L70.8016 113.074L55.8317 88.991L46.5533 105.384L39.8243 92.0353L22.4057 110.489L26.3877 86.3026L3.92885 86.0068L16.2086 66.9683L3.31641 54.3418L15.4747 46.7002L7.28621 27.4604L27.3965 33.703L34.6974 19.6652L48.7634 35.6629Z" fill="#9736FF" stroke="#22093A" stroke-miterlimit="10" stroke-linecap="round" stroke-linejoin="round"/>
<path d="M21.3879 43.3021C28.1096 42.2416 39.0415 47.8065 39.6532 61.0191C40.2649 74.2318 32.3245 81.1884 24.9646 82.2944C18.3239 83.2924 8.92457 79.0774 7.80872 65.0411C6.89454 53.5417 11.5151 44.8598 21.3879 43.3021Z" fill="#22093A" stroke="#22093A" stroke-miterlimit="10" stroke-linecap="round" stroke-linejoin="round"/>
<path d="M23.4417 53.3797C24.3687 52.7827 25.9935 55.1933 26.292 61.3128C26.5905 67.4324 25.5872 70.7835 24.5713 71.4116C23.6547 71.9783 22.2668 70.17 21.8843 63.6763C21.5709 58.3562 22.0801 54.2566 23.4417 53.3797Z" fill="#22093A" stroke="#22093A" stroke-miterlimit="10" stroke-linecap="round" stroke-linejoin="round"/>
<path d="M59.1753 40.749C54.7831 40.7489 53.6217 45.7941 51.7634 49.5126C50.2721 46.0323 49.3647 41.017 45.0645 41.0625C40.094 41.1152 36.604 47.9857 34.873 55.9031C32.9949 64.4929 31.9109 76.2644 37.3905 76.6048C43.708 76.9973 45.9531 59.6805 45.9531 59.6805C45.9531 59.6805 45.4334 71.9019 50.9701 71.9222C57.2919 71.9455 57.1987 59.9481 57.1987 59.9481C57.1987 59.9481 57.3251 76.8863 64.298 76.7859C67.485 76.74 69.2091 72.5381 69.2316 68.1545C69.2558 63.4127 68.7254 40.7492 59.1753 40.749Z" fill="#22093A" stroke="#22093A" stroke-miterlimit="10" stroke-linecap="round" stroke-linejoin="round"/>
<path d="M90.9383 55.1555C94.1851 56.5226 99.2587 42.078 83.3782 42.0776C62.2579 42.0772 59.3791 69.1133 72.0554 76.7863C80.5913 81.9531 96.493 80.7731 93.4366 65.1468C91.9376 57.483 83.733 56.9468 81.0062 61.0644C78.2793 65.182 83.2781 70.2763 83.2781 70.2763C76.2167 69.2838 72.891 60.0421 78.1492 55.485C81.8813 52.2505 84.9369 52.6286 90.9383 55.1555Z" fill="#22093A" stroke="#22093A" stroke-miterlimit="10" stroke-linecap="round" stroke-linejoin="round"/>
<path d="M106.892 41.2481C103.616 41.2366 99.5927 42.9111 97.7771 56.7403C96.1561 69.0874 101.007 69.6261 102.262 69.6305C103.517 69.6349 110.877 70.2945 112.152 56.7907C113.426 43.287 111.745 41.2651 106.892 41.2481Z" fill="#22093A" stroke="#22093A" stroke-miterlimit="10" stroke-linecap="round" stroke-linejoin="round"/>
<path d="M102.657 83.3054C105.828 83.3054 108.398 80.735 108.398 77.5643C108.398 74.3936 105.828 71.8232 102.657 71.8232C99.4864 71.8232 96.916 74.3936 96.916 77.5643C96.916 80.735 99.4864 83.3054 102.657 83.3054Z" fill="#22093A" stroke="#22093A" stroke-miterlimit="10" stroke-linecap="round" stroke-linejoin="round"/>
<path d="M19.257 42.5247C25.9787 41.4642 36.9107 47.0292 37.5224 60.2418C38.1341 73.4544 30.1936 80.411 22.8337 81.5171C16.1931 82.515 6.79371 78.3 5.67786 64.2638C4.76369 52.7643 9.38421 44.0824 19.257 42.5247Z" fill="#FCC707" stroke="#22093A" stroke-miterlimit="10" stroke-linecap="round" stroke-linejoin="round"/>
<path d="M21.3108 52.6024C22.2378 52.0054 23.8627 54.416 24.1612 60.5355C24.4596 66.655 23.4563 70.0062 22.4404 70.6343C21.5238 71.201 20.1359 69.3926 19.7534 62.8989C19.44 57.5788 19.9493 53.4793 21.3108 52.6024Z" fill="#22093A" stroke="#22093A" stroke-miterlimit="10" stroke-linecap="round" stroke-linejoin="round"/>
<path d="M57.0445 39.9717C52.6523 39.9716 51.4908 45.0168 49.6325 48.7352C48.1412 45.2549 47.2338 40.2396 42.9336 40.2852C37.9631 40.3378 34.4732 47.2084 32.7421 55.1257C30.864 63.7155 29.78 75.4871 35.2597 75.8275C41.5771 76.2199 43.8222 58.9032 43.8222 58.9032C43.8222 58.9032 43.3025 71.1245 48.8393 71.1449C55.161 71.1681 55.0679 59.1708 55.0679 59.1708C55.0679 59.1708 55.1942 76.1089 62.1672 76.0085C65.3541 75.9626 67.0783 71.7607 67.1007 67.3772C67.125 62.6354 66.5945 39.9719 57.0445 39.9717Z" fill="#FCC707" stroke="#22093A" stroke-miterlimit="10" stroke-linecap="round" stroke-linejoin="round"/>
<path d="M88.8094 54.3782C92.0562 55.7453 97.1298 41.3006 81.2493 41.3003C60.129 41.2998 57.2502 68.3359 69.9265 76.009C78.4624 81.1758 94.3641 79.9958 91.3077 64.3695C89.8087 56.7057 81.6041 56.1695 78.8773 60.2871C76.1504 64.4046 81.1492 69.499 81.1492 69.499C74.0878 68.5064 70.7621 59.2648 76.0203 54.7076C79.7524 51.4731 82.808 51.8513 88.8094 54.3782Z" fill="#FCC707" stroke="#22093A" stroke-miterlimit="10" stroke-linecap="round" stroke-linejoin="round"/>
<path d="M104.761 40.4708C101.486 40.4593 97.4619 42.1338 95.6463 55.963C94.0252 68.3101 98.8764 68.8488 100.131 68.8532C101.386 68.8576 108.746 69.5172 110.021 56.0134C111.295 42.5097 109.614 40.4878 104.761 40.4708Z" fill="#FCC707" stroke="#22093A" stroke-miterlimit="10" stroke-linecap="round" stroke-linejoin="round"/>
<path d="M100.526 82.528C103.697 82.528 106.267 79.9577 106.267 76.787C106.267 73.6163 103.697 71.0459 100.526 71.0459C97.3555 71.0459 94.7852 73.6163 94.7852 76.787C94.7852 79.9577 97.3555 82.528 100.526 82.528Z" fill="#FCC707" stroke="#22093A" stroke-miterlimit="10" stroke-linecap="round" stroke-linejoin="round"/>
<path d="M12.1896 93.7183C10.6647 95.6306 12.0319 98.21 13.8903 98.5164C16.2285 98.9019 19.1646 96.6993 17.8531 94.2454C16.5416 91.7915 14.0142 91.4301 12.1896 93.7183Z" fill="#EC6509" stroke="#22093A" stroke-miterlimit="10" stroke-linecap="round" stroke-linejoin="round"/>
<path d="M102.928 24.8342C102.751 27.4029 105.478 28.8199 107.271 27.9739C109.527 26.9095 110.754 23.2453 108.15 21.9038C105.546 20.5622 103.14 21.7606 102.928 24.8342Z" fill="#FD32B0" stroke="#22093A" stroke-miterlimit="10" stroke-linecap="round" stroke-linejoin="round"/>
<path d="M32.0201 36.3866C31.8819 38.387 34.0056 39.4904 35.4021 38.8316C37.1591 38.0028 38.1142 35.1493 36.0865 34.1046C34.0588 33.0599 32.1854 33.9931 32.0201 36.3866Z" fill="white" stroke="#22093A" stroke-miterlimit="10" stroke-linecap="round" stroke-linejoin="round"/>
<path d="M86.2394 103.288C86.0058 106.669 89.5955 108.535 91.9559 107.421C94.9258 106.02 96.5402 101.197 93.1128 99.4309C89.6854 97.665 86.5188 99.2424 86.2394 103.288Z" fill="#9736FF" stroke="#22093A" stroke-miterlimit="10" stroke-linecap="round" stroke-linejoin="round"/>
<path d="M63.5205 93.2998L59.3809 97.438L63.519 101.578L67.6587 97.4395L63.5205 93.2998Z" fill="#FCC707"/>
<path d="M63.5208 108.066C63.1296 108.066 62.803 107.764 62.7737 107.375C62.1262 99.0908 61.8684 98.833 53.584 98.1856C53.1936 98.1563 52.8926 97.8296 52.8926 97.4385C52.8926 97.0474 53.1936 96.7207 53.5847 96.6914C61.8684 96.0454 62.1262 95.7876 62.7737 87.5024C62.803 87.1128 63.1296 86.811 63.5208 86.811C63.9119 86.811 64.2385 87.1128 64.2678 87.5024C64.9138 95.7876 65.1716 96.0454 73.4568 96.6914C73.8464 96.7207 74.1482 97.0474 74.1482 97.4385C74.1482 97.8296 73.8464 98.1563 73.4568 98.1856C65.1716 98.833 64.9138 99.0908 64.2678 107.375C64.2385 107.764 63.9119 108.066 63.5208 108.066ZM59.3811 97.4385C61.7893 98.061 62.8982 99.1699 63.5208 101.578C64.1418 99.1699 65.2507 98.061 67.6589 97.4385C65.2507 96.8174 64.1418 95.7085 63.5208 93.3003C62.8982 95.7085 61.7893 96.8174 59.3811 97.4385Z" fill="#22093A"/>
<path d="M70.6548 14.4531L68.0868 18.2917L64.7676 20.3418L68.0868 22.4813L70.6548 26.2297L73.1279 22.6521L77.2921 20.3414L72.3807 17.8673L70.6548 14.4531Z" fill="#EC6509"/>
<path d="M70.655 33.2556C70.2639 33.2556 69.9373 32.9546 69.908 32.5642C69.1082 22.3162 68.6804 21.887 58.4324 21.0894C58.0413 21.0586 57.7402 20.7334 57.7402 20.3416C57.7402 19.9497 58.0413 19.6245 58.4316 19.5938C68.6804 18.7954 69.1096 18.3662 69.908 8.11816C69.9373 7.72778 70.2639 7.42676 70.655 7.42676C71.0461 7.42676 71.3728 7.72778 71.4021 8.11816C72.2004 18.3662 72.6296 18.7954 82.8777 19.5938C83.2673 19.6245 83.5691 19.9497 83.5691 20.3416C83.5691 20.7334 83.2673 21.0586 82.8777 21.0894C72.6296 21.887 72.2019 22.3162 71.4021 32.5642C71.3728 32.9546 71.0461 33.2556 70.655 33.2556ZM64.7678 20.3416C68.4197 21.1143 69.8816 22.5762 70.655 26.2295C71.4285 22.5762 72.8889 21.1143 76.5422 20.3416C72.8889 19.5681 71.4285 18.1062 70.655 14.4529C69.8816 18.1062 68.4197 19.5681 64.7678 20.3416Z" fill="#22093A"/>
<path d="M9.30965 55.4404C8.66522 57.4684 8.39559 59.8975 8.5615 62.8048C9.21657 74.2831 16.4223 77.5643 16.4223 77.5643" stroke="white" stroke-miterlimit="10" stroke-linecap="round" stroke-linejoin="round"/>
<path d="M16.4228 46.7622C15.1127 47.0693 12.763 48.6927 11.4551 51.1568" stroke="white" stroke-miterlimit="10" stroke-linecap="round" stroke-linejoin="round"/>
<path d="M43.6922 43.4383C41.6843 42.3984 39.121 45.489 37.7539 48.8212" stroke="white" stroke-miterlimit="10" stroke-linecap="round" stroke-linejoin="round"/>
<path d="M36.5155 52.5142C34.6202 58.3906 34.1658 63.9444 34.123 66.2086" stroke="white" stroke-miterlimit="10" stroke-linecap="round" stroke-linejoin="round"/>
<path d="M57.6169 43.0289C56.0011 42.3136 54.1494 44.8466 53.2422 47.511" stroke="white" stroke-miterlimit="10" stroke-linecap="round" stroke-linejoin="round"/>
<path d="M73.1287 46.2153C67.9167 48.9599 64.499 54.8735 65.1825 63.0049" stroke="white" stroke-miterlimit="10" stroke-linecap="round" stroke-linejoin="round"/>
<path d="M85.1328 60.8079C82.3131 59.7153 80.2198 62.4008 81.3306 64.97" stroke="white" stroke-miterlimit="10" stroke-linecap="round" stroke-linejoin="round"/>
<path d="M99.8706 73.6851C98.6475 73.6851 96.4529 75.5648 97.8627 78.2135" stroke="white" stroke-miterlimit="10" stroke-linecap="round" stroke-linejoin="round"/>
<path d="M104.529 43.1758C101.266 43.6093 99.8722 47.9669 98.9458 52.9348C98.0188 57.906 97.4506 61.6235 98.6401 64.8419" stroke="white" stroke-miterlimit="10" stroke-linecap="round" stroke-linejoin="round"/>
<path d="M66.0352 66.5024C66.5051 68.0885 67.1014 69.1138 68.0858 70.1392" stroke="white" stroke-miterlimit="10" stroke-linecap="round" stroke-linejoin="round"/>
<path d="M28.7948 91.7061L27.4961 99.5687L32.0126 95.374" stroke="#22093A" stroke-miterlimit="10" stroke-linecap="round" stroke-linejoin="round"/>
<path d="M29.6043 86.8096L29.2793 88.7773" stroke="#22093A" stroke-miterlimit="10" stroke-linecap="round" stroke-linejoin="round"/>
<path d="M43.252 92.188L45.0178 95.9858" stroke="#22093A" stroke-miterlimit="10" stroke-linecap="round" stroke-linejoin="round"/>
<path d="M73.9324 87.936L72.7559 92.5359" stroke="#22093A" stroke-miterlimit="10" stroke-linecap="round" stroke-linejoin="round"/>
<path d="M75.0925 83.397L74.709 84.8964" stroke="#22093A" stroke-miterlimit="10" stroke-linecap="round" stroke-linejoin="round"/>
<path d="M86.5508 25.1343L87.454 24.3276" stroke="#D9BBFF" stroke-miterlimit="10" stroke-linecap="round" stroke-linejoin="round"/>
<path d="M81.0273 30.0672L83.723 27.6597" stroke="#D9BBFF" stroke-miterlimit="10" stroke-linecap="round" stroke-linejoin="round"/>
<path d="M106.172 23.5298C105.773 23.5298 104.991 24.3842 105.439 25.1247" stroke="white" stroke-miterlimit="10" stroke-linecap="round" stroke-linejoin="round"/>
<path d="M90.1415 101.333C89.4082 101.333 88.0925 102.46 88.9377 104.048" stroke="#D9BBFF" stroke-miterlimit="10" stroke-linecap="round" stroke-linejoin="round"/>
<path d="M18.8711 34.2388L22.8867 35.4919" stroke="#D9BBFF" stroke-miterlimit="10" stroke-linecap="round" stroke-linejoin="round"/>
<path d="M14.8555 32.9858L16.5403 33.5116" stroke="#D9BBFF" stroke-miterlimit="10" stroke-linecap="round" stroke-linejoin="round"/>
<path d="M53.5117 33.2326L57.3473 24.3115" stroke="#D9BBFF" stroke-miterlimit="10" stroke-linecap="round" stroke-linejoin="round"/>
<path d="M52.3984 35.8231L52.5084 35.5674" stroke="#D9BBFF" stroke-miterlimit="10" stroke-linecap="round" stroke-linejoin="round"/>
<path d="M61.7637 13.0204L61.8736 12.7646" stroke="#D9BBFF" stroke-miterlimit="10" stroke-linecap="round" stroke-linejoin="round"/>
<path d="M13.8691 95.6376L13.9791 95.3818" stroke="white" stroke-miterlimit="10" stroke-linecap="round" stroke-linejoin="round"/>
</svg>
