<svg width="120" height="120" viewBox="0 0 120 120" fill="none" xmlns="http://www.w3.org/2000/svg">
<path d="M67.5631 58.6838C65.9837 58.5813 65.1993 59.9822 63.2267 60.3837L63.2252 60.3789C57.5302 34.0785 47.3691 23.6179 39.7874 24.4114C32.2056 25.2049 37.5507 36.7283 39.7576 42.6004C41.3827 46.9241 43.9137 58.0309 43.9137 58.0309C43.9137 58.0309 38.2294 49.6831 30.8483 53.1931C23.4671 56.7029 25.1205 64.5912 25.1205 64.5912C25.1205 64.5912 14.5781 62.3856 16.4895 79.5083C17.8758 91.9263 26.0931 111.456 52.8899 108.187C67.5044 106.403 76.3552 97.9058 78.6989 83.5017C80.908 69.925 77.7865 59.3477 67.5631 58.6838Z" fill="#22093A" stroke="#22093A" stroke-linecap="round" stroke-linejoin="round"/>
<path d="M66.5906 74.4638C66.5906 74.4638 48.6727 80.3397 48.1191 71.3623C47.5654 62.3848 60.1927 58.1911 66.9773 58.6318C77.2006 59.2957 79.2068 68.6315 76.9977 82.2083C74.6541 96.6123 65.8032 105.11 51.1887 106.893C24.392 110.163 16.1747 90.6329 14.7884 78.2148C12.8769 61.0921 23.4194 63.2978 23.4194 63.2978C23.4194 63.2978 21.7659 55.4095 29.1471 51.8996C36.5283 48.3897 42.2126 56.7374 42.2126 56.7374C42.2126 56.7374 39.6815 45.6307 38.0565 41.3069C35.8495 35.4348 30.5046 23.9114 38.0863 23.1179C45.6679 22.3244 55.8291 32.7851 61.524 59.0854" fill="#FCC707"/>
<path d="M66.5906 74.4638C66.5906 74.4638 48.6727 80.3397 48.1191 71.3623C47.5654 62.3848 60.1927 58.1911 66.9773 58.6318C77.2006 59.2957 79.2068 68.6315 76.9977 82.2083C74.6541 96.6123 65.8032 105.11 51.1887 106.893C24.392 110.163 16.1747 90.6329 14.7884 78.2148C12.8769 61.0921 23.4194 63.2978 23.4194 63.2978C23.4194 63.2978 21.7659 55.4095 29.1471 51.8996C36.5283 48.3897 42.2126 56.7374 42.2126 56.7374C42.2126 56.7374 39.6815 45.6307 38.0565 41.3069C35.8495 35.4348 30.5046 23.9114 38.0863 23.1179C45.6679 22.3244 55.8291 32.7851 61.524 59.0854" stroke="#22093A" stroke-linecap="round" stroke-linejoin="round"/>
<path d="M23.4199 63.2979C27.0789 64.0771 34.3626 66.4724 35.0917 72.4132C36.1192 80.7843 24.7032 79.0333 24.7032 79.0333" stroke="#22093A" stroke-linecap="round" stroke-linejoin="round"/>
<path d="M42.2139 56.7373C44.4662 60.5724 49.1244 68.3752 43.1604 71.1486C37.855 73.6158 34.9434 71.1978 34.9434 71.1978" stroke="#22093A" stroke-linecap="round" stroke-linejoin="round"/>
<path d="M72.9604 23.8203C76.2779 24.0611 76.4468 34.2319 76.4468 34.2319C76.4468 34.2319 85.3724 31.1811 86.422 35.6817C87.4716 40.1823 76.6087 40.8088 76.6087 40.8088C76.6087 40.8088 77.8698 51.1932 73.8507 50.8927C69.8315 50.5923 70.2304 40.9993 70.2304 40.9993C70.2304 40.9993 60.8726 42.3351 60.2501 39.6277C59.1169 34.6988 69.3003 34.7027 69.3003 34.7027C69.3003 34.7027 67.1123 23.3957 72.9604 23.8203Z" fill="#22093A" stroke="#22093A" stroke-linecap="round" stroke-linejoin="round"/>
<path d="M97.7515 15.9789C103.416 17.0045 104.412 52.7994 98.6476 53.1356C90.4113 53.616 93.3313 28.7768 93.3313 28.7768C93.3313 28.7768 88.8337 31.2859 87.4382 28.1041C86.0427 24.9223 92.5335 15.0341 97.7515 15.9789Z" fill="#22093A" stroke="#22093A" stroke-linecap="round" stroke-linejoin="round"/>
<path d="M71.7729 23.0121C75.0904 23.253 75.2593 33.4238 75.2593 33.4238C75.2593 33.4238 84.1849 30.373 85.2345 34.8736C86.2841 39.3742 75.4212 40.0007 75.4212 40.0007C75.4212 40.0007 76.6823 50.3851 72.6632 50.0846C68.644 49.7841 69.0429 40.1913 69.0429 40.1913C69.0429 40.1913 59.6851 41.527 59.0626 38.8196C57.9294 33.8908 68.1128 33.8947 68.1128 33.8947C68.1128 33.8947 65.9248 22.5876 71.7729 23.0121Z" fill="#35CCAD" stroke="#22093A" stroke-linecap="round" stroke-linejoin="round"/>
<path d="M96.564 15.1703C102.229 16.1959 103.224 51.9908 97.4601 52.327C89.2238 52.8074 92.1438 27.9682 92.1438 27.9682C92.1438 27.9682 87.6462 30.4773 86.2507 27.2955C84.8552 24.1137 91.3461 14.2255 96.564 15.1703Z" fill="#35CCAD" stroke="#22093A" stroke-linecap="round" stroke-linejoin="round"/>
<path d="M88.7656 24.9683C89.7547 22.6281 91.276 20.5509 93.2086 18.9019" stroke="white" stroke-linecap="round" stroke-linejoin="round"/>
<path d="M94.5913 39.3447C94.3948 41.615 95.2123 47.3744 96.7708 48.1953" stroke="white" stroke-linecap="round" stroke-linejoin="round"/>
<path d="M71.1168 25.9575C70.5498 26.3487 69.9154 27.9656 70.6133 32.1412" stroke="white" stroke-linecap="round" stroke-linejoin="round"/>
<path d="M38.5879 57.2988C39.7457 58.498 40.6782 59.8958 41.3409 61.4253C43.9042 67.1499 41.6865 68.9001 41.6865 68.9001" stroke="white" stroke-linecap="round" stroke-linejoin="round"/>
<path d="M34.5957 54.8018C35.3707 55.0149 36.1051 55.3547 36.7692 55.8075" stroke="white" stroke-linecap="round" stroke-linejoin="round"/>
<path d="M28.8711 69.1426C31.0926 69.9116 32.8869 73.5002 31.2635 75.0382" stroke="white" stroke-linecap="round" stroke-linejoin="round"/>
<path d="M37.541 28.6304C37.6075 30.7952 38.7765 34.495 41.2592 39.9744" stroke="white" stroke-linecap="round" stroke-linejoin="round"/>
<path d="M17.677 72.6455C17.1189 77.0894 17.8583 81.5998 19.8061 85.6329" stroke="white" stroke-linecap="round" stroke-linejoin="round"/>
<path d="M20.582 88.8525C20.942 89.8446 21.3999 90.7983 21.9491 91.6995" stroke="white" stroke-linecap="round" stroke-linejoin="round"/>
</svg>
