<svg width="120" height="120" viewBox="0 0 120 120" fill="none" xmlns="http://www.w3.org/2000/svg">
<path d="M83.7174 68.3087C95.9073 59.6505 99.7807 71.2707 97.9579 75.4859C96.6342 78.547 90.0971 81.6378 84.0592 82.891C78.0212 84.1441 63.7807 88.5872 64.0086 61.0175C64.2364 33.4479 73.1225 30.269 77.4516 30.372C82.6458 30.4955 88.1192 36.5215 86.6794 51.2201C85.5141 63.1165 83.7174 68.3087 83.7174 68.3087Z" fill="#22093A" stroke="#22093A" stroke-linecap="round" stroke-linejoin="round"/>
<path d="M106.389 27.0684C102.132 27.0684 96.9095 29.2632 94.6127 47.246C92.5621 63.3017 98.8699 63.9797 100.501 63.9797C102.132 63.9797 111.701 64.8034 113.296 47.246C114.891 29.6886 112.697 27.0684 106.389 27.0684Z" fill="#22093A" stroke="#22093A" stroke-linecap="round" stroke-linejoin="round"/>
<path d="M101.05 81.7517C105.171 81.7517 108.512 78.4108 108.512 74.2897C108.512 70.1685 105.171 66.8276 101.05 66.8276C96.9287 66.8276 93.5879 70.1685 93.5879 74.2897C93.5879 78.4108 96.9287 81.7517 101.05 81.7517Z" fill="#22093A" stroke="#22093A" stroke-linecap="round" stroke-linejoin="round"/>
<path d="M46.8784 34.1315C55.7206 32.5043 70.3468 39.4859 71.5999 56.9163C72.8531 74.3467 62.5999 83.8024 52.9164 85.5112C44.1792 87.0531 31.6227 81.8028 29.6759 63.3016C28.081 48.1441 33.8911 36.5215 46.8784 34.1315Z" fill="#22093A" stroke="#22093A" stroke-linecap="round" stroke-linejoin="round"/>
<path d="M49.9305 47.3721C51.1347 46.5524 53.362 49.6815 53.9625 57.754C54.5629 65.8265 53.3507 70.2865 52.0301 71.1503C50.8386 71.9296 48.9445 69.588 48.2204 61.0241C47.6272 54.008 48.1617 48.5762 49.9305 47.3721Z" fill="#22093A" stroke="#22093A" stroke-linecap="round" stroke-linejoin="round"/>
<path d="M31.4987 74.4605C43.6885 65.8023 47.562 77.4226 45.7392 81.6377C44.4154 84.6989 37.8784 87.7896 31.8404 89.0428C25.8025 90.296 11.562 94.739 11.7898 67.1694C12.0177 39.5998 20.9038 36.4209 25.2328 36.5238C30.4271 36.6473 37.1948 41.8783 34.4607 57.3719C32.3834 69.1434 31.4987 74.4605 31.4987 74.4605Z" fill="#22093A" stroke="#22093A" stroke-linecap="round" stroke-linejoin="round"/>
<path d="M79.0475 65.8673C91.2374 57.209 95.1108 68.8293 93.288 73.0445C91.9643 76.1056 85.4272 79.1964 79.3893 80.4496C73.3513 81.7027 59.1108 86.1458 59.3386 58.5761C59.5665 31.0065 68.4526 27.8276 72.7816 27.9306C77.9759 28.0541 83.4492 34.0801 82.0095 48.7787C80.8442 60.6751 79.0475 65.8673 79.0475 65.8673Z" fill="#9736FF" stroke="#22093A" stroke-linecap="round" stroke-linejoin="round"/>
<path d="M101.719 24.6265C97.4618 24.6265 92.2396 26.8213 89.9428 44.8041C87.8922 60.8598 94.2 61.5379 95.8309 61.5379C97.4618 61.5379 107.031 62.3615 108.626 44.8041C110.221 27.2467 108.027 24.6265 101.719 24.6265Z" fill="#9736FF" stroke="#22093A" stroke-linecap="round" stroke-linejoin="round"/>
<path d="M96.38 79.3103C100.501 79.3103 103.842 75.9694 103.842 71.8483C103.842 67.7271 100.501 64.3862 96.38 64.3862C92.2588 64.3862 88.918 67.7271 88.918 71.8483C88.918 75.9694 92.2588 79.3103 96.38 79.3103Z" fill="#9736FF" stroke="#22093A" stroke-linecap="round" stroke-linejoin="round"/>
<path d="M67.4382 108.761C75.5675 108.761 82.1577 102.171 82.1577 94.0412C82.1577 85.9119 75.5675 79.3218 67.4382 79.3218C59.3089 79.3218 52.7188 85.9119 52.7188 94.0412C52.7188 102.171 59.3089 108.761 67.4382 108.761Z" fill="#22093A" stroke="#22093A" stroke-linecap="round" stroke-linejoin="round"/>
<path d="M42.2085 31.6901C51.0507 30.0629 65.6769 37.0445 66.93 54.4749C68.1832 71.9053 57.93 81.361 48.2465 83.0698C39.5093 84.6117 26.9528 79.3614 25.006 60.8601C23.411 45.7027 29.2212 34.0802 42.2085 31.6901Z" fill="#9736FF" stroke="#22093A" stroke-linecap="round" stroke-linejoin="round"/>
<path d="M45.2605 44.9307C46.4648 44.111 48.6921 47.2401 49.2925 55.3126C49.893 63.3851 48.6807 67.845 47.3602 68.7088C46.1686 69.4882 44.2746 67.1466 43.5505 58.5827C42.9573 51.5666 43.4918 46.1348 45.2605 44.9307Z" fill="#22093A" stroke="#22093A" stroke-linecap="round" stroke-linejoin="round"/>
<path d="M67.1672 108.232C75.1457 108.232 81.6136 101.764 81.6136 93.7853C81.6136 85.8068 75.1457 79.3389 67.1672 79.3389C59.1886 79.3389 52.7207 85.8068 52.7207 93.7853C52.7207 101.764 59.1886 108.232 67.1672 108.232Z" fill="#FCC707" stroke="#22093A" stroke-linecap="round" stroke-linejoin="round"/>
<path d="M26.8288 72.0191C39.0186 63.3609 42.892 74.9812 41.0693 79.1963C39.7455 82.2575 33.2085 85.3482 27.1705 86.6014C21.1325 87.8546 6.89204 92.2976 7.11989 64.728C7.34774 37.1584 16.2338 33.9795 20.5629 34.0824C25.7572 34.2059 32.5249 39.4369 29.7907 54.9305C27.7134 66.702 26.8288 72.0191 26.8288 72.0191Z" fill="#9736FF" stroke="#22093A" stroke-linecap="round" stroke-linejoin="round"/>
<path d="M36.9643 35.2089C43.6669 35.2089 49.1005 29.7753 49.1005 23.0727C49.1005 16.3701 43.6669 10.9365 36.9643 10.9365C30.2617 10.9365 24.8281 16.3701 24.8281 23.0727C24.8281 29.7753 30.2617 35.2089 36.9643 35.2089Z" fill="#22093A" stroke="#22093A" stroke-linecap="round" stroke-linejoin="round"/>
<path d="M36.4761 34.7363C43.0482 34.7363 48.376 29.4085 48.376 22.8364C48.376 16.2643 43.0482 10.9365 36.4761 10.9365C29.9039 10.9365 24.5762 16.2643 24.5762 22.8364C24.5762 29.4085 29.9039 34.7363 36.4761 34.7363Z" fill="#FCC707" stroke="#22093A" stroke-linecap="round" stroke-linejoin="round"/>
<path d="M43.3511 23.3091C43.3511 23.3091 42.5468 29.7546 38.1998 30.5805C32.5036 31.6628 31.0527 24.9057 31.0527 24.9057L43.3511 23.3091Z" fill="white" stroke="#22093A" stroke-linecap="round" stroke-linejoin="round"/>
<path d="M29.2559 18.1064L33.8894 18.6179L30.2819 21.4094" stroke="#22093A" stroke-linecap="round" stroke-linejoin="round"/>
<path d="M41.2759 16.0547L37.8574 18.1067L42.2434 19.4732" stroke="#22093A" stroke-linecap="round" stroke-linejoin="round"/>
<path d="M75.1474 97.8473C75.1474 97.8473 70.0301 103.636 65.1775 102.113C58.8189 100.117 60.4703 92.2764 60.4703 92.2764L75.1474 97.8473Z" fill="white" stroke="#22093A" stroke-linecap="round" stroke-linejoin="round"/>
<path d="M62.8888 84.6196L68.0668 88.1791L62.1328 88.5241" stroke="#22093A" stroke-linecap="round" stroke-linejoin="round"/>
<path d="M76.18 89.0672L70.543 88.9292L75.3055 93.0557" stroke="#22093A" stroke-linecap="round" stroke-linejoin="round"/>
<path d="M11.7874 49.7378C10.886 53.3772 10.419 57.1106 10.3963 60.8598C10.2254 75.4936 12.3615 80.5347 15.352 82.5854C17.1899 83.7204 19.36 84.1945 21.5039 83.9295" stroke="#D9BBFF" stroke-linecap="round" stroke-linejoin="round"/>
<path d="M18.0857 37.8135C17.3515 38.0582 15.6047 39.9865 13.9609 43.5273" stroke="#D9BBFF" stroke-linecap="round" stroke-linejoin="round"/>
<path d="M71.7036 31.4609C68.8381 31.9179 65.9331 35.7907 65.0996 40.1204" stroke="#D9BBFF" stroke-linecap="round" stroke-linejoin="round"/>
<path d="M101.82 27.6455C96.893 27.928 94.3866 34.1028 93.2759 43.0852C92.1651 52.0677 92.9341 57.2942 94.8138 58.3196" stroke="#D9BBFF" stroke-linecap="round" stroke-linejoin="round"/>
<path d="M95.5544 67.4053C93.8004 67.5814 92.3612 68.8709 91.9944 70.5951C91.5102 72.4464 92.3077 75.4369 94.4153 75.8641" stroke="#D9BBFF" stroke-linecap="round" stroke-linejoin="round"/>
<path d="M46.8789 34.7363C52.8401 35.4924 57.9718 39.3112 60.4079 44.8042" stroke="#D9BBFF" stroke-linecap="round" stroke-linejoin="round"/>
<path d="M54.9688 76.2909C59.2495 73.222 62.0733 68.5218 62.7725 63.3013" stroke="#D9BBFF" stroke-linecap="round" stroke-linejoin="round"/>
</svg>
