<svg width="120" height="125" viewBox="0 0 120 125" fill="none" xmlns="http://www.w3.org/2000/svg">
<g clip-path="url(#clip0_5_11004)">
<path opacity="0.5" d="M119.999 27.139C120.033 25.7074 119.484 24.3236 118.476 23.307C117.468 22.2897 116.056 21.6969 114.658 21.7483L111.724 21.7917C111.934 21.2231 112.049 20.6091 112.049 19.97C112.049 17.2207 109.933 14.9341 107.192 14.7211C105.952 14.6241 103.227 14.4118 102.119 14.0967C101.805 12.9898 101.592 10.2639 101.495 9.02405C101.282 6.28278 98.9946 4.16807 96.246 4.16807C93.4959 4.16807 91.2101 6.28352 90.997 9.02478C90.9001 10.2647 90.6885 12.989 90.3727 14.0967C89.2665 14.4118 86.5414 14.6241 85.3015 14.7211C82.5602 14.9341 80.4448 17.2207 80.4448 19.97C80.4448 20.7831 80.6299 21.5551 80.9604 22.2456L66.8633 22.4535C66.8144 22.4542 66.7687 22.471 66.72 22.473C67.1782 19.9585 66.9411 16.7565 65.3223 12.6732C63.3655 7.73275 60.182 -0.316972 53.154 0.872234C50.6948 0.643796 48.7322 1.64863 47.98 2.02838C46.2304 2.91202 44.3558 4.44205 43.3569 7.08342C39.1833 7.22372 34.7452 10.0994 31.882 12.906C29.6079 15.1361 28.0449 17.5835 27.2677 20.0493C23.5716 21.1218 19.9239 24.1612 17.5396 27.3139C15.3243 30.2461 14.1813 33.2951 14.1564 36.1657C10.7041 37.114 7.62051 38.9966 5.59321 41.5285C-0.870656 49.6024 0.768816 60.2619 9.76975 68.6833C11.6309 70.425 13.4598 71.7081 15.2158 72.6529C12.9817 74.1549 11.5864 76.6745 11.3769 79.6917C11.1698 82.7202 12.5419 85.5504 15.0481 87.2625C16.5157 88.2652 18.2183 88.7779 19.9033 88.7779C21.0771 88.7779 22.2435 88.5289 23.3145 88.0235C26.4906 86.5251 28.6663 83.1624 28.728 79.655C28.7596 77.8849 33.0382 82.7129 32.9251 84.3479L22.671 90.7824C20.7392 91.9944 19.8078 94.3126 20.3631 96.5242C20.4584 96.9039 20.6054 97.2583 20.7758 97.5978C19.1638 96.6632 17.2059 96.3691 15.1774 96.7953C12.6065 97.3366 10.5748 99.148 9.74184 101.64C8.9177 104.11 9.4348 106.823 11.0919 108.72C12.5026 110.336 14.5867 111.288 16.7152 111.407C16.6335 112.668 16.9888 113.952 17.8158 115.003C19.3524 116.957 22.0511 117.571 24.2826 116.47L31.6103 112.856C31.8732 113.467 32.2537 114.034 32.7473 114.52C34.0724 115.831 35.969 116.324 37.7333 115.882L37.3264 117.664C36.7887 120.018 37.9214 122.436 40.075 123.53C40.833 123.915 41.6484 124.101 42.4578 124.101C43.9445 124.101 45.4077 123.47 46.4346 122.289L57.3879 109.68C58.9715 109.539 60.0674 108.753 60.6169 108.247C60.874 108.012 61.1061 107.752 61.3103 107.472L62.4033 105.973C65.7762 108.806 67.589 109.785 68.4808 110.201C73.0304 112.931 75.8922 111.779 77.5977 110.214L82.2062 105.759C82.4471 107.331 82.6425 109.387 82.8394 111.914C83.0524 114.655 85.3382 116.771 88.0883 116.771C90.8369 116.771 93.1242 114.655 93.3373 111.915C93.5738 108.882 94.0145 103.236 94.9929 102.257C95.9713 101.278 101.617 100.839 104.649 100.602C107.39 100.389 109.506 98.1027 109.506 95.3534C109.506 92.604 107.39 90.3175 104.649 90.1044C102.401 89.9289 100.505 89.7526 98.9902 89.5418L107.668 81.1579C111.543 83.3879 114.693 83.4371 117.024 81.293C118.219 80.1971 119.456 78.2021 118.856 74.8152L119.999 27.139Z" fill="#231F20"/>
<path d="M118.321 26.3851C118.355 24.9535 117.806 23.5697 116.798 22.5531C115.79 21.5358 114.379 20.943 112.98 20.9944L110.046 21.0377C110.256 20.4692 110.371 19.8552 110.371 19.2161C110.371 16.4668 108.255 14.1802 105.514 13.9672C104.274 13.8702 101.549 13.6579 100.442 13.3428C100.127 12.2359 99.9142 9.51003 99.8172 8.27014C99.6042 5.52888 97.3169 3.41416 94.5682 3.41416C91.8182 3.41416 89.5323 5.52961 89.3193 8.27088C89.2223 9.51077 89.0108 12.2351 88.6949 13.3428C87.5887 13.6579 84.8636 13.8702 83.6237 13.9672C80.8825 14.1802 78.767 16.4668 78.767 19.2161C78.767 20.0292 78.9521 20.8012 79.2827 21.4917L65.1856 21.6996C65.1366 21.7003 65.091 21.7171 65.0422 21.7191C65.5005 19.2045 65.2633 16.0025 63.6445 11.9193C61.6877 6.97884 58.5043 -1.07088 51.4763 0.118327C49.0171 -0.110114 47.0544 0.894722 46.3023 1.27448C44.5526 2.15811 42.6781 3.68814 41.6791 6.32951C37.5055 6.46981 33.0675 9.34549 30.2043 12.1521C27.9302 14.3822 26.3671 16.8296 25.59 19.2954C21.8938 20.3679 18.2462 23.4073 15.8619 26.5599C13.6465 29.4922 12.5036 32.5412 12.4786 35.4118C9.02634 36.3601 5.94278 38.2426 3.91548 40.7746C-2.54839 48.8485 -0.908918 59.508 8.09201 67.9294C9.95313 69.6711 11.782 70.9542 13.5381 71.899C11.3039 73.4009 9.90869 75.9206 9.69917 78.9378C9.49203 81.9663 10.8641 84.7964 13.3703 86.5086C14.8379 87.5113 16.5406 88.024 18.2256 88.024C19.3994 88.024 20.5658 87.775 21.6368 87.2696C24.8129 85.7712 26.9885 82.4085 27.0502 78.9011C27.0818 77.131 31.3605 81.959 31.2473 83.594L20.9933 90.0285C19.0615 91.2405 18.1301 93.5587 18.6854 95.7703C18.7806 96.15 18.9276 96.5044 19.098 96.8439C17.4861 95.9093 15.5281 95.6152 13.4996 96.0414C10.9288 96.5827 8.89706 98.3941 8.0641 100.886C7.23996 103.356 7.75707 106.069 9.41417 107.966C10.8248 109.582 12.909 110.535 15.0375 110.653C14.9557 111.914 15.3111 113.198 16.1381 114.249C17.6747 116.203 20.3734 116.817 22.6049 115.716L29.9325 112.102C30.1955 112.713 30.576 113.28 31.0696 113.766C32.3947 115.077 34.2912 115.57 36.0556 115.128L35.6486 116.91C35.111 119.264 36.2436 121.682 38.3973 122.776C39.1553 123.161 39.9706 123.347 40.7801 123.347C42.2668 123.347 43.7299 122.716 44.7568 121.535L55.7101 108.926C57.2938 108.785 58.3897 107.999 58.9391 107.493C59.1962 107.258 59.4283 106.998 59.6325 106.718L60.7255 105.219C64.0985 108.052 65.9113 109.032 66.803 109.447C71.3527 112.177 74.2144 111.025 75.92 109.46L80.5284 105.006C80.7694 106.577 80.9647 108.633 81.1616 111.16C81.3746 113.901 83.6605 116.017 86.4105 116.017C89.1592 116.017 91.4465 113.901 91.6595 111.161C91.896 108.128 92.3367 102.482 93.3151 101.503C94.2935 100.524 99.9391 100.085 102.971 99.8484C105.713 99.6354 107.828 97.3488 107.828 94.5995C107.828 91.8501 105.713 89.5635 102.971 89.3505C100.724 89.175 98.827 88.9987 97.3124 88.7879L105.99 80.404C109.866 82.634 113.015 82.6832 115.347 80.5391C116.541 79.4432 117.778 77.4482 117.179 74.0613L118.321 26.3851Z" fill="white"/>
<path d="M113.071 26.2432L66.6428 27.6976L67.1938 29.1374C67.3504 30.29 68.2492 32.1786 69.7779 34.6257L69.7814 34.6295L38.3613 68.7706C37.2052 69.8324 40.7168 75.3514 47.0821 82.9203L44.1952 79.9165L37.9785 84.5949C37.7202 84.8315 37.9943 85.6125 38.6683 86.7536L23.8056 94.4727L35.3956 95.2702L20.2891 110.977L40.6409 100.942L34.7828 110.005L45.3072 105.039L40.795 118.065L53.8181 103.075C54.6185 103.591 55.1777 103.795 55.3924 103.599L60.1674 97.0541C66.485 103.202 71.1991 106.645 72.2736 105.658L105.415 73.6347L105.418 73.6384C108.737 76.16 111.06 77.3247 111.801 76.6441C112.149 76.3243 112.176 75.5883 111.913 74.5221L113.071 26.2432Z" fill="#22093A" stroke="#22093A" stroke-miterlimit="10" stroke-linecap="round" stroke-linejoin="round"/>
<path d="M40.0692 84.2666L23.8056 94.4724L34.0289 94.52L20.2891 110.977L39.2741 100.192L34.7828 110.005L43.9404 104.289L40.795 118.065L54.3237 99.7966L40.0692 84.2666Z" fill="#FCC707" stroke="#22093A" stroke-miterlimit="10" stroke-linecap="round" stroke-linejoin="round"/>
<path d="M59.0164 96.0095L54.0265 102.849C53.3114 103.504 48.8334 99.781 44.0247 94.5333C39.2159 89.2856 35.8974 84.5003 36.6126 83.8449L42.8292 79.1665" fill="#9736FF"/>
<path d="M58.3667 95.6298C57.1293 97.3258 55.8918 99.0218 54.6544 100.718C54.3657 101.114 54.0769 101.509 53.7881 101.905C53.6444 102.102 53.0691 102.689 53.6055 102.23C53.8391 102.03 53.8605 102.278 53.6078 102.114C53.4151 101.989 53.1882 101.9 52.9901 101.779C52.2829 101.347 51.6306 100.824 50.9965 100.293C47.2064 97.1187 43.7906 93.3914 40.7188 89.5268C39.6011 88.1206 38.4626 86.6564 37.6308 85.0565C37.5102 84.8245 37.415 84.5934 37.3199 84.3514C37.2351 84.1356 37.3042 84.1665 37.2578 84.1822C37.1146 84.2306 36.8142 84.5664 37.1503 84.3752C37.3029 84.2884 37.4426 84.1552 37.5826 84.0499C39.458 82.6386 41.3333 81.2273 43.2086 79.816C43.9727 79.2409 43.2238 77.9342 42.4493 78.517C40.5897 79.9165 38.7301 81.316 36.8705 82.7155C36.2215 83.2039 35.6252 83.5824 35.8093 84.5106C36.1018 85.9851 37.2637 87.4049 38.1222 88.5843C41.3398 93.0045 45.1251 97.1565 49.237 100.76C50.3771 101.759 51.6985 103.052 53.1703 103.549C54.089 103.859 54.5258 103.434 55.0252 102.749C56.572 100.629 58.1188 98.5091 59.6656 96.3891C60.2369 95.6061 58.9322 94.8547 58.3667 95.6298Z" fill="#22093A"/>
<path d="M110.433 75.8942L113.07 26.2432L65.2754 26.9476L66.9788 31.3992C66.9788 31.3992 76.6679 38.1513 88.9016 50.9272C100.836 63.3902 104.192 71.7193 104.192 71.7193L110.433 75.8942Z" fill="#9736FF"/>
<path d="M111.185 75.894C111.483 70.2955 111.78 64.6969 112.077 59.0984C112.551 50.1827 113.024 41.2669 113.498 32.3512C113.606 30.3151 113.714 28.279 113.822 26.243C113.844 25.8409 113.46 25.485 113.07 25.4908C107.689 25.5701 102.309 25.6494 96.9279 25.7287C88.3493 25.8552 79.7707 25.9816 71.1921 26.108C69.2198 26.1371 67.2475 26.1662 65.2753 26.1953C64.8269 26.2019 64.37 26.677 64.55 27.1474C65.1105 28.6123 65.5787 30.1586 66.2452 31.5776C66.5572 32.2419 67.5122 32.7066 68.0792 33.1333C72.2801 36.2947 76.267 39.7517 80.1177 43.3278C86.1408 48.9215 91.9601 54.8418 96.9118 61.4189C99.2856 64.5718 101.578 67.898 103.265 71.4807C103.335 71.6288 103.402 71.7779 103.469 71.9273C103.571 72.1557 103.413 71.8239 103.466 71.919C103.811 72.5329 104.582 72.884 105.16 73.2703C106.791 74.3614 108.422 75.4524 110.054 76.5435C110.86 77.0832 111.614 75.7807 110.813 75.2445C108.732 73.8529 106.652 72.4613 104.571 71.0696C104.686 71.2194 104.801 71.3693 104.917 71.5191C104.389 70.2169 103.693 68.9758 102.986 67.7648C100.935 64.2468 98.5217 60.9418 95.9614 57.7798C89.0469 49.2404 80.9153 41.5185 72.3826 34.6078C70.7442 33.2808 69.0883 31.9569 67.3583 30.7495C67.4735 30.8993 67.5887 31.0492 67.7039 31.199C67.1361 29.7151 66.5683 28.2313 66.0005 26.7475C65.7588 27.0648 65.517 27.3822 65.2753 27.6996C70.6559 27.6203 76.0366 27.541 81.4173 27.4617C89.9959 27.3352 98.5746 27.2088 107.153 27.0823C109.125 27.0533 111.098 27.0242 113.07 26.9951C112.819 26.7444 112.569 26.4937 112.318 26.243C112.021 31.8415 111.723 37.44 111.426 43.0386C110.952 51.9543 110.479 60.87 110.005 69.7858C109.897 71.8218 109.789 73.8579 109.681 75.894C109.63 76.8615 111.134 76.8586 111.185 75.894Z" fill="#22093A"/>
<path d="M68.4125 33.8753C66.2335 30.3874 65.2996 27.9996 66.0346 27.3245C67.8592 25.6486 80.8665 34.4382 93.1274 47.8502C105.388 61.2623 112.26 74.2179 110.435 75.8938C109.694 76.5743 107.371 75.4097 104.052 72.888" fill="#22093A"/>
<path d="M69.0613 33.4957C68.1918 32.0928 67.268 30.6284 66.7517 29.0492C66.6289 28.6735 66.5891 28.3307 66.5387 27.9472C66.5192 27.7993 66.5526 27.8836 66.5613 27.883C66.6344 27.8772 66.5067 27.8585 66.6805 27.8724C66.782 27.8806 66.8834 27.8779 66.9851 27.8905C67.1065 27.9056 67.5115 28.0198 67.7287 28.0912C68.4394 28.325 69.1138 28.6627 69.7725 29.0142C74.6421 31.6129 78.9999 35.2964 83.0897 38.9609C88.8143 44.0901 94.1042 49.7203 98.8622 55.757C102.538 60.4203 106.096 65.3948 108.627 70.7898C109.051 71.6929 109.443 72.618 109.72 73.5779C109.86 74.0668 110.016 74.8335 109.97 75.1561C109.953 75.2757 109.857 75.3763 109.943 75.301C109.813 75.4138 109.992 75.359 109.905 75.3537C109.632 75.3367 109.245 75.219 108.956 75.1047C107.313 74.4572 105.827 73.2913 104.431 72.2386C103.658 71.6555 102.908 72.961 103.672 73.5375C105.09 74.607 106.561 75.7002 108.201 76.4085C109.013 76.7592 110.13 77.1325 110.897 76.4809C111.853 75.6685 111.44 74.0709 111.133 73.0525C110.465 70.8337 109.338 68.732 108.196 66.7279C106.467 63.6943 104.506 60.793 102.436 57.9831C97.3129 51.0291 91.4787 44.587 85.1057 38.7592C82.4638 36.3433 79.7231 34.0315 76.8593 31.8822C74.7379 30.2901 72.5389 28.738 70.1726 27.5272C69.0473 26.9513 67.0904 25.8547 65.8006 26.5751C64.9241 27.0646 64.964 28.1465 65.1699 28.9966C65.6243 30.873 66.7591 32.6362 67.7624 34.2549C68.2715 35.0762 69.5733 34.3217 69.0613 33.4957Z" fill="#22093A"/>
<path d="M70.9067 104.908C69.4418 106.253 61.2251 99.3881 51.3815 88.6204C41.538 77.8526 35.5294 69.3661 36.9943 68.0206L68.4264 33.8666C69.8912 32.5211 79.0584 40.1593 88.902 50.9271C98.7456 61.6948 105.538 71.5145 104.073 72.86L70.9067 104.908Z" fill="#E6E7E8"/>
<path d="M70.3745 104.376C70.4816 104.286 70.4346 104.33 70.3859 104.323C70.2577 104.306 70.1573 104.297 69.9249 104.222C69.3926 104.049 68.898 103.749 68.4241 103.457C66.7753 102.44 65.2722 101.185 63.8123 99.9187C59.17 95.8912 54.9062 91.4172 50.7947 86.8567C46.9917 82.6385 43.2153 78.3052 40.0333 73.5897C39.1748 72.3173 38.2443 70.967 37.7298 69.5081C37.6542 69.2939 37.577 69.0698 37.5429 68.8445C37.538 68.8124 37.5297 68.4835 37.5291 68.5664C37.53 68.4482 37.4442 68.6396 37.5804 68.4931C40.3258 65.542 43.0397 62.561 45.7692 59.5952C50.5023 54.4522 55.2355 49.3092 59.9686 44.1662C62.9114 40.9685 65.8348 37.7516 68.7977 34.5725C68.8512 34.5151 68.904 34.457 68.9572 34.3992C68.8826 34.4803 68.8491 34.4486 68.8976 34.4651C69.0417 34.5141 69.139 34.4931 69.3772 34.572C70.7263 35.0185 71.968 36.0197 73.0851 36.8642C77.6236 40.2956 81.7004 44.4004 85.6172 48.5098C90.1327 53.2472 94.478 58.1926 98.3838 63.4487C99.7385 65.2718 101.059 67.1367 102.192 69.1081C102.563 69.7546 102.93 70.4165 103.206 71.1102C103.386 71.5622 103.408 72.0036 103.516 72.3683C103.526 72.4003 103.5 72.3655 103.54 72.3285C103.525 72.3428 103.51 72.3583 103.494 72.373C103.395 72.467 103.298 72.5631 103.199 72.6581C102.735 73.1068 102.271 73.5555 101.806 74.0041C100.049 75.7019 98.2923 77.3997 96.5353 79.0974C91.5472 83.9173 86.5591 88.7372 81.571 93.5571C78.0211 96.9872 74.4712 100.417 70.9213 103.848C70.739 104.024 70.5567 104.2 70.3745 104.376C69.677 105.05 70.7414 106.113 71.4382 105.44C74.1982 102.773 76.9582 100.106 79.7182 97.4389C84.9519 92.3817 90.1857 87.3245 95.4194 82.2672C97.5017 80.2552 99.5839 78.2432 101.666 76.2311C102.627 75.303 103.655 74.4112 104.564 73.4315C105.099 72.8538 105.081 72.1447 104.894 71.4156C104.503 69.8979 103.594 68.4671 102.771 67.1548C99.6333 62.151 95.781 57.5557 91.8874 53.1307C87.45 48.0878 82.7789 43.202 77.7325 38.762C76.0405 37.2733 74.2993 35.8117 72.4297 34.5486C71.4555 33.8904 70.1977 32.9876 68.966 32.9627C67.8846 32.9409 67.1615 34.1309 66.5086 34.8403C64.8586 36.6332 63.2087 38.426 61.5587 40.2189C56.7032 45.4949 51.8477 50.7708 46.9921 56.0468C43.603 59.7295 40.2138 63.4122 36.8246 67.0948C36.5837 67.3566 36.3029 67.6132 36.1594 67.9421C35.743 68.8965 36.3105 70.0881 36.7158 70.9453C37.5188 72.6435 38.6099 74.2136 39.7011 75.7356C41.306 77.9742 43.0286 80.1296 44.7935 82.2435C49.1876 87.5062 53.8454 92.5832 58.7841 97.3403C60.6609 99.148 62.5845 100.917 64.6195 102.547C65.9107 103.581 67.2581 104.655 68.765 105.362C69.6107 105.758 70.6379 106.11 71.4382 105.44C72.1811 104.817 71.1122 103.758 70.3745 104.376Z" fill="#22093A"/>
<path d="M80.4181 61.2415C83.0381 57.67 82.9435 53.1472 80.2068 51.1396C77.4701 49.132 73.1277 50.3998 70.5076 53.9712C67.8876 57.5427 67.9822 62.0655 70.7189 64.0731C73.4556 66.0807 77.798 64.8129 80.4181 61.2415Z" fill="white" stroke="#22093A" stroke-miterlimit="10" stroke-linecap="round" stroke-linejoin="round"/>
<path d="M91.8863 68.452C94.1652 65.5662 94.2201 61.8111 92.0087 60.0648C89.7974 58.3185 86.1573 59.2424 83.8784 62.1282C81.5994 65.0141 81.5446 68.7692 83.7559 70.5154C85.9672 72.2617 89.6073 71.3379 91.8863 68.452Z" fill="white" stroke="#22093A" stroke-miterlimit="10" stroke-linecap="round" stroke-linejoin="round"/>
<path d="M79.5196 58.8156C81.0014 56.9392 81.0371 54.4977 79.5993 53.3623C78.1615 52.2268 75.7947 52.8275 74.313 54.7039C73.7743 55.386 73.4325 56.1426 73.2773 56.8842L75.5732 57.2532L73.597 59.3821C73.7632 59.6744 73.9637 59.9444 74.2333 60.1572C75.6711 61.2926 78.0378 60.692 79.5196 58.8156Z" fill="#22093A"/>
<path d="M91.2047 66.3754C92.6269 64.5744 92.6612 62.2308 91.2811 61.141C89.9011 60.0511 87.6292 60.6277 86.207 62.4287C85.6899 63.0835 85.3618 63.8098 85.2129 64.5216L87.4166 64.8757L85.5198 66.9192C85.6792 67.1998 85.8717 67.4589 86.1305 67.6633C87.5106 68.753 89.7823 68.1765 91.2047 66.3754Z" fill="#22093A"/>
<path d="M77.5883 77.8333C77.5883 77.8333 65.7713 89.6897 60.7894 85.6064C55.8075 81.5231 65.4957 67.1206 65.4957 67.1206L77.5883 77.8333Z" fill="#22093A" stroke="#22093A" stroke-miterlimit="10" stroke-linecap="round" stroke-linejoin="round"/>
<path d="M65.4953 67.1206L77.5879 77.8333L74.0087 80.9518L63.0352 71.2502L65.4953 67.1206Z" fill="white" stroke="#22093A" stroke-miterlimit="10" stroke-linecap="round" stroke-linejoin="round"/>
<path d="M60.7787 79.4346C62.1169 77.7872 63.7937 78.4743 65.4546 79.8235C67.1154 81.1727 68.1315 82.6731 66.7932 84.3205C65.455 85.9679 63.0237 86.2096 61.3629 84.8604C59.702 83.5112 59.4405 81.082 60.7787 79.4346Z" fill="#FD32B0" stroke="#22093A" stroke-miterlimit="10" stroke-linecap="round" stroke-linejoin="round"/>
<path d="M36.3177 89.9282L34.5508 91.052" stroke="white" stroke-miterlimit="10" stroke-linecap="round" stroke-linejoin="round"/>
<path d="M35.4599 97.918L30.5137 102.288" stroke="white" stroke-miterlimit="10" stroke-linecap="round" stroke-linejoin="round"/>
<path d="M47.637 103.839L47.1914 104.582" stroke="white" stroke-miterlimit="10" stroke-linecap="round" stroke-linejoin="round"/>
<path d="M41.2314 83.6138L39.7227 84.8904C39.7227 84.8904 42.1212 88.5656 43.9007 90.3451" stroke="#D9BBFF" stroke-miterlimit="10" stroke-linecap="round" stroke-linejoin="round"/>
<path d="M45.5488 92.6021C45.5488 92.6021 45.6677 92.7622 46.2753 93.4835" stroke="#D9BBFF" stroke-miterlimit="10" stroke-linecap="round" stroke-linejoin="round"/>
<path d="M86.0508 35.6245C88.7915 37.96 91.5374 40.5671 92.8431 42.3901" stroke="#D9BBFF" stroke-miterlimit="10" stroke-linecap="round" stroke-linejoin="round"/>
<path d="M87.5696 29.6318H84.5039" stroke="#D9BBFF" stroke-miterlimit="10" stroke-linecap="round" stroke-linejoin="round"/>
<path d="M106.101 29.6318H91.5664" stroke="#D9BBFF" stroke-miterlimit="10" stroke-linecap="round" stroke-linejoin="round"/>
<path d="M40.9238 69.6475C42.1388 71.8211 45.5631 76.5145 48.6718 80.0945" stroke="white" stroke-miterlimit="10" stroke-linecap="round" stroke-linejoin="round"/>
<path d="M50.9139 57.3071L43.291 65.4963" stroke="white" stroke-miterlimit="10" stroke-linecap="round" stroke-linejoin="round"/>
<path d="M55.657 52.2124L54.3242 53.6442" stroke="white" stroke-miterlimit="10" stroke-linecap="round" stroke-linejoin="round"/>
<path d="M63.6819 43.5913L60.6504 46.8481" stroke="white" stroke-miterlimit="10" stroke-linecap="round" stroke-linejoin="round"/>
<path d="M108.147 48.9238L107.805 57.533" stroke="#22093A" stroke-miterlimit="10" stroke-linecap="round" stroke-linejoin="round"/>
<path d="M107.633 60.2168V61.4017" stroke="#22093A" stroke-miterlimit="10" stroke-linecap="round" stroke-linejoin="round"/>
<path d="M9.98441 43.999C13.361 39.7806 22.7527 37.1972 30.1805 44.6226C37.6082 52.048 36.6709 60.378 32.9442 64.9645C29.5816 69.1029 21.8114 71.6584 13.6472 64.0195C6.95856 57.7612 5.02482 50.195 9.98441 43.999Z" fill="#22093A" stroke="#22093A" stroke-miterlimit="10" stroke-linecap="round" stroke-linejoin="round"/>
<path d="M16.5801 48.8133C16.8046 47.967 19.0477 48.5121 22.4968 51.9431C25.9459 55.3741 27.1501 57.8772 26.8901 58.7893C26.6554 59.6122 24.8736 59.2937 21.175 55.6881C18.1448 52.7341 16.2503 50.0562 16.5801 48.8133Z" fill="#22093A" stroke="#22093A" stroke-miterlimit="10" stroke-linecap="round" stroke-linejoin="round"/>
<path d="M30.8155 24.1529C27.0927 23.2234 17.0301 32.1821 20.3793 38.0207C22.5865 41.8684 34.2095 56.4251 39.158 51.4987C44.2432 46.4363 35.4835 41.1292 35.4835 41.1292C35.4835 41.1292 39.8871 36.4594 37.496 33.2511C35.1048 30.0428 29.9183 36.4732 29.9183 36.4732C29.9183 36.4732 37.9647 25.938 30.8155 24.1529Z" fill="#22093A" stroke="#22093A" stroke-miterlimit="10" stroke-linecap="round" stroke-linejoin="round"/>
<path d="M44.928 11.654C41.1671 10.3027 29.8062 18.5373 32.6681 24.9365C34.5543 29.1537 45.0812 45.4494 50.7225 40.8604C56.5197 36.1445 47.9957 29.732 47.9957 29.732C47.9957 29.732 53.0456 25.352 50.9022 21.7782C48.7588 18.2044 42.7141 24.3272 42.7141 24.3272C42.7141 24.3272 52.1502 14.2489 44.928 11.654Z" fill="#22093A" stroke="#22093A" stroke-miterlimit="10" stroke-linecap="round" stroke-linejoin="round"/>
<path d="M50.6324 5.90902C48.6085 6.93185 46.6532 9.22993 49.8818 18.3309C52.7644 26.4564 55.9261 25.2633 56.7014 24.8715C57.4768 24.4796 62.2241 22.572 58.764 13.842C55.304 5.11196 53.6312 4.39352 50.6324 5.90902Z" fill="#22093A" stroke="#22093A" stroke-miterlimit="10" stroke-linecap="round" stroke-linejoin="round"/>
<path d="M59.4396 33.616C61.6348 33.616 63.4144 31.8365 63.4144 29.6413C63.4144 27.4461 61.6348 25.6665 59.4396 25.6665C57.2444 25.6665 55.4648 27.4461 55.4648 29.6413C55.4648 31.8365 57.2444 33.616 59.4396 33.616Z" fill="#22093A" stroke="#22093A" stroke-miterlimit="10" stroke-linecap="round" stroke-linejoin="round"/>
<path d="M8.0391 44.0483C11.4157 39.8299 20.8074 37.2465 28.2351 44.6719C35.6629 52.0973 34.7256 60.4273 30.9988 65.0139C27.6363 69.1522 19.8661 71.7077 11.7019 64.0688C5.01324 57.8105 3.0795 50.2443 8.0391 44.0483Z" fill="#71C1F2" stroke="#22093A" stroke-miterlimit="10" stroke-linecap="round" stroke-linejoin="round"/>
<path d="M14.6348 48.8626C14.8593 48.0163 17.1024 48.5615 20.5515 51.9925C24.0006 55.4235 25.2048 57.9265 24.9448 58.8386C24.7101 59.6615 22.9283 59.343 19.2297 55.7374C16.1995 52.7835 14.305 50.1055 14.6348 48.8626Z" fill="#22093A" stroke="#22093A" stroke-miterlimit="10" stroke-linecap="round" stroke-linejoin="round"/>
<path d="M28.8702 24.2022C25.1474 23.2727 15.0848 32.2314 18.434 38.07C20.6412 41.9177 32.2642 56.4744 37.2127 51.5481C42.2979 46.4857 33.5382 41.1785 33.5382 41.1785C33.5382 41.1785 37.9418 36.5088 35.5506 33.3004C33.1595 30.0921 27.973 36.5225 27.973 36.5225C27.973 36.5225 36.0194 25.9873 28.8702 24.2022Z" fill="#71C1F2" stroke="#22093A" stroke-miterlimit="10" stroke-linecap="round" stroke-linejoin="round"/>
<path d="M42.9827 11.7038C39.2218 10.3525 27.8608 18.5871 30.7228 24.9863C32.6089 29.2035 43.1359 45.4992 48.7772 40.9102C54.5744 36.1943 46.0504 29.7819 46.0504 29.7819C46.0504 29.7819 51.1003 25.4018 48.9569 21.828C46.8135 18.2542 40.7688 24.377 40.7688 24.377C40.7688 24.377 50.2049 14.2987 42.9827 11.7038Z" fill="#71C1F2" stroke="#22093A" stroke-miterlimit="10" stroke-linecap="round" stroke-linejoin="round"/>
<path d="M48.6871 5.95834C46.6632 6.98116 44.7079 9.27925 47.9365 18.3802C50.8191 26.5057 53.9808 25.3126 54.7561 24.9208C55.5314 24.5289 60.2788 22.6213 56.8187 13.8913C53.3587 5.16128 51.6859 4.44283 48.6871 5.95834Z" fill="#71C1F2" stroke="#22093A" stroke-miterlimit="10" stroke-linecap="round" stroke-linejoin="round"/>
<path d="M57.4943 33.6653C59.6895 33.6653 61.469 31.8858 61.469 29.6906C61.469 27.4954 59.6895 25.7158 57.4943 25.7158C55.2991 25.7158 53.5195 27.4954 53.5195 29.6906C53.5195 31.8858 55.2991 33.6653 57.4943 33.6653Z" fill="#71C1F2" stroke="#22093A" stroke-miterlimit="10" stroke-linecap="round" stroke-linejoin="round"/>
<path d="M19.0371 65.293C21.5742 66.0557 23.2479 65.5088 23.2479 65.5088" stroke="white" stroke-miterlimit="10" stroke-linecap="round" stroke-linejoin="round"/>
<path d="M10.0969 46.4189C9.45533 47.7062 5.46605 52.4936 11.6205 59.8956C13.2463 61.8508 14.8245 63.1648 16.2668 64.0399" stroke="white" stroke-miterlimit="10" stroke-linecap="round" stroke-linejoin="round"/>
<path d="M22.9227 30.9092C22.4086 31.509 19.4953 34.4394 21.0376 36.8302C22.58 39.221 23.5223 40.0995 24.9791 41.7168" stroke="white" stroke-miterlimit="10" stroke-linecap="round" stroke-linejoin="round"/>
<path d="M35.5202 18.6094C33.8921 20.2836 31.5193 21.9974 34.9097 26.2428" stroke="white" stroke-miterlimit="10" stroke-linecap="round" stroke-linejoin="round"/>
<path d="M49.6671 8.77246C49.1045 9.23444 47.5877 10.2131 49.9714 15.8335" stroke="white" stroke-miterlimit="10" stroke-linecap="round" stroke-linejoin="round"/>
<path d="M56.1478 28.79C56.1478 28.79 55.7499 30.2238 56.7351 30.9093" stroke="white" stroke-miterlimit="10" stroke-linecap="round" stroke-linejoin="round"/>
<path d="M86.4238 85.4141L83.2932 91.8928L77.2539 94.5839L83.8995 97.9181L86.4238 103.752L89.4468 96.9322L95.5922 94.5825L89.4468 91.83L86.4238 85.4141Z" fill="#FCC707"/>
<path d="M14.5992 101.177C12.9427 101.526 12.5365 103.505 13.3938 104.488C14.4723 105.723 17.0101 105.841 17.3908 103.953C17.7715 102.065 16.5813 100.759 14.5992 101.177Z" fill="#FCC707" stroke="#22093A" stroke-miterlimit="10" stroke-linecap="round" stroke-linejoin="round"/>
<path d="M86.4235 111.488C86.0313 111.488 85.7037 111.186 85.6743 110.795C84.5975 96.9856 84.0201 96.4083 70.211 95.3329C69.8202 95.3035 69.5176 94.9759 69.5176 94.5837C69.5176 94.1914 69.8202 93.8638 70.211 93.8345C84.0201 92.7576 84.5975 92.1803 85.6743 78.3711C85.7037 77.9804 86.0313 77.6777 86.4235 77.6777C86.8158 77.6777 87.1434 77.9804 87.1727 78.3711C88.2481 92.1803 88.8254 92.7576 102.635 93.833C103.025 93.8624 103.328 94.19 103.328 94.5822C103.328 94.9745 103.025 95.3021 102.635 95.3314C88.8254 96.4083 88.2481 96.9856 87.1727 110.795C87.1434 111.186 86.8158 111.488 86.4235 111.488ZM77.2537 94.5837C83.3752 95.6047 85.4011 97.6305 86.4235 103.752C87.4445 97.6305 89.4718 95.6047 95.5919 94.5822C89.4718 93.5612 87.4445 91.5354 86.4235 85.4138C85.4011 91.5354 83.3752 93.5612 77.2537 94.5837Z" fill="#22093A"/>
<path d="M94.5797 14.5798L89.9609 19.2007L94.5819 23.8194L99.2006 19.1985L94.5797 14.5798Z" fill="#FCC707"/>
<path d="M94.5812 30.4886C94.189 30.4886 93.8614 30.1867 93.832 29.7952C93.1386 20.917 92.8639 20.6408 83.9864 19.9496C83.5956 19.9187 83.293 19.5926 83.293 19.1996C83.293 18.8067 83.5956 18.4805 83.9864 18.4497C92.8639 17.7585 93.1386 17.4823 93.832 8.60404C93.8614 8.21254 94.189 7.91064 94.5812 7.91064C94.9735 7.91064 95.3011 8.21254 95.3305 8.60404C96.0238 17.4823 96.2986 17.7585 105.176 18.4497C105.567 18.4805 105.869 18.8067 105.869 19.1996C105.869 19.5926 105.567 19.9187 105.176 19.9496C96.2986 20.6408 96.0238 20.917 95.3305 29.7952C95.3011 30.1867 94.9735 30.4886 94.5812 30.4886ZM89.9625 19.1996C92.7038 19.8659 93.9157 21.0786 94.5812 23.8206C95.2467 21.0786 96.4602 19.8659 99.2 19.1996C96.4602 18.5334 95.2467 17.3207 94.5812 14.5787C93.9157 17.3207 92.7038 18.5334 89.9625 19.1996Z" fill="#22093A"/>
<path d="M14.9655 79.2832C14.7841 81.9081 17.5709 83.3561 19.4033 82.4916C21.7089 81.404 22.9622 77.6596 20.3015 76.2887C17.6407 74.9178 15.1824 76.1424 14.9655 79.2832Z" fill="#FCC707" stroke="#22093A" stroke-miterlimit="10" stroke-linecap="round" stroke-linejoin="round"/>
<path d="M17.6839 78.0991L17.2383 78.8415" stroke="white" stroke-miterlimit="10" stroke-linecap="round" stroke-linejoin="round"/>
</g>
<defs>
<clipPath id="clip0_5_11004">
<rect width="120" height="124.101" fill="white"/>
</clipPath>
</defs>
</svg>
