<svg width="120" height="120" viewBox="0 0 120 120" fill="none" xmlns="http://www.w3.org/2000/svg">
<path d="M10.834 37.4012L20.8075 27.4082L22.5895 46.7477L27.0925 41.9942L24.139 66.6512L18.391 49.8992L15.6655 52.7732L10.834 37.4012Z" fill="#22093A" stroke="#22093A" stroke-linecap="round" stroke-linejoin="round"/>
<path d="M100.433 49.9976C100.433 49.9976 98.9369 43.3754 95.8675 29.1433C92.8167 14.9988 88.0152 4.48096 82.299 4.48096C73.9026 4.48096 72.9501 14.6361 74.6928 25.8792C76.4356 37.1224 77.3485 38.5731 77.3485 38.5731C77.3485 38.5731 70.5204 28.7492 60.7079 30.9615C57.8403 31.5497 55.1226 32.7161 52.7208 34.3896C52.7208 34.3896 43.6128 13.8503 36.3592 13.8503C29.1055 13.8503 27.7368 25.033 32.9137 34.6441C38.0905 44.2552 40.3487 46.673 40.3487 46.673C40.3487 46.673 30.1237 72.3939 40.3022 86.6074C49.2344 99.0806 63.5667 101.433 77.3485 99.0806C91.466 96.5944 102.343 85.2438 104.225 71.0332C105.632 60.8025 105.028 55.2245 100.433 49.9976Z" fill="#22093A" stroke="#22093A" stroke-linecap="round" stroke-linejoin="round"/>
<path d="M99.4881 49.6621C104.083 54.889 104.686 60.4669 103.28 70.6977C101.398 84.9083 90.5207 96.2589 76.4032 98.745C62.6212 101.097 48.289 98.745 39.3568 86.2719C29.1783 72.0583 39.4033 46.3375 39.4033 46.3375C39.4033 46.3375 37.1452 43.9196 31.9684 34.3085C26.7915 24.6974 28.1602 13.5148 35.4138 13.5148C42.6674 13.5148 51.7755 34.0541 51.7755 34.0541C54.1773 32.3806 56.8949 31.2142 59.7626 30.626C69.5751 28.4137 76.4032 38.2376 76.4032 38.2376C76.4032 38.2376 75.4902 36.7869 73.7475 25.5438C72.0048 14.3006 72.9573 4.14549 81.3536 4.14551C87.0699 4.14551 91.8714 14.6633 94.9221 28.8079C97.9916 43.0399 99.4881 49.6621 99.4881 49.6621Z" fill="#FCC707" stroke="#22093A" stroke-linecap="round" stroke-linejoin="round"/>
<path d="M51.7765 34.0542C46.6234 38.1342 44.7578 44.6614 47.5647 52.6404C51.6662 64.2992 57.455 64.8466 59.7636 63.4441C61.9791 62.0983 65.5859 54.9212 63.3029 44.5846" fill="#FCC707"/>
<path d="M51.7765 34.0542C46.6234 38.1342 44.7578 44.6614 47.5647 52.6404C51.6662 64.2992 57.455 64.8466 59.7636 63.4441C61.9791 62.0983 65.5859 54.9212 63.3029 44.5846" stroke="#22093A" stroke-linecap="round" stroke-linejoin="round"/>
<path d="M99.4878 49.6621C92.7173 46.2166 83.7816 47.6673 76.4028 49.6621C73.8261 50.3586 67.3476 53.5377 67.3477 57.769C67.3478 68.278 84.9541 68.2866 84.9541 68.2866C74.799 69.736 72.6321 80.6635 72.6321 80.6635" fill="#FCC707"/>
<path d="M99.4878 49.6621C92.7173 46.2166 83.7816 47.6673 76.4028 49.6621C73.8261 50.3586 67.3476 53.5377 67.3477 57.769C67.3478 68.278 84.9541 68.2866 84.9541 68.2866C74.799 69.736 72.6321 80.6635 72.6321 80.6635" stroke="#22093A" stroke-linecap="round" stroke-linejoin="round"/>
<path d="M76.4043 38.2378C77.5613 39.6037 78.4856 41.1506 79.1403 42.8166" stroke="#22093A" stroke-linecap="round" stroke-linejoin="round"/>
<path d="M9.89844 38.5154L19.8719 28.5239L21.6539 47.8619L26.1569 43.1099L24.1394 66.6509L17.4554 51.0134L14.7314 53.8874L9.89844 38.5154Z" fill="#FD32B0" stroke="#22093A" stroke-linecap="round" stroke-linejoin="round"/>
<path d="M97.4008 7.53759L112.11 4.78809L101.901 22.9336L109.023 21.2656L91.4203 40.8586L96.2968 23.0971L91.0723 23.9281L97.4008 7.53759Z" fill="#22093A" stroke="#22093A" stroke-linecap="round" stroke-linejoin="round"/>
<path d="M96.3238 7.53741L111.183 4.96191L100.825 22.9334L107.682 21.5609L91.4203 40.8584L95.2198 23.0969L91.0723 23.9279L96.3238 7.53741Z" fill="#FD32B0" stroke="#22093A" stroke-linecap="round" stroke-linejoin="round"/>
<path d="M13.4844 39.9971L14.5442 43.842" stroke="white" stroke-linecap="round" stroke-linejoin="round"/>
<path d="M97.5072 14.4233C96.6534 17.3016 96.0645 19.4048 96.0645 19.4048" stroke="white" stroke-linecap="round" stroke-linejoin="round"/>
<path d="M98.7166 10.4336C98.4624 11.2548 98.5831 10.861 98.3496 11.6356" stroke="white" stroke-linecap="round" stroke-linejoin="round"/>
<path d="M96.7064 28.8892L96.5273 30.2563" stroke="white" stroke-linecap="round" stroke-linejoin="round"/>
<path d="M22.0625 55.5542L22.4897 57.3417" stroke="white" stroke-linecap="round" stroke-linejoin="round"/>
<path d="M33.4575 20.0376C31.9751 21.9685 31.8896 27.266 36.1618 34.4432" stroke="white" stroke-linecap="round" stroke-linejoin="round"/>
<path d="M38.8284 63.5718C38.2566 67.8565 38.5702 72.213 39.7498 76.3717" stroke="white" stroke-linecap="round" stroke-linejoin="round"/>
<path d="M39.7497 58.0967C39.572 58.8801 39.4158 59.6514 39.2812 60.4106" stroke="white" stroke-linecap="round" stroke-linejoin="round"/>
<path d="M49.8359 49.6714C50.0063 50.4144 50.2337 51.1432 50.516 51.8512" stroke="white" stroke-linecap="round" stroke-linejoin="round"/>
<path d="M54.1292 36.0664C51.4551 38.0316 49.243 40.3386 49.2383 44.6107" stroke="white" stroke-linecap="round" stroke-linejoin="round"/>
<path d="M76.4025 12.1558C75.7382 15.6511 75.7382 19.2404 76.4025 22.7357" stroke="white" stroke-linecap="round" stroke-linejoin="round"/>
<path d="M90.8338 83.9647C87.6273 83.6613 85.4236 87.2526 84.3979 95.62C83.4821 95.4743 82.4909 95.3733 81.451 95.2964C82.2 88.0007 81.4249 84.0107 77.7873 83.6667C74.2939 83.3361 71.9866 87.6112 71.1011 97.6684C70.2155 107.725 71.0276 113.772 75.6516 113.872C77.915 113.922 79.1711 109.927 80.1391 104.482C80.6541 104.515 81.1921 104.532 81.7749 104.517C82.5148 104.499 83.1934 104.447 83.8366 104.374C83.8611 110.534 85.1639 114.093 88.6981 114.17C91.7383 114.237 92.9619 107.012 94.1099 98.768C95.4071 89.4534 94.9688 84.3558 90.8338 83.9647Z" fill="#22093A" stroke="#22093A" stroke-linecap="round" stroke-linejoin="round"/>
<path d="M65.9675 111.851C69.2885 111.575 71.5926 108.944 72.1037 105.246C72.6565 101.246 74.6259 81.9964 64.6006 80.7196C59.3824 80.055 54.9541 85.3951 52.2572 91.8398C49.3314 98.8319 47.0175 109.578 51.0896 110.442C57.6311 111.831 62.0527 93.1302 62.0527 93.1302C62.0527 93.1302 59.497 112.388 65.9675 111.851Z" fill="#22093A" stroke="#22093A" stroke-linecap="round" stroke-linejoin="round"/>
<path d="M54.3362 83.3941C53.0637 80.6256 40.9398 79.1549 37.1928 85.7003C34.7478 89.9713 29.9729 105.991 37.5994 108.273C45.2259 110.556 52.0537 109.374 52.4582 105.122C52.8628 100.87 42.8698 99.9287 42.8698 99.9287C42.8698 99.9287 51.501 100.118 52.22 95.7368C52.9389 91.3561 43.8096 92.17 43.8096 92.17C43.8096 92.17 57.7502 90.8223 54.3362 83.3941Z" fill="#22093A" stroke="#22093A" stroke-linecap="round" stroke-linejoin="round"/>
<path d="M33.9879 78.2469C27.3233 77.8054 25.4122 93.2321 25.4122 93.2321C25.4122 93.2321 25.138 75.2965 18.8021 76.423C10.5032 77.8985 13.033 92.4187 18.7995 98.5811C17.8818 100.908 15.328 114.448 23.9726 110.064C28.6752 107.68 34.8427 95.9926 36.0002 93.1456C38.2766 87.5478 40.6964 78.6913 33.9879 78.2469Z" fill="#22093A" stroke="#22093A" stroke-linecap="round" stroke-linejoin="round"/>
<path d="M107.876 83.3734C105.589 82.7793 103.437 83.8386 99.6932 93.1807C96.3507 101.522 99.6455 102.766 100.522 102.994C101.398 103.222 106.425 105 109.732 95.7881C113.04 86.5766 111.266 84.2537 107.876 83.3734Z" fill="#22093A" stroke="#22093A" stroke-linecap="round" stroke-linejoin="round"/>
<path d="M99.3789 112.753C101.667 112.753 103.521 110.898 103.521 108.61C103.521 106.322 101.667 104.468 99.3789 104.468C97.091 104.468 95.2363 106.322 95.2363 108.61C95.2363 110.898 97.091 112.753 99.3789 112.753Z" fill="#22093A" stroke="#22093A" stroke-linecap="round" stroke-linejoin="round"/>
<path d="M89.2225 82.973C86.016 82.6696 83.8122 86.2609 82.7866 94.6283C81.8707 94.4826 80.8795 94.3816 79.8397 94.3047C80.5887 87.009 79.8136 83.019 76.176 82.675C72.6826 82.3444 70.3753 86.6195 69.4897 96.6767C68.6042 106.734 69.4162 112.78 74.0403 112.881C76.3036 112.93 77.5597 108.935 78.5278 103.491C79.0427 103.523 79.5807 103.54 80.1636 103.526C80.9035 103.507 81.5821 103.455 82.2252 103.382C82.2498 109.542 83.5526 113.102 87.0867 113.179C90.127 113.245 91.3506 106.02 92.4985 97.7763C93.7957 88.4617 93.3575 83.3641 89.2225 82.973Z" fill="#9736FF" stroke="#22093A" stroke-linecap="round" stroke-linejoin="round"/>
<path d="M62.9911 79.7279C57.773 79.0634 53.3446 84.4033 50.6478 90.8481C47.7221 97.8401 45.4081 108.586 49.4803 109.451C52.5175 110.095 55.0967 106.408 56.9895 102.274L60.0513 103.083C60.3597 107.313 61.4388 111.101 64.3581 110.859C67.6792 110.584 69.9832 107.952 70.4944 104.254C71.0472 100.254 73.0166 81.0047 62.9911 79.7279ZM60.4433 92.1384C60.4433 92.1384 60.0522 95.0994 59.9643 98.6647L58.5523 98.3939C59.7655 94.997 60.4433 92.1384 60.4433 92.1384Z" fill="#9736FF" stroke="#22093A" stroke-linecap="round" stroke-linejoin="round"/>
<path d="M52.7267 82.4029C51.4542 79.6343 39.3304 78.1637 35.5834 84.7091C33.1384 88.9801 28.3635 104.999 35.99 107.282C43.6166 109.565 50.4443 108.383 50.8489 104.131C51.2535 99.8783 41.2604 98.9375 41.2604 98.9375C41.2604 98.9375 49.8916 99.1263 50.6106 94.7456C51.3295 90.3649 42.2002 91.1788 42.2002 91.1788C42.2002 91.1788 56.1408 89.8311 52.7267 82.4029Z" fill="#9736FF" stroke="#22093A" stroke-linecap="round" stroke-linejoin="round"/>
<path d="M32.3785 77.2552C25.7139 76.8137 23.8028 92.2404 23.8028 92.2404C23.8028 92.2404 23.5286 74.3048 17.1927 75.4313C8.89376 76.9068 11.4237 91.427 17.1901 97.5894C16.2724 99.9165 13.7186 113.456 22.3631 109.073C27.0658 106.688 33.2333 95.0009 34.3909 92.1539C36.6672 86.5561 39.087 77.6996 32.3785 77.2552Z" fill="#9736FF" stroke="#22093A" stroke-linecap="round" stroke-linejoin="round"/>
<path d="M107.227 82.9908C104.94 82.3967 101.828 82.8472 98.0839 92.1894C94.7413 100.53 98.0361 101.775 98.9124 102.003C99.7888 102.23 104.816 104.008 108.123 94.7968C111.43 85.5853 110.617 83.8711 107.227 82.9908Z" fill="#9736FF" stroke="#22093A" stroke-linecap="round" stroke-linejoin="round"/>
<path d="M97.7676 111.762C100.055 111.762 101.91 109.907 101.91 107.619C101.91 105.331 100.055 103.477 97.7676 103.477C95.4797 103.477 93.625 105.331 93.625 107.619C93.625 109.907 95.4797 111.762 97.7676 111.762Z" fill="#9736FF" stroke="#22093A" stroke-linecap="round" stroke-linejoin="round"/>
<path d="M16.9936 78.3608C15.3987 79.0444 13.7468 81.7216 15.2278 87.9305" stroke="#D9BBFF" stroke-linecap="round" stroke-linejoin="round"/>
<path d="M18.9629 106.308C19.2145 107.619 21.6638 106.785 23.4866 104.563" stroke="#D9BBFF" stroke-linecap="round" stroke-linejoin="round"/>
<path d="M47.6445 83.0405C49.137 83.1108 50.3639 83.6063 50.1761 85.253" stroke="#D9BBFF" stroke-linecap="round" stroke-linejoin="round"/>
<path d="M43.5957 83.3734C44.1503 83.1957 44.7238 83.084 45.3046 83.0405" stroke="#D9BBFF" stroke-linecap="round" stroke-linejoin="round"/>
<path d="M63.1623 82.6576C61.6812 82.3483 58.9755 82.3483 56.2129 87.1332" stroke="#D9BBFF" stroke-linecap="round" stroke-linejoin="round"/>
<path d="M75.8633 85.2529C76.7462 85.3953 77.6861 86.4491 77.4867 90.7783" stroke="#D9BBFF" stroke-linecap="round" stroke-linejoin="round"/>
<path d="M89.1641 85.5381C90.0755 85.6805 90.9014 86.4495 90.5881 89.2121" stroke="#D9BBFF" stroke-linecap="round" stroke-linejoin="round"/>
<path d="M99.3131 97.0405C99.1669 97.6541 99.0778 98.2799 99.0469 98.9099" stroke="#D9BBFF" stroke-linecap="round" stroke-linejoin="round"/>
<path d="M106.457 85.3951C105.46 85.3096 103.816 85.121 101.444 90.6641C100.913 91.9052 100.499 93.0013 100.178 93.9556" stroke="#D9BBFF" stroke-linecap="round" stroke-linejoin="round"/>
<path d="M97.4792 105.831C96.5006 106.042 95.8787 107.007 96.0901 107.985C96.147 108.249 96.2619 108.496 96.4264 108.709" stroke="#D9BBFF" stroke-linecap="round" stroke-linejoin="round"/>
<path d="M98.2339 69.9741C97.6 73.8198 96.3886 77.5477 94.6406 81.0314L98.2339 69.9741Z" fill="#FCC707"/>
<path d="M98.2339 69.9741C97.6 73.8198 96.3886 77.5477 94.6406 81.0314" stroke="#22093A" stroke-linecap="round" stroke-linejoin="round"/>
<path d="M98.9315 63.9907C98.9116 65.0447 98.8302 66.0966 98.6875 67.1411L98.9315 63.9907Z" fill="#FCC707"/>
<path d="M98.9315 63.9907C98.9116 65.0447 98.8302 66.0966 98.6875 67.1411" stroke="#22093A" stroke-linecap="round" stroke-linejoin="round"/>
</svg>
