<svg width="120" height="142" viewBox="0 0 120 142" fill="none" xmlns="http://www.w3.org/2000/svg">
<g clip-path="url(#clip0_5_10999)">
<path opacity="0.5" d="M111.059 78.7679C118.441 69.0613 121.368 56.2249 119.406 41.1041C117.674 24.7844 106.618 10.9579 91.0793 5.67878C79.5229 1.15347 66.9187 0.00421548 54.7344 2.36484C47.9836 1.13679 44.7875 3.20451 43.2826 5.61094C40.274 6.77715 37.4043 8.27397 34.7262 10.0739C14.1294 24.1529 13.8355 50.1366 14.0426 55.9282C14.0039 56.9054 14.0099 57.4588 14.0099 57.4588C14.0453 60.6013 16.4322 63.2175 19.5583 63.5401C18.7649 63.5535 17.9719 63.4983 17.188 63.3751C16.658 63.2461 16.1181 63.1618 15.574 63.1233C7.45853 62.5689 2.84431 69.5595 1.85939 83.88C1.16671 93.9327 2.07597 99.6779 4.99026 103.417C7.505 107.365 11.9103 108.48 15.0661 108.976C17.8064 109.521 20.6244 108.515 22.3996 106.357C24.2079 107.665 26.3075 108.513 28.517 108.827C28.5152 109.062 28.5178 109.215 28.5195 109.277C28.5702 111.649 29.9791 113.781 32.1415 114.758C29.8005 116.651 28.1239 119.241 27.355 122.152C26.3181 126.068 26.9889 130.24 29.2011 133.634C31.3586 136.99 34.701 139.41 38.5627 140.413C38.7733 140.468 38.9813 140.513 39.1961 140.552C39.4909 140.649 39.79 140.738 40.0908 140.818C41.4598 141.183 42.8705 141.369 44.2873 141.37C46.829 141.374 49.3335 140.76 51.5847 139.58C58.6016 135.995 61.3837 127.4 57.7985 120.383C57.4552 119.711 57.0591 119.067 56.614 118.458C58.1707 117.066 58.9093 114.976 58.5726 112.916L58.6328 112.924C59.4434 113.036 60.2655 113.04 61.077 112.934C61.5631 113.14 62.0664 113.303 62.5809 113.422C65.8333 114.153 69.2304 113.118 71.5223 110.697C72.7255 111.148 73.9832 111.438 75.2625 111.558C75.5839 111.59 75.9019 111.608 76.2165 111.61C78.1671 114.802 81.4719 116.925 85.186 117.372C85.9393 118.895 87.0394 120.22 88.3979 121.241C90.4694 123.3 93.2716 124.457 96.1928 124.458C102.262 124.453 107.177 119.529 107.172 113.46C107.172 113.04 107.147 112.62 107.099 112.203C110.132 110.52 113.219 107.219 115.459 100.98C118.273 93.1393 118.555 87.7997 116.37 83.6651C115.196 81.4854 113.326 79.7614 111.059 78.7679Z" fill="#231F20"/>
<path d="M109.42 77.5618C116.802 67.8552 119.729 55.0188 117.767 39.898C116.035 23.5783 104.98 9.75188 89.4406 4.47272C77.8842 -0.0525936 65.28 -1.20184 53.0957 1.1588C46.3449 -0.0693249 43.1488 1.99845 41.6439 4.40481C38.6353 5.57104 35.7656 7.06788 33.0875 8.86779C12.4907 22.9468 12.1968 48.9305 12.4039 54.7221C12.3651 55.6993 12.3712 56.2528 12.3712 56.2528C12.4066 59.3953 14.7935 62.0114 17.9196 62.334C17.1263 62.3474 16.3332 62.2922 15.5493 62.169C15.0193 62.04 14.4794 61.9558 13.9353 61.9172C5.81986 61.3629 1.20567 68.3534 0.220739 82.6739C-0.471963 92.7266 0.43723 98.4718 3.35159 102.211C5.86627 106.158 10.2717 107.274 13.4274 107.77C16.1677 108.315 18.9857 107.309 20.7609 105.151C22.5692 106.459 24.6688 107.307 26.8782 107.621C26.8765 107.856 26.8791 108.009 26.8808 108.071C26.9315 110.443 28.3404 112.575 30.5027 113.552C28.1617 115.445 26.4851 118.035 25.7163 120.946C24.6794 124.862 25.3502 129.034 27.5623 132.427C29.7198 135.784 33.0623 138.204 36.924 139.207C37.1345 139.262 37.3425 139.307 37.5574 139.346C37.8522 139.443 38.1512 139.532 38.452 139.612C39.8211 139.977 41.2317 140.163 42.6486 140.164C45.1903 140.168 47.6948 139.554 49.9459 138.374C56.9629 134.789 59.7449 126.194 56.1598 119.177C55.8165 118.505 55.4204 117.861 54.9752 117.252C56.532 115.86 57.2706 113.77 56.9339 111.709L56.994 111.718C57.8047 111.83 58.6267 111.833 59.4382 111.728C59.9244 111.934 60.4276 112.097 60.9422 112.216C64.1945 112.947 67.5916 111.912 69.8836 109.491C71.0868 109.942 72.3445 110.232 73.6238 110.352C73.9452 110.384 74.2632 110.402 74.5778 110.404C76.5284 113.596 79.8333 115.719 83.5473 116.166C84.3006 117.689 85.4007 119.014 86.7592 120.035C88.8307 122.094 91.6329 123.251 94.5541 123.252C100.623 123.247 105.539 118.323 105.533 112.254C105.533 111.834 105.509 111.414 105.46 110.997C108.493 109.314 111.581 106.013 113.821 99.7738C116.634 91.9333 116.916 86.5937 114.732 82.459C113.558 80.2793 111.688 78.5553 109.42 77.5618Z" fill="white"/>
<path d="M54.6784 59.82L18.5257 56.2087C18.5257 56.2087 18.2108 28.6537 38.5658 14.7395C57.8574 1.5523 106.629 1.97094 111.653 40.6953C116.844 80.7133 84.2318 87.5831 79.836 89.0484C75.4403 90.5136 56.8108 91.1416 52.9576 102.236C49.4868 112.229 50.8459 112.702 50.8459 112.702L33.0339 107.944C33.0339 107.944 34.5511 87.5387 50.4915 79.4196C67.3411 70.8374 74.3937 67.4883 75.8037 58.9062C76.8221 52.7078 73.3369 47.0512 66.5165 46.3469C59.5236 45.6248 56.1164 50.7432 54.6784 59.82Z" fill="#22093A" stroke="#22093A" stroke-linecap="round" stroke-linejoin="round"/>
<path d="M51.2862 127.745C52.5071 123.149 49.4456 118.347 44.4483 117.019C39.4509 115.692 34.41 118.342 33.1891 122.938C31.9682 127.534 35.0297 132.336 40.0271 133.664C45.0245 134.991 50.0654 132.341 51.2862 127.745Z" fill="#22093A" stroke="#22093A" stroke-linecap="round" stroke-linejoin="round"/>
<path d="M52.6707 59.0393L18.6138 55.6136C18.6138 55.6136 16.2029 27.8729 36.558 13.9588C55.8496 0.771542 104.621 1.19018 109.645 39.9145C114.837 79.9325 82.224 86.8024 77.8283 88.2676C73.4326 89.7328 54.803 90.3608 50.9498 101.455C47.479 111.448 48.8382 111.921 48.8382 111.921L33.0337 107.944C33.0337 107.944 32.5433 86.758 48.4838 78.6389C65.3334 70.0568 72.3859 66.7076 73.7959 58.1254C74.8143 51.927 71.3291 46.2704 64.5087 45.5662C57.5159 44.8441 54.1086 49.9624 52.6707 59.0393Z" fill="#71C1F2" stroke="#22093A" stroke-linecap="round" stroke-linejoin="round"/>
<path d="M49.7588 127.339C50.9796 122.743 47.9182 117.941 42.9208 116.614C37.9234 115.286 32.8826 117.936 31.6617 122.532C30.4409 127.129 33.5023 131.931 38.4997 133.258C43.497 134.585 48.5379 131.936 49.7588 127.339Z" fill="#71C1F2" stroke="#22093A" stroke-width="0.999994" stroke-miterlimit="3.99998" stroke-linecap="round" stroke-linejoin="round"/>
<path d="M46.6113 22.541C46.6113 22.541 38.6851 35.7282 48.838 36.5654C58.8555 37.3916 56.8242 22.541 56.8242 22.541" stroke="#22093A" stroke-linecap="round" stroke-linejoin="round"/>
<path d="M69.759 25.2622C69.759 25.2622 62.9652 39.2866 71.4799 40.3333C79.9493 41.3744 81.1761 27.5647 81.1761 27.5647" stroke="#22093A" stroke-linecap="round" stroke-linejoin="round"/>
<path d="M86.3141 67.105C88.4044 66.5943 89.2166 62.5692 88.1282 58.1146C87.0398 53.6601 84.4629 50.463 82.3727 50.9737C80.2824 51.4844 79.4702 55.5096 80.5586 59.9641C81.647 64.4187 84.2239 67.6158 86.3141 67.105Z" fill="#22093A" stroke="#22093A" stroke-linecap="round" stroke-linejoin="round"/>
<path d="M85.5 66.3203C86.9077 66.3203 88.0489 65.1792 88.0489 63.7715C88.0489 62.3638 86.9077 61.2227 85.5 61.2227C84.0923 61.2227 82.9512 62.3638 82.9512 63.7715C82.9512 65.1792 84.0923 66.3203 85.5 66.3203Z" fill="#FD32B0"/>
<path d="M57.3884 71.9749C53.5158 71.3255 53.0014 76.7176 50.8133 79.7215C50.0128 76.4324 48.3926 70.6394 44.5943 70.0439C40.2039 69.3557 37.6728 76.1345 34.9762 82.8594C32.0506 90.1555 29.3549 100.374 34.136 101.484C39.6481 102.764 44.1873 87.8278 44.1873 87.8278C44.1873 87.8278 37.3053 98.0185 46.8014 99.363C52.3974 100.155 54.0632 89.726 54.0632 89.726C54.0632 89.726 47.3311 104.17 57.8338 105.621C60.6565 106.012 62.7919 102.602 63.4596 98.7403C64.1819 94.563 65.8087 73.3867 57.3884 71.9749Z" fill="#22093A" stroke="#22093A" stroke-linecap="round" stroke-linejoin="round"/>
<path d="M29.2967 68.2676C25.686 68.0232 24.6714 73.1805 23.7337 82.0917C22.7009 81.9592 21.5846 81.876 20.4142 81.8195C21.0685 74.0532 18.7554 68.5533 14.6593 68.2763C10.7255 68.01 9.58246 73.8873 8.8457 84.5897C8.10885 95.292 4.88875 100.2 14.3747 101.688C16.8884 102.083 18.228 97.413 19.176 91.6069C19.7554 91.6291 20.3603 91.6338 21.0149 91.6043C21.3258 91.6161 21.6371 91.5963 21.944 91.5453C22.1298 98.0866 22.8168 101.093 29.0417 101.688C32.444 102.014 33.649 93.9824 34.7272 85.1993C35.9456 75.2756 33.9529 68.5826 29.2967 68.2676Z" fill="#22093A" stroke="#22093A" stroke-linecap="round" stroke-linejoin="round"/>
<path d="M84.344 78.5543C80.7047 77.9442 80.0567 82.9459 78.0005 85.7689C77.2482 82.678 75.5554 77.143 71.986 76.5834C67.8602 75.9366 65.6518 82.398 63.1177 88.7177C60.3685 95.5742 57.8351 105.177 62.3281 106.22C67.5081 107.423 71.7738 93.3867 71.7738 93.3867C71.7738 93.3867 64.9761 103.299 74.2303 104.227C79.515 104.757 81.0545 95.1705 81.0545 95.1705C81.0545 95.1705 74.5341 108.654 84.598 110.108C87.2482 110.491 89.2572 107.271 89.8848 103.642C90.5635 99.716 92.2569 79.8811 84.344 78.5543Z" fill="#22093A" stroke="#22093A" stroke-linecap="round" stroke-linejoin="round"/>
<path d="M105.565 82.6998C102.881 82.0026 100.63 83.6765 96.2366 94.6385C92.3145 104.426 96.1806 105.886 97.2088 106.153C98.2371 106.42 104.136 108.507 108.017 97.698C111.897 86.8893 109.542 83.7327 105.565 82.6998Z" fill="#22093A" stroke="#22093A" stroke-linecap="round" stroke-linejoin="round"/>
<path d="M94.5152 117.103C97.1997 117.103 99.376 114.927 99.376 112.242C99.376 109.558 97.1997 107.381 94.5152 107.381C91.8306 107.381 89.6543 109.558 89.6543 112.242C89.6543 114.927 91.8306 117.103 94.5152 117.103Z" fill="#22093A" stroke="#22093A" stroke-linecap="round" stroke-linejoin="round"/>
<path d="M56.1595 71.6016C52.2868 70.9523 50.517 75.229 48.3289 78.233C47.5284 74.9439 47.4697 70.3877 43.6714 69.7923C39.2811 69.1041 35.1884 74.646 32.4918 81.3709C29.5662 88.667 26.8705 98.8859 31.6516 99.996C37.1638 101.276 41.7029 86.3393 41.7029 86.3393C41.7029 86.3393 39.4382 97.0382 44.317 97.8745C49.8876 98.8294 51.5788 88.2375 51.5788 88.2375C51.5788 88.2375 49.1865 103.191 55.3494 104.133C58.1662 104.563 60.3075 101.114 60.9753 97.2518C61.6975 93.0745 64.5798 73.0134 56.1595 71.6016Z" fill="#FD32B0" stroke="#22093A" stroke-linecap="round" stroke-linejoin="round"/>
<path d="M28.1799 68.0695C24.5692 67.8251 22.1852 71.6926 21.2475 80.6038C20.2147 80.4713 19.0984 80.3881 17.9279 80.3317C18.5823 72.5653 17.609 68.3466 13.5128 68.0695C9.57901 67.8032 7.09623 72.3995 6.35936 83.1018C5.62252 93.8041 6.69026 100.206 11.8884 100.2C14.4328 100.198 15.7417 95.9251 16.6897 90.1191C17.2691 90.1412 17.874 90.1459 18.5286 90.1164C19.3595 90.079 20.1206 90.0073 20.8413 89.9143C21.0271 96.4556 22.5822 100.204 26.5553 100.2C29.9732 100.197 31.1626 92.4945 32.2408 83.7114C33.4594 73.7877 32.8361 68.3845 28.1799 68.0695Z" fill="#FD32B0" stroke="#22093A" stroke-linecap="round" stroke-linejoin="round"/>
<path d="M82.8748 78.0492C79.2355 77.439 77.5723 81.458 75.5161 84.2809C74.7638 81.19 74.7086 76.9084 71.1392 76.3489C67.0135 75.7021 63.1675 80.9101 60.6333 87.2297C57.8841 94.0862 55.3508 103.689 59.8438 104.732C65.0237 105.935 69.2894 91.8988 69.2894 91.8988C69.2894 91.8988 67.1612 101.953 71.746 102.739C76.9808 103.636 78.5701 93.6826 78.5701 93.6826C78.5701 93.6826 76.322 107.735 82.1136 108.62C84.7606 109.025 86.7729 105.783 87.4004 102.154C88.0792 98.2281 90.7878 79.3759 82.8748 78.0492Z" fill="#FD32B0" stroke="#22093A" stroke-linecap="round" stroke-linejoin="round"/>
<path d="M104.479 82.3569C101.795 81.6598 98.1432 82.1884 93.7503 93.1505C89.8282 102.938 93.6942 104.398 94.7225 104.665C95.7508 104.932 101.649 107.019 105.53 96.21C109.411 85.4013 108.456 83.3899 104.479 82.3569Z" fill="#FD32B0" stroke="#22093A" stroke-linecap="round" stroke-linejoin="round"/>
<path d="M93.3804 116.116C96.065 116.116 98.2413 113.94 98.2413 111.255C98.2413 108.571 96.065 106.395 93.3804 106.395C90.6958 106.395 88.5195 108.571 88.5195 111.255C88.5195 113.94 90.6958 116.116 93.3804 116.116Z" fill="#FD32B0" stroke="#22093A" stroke-linecap="round" stroke-linejoin="round"/>
<path d="M9.33398 87.6509C9.33398 90.1907 9.40087 93.8669 10.4702 95.2705" stroke="white" stroke-linecap="round" stroke-linejoin="round"/>
<path d="M38.334 76.5389C39.1141 75.3383 40.0738 74.2646 41.1796 73.3551C42.0404 72.5776 43.3685 72.6452 44.1459 73.506C44.4125 73.8013 44.5898 74.1661 44.6572 74.5582" stroke="white" stroke-linecap="round" stroke-linejoin="round"/>
<path d="M35.9023 80.8409C36.1044 80.3647 36.3718 79.8136 36.6872 79.2275" stroke="white" stroke-linecap="round" stroke-linejoin="round"/>
<path d="M61.7461 93.5757C61.975 92.8796 62.2297 92.1696 62.504 91.4604" stroke="white" stroke-linecap="round" stroke-linejoin="round"/>
<path d="M61.0962 101.227C60.3472 100.598 60.4112 98.7113 60.9598 96.3433" stroke="white" stroke-linecap="round" stroke-linejoin="round"/>
<path d="M97.6602 91.0673C98.5289 89.0261 100.935 84.3179 103.208 84.9857" stroke="white" stroke-linecap="round" stroke-linejoin="round"/>
<path d="M91.7121 112.242C91.2024 111.412 91.4623 110.326 92.2924 109.816C92.4832 109.699 92.6945 109.62 92.9151 109.582" stroke="white" stroke-linecap="round" stroke-linejoin="round"/>
<path d="M79.3477 84.1293C79.9214 82.9013 80.9518 80.774 82.957 81.2419" stroke="white" stroke-linecap="round" stroke-linejoin="round"/>
<path d="M86.7661 16.3488C83.9263 14.2243 79.3312 11.8345 78.0945 13.2984C76.8627 14.7564 82.5387 19.1396 85.1388 20.6354C90.7108 23.8407 93.6331 21.4861 86.7661 16.3488Z" fill="#22093A" stroke="#22093A" stroke-linecap="round" stroke-linejoin="round"/>
<path d="M55.917 8.27671C52.5756 7.08818 47.4789 6.16598 46.7311 7.93033C45.9861 9.68769 52.7054 12.194 55.6317 12.8529C61.9029 14.265 63.9971 11.1508 55.917 8.27671Z" fill="#22093A" stroke="#22093A" stroke-linecap="round" stroke-linejoin="round"/>
<path d="M22.816 45.0698C22.733 45.8734 22.6908 46.6806 22.6895 47.4884" stroke="white" stroke-linecap="round" stroke-linejoin="round"/>
<path d="M35.2686 19.9507C31.6911 22.9861 25.6431 32.0473 23.4844 41.1724" stroke="white" stroke-linecap="round" stroke-linejoin="round"/>
<path d="M37.8727 120.059C35.8675 120.705 33.8122 123.066 35.2684 126.973" stroke="white" stroke-linecap="round" stroke-linejoin="round"/>
<path d="M92.9155 52.5347C95.1336 58.1475 95.1212 64.3652 92.1934 68.2595L92.9155 52.5347Z" fill="#71C1F2"/>
<path d="M92.9155 52.5347C95.1336 58.1475 95.1212 64.3652 92.1934 68.2595" stroke="#22093A" stroke-linecap="round" stroke-linejoin="round"/>
</g>
<defs>
<clipPath id="clip0_5_10999">
<rect width="120" height="141.37" fill="white"/>
</clipPath>
</defs>
</svg>
