<svg width="120" height="120" viewBox="0 0 120 120" fill="none" xmlns="http://www.w3.org/2000/svg">
<path d="M93.6873 84.2139C83.8242 92.4991 29.13 91.7396 25.7849 88.0287C17.0994 78.3936 49.5921 19.0867 58.9473 18.4071C70.4768 17.5695 105.112 74.6165 93.6873 84.2139Z" fill="#E9022C" stroke="#22093A" stroke-linecap="round" stroke-linejoin="round"/>
<path d="M85.5667 78.3991C78.2725 84.5263 37.8236 83.9646 35.3497 81.2203C28.9265 74.0946 52.9564 30.2344 59.8749 29.7318C68.4016 29.1124 94.0162 71.3013 85.5667 78.3991Z" fill="white" stroke="#22093A" stroke-linecap="round" stroke-linejoin="round"/>
<path d="M61.2634 43.5872C58.9932 43.8632 56.3506 45.3723 56.2916 55.111C56.239 63.8061 59.6468 63.7588 60.5165 63.653C61.3862 63.5473 66.5429 63.3661 66.2551 53.8997C65.9674 44.4334 64.6273 43.1783 61.2634 43.5872Z" fill="#E9022C" stroke="#22093A" stroke-linecap="round" stroke-linejoin="round"/>
<path d="M60.159 75.945C62.3729 75.945 64.1677 74.1503 64.1677 71.9364C64.1677 69.7225 62.3729 67.9277 60.159 67.9277C57.9451 67.9277 56.1504 69.7225 56.1504 71.9364C56.1504 74.1503 57.9451 75.945 60.159 75.945Z" fill="#E9022C" stroke="#22093A" stroke-linecap="round" stroke-linejoin="round"/>
<path d="M35.6703 112.832C38.1857 112.197 39.8758 109.84 39.67 107.253C39.703 104.179 39.3395 89.4501 31.6444 89.4497C27.6391 89.4495 24.8077 93.9087 23.3905 99.0358C21.853 104.598 21.1385 112.938 24.2974 113.199C29.3718 113.619 30.9133 99.0686 30.9133 99.0686C30.9133 99.0686 30.8346 113.86 35.6703 112.832Z" fill="#22093A" stroke="#22093A" stroke-linecap="round" stroke-linejoin="round"/>
<path d="M45.6288 89.0768C42.3766 87.7615 38.8957 92.8591 38.1841 99.2917C37.4724 105.724 37.3504 112.225 41.206 112.631C45.0616 113.037 54.7302 112.562 55.6524 108.546C57.053 102.445 45.4121 105.793 45.4121 105.793C45.4121 105.793 50.467 91.0335 45.6288 89.0768Z" fill="#22093A" stroke="#22093A" stroke-linecap="round" stroke-linejoin="round"/>
<path d="M68.7175 91.0764C67.6128 88.7688 57.4149 87.6933 54.355 93.2378C52.3584 96.8556 48.5601 110.367 54.9929 112.184C61.4258 114 67.1425 112.918 67.4263 109.343C67.7101 105.767 59.3081 105.109 59.3081 105.109C59.3081 105.109 66.5569 105.154 67.103 101.467C67.649 97.7793 59.9951 98.5825 59.9951 98.5825C59.9951 98.5825 71.6815 97.2679 68.7175 91.0764Z" fill="#22093A" stroke="#22093A" stroke-linecap="round" stroke-linejoin="round"/>
<path d="M93.0722 88.2885C84.1387 88.4415 81.455 90.8004 82.2549 93.6619C83.4569 97.9618 89.0926 97.0737 89.0926 97.0737C89.0926 97.0737 86.0291 112.204 92.0109 112.23C99.4686 112.262 95.1392 96.432 95.1392 96.432C95.1392 96.432 103.837 96.5863 103.396 92.9564C103.025 89.9062 99.0594 88.186 93.0722 88.2885Z" fill="#22093A" stroke="#22093A" stroke-linecap="round" stroke-linejoin="round"/>
<path d="M74.0668 89.7677C68.7058 90.693 68.3329 93.9879 67.9944 100.74C67.6577 107.457 67.8946 112.654 71.1697 112.558C74.4449 112.463 75.8247 103.268 75.8247 103.268C75.8247 103.268 79.5626 113.105 83.6962 111.54C89.1808 109.463 81.1187 101.125 81.1187 101.125C85.5405 101.144 92.1683 86.6434 74.0668 89.7677Z" fill="#22093A" stroke="#22093A" stroke-linecap="round" stroke-linejoin="round"/>
<path d="M75.3775 93.9464C75.3775 93.9464 78.4733 93.2971 78.182 94.9685C77.8906 96.64 75.3652 96.7553 75.3652 96.7553L75.3775 93.9464Z" fill="#22093A" stroke="#22093A" stroke-linecap="round" stroke-linejoin="round"/>
<path d="M30.7517 87.4326C26.7465 87.4324 23.9151 91.8917 22.4979 97.0188C20.9604 102.581 20.2459 110.921 23.4047 111.182C25.7147 111.373 27.2908 108.461 28.3244 105.232L30.7394 105.168C31.37 108.411 32.553 111.288 34.7777 110.815C37.2931 110.18 38.9832 107.823 38.7774 105.236C38.8104 102.162 38.4469 87.4331 30.7517 87.4326ZM29.0953 101.352C29.758 98.4766 30.0207 97.0515 30.0207 97.0515C30.0457 98.4738 30.1456 99.8939 30.3199 101.306L29.0953 101.352Z" fill="#71C1F2" stroke="#22093A" stroke-linecap="round" stroke-linejoin="round"/>
<path d="M44.7362 87.0597C41.484 85.7444 38.0031 90.842 37.2915 97.2746C36.5799 103.707 36.4578 110.207 40.3134 110.614C44.169 111.02 53.8376 110.545 54.7598 106.529C56.1604 100.428 44.5195 103.775 44.5195 103.775C44.5195 103.775 49.5744 89.0165 44.7362 87.0597Z" fill="#71C1F2" stroke="#22093A" stroke-linecap="round" stroke-linejoin="round"/>
<path d="M67.8249 89.0593C66.7202 86.7517 56.5223 85.6762 53.4624 91.2207C51.4658 94.8385 47.6675 108.35 54.1003 110.167C60.5332 111.983 66.2499 110.901 66.5337 107.326C66.8175 103.75 58.4155 103.092 58.4155 103.092C58.4155 103.092 65.6643 103.137 66.2104 99.4495C66.7564 95.7623 59.1025 96.5655 59.1025 96.5655C59.1025 96.5655 70.7888 95.2508 67.8249 89.0593Z" fill="#71C1F2" stroke="#22093A" stroke-linecap="round" stroke-linejoin="round"/>
<path d="M92.1776 86.2714C83.2441 86.4244 80.5605 88.7833 81.3604 91.6448C82.5624 95.9447 88.198 95.0566 88.198 95.0566C88.198 95.0566 85.1345 110.187 91.1163 110.213C98.574 110.245 94.2446 94.4149 94.2446 94.4149C94.2446 94.4149 102.942 94.5692 102.501 90.9393C102.131 87.8891 98.1647 86.1689 92.1776 86.2714Z" fill="#71C1F2" stroke="#22093A" stroke-linecap="round" stroke-linejoin="round"/>
<path d="M73.1742 87.7506C67.8132 88.6759 67.4403 91.9708 67.1018 98.7234C66.7651 105.44 67.002 110.637 70.2772 110.541C73.5523 110.445 74.9322 101.251 74.9322 101.251C74.9322 101.251 78.6701 111.088 82.8037 109.522C88.2882 107.445 80.2261 99.1078 80.2261 99.1078C84.6479 99.1271 91.2757 84.6263 73.1742 87.7506Z" fill="#71C1F2" stroke="#22093A" stroke-linecap="round" stroke-linejoin="round"/>
<path d="M74.4849 91.9293C74.4849 91.9293 77.5807 91.28 77.2894 92.9515C76.998 94.6229 74.4727 94.7382 74.4727 94.7382L74.4849 91.9293Z" fill="#22093A" stroke="#22093A" stroke-linecap="round" stroke-linejoin="round"/>
<path d="M29.7073 90.6943C27.76 91.8131 25.1113 96.0445 24.7695 99.3117" stroke="white" stroke-linecap="round" stroke-linejoin="round"/>
<path d="M39.6716 100.809C39.4653 102.494 39.1235 106.468 40.4906 107.254" stroke="white" stroke-linecap="round" stroke-linejoin="round"/>
<path d="M60.3061 90.415C57.5915 90.415 55.7221 91.2162 54.877 95.2889" stroke="white" stroke-linecap="round" stroke-linejoin="round"/>
<path d="M69.498 101.329C69.498 103.605 69.498 106.468 70.2242 107.254" stroke="white" stroke-linecap="round" stroke-linejoin="round"/>
<path d="M92.2694 97.7524C92.9207 100.809 93.0526 105.947 91.6855 107.254" stroke="white" stroke-linecap="round" stroke-linejoin="round"/>
<path d="M44.0782 14.3692C41.5762 14.3502 40.1122 17.2778 39.8815 23.8226C39.163 23.7715 38.389 23.76 37.5791 23.7704C37.6679 18.0737 36.7996 15.0379 33.9612 15.0164C31.2353 14.9957 29.7372 18.4595 29.7286 26.3026C29.7199 34.1456 30.7552 38.7702 34.3406 38.5371C36.0956 38.4229 36.7989 35.247 37.1818 30.9679C37.5825 30.9585 38 30.9353 38.4501 30.8849C39.0215 30.8209 39.5432 30.735 40.036 30.6353C40.4695 35.4009 41.7173 38.0681 44.4576 37.8899C46.8151 37.7366 47.2759 32.063 47.6097 25.6055C47.9868 18.3094 47.3047 14.3937 44.0782 14.3692Z" fill="#22093A" stroke="#22093A" stroke-linecap="round" stroke-linejoin="round"/>
<path d="M51.7803 35.5669C54.1804 35.4963 57.0881 34.1722 58.0846 23.9959C58.9742 14.9102 55.4068 14.6326 54.4874 14.6596C53.568 14.6866 48.1592 14.3811 47.5514 24.3059C46.9436 34.2307 48.2241 35.6716 51.7803 35.5669Z" fill="#22093A" stroke="#22093A" stroke-linecap="round" stroke-linejoin="round"/>
<path d="M54.0075 13.0649C56.3319 13.0649 58.2162 11.1806 58.2162 8.85616C58.2162 6.53176 56.3319 4.64746 54.0075 4.64746C51.6831 4.64746 49.7988 6.53176 49.7988 8.85616C49.7988 11.1806 51.6831 13.0649 54.0075 13.0649Z" fill="#22093A" stroke="#22093A" stroke-linecap="round" stroke-linejoin="round"/>
<path d="M88.5222 12.4119C86.0271 12.2253 84.3704 15.0483 83.7015 21.5628C82.988 21.4637 82.2165 21.4004 81.4078 21.3566C81.8781 15.6786 81.2151 12.5914 78.3845 12.3798C75.6662 12.1764 73.9394 15.5321 73.4053 23.357C72.8712 31.1817 73.5943 35.8654 77.1872 35.873C78.9459 35.8767 79.8605 32.7551 80.5292 28.5112C80.9297 28.5287 81.3478 28.5335 81.8002 28.5133C82.3746 28.4878 82.9009 28.437 83.3992 28.3706C83.5124 33.1545 84.5787 35.8993 87.3248 35.9051C89.6872 35.9101 90.5272 30.2801 91.2929 23.8595C92.1581 16.6051 91.7399 12.6525 88.5222 12.4119Z" fill="#22093A" stroke="#22093A" stroke-linecap="round" stroke-linejoin="round"/>
<path d="M73.5527 22.1695C75.5222 23.2612 79.7381 14.4299 69.6461 13.3394C56.2242 11.8891 52.5386 28.8729 60.0676 34.6194C65.1374 38.489 75.3239 38.8308 74.4544 28.6905C74.028 23.7172 68.8508 22.8132 66.8352 25.2427C64.8196 27.6722 67.6466 31.2528 67.6466 31.2528C63.2271 30.1373 61.7481 24.0359 65.4026 21.5008C67.9964 19.7015 69.9123 20.1516 73.5527 22.1695Z" fill="#22093A" stroke="#22093A" stroke-linecap="round" stroke-linejoin="round"/>
<path d="M42.0958 13.2643C39.5938 13.2452 38.1298 16.1729 37.8991 22.7176C37.1805 22.6665 36.4066 22.655 35.5966 22.6655C35.6854 16.9687 34.8171 13.9329 31.9788 13.9115C29.2529 13.8907 27.7548 17.3546 27.7461 25.1976C27.7375 33.0407 28.7728 37.6653 32.3582 37.4321C34.1132 37.318 34.8165 34.142 35.1994 29.863C35.6001 29.8536 36.0176 29.8303 36.4677 29.7799C37.0391 29.7159 37.5608 29.63 38.0536 29.5304C38.4871 34.296 39.7349 36.9632 42.4752 36.7849C44.8327 36.6317 45.2935 30.958 45.6273 24.5005C46.0045 17.2044 45.3223 13.2887 42.0958 13.2643Z" fill="#71C1F2" stroke="#22093A" stroke-linecap="round" stroke-linejoin="round"/>
<path d="M49.7999 34.4619C52.1999 34.3913 55.1077 33.0672 56.1041 22.8909C56.9938 13.8051 53.4264 13.5275 52.5069 13.5546C51.5875 13.5817 46.1787 13.2761 45.5709 23.2009C44.9631 33.1257 46.2437 34.5666 49.7999 34.4619Z" fill="#71C1F2" stroke="#22093A" stroke-linecap="round" stroke-linejoin="round"/>
<path d="M52.0271 11.9599C54.3515 11.9599 56.2358 10.0756 56.2358 7.75118C56.2358 5.42678 54.3515 3.54248 52.0271 3.54248C49.7027 3.54248 47.8184 5.42678 47.8184 7.75118C47.8184 10.0756 49.7027 11.9599 52.0271 11.9599Z" fill="#71C1F2" stroke="#22093A" stroke-linecap="round" stroke-linejoin="round"/>
<path d="M86.5417 11.307C84.0466 11.1203 82.3898 13.9433 81.721 20.4579C81.0075 20.3587 80.236 20.2954 79.4273 20.2516C79.8976 14.5736 79.2346 11.4864 76.4041 11.2748C73.6857 11.0714 71.9589 14.4271 71.4248 22.252C70.8907 30.0768 71.6138 34.7605 75.2067 34.768C76.9655 34.7717 77.88 31.6501 78.5487 27.4062C78.9492 27.4237 79.3673 27.4285 79.8198 27.4084C80.3942 27.3829 80.9204 27.332 81.4189 27.2656C81.532 32.0496 82.5983 34.7944 85.3445 34.8001C87.7069 34.8051 88.5468 29.1751 89.3125 22.7545C90.1776 15.5001 89.7593 11.5475 86.5417 11.307Z" fill="#71C1F2" stroke="#22093A" stroke-linecap="round" stroke-linejoin="round"/>
<path d="M71.5722 21.0645C73.5417 22.1562 77.7577 13.3249 67.6656 12.2344C54.2437 10.7842 50.5581 27.7679 58.0871 33.5145C63.1569 37.384 73.3435 37.7258 72.4739 27.5855C72.0475 22.6122 66.8703 21.7082 64.8547 24.1377C62.8391 26.5672 65.6661 30.1478 65.6661 30.1478C61.2467 29.0323 59.7677 22.9309 63.4221 20.3958C66.016 18.5965 67.9318 19.0466 71.5722 21.0645Z" fill="#71C1F2" stroke="#22093A" stroke-linecap="round" stroke-linejoin="round"/>
<path d="M31.6891 16.7563C30.8347 16.8799 30.1728 19.7644 30.1938 23.0335" stroke="white" stroke-linecap="round" stroke-linejoin="round"/>
<path d="M42.1163 16.436C41.2619 16.5596 40.6357 18.006 40.6568 21.275" stroke="white" stroke-linecap="round" stroke-linejoin="round"/>
<path d="M48.2608 24.5679C48.088 27.2105 48.155 30.073 48.821 31.2768" stroke="white" stroke-linecap="round" stroke-linejoin="round"/>
<path d="M48.8208 20.1265C48.7094 20.6321 48.598 21.3027 48.5 22.068" stroke="white" stroke-linecap="round" stroke-linejoin="round"/>
<path d="M51.6415 5.85742C50.5375 6.16223 49.8896 7.30429 50.1945 8.40828C50.3005 8.79245 50.515 9.13791 50.8123 9.40333" stroke="white" stroke-linecap="round" stroke-linejoin="round"/>
<path d="M67.4415 14.7087C63.9614 14.2324 60.5278 15.8533 58.6836 18.8428" stroke="white" stroke-linecap="round" stroke-linejoin="round"/>
<path d="M67.1864 27.5038C66.7286 26.9671 66.7925 26.1608 67.3293 25.703C67.6085 25.4648 67.9767 25.3583 68.3399 25.4105" stroke="white" stroke-linecap="round" stroke-linejoin="round"/>
<path d="M84.668 31.4382C85.5224 31.3146 86.1486 29.8683 86.1275 26.5991" stroke="white" stroke-linecap="round" stroke-linejoin="round"/>
</svg>
