<svg width="120" height="120" viewBox="0 0 120 120" fill="none" xmlns="http://www.w3.org/2000/svg">
<path d="M37.3175 18.4176C56.7656 9.40964 79.1911 9.40964 98.6392 18.4176C117.886 27.0574 122.39 55.1512 114.911 72.6617C107.432 90.1721 85.5223 98.5379 85.5223 98.5379L85.5766 112.245L74.7648 102.093C74.7648 102.093 43.1979 116.139 15.2442 96.5703C-5.87212 81.7883 -0.774146 36.2942 37.3175 18.4176Z" fill="#22093A" stroke="#22093A" stroke-linecap="round" stroke-linejoin="round"/>
<path d="M35.8702 18.4176C55.3184 9.40964 77.7438 9.40964 97.1919 18.4176C116.438 27.0574 120.943 55.1512 113.464 72.6617C105.985 90.1721 84.0751 98.5379 84.0751 98.5379L85.5774 112.245L73.3176 102.093C73.3176 102.093 41.7506 116.139 13.797 96.5703C-7.31939 81.7883 -2.2214 36.2942 35.8702 18.4176Z" fill="#EC6509" stroke="#22093A" stroke-linecap="round" stroke-linejoin="round"/>
<path d="M12.9184 30.2441C12.8356 32.8558 14.8857 35.0402 17.4974 35.1231C18.2134 35.1458 18.9253 35.0056 19.5793 34.7131C22.8711 32.9613 24.4676 27.3462 20.5079 25.4841C16.5482 23.622 13.0423 25.5857 12.9184 30.2441Z" fill="#F1F2F2" stroke="#22093A" stroke-linecap="round" stroke-linejoin="round"/>
<path d="M68.4941 59.1164C64.3757 61.2777 69.8717 86.5661 75.0773 86.609C81.2024 86.6595 79.7776 74.7321 79.7776 74.7321C79.7776 74.7321 86.5837 82.9763 89.2751 82.7185C96.4234 82.0338 93.4677 73.7863 84.654 68.3035C84.654 68.3035 93.2501 56.8634 85.521 55.2276C80.1686 54.0948 78.052 67.5073 78.052 67.5073C78.052 67.5073 74.2515 56.0952 68.4941 59.1164Z" fill="#22093A" stroke="#22093A" stroke-linecap="round" stroke-linejoin="round"/>
<path d="M24.1337 43.815C21.2688 40.7915 6.83045 43.1185 6.48845 50.417C6.26304 55.2269 8.40579 75.3335 15.8101 73.7126C23.419 72.0469 18.4987 62.0771 18.4987 62.0771C18.4987 62.0771 25.2545 60.373 24.9384 56.041C24.6223 51.709 16.1223 54.5677 16.1223 54.5677C16.1223 54.5677 29.6354 49.6211 24.1337 43.815Z" fill="#22093A" stroke="#22093A" stroke-linecap="round" stroke-linejoin="round"/>
<path d="M41.0639 39.5315C39.4 36.8768 24.6269 38.57 23.1894 46.1905C22.2514 51.163 24.7752 67.9465 32.9533 67.5975C41.1314 67.2484 47.7529 63.2475 46.7147 58.9798C45.6766 54.7121 33.4941 58.1038 33.4941 58.1038C33.4941 58.1038 41.4183 56.2127 40.6423 51.7145C39.8663 47.2163 31.7957 50.2492 31.7957 50.2492C31.7957 50.2492 44.6625 45.2726 41.0639 39.5315Z" fill="#22093A" stroke="#22093A" stroke-linecap="round" stroke-linejoin="round"/>
<path d="M63.5908 30.9696C59.5234 31.8289 61.2629 52.6116 66.3395 58.1859C68.9801 61.0854 80.3096 57.5829 82.7622 51.2331C85.2147 44.8834 81.1889 27.2516 63.5908 30.9696Z" fill="#22093A" stroke="#22093A" stroke-linecap="round" stroke-linejoin="round"/>
<path d="M70.4359 41.1523C68.7617 41.6071 70.0163 46.78 71.0926 47.6548C71.8087 48.2368 74.4303 47.5108 75.0163 45.9937C75.6023 44.4765 74.583 40.0257 70.4359 41.1523Z" fill="#22093A" stroke="#22093A" stroke-linecap="round" stroke-linejoin="round"/>
<path d="M58.2661 33.8727C56.1002 31.8177 43.3376 33.6854 42.313 41.0041C41.6445 45.7797 44.334 63.3008 52.1028 62.5996C59.8716 61.8985 65.652 58.3366 64.4713 54.3211C63.2906 50.3056 53.8578 53.0894 53.8578 53.0894C53.8578 53.0894 61.7779 50.1176 60.8364 45.8709C59.8949 41.6241 51.8869 45.6894 51.8869 45.6894C51.8869 45.6894 64.0771 39.3862 58.2661 33.8727Z" fill="#22093A" stroke="#22093A" stroke-linecap="round" stroke-linejoin="round"/>
<path d="M13.7685 75.0829C10.4268 77.8755 11.2111 83.8834 14.0678 93.612C16.4797 101.826 21.4332 100.729 26.5696 99.3793C32.3191 97.8689 38.0442 93.8583 36.1865 87.3776C34.2529 80.6321 25.449 83.7164 25.449 83.7164C25.449 83.7164 33.8062 79.7079 31.1191 73.7774C28.4924 67.9803 17.2024 72.2131 13.7685 75.0829Z" fill="#22093A" stroke="#22093A" stroke-linecap="round" stroke-linejoin="round"/>
<path d="M19.5176 78.0758C19.5176 78.0758 22.7666 76.3295 22.9915 78.2952C23.2164 80.2609 20.4294 81.2219 20.4294 81.2219L19.5176 78.0758Z" fill="#22093A" stroke="#22093A" stroke-linecap="round" stroke-linejoin="round"/>
<path d="M22.8965 89.7231C22.8965 89.7231 27.0908 87.6915 27.3156 89.6572C27.5404 91.6229 23.8083 92.8691 23.8083 92.8691L22.8965 89.7231Z" fill="#22093A" stroke="#22093A" stroke-linecap="round" stroke-linejoin="round"/>
<path d="M50.1368 91.3358C52.8989 90.0557 54.048 87.074 53.3243 83.7417C52.5413 80.1371 48.1805 63.0065 39.1798 65.0622C34.495 66.1322 32.3748 72.1045 32.0873 78.4801C31.7753 85.3972 33.1679 95.3421 36.9325 94.8036C42.9799 93.9387 40.895 76.5083 40.895 76.5083C40.895 76.5083 44.7553 93.8297 50.1368 91.3358Z" fill="#22093A" stroke="#22093A" stroke-linecap="round" stroke-linejoin="round"/>
<path d="M66.2371 69.5246C68.9561 69.9616 70.1344 58.0518 58.0736 60.9924C42.0334 64.9033 44.8537 85.9694 55.9019 89.4493C63.3414 91.7926 79.6749 83.867 71.0143 77.8183C67.5607 75.4063 65.0372 79.4508 61.6042 80.1128C56.1353 81.1674 53.8852 75.8992 56.5852 72.1432C58.8386 69.0084 61.2113 68.7169 66.2371 69.5246Z" fill="#22093A" stroke="#22093A" stroke-linecap="round" stroke-linejoin="round"/>
<path d="M89.1112 47.2228C84.9955 48.6829 80.4754 46.5302 79.0153 42.4145C78.7824 41.7579 78.6372 41.0735 78.5836 40.3789C78.3041 36.9865 79.0703 33.5899 80.7792 30.646C85.848 22.0935 104.73 13.4889 113.628 27.5185C122.822 42.0167 111.481 50.5275 110.049 51.8825C108.618 53.2376 101.547 56.8282 102.055 61.7987C102.099 62.2326 102.145 62.6238 102.192 62.9766C102.441 64.8464 101.188 66.5857 99.3352 66.9409C97.4585 67.2979 95.6337 66.113 95.1963 64.2534C94.1109 60.5637 94.7769 56.58 97.0033 53.4438C101.958 47.106 104.076 44.5469 103.077 40.9841C102.569 38.6196 100.241 37.1142 97.8768 37.6216C97.6595 37.6683 97.446 37.7314 97.2383 37.8104C95.8127 38.2128 94.7724 39.4381 94.6067 40.9101C94.0797 43.867 91.9673 46.2936 89.1112 47.2228Z" fill="#22093A" stroke="#22093A" stroke-linecap="round" stroke-linejoin="round"/>
<path d="M101.885 78.118C104.586 78.118 106.776 75.9282 106.776 73.2269C106.776 70.5257 104.586 68.3359 101.885 68.3359C99.1839 68.3359 96.9941 70.5257 96.9941 73.2269C96.9941 75.9282 99.1839 78.118 101.885 78.118Z" fill="#22093A" stroke="#22093A" stroke-linecap="round" stroke-linejoin="round"/>
<path d="M66.1543 58.5383C62.0358 60.6996 67.5319 85.988 72.7374 86.0309C78.8626 86.0814 77.4378 74.154 77.4378 74.154C77.4378 74.154 84.2439 82.3982 86.9352 82.1404C94.0835 81.4557 91.1279 73.2082 82.3141 67.7254C82.3141 67.7254 90.9102 56.2852 83.1811 54.6495C77.8288 53.5167 75.7122 66.9291 75.7122 66.9291C75.7122 66.9291 71.9117 55.5171 66.1543 58.5383Z" fill="#F1F2F2" stroke="#22093A" stroke-linecap="round" stroke-linejoin="round"/>
<path d="M21.7939 43.2368C18.9289 40.2134 4.49063 42.5404 4.1486 49.8389C3.9232 54.6488 6.06596 74.7554 13.4703 73.1345C21.0791 71.4688 16.1589 61.499 16.1589 61.499C16.1589 61.499 22.9147 59.7949 22.5986 55.4629C22.2824 51.1309 13.7824 53.9897 13.7824 53.9897C13.7824 53.9897 27.2956 49.043 21.7939 43.2368Z" fill="#F1F2F2" stroke="#22093A" stroke-linecap="round" stroke-linejoin="round"/>
<path d="M38.724 38.9529C37.0601 36.2982 22.287 37.9914 20.8495 45.6119C19.9116 50.5844 22.4353 67.3679 30.6134 67.0189C38.7915 66.6698 45.4131 62.6689 44.3749 58.4012C43.3367 54.1335 31.1543 57.5252 31.1543 57.5252C31.1543 57.5252 39.0784 55.6341 38.3025 51.1359C37.5265 46.6377 29.4559 49.6706 29.4559 49.6706C29.4559 49.6706 42.3226 44.694 38.724 38.9529Z" fill="#F1F2F2" stroke="#22093A" stroke-linecap="round" stroke-linejoin="round"/>
<path d="M61.2509 30.3915C57.1836 31.2508 58.9231 52.0335 63.9997 57.6078C66.6403 60.5072 77.9698 57.0048 80.4223 50.655C82.8748 44.3052 78.8491 26.6735 61.2509 30.3915Z" fill="#F1F2F2" stroke="#22093A" stroke-linecap="round" stroke-linejoin="round"/>
<path d="M68.096 40.5742C66.4219 41.029 67.6764 46.2019 68.7527 47.0767C69.4688 47.6587 72.0905 46.9327 72.6765 45.4155C73.2624 43.8984 72.2431 39.4476 68.096 40.5742Z" fill="#22093A" stroke="#22093A" stroke-linecap="round" stroke-linejoin="round"/>
<path d="M55.9262 33.2941C53.7604 31.2391 40.9978 33.1068 39.9732 40.4255C39.3046 45.2011 41.9941 62.7222 49.7629 62.021C57.5318 61.3198 63.3121 57.758 62.1314 53.7425C60.9507 49.727 51.5179 52.5108 51.5179 52.5108C51.5179 52.5108 59.4381 49.539 58.4966 45.2923C57.5551 41.0455 49.547 45.1108 49.547 45.1108C49.547 45.1108 61.7372 38.8076 55.9262 33.2941Z" fill="#F1F2F2" stroke="#22093A" stroke-linecap="round" stroke-linejoin="round"/>
<path d="M11.4286 74.5047C8.08696 77.2974 8.87131 83.3052 11.728 93.0338C14.1398 101.248 19.0933 100.151 24.2297 98.8012C29.9792 97.2908 35.7044 93.2802 33.8466 86.7995C31.913 80.054 23.1091 83.1383 23.1091 83.1383C23.1091 83.1383 31.4664 79.1297 28.7792 73.1993C26.1526 67.4022 14.8625 71.635 11.4286 74.5047Z" fill="#F1F2F2" stroke="#22093A" stroke-linecap="round" stroke-linejoin="round"/>
<path d="M17.1777 77.4977C17.1777 77.4977 20.4267 75.7514 20.6516 77.7171C20.8765 79.6828 18.0895 80.6438 18.0895 80.6438L17.1777 77.4977Z" fill="#22093A" stroke="#22093A" stroke-linecap="round" stroke-linejoin="round"/>
<path d="M20.5566 89.1449C20.5566 89.1449 24.7509 87.1134 24.9758 89.079C25.2006 91.0447 21.4684 92.291 21.4684 92.291L20.5566 89.1449Z" fill="#22093A" stroke="#22093A" stroke-linecap="round" stroke-linejoin="round"/>
<path d="M50.9844 83.1631C50.2014 79.5585 45.8406 62.4279 36.84 64.4836C32.1552 65.5537 30.035 71.5259 29.7474 77.9016C29.4354 84.8186 30.828 94.7635 34.5927 94.2251C37.1575 93.8582 38.2567 90.51 38.6754 86.7773L41.7992 85.7534C43.376 89.1419 45.4406 91.8492 47.7969 90.7571C50.559 89.4771 51.7081 86.4954 50.9844 83.1631ZM38.8979 82.9162C38.9187 80.5827 38.8042 78.25 38.5552 75.9297C39.0697 78.1235 39.7024 80.2878 40.4507 82.4133L38.8979 82.9162Z" fill="#F1F2F2" stroke="#22093A" stroke-linecap="round" stroke-linejoin="round"/>
<path d="M63.8972 68.9465C66.6163 69.3835 67.7945 57.4737 55.7337 60.4143C39.6935 64.3251 42.5139 85.3913 53.562 88.8712C61.0016 91.2145 77.3351 83.2889 68.6744 77.2401C65.2209 74.8281 62.6974 78.8726 59.2644 79.5346C53.7955 80.5893 51.5454 75.321 54.2454 71.565C56.4988 68.4303 58.8715 68.1388 63.8972 68.9465Z" fill="#F1F2F2" stroke="#22093A" stroke-linecap="round" stroke-linejoin="round"/>
<path d="M86.7713 46.6447C82.6557 48.1048 78.1356 45.9521 76.6755 41.8364C76.4425 41.1798 76.2974 40.4954 76.2438 39.8008C75.9642 36.4084 76.7305 33.0118 78.4393 30.0679C83.5082 21.5154 102.39 12.9108 111.288 26.9403C120.482 41.4386 109.141 49.9493 107.71 51.3044C106.278 52.6595 99.207 56.2501 99.7152 61.2206C99.7595 61.6545 99.8053 62.0457 99.8518 62.3985C100.101 64.2683 98.8479 66.0076 96.9953 66.3628C95.1186 66.7198 93.2938 65.5349 92.8564 63.6753C91.7711 59.9856 92.437 56.0019 94.6634 52.8658C99.6182 46.5279 101.736 43.9688 100.737 40.406C100.23 38.0415 97.9014 36.5361 95.5369 37.0435C95.3196 37.0902 95.1061 37.1533 94.8984 37.2323C93.4728 37.6347 92.4325 38.8599 92.2668 40.332C91.7399 43.2889 89.6275 45.7154 86.7713 46.6447Z" fill="#F1F2F2" stroke="#22093A" stroke-linecap="round" stroke-linejoin="round"/>
<path d="M100.059 77.9339C102.76 77.9339 104.95 75.7441 104.95 73.0429C104.95 70.3416 102.76 68.1519 100.059 68.1519C97.3577 68.1519 95.168 70.3416 95.168 73.0429C95.168 75.7441 97.3577 77.9339 100.059 77.9339Z" fill="#F1F2F2" stroke="#22093A" stroke-linecap="round" stroke-linejoin="round"/>
<path d="M101.221 23.4009C104.952 24.3547 109.311 26.8482 110.871 35.1598C112.409 43.3599 108.513 45.3039 107.83 45.9875" stroke="white" stroke-linecap="round" stroke-linejoin="round"/>
<path d="M80.167 33.541C78.7218 36.5294 77.7508 42.3557 83.0641 43.5449" stroke="white" stroke-linecap="round" stroke-linejoin="round"/>
<path d="M100.06 70.8844C98.2653 70.4038 97.1779 73.7457 98.3741 74.6197" stroke="white" stroke-linecap="round" stroke-linejoin="round"/>
<path d="M7.37695 53.791C7.68915 56.5894 9.47971 68.1507 11.82 69.1708" stroke="white" stroke-linecap="round" stroke-linejoin="round"/>
<path d="M24.0587 48.5792C23.1081 46.5543 23.979 44.1421 26.0039 43.1915C26.1966 43.101 26.396 43.0259 26.6005 42.9668" stroke="white" stroke-linecap="round" stroke-linejoin="round"/>
<path d="M44.4824 50.9551C44.4874 54.1331 47.0216 58.9467 50.4393 58.6386" stroke="white" stroke-linecap="round" stroke-linejoin="round"/>
<path d="M62.2856 34.6938C61.9092 38.6701 62.2674 42.6816 63.3421 46.5283" stroke="white" stroke-linecap="round" stroke-linejoin="round"/>
<path d="M12.332 81.8081C13.1865 86.1766 14.2915 93.5247 15.9605 94.6355" stroke="white" stroke-linecap="round" stroke-linejoin="round"/>
<path d="M37.1964 67.6025C36.4274 67.6328 32.1383 70.6624 32.574 78.1192" stroke="white" stroke-linecap="round" stroke-linejoin="round"/>
<path d="M54.7115 63.5317C52.1482 65.1552 47.7293 67.5886 47.4609 73.8054" stroke="white" stroke-linecap="round" stroke-linejoin="round"/>
<path d="M69.6211 62.6196C70.8603 64.4242 71.934 66.337 72.8292 68.3346" stroke="white" stroke-linecap="round" stroke-linejoin="round"/>
<path d="M86.127 74.6196C87.2611 75.5381 87.9791 76.8734 88.12 78.326" stroke="white" stroke-linecap="round" stroke-linejoin="round"/>
<path d="M60.6172 101.585C61.5125 101.405 62.421 101.202 63.3426 100.975" stroke="white" stroke-linecap="round" stroke-linejoin="round"/>
<path d="M34.2031 100.975C41.8466 102.867 49.7849 103.255 57.5764 102.118" stroke="white" stroke-linecap="round" stroke-linejoin="round"/>
<path d="M72.8301 16.0605C73.6229 16.1421 74.4027 16.243 75.1693 16.3632" stroke="white" stroke-linecap="round" stroke-linejoin="round"/>
<path d="M43.7422 19.6018C51.9627 16.8822 60.591 15.6026 69.247 15.8195" stroke="white" stroke-linecap="round" stroke-linejoin="round"/>
<path d="M40.4512 20.9352C40.7548 20.7919 41.0717 20.6495 41.4017 20.5083" stroke="white" stroke-linecap="round" stroke-linejoin="round"/>
<path d="M89.3926 92.2912C93.8292 89.9213 97.8919 86.91 101.45 83.3545" stroke="#22093A" stroke-linecap="round" stroke-linejoin="round"/>
<path d="M85.3867 94.2459C85.8662 94.0401 86.3602 93.8166 86.869 93.5757" stroke="#22093A" stroke-linecap="round" stroke-linejoin="round"/>
<path d="M58.8458 20.3987C59.4987 22.1467 61.445 23.0344 63.193 22.3815C63.6862 22.1973 64.1296 21.9003 64.4877 21.5143C66.204 19.4303 65.7465 15.2485 62.6077 15.114C59.4688 14.9796 57.6674 17.2644 58.8458 20.3987Z" fill="#F1F2F2" stroke="#22093A" stroke-linecap="round" stroke-linejoin="round"/>
</svg>
