<svg width="120" height="120" viewBox="0 0 120 120" fill="none" xmlns="http://www.w3.org/2000/svg">
<g clip-path="url(#clip0_4_10984)">
<path opacity="0.5" d="M112.671 21.6512C111.935 21.0057 111.082 20.5076 110.158 20.184C109.691 19.9478 109.202 19.7585 108.698 19.6189C107.201 17.4782 105.16 15.7762 102.785 14.6888C100.053 12.6841 96.7788 11.5525 93.3923 11.4426H93.3337C92.2426 9.23275 90.2234 7.6242 87.8256 7.0547C87.5189 6.98496 87.2077 6.93715 86.8942 6.91163C85.3695 6.5467 83.7681 6.67802 82.3232 7.28647C81.4178 6.60923 80.3808 6.12873 79.2787 5.87582C79.2029 5.85865 79.1256 5.84148 79.0498 5.82647C78.7717 5.72487 78.4873 5.641 78.1986 5.57538C75.837 5.02375 73.3544 5.64786 71.5345 7.25071C71.2054 7.10764 70.8678 6.97822 70.5244 6.86299C68.5598 6.01106 66.4231 5.63084 64.2852 5.75278C63.459 5.78412 62.639 5.90922 61.8409 6.12565C60.5761 3.47944 58.0507 1.65956 55.1403 1.29694C50.6533 -0.290271 45.7292 2.06047 44.142 6.54748C44.0963 6.67662 44.0537 6.80684 44.0142 6.93802L44.0125 6.9381C43.6182 6.91903 43.2229 6.93796 42.8322 6.99461C40.0312 7.39879 37.5769 9.0811 36.1896 11.5477C34.77 11.0906 33.2559 11.0105 31.796 11.3154C29.9365 9.29539 27.2383 8.26283 24.5053 8.52543C19.6498 8.00586 15.2924 11.5208 14.7728 16.3763C14.7466 16.6213 14.7307 16.8672 14.725 17.1135C11.3156 17.8538 8.20623 19.5985 5.79775 22.1226C2.11371 25.8667 0.923391 30.2538 2.53433 34.161C3.55441 36.6339 8.09681 44.7645 13.2215 48.4585C19.0715 54.0746 24.1332 51.9586 26.0647 50.7647C27.4077 49.961 28.5197 48.8232 29.2923 47.462C30.4948 47.4478 31.6875 47.2433 32.826 46.8561C35.0944 46.1278 36.9711 44.5118 38.028 42.3767C38.3871 42.4089 38.7319 42.421 39.121 42.4217C41.2998 42.4494 43.3825 41.5261 44.8251 39.893C39.0409 52.3478 31.7402 71.4001 27.1805 84.8427C26.6912 84.8384 26.1919 84.8484 25.6897 84.8699C23.5795 84.9643 19.6995 85.93 17.4104 91.3358C14.6606 97.8297 15.0613 110.667 19.2574 115.403C19.8861 116.1 20.6348 116.679 21.4678 117.112C23.8729 118.899 26.8261 119.792 29.8187 119.636L29.8859 119.637C33.386 119.649 36.8401 118.838 39.9693 117.27C42.6337 119.137 45.8985 119.944 49.1257 119.532C50.7037 119.319 52.2346 118.842 53.6538 118.12C54.9747 119.25 56.6734 119.841 58.4108 119.774C60.5688 119.725 62.6234 118.84 64.1406 117.304C65.8574 118.452 67.9425 118.914 69.9835 118.598C70.7801 118.474 71.5497 118.215 72.2597 117.833C73.4545 118.584 74.8121 119.037 76.2184 119.154C79.5496 119.524 82.9214 119.119 86.07 117.97C87.5654 119.202 89.4431 119.875 91.3807 119.874C95.9589 119.871 99.6679 116.157 99.6652 111.579C99.6645 110.503 99.4544 109.437 99.0465 108.442C100.654 106.105 101.581 103.368 101.725 100.536C102.064 96.9369 102.626 90.8377 98.9565 87.9299C100.172 86.615 101.087 85.0521 101.64 83.3491C104.36 75.1192 108.595 55.9932 108.773 55.1834C108.97 54.2941 108.922 53.368 108.635 52.5037C109.166 52.365 109.686 52.1844 110.188 51.9637C115.352 49.4407 118.946 44.5424 119.804 38.8601C120.755 32.588 118.222 26.4761 112.671 21.6512Z" fill="#231F20"/>
<path d="M110.839 20.8402C110.103 20.1947 109.25 19.6967 108.326 19.373C107.859 19.1369 107.37 18.9476 106.866 18.8079C105.369 16.6673 103.328 14.9652 100.953 13.8778C98.2209 11.8732 94.9468 10.7416 91.5603 10.6316H91.5017C90.4106 8.42179 88.3914 6.81323 85.9936 6.24373C85.6869 6.17399 85.3756 6.12618 85.0622 6.10065C83.5375 5.73573 81.9361 5.86705 80.4912 6.47549C79.5857 5.79826 78.5487 5.31777 77.4467 5.06485C77.3709 5.04768 77.2936 5.03052 77.2178 5.01549C76.9396 4.91389 76.6553 4.83003 76.3665 4.76442C74.0049 4.21275 71.5223 4.83686 69.7024 6.43973C69.3733 6.29666 69.0357 6.16724 68.6923 6.05202C66.7277 5.20009 64.591 4.81987 62.4531 4.94181C61.6269 4.97316 60.8068 5.09826 60.0088 5.31469C58.744 2.66849 56.2187 0.848585 53.3083 0.485921C48.8213 -1.10132 43.8971 1.24941 42.3099 5.73641C42.2642 5.86559 42.2216 5.99583 42.1821 6.12704L42.1804 6.12713C41.7861 6.10806 41.3908 6.12699 41.0001 6.18365C38.1991 6.58782 35.7448 8.27013 34.3575 10.7368C32.9379 10.2796 31.4238 10.1995 29.9639 10.5045C28.1044 8.48438 25.4061 7.45181 22.6731 7.71447C17.8176 7.19488 13.4602 10.7098 12.9407 15.5653C12.9144 15.8103 12.8985 16.0562 12.8928 16.3025C9.48344 17.0428 6.37403 18.7875 3.96556 21.3116C0.281686 25.0556 -0.908636 29.4429 0.702306 33.35C1.72238 35.823 6.26478 43.9535 11.3895 47.6475C17.2395 53.2636 22.3012 51.1477 24.2326 49.9538C25.5757 49.15 26.6876 48.0122 27.4602 46.651C28.6628 46.6369 29.8555 46.4324 30.994 46.0451C33.2624 45.3168 35.139 43.7008 36.196 41.5657C36.5551 41.5979 36.8998 41.6101 37.289 41.6108C39.4678 41.6384 41.5505 40.7152 42.9931 39.082C37.2089 51.5368 29.9081 70.5891 25.3486 84.0317C24.8593 84.0275 24.36 84.0375 23.8578 84.0589C21.7476 84.1534 17.8676 85.1191 15.5785 90.5249C12.8286 97.0187 13.2293 109.856 17.4255 114.592C18.0542 115.289 18.8028 115.868 19.6359 116.301C22.0409 118.088 24.9942 118.981 27.9867 118.825L28.054 118.826C31.5541 118.838 35.0081 118.027 38.1374 116.459C40.8017 118.326 44.0665 119.133 47.2937 118.721C48.8717 118.508 50.4026 118.031 51.8218 117.309C53.1427 118.439 54.8414 119.03 56.5788 118.963C58.7368 118.914 60.7914 118.029 62.3086 116.493C64.0254 117.641 66.1105 118.103 68.1515 117.787C68.9481 117.663 69.7177 117.404 70.4277 117.022C71.6225 117.773 72.9801 118.226 74.3864 118.343C77.7176 118.713 81.0894 118.308 84.238 117.159C85.7334 118.391 87.6111 119.064 89.5487 119.063C94.1269 119.06 97.836 115.346 97.8332 110.768C97.8326 109.692 97.6225 108.627 97.2146 107.631C98.8216 105.294 99.7486 102.557 99.8925 99.7249C100.232 96.1259 100.794 90.0268 97.1245 87.1189C98.3398 85.804 99.2553 84.2412 99.8081 82.5382C102.528 74.3082 106.763 55.1822 106.942 54.3724C107.138 53.4831 107.09 52.557 106.803 51.6927C107.334 51.554 107.854 51.3735 108.356 51.1527C113.52 48.6297 117.114 43.7314 117.972 38.0491C118.923 31.777 116.39 25.6652 110.839 20.8402Z" fill="white"/>
<path d="M16.8557 22.0629C11.1533 19.4363 5.86159 27.795 7.92381 32.7972C9.28285 36.0938 15.6318 49.1168 21.49 45.494C26.3957 42.4602 19.6398 36.8463 19.6398 36.8463C19.6398 36.8463 23.6357 33.5822 22.0635 30.7761C20.4913 27.97 15.6882 32.5561 15.6882 32.5561C15.6882 32.5561 22.2358 24.541 16.8557 22.0629Z" fill="#22093A" stroke="#22093A" stroke-linecap="round" stroke-linejoin="round"/>
<path d="M102.92 23.0496C103.35 20.0394 95.1491 15.42 91.4048 17.8576C88.5916 19.6893 80.0124 30.3226 84.043 33.962C88.0736 37.6013 93.6797 39.4839 95.4016 35.8868C96.6596 33.2585 91.0143 29.8799 91.0143 29.8799C91.0143 29.8799 96.2347 33.1665 97.9603 30.6779C99.6858 28.1894 93.8649 25.3747 93.8649 25.3747C93.8649 25.3747 102.131 28.5702 102.92 23.0496Z" fill="#22093A" stroke="#22093A" stroke-linecap="round" stroke-linejoin="round"/>
<path d="M107.426 24.6102C103.387 21.0994 96.1102 33.0848 93.5211 38.5724C92.2875 41.1868 100.636 48.8265 106.245 46.3602C111.996 43.831 117.433 33.3072 107.426 24.6102Z" fill="#22093A" stroke="#22093A" stroke-linecap="round" stroke-linejoin="round"/>
<path d="M105.633 34.0951C104.668 33.2562 102.014 36.1462 101.92 37.1643C101.857 37.8415 103.377 39.1495 104.547 38.8861C105.716 38.6228 108.024 36.173 105.633 34.0951Z" fill="#22093A" stroke="#22093A" stroke-linecap="round" stroke-linejoin="round"/>
<path d="M29.2944 41.0918C31.3061 40.4067 33.4207 38.5293 31.6123 29.6621C29.9977 21.7452 25.3032 20.9279 24.5325 21.1903C23.7619 21.4527 17.6578 24.124 19.7294 32.6772C21.801 41.2304 26.3137 42.1068 29.2944 41.0918Z" fill="#22093A" stroke="#22093A" stroke-linecap="round" stroke-linejoin="round"/>
<path d="M23.4242 20.1418C25.4814 20.1418 27.1491 18.4741 27.1491 16.4168C27.1491 14.3596 25.4814 12.6919 23.4242 12.6919C21.3669 12.6919 19.6992 14.3596 19.6992 16.4168C19.6992 18.4741 21.3669 20.1418 23.4242 20.1418Z" fill="#22093A" stroke="#22093A" stroke-linecap="round" stroke-linejoin="round"/>
<path d="M30.5696 16.0146C27.5729 17.9878 28.4556 36.4463 37.2075 36.3841C42.2074 36.3486 38.7049 26.5519 38.7049 26.5519C39.5554 30.5847 43.2969 33.3371 47.4 32.9483C52.2451 32.5933 47.9645 11.0453 42.4752 11.1449C37.2761 11.2392 40.4505 21.6279 40.4505 21.6279C40.4505 21.6279 34.2858 13.5676 30.5696 16.0146Z" fill="#22093A" stroke="#22093A" stroke-linecap="round" stroke-linejoin="round"/>
<path d="M53.9753 31.8573C55.9414 31.4777 58.8584 30.4509 58.3157 21.9409C57.8312 14.3429 53.5844 13.1819 52.8312 13.3273C52.078 13.4727 47.0561 15.0657 47.885 23.3167C48.7139 31.5676 51.062 32.4197 53.9753 31.8573Z" fill="#22093A" stroke="#22093A" stroke-linecap="round" stroke-linejoin="round"/>
<path d="M52.1818 12.4651C54.1203 12.4651 55.6917 10.8937 55.6917 8.95522C55.6917 7.01675 54.1203 5.44531 52.1818 5.44531C50.2433 5.44531 48.6719 7.01675 48.6719 8.95522C48.6719 10.8937 50.2433 12.4651 52.1818 12.4651Z" fill="#22093A" stroke="#22093A" stroke-linecap="round" stroke-linejoin="round"/>
<path d="M71.7537 16.517C71.7558 14.1181 69.156 10.2039 63.9155 10.3818C58.7559 10.557 56.5001 18.4826 61.6821 21.4809C66.4805 24.2572 64.8994 27.4791 62.8172 25.6324C58.8118 22.0803 52.6815 28.6194 58.1325 31.4947C63.5834 34.3701 71.6146 31.9456 72.4332 28.4284C73.9839 21.766 68.8912 20.4992 66.5503 19.3627C66.5503 19.3627 71.7505 20.1785 71.7537 16.517Z" fill="#22093A" stroke="#22093A" stroke-linecap="round" stroke-linejoin="round"/>
<path d="M84.8121 11.1447C82.6724 10.6556 81.9614 13.5268 80.5268 19.0896C79.9209 18.9101 79.2601 18.7539 78.5643 18.6098C79.717 13.7467 78.6638 10.514 76.2364 9.95922C73.9053 9.42628 72.8506 12.5783 71.3609 19.2952C69.8711 26.0121 69.884 30.1693 72.9994 30.6471C74.5243 30.8811 75.7271 28.2934 76.8638 24.7002C77.2088 24.7679 77.5708 24.8269 77.9659 24.8688C78.4675 24.922 76.4228 24.6925 76.8638 24.7002C76.3344 28.8645 77.2987 31.6294 79.6799 31.9947C81.7282 32.3089 85.3037 27.5459 86.81 22.0774C88.512 15.8988 87.5713 11.7754 84.8121 11.1447Z" fill="#22093A" stroke="#22093A" stroke-linecap="round" stroke-linejoin="round"/>
<path d="M15.1564 21.3269C12.2857 20.1987 3.33301 26.2928 5.39523 31.2951C6.75427 34.5916 14.5045 47.4037 18.9614 43.9918C23.5414 40.4856 17.1112 35.3441 17.1112 35.3441C17.1112 35.3441 21.1071 32.0801 19.5349 29.2739C17.9627 26.4678 13.1596 31.0539 13.1596 31.0539C13.1596 31.0539 20.6693 23.4934 15.1564 21.3269Z" fill="#FD32B0" stroke="#22093A" stroke-linecap="round" stroke-linejoin="round"/>
<path d="M100.393 21.5477C100.823 18.5375 92.6217 13.9181 88.8776 16.3557C86.0642 18.1873 77.4851 28.8207 81.5156 32.46C85.5462 36.0993 91.1523 37.9819 92.8742 34.3847C94.1323 31.7565 88.4869 28.3779 88.4869 28.3779C88.4869 28.3779 93.7074 31.6645 95.4329 29.1759C97.1584 26.6874 91.3375 23.8727 91.3375 23.8727C91.3375 23.8727 99.6034 27.0682 100.393 21.5477Z" fill="#FD32B0" stroke="#22093A" stroke-linecap="round" stroke-linejoin="round"/>
<path d="M106.536 24.2243C102.496 20.7135 93.5829 31.5826 90.9937 37.0702C89.7602 39.6845 98.1083 47.3243 103.717 44.8579C109.469 42.3288 116.543 32.9214 106.536 24.2243Z" fill="#FD32B0" stroke="#22093A" stroke-linecap="round" stroke-linejoin="round"/>
<path d="M103.106 32.5936C102.141 31.7548 99.4869 34.6447 99.3925 35.6628C99.3297 36.3401 100.85 37.648 102.019 37.3847C103.189 37.1214 105.497 34.6714 103.106 32.5936Z" fill="#22093A" stroke="#22093A" stroke-linecap="round" stroke-linejoin="round"/>
<path d="M26.7681 39.5899C28.7798 38.9048 30.8943 37.0274 29.0859 28.1602C27.4713 20.2433 24.3815 20.9379 23.6109 21.2003C22.8402 21.4628 18.1856 22.6134 20.2572 31.1666C22.3288 39.7199 23.7874 40.6049 26.7681 39.5899Z" fill="#FD32B0" stroke="#22093A" stroke-linecap="round" stroke-linejoin="round"/>
<path d="M21.6917 20.1418C23.749 20.1418 25.4167 18.4741 25.4167 16.4168C25.4167 14.3596 23.749 12.6919 21.6917 12.6919C19.6345 12.6919 17.9668 14.3596 17.9668 16.4168C17.9668 18.4741 19.6345 20.1418 21.6917 20.1418Z" fill="#FD32B0" stroke="#22093A" stroke-linecap="round" stroke-linejoin="round"/>
<path d="M29.885 15.8741C26.8883 17.8474 29.8406 36.143 34.6791 34.8822C39.5176 33.6214 36.1765 25.05 36.1765 25.05C36.1765 25.05 40.9349 33.0154 44.8716 31.4464C49.3845 29.6477 45.5209 10.5938 41.703 11.1573C36.5588 11.9166 37.922 20.126 37.922 20.126C37.922 20.126 33.6012 13.4271 29.885 15.8741Z" fill="#FD32B0" stroke="#22093A" stroke-linecap="round" stroke-linejoin="round"/>
<path d="M52.1494 30.8077C54.1155 30.4282 56.3316 28.9489 55.789 20.4389C55.3045 12.8409 52.3308 13.0901 51.5776 13.2356C50.8244 13.381 46.3313 13.8538 47.1602 22.1047C47.989 30.3557 49.2361 31.3702 52.1494 30.8077Z" fill="#FD32B0" stroke="#22093A" stroke-linecap="round" stroke-linejoin="round"/>
<path d="M50.4044 12.0325C52.3429 12.0325 53.9143 10.4611 53.9143 8.5226C53.9143 6.58413 52.3429 5.0127 50.4044 5.0127C48.466 5.0127 46.8945 6.58413 46.8945 8.5226C46.8945 10.4611 48.466 12.0325 50.4044 12.0325Z" fill="#FD32B0" stroke="#22093A" stroke-linecap="round" stroke-linejoin="round"/>
<path d="M69.2252 15.0148C69.2273 12.6158 67.8206 9.78905 62.5801 9.96698C57.4205 10.1421 53.9717 16.9804 59.1537 19.9787C63.9521 22.755 62.371 25.9768 60.2887 24.1302C56.2834 20.5781 52.0156 27.8625 57.4666 30.7378C62.9175 33.6131 69.0861 30.4433 69.9048 26.9262C71.4555 20.2637 66.3628 18.9969 64.0219 17.8604C64.0219 17.8604 69.222 18.6762 69.2252 15.0148Z" fill="#FD32B0" stroke="#22093A" stroke-linecap="round" stroke-linejoin="round"/>
<path d="M83.965 11.0206C81.8253 10.5314 80.018 12.7627 78.5834 18.3254C77.9775 18.1458 77.3167 17.9897 76.6209 17.8456C77.7736 12.9824 77.6035 10.2178 75.1762 9.66293C72.845 9.12999 70.9071 11.8141 69.4175 18.531C67.9278 25.2479 67.9406 29.4051 71.056 29.8829C72.581 30.1168 73.7837 27.5292 74.9204 23.936C75.2654 24.0037 75.6275 24.0626 76.0226 24.1045C76.5241 24.1577 76.9872 24.1827 77.4282 24.1905C76.8989 28.3547 77.4637 30.8754 79.8448 31.2406C81.8932 31.5548 83.3603 26.7817 84.8666 21.3132C86.5685 15.1345 86.7242 11.6513 83.965 11.0206Z" fill="#FD32B0" stroke="#22093A" stroke-linecap="round" stroke-linejoin="round"/>
<path d="M10.1504 25.6338C6.95317 29.1967 7.05632 29.9666 9.50143 33.749" stroke="#FFC2EB" stroke-linecap="round" stroke-linejoin="round"/>
<path d="M20.4772 15.5234C20.2572 16.1406 20.3983 16.8289 20.8434 17.3097" stroke="#FFC2EB" stroke-linecap="round" stroke-linejoin="round"/>
<path d="M49.3033 7.62939C49.0834 8.24658 49.2245 8.93486 49.6696 9.4157" stroke="#FFC2EB" stroke-linecap="round" stroke-linejoin="round"/>
<path d="M22.7266 29.5474C22.9769 32.0651 24.1478 36.7658 25.4191 36.5989" stroke="#FFC2EB" stroke-linecap="round" stroke-linejoin="round"/>
<path d="M31.2368 18.3931C30.8403 20.2779 30.8403 22.2246 31.2368 24.1094" stroke="#FFC2EB" stroke-linecap="round" stroke-linejoin="round"/>
<path d="M49.7045 22.0625C49.6285 23.6408 50.016 27.4033 51.1129 27.7371" stroke="#FFC2EB" stroke-linecap="round" stroke-linejoin="round"/>
<path d="M62.7485 12.4265C60.8291 12.3392 59.2022 13.8244 59.1149 15.7439C59.0927 16.2314 59.1734 16.7181 59.3516 17.1725" stroke="#FFC2EB" stroke-linecap="round" stroke-linejoin="round"/>
<path d="M71.3163 20.8052C70.9844 22.3891 70.256 25.6807 71.3397 26.6942" stroke="#FFC2EB" stroke-linecap="round" stroke-linejoin="round"/>
<path d="M87.1895 21.0604C88.9459 19.4683 90.4328 16.8073 93.3981 18.3929" stroke="#FFC2EB" stroke-linecap="round" stroke-linejoin="round"/>
<path d="M95.5656 33.9443C94.4049 35.4489 93.4008 37.0703 93.5768 37.5738C94.2294 38.8031 95.1737 39.8534 96.3268 40.6327" stroke="#FFC2EB" stroke-linecap="round" stroke-linejoin="round"/>
<path d="M98.0378 30.9355C97.6437 31.2339 97.7466 31.334 97.1738 31.9946" stroke="#FFC2EB" stroke-linecap="round" stroke-linejoin="round"/>
<path d="M54.778 29.5582C57.6523 30.2201 29.0428 104.945 25.5133 104.392C21.9839 103.838 50.2221 28.509 54.778 29.5582Z" fill="#22093A" stroke="#22093A" stroke-linecap="round" stroke-linejoin="round"/>
<path d="M55.1532 35.3919C55.1532 35.3919 63.5888 29.5472 72.14 35.0099C78.8299 39.2835 77.2081 48.3243 87.2039 54.6764C95.2022 59.759 101.887 53.1676 101.887 53.1676C101.887 53.1676 97.5619 72.7535 94.893 80.8293C91.7054 90.4746 74.793 85.63 65.3683 72.7535C61.0414 66.8419 49.9155 59.2257 44.6363 63.2766C39.3571 67.3276 55.1532 35.3919 55.1532 35.3919Z" fill="#22093A" stroke="#22093A" stroke-linecap="round" stroke-linejoin="round"/>
<path d="M54.5653 35.3919C54.5653 35.3919 63.0009 29.5472 71.5521 35.0099C78.2419 39.2835 76.6202 48.3243 86.616 54.6764C94.6143 59.759 101.299 53.1676 101.299 53.1676C101.299 53.1676 96.974 72.7535 94.3051 80.8293C91.1175 90.4746 74.2051 85.63 64.7804 72.7535C60.4535 66.8419 49.3276 59.2257 44.0484 63.2766C38.7692 67.3276 54.5653 35.3919 54.5653 35.3919Z" fill="#F1F2F2" stroke="#22093A" stroke-linecap="round" stroke-linejoin="round"/>
<path d="M50.084 44.4599C50.084 44.4599 57.2843 40.4136 62.7446 42.6419C73.6963 47.1112 71.1434 56.5485 81.9954 62.336C93.3032 68.3668 98.3283 64.6092 98.3283 64.6092" stroke="#22093A" stroke-linecap="round" stroke-linejoin="round"/>
<path d="M45.0605 55.7039C50.1859 52.4706 56.6466 52.2162 62.0104 55.0363C70.3582 59.1323 70.9653 69.4918 81.556 74.2855C91.7926 78.9189 96.3273 74.8959 96.3273 74.8959" stroke="#22093A" stroke-linecap="round" stroke-linejoin="round"/>
<path d="M65.5329 32.2046L53.1328 63.4769" stroke="#22093A" stroke-linecap="round" stroke-linejoin="round"/>
<path d="M74.3468 37.5737L63.2539 71.3858" stroke="#22093A" stroke-linecap="round" stroke-linejoin="round"/>
<path d="M81.779 51.0771L72.6934 80.4544" stroke="#22093A" stroke-linecap="round" stroke-linejoin="round"/>
<path d="M91.6734 56.4087L82.5859 85.5025" stroke="#22093A" stroke-linecap="round" stroke-linejoin="round"/>
<path d="M54.5652 35.3918L50.918 43.6949C54.2388 41.4139 61.6594 41.9719 61.6594 41.9719L65.345 32.6771C65.345 32.6771 59.0233 31.5669 54.5652 35.3918Z" fill="#22093A"/>
<path d="M46.1168 55.4336L43.0645 63.4769C46.3853 61.1959 53.2569 63.1637 53.2569 63.1637L56.7517 53.236C56.7517 53.236 50.5748 51.6087 46.1168 55.4336Z" fill="#22093A"/>
<path d="M61.5463 42.2583L57.1367 53.3789C59.4182 53.246 61.6466 54.101 63.2537 55.7259C66.0891 58.4934 67.1428 59.5311 67.1428 59.5311L70.6931 49.173C69.8251 47.3137 68.3944 45.7746 66.6034 44.7733C64.988 43.8005 63.2968 42.9594 61.5463 42.2583Z" fill="#22093A"/>
<path d="M78.9125 60.3424L81.778 50.5114C80.2415 48.492 78.9179 46.3192 77.828 44.0277C76.9006 41.9759 75.732 40.0419 74.3469 38.2666L70.6934 49.1733C71.8266 51.6157 73.2335 53.9215 74.887 56.0465C76.1294 57.5685 77.4743 59.0038 78.9125 60.3424Z" fill="#22093A"/>
<path d="M67.1426 59.5312L63.3945 70.9557C64.9061 73.1244 66.6024 75.1585 68.4643 77.0351C69.7467 78.2405 71.2454 79.1926 72.8815 79.8412L75.7203 70.6622C75.7203 70.6622 73.1824 67.4702 71.0403 64.4463C69.8398 62.732 68.5383 61.0907 67.1426 59.5312Z" fill="#22093A"/>
<path d="M78.9124 60.3423L75.7207 70.6623C77.1935 71.989 78.8695 73.0711 80.6848 73.8672C83.6307 75.1379 85.841 75.8447 85.841 75.8447L88.946 65.1416C86.6207 64.6079 84.3907 63.7218 82.3334 62.5138L78.9124 60.3423Z" fill="#22093A"/>
<path d="M88.9473 65.1418L91.3643 57.4036C93.7617 56.7878 96.0941 55.9419 98.3289 54.8776C99.3576 54.3767 100.351 53.8055 101.301 53.168L98.6049 64.8013C96.8045 65.8093 94.7343 66.2299 92.6833 66.0043C89.1227 65.6705 88.9473 65.1418 88.9473 65.1418Z" fill="#22093A"/>
<path d="M85.8405 75.8446L82.8322 84.7136C82.8322 84.7136 82.3408 85.7517 85.8405 85.9141C89.1674 86.0685 90.6944 86.3734 93.7942 81.9153C94.7558 79.9114 95.4478 77.789 95.8524 75.6035C93.7046 76.063 91.5237 76.3513 89.3303 76.4658C88.134 76.5418 86.937 76.3287 85.8405 75.8446Z" fill="#22093A"/>
<path d="M25.6008 90.1442C19.0693 90.4367 19.5189 108.477 22.7771 112.154C24.9448 114.601 35.1843 114.097 38.5651 109.498C41.946 104.899 41.7803 89.4198 25.6008 90.1442Z" fill="#22093A" stroke="#22093A" stroke-linecap="round" stroke-linejoin="round"/>
<path d="M29.6611 99.3863C28.1006 99.4562 28.2081 103.766 28.9865 104.645C30.2507 105.259 31.765 105.004 32.7586 104.01C33.6386 102.562 33.1784 100.675 31.7306 99.7954C31.1108 99.4187 30.3776 99.2737 29.6611 99.3863Z" fill="#22093A" stroke="#22093A" stroke-linecap="round" stroke-linejoin="round"/>
<path d="M44.8868 90.8283C48.8061 90.2796 55.1068 93.6259 55.3289 101.315C55.5511 109.004 50.8636 112.969 46.5727 113.538C42.7012 114.051 37.2782 111.505 36.7711 103.332C36.3557 96.6361 39.1302 91.6344 44.8868 90.8283Z" fill="#22093A" stroke="#22093A" stroke-linecap="round" stroke-linejoin="round"/>
<path d="M45.9948 98.462C46.5409 98.2352 47.4569 99.1772 47.5572 101.55C47.6576 103.923 47.0342 105.216 46.436 105.455C45.8963 105.67 45.1109 104.962 44.9661 102.444C44.8475 100.381 45.1926 98.7951 45.9948 98.462Z" fill="#22093A" stroke="#22093A" stroke-linecap="round" stroke-linejoin="round"/>
<path d="M55.8959 93.7059C52.4618 94.9943 51.2617 113.9 56.3703 113.739C61.479 113.578 60.0895 104.277 60.0895 104.277C60.0895 104.277 63.029 113.295 67.3085 112.623C72.2144 111.852 72.6779 91.9831 68.7446 91.6803C63.4447 91.2722 62.9446 99.7643 62.9446 99.7643C62.9446 99.7643 60.1544 92.1082 55.8959 93.7059Z" fill="#22093A" stroke="#22093A" stroke-linecap="round" stroke-linejoin="round"/>
<path d="M83.4594 91.8776C82.0746 89.9996 72.7554 90.7826 70.9639 96.2732C69.7949 99.8559 68.7063 112.61 74.7797 113.135C80.8531 113.661 85.7888 111.713 85.4308 108.461C85.0727 105.21 77.4336 106.059 77.4336 106.059C77.4336 106.059 83.9347 104.858 83.7924 101.461C83.6501 98.0648 76.9315 100.095 76.9315 100.095C76.9315 100.095 87.1746 96.9162 83.4594 91.8776Z" fill="#22093A" stroke="#22093A" stroke-linecap="round" stroke-linejoin="round"/>
<path d="M91.8258 90.5254C90.0096 90.5191 87.7784 91.4476 86.7717 99.1158C85.8728 105.962 88.5628 106.261 89.2586 106.263C89.9543 106.266 94.0356 106.632 94.7423 99.1438C95.449 91.656 94.5168 90.5349 91.8258 90.5254Z" fill="#22093A" stroke="#22093A" stroke-linecap="round" stroke-linejoin="round"/>
<path d="M89.4764 113.846C91.2345 113.846 92.6598 112.421 92.6598 110.663C92.6598 108.905 91.2345 107.479 89.4764 107.479C87.7182 107.479 86.293 108.905 86.293 110.663C86.293 112.421 87.7182 113.846 89.4764 113.846Z" fill="#22093A" stroke="#22093A" stroke-linecap="round" stroke-linejoin="round"/>
<path d="M24.0402 89.0822C17.5088 89.3747 17.9584 107.415 21.2166 111.092C23.3842 113.539 33.6238 113.035 37.0046 108.436C40.3854 103.837 40.2198 88.3578 24.0402 89.0822Z" fill="#71C1F2" stroke="#22093A" stroke-linecap="round" stroke-linejoin="round"/>
<path d="M28.1006 98.3248C26.5401 98.3946 26.6475 102.705 27.426 103.583C28.6901 104.197 30.2044 103.943 31.1981 102.949C32.0781 101.501 31.6178 99.6139 30.17 98.7339C29.5503 98.3572 28.8171 98.2122 28.1006 98.3248Z" fill="#22093A" stroke="#22093A" stroke-linecap="round" stroke-linejoin="round"/>
<path d="M43.3263 89.7663C47.2456 89.2176 53.5462 92.5639 53.7684 100.253C53.9905 107.942 49.303 111.907 45.0122 112.476C41.1406 112.989 35.7176 110.443 35.2106 102.27C34.7951 95.5741 37.5696 90.5724 43.3263 89.7663Z" fill="#71C1F2" stroke="#22093A" stroke-linecap="round" stroke-linejoin="round"/>
<path d="M44.4342 97.4C44.9804 97.1731 45.8963 98.1152 45.9967 100.488C46.097 102.861 45.4737 104.154 44.8755 104.393C44.3357 104.608 43.5504 103.9 43.4056 101.382C43.287 99.3192 43.6321 97.7331 44.4342 97.4Z" fill="#22093A" stroke="#22093A" stroke-linecap="round" stroke-linejoin="round"/>
<path d="M54.3353 92.644C50.9013 93.9323 49.7011 112.839 54.8098 112.677C59.9184 112.516 58.529 103.215 58.529 103.215C58.529 103.215 61.4684 112.233 65.748 111.561C70.6538 110.79 71.1174 90.9212 67.184 90.6183C61.8841 90.2102 61.384 98.7023 61.384 98.7023C61.384 98.7023 58.5938 91.0463 54.3353 92.644Z" fill="#71C1F2" stroke="#22093A" stroke-linecap="round" stroke-linejoin="round"/>
<path d="M81.8988 90.8156C80.5141 88.9376 71.1948 89.7206 69.4034 95.2112C68.2344 98.7939 67.1458 111.548 73.2192 112.073C79.2926 112.599 84.2282 110.651 83.8702 107.399C83.5122 104.148 75.873 104.997 75.873 104.997C75.873 104.997 82.3741 103.796 82.2318 100.399C82.0896 97.0028 75.3709 99.033 75.3709 99.033C75.3709 99.033 85.6141 95.8542 81.8988 90.8156Z" fill="#71C1F2" stroke="#22093A" stroke-linecap="round" stroke-linejoin="round"/>
<path d="M90.2652 89.4634C88.449 89.457 86.2179 90.3855 85.2111 98.0538C84.3123 104.9 87.0022 105.199 87.698 105.201C88.3938 105.204 92.475 105.57 93.1818 98.0818C93.8885 90.594 92.9562 89.4728 90.2652 89.4634Z" fill="#71C1F2" stroke="#22093A" stroke-linecap="round" stroke-linejoin="round"/>
<path d="M87.9158 112.784C89.674 112.784 91.0992 111.359 91.0992 109.601C91.0992 107.843 89.674 106.417 87.9158 106.417C86.1577 106.417 84.7324 107.843 84.7324 109.601C84.7324 111.359 86.1577 112.784 87.9158 112.784Z" fill="#71C1F2" stroke="#22093A" stroke-linecap="round" stroke-linejoin="round"/>
<path d="M22.1137 97.3345C21.7799 99.7431 21.7692 105.084 23.2766 108.088" stroke="white" stroke-linecap="round" stroke-linejoin="round"/>
<path d="M43.5562 92.4549C42.0846 91.9016 38.6494 94.0126 38.3086 97.0725" stroke="white" stroke-linecap="round" stroke-linejoin="round"/>
<path d="M53.7764 102.703C53.5678 104.863 53.831 107.042 54.5479 109.089" stroke="white" stroke-linecap="round" stroke-linejoin="round"/>
<path d="M72.692 95.0142C71.445 97.2907 70.888 99.8811 71.089 102.469" stroke="white" stroke-linecap="round" stroke-linejoin="round"/>
<path d="M90.2345 92.3486C89.3832 92.4278 88.247 93.0045 87.8086 97.1813" stroke="white" stroke-linecap="round" stroke-linejoin="round"/>
<path d="M87.714 108.755C87.265 109.064 87.0503 109.615 87.1726 110.146" stroke="white" stroke-linecap="round" stroke-linejoin="round"/>
</g>
<defs>
<clipPath id="clip0_4_10984">
<rect width="120" height="119.874" fill="white"/>
</clipPath>
</defs>
</svg>
