<svg width="120" height="119" viewBox="0 0 120 119" fill="none" xmlns="http://www.w3.org/2000/svg">
<g clip-path="url(#clip0_5_11018)">
<path opacity="0.5" d="M110.531 40.1961C111.742 39.7476 112.705 39.2251 113.283 38.878C117.812 36.1577 120.312 31.8265 119.97 27.2881C119.808 25.1606 119.034 23.1287 117.667 21.2381C115.805 17.2229 111.564 13.8359 105.044 11.1598C102.545 10.1337 100.225 9.71418 98.0452 9.91128C96.7206 7.262 93.9684 5.13156 90.0583 3.78084C85.5669 2.23011 79.2206 1.72648 74.7061 4.73881C74.38 4.44171 74.0321 4.16055 73.6655 3.89678C66.8582 -1.00396 54.9944 0.669961 51.6712 1.79967C50.3147 2.26054 49.2104 2.90257 48.3104 3.65837C46.1118 2.14533 43.9625 2.19388 42.848 2.36634C38.7466 2.99025 36.5074 5.02142 35.3335 6.68084C34.5118 5.97722 33.5668 5.37432 32.477 4.95475C30.1321 4.05258 27.5407 4.19606 25.1842 5.36635C22.5451 6.68084 21.0175 9.06636 20.3349 11.9751C16.6726 11.1251 12.7813 12.0026 8.7581 14.5758C2.24069 18.7461 0.543589 26.1178 2.23635 31.249C2.63635 32.4577 3.22041 33.5809 3.97693 34.599C4.88563 36.6295 6.27838 38.2773 8.02621 39.4635C7.4552 42.0374 7.83636 44.8345 9.18853 47.2287C9.42042 47.6418 9.68129 48.0411 9.97984 48.4324C10.1262 48.7693 10.2842 49.0896 10.4581 49.3983C12.5016 53.023 16.4262 55.1875 20.9581 55.1875C21.1683 55.1875 21.3799 55.1824 21.6031 55.173C21.9683 55.157 22.3306 55.1317 22.6929 55.0954C22.6654 55.3375 22.6364 55.5686 22.6074 55.7766C21.6581 55.9121 20.2494 56.0215 19.3726 56.0896C16.3059 56.3317 13.903 58.9317 13.903 62.0078C13.903 65.0839 16.3059 67.6839 19.3784 67.9259C19.748 67.9549 20.2146 67.9911 20.7016 68.0339C19.2436 68.9991 17.9813 70.2158 16.9943 71.6165C15.1161 74.2774 14.4233 77.3803 14.89 80.3998C14.4074 80.6506 13.9393 80.9397 13.4914 81.2643C11.1885 82.431 9.30592 84.423 8.25955 86.8274C6.4436 90.9912 7.28128 95.6839 10.4987 99.3796C14.0958 103.514 19.303 105.885 24.7828 105.885C24.7828 105.885 24.7842 105.885 24.7857 105.885C25.1668 105.885 25.5509 105.875 25.9349 105.851C28.0306 105.727 29.9987 105.267 31.7567 104.498C31.577 106.353 31.6944 108.127 32.2277 109.731C33.1379 112.482 35.1277 114.569 37.835 115.611C41.0451 116.843 44.3553 116.556 47.1596 114.819C47.406 114.667 47.6321 114.51 47.835 114.359C48.1133 114.221 48.3785 114.073 48.635 113.914C52.0002 111.835 54.5278 107.712 56.1828 101.625C56.2872 106.44 57.1089 112.778 60.3843 116.055C61.9408 117.611 63.9626 118.468 66.08 118.468C66.3191 118.468 66.5626 118.457 66.8205 118.434C68.4379 118.283 69.9727 117.681 71.3148 116.681C72.1365 116.293 72.8887 115.784 73.5713 115.156C74.2133 115.672 74.8872 116.083 75.6017 116.398C77.609 117.281 79.8162 117.317 81.809 116.504C82.5133 116.217 83.1872 115.838 83.8481 115.351C86.0264 114.311 87.6351 112.588 88.7162 110.54C90.7249 111.112 92.8684 110.943 94.8525 110.044C95.4206 109.787 95.9525 109.467 96.4481 109.085C98.6858 108.033 100.225 106.196 101.055 103.594C105.302 104.829 108.238 103.593 110.021 102.211C110.839 101.807 111.592 101.282 112.266 100.643C114.757 98.2818 115.822 95.2593 115.266 92.1346C114.69 88.8969 112.381 85.8933 108.384 83.1709C108.8 81.723 108.954 80.4433 109.01 79.6708C109.416 74.1629 107.235 69.4266 103.173 66.9998C101.978 66.2876 100.684 65.8265 99.3124 65.564C99.364 65.3167 99.4231 65.0718 99.4423 64.8143C99.4742 64.4136 99.5148 63.894 99.5597 63.402C100.054 63.3556 100.576 63.315 100.98 63.2839C104.047 63.0418 106.45 60.4418 106.45 57.3657C106.45 55.288 105.34 53.4474 103.681 52.384C105.026 51.9628 106.247 51.2348 107.271 50.2005C109.466 47.9838 110.555 44.6302 110.531 40.1961Z" fill="#231F20"/>
<path d="M108.908 39.6121C110.119 39.1636 111.082 38.6411 111.66 38.294C116.189 35.5737 118.689 31.2426 118.347 26.7041C118.185 24.5766 117.411 22.5447 116.044 20.6541C114.182 16.6389 109.941 13.2519 103.421 10.5759C100.922 9.54976 98.6019 9.1302 96.4222 9.3273C95.0975 6.67802 92.3454 4.54758 88.4352 3.19685C83.9439 1.64612 77.5975 1.1425 73.083 4.15483C72.7569 3.85772 72.4091 3.57656 72.0424 3.31279C65.2352 -1.58794 53.3714 0.0859766 50.0482 1.21569C48.6917 1.67656 47.5873 2.31859 46.6873 3.07439C44.4888 1.56134 42.3395 1.60989 41.225 1.78236C37.1235 2.40627 34.8844 4.43743 33.7105 6.09686C32.8887 5.39323 31.9438 4.79033 30.8539 4.37077C28.509 3.46859 25.9177 3.61207 23.5612 4.78236C20.922 6.09686 19.3945 8.48237 18.7119 11.3911C15.0496 10.5411 11.1582 11.4186 7.13505 13.9918C0.617646 18.1621 -1.07946 25.5339 0.613299 30.665C1.0133 31.8737 1.59736 32.9969 2.35388 34.015C3.26258 36.0455 4.65534 37.6933 6.40317 38.8795C5.83215 41.4534 6.21331 44.2506 7.56549 46.6448C7.79737 47.0578 8.05824 47.4571 8.35679 47.8484C8.50317 48.1854 8.66114 48.5056 8.83506 48.8143C10.8785 52.439 14.8032 54.6035 19.3351 54.6035C19.5452 54.6035 19.7568 54.5984 19.98 54.589C20.3452 54.573 20.7075 54.5477 21.0699 54.5115C21.0423 54.7535 21.0133 54.9846 20.9844 55.1926C20.0351 55.3281 18.6264 55.4375 17.7496 55.5057C14.6829 55.7477 12.28 58.3477 12.28 61.4238C12.28 64.4999 14.6829 67.0999 17.7554 67.3419C18.1249 67.3709 18.5916 67.4071 19.0786 67.4499C17.6206 68.4151 16.3583 69.6318 15.3713 71.0325C13.493 73.6934 12.8003 76.7963 13.2669 79.8158C12.7843 80.0666 12.3162 80.3557 11.8684 80.6803C9.56549 81.847 7.68288 83.8391 6.6365 86.2434C4.82055 90.4072 5.65824 95.0999 8.87563 98.7956C12.4727 102.93 17.68 105.301 23.1597 105.301C23.1597 105.301 23.1612 105.301 23.1626 105.301C23.5438 105.301 23.9278 105.291 24.3119 105.267C26.4076 105.143 28.3757 104.683 30.1336 103.914C29.9539 105.769 30.0713 107.543 30.6047 109.147C31.5148 111.898 33.5047 113.985 36.2119 115.027C39.4221 116.259 42.7322 115.972 45.5366 114.235C45.783 114.083 46.009 113.926 46.2119 113.775C46.4902 113.637 46.7554 113.489 47.0119 113.33C50.3772 111.251 52.9047 107.128 54.5598 101.041C54.6641 105.856 55.4859 112.194 58.7612 115.471C60.3178 117.027 62.3395 117.884 64.4569 117.884C64.696 117.884 64.9395 117.873 65.1975 117.85C66.8149 117.699 68.3497 117.097 69.6917 116.097C70.5134 115.709 71.2656 115.2 71.9482 114.572C72.5903 115.088 73.2642 115.499 73.9787 115.814C75.9859 116.697 78.1932 116.733 80.1859 115.92C80.8903 115.633 81.5642 115.254 82.2251 114.767C84.4033 113.728 86.012 112.004 87.0932 109.956C89.1019 110.528 91.2454 110.359 93.2294 109.46C93.7975 109.203 94.3294 108.883 94.8251 108.501C97.0628 107.449 98.6019 105.612 99.4323 103.01C103.679 104.245 106.615 103.009 108.398 101.627C109.216 101.223 109.969 100.698 110.642 100.059C113.134 97.6978 114.199 94.6753 113.643 91.5507C113.067 88.313 110.758 85.3093 106.761 82.5869C107.177 81.139 107.331 79.8593 107.387 79.0869C107.793 73.5789 105.612 68.8426 101.55 66.4158C100.355 65.7036 99.0608 65.2425 97.6893 64.98C97.7409 64.7328 97.8001 64.4878 97.8193 64.2303C97.8512 63.8296 97.8917 63.31 97.9367 62.818C98.4309 62.7716 98.9526 62.731 99.357 62.6999C102.424 62.4578 104.827 59.8578 104.827 56.7817C104.827 54.704 103.717 52.8634 102.058 51.8C103.403 51.3788 104.624 50.6508 105.648 49.6165C107.842 47.3998 108.932 44.0462 108.908 39.6121Z" fill="white"/>
<path d="M37.161 80.0229C38.3244 77.0241 37.933 72.8086 31.2937 70.4955C24.757 68.218 17.1355 75.1004 22.1648 81.3571C26.8218 87.1506 23.2857 90.4144 21.5754 87.0977C18.2856 80.7179 9.42413 87.7619 14.8492 93.995C20.2743 100.228 29.5218 99.249 32.2473 95.2468C37.4102 87.6658 31.6547 83.6176 29.2774 81.0638C29.2774 81.0638 35.3854 84.6 37.161 80.0229Z" fill="#22093A" stroke="#22093A" stroke-miterlimit="10" stroke-linecap="round" stroke-linejoin="round"/>
<path d="M51.4208 81.7144C41.1581 78.018 37.073 79.5475 36.746 83.1601C36.2547 88.5886 43.0719 90.017 43.0719 90.017C43.0719 90.017 33.0192 105.959 39.8352 108.58C48.3331 111.849 50.2512 91.9047 50.2512 91.9047C50.2512 91.9047 60.1115 95.8496 61.1811 91.5155C62.08 87.8736 58.2987 84.1916 51.4208 81.7144Z" fill="#22093A" stroke="#22093A" stroke-miterlimit="10" stroke-linecap="round" stroke-linejoin="round"/>
<path d="M82.7464 100.965C82.1502 97.392 78.6895 80.3797 69.7622 81.967C65.1156 82.7932 62.751 88.5506 62.1648 94.7911C61.5287 101.562 62.4205 111.383 66.1391 111.035C69.0884 110.758 70.2843 106.426 70.7406 102.11C70.8988 102.117 73.2486 102.125 73.2486 102.125C74.6578 105.934 76.8732 110.56 79.4519 109.514C82.2224 108.39 83.2974 104.269 82.7464 100.965ZM70.9569 97.7374C71.0782 94.5596 70.8988 93.2769 70.8988 93.2769C70.8988 93.2769 71.3576 94.6485 72.2398 97.7344L70.9569 97.7374Z" fill="#22093A" stroke="#22093A" stroke-miterlimit="10" stroke-linecap="round" stroke-linejoin="round"/>
<path d="M84.4301 74.7789C78.551 78.5235 79.7396 82.6024 82.6785 90.7511C85.602 98.8569 88.4514 104.882 92.2753 103.149C96.0992 101.417 93.1836 89.8665 93.1836 89.8665C93.1836 89.8665 102.466 99.6454 106.578 95.7511C112.033 90.5842 98.3812 84.7158 98.3812 84.7158C103.617 82.5521 104.281 62.1351 84.4301 74.7789Z" fill="#22093A" stroke="#22093A" stroke-miterlimit="10" stroke-linecap="round" stroke-linejoin="round"/>
<path d="M88.0449 79.0702C88.0449 79.0702 91.383 76.7719 91.8652 78.8916C92.3473 81.0112 89.4194 82.3962 89.4194 82.3962L88.0449 79.0702Z" fill="#22093A" stroke="#22093A" stroke-miterlimit="10" stroke-linecap="round" stroke-linejoin="round"/>
<path d="M35.6825 80.9287C36.8459 77.9298 36.4545 73.7144 29.8152 71.4012C23.2785 69.1238 15.6569 76.0061 20.6863 82.2629C25.3433 88.0564 21.8072 91.3202 20.0969 88.0035C16.8071 81.6236 7.94561 88.6677 13.3707 94.9007C18.7958 101.134 28.0433 100.155 30.7688 96.1526C35.9316 88.5716 30.1762 84.5234 27.7989 81.9695C27.7989 81.9695 33.9069 85.5058 35.6825 80.9287Z" fill="#9736FF" stroke="#22093A" stroke-miterlimit="10" stroke-linecap="round" stroke-linejoin="round"/>
<path d="M49.9422 82.6201C39.6796 78.9238 35.5945 80.4532 35.2675 84.0658C34.7762 89.4944 41.5934 90.9227 41.5934 90.9227C41.5934 90.9227 31.5407 106.864 38.3567 109.486C46.8546 112.755 48.7727 92.8104 48.7727 92.8104C48.7727 92.8104 58.6329 96.7554 59.7026 92.4213C60.6015 88.7794 56.8201 85.0974 49.9422 82.6201Z" fill="#9736FF" stroke="#22093A" stroke-miterlimit="10" stroke-linecap="round" stroke-linejoin="round"/>
<path d="M81.2679 101.871C80.6717 98.2978 77.211 81.2855 68.2837 82.8728C63.637 83.6989 61.2725 89.4564 60.6862 95.6969C60.0502 102.467 60.942 112.289 64.6606 111.941C67.6099 111.664 68.8057 107.332 69.2621 103.016C69.4203 103.022 71.7701 103.031 71.7701 103.031C73.1792 106.84 75.3946 111.466 77.9734 110.42C80.7439 109.296 81.8189 105.175 81.2679 101.871ZM69.4784 98.6431C69.5997 95.4653 69.4203 94.1827 69.4203 94.1827C69.4203 94.1827 69.8791 95.5542 70.7612 98.6402L69.4784 98.6431Z" fill="#9736FF" stroke="#22093A" stroke-miterlimit="10" stroke-linecap="round" stroke-linejoin="round"/>
<path d="M82.9515 75.6846C77.0725 79.4293 78.2611 83.5082 81.2 91.6569C84.1234 99.7627 86.9729 105.787 90.7968 104.055C94.6207 102.322 91.7051 90.7723 91.7051 90.7723C91.7051 90.7723 100.987 100.551 105.099 96.6569C110.555 91.4899 96.9027 85.6216 96.9027 85.6216C102.139 83.4578 102.802 63.0409 82.9515 75.6846Z" fill="#9736FF" stroke="#22093A" stroke-miterlimit="10" stroke-linecap="round" stroke-linejoin="round"/>
<path d="M86.5664 79.9759C86.5664 79.9759 89.9045 77.6776 90.3867 79.7973C90.8688 81.917 87.9409 83.302 87.9409 83.302L86.5664 79.9759Z" fill="#22093A" stroke="#22093A" stroke-miterlimit="10" stroke-linecap="round" stroke-linejoin="round"/>
<path d="M14.8906 90.7197C14.8906 92.2414 16.5813 95.1701 21.3153 96.13" stroke="#D9BBFF" stroke-miterlimit="10" stroke-linecap="round" stroke-linejoin="round"/>
<path d="M22.0777 78.6027C21.7395 76.9684 23.5429 73.9814 26.4735 73.9814" stroke="#D9BBFF" stroke-miterlimit="10" stroke-linecap="round" stroke-linejoin="round"/>
<path d="M63.7928 95.5068C63.7496 95.9428 63.7149 96.3935 63.6895 96.8595" stroke="#D9BBFF" stroke-miterlimit="10" stroke-linecap="round" stroke-linejoin="round"/>
<path d="M67.6982 85.873C65.3312 87.6765 64.7632 89.562 64.1836 92.9134" stroke="#D9BBFF" stroke-miterlimit="10" stroke-linecap="round" stroke-linejoin="round"/>
<path d="M40.5347 99.0039C39.4679 101.067 37.435 105.09 39.8584 106.725" stroke="#D9BBFF" stroke-miterlimit="10" stroke-linecap="round" stroke-linejoin="round"/>
<path d="M84.1543 90.7197C84.4361 92.9134 87.2079 99.7368 88.9446 100.075" stroke="#D9BBFF" stroke-miterlimit="10" stroke-linecap="round" stroke-linejoin="round"/>
<path d="M42.7805 83.7349C38.8919 82.296 36.7681 85.0955 39.5682 86.9825" stroke="#D9BBFF" stroke-miterlimit="10" stroke-linecap="round" stroke-linejoin="round"/>
<path d="M22.723 22.504C21.1033 19.7249 17.538 17.3634 11.6157 21.1524C4.75255 25.5433 5.99842 35.6398 14.4177 35.0614C24.3396 34.3798 23.3903 39.6719 18.539 39.1009C11.41 38.2618 11.4833 49.0162 19.739 48.6599C27.9946 48.3035 32.9938 40.4625 31.5636 35.8365C28.8543 27.0737 22.1011 29.0503 18.6222 29.3172C18.6222 29.3172 25.1949 26.7457 22.723 22.504Z" fill="#22093A" stroke="#22093A" stroke-miterlimit="10" stroke-linecap="round" stroke-linejoin="round"/>
<path d="M102.447 18.2272C96.474 15.7754 94.0206 18.8527 89.4204 25.4276C84.8444 31.9679 81.8045 37.3413 85.1573 39.3113C88.5102 41.2814 95.6979 32.9084 95.6979 32.9084C95.6979 32.9084 93.2499 45.1559 98.3931 46.1899C105.217 47.5618 102.372 34.0937 102.372 34.0937C106.805 36.9026 122.616 26.5059 102.447 18.2272Z" fill="#22093A" stroke="#22093A" stroke-miterlimit="10" stroke-linecap="round" stroke-linejoin="round"/>
<path d="M101.128 23.2554C101.128 23.2554 104.65 24.5556 103.303 26.0522C101.955 27.5488 99.3438 26.0715 99.3438 26.0715L101.128 23.2554Z" fill="#22093A" stroke="#22093A" stroke-miterlimit="10" stroke-linecap="round" stroke-linejoin="round"/>
<path d="M27.4886 12.2561C22.0084 14.984 28.3655 40.4274 41.6167 36.1443C52.768 32.54 48.175 9.08435 43.3994 9.81045C33.4647 11.3209 44.331 25.1765 39.0464 26.614C36.2982 27.3616 33.9537 9.03794 27.4886 12.2561Z" fill="#22093A" stroke="#22093A" stroke-miterlimit="10" stroke-linecap="round" stroke-linejoin="round"/>
<path d="M53.2414 8.99499C49.1619 10.3815 49.9596 15.2416 49.1289 25.2388C48.4275 33.6793 51.559 34.9079 54.5022 34.8819C60.3834 34.83 59.4159 23.5936 59.4159 23.5936C59.4159 23.5936 71.9115 27.3806 71.9726 14.2783C72.0068 6.91993 57.4336 7.57019 53.2414 8.99499Z" fill="#22093A" stroke="#22093A" stroke-miterlimit="10" stroke-linecap="round" stroke-linejoin="round"/>
<path d="M59.6957 14.3259C59.6957 14.3259 63.3168 13.8721 62.8238 15.7665C62.3307 17.6609 59.416 17.5545 59.416 17.5545L59.6957 14.3259Z" fill="#22093A" stroke="#22093A" stroke-miterlimit="10" stroke-linecap="round" stroke-linejoin="round"/>
<path d="M92.6638 14.9956C92.3017 11.1259 80.7319 7.82798 76.8044 11.9735C73.8534 15.0883 66.3585 30.8614 72.4526 34.1838C78.5467 37.5062 86.0758 38.1757 87.1441 33.1916C87.9247 29.5501 79.9012 27.0328 79.9012 27.0328C79.9012 27.0328 87.3692 29.5623 88.7724 25.955C90.1756 22.3477 82.1018 20.5837 82.1018 20.5837C82.1018 20.5837 93.328 22.0924 92.6638 14.9956Z" fill="#22093A" stroke="#22093A" stroke-miterlimit="10" stroke-linecap="round" stroke-linejoin="round"/>
<path d="M21.4593 20.3453C19.8397 17.5662 16.2744 15.2047 10.3521 18.9937C3.48887 23.3846 4.73475 33.4812 13.154 32.9027C23.0759 32.2211 22.1266 37.5133 17.2753 36.9422C10.1463 36.1031 10.2196 46.8575 18.4753 46.5012C26.7309 46.1448 31.7302 38.3038 30.2999 33.6778C27.5907 24.915 20.8374 26.8916 17.3586 27.1585C17.3586 27.1585 23.9313 24.587 21.4593 20.3453Z" fill="#9736FF" stroke="#22093A" stroke-miterlimit="10" stroke-linecap="round" stroke-linejoin="round"/>
<path d="M101.184 16.0685C95.2104 13.6167 92.7569 16.694 88.1567 23.2689C83.5807 29.8092 80.5408 35.1826 83.8937 37.1527C87.2465 39.1227 94.4343 30.7497 94.4343 30.7497C94.4343 30.7497 91.9862 42.9972 97.1294 44.0312C103.953 45.4031 101.108 31.935 101.108 31.935C105.542 34.744 121.353 24.3472 101.184 16.0685Z" fill="#9736FF" stroke="#22093A" stroke-miterlimit="10" stroke-linecap="round" stroke-linejoin="round"/>
<path d="M99.8644 21.0967C99.8644 21.0967 103.386 22.3969 102.039 23.8935C100.692 25.3901 98.0801 23.9128 98.0801 23.9128L99.8644 21.0967Z" fill="#22093A" stroke="#22093A" stroke-miterlimit="10" stroke-linecap="round" stroke-linejoin="round"/>
<path d="M26.223 10.0974C20.7428 12.8253 27.0999 38.2687 40.3511 33.9856C51.5024 30.3813 46.9094 6.92566 42.1338 7.65176C32.199 9.16226 43.0654 23.0178 37.7808 24.4554C35.0325 25.2029 32.6881 6.87925 26.223 10.0974Z" fill="#9736FF" stroke="#22093A" stroke-miterlimit="10" stroke-linecap="round" stroke-linejoin="round"/>
<path d="M51.9778 6.83629C47.8983 8.22281 48.6959 13.0829 47.8652 23.0801C47.1638 31.5206 50.2953 32.7492 53.2386 32.7232C59.1197 32.6713 58.1522 21.4349 58.1522 21.4349C58.1522 21.4349 70.6478 25.2219 70.7089 12.1196C70.7432 4.76124 56.1699 5.4115 51.9778 6.83629Z" fill="#9736FF" stroke="#22093A" stroke-miterlimit="10" stroke-linecap="round" stroke-linejoin="round"/>
<path d="M58.4321 12.1672C58.4321 12.1672 62.0532 11.7134 61.5601 13.6078C61.067 15.5022 58.1523 15.3959 58.1523 15.3959L58.4321 12.1672Z" fill="#22093A" stroke="#22093A" stroke-miterlimit="10" stroke-linecap="round" stroke-linejoin="round"/>
<path d="M91.3982 12.8369C91.036 8.96723 79.4662 5.66929 75.5388 9.81476C72.5878 12.9297 65.0929 28.7027 71.187 32.0251C77.2811 35.3475 84.8102 36.017 85.8785 31.0329C86.6591 27.3914 78.6356 24.8741 78.6356 24.8741C78.6356 24.8741 86.1035 27.4036 87.5067 23.7963C88.9099 20.189 80.8362 18.425 80.8362 18.425C80.8362 18.425 92.0624 19.9337 91.3982 12.8369Z" fill="#9736FF" stroke="#22093A" stroke-miterlimit="10" stroke-linecap="round" stroke-linejoin="round"/>
<path d="M11.652 21.4883C9.009 23.1659 6.66407 28.3327 11.2843 30.1361" stroke="#D9BBFF" stroke-miterlimit="10" stroke-linecap="round" stroke-linejoin="round"/>
<path d="M26.0488 31.8706C26.6018 32.1219 28.4086 34.3336 27.1031 37.3496" stroke="#D9BBFF" stroke-miterlimit="10" stroke-linecap="round" stroke-linejoin="round"/>
<path d="M28.002 21.2705C28.8218 23.793 29.9442 26.4146 31.2307 27.938" stroke="#D9BBFF" stroke-miterlimit="10" stroke-linecap="round" stroke-linejoin="round"/>
<path d="M26.8086 16.7231C26.9153 17.2805 27.0574 17.9181 27.2311 18.6038" stroke="#D9BBFF" stroke-miterlimit="10" stroke-linecap="round" stroke-linejoin="round"/>
<path d="M65.8965 9.31445C67.1555 9.81386 68.1011 10.7133 68.0724 12.1196C68.0161 14.881 66.8514 17.0234 66.8514 17.0234" stroke="#D9BBFF" stroke-miterlimit="10" stroke-linecap="round" stroke-linejoin="round"/>
<path d="M61.9766 8.54395C62.6484 8.58368 62.6618 8.63514 63.337 8.70105" stroke="#D9BBFF" stroke-miterlimit="10" stroke-linecap="round" stroke-linejoin="round"/>
<path d="M50.335 26.7256C50.2586 26.0569 50.307 26.0349 50.2559 25.3584" stroke="#D9BBFF" stroke-miterlimit="10" stroke-linecap="round" stroke-linejoin="round"/>
<path d="M72.7841 21.2705C72.3192 22.5497 70.3326 27.1631 72.615 29.6794" stroke="#D9BBFF" stroke-miterlimit="10" stroke-linecap="round" stroke-linejoin="round"/>
<path d="M107.189 22.9487C108.245 23.3921 109.006 27.0271 105.498 28.6755" stroke="#D9BBFF" stroke-miterlimit="10" stroke-linecap="round" stroke-linejoin="round"/>
<path d="M82.2761 83.9147L60.972 70.9556L40.5666 82.9736L45.7489 64.1368L33.0195 47.9599L52.6067 44.9983L59.3407 24.3887L69.6657 42.1746L90.4392 43.6053L78.9089 61.8175L82.2761 83.9147Z" fill="#22093A" stroke="#22093A" stroke-miterlimit="10" stroke-linecap="round" stroke-linejoin="round"/>
<path d="M81.6994 82.9401L60.8497 70.1161L40.5673 82.9736L43.9599 62.4165L31.2305 46.2397L50.8176 43.278L59.3414 24.3887L69.1791 42.6979L89.7638 43.5018L78.0771 61.7527L81.6994 82.9401Z" fill="#FCC707" stroke="#22093A" stroke-miterlimit="10" stroke-linecap="round" stroke-linejoin="round"/>
<path d="M75.3222 46.4482L61.1052 46.8719C61.1052 46.8719 60.3664 58.6796 69.127 57.6029C77.8875 56.5262 75.3222 46.4482 75.3222 46.4482Z" fill="#22093A" stroke="#22093A" stroke-miterlimit="10" stroke-linecap="round" stroke-linejoin="round"/>
<path d="M58.3261 46.8364L44.1091 47.2601C44.1091 47.2601 43.3703 59.0678 52.1309 57.9911C60.8915 56.9144 58.3261 46.8364 58.3261 46.8364Z" fill="#22093A" stroke="#22093A" stroke-miterlimit="10" stroke-linecap="round" stroke-linejoin="round"/>
<path d="M60.9712 50.1921L58.6816 50.1011" stroke="#22093A" stroke-miterlimit="10" stroke-linecap="round" stroke-linejoin="round"/>
<path d="M50.6768 48.6685L47.5371 53.4111" stroke="white" stroke-miterlimit="10" stroke-linecap="round" stroke-linejoin="round"/>
<path d="M55.098 48.2827L49.9434 56.3417" stroke="white" stroke-miterlimit="10" stroke-linecap="round" stroke-linejoin="round"/>
<path d="M73.839 48.6685L70.1289 54.9891" stroke="white" stroke-miterlimit="10" stroke-linecap="round" stroke-linejoin="round"/>
<path d="M70.1294 48.1138L68.3809 51.04" stroke="white" stroke-miterlimit="10" stroke-linecap="round" stroke-linejoin="round"/>
<path d="M65.8496 59.5264L55.1133 59.6865C54.9374 64.2387 56.4436 67.5305 60.4026 67.5408C66.7653 67.5573 65.8496 59.5264 65.8496 59.5264Z" fill="white" stroke="#22093A" stroke-miterlimit="10" stroke-linecap="round" stroke-linejoin="round"/>
<path d="M55.7734 62.8955H65.1609" stroke="#22093A" stroke-miterlimit="10" stroke-linecap="round" stroke-linejoin="round"/>
<path d="M58.9857 33.0786L56.0762 39.7805" stroke="white" stroke-miterlimit="10" stroke-linecap="round" stroke-linejoin="round"/>
<path d="M91.9191 63.7703C95.7781 63.7703 98.9065 60.6419 98.9065 56.7828C98.9065 52.9238 95.7781 49.7954 91.9191 49.7954C88.06 49.7954 84.9316 52.9238 84.9316 56.7828C84.9316 60.6419 88.06 63.7703 91.9191 63.7703Z" fill="white"/>
<path d="M93.403 54.5553L91.1758 56.7832L93.4037 59.0104L95.6309 56.7825L93.403 54.5553Z" fill="#EC6509"/>
<path d="M93.4043 64.5117C93.0173 64.5117 92.6941 64.2132 92.6651 63.8277C92.2159 58.0871 92.0985 57.9697 86.3579 57.5226C85.9724 57.4921 85.6738 57.1704 85.6738 56.7827C85.6738 56.395 85.9724 56.0733 86.3579 56.0429C92.0985 55.5958 92.2159 55.4784 92.6651 49.7378C92.6941 49.3515 93.0173 49.0537 93.4043 49.0537C93.7912 49.0537 94.1144 49.3515 94.1434 49.7378C94.5912 55.4784 94.7086 55.5958 100.449 56.0429C100.835 56.0733 101.133 56.395 101.133 56.7827C101.133 57.1704 100.835 57.4921 100.449 57.5226C94.7086 57.9697 94.5912 58.0871 94.1434 63.8277C94.1144 64.2132 93.7912 64.5117 93.4043 64.5117ZM91.1767 56.7827C92.3217 57.2023 92.984 57.8653 93.4043 59.011C93.8231 57.8646 94.4854 57.2023 95.6304 56.7827C94.4854 56.3631 93.8231 55.7008 93.4043 54.5544C92.984 55.7001 92.3217 56.3631 91.1767 56.7827Z" fill="#22093A"/>
<path d="M27.2317 70.4243C32.2018 70.4243 36.231 66.3952 36.231 61.425C36.231 56.4549 32.2018 52.4258 27.2317 52.4258C22.2615 52.4258 18.2324 56.4549 18.2324 61.425C18.2324 66.3952 22.2615 70.4243 27.2317 70.4243Z" fill="white"/>
<path d="M27.2328 57.8152L23.623 61.4243L27.2321 65.0341L30.8419 61.425L27.2328 57.8152Z" fill="#EC6509"/>
<path d="M27.2316 71.1655C26.8439 71.1655 26.5221 70.867 26.4917 70.4815C25.9076 62.9829 25.6743 62.7496 18.1743 62.164C17.7881 62.1351 17.4902 61.8119 17.4902 61.4249C17.4902 61.038 17.7881 60.7148 18.1743 60.6858C25.6743 60.1003 25.9076 59.8669 26.4917 52.3677C26.5221 51.9814 26.8439 51.6836 27.2316 51.6836C27.6192 51.6836 27.941 51.9814 27.9714 52.3684C28.5547 59.8669 28.7881 60.1003 36.2888 60.6858C36.6751 60.7148 36.9729 61.038 36.9729 61.4249C36.9729 61.8119 36.6751 62.1351 36.2888 62.164C28.7881 62.7496 28.5547 62.9829 27.9714 70.4815C27.941 70.867 27.6192 71.1655 27.2316 71.1655ZM23.6214 61.4249C25.6576 61.9988 26.6569 62.9974 27.2316 65.0336C27.8055 62.9974 28.8048 61.9988 30.841 61.4249C28.8048 60.851 27.8055 59.851 27.2316 57.8155C26.6569 59.851 25.6576 60.851 23.6214 61.4249Z" fill="#22093A"/>
</g>
<defs>
<clipPath id="clip0_5_11018">
<rect width="120" height="118.468" fill="white"/>
</clipPath>
</defs>
</svg>
