<svg width="120" height="120" viewBox="0 0 120 120" fill="none" xmlns="http://www.w3.org/2000/svg">
<path d="M30.3874 114.779C34.383 114.197 34.7709 109.454 35.9686 105.825C37.7865 108.793 39.2766 113.235 43.1825 112.624C47.6972 111.917 49.9615 105.204 50.487 97.7726C51.0571 89.7095 50.483 78.8573 45.4531 79.2738C39.6541 79.7541 39.9067 95.8047 39.9067 95.8047C39.9067 95.8047 38.7598 84.6181 33.7203 85.3333C27.9663 86.15 29.6411 97.0517 29.6411 97.0517C29.6411 97.0517 27.2813 81.6598 20.9513 82.6752C18.0582 83.1393 17.0467 87.1902 17.6072 91.181C18.2135 95.4978 21.6997 116.045 30.3874 114.779Z" fill="#22093A" stroke="#22093A" stroke-linecap="round" stroke-linejoin="round"/>
<path d="M61.1934 79.1163C66.7757 78.5797 75.4905 83.7035 75.3337 94.603C75.1769 105.502 68.2974 110.828 62.1878 111.371C56.6753 111.86 49.1538 107.923 48.937 96.3208C48.7594 86.8155 52.994 79.9045 61.1934 79.1163Z" fill="#22093A" stroke="#22093A" stroke-linecap="round" stroke-linejoin="round"/>
<path d="M62.3776 87.509C63.17 87.0642 64.3862 89.1284 64.3261 94.1773C64.266 99.2262 63.2732 101.933 62.4061 102.399C61.6238 102.819 60.5724 101.262 60.5821 95.9014C60.59 91.5093 61.2138 88.1623 62.3776 87.509Z" fill="#22093A" stroke="#22093A" stroke-linecap="round" stroke-linejoin="round"/>
<path d="M81.886 109.094C85.9227 109.186 87.0954 104.573 88.8808 101.195C90.1789 104.424 90.9083 109.053 94.8614 109.101C99.4307 109.156 102.781 102.914 104.538 95.6736C106.443 87.8181 107.684 77.0219 102.655 76.5947C96.8574 76.1023 94.433 91.9708 94.433 91.9708C94.433 91.9708 95.1654 80.7494 90.0772 80.6152C84.2675 80.462 84.103 91.4904 84.103 91.4904C84.103 91.4904 84.34 75.9204 77.9294 75.8673C74.9994 75.843 73.3272 79.6689 73.2151 83.6972C73.0939 88.0548 73.1089 108.895 81.886 109.094Z" fill="#22093A" stroke="#22093A" stroke-linecap="round" stroke-linejoin="round"/>
<path d="M105.712 28.4246C101.544 17.7287 91.2163 10.7073 79.7373 10.7663C65.3847 10.5366 62.5348 24.4372 62.5348 24.4372C62.5348 24.4372 54.747 4.85469 32.2309 11.6777C13.4335 17.3739 3.2942 44.1461 13.2056 62.3739C23.117 80.6017 41.0031 82.6524 59.6867 93.1334C63.7372 95.6493 67.6189 98.4274 71.3069 101.45C71.3069 101.45 72.788 90.627 95.3449 71.058C111.566 56.9854 108.798 36.8513 105.712 28.4246Z" fill="#22093A"/>
<path d="M60.6675 23.3029C60.6675 23.3029 52.8798 3.72044 30.3637 10.5434C11.5663 16.2396 1.42703 43.0118 11.3384 61.2396C21.2498 79.4675 39.1359 81.5181 57.8194 91.9991C61.87 94.515 65.7517 97.2931 69.4397 100.316C69.4397 100.316 70.9207 89.4928 93.4777 69.9238C109.699 55.8511 106.931 35.7171 103.845 27.2903C99.6772 16.5944 89.3491 9.57308 77.8701 9.63204C63.5175 9.40241 60.6675 23.3029 60.6675 23.3029Z" fill="#E9022C" stroke="#22093A" stroke-linecap="round" stroke-linejoin="round"/>
<path d="M71.9825 46.0132C71.9825 46.0132 73.4386 66.6798 65.5778 68.0087C57.717 69.3377 52.1543 48.5874 52.1543 48.5874L71.9825 46.0132Z" fill="#22093A" stroke="#22093A" stroke-linecap="round" stroke-linejoin="round"/>
<path d="M52.1543 48.5882L71.9828 46.0142V51.8882L54.0068 54.2417L52.1543 48.5882Z" fill="white" stroke="#22093A" stroke-linecap="round" stroke-linejoin="round"/>
<path d="M59.8093 63.0013C59.3601 60.4132 61.3645 59.4071 63.9738 58.9543C66.5832 58.5015 68.8094 58.7732 69.2586 61.3614C69.6867 63.9751 67.915 66.4409 65.3014 66.8691C62.7227 67.2915 60.2805 65.5716 59.8093 63.0014L59.8093 63.0013Z" fill="#FD32B0" stroke="#22093A" stroke-linecap="round" stroke-linejoin="round"/>
<path d="M48.4988 44.0476C52.0793 43.633 54.5433 39.509 54.0023 34.8364C53.4613 30.1637 50.1201 26.7118 46.5397 27.1263C42.9592 27.5409 40.4952 31.6649 41.0362 36.3376C41.5772 41.0102 44.9183 44.4621 48.4988 44.0476Z" fill="white" stroke="#22093A" stroke-linecap="round" stroke-linejoin="round"/>
<path d="M70.5782 40.0286C73.561 39.7902 75.7268 36.4413 75.4156 32.5487C75.1045 28.656 72.4343 25.6937 69.4515 25.9321C66.4688 26.1705 64.303 29.5194 64.6141 33.412C64.9252 37.3046 67.5955 40.267 70.5782 40.0286Z" fill="white" stroke="#22093A" stroke-linecap="round" stroke-linejoin="round"/>
<path d="M51.5502 33.5974C51.3479 31.0664 49.6118 29.1403 47.6724 29.2954C45.733 29.4504 44.3248 31.6277 44.5271 34.1587C44.5915 35.0222 44.8547 35.8591 45.2963 36.6039L47.3498 35.2325V38.3172C47.6888 38.4332 48.0473 38.482 48.405 38.4608C50.3443 38.3057 51.7525 36.1284 51.5502 33.5974Z" fill="#22093A" stroke="#22093A" stroke-linecap="round" stroke-linejoin="round"/>
<path d="M73.3867 31.4244C73.1925 28.995 71.5261 27.1462 69.6646 27.295C67.803 27.4438 66.4513 29.5338 66.6455 31.9632C66.7073 32.792 66.9599 33.5954 67.3838 34.3103L69.3548 32.9939V35.9548C69.6802 36.0662 70.0243 36.113 70.3676 36.0927C72.2292 35.9438 73.5809 33.8538 73.3867 31.4244Z" fill="#22093A"/>
<path d="M36.2638 67.7113C41.8396 67.7113 46.3597 63.1912 46.3597 57.6154C46.3597 52.0396 41.8396 47.5195 36.2638 47.5195C30.688 47.5195 26.168 52.0396 26.168 57.6154C26.168 63.1912 30.688 67.7113 36.2638 67.7113Z" fill="#FF4069"/>
<path d="M87.3174 54.2407C91.8613 54.2407 95.5449 50.5571 95.5449 46.0132C95.5449 41.4692 91.8613 37.7856 87.3174 37.7856C82.7734 37.7856 79.0898 41.4692 79.0898 46.0132C79.0898 50.5571 82.7734 54.2407 87.3174 54.2407Z" fill="#FF4069"/>
<path d="M40.9293 17.8204C38.2512 19.2215 34.7234 21.8745 35.3936 23.3638C36.0611 24.8472 41.519 22.0969 43.6256 20.6487C48.1398 17.545 47.4052 14.4322 40.9293 17.8204Z" fill="#22093A" stroke="#22093A" stroke-linecap="round" stroke-linejoin="round"/>
<path d="M71.4613 11.8878C68.4517 11.6092 64.0486 11.9198 63.8021 13.5343C63.5567 15.1423 69.633 15.7986 72.1884 15.7271C77.6645 15.5739 78.7389 12.5615 71.4613 11.8878Z" fill="#22093A" stroke="#22093A" stroke-linecap="round" stroke-linejoin="round"/>
<path d="M26.3785 16.6421C12.2198 24.93 9.98119 44.4446 11.9324 52.3224" stroke="#FFB3CE" stroke-linecap="round" stroke-linejoin="round"/>
<path d="M15.4102 61.6689C17.5329 64.764 20.1078 67.5233 23.049 69.8546" stroke="#FFB3CE" stroke-linecap="round" stroke-linejoin="round"/>
<path d="M13.0059 57.042C13.2846 57.8264 13.6204 58.5893 14.0106 59.3246" stroke="#FFB3CE" stroke-linecap="round" stroke-linejoin="round"/>
<path d="M28.0065 114.175C32.0021 113.593 32.3901 108.849 33.5878 105.22C35.4057 108.188 36.8958 112.631 40.8017 112.019C45.3164 111.313 47.5806 104.6 48.1061 97.1681C48.6762 89.105 48.1022 78.2528 43.0722 78.6694C37.2732 79.1496 37.5259 95.2002 37.5259 95.2002C37.5259 95.2002 36.3789 84.0136 31.3395 84.7288C25.5855 85.5455 27.2602 96.4472 27.2602 96.4472C27.2602 96.4472 24.9004 81.0553 18.5705 82.0707C15.6774 82.5348 14.6658 86.5857 15.2263 90.5765C15.8327 94.8934 19.3188 115.44 28.0065 114.175Z" fill="#9736FF" stroke="#22093A" stroke-linecap="round" stroke-linejoin="round"/>
<path d="M58.8125 78.2242C64.3948 77.6876 73.1096 82.8114 72.9528 93.7109C72.796 104.61 65.9165 109.936 59.8069 110.478C54.2944 110.968 46.7729 107.031 46.5561 95.4287C46.3786 85.9234 50.6132 79.0124 58.8125 78.2242Z" fill="#9736FF" stroke="#22093A" stroke-linecap="round" stroke-linejoin="round"/>
<path d="M59.9987 86.9045C60.7911 86.4597 62.0073 88.5239 61.9472 93.5728C61.8871 98.6217 60.8943 101.328 60.0272 101.794C59.2449 102.215 58.1935 100.658 58.2032 95.2968C58.2111 90.9047 58.8349 87.5578 59.9987 86.9045Z" fill="#22093A" stroke="#22093A" stroke-linecap="round" stroke-linejoin="round"/>
<path d="M79.5052 108.49C83.5419 108.582 84.7146 103.969 86.5 100.59C87.7981 103.82 88.5274 108.448 92.4805 108.496C97.0499 108.551 100.401 102.31 102.157 95.0691C104.062 87.2136 105.304 76.4174 100.275 75.9903C94.4765 75.4978 92.0521 91.3663 92.0521 91.3663C92.0521 91.3663 92.7846 80.1449 87.6963 80.0107C81.8867 79.8575 81.7221 90.8859 81.7221 90.8859C81.7221 90.8859 81.9591 75.3159 75.5485 75.2628C72.6185 75.2385 70.9463 79.0644 70.8342 83.0927C70.7131 87.4503 70.7281 108.291 79.5052 108.49Z" fill="#9736FF" stroke="#22093A" stroke-linecap="round" stroke-linejoin="round"/>
<path d="M18.0267 85.4956C17.3915 87.8547 18.6142 97.0156 21.208 103.426" stroke="#D9BBFF" stroke-linecap="round" stroke-linejoin="round"/>
<path d="M31.1764 87.4502C30.2023 88.4269 29.6305 89.7337 29.5742 91.1119" stroke="#D9BBFF" stroke-linecap="round" stroke-linejoin="round"/>
<path d="M42.7415 81.0479C41.5675 82.4563 40.8927 84.2138 40.8223 86.046" stroke="#D9BBFF" stroke-linecap="round" stroke-linejoin="round"/>
<path d="M56.8367 81.7026C53.8906 82.1943 49.2786 85.2368 49.5698 93.8938" stroke="#D9BBFF" stroke-linecap="round" stroke-linejoin="round"/>
<path d="M49.5586 97.2119C49.6907 98.2644 49.9163 99.3031 50.2326 100.316" stroke="#D9BBFF" stroke-linecap="round" stroke-linejoin="round"/>
<path d="M75.0741 78.5337C73.6593 79.8551 72.9676 81.7771 73.2156 83.697" stroke="#D9BBFF" stroke-linecap="round" stroke-linejoin="round"/>
<path d="M74.1367 95.8071C74.6555 98.21 75.2984 100.584 76.0627 102.921" stroke="#D9BBFF" stroke-linecap="round" stroke-linejoin="round"/>
</svg>
