<svg width="120" height="119" viewBox="0 0 120 119" fill="none" xmlns="http://www.w3.org/2000/svg">
<g clip-path="url(#clip0_5_10987)">
<path opacity="0.5" d="M115.852 53.5763C114.101 52.2462 111.891 51.6698 109.714 51.9748C109.119 52.0565 108.535 52.202 107.971 52.4087C107.049 50.4063 105.981 48.4741 104.777 46.6274C105.862 46.5684 106.929 46.3227 107.931 45.9012C109.057 45.4292 110.079 44.7389 110.938 43.8702C112.051 43.6543 113.088 43.1516 113.947 42.4119C114.523 41.918 115.012 41.332 115.396 40.678C117.357 39.7194 118.871 38.04 119.622 35.991C120.539 33.2678 119.726 30.2602 117.561 28.3702C115.482 26.4246 112.579 25.6258 109.797 26.234C109.051 26.3895 108.329 26.6382 107.646 26.9743C106.206 26.4655 104.639 26.4389 103.183 26.8983C103.431 24.7968 103.388 22.671 103.054 20.5813C101.969 14.0271 97.56 8.50597 91.408 5.99844C88.6311 4.44078 85.599 3.39014 82.4536 2.89573C79.0981 2.38917 75.721 3.66651 73.5407 6.26689C72.3296 5.06874 70.879 4.13998 69.2839 3.54147C67.3794 2.31196 65.1593 1.66072 62.8924 1.66654H62.8437C59.1443 1.72853 55.6545 3.39605 53.2822 6.2354C52.8772 6.03098 52.4563 5.85979 52.0236 5.72352C48.6647 3.22079 43.3871 4.12063 41.1205 4.67473C35.1728 6.12515 30.6956 9.49274 28.7512 13.8705C24.7093 12.8661 19.436 12.9412 12.9041 15.744C10.7335 16.6761 7.05237 19.2411 6.78462 25.9534C6.44959 34.3767 12.4645 49.0719 19.078 52.559C19.4843 52.7713 19.9089 52.9464 20.3466 53.0823C20.537 53.2141 20.726 53.3372 20.9165 53.4518C19.0395 57.986 18.0013 62.8232 17.8524 67.7282C17.7032 71.1555 17.7419 74.5884 17.9684 78.0114C17.3268 77.7425 16.7723 77.3012 16.3662 76.7364C15.5392 74.88 13.9919 73.4403 12.0808 72.7488C10.1119 72.0392 7.94038 72.1507 6.05442 73.0581C4.44936 73.8312 3.15227 75.1235 2.37324 76.7256C2.09425 77.3037 1.89024 77.915 1.76615 78.5447C1.38747 80.1369 1.5295 81.8086 2.17135 83.314C4.3443 87.9185 8.29434 91.4428 13.1157 93.0788C12.7176 93.327 12.3429 93.611 11.9963 93.9272C10.0059 95.7029 9.26336 98.4929 10.1078 101.023C10.7418 102.767 11.9915 104.219 13.6214 105.105C13.9489 105.6 14.3436 106.047 14.7941 106.434C15.5104 107.051 16.3595 107.495 17.2754 107.73C17.9759 108.381 18.7852 108.905 19.6665 109.277C20.7057 109.719 21.8233 109.947 22.9524 109.947C25.0368 109.952 27.0458 109.167 28.5752 107.751C30.0941 106.381 30.939 104.415 30.8886 102.37C31.561 102.788 32.2646 103.179 32.9994 103.543C33.1068 107.697 34.0747 112.105 37.1316 114.81C38.8768 117.216 41.6822 118.624 44.6542 118.586C45.148 118.585 45.6411 118.551 46.1304 118.485C48.5814 118.148 50.8528 117.011 52.5921 115.252C54.4061 116.545 56.6439 117.1 58.8519 116.804C61.1427 116.475 63.2235 115.289 64.675 113.487C66.7961 115.113 69.4805 115.821 72.1275 115.452C74.5004 115.163 76.7176 114.119 78.4532 112.475C80.3042 113.595 82.4769 114.061 84.6243 113.8C87.9603 113.582 91.0576 111.994 93.1821 109.413C95.5159 106.454 96.322 102.401 95.6477 97.0249C95.6319 96.8989 95.6362 96.8308 95.6319 96.8265C96.1087 95.9274 99.6109 94.371 101.707 93.4396C102.779 92.9636 103.888 92.471 105.002 91.9384C108.66 90.1902 112.855 86.2764 113.22 77.5202C119.567 72.2863 120.023 63.1736 119.632 59.9693C119.289 57.4144 117.925 55.1076 115.852 53.5763Z" fill="#231F20"/>
<path d="M114.293 51.9098C112.542 50.5797 110.333 50.0033 108.155 50.3084C107.56 50.39 106.976 50.5355 106.412 50.7422C105.49 48.7398 104.422 46.8076 103.218 44.9609C104.303 44.9019 105.37 44.6562 106.372 44.2347C107.499 43.7627 108.521 43.0724 109.379 42.2037C110.492 41.9878 111.53 41.4851 112.389 40.7454C112.964 40.2515 113.454 39.6656 113.838 39.0115C115.798 38.0529 117.312 36.3735 118.063 34.3245C118.98 31.6013 118.167 28.5938 116.003 26.7038C113.923 24.7581 111.02 23.9594 108.238 24.5676C107.493 24.723 106.77 24.9717 106.087 25.3078C104.647 24.799 103.081 24.7724 101.624 25.2318C101.873 23.1303 101.83 21.0045 101.496 18.9148C100.411 12.3607 96.0014 6.83952 89.8494 4.33199C87.0725 2.7743 84.0403 1.72364 80.895 1.22924C77.5395 0.722676 74.1624 2.00002 71.982 4.60041C70.7709 3.40226 69.3204 2.4735 67.7253 1.87498C65.8208 0.64546 63.6007 -0.00578631 61.3338 3.87369e-05H61.2851C57.5856 0.062047 54.0959 1.72956 51.7236 4.5689C51.3186 4.36448 50.8977 4.1933 50.465 4.05703C47.106 1.5543 41.8284 2.45414 39.5619 3.00824C33.6142 4.45866 29.137 7.82623 27.1926 12.204C23.1507 11.1995 17.8774 11.2747 11.3455 14.0775C9.17494 15.0095 5.49379 17.5746 5.22604 24.2869C4.89101 32.7101 10.9059 47.4054 17.5195 50.8925C17.9257 51.1047 18.3503 51.2799 18.788 51.4158C18.9784 51.5476 19.1674 51.6707 19.3579 51.7853C17.4809 56.3194 16.4427 61.1567 16.2938 66.0617C16.1446 69.4889 16.1833 72.9218 16.4098 76.3448C15.7683 76.0759 15.2137 75.6346 14.8076 75.0698C13.9806 73.2134 12.4334 71.7737 10.5223 71.0823C8.55331 70.3727 6.38179 70.4841 4.49582 71.3915C2.89076 72.1646 1.59367 73.4569 0.814636 75.0591C0.535655 75.6371 0.331645 76.2484 0.207558 76.8782C-0.17112 78.4704 -0.0290958 80.142 0.612761 81.6475C2.78569 86.252 6.73573 89.7763 11.5571 91.4123C11.159 91.6606 10.7843 91.9445 10.4377 92.2607C8.44734 94.0364 7.70479 96.8264 8.5492 99.3566C9.18321 101.1 10.4329 102.552 12.0628 103.439C12.3903 103.934 12.785 104.381 13.2355 104.767C13.9518 105.385 14.8009 105.828 15.7168 106.063C16.4173 106.715 17.2266 107.239 18.1079 107.611C19.1471 108.052 20.2647 108.28 21.3938 108.28C23.4782 108.285 25.4872 107.501 27.0166 106.085C28.5355 104.714 29.3804 102.749 29.33 100.703C30.0024 101.121 30.706 101.512 31.4408 101.877C31.5482 106.03 32.5161 110.438 35.573 113.143C37.3182 115.549 40.1236 116.957 43.0956 116.919C43.5894 116.918 44.0825 116.885 44.5718 116.818C47.0228 116.481 49.2942 115.345 51.0335 113.585C52.8475 114.878 55.0853 115.433 57.2933 115.138C59.5841 114.808 61.6648 113.623 63.1164 111.82C65.2375 113.446 67.9219 114.154 70.5689 113.786C72.9417 113.496 75.159 112.453 76.8946 110.809C78.7456 111.928 80.9183 112.395 83.0656 112.134C86.4017 111.916 89.499 110.328 91.6235 107.746C93.9573 104.787 94.7634 100.735 94.089 95.3583C94.0733 95.2323 94.0776 95.1643 94.0733 95.16C94.5501 94.2609 98.0522 92.7045 100.148 91.7731C101.221 91.2971 102.329 90.8045 103.443 90.2719C107.101 88.5237 111.296 84.6099 111.661 75.8537C118.009 70.6198 118.464 61.5071 118.073 58.3027C117.731 55.7479 116.367 53.4411 114.293 51.9098Z" fill="white"/>
<path d="M106.368 71.1127C103.374 39.9871 83.0657 29.6878 61.2931 31.5008C43.9383 32.9458 23.606 44.6718 22.7671 67.7088C22.1219 85.4263 25.1291 95.2769 38.116 98.9713C38.116 98.9713 36.24 112.764 43.8899 111.733C49.3224 111 50.613 103.444 50.613 103.444C50.613 103.444 52.1561 110.641 56.6257 110.05C61.0952 109.46 62.1161 100.572 62.1161 100.572C62.1161 100.572 64.1046 109.464 69.9024 108.698C75.7001 107.933 75.8737 100.94 75.8737 100.94C75.8737 100.94 77.583 107.58 82.5042 107.034C87.4512 106.485 89.9239 103.349 89.0027 95.9955C88.3104 90.4694 94.6581 88.7839 101.236 85.6413C107.377 82.707 106.682 74.3726 106.368 71.1127Z" fill="#22093A" stroke="#22093A" stroke-linecap="round" stroke-linejoin="round"/>
<path d="M49.2732 101.983C49.2732 101.983 47.9825 109.54 42.5501 110.272C34.9002 111.303 36.7761 97.5109 36.7761 97.5109C23.7892 93.8165 20.782 83.966 21.4273 66.2484C22.2662 43.2114 42.5984 31.4854 59.9533 30.0403C81.7258 28.2274 102.034 38.5267 105.028 69.6523C105.342 72.9122 106.038 81.2466 99.8957 84.181C93.3183 87.3235 86.9706 89.009 87.6629 94.5352C88.5841 101.889 86.1113 105.025 81.1644 105.574C76.2431 106.119 74.5339 99.4792 74.5339 99.4792C74.5339 99.4792 74.3602 106.472 68.5625 107.238C62.7649 108.004 60.7762 99.1117 60.7762 99.1117C60.7762 99.1117 59.7554 108 55.2859 108.59C50.8164 109.18 49.2732 101.983 49.2732 101.983Z" fill="#E6E7E8" stroke="#22093A" stroke-linecap="round" stroke-linejoin="round"/>
<path d="M50.1084 92.0047C46.6619 91.3696 47.4431 78.9515 52.7892 78.2453C58.1354 77.5392 60.9161 89.7368 57.7373 90.9971C56.5647 91.462 54.6701 87.9242 53.6494 88.0399C52.5474 88.1646 51.4154 92.2455 50.1084 92.0047Z" fill="#22093A" stroke="#22093A" stroke-linecap="round" stroke-linejoin="round"/>
<path d="M74.5953 86.7941C80.1464 86.061 83.8242 79.2409 82.8099 71.5611C81.7956 63.8813 76.4733 58.2499 70.9222 58.9831C65.3711 59.7162 61.6933 66.5363 62.7076 74.2161C63.7219 81.8959 69.0442 87.5273 74.5953 86.7941Z" fill="#22093A" stroke="#22093A" stroke-linecap="round" stroke-linejoin="round"/>
<path d="M38.6314 88.0902C42.8967 87.5269 45.7227 82.2865 44.9433 76.3855C44.164 70.4844 40.0744 66.1574 35.809 66.7207C31.5437 67.284 28.7177 72.5245 29.4971 78.4255C30.2765 84.3265 34.366 88.6536 38.6314 88.0902Z" fill="#22093A" stroke="#22093A" stroke-linecap="round" stroke-linejoin="round"/>
<path d="M109.48 35.0028C112.27 34.8398 114.584 32.3892 112.513 30.4641C110.291 28.3978 106.65 29.9688 106.604 32.4043" fill="#E6E7E8"/>
<path d="M109.48 35.0028C112.27 34.8398 114.584 32.3892 112.513 30.4641C110.291 28.3978 106.65 29.9688 106.604 32.4043" stroke="#22093A" stroke-linecap="round" stroke-linejoin="round"/>
<path d="M103.331 33.6089C100.156 33.7944 97.5235 36.5828 99.8795 38.7735C102.408 41.1247 106.552 39.337 106.604 36.5657" fill="#E6E7E8"/>
<path d="M103.331 33.6089C100.156 33.7944 97.5235 36.5828 99.8795 38.7735C102.408 41.1247 106.552 39.337 106.604 36.5657" stroke="#22093A" stroke-linecap="round" stroke-linejoin="round"/>
<path d="M108.551 32.9351C106.025 30.5006 102.905 28.8663 102.444 31.0527C101.984 33.2392 106.046 36.6265 107.801 37.1357C109.368 37.59 110.771 35.0747 108.551 32.9351Z" fill="#22093A" stroke="#22093A" stroke-linecap="round" stroke-linejoin="round"/>
<path d="M16.2378 99.4647C14.1203 99.341 12.364 97.4809 13.9357 96.0196C15.0021 94.9975 16.6952 95.0334 17.7174 96.0998C18.0853 96.4837 18.3305 96.9685 18.4216 97.4924" fill="#E6E7E8"/>
<path d="M16.2378 99.4647C14.1203 99.341 12.364 97.4809 13.9357 96.0196C15.0021 94.9975 16.6952 95.0334 17.7174 96.0998C18.0853 96.4837 18.3305 96.9685 18.4216 97.4924" stroke="#22093A" stroke-linecap="round" stroke-linejoin="round"/>
<path d="M20.9067 98.4067C23.3163 98.5475 25.3147 100.664 23.5264 102.327C21.6069 104.112 18.4616 102.755 18.4219 100.651" fill="#E6E7E8"/>
<path d="M20.9067 98.4067C23.3163 98.5475 25.3147 100.664 23.5264 102.327C21.6069 104.112 18.4616 102.755 18.4219 100.651" stroke="#22093A" stroke-linecap="round" stroke-linejoin="round"/>
<path d="M16.9444 97.8952C18.862 96.0473 21.2299 94.8068 21.5796 96.4664C21.9293 98.126 18.846 100.697 17.5135 101.084C16.3243 101.429 15.2592 99.5193 16.9444 97.8952Z" fill="#22093A" stroke="#22093A" stroke-linecap="round" stroke-linejoin="round"/>
<path d="M73.4993 84.5683C72.7328 84.0415 72.237 83.2041 72.1438 82.2787C71.7963 76.1149 74.6379 70.2044 79.669 66.6264C84.5808 63.2531 90.6977 63.1238 96.8905 66.2611C99.1533 67.4071 102.249 68.4966 104.14 67.1715C106.376 65.6036 106.378 61.2062 106.197 59.7113C106.122 57.7318 107.429 55.9647 109.345 55.4588C111.082 55.2472 112.773 57.1842 112.983 58.9198C113.268 61.2633 112.923 68.7627 107.781 72.3659C105.316 74.0932 100.929 75.4179 94.0241 71.9193C89.8777 69.8192 86.2564 69.797 83.2598 71.8557C80.132 74.1139 78.3309 77.7788 78.454 81.6347C78.6318 83.3772 77.3633 84.934 75.6207 85.1118C74.8715 85.1882 74.1195 84.9956 73.4993 84.5683L73.4993 84.5683Z" fill="#22093A" stroke="#22093A" stroke-linecap="round" stroke-linejoin="round"/>
<path d="M73.3757 84.3881C72.6007 83.874 72.0913 83.0447 71.983 82.121C71.5351 75.9636 74.2799 70.0076 79.252 66.348C84.1082 62.8951 90.2221 62.6661 96.4652 65.702C98.7464 66.811 101.86 67.8498 103.728 66.494C105.939 64.8899 106.358 60.4586 106.153 58.9668C105.912 57.2322 107.122 55.6302 108.856 55.3886C110.591 55.147 112.193 56.3573 112.435 58.0919C112.435 58.0944 112.435 58.0968 112.436 58.0992C112.759 60.4378 112.536 67.9419 107.454 71.6284C105.017 73.3957 100.652 74.7917 93.6915 71.4061C89.5114 69.3738 85.8903 69.4108 82.9276 71.518C79.837 73.8269 78.0958 77.5208 78.2818 81.3741C78.488 83.1136 77.245 84.6908 75.5056 84.897C74.7577 84.9856 74.0027 84.8053 73.3756 84.3881H73.3757Z" fill="#EC6509" stroke="#22093A" stroke-linecap="round" stroke-linejoin="round"/>
<path d="M72.7578 77.4053L78.3908 78.8895" stroke="#22093A" stroke-linecap="round" stroke-linejoin="round"/>
<path d="M75.4375 70.1401L79.9421 73.8314" stroke="#22093A" stroke-linecap="round" stroke-linejoin="round"/>
<path d="M82.6406 64.5332L84.3868 70.6755" stroke="#22093A" stroke-linecap="round" stroke-linejoin="round"/>
<path d="M92.5768 64.5469L91.123 70.4024" stroke="#22093A" stroke-linecap="round" stroke-linejoin="round"/>
<path d="M99.7536 66.9082L97.9863 73.071" stroke="#22093A" stroke-linecap="round" stroke-linejoin="round"/>
<path d="M103.729 66.4941L107.932 70.8132" stroke="#22093A" stroke-linecap="round" stroke-linejoin="round"/>
<path d="M106.055 61.6016L112.073 62.508" stroke="#22093A" stroke-linecap="round" stroke-linejoin="round"/>
<path d="M15.6683 19.9424C7.99952 23.2336 16.662 44.5765 22.2098 47.5012C25.9007 49.447 37.9029 44.2329 39.869 37.2173C41.8351 30.2016 34.6654 11.7897 15.6683 19.9424Z" fill="#22093A" stroke="#22093A" stroke-linecap="round" stroke-linejoin="round"/>
<path d="M24.6804 29.1514C22.8482 29.9377 24.9178 35.037 26.2433 35.7358C27.1252 36.2007 29.9928 34.9549 30.4625 33.2787C30.8615 31.1533 29.4619 29.1068 27.3364 28.7078C26.4265 28.537 25.4855 28.6942 24.6804 29.1514Z" fill="#22093A" stroke="#22093A" stroke-linecap="round" stroke-linejoin="round"/>
<path d="M68.7736 35.5406C71.8788 34.8666 73.7292 32.0917 73.7518 28.5325C73.7763 24.6825 73.2409 6.23987 63.6045 6.28132C58.5888 6.30289 55.0675 11.9025 53.3208 18.3307C51.4257 25.305 50.5764 35.7518 54.5336 36.0618C60.8904 36.5598 62.7415 18.3307 62.7415 18.3307C62.7415 18.3307 62.7237 36.8536 68.7736 35.5406Z" fill="#22093A" stroke="#22093A" stroke-linecap="round" stroke-linejoin="round"/>
<path d="M49.9157 9.52071C47.9101 7.28628 35.6486 9.36067 33.7834 16.5678C32.5663 21.2705 32.3003 37.6568 40.3866 37.6254C48.473 37.594 54.8256 34.5402 54.0523 30.4363C53.279 26.3324 43.2471 28.2967 43.2471 28.2967C43.2471 28.2967 51.7404 26.015 51.2392 21.701C50.7381 17.3871 42.0332 20.7513 42.0332 20.7513C42.0332 20.7513 55.2968 15.5157 49.9157 9.52071Z" fill="#22093A" stroke="#22093A" stroke-linecap="round" stroke-linejoin="round"/>
<path d="M82.3273 7.43722C74.565 6.11068 70.2846 28.1906 73.1374 33.5076C75.0354 37.0449 87.217 39.0691 92.4206 34.3404C97.6243 29.6116 101.556 10.7233 82.3273 7.43722Z" fill="#22093A" stroke="#22093A" stroke-linecap="round" stroke-linejoin="round"/>
<path d="M84.6421 19.7364C82.7875 19.4194 81.7648 24.6948 82.4464 25.9651C82.8999 26.8103 85.8103 27.2939 87.0536 26.1641C88.5056 24.6374 88.4451 22.2227 86.9184 20.7707C86.2974 20.18 85.4955 19.8156 84.6421 19.7364Z" fill="#22093A" stroke="#22093A" stroke-linecap="round" stroke-linejoin="round"/>
<path d="M13.3754 18.793C5.70656 22.0842 14.3691 43.4271 19.9169 46.3518C23.6077 48.2976 35.6098 43.0835 37.576 36.0679C39.5421 29.0522 32.3724 10.6403 13.3754 18.793Z" fill="#9736FF" stroke="#22093A" stroke-linecap="round" stroke-linejoin="round"/>
<path d="M22.3874 28.002C20.5552 28.7883 22.6249 33.8876 23.9504 34.5863C24.8322 35.0512 27.6998 33.8055 28.1695 32.1293C28.5685 30.0038 27.1689 27.9574 25.0435 27.5584C24.1335 27.3876 23.1925 27.5448 22.3874 28.002Z" fill="#22093A" stroke="#22093A" stroke-linecap="round" stroke-linejoin="round"/>
<path d="M47.6228 8.37129C45.6172 6.13686 33.3556 8.21126 31.4904 15.4183C30.2733 20.1211 30.0073 36.5074 38.0937 36.476C46.18 36.4445 52.5326 33.3907 51.7594 29.2869C50.9861 25.183 40.9541 27.1473 40.9541 27.1473C40.9541 27.1473 49.4474 24.8655 48.9463 20.5516C48.4451 16.2377 39.7403 19.6019 39.7403 19.6019C39.7403 19.6019 53.0039 14.3663 47.6228 8.37129Z" fill="#9736FF" stroke="#22093A" stroke-linecap="round" stroke-linejoin="round"/>
<path d="M80.0343 6.2878C72.272 4.96127 67.9915 27.0412 70.8445 32.3581C72.7425 35.8954 84.924 37.9196 90.1277 33.1909C95.3313 28.4622 99.2631 9.57389 80.0343 6.2878Z" fill="#9736FF" stroke="#22093A" stroke-linecap="round" stroke-linejoin="round"/>
<path d="M82.3491 18.5869C80.4945 18.27 79.4718 23.5454 80.1534 24.8157C80.6069 25.6609 83.5173 26.1445 84.7606 25.0147C86.2127 23.488 86.1522 21.0733 84.6255 19.6212C84.0044 19.0305 83.2025 18.6662 82.3491 18.5869Z" fill="#22093A" stroke="#22093A" stroke-linecap="round" stroke-linejoin="round"/>
<path d="M61.3115 5.13142C56.2958 5.15298 52.7745 10.7526 51.0279 17.1809C49.1327 24.1551 48.2835 34.6019 52.2407 34.912C55.0736 35.1339 57.0097 31.6356 58.2879 27.69L61.534 28.0184C62.371 31.7888 63.853 34.961 66.4805 34.3907C69.5857 33.7168 71.4362 30.9418 71.4588 27.3826C71.4833 23.5326 70.9478 5.09001 61.3115 5.13142ZM59.481 23.1388C60.1747 19.8626 60.4485 17.1809 60.4485 17.1809C60.4485 17.1809 60.447 19.8777 60.7796 23.1388H59.481Z" fill="#9736FF" stroke="#22093A" stroke-linecap="round" stroke-linejoin="round"/>
<path d="M13.6473 21.7344C11.9115 26.8268 14.6639 35.9532 18.4221 40.2187" stroke="#D9BBFF" stroke-linecap="round" stroke-linejoin="round"/>
<path d="M38.8875 11.3496C33.7656 14.3347 32.7838 18.5729 33.7121 25.7962" stroke="#D9BBFF" stroke-linecap="round" stroke-linejoin="round"/>
<path d="M58.5966 9.12988C56.2966 11.2305 53.494 15.3691 52.5 26.8267" stroke="#D9BBFF" stroke-linecap="round" stroke-linejoin="round"/>
<path d="M64.2754 27.7393C64.5259 29.0276 64.6247 30.7848 66.3633 31.3304" stroke="#D9BBFF" stroke-linecap="round" stroke-linejoin="round"/>
<path d="M34.209 28.6636C34.4298 30.1881 35.0016 31.6405 35.8793 32.9063" stroke="#D9BBFF" stroke-linecap="round" stroke-linejoin="round"/>
<path d="M79.9422 9.12977C77.6899 8.66553 75.4573 14.2512 74.3809 17.181" stroke="#D9BBFF" stroke-linecap="round" stroke-linejoin="round"/>
<path d="M81.3945 33.1261C83.673 33.2136 85.9217 32.5857 87.8252 31.3306" stroke="#D9BBFF" stroke-linecap="round" stroke-linejoin="round"/>
<path d="M34.7096 62.5234C30.9783 62.5234 26.4102 67.2547 26.4102 71.986" stroke="white" stroke-linecap="round" stroke-linejoin="round"/>
<path d="M39.6914 99.3613C39.7591 101.303 39.4719 106.865 42.3094 106.851" stroke="white" stroke-linecap="round" stroke-linejoin="round"/>
<path d="M63.8613 99.3613C64.2307 101.458 65.5008 103.286 67.336 104.365" stroke="white" stroke-linecap="round" stroke-linejoin="round"/>
<path d="M77.1602 98.4067C77.5255 100.041 78.5259 101.464 79.9408 102.36" stroke="white" stroke-linecap="round" stroke-linejoin="round"/>
<path d="M58.5948 71.9859C58.1965 64.6947 61.3027 58.9311 66.1112 56.2597C70.0984 53.9392 75.1286 54.4646 78.5503 57.5588" stroke="white" stroke-linecap="round" stroke-linejoin="round"/>
<path d="M5.43472 77.2988C5.1002 77.9717 5.08175 78.7584 5.38436 79.4462C7.63326 83.8324 12.0605 86.6769 16.9846 86.8994C21.8249 87.0897 26.2276 84.5454 29.3805 79.7373C30.5327 77.9806 32.2999 75.904 34.1735 75.9956C36.3904 76.1041 38.1465 79.1071 38.6149 80.2059C39.3826 81.603 41.0369 82.2545 42.551 81.7561C43.8469 80.9075 44.354 79.2558 43.7574 77.8262C43.0251 76.1026 39.786 71.1286 34.6903 70.8803C32.2474 70.7613 28.5983 71.7443 25.0832 77.1058C22.9719 80.3248 20.4049 81.8985 17.4517 81.7819C14.3762 81.6194 11.605 79.8739 10.13 77.1704C9.54193 75.9225 8.05354 75.3876 6.80564 75.9757C6.77919 75.9882 6.75295 76.0011 6.72695 76.0145C6.16334 76.2841 5.7078 76.7369 5.43472 77.2988Z" fill="#22093A" stroke="#22093A" stroke-linecap="round" stroke-linejoin="round"/>
<path d="M5.41824 77.4754C5.07295 78.1434 5.04156 78.9301 5.33252 79.6234C7.50364 84.0467 11.8807 86.9653 16.7987 87.2692C21.6311 87.5379 26.0716 85.063 29.3007 80.3024C30.4807 78.5631 32.2806 76.5137 34.1509 76.6355C36.3638 76.7799 38.4304 79.6265 38.8802 80.7336C39.4179 81.9985 40.8792 82.5881 42.1441 82.0504C42.1743 82.0375 42.2042 82.0241 42.2339 82.0101C43.5506 81.4554 44.1953 79.9608 43.6954 78.6224C42.9922 76.8857 39.8382 71.8559 34.7515 71.5251C32.3129 71.3666 28.6511 72.2913 25.051 77.5997C22.8887 80.7869 20.2982 82.3201 17.3497 82.1558C14.2785 81.9425 11.5381 80.1506 10.1111 77.4227C9.54635 76.1668 8.07038 75.6065 6.81447 76.1713C6.7862 76.184 6.75817 76.1973 6.7304 76.211C6.16264 76.472 5.70009 76.9177 5.41824 77.4754Z" fill="#EC6509" stroke="#22093A" stroke-linecap="round" stroke-linejoin="round"/>
<path d="M7.76562 82.5104L11.1801 79.0723" stroke="#22093A" stroke-linecap="round" stroke-linejoin="round"/>
<path d="M12.5703 86.3209L14.3012 81.8608" stroke="#22093A" stroke-linecap="round" stroke-linejoin="round"/>
<path d="M19.9322 87.0506L18.7227 82.1035" stroke="#22093A" stroke-linecap="round" stroke-linejoin="round"/>
<path d="M26.9962 82.7648L23.625 79.3906" stroke="#22093A" stroke-linecap="round" stroke-linejoin="round"/>
<path d="M31.1583 78.0629L27.4414 74.6138" stroke="#22093A" stroke-linecap="round" stroke-linejoin="round"/>
<path d="M34.1504 76.6356L35.4163 71.8765" stroke="#22093A" stroke-linecap="round" stroke-linejoin="round"/>
<path d="M37.7578 78.9764L41.6772 75.7671" stroke="#22093A" stroke-linecap="round" stroke-linejoin="round"/>
</g>
<defs>
<clipPath id="clip0_5_10987">
<rect width="120" height="118.586" fill="white"/>
</clipPath>
</defs>
</svg>
