<svg width="120" height="105" viewBox="0 0 120 105" fill="none" xmlns="http://www.w3.org/2000/svg">
<g clip-path="url(#clip0_5_11005)">
<path opacity="0.5" d="M116.836 69.1517C114.074 65.7386 108.718 63.6943 100.895 63.0735C100.667 63.055 100.441 63.0373 100.219 63.0206C112.125 48.9773 110.276 31.0136 106.979 22.0132C103.557 12.6725 97.9048 6.52629 90.1768 3.74363C85.6977 1.86599 80.8223 1.13041 75.9885 1.60298C69.9215 1.89749 64.2359 4.64945 60.2411 9.22511C57.547 6.53843 54.2933 4.47925 50.7121 3.19437C44.6731 0.574589 37.825 0.391754 30.3576 2.65474C20.8774 5.52816 12.9494 13.2486 8.60623 23.8363C3.97445 35.1292 4.3463 47.6416 9.6023 57.306C11.5599 60.9324 14.0408 64.2506 16.9653 67.154L16.955 67.1678C15.3477 65.7871 13.2705 65.0784 11.1545 65.1886C8.93567 65.2547 6.83972 66.2226 5.35061 67.8689C2.60988 70.8372 1.5485 75.8663 1.90733 84.1738C2.30672 93.4292 3.75441 98.4969 6.85125 101.252C8.47974 103.372 11.0022 104.613 13.6753 104.609C14.0152 104.609 14.3548 104.591 14.6927 104.553C16.9501 104.325 18.9383 102.969 19.9741 100.95C21.8163 102.702 24.3453 103.539 26.8689 103.231C27.4007 103.172 27.9234 103.05 28.426 102.866C28.8209 102.969 29.2242 103.037 29.6311 103.069C32.6353 103.299 35.5355 101.916 37.247 99.4359L37.313 99.495C39.0915 101.926 42.131 103.086 45.0767 102.458C46.7973 102.096 48.4033 101.318 49.7553 100.194C51.2015 101.273 52.9623 101.847 54.7666 101.827C57.2758 101.838 59.6908 100.872 61.5005 99.1341C61.9216 99.3189 62.3554 99.4735 62.7984 99.5968C69.3921 101.427 75.5157 100.978 79.1837 98.4013C79.3955 98.2522 79.599 98.0968 79.7942 97.9353C80.0386 98.2081 80.2984 98.4668 80.5723 98.71C82.4111 101.019 85.2229 102.336 88.1738 102.272H88.1862C90.7472 102.319 93.1467 101.024 94.5132 98.8578C96.4308 101.304 99.467 102.599 102.56 102.29C105.087 102.115 107.395 100.798 108.831 98.7114C111.303 95.1815 111.255 89.4972 110.613 84.7719C112.429 84.7404 114.211 84.2712 115.807 83.4039C117.894 82.2074 119.357 80.1614 119.814 77.7993C120.457 74.5905 119.318 71.2846 116.836 69.1517Z" fill="#231F20"/>
<path d="M114.997 68.0681C112.234 64.6551 106.878 62.6107 99.0553 61.9899C98.8271 61.9714 98.6016 61.9537 98.3789 61.937C110.285 47.8937 108.436 29.9301 105.139 20.9297C101.717 11.589 96.065 5.44279 88.337 2.66011C83.8578 0.782472 78.9824 0.0469088 74.1486 0.519491C68.0817 0.814003 62.3961 3.56596 58.4012 8.1416C55.7072 5.45493 52.4535 3.39575 48.8722 2.11087C42.8333 -0.508891 35.9852 -0.691754 28.5178 1.57124C19.0375 4.44465 11.1095 12.1651 6.7664 22.7527C2.13462 34.0456 2.50646 46.5581 7.76246 56.2225C9.72003 59.8488 12.201 63.1671 15.1254 66.0705L15.1151 66.0842C13.5078 64.7036 11.4306 63.9949 9.31467 64.1051C7.09585 64.1712 4.99989 65.1391 3.51079 66.7854C0.770089 69.7537 -0.291349 74.7828 0.0674801 83.0903C0.466883 92.3457 1.91466 97.4134 5.0114 100.169C6.63989 102.288 9.16231 103.529 11.8354 103.526C12.1753 103.526 12.515 103.507 12.8528 103.47C15.1103 103.242 17.0985 101.886 18.1342 99.8668C19.9764 101.619 22.5055 102.455 25.0291 102.148C25.5608 102.089 26.0835 101.966 26.5861 101.783C26.981 101.886 27.3843 101.954 27.7912 101.985C30.7954 102.216 33.6956 100.832 35.4071 98.3524L35.4731 98.4115C37.2516 100.842 40.2911 102.002 43.2368 101.375C44.9573 101.012 46.5633 100.235 47.9153 99.1107C49.3616 100.19 51.1224 100.763 52.9266 100.743C55.4358 100.754 57.8508 99.7887 59.6606 98.0507C60.0817 98.2355 60.5154 98.3901 60.9584 98.5133C67.5522 100.344 73.6757 99.895 77.3438 97.3179C77.5555 97.1687 77.759 97.0134 77.9542 96.8519C78.1986 97.1247 78.4585 97.3834 78.7324 97.6266C80.5711 99.9355 83.3829 101.253 86.3339 101.188H86.3462C88.9072 101.235 91.3067 99.9409 92.6732 97.7744C94.5908 100.221 97.6271 101.516 100.72 101.207C103.247 101.032 105.555 99.7142 106.991 97.628C109.463 94.0981 109.415 88.4138 108.773 83.6885C110.589 83.6571 112.371 83.1878 113.967 82.3205C116.054 81.124 117.517 79.078 117.974 76.7159C118.617 73.507 117.479 70.2011 114.997 68.0681Z" fill="white"/>
<path d="M60.2623 19.2145C60.2623 19.2145 52.9531 0.835123 31.8204 7.23896C14.1779 12.5852 4.66163 37.7124 13.9641 54.8203C23.2665 71.9281 40.0536 73.8528 57.5892 83.6898C61.3909 86.0511 65.0341 88.6585 68.4955 91.4953C68.4955 91.4953 69.8854 81.3375 91.0564 62.9709C106.281 49.7628 103.683 30.8659 100.787 22.9569C98.0065 15.3652 91.8019 5.17328 76.4078 6.38356C68.8256 6.74058 62.3223 11.9088 60.2623 19.2145Z" fill="#22093A" stroke="#22093A" stroke-linecap="round" stroke-linejoin="round"/>
<path d="M58.6626 18.5948C58.6626 18.5948 51.3534 0.215494 30.2208 6.61933C12.5783 11.9655 3.06203 37.0927 12.3644 54.2006C21.6669 71.3085 38.454 73.2332 55.9895 83.0702C59.7912 85.4315 63.4344 88.0389 66.8959 90.8756C66.8959 90.8756 68.2859 80.7178 89.4569 62.3512C104.682 49.1431 102.083 30.2462 99.187 22.3372C96.4069 14.7456 90.2023 4.55366 74.8082 5.76393C67.226 6.12093 60.7227 11.2891 58.6626 18.5948Z" fill="#E9022C" stroke="#22093A" stroke-linecap="round" stroke-linejoin="round"/>
<path d="M48.2519 30.3232C48.2519 30.3232 47.4061 36.7994 51.1484 36.051C54.8908 35.3025 54.3866 30.3232 54.3866 30.3232" stroke="#22093A" stroke-linecap="round" stroke-linejoin="round"/>
<path d="M60.1191 29.6844C60.1191 29.6844 60.1191 35.5745 63.7546 34.9269C67.39 34.2793 66.7484 28.7192 66.7484 28.7192" stroke="#22093A" stroke-linecap="round" stroke-linejoin="round"/>
<path d="M41.1914 41.805C41.1914 41.805 48.8062 40.7889 50.6524 47.9093C52.0474 53.2893 48.9936 58.833 48.9936 58.833" stroke="#22093A" stroke-linecap="round" stroke-linejoin="round"/>
<path d="M71.0334 34.9766C67.805 37.1066 66.113 40.9219 66.7015 44.7446C67.479 50.9445 74.216 51.6967 74.216 51.6967" stroke="#22093A" stroke-linecap="round" stroke-linejoin="round"/>
<path d="M67.8957 47.9062C67.8957 47.9062 64.9388 40.6597 58.2979 41.8221C51.657 42.9844 51.1445 50.1577 51.1445 50.1577" stroke="#22093A" stroke-linecap="round" stroke-linejoin="round"/>
<path d="M46.7472 21.198C43.9105 21.21 39.8253 21.8986 39.7411 23.4291C39.6573 24.9535 45.3931 25.0168 47.7738 24.7188C52.8757 24.0802 53.6068 21.1689 46.7472 21.198Z" fill="#22093A" stroke="#22093A" stroke-linecap="round" stroke-linejoin="round"/>
<path d="M69.0853 19.7796C66.2602 19.5226 62.1281 19.8207 61.8992 21.3363C61.6712 22.8459 67.3752 23.4528 69.7734 23.3819C74.9129 23.23 75.9167 20.4011 69.0853 19.7796Z" fill="#22093A" stroke="#22093A" stroke-linecap="round" stroke-linejoin="round"/>
<path d="M26.8697 12.2783C13.5809 20.057 11.4798 38.3726 13.3112 45.7664" stroke="#FFB3CE" stroke-linecap="round" stroke-linejoin="round"/>
<path d="M37.9028 8.87744C35.8921 9.04127 33.9054 9.42546 31.9785 10.0231" stroke="#FFB3CE" stroke-linecap="round" stroke-linejoin="round"/>
<path d="M22.1484 60.8633C22.6529 61.3157 23.1845 61.7683 23.7433 62.2212" stroke="#FFB3CE" stroke-linecap="round" stroke-linejoin="round"/>
<path d="M14.3184 50.1958C15.5209 53.2266 17.3085 55.9909 19.579 58.3311" stroke="#FFB3CE" stroke-linecap="round" stroke-linejoin="round"/>
<path d="M42.4654 96.8921C45.522 96.2287 47.3434 93.4972 47.3657 89.9939C47.3898 86.2042 46.8627 68.0506 37.3774 68.0914C32.4403 68.1126 28.9742 73.6244 27.2548 79.952C25.3895 86.8169 24.5535 97.1 28.4487 97.4052C34.7058 97.8953 36.5279 79.952 36.5279 79.952C36.5279 79.952 36.5103 98.1845 42.4654 96.8921Z" fill="#22093A" stroke="#22093A" stroke-linecap="round" stroke-linejoin="round"/>
<path d="M77.7879 70.4375C76.5419 67.8635 65.1376 66.711 61.7444 72.9234C59.5303 76.9771 55.3504 92.0987 62.5497 94.0976C69.749 96.0965 76.1338 94.8592 76.4336 90.8614C76.7334 86.8635 67.3387 86.1683 67.3387 86.1683C67.3387 86.1683 75.4415 86.1835 76.0339 82.0592C76.6263 77.935 68.0749 78.8701 68.0749 78.8701C68.0749 78.8701 81.131 77.3438 77.7879 70.4375Z" fill="#22093A" stroke="#22093A" stroke-linecap="round" stroke-linejoin="round"/>
<path d="M88.2203 68.2049C92.8175 68.4833 93.4329 73.2571 92.23 82.0249C91.1653 89.7849 89.9909 96.5901 86.6164 96.5931C81.4841 96.5977 80.43 90.9419 81.1575 81.4862C81.885 72.0306 84.3364 67.9698 88.2203 68.2049Z" fill="#22093A" stroke="#22093A" stroke-linecap="round" stroke-linejoin="round"/>
<path d="M87.5162 66.308C89.8863 66.308 91.8077 64.4784 91.8077 62.2214C91.8077 59.9644 89.8863 58.1348 87.5162 58.1348C85.146 58.1348 83.2246 59.9644 83.2246 62.2214C83.2246 64.4784 85.146 66.308 87.5162 66.308Z" fill="#22093A" stroke="#22093A" stroke-linecap="round" stroke-linejoin="round"/>
<path d="M100.044 68.4074C110.415 69.2314 114.134 72.5529 113.421 76.0662C112.349 81.3456 102.807 78.1322 102.807 78.1322C102.807 78.1322 107.813 96.0729 100.617 96.6258C91.645 97.3152 95.6206 77.0629 95.6206 77.0629C95.6206 77.0629 87.3664 76.5223 88.1794 72.1859C88.9924 67.8495 92.8417 67.8351 100.044 68.4074Z" fill="#22093A" stroke="#22093A" stroke-linecap="round" stroke-linejoin="round"/>
<path d="M54.3557 67.2558C43.5778 67.4873 40.3522 70.3475 41.3324 73.7958C42.8052 78.9776 49.6003 77.8764 49.6003 77.8764C49.6003 77.8764 45.9835 96.1479 53.201 96.1479C62.1993 96.1479 56.8924 77.0704 56.8924 77.0704C56.8924 77.0704 67.3873 77.2109 66.8363 72.8335C66.3732 69.1553 61.5789 67.1006 54.3557 67.2558Z" fill="#22093A" stroke="#22093A" stroke-linecap="round" stroke-linejoin="round"/>
<path d="M23.0506 69.2131C20.0297 69.3239 18.4193 72.9358 18.4906 80.8475C17.6205 80.8242 16.6858 80.8517 15.7088 80.9076C15.5114 74.027 14.3011 70.4092 10.8741 70.535C7.58284 70.6557 5.95989 74.9166 6.36871 84.3835C6.77753 93.8503 8.27433 99.3769 12.5894 98.9038C14.7015 98.6722 15.3807 94.8013 15.6141 89.6161C16.0972 89.5833 16.5999 89.5329 17.1405 89.448C17.8267 89.3403 18.4518 89.2087 19.0413 89.0621C19.8193 94.7909 21.4678 97.9434 24.7659 97.5818C27.6031 97.2708 27.856 90.3982 27.9137 82.5863C27.9789 73.7599 26.9462 69.0702 23.0506 69.2131Z" fill="#22093A" stroke="#22093A" stroke-linecap="round" stroke-linejoin="round"/>
<path d="M36.2739 66.9175C31.3368 66.9388 27.8708 72.4506 26.1513 78.7781C24.286 85.643 23.45 95.9261 27.3452 96.2313C30.2465 96.4586 32.193 92.7221 33.4477 88.6496H36.3273C37.1158 92.6966 38.5925 96.3193 41.362 95.7182C44.4186 95.0548 46.24 92.3234 46.2622 88.8199C46.2864 85.0303 45.7592 66.8767 36.2739 66.9175ZM34.5294 84.3725C35.1708 81.2711 35.4244 78.7781 35.4244 78.7781C35.4244 78.7781 35.4227 81.2851 35.723 84.3725H34.5294Z" fill="#9736FF" stroke="#22093A" stroke-linecap="round" stroke-linejoin="round"/>
<path d="M76.6844 69.2637C75.4384 66.6896 64.0341 65.5371 60.6409 71.7496C58.4268 75.8032 54.2468 90.9249 61.4462 92.9238C68.6455 94.9227 75.0302 93.6854 75.3301 89.6875C75.6299 85.6897 66.2351 84.9945 66.2351 84.9945C66.2351 84.9945 74.3379 85.0097 74.9303 80.8854C75.5227 76.7612 66.9713 77.6963 66.9713 77.6963C66.9713 77.6963 80.0275 76.1699 76.6844 69.2637Z" fill="#9736FF" stroke="#22093A" stroke-linecap="round" stroke-linejoin="round"/>
<path d="M87.1148 67.0311C91.712 67.3095 92.3274 72.0833 91.1245 80.8511C90.0598 88.6111 88.8855 95.4163 85.511 95.4193C80.3786 95.4239 79.3245 89.7681 80.052 80.3124C80.7796 70.8567 83.2309 66.7959 87.1148 67.0311Z" fill="#9736FF" stroke="#22093A" stroke-linecap="round" stroke-linejoin="round"/>
<path d="M86.4127 65.7245C88.7828 65.7245 90.7042 63.8949 90.7042 61.6379C90.7042 59.3809 88.7828 57.5513 86.4127 57.5513C84.0425 57.5513 82.1211 59.3809 82.1211 61.6379C82.1211 63.8949 84.0425 65.7245 86.4127 65.7245Z" fill="#9736FF" stroke="#22093A" stroke-linecap="round" stroke-linejoin="round"/>
<path d="M98.9385 67.2335C109.31 68.0576 113.028 71.3791 112.315 74.8924C111.244 80.1717 101.702 76.9584 101.702 76.9584C101.702 76.9584 106.708 94.899 99.5114 95.452C90.5395 96.1414 94.5151 75.8891 94.5151 75.8891C94.5151 75.8891 86.261 75.3485 87.0739 71.0121C87.8869 66.6757 91.7363 66.6613 98.9385 67.2335Z" fill="#9736FF" stroke="#22093A" stroke-linecap="round" stroke-linejoin="round"/>
<path d="M53.2502 66.0819C42.4723 66.3135 39.2468 69.1737 40.2269 72.622C41.6998 77.8038 48.4948 76.7026 48.4948 76.7026C48.4948 76.7026 44.8781 94.9741 52.0955 94.9741C61.0938 94.9741 55.7869 75.8966 55.7869 75.8966C55.7869 75.8966 66.2818 76.0371 65.7308 71.6597C65.2678 67.9815 60.4735 65.9267 53.2502 66.0819Z" fill="#9736FF" stroke="#22093A" stroke-linecap="round" stroke-linejoin="round"/>
<path d="M21.9451 68.0393C18.9242 68.1501 17.3138 71.762 17.3851 79.6737C16.515 79.6504 15.5802 79.6779 14.6033 79.7338C14.406 72.8532 13.1956 69.2354 9.76858 69.3612C6.47737 69.4819 4.85442 73.7428 5.26324 83.2097C5.67205 92.6765 7.16886 98.2031 11.4839 97.7299C13.5961 97.4984 14.2752 93.6275 14.5086 88.4422C14.9918 88.4095 15.4944 88.3591 16.035 88.2742C16.7212 88.1664 17.3463 88.0349 17.9358 87.8882C18.7138 93.617 20.3624 96.7696 23.6604 96.408C26.4976 96.0969 26.7506 89.2243 26.8082 81.4124C26.8734 72.5861 25.8407 67.8963 21.9451 68.0393Z" fill="#9736FF" stroke="#22093A" stroke-linecap="round" stroke-linejoin="round"/>
<path d="M31.2302 61.4776C36.6321 61.4776 41.0112 57.0984 41.0112 51.6965C41.0112 46.2946 36.6321 41.9155 31.2302 41.9155C25.8283 41.9155 21.4492 46.2946 21.4492 51.6965C21.4492 57.0984 25.8283 61.4776 31.2302 61.4776Z" fill="#FF4069"/>
<path d="M85.7521 48.6902C90.0248 48.6902 93.4885 45.2264 93.4885 40.9537C93.4885 36.681 90.0248 33.2173 85.7521 33.2173C81.4793 33.2173 78.0156 36.681 78.0156 40.9537C78.0156 45.2264 81.4793 48.6902 85.7521 48.6902Z" fill="#FF4069"/>
<path d="M8.27879 73.3594C7.30113 77.5846 7.13783 81.9574 7.79763 86.2437" stroke="#D9BBFF" stroke-linecap="round" stroke-linejoin="round"/>
<path d="M20.7344 88.7104C20.8809 90.3011 21.5043 91.8104 22.5229 93.0409" stroke="#D9BBFF" stroke-linecap="round" stroke-linejoin="round"/>
<path d="M35.9612 69.5635C33.5246 70.3722 31.5841 72.2389 30.6816 74.6424" stroke="#D9BBFF" stroke-linecap="round" stroke-linejoin="round"/>
<path d="M40.7617 92.5275C40.7617 92.5275 42.1218 93.3468 42.9164 91.2217" stroke="#D9BBFF" stroke-linecap="round" stroke-linejoin="round"/>
<path d="M42.916 72.5039C43.5576 73.3058 44.4718 74.4285 47.7864 74.2147" stroke="#D9BBFF" stroke-linecap="round" stroke-linejoin="round"/>
<path d="M60.9196 79.4541C60.4384 81.4856 59.5296 87.007 60.5988 88.7104" stroke="#D9BBFF" stroke-linecap="round" stroke-linejoin="round"/>
<path d="M85.4874 60.2593C84.7315 60.8989 84.579 62.0052 85.1335 62.8255" stroke="#D9BBFF" stroke-linecap="round" stroke-linejoin="round"/>
<path d="M83.9276 72.9854C83.1804 76.1913 82.7506 79.4631 82.6445 82.7533" stroke="#D9BBFF" stroke-linecap="round" stroke-linejoin="round"/>
<path d="M96.2559 85.9229C96.3428 89.102 96.8082 92.7363 98.7349 93.0412" stroke="#D9BBFF" stroke-linecap="round" stroke-linejoin="round"/>
<path d="M96.2771 81.7021C96.2771 82.1107 96.261 82.705 96.25 83.4107" stroke="#D9BBFF" stroke-linecap="round" stroke-linejoin="round"/>
</g>
<defs>
<clipPath id="clip0_5_11005">
<rect width="120" height="104.609" fill="white"/>
</clipPath>
</defs>
</svg>
