<svg width="120" height="167" viewBox="0 0 120 167" fill="none" xmlns="http://www.w3.org/2000/svg">
<g clip-path="url(#clip0_5_11011)">
<path opacity="0.5" d="M111.577 115.774C110.228 115.014 108.747 114.519 107.212 114.314C112.828 106.143 115.984 96.5332 116.306 86.6236C116.388 84.9016 116.427 83.1918 116.421 81.5042C116.918 81.0138 117.372 80.4823 117.78 79.9153C120.413 76.2724 120.729 71.4441 118.594 67.4886C117.569 65.5343 116.098 63.8483 114.301 62.5668C109.753 43.0305 98.0235 37.3142 96.4226 36.6165C96.1365 35.8089 95.7976 35.0211 95.408 34.2581C95.569 34.1517 95.7411 34.0626 95.8943 33.9449C98.0384 32.2996 99.2436 29.7107 99.1224 27.0107C99.0551 25.8467 98.804 24.7007 98.3784 23.6152C101.451 17.7336 98.9974 12.1605 97.6364 9.06339C97.4186 8.57139 97.1968 8.07538 96.9831 7.52492C95.6411 4.06162 92.1325 1.93875 88.4419 2.35707C84.7425 2.74983 81.7606 5.56423 81.1549 9.23476C81.0792 10.0231 80.7711 10.7711 80.2697 11.3841C79.7376 12.1514 79.2602 12.9552 78.8412 13.7895C78.1908 13.0902 77.5762 12.5094 77.0698 12.0373C77.0013 11.9728 76.9347 11.9123 76.8682 11.8518C77.2817 9.2435 76.4194 6.59505 74.5495 4.73016C72.6113 2.75727 69.8027 1.90565 67.0951 2.46986C63.1643 3.50165 59.7907 6.02565 57.6914 9.50547C56.705 8.26352 55.4646 7.24661 54.0534 6.52281C50.4263 4.55114 46.0504 4.5375 42.4111 6.48651C38.8456 8.56305 36.5889 12.3181 36.4287 16.4411C36.2377 19.1508 37.0115 21.8407 38.6132 24.0348C37.8821 24.5327 37.1464 25.0887 36.4111 25.6865C34.28 22.235 31.0541 19.5969 27.2482 18.1933C22.947 16.6746 18.2291 18.9303 16.7103 23.2315C16.3986 24.1145 16.2392 25.044 16.2391 25.9804C16.2689 27.3592 16.5278 28.7233 17.0053 30.0171C17.0497 30.1522 17.1021 30.3115 17.1465 30.4587C14.5168 34.3317 14.329 39.3661 16.6629 43.4242C13.8506 42.7792 10.8992 43.1895 8.3694 44.577C4.80387 46.6536 2.54721 50.4086 2.38699 54.5316C2.08243 58.6427 4.0018 62.6022 7.41772 64.9097C8.35917 65.5527 9.38883 66.056 10.4746 66.4038C7.78964 73.6276 6.9112 81.3982 7.91576 89.0391C7.9823 89.5594 8.06497 90.0594 8.14965 90.5615L8.20813 90.9143L8.2303 91.116C9.15358 100.371 12.4032 109.242 17.6768 116.903C11.9807 120.111 9.45825 128.073 10.17 140.681C10.8394 152.59 12.9465 158.972 17.4369 162.71C18.4385 163.543 19.5627 164.217 20.7699 164.708C22.7387 165.864 24.9814 166.471 27.2645 166.466C27.8644 166.466 28.4637 166.428 29.059 166.353C31.7157 166.074 34.1566 164.763 35.8561 162.702C35.9024 162.722 35.9468 162.742 35.9932 162.76C38.5248 164.246 41.4841 164.833 44.3912 164.426C46.5216 164.181 48.5235 163.281 50.1196 161.849L50.1256 161.851C54.2609 164.212 59.0532 165.161 63.7762 164.553C67.3882 164.064 70.84 162.754 73.8659 160.722C74.9605 161.727 76.2312 162.522 77.6143 163.067C79.2693 164.024 81.1224 164.587 83.03 164.712C86.4643 164.99 89.8756 163.95 92.5713 161.805C93.7694 162.981 95.1859 163.912 96.7411 164.545C101.177 167.133 106.717 166.887 110.906 163.916C115.761 160.422 117.615 154.072 115.402 148.515C117.681 144.964 118.973 140.87 119.145 136.655C119.812 128.196 119.477 122.528 115.789 118.586C114.622 117.335 113.18 116.373 111.577 115.774ZM92.8053 21.5041L92.7246 21.4779L92.7186 21.4758L92.8053 21.5041Z" fill="#231F20"/>
<path d="M109.218 113.485C107.869 112.725 106.387 112.23 104.853 112.025C110.468 103.854 113.624 94.2445 113.946 84.3349C114.029 82.613 114.067 80.9032 114.061 79.2155C114.558 78.7251 115.013 78.1936 115.42 77.6266C118.053 73.9838 118.37 69.1554 116.235 65.2C115.209 63.2456 113.739 61.5596 111.942 60.2781C107.393 40.7419 95.6642 35.0256 94.0632 34.3279C93.7772 33.5204 93.4382 32.7325 93.0486 31.9695C93.2097 31.8631 93.3818 31.774 93.5349 31.6563C95.679 30.011 96.8842 27.4221 96.7631 24.7221C96.6958 23.5581 96.4447 22.4121 96.019 21.3266C99.0919 15.445 96.638 9.87188 95.277 6.7748C95.0593 6.28281 94.8375 5.78679 94.6237 5.23633C93.2818 1.773 89.7732 -0.349909 86.0826 0.068393C82.3832 0.461146 79.4012 3.27555 78.7955 6.94611C78.7198 7.73441 78.4117 8.48248 77.9103 9.09548C77.3782 9.8627 76.9008 10.6665 76.4818 11.5009C75.8314 10.8016 75.2168 10.2208 74.7104 9.7487C74.6418 9.68417 74.5753 9.62368 74.5088 9.56318C74.9223 6.95485 74.06 4.3064 72.1901 2.44152C70.2518 0.468648 67.4432 -0.382939 64.7357 0.181313C60.8048 1.21313 57.4313 3.73712 55.332 7.21691C54.3456 5.97494 53.1053 4.95799 51.6941 4.23413C48.0671 2.26246 43.6912 2.24882 40.0518 4.19783C36.4863 6.27437 34.2296 10.0294 34.0694 14.1525C33.8785 16.8622 34.6523 19.552 36.2539 21.7461C35.5228 22.244 34.7871 22.8 34.0518 23.3979C31.9207 19.9463 28.6948 17.3082 24.889 15.9046C20.5877 14.3859 15.8698 16.6416 14.3511 20.9428C14.0393 21.8257 13.88 22.7553 13.8799 23.6917C13.9096 25.0704 14.1686 26.4346 14.6461 27.7284C14.6904 27.8635 14.7428 28.0227 14.7872 28.1699C12.1575 32.0429 11.9697 37.0773 14.3037 41.1354C11.4913 40.4905 8.53997 40.9007 6.01013 42.2883C2.44454 44.3648 0.187841 48.1199 0.027614 52.2429C-0.276953 56.354 1.64242 60.3135 5.05835 62.621C5.9998 63.2641 7.02946 63.7673 8.11523 64.1151C5.43028 71.3389 4.55183 79.1095 5.55638 86.7504C5.62293 87.2707 5.7056 87.7707 5.79027 88.2728L5.84877 88.6256L5.87094 88.8272C6.79421 98.0821 10.0439 106.953 15.3174 114.614C9.6213 117.822 7.09887 125.785 7.81065 138.393C8.48007 150.301 10.5871 156.683 15.0775 160.421C16.0791 161.255 17.2033 161.929 18.4105 162.419C20.3793 163.575 22.622 164.182 24.9051 164.178C25.505 164.177 26.1044 164.139 26.6996 164.065C29.3564 163.785 31.7973 162.474 33.4967 160.413C33.5431 160.433 33.5875 160.453 33.6338 160.471C36.1654 161.957 39.1248 162.544 42.0318 162.137C44.1623 161.893 46.1641 160.992 47.7602 159.56L47.7663 159.562C51.9016 161.923 56.6939 162.872 61.4168 162.264C65.0288 161.776 68.4807 160.465 71.5065 158.433C72.6011 159.439 73.8718 160.234 75.2549 160.778C76.91 161.735 78.7631 162.298 80.6707 162.423C84.105 162.701 87.5163 161.661 90.212 159.516C91.4101 160.692 92.8266 161.623 94.3818 162.256C98.8177 164.844 104.357 164.598 108.547 161.627C113.402 158.133 115.256 151.783 113.043 146.226C115.322 142.675 116.614 138.582 116.785 134.366C117.453 125.907 117.118 120.24 113.43 116.298C112.263 115.047 110.821 114.084 109.218 113.485ZM90.4459 19.2155L90.3653 19.1892L90.3592 19.1872L90.4459 19.2155Z" fill="white"/>
<path d="M24.0764 56.1491C16.261 64.7143 12.5981 76.2778 14.0565 87.7807C16.2382 105.059 24.5708 121.775 51.7817 125.803C73.5507 129.024 104.097 116.915 105.689 83.9269C107.283 50.9002 90.7581 41.8896 90.7581 41.8896C90.7581 41.8896 92.0545 54.7738 87.9287 53.0056C83.8029 51.2373 90.1024 44.0536 85.3872 36.686C83.515 33.4782 81.0001 30.692 78.0002 28.5021C78.0002 28.5021 75.8572 43.2917 72.0148 39.4492C69.7554 37.1898 74.5486 32.1021 73.73 25.7581C72.5512 16.6223 64.739 16.2896 66.3431 8.26953C63.396 8.85895 58.6804 17.3551 61.0131 24.3213C62.9897 30.224 53.9396 27.9558 49.9121 33.3587C46.0247 38.5735 49.2337 43.2153 46.4739 43.968C44.3127 44.5574 41.9356 34.522 43.7039 26.958C38.5958 29.2174 30.2652 39.0563 30.6581 50.1568C30.8632 55.9489 31.5548 63.9801 27.3387 61.9038C25.7494 61.1211 24.0764 56.1491 24.0764 56.1491Z" fill="#22093A" stroke="#22093A" stroke-linecap="round" stroke-linejoin="round"/>
<path d="M23.762 54.0706C15.9466 62.6358 12.2837 74.1992 13.7421 85.7021C15.9237 102.981 24.2563 119.696 51.4672 123.724C73.2362 126.946 103.782 114.837 105.374 81.8484C106.968 48.8217 90.7577 41.8896 90.7577 41.8896C90.7577 41.8896 91.7401 52.6954 87.6142 50.9272C83.4884 49.1589 89.7879 41.9752 85.0727 34.6076C81.222 28.5908 77.9998 28.502 77.9998 28.502C77.9998 28.502 75.5428 41.2132 71.7003 37.3708C69.4409 35.1114 74.2342 30.0236 73.4156 23.6796C72.2367 14.5439 64.7387 16.2896 66.3427 8.26953C63.3957 8.85895 58.3659 15.2767 60.6987 22.2429C62.6753 28.1456 53.6252 25.8774 49.5976 31.2803C45.7103 36.4951 48.9193 41.1369 46.1594 41.8896C43.9983 42.479 41.9354 34.522 43.7036 26.958C38.5955 29.2174 29.9508 36.9779 30.3437 48.0783C30.5488 53.8706 31.2404 61.9017 27.0243 59.8254C25.4349 59.0426 23.762 54.0706 23.762 54.0706Z" fill="#FCC707" stroke="#22093A" stroke-linecap="round" stroke-linejoin="round"/>
<path d="M68.9662 24.1108C69.2848 25.8485 69.0099 27.6429 68.1857 29.2055C65.9981 33.5362 65.3513 35.3293 66.392 37.3017" stroke="white" stroke-linecap="round" stroke-linejoin="round"/>
<path d="M66.3906 18.0132C66.81 18.8074 67.2557 19.6131 67.6619 20.4384" stroke="white" stroke-linecap="round" stroke-linejoin="round"/>
<path d="M18.8832 71.4092C18.0058 74.8277 17.768 78.3789 18.1819 81.8839" stroke="white" stroke-linecap="round" stroke-linejoin="round"/>
<path d="M21.8296 63.4741C21.4229 64.262 21.0093 65.148 20.6113 66.1136" stroke="white" stroke-linecap="round" stroke-linejoin="round"/>
<path d="M39.7865 34.4248C38.3751 37.8747 40.998 43.3632 42.0603 44.4609" stroke="white" stroke-linecap="round" stroke-linejoin="round"/>
<path d="M81.6914 36.3193C82.8802 37.8887 83.434 39.8484 83.2422 41.8078" stroke="white" stroke-linecap="round" stroke-linejoin="round"/>
<path d="M98.8767 90.7056C96.9486 98.2277 92.6559 104.932 86.6309 109.831" stroke="#22093A" stroke-linecap="round" stroke-linejoin="round"/>
<path d="M100.243 84.0693C100.133 84.8606 99.9903 85.8139 99.7852 86.8884" stroke="#22093A" stroke-linecap="round" stroke-linejoin="round"/>
<path d="M22.1316 23.6797C22.1316 23.6797 28.5934 25.9812 28.2123 32.5461C27.8984 37.9533 25.9285 35.6389 24.4621 42.6478C23.0015 38.383 19.2819 36.2197 21.7775 32.5474C24.6156 28.3711 22.1316 25.1845 22.1316 23.6797Z" fill="#FCC707" stroke="#22093A" stroke-linecap="round" stroke-linejoin="round"/>
<path d="M90.304 87.4722C92.018 65.2072 78.9953 55.4685 63.4553 54.0712C51.0685 52.9574 35.325 58.7109 31.9068 74.8149C29.278 87.2003 30.1843 94.4995 38.8674 98.6928C38.8674 98.6928 35.8545 108.166 41.3629 108.379C45.2746 108.531 47.1103 103.373 47.1103 103.373C47.1103 103.373 47.3124 108.626 50.5292 108.759C53.7461 108.893 55.5554 102.765 55.5554 102.765C55.5554 102.765 55.8629 109.265 60.0356 109.438C64.2084 109.611 65.189 104.713 65.189 104.713C65.189 104.713 65.5764 109.594 69.1056 109.814C72.6532 110.035 74.7778 108.133 75.0324 102.846C75.2237 98.8733 79.8964 98.4667 84.9095 97.0632C89.5906 95.7528 90.1244 89.804 90.304 87.4722Z" fill="#22093A" stroke="#22093A" stroke-linecap="round" stroke-linejoin="round"/>
<path d="M46.3466 102.181C46.3466 102.181 44.5111 107.339 40.5993 107.187C35.0908 106.973 38.1037 97.5004 38.1037 97.5004C29.4207 93.3071 28.5143 86.0079 31.1432 73.6225C34.5613 57.5185 50.3048 51.765 62.6917 52.8788C78.2316 54.2761 91.2543 64.0147 89.5403 86.2798C89.3606 88.6117 88.827 94.5605 84.1458 95.8709C79.1327 97.2744 74.4601 97.681 74.2688 101.654C74.0142 106.94 71.8896 108.843 68.3421 108.622C64.8128 108.402 64.4255 103.52 64.4255 103.52C64.4255 103.52 63.4449 108.419 59.2721 108.246C55.0994 108.073 54.7918 101.573 54.7918 101.573C54.7918 101.573 52.9826 107.7 49.7657 107.567C46.5489 107.434 46.3466 102.181 46.3466 102.181Z" fill="#E6E7E8" stroke="#22093A" stroke-linecap="round" stroke-linejoin="round"/>
<path d="M48.1588 95.2637C45.8121 94.3939 47.8861 85.7533 51.7339 85.9128C55.5817 86.0724 56.0407 94.9949 53.6496 95.4913C52.7676 95.6745 51.869 92.953 51.1368 92.909C50.346 92.8615 49.0488 95.5936 48.1588 95.2637Z" fill="#22093A" stroke="#22093A" stroke-linecap="round" stroke-linejoin="round"/>
<path d="M73.6742 84.8953C73.9033 79.3679 70.8503 74.7528 66.855 74.5872C62.8597 74.4215 59.4351 78.7681 59.206 84.2955C58.9768 89.8229 62.0298 94.438 66.0251 94.6036C70.0204 94.7693 73.445 90.4227 73.6742 84.8953Z" fill="#22093A" stroke="#22093A" stroke-linecap="round" stroke-linejoin="round"/>
<path d="M46.4418 83.6414C46.6179 79.3942 44.272 75.848 41.2021 75.7207C38.1322 75.5935 35.5008 78.9333 35.3247 83.1804C35.1486 87.4276 37.4945 90.9738 40.5644 91.1011C43.6343 91.2283 46.2657 87.8885 46.4418 83.6414Z" fill="#22093A" stroke="#22093A" stroke-linecap="round" stroke-linejoin="round"/>
<path d="M39.5879 65.8004C42.9623 60.4625 48.8035 57.189 55.1178 57.0972" stroke="white" stroke-linecap="round" stroke-linejoin="round"/>
<path d="M41.2342 98.6528C40.5285 101.083 40.5709 102.338 41.2342 103.279" stroke="white" stroke-linecap="round" stroke-linejoin="round"/>
<path d="M58.0293 102.73C58.0293 104.141 58.5415 105.161 59.4529 105.161" stroke="white" stroke-linecap="round" stroke-linejoin="round"/>
<path d="M67.5 102.73C67.7352 104.141 68.3625 105.553 69.3033 105.553" stroke="white" stroke-linecap="round" stroke-linejoin="round"/>
<path d="M58.0293 74.6603C62.7165 66.7412 71.0277 70.6333 72.6742 72.7785" stroke="white" stroke-linecap="round" stroke-linejoin="round"/>
<path d="M36.6855 73.3276C38.1175 72.1027 39.9839 71.5088 41.8604 71.6811" stroke="white" stroke-linecap="round" stroke-linejoin="round"/>
<path d="M88.5051 25.0902C85.4408 24.1176 83.3292 21.3106 83.2441 18.0968C83.3066 13.6887 85.9956 14.0214 86.9382 8.26953C88.278 11.6856 90.3754 14.791 88.4769 17.8664C86.3177 21.3637 88.4514 23.8665 88.5051 25.0902Z" fill="#FCC707" stroke="#22093A" stroke-linecap="round" stroke-linejoin="round"/>
<path d="M101.147 68.3541C99.7325 70.1561 100.047 72.7634 101.849 74.1776C102.331 74.5557 102.89 74.8224 103.488 74.9586C106.706 75.4892 110.748 72.4573 108.942 69.0796C108.108 66.8306 105.609 65.6837 103.36 66.5179C102.435 66.8609 101.654 67.5085 101.147 68.3541Z" fill="#EC6509" stroke="#22093A" stroke-linecap="round" stroke-linejoin="round"/>
<path d="M8.26106 52.7934C8.14622 54.6677 9.57259 56.2803 11.4469 56.3951C11.9482 56.4258 12.4499 56.3451 12.9163 56.1589C15.3348 55.0179 16.6494 51.0902 13.8584 49.6522C12.2482 48.5234 10.0277 48.9137 8.89894 50.5239C8.43479 51.186 8.20983 51.9864 8.26106 52.7934Z" fill="#EC6509" stroke="#22093A" stroke-linecap="round" stroke-linejoin="round"/>
<path d="M42.3021 14.703C42.1873 16.5773 43.6137 18.1899 45.488 18.3047C45.9892 18.3354 46.4909 18.2547 46.9572 18.0685C49.3757 16.9275 50.6902 12.9998 47.8993 11.5618C46.289 10.433 44.0686 10.8234 42.9399 12.4337C42.4758 13.0957 42.2509 13.896 42.3021 14.703Z" fill="#FCC707" stroke="#22093A" stroke-linecap="round" stroke-linejoin="round"/>
<path d="M103.985 120.89C101.27 120.922 97.9566 122.361 96.6284 133.847C95.4426 144.102 99.4706 144.487 100.511 144.474C101.551 144.462 107.66 144.915 108.544 133.705C109.427 122.496 108.008 120.842 103.985 120.89Z" fill="#22093A" stroke="#22093A" stroke-linecap="round" stroke-linejoin="round"/>
<path d="M100.939 155.804C103.567 155.804 105.698 153.674 105.698 151.045C105.698 148.417 103.567 146.286 100.939 146.286C98.3104 146.286 96.1797 148.417 96.1797 151.045C96.1797 153.674 98.3104 155.804 100.939 155.804Z" fill="#22093A" stroke="#22093A" stroke-linecap="round" stroke-linejoin="round"/>
<path d="M57.1883 118.049C66.2288 117.495 74.0068 124.374 74.5609 133.415C74.5841 133.793 74.5941 134.172 74.5911 134.55C75.0682 146.752 67.3799 153.109 60.2985 154.071C53.9091 154.939 44.9125 150.972 43.9579 138.007C43.1758 127.384 47.6883 119.407 57.1883 118.049Z" fill="#22093A" stroke="#22093A" stroke-linecap="round" stroke-linejoin="round"/>
<path d="M59.0776 127.368C59.9734 126.825 61.5146 129.063 61.7501 134.714C61.9856 140.365 60.9935 143.451 60.0121 144.022C59.1265 144.538 57.808 142.858 57.4949 136.86C57.2383 131.947 57.762 128.167 59.0776 127.368Z" fill="#22093A" stroke="#22093A" stroke-linecap="round" stroke-linejoin="round"/>
<path d="M84.9199 119.446C71.9133 118.853 67.7949 122.038 68.697 126.273C70.0526 132.637 78.33 131.859 78.33 131.859C78.33 131.859 72.4933 153.585 81.1906 154.169C92.034 154.897 87.1826 131.478 87.1826 131.478C87.1826 131.478 99.8181 132.497 99.5083 127.177C99.2479 122.707 93.6368 119.843 84.9199 119.446Z" fill="#22093A" stroke="#22093A" stroke-linecap="round" stroke-linejoin="round"/>
<path d="M38.4646 120.122C34.6571 120.34 32.6725 124.698 32.863 134.139C31.7657 134.136 30.5875 134.195 29.3564 134.29C29.02 126.084 27.448 121.8 23.1286 122.049C18.9804 122.287 16.9883 127.419 17.624 138.707C18.2599 149.994 20.2173 156.547 25.652 155.859C28.3122 155.522 29.1193 150.882 29.3476 144.687C29.9564 144.634 30.5895 144.559 31.27 144.442C32.1339 144.294 32.9203 144.119 33.6618 143.927C34.7155 150.742 36.8342 154.458 40.988 153.931C44.5613 153.479 44.7929 145.269 44.7662 135.943C44.7363 125.407 43.3746 119.839 38.4646 120.122Z" fill="#22093A" stroke="#22093A" stroke-linecap="round" stroke-linejoin="round"/>
<path d="M102.407 120.1C99.6921 120.132 96.3784 121.572 95.0503 133.058C93.8645 143.313 97.8924 143.697 98.9325 143.685C99.9726 143.672 106.082 144.125 106.966 132.916C107.849 121.707 106.43 120.052 102.407 120.1Z" fill="#E9022C" stroke="#22093A" stroke-linecap="round" stroke-linejoin="round"/>
<path d="M99.3607 155.015C101.989 155.015 104.12 152.884 104.12 150.256C104.12 147.627 101.989 145.497 99.3607 145.497C96.7323 145.497 94.6016 147.627 94.6016 150.256C94.6016 152.884 96.7323 155.015 99.3607 155.015Z" fill="#E9022C" stroke="#22093A" stroke-linecap="round" stroke-linejoin="round"/>
<path d="M55.6101 117.259C64.6507 116.705 72.4287 123.585 72.9828 132.625C73.0059 133.003 73.016 133.382 73.0129 133.761C73.49 145.962 65.8018 152.32 58.7203 153.281C52.331 154.149 43.3344 150.183 42.3797 137.217C41.5976 126.595 46.1102 118.618 55.6101 117.259Z" fill="#E9022C" stroke="#22093A" stroke-linecap="round" stroke-linejoin="round"/>
<path d="M57.4995 126.578C58.3953 126.034 59.9364 128.273 60.172 133.924C60.4075 139.575 59.4154 142.661 58.4339 143.232C57.5484 143.748 56.2299 142.068 55.9167 136.07C55.6602 131.157 56.1839 127.377 57.4995 126.578Z" fill="#22093A" stroke="#22093A" stroke-linecap="round" stroke-linejoin="round"/>
<path d="M83.3418 118.656C70.3352 118.063 66.2168 121.249 67.1189 125.483C68.4745 131.847 76.7519 131.07 76.7519 131.07C76.7519 131.07 70.9152 152.795 79.6125 153.379C90.4558 154.107 85.6045 130.689 85.6045 130.689C85.6045 130.689 98.24 131.707 97.9302 126.387C97.6698 121.918 92.0587 119.054 83.3418 118.656Z" fill="#E9022C" stroke="#22093A" stroke-linecap="round" stroke-linejoin="round"/>
<path d="M36.8865 119.332C33.079 119.55 31.0944 123.908 31.2849 133.348C30.1876 133.346 29.0094 133.405 27.7782 133.5C27.4419 125.294 25.8698 121.01 21.5504 121.259C17.4023 121.497 15.4101 126.629 16.0459 137.917C16.6817 149.204 18.6392 155.757 24.0739 155.069C26.734 154.732 27.5412 150.092 27.7695 143.897C28.3782 143.844 29.0114 143.769 29.6919 143.652C30.5558 143.504 31.3422 143.329 32.0837 143.137C33.1374 149.952 35.2561 153.668 39.4099 153.141C42.9832 152.689 43.2147 144.479 43.1881 135.153C43.1581 124.617 41.7965 119.049 36.8865 119.332Z" fill="#E9022C" stroke="#22093A" stroke-linecap="round" stroke-linejoin="round"/>
<path d="M21.5247 124.613C19.746 125.362 18.3417 130.167 19.0907 137.22" stroke="white" stroke-linecap="round" stroke-linejoin="round"/>
<path d="M34.5369 127.289C34.2533 129.504 34.2533 131.745 34.5369 133.96" stroke="white" stroke-linecap="round" stroke-linejoin="round"/>
<path d="M46.8008 138.937C46.3327 143.32 50.0816 148.855 57.6643 149.546" stroke="white" stroke-linecap="round" stroke-linejoin="round"/>
<path d="M47.1758 126.499C48.0405 124.7 49.4088 123.19 51.1146 122.153" stroke="white" stroke-linecap="round" stroke-linejoin="round"/>
<path d="M98.7107 148.486C97.6407 149.058 97.2368 150.388 97.8085 151.458C97.8472 151.531 97.89 151.601 97.9366 151.669" stroke="white" stroke-linecap="round" stroke-linejoin="round"/>
<path d="M104.07 129.577C103.983 133.162 103.527 136.87 102.605 138.009" stroke="white" stroke-linecap="round" stroke-linejoin="round"/>
<path d="M103.812 123.583C103.943 124.551 104.023 125.525 104.052 126.5" stroke="white" stroke-linecap="round" stroke-linejoin="round"/>
<path d="M78.442 138.01C77.5059 143.685 77.4561 147.237 79.8214 149.547" stroke="white" stroke-linecap="round" stroke-linejoin="round"/>
</g>
<defs>
<clipPath id="clip0_5_11011">
<rect width="120" height="166.466" fill="white"/>
</clipPath>
</defs>
</svg>
