<svg width="120" height="121" viewBox="0 0 120 121" fill="none" xmlns="http://www.w3.org/2000/svg">
<g clip-path="url(#clip0_4_10983)">
<path opacity="0.5" d="M119.891 72.6716C119.631 69.7083 118.311 66.3742 116.504 63.7313C117.43 60.8471 117.877 56.868 116.176 52.229C113.792 45.7191 109.4 42.3826 106.398 40.7853C105.85 39.629 105.061 38.2715 103.994 36.9235C104.782 35.9457 105.304 34.7448 105.403 33.4196C105.545 31.5958 105.798 28.3409 106.177 27.1347C107.383 26.7561 110.64 26.503 112.469 26.3603C115.786 26.0986 118.385 23.2864 118.385 19.9594C118.385 16.6324 115.786 13.8203 112.463 13.5585C110.638 13.4158 107.383 13.1627 106.176 12.7841C105.798 11.5779 105.545 8.32535 105.404 6.51645C105.155 3.18549 102.343 0.577148 99.0027 0.577148C95.6623 0.577148 92.8502 3.18548 92.6026 6.49842C92.4599 8.323 92.206 11.5779 91.8282 12.7841C90.6212 13.1627 87.3655 13.4158 85.5347 13.5585C82.2178 13.8203 79.6189 16.6324 79.6189 19.9594C79.6189 23.2864 82.2178 26.0986 85.5347 26.3603C85.5362 26.3603 85.5378 26.3603 85.5409 26.3603C87.3655 26.503 90.6212 26.7561 91.8282 27.1347C92.0461 27.8304 92.2216 29.2081 92.3591 30.5962C91.6763 30.5393 90.9814 30.5077 90.2654 30.5236C86.9156 30.4437 83.4546 31.2455 80.2647 32.4407C80.0515 30.1349 79.644 27.5979 78.9558 24.8657C76.8898 16.6614 72.6544 10.5206 67.0271 7.57451C64.6194 6.31424 62.0048 5.69977 59.4717 5.78598C57.6612 5.7178 55.9291 5.99681 54.2958 6.60736C44.4487 10.3075 40.5612 21.4901 44.6195 34.4338C46.1182 39.209 46.5481 41.741 46.2445 43.8635C45.5567 43.5354 44.8053 43.3185 44.0082 43.2557C42.4187 43.1319 39.9233 42.9375 38.7241 42.6726C38.4576 41.4727 38.2633 38.9804 38.141 37.4042C37.9537 34.9026 36.319 32.8091 34.1009 31.9223C36.2111 30.8579 37.6582 28.6664 37.6582 26.1856C37.6582 22.8585 35.0593 20.0464 31.7362 19.7846C31.3427 19.7533 30.838 19.7149 30.352 19.6702C30.3081 19.1874 30.269 18.6897 30.2392 18.3041C29.9899 14.9732 27.1778 12.3648 23.8375 12.3648C20.4971 12.3648 17.685 14.9732 17.4373 18.2861C17.406 18.6803 17.3668 19.1835 17.3229 19.6702C16.8354 19.7149 16.3291 19.7541 15.9325 19.7846C12.6157 20.0464 10.0167 22.8585 10.0167 26.1856C10.0167 29.5126 12.6157 32.3247 15.9325 32.5865C15.9341 32.5865 15.9357 32.5865 15.9388 32.5865C16.3322 32.6178 16.8354 32.657 17.3229 32.7009C17.3668 33.1837 17.406 33.6814 17.4358 34.067C17.685 37.398 20.4971 40.0063 23.8375 40.0063C24.2799 40.0063 24.7108 39.9546 25.1299 39.8675C25.0265 40.95 24.9025 42.0093 24.756 42.6726C23.5553 42.9375 21.0614 43.1319 19.4657 43.2557C16.1488 43.5175 13.5499 46.3296 13.5499 49.6567C13.5499 52.9837 16.1488 55.7958 19.472 56.0576C21.0614 56.1814 23.5553 56.3758 24.756 56.6407C25.0209 57.8406 25.2153 60.3322 25.3376 61.9075C25.5868 65.2385 28.3989 67.8468 31.7393 67.8468C34.1088 67.8468 36.1924 66.5212 37.3036 64.5758C36.4169 67.5325 35.7409 70.7365 35.4966 74.1263C34.9872 74.4508 34.5247 74.8246 34.1031 75.2337C30.2345 71.9584 25.3454 70.2122 20.8153 70.5046C9.18282 71.2899 1.87038 80.3532 1.73401 94.1591C1.64623 103.284 5.21232 108.608 8.21253 111.462C8.40377 111.645 8.59971 111.819 8.79878 111.991C9.30508 112.609 9.81139 113.16 10.3114 113.636C13.9841 117.126 18.7995 118.948 23.803 118.642C27.3236 118.43 30.7282 117.238 33.6861 115.262C33.857 115.413 34.0326 115.557 34.2128 115.694C35.8195 117.977 37.7444 118.927 39.1881 119.318C42.2008 120.133 45.3045 119.632 47.8721 117.933C48.7891 117.326 49.6387 116.57 50.4177 115.667C51.8348 117.244 53.78 118.862 56.3069 119.272C59.5595 119.796 62.486 119.233 64.7479 117.742C66.4753 119.097 68.5648 119.912 70.8142 120.079C71.0901 120.099 71.3675 120.109 71.6403 120.109C74.3097 120.109 76.8977 119.148 78.9276 117.4C80.6174 115.944 81.8087 114.063 82.3965 111.964C82.6191 111.911 82.8417 111.856 83.0643 111.801C95.8269 108.596 102.122 101.204 104.71 97.1554C104.955 97.0605 105.207 96.939 105.45 96.8035C110.438 94.3871 121.194 87.4125 119.891 72.6716Z" fill="#231F20"/>
<path d="M118.159 72.0945C117.899 69.1311 116.579 65.797 114.772 63.1542C115.698 60.27 116.145 56.2909 114.444 51.6518C112.06 45.1419 107.668 41.8055 104.666 40.2082C104.117 39.0519 103.328 37.6943 102.261 36.3463C103.05 35.3685 103.571 34.1676 103.67 32.8425C103.813 31.0187 104.065 27.7637 104.445 26.5575C105.65 26.179 108.907 25.9258 110.737 25.7832C114.054 25.5214 116.653 22.7093 116.653 19.3823C116.653 16.0552 114.054 13.2431 110.73 12.9813C108.906 12.8387 105.65 12.5855 104.443 12.207C104.065 11.0008 103.813 7.7482 103.672 5.93929C103.423 2.60834 100.611 0 97.2703 0C93.9299 0 91.1178 2.60834 90.8701 5.92127C90.7275 7.74585 90.4736 11.0008 90.0958 12.207C88.8888 12.5855 85.6331 12.8387 83.8022 12.9813C80.4854 13.2431 77.8865 16.0552 77.8865 19.3823C77.8865 22.7093 80.4854 25.5214 83.8022 25.7832C83.8038 25.7832 83.8054 25.7832 83.8085 25.7832C85.6331 25.9258 88.8888 26.179 90.0958 26.5575C90.3137 27.2532 90.4891 28.631 90.6267 30.0191C89.9438 29.9622 89.2489 29.9305 88.533 29.9465C85.1832 29.8666 81.7222 30.6683 78.5323 31.8636C78.3191 29.5578 77.9115 27.0207 77.2234 24.2886C75.1574 16.0842 70.922 9.9435 65.2946 6.99736C62.887 5.73709 60.2723 5.12262 57.7392 5.20884C55.9288 5.14065 54.1967 5.41967 52.5633 6.03021C42.7162 9.73032 38.8288 20.9129 42.8871 33.8566C44.3857 38.6319 44.8157 41.1639 44.5121 43.2864C43.8243 42.9583 43.0728 42.7414 42.2758 42.6786C40.6863 42.5548 38.1908 42.3604 36.9917 42.0955C36.7252 40.8956 36.5308 38.4032 36.4086 36.8271C36.2213 34.3254 34.5865 32.2319 32.3685 31.3451C34.4787 30.2808 35.9258 28.0893 35.9258 25.6084C35.9258 22.2814 33.3269 19.4693 30.0037 19.2075C29.6103 19.1761 29.1056 19.1377 28.6196 19.0931C28.5757 18.6103 28.5365 18.1126 28.5068 17.727C28.2575 14.396 25.4454 11.7877 22.105 11.7877C18.7647 11.7877 15.9526 14.396 15.7049 17.7089C15.6736 18.1032 15.6344 18.6063 15.5905 19.0931C15.103 19.1377 14.5967 19.1769 14.2001 19.2075C10.8832 19.4693 8.28431 22.2814 8.28431 25.6084C8.28431 28.9354 10.8832 31.7476 14.2001 32.0093C14.2017 32.0093 14.2032 32.0093 14.2064 32.0093C14.5998 32.0407 15.103 32.0799 15.5905 32.1238C15.6344 32.6066 15.6736 33.1042 15.7033 33.4898C15.9526 36.8208 18.7647 39.4291 22.105 39.4291C22.5475 39.4291 22.9783 39.3774 23.3975 39.2903C23.2941 40.3729 23.1701 41.4321 23.0236 42.0955C21.8229 42.3604 19.329 42.5548 17.7333 42.6786C14.4164 42.9404 11.8175 45.7525 11.8175 49.0795C11.8175 52.4066 14.4164 55.2187 17.7395 55.4804C19.329 55.6043 21.8229 55.7987 23.0236 56.0636C23.2885 57.2635 23.4829 59.755 23.6052 61.3304C23.8544 64.6614 26.6665 67.2697 30.0069 67.2697C32.3764 67.2697 34.46 65.9441 35.5711 63.9987C34.6845 66.9553 34.0085 70.1594 33.7642 73.5491C33.2547 73.8736 32.7923 74.2475 32.3707 74.6566C28.5021 71.3813 23.613 69.6351 19.0829 69.9274C7.4504 70.7127 0.137963 79.7761 0.00158905 93.5819C-0.0861923 102.706 3.47989 108.03 6.48011 110.885C6.67135 111.067 6.86728 111.242 7.06636 111.414C7.57266 112.032 8.07897 112.582 8.579 113.059C12.2517 116.549 17.0671 118.371 22.0706 118.065C25.5912 117.853 28.9958 116.66 31.9537 114.685C32.1246 114.836 32.3001 114.98 32.4804 115.116C34.0871 117.399 36.012 118.35 37.4557 118.74C40.4684 119.556 43.5721 119.055 46.1397 117.356C47.0567 116.749 47.9063 115.993 48.6853 115.09C50.1023 116.667 52.0476 118.285 54.5744 118.695C57.827 119.219 60.7536 118.656 63.0155 117.165C64.7429 118.52 66.8324 119.335 69.0817 119.501C69.3576 119.522 69.6351 119.532 69.9078 119.532C72.5773 119.532 75.1653 118.57 77.1952 116.823C78.8849 115.366 80.0763 113.485 80.6641 111.387C80.8867 111.334 81.1092 111.279 81.3318 111.223C94.0945 108.019 100.39 100.627 102.978 96.5782C103.222 96.4834 103.474 96.3619 103.717 96.2263C108.705 93.81 119.462 86.8354 118.159 72.0945Z" fill="white"/>
<path d="M106.93 64.447C108.508 64.6354 111.462 69.2386 111.764 72.6583C113.041 87.1548 98.5068 91.4443 98.5068 91.4443C98.5068 91.4443 94.1143 101.394 79.7673 104.997C65.1305 108.674 53.386 106.185 44.775 90.6675C34.9642 72.9878 47.2026 55.7649 49.9525 49.9131C52.7024 44.0612 52.6 40.323 49.969 31.935C47.3381 23.547 48.5878 14.7426 55.7772 12.0411C60.5702 10.24 67.999 13.9601 70.9965 25.8569C73.6675 36.458 71.3936 43.5494 71.3936 43.5494C71.3936 43.5494 84.5536 33.7085 92.8919 37.0339C98.2722 39.1796 99.6399 45.0469 99.6399 45.0469C99.6399 45.0469 105.731 46.537 108.415 53.861C110.736 60.1938 106.93 64.447 106.93 64.447Z" fill="#22093A" stroke="#22093A" stroke-miterlimit="10" stroke-linecap="round" stroke-linejoin="round"/>
<path d="M99.639 45.0469C101.564 50.1703 98.8274 57.7806 88.5568 63.9273C79.2005 69.5267 71.4321 69.7395 68.9785 63.2098C65.3764 53.6238 79.7855 48.2094 79.7855 48.2094" fill="#22093A"/>
<path d="M99.639 45.0469C101.564 50.1703 98.8274 57.7806 88.5568 63.9273C79.2005 69.5267 71.4321 69.7395 68.9785 63.2098C65.3764 53.6238 79.7855 48.2094 79.7855 48.2094" stroke="#22093A" stroke-miterlimit="10" stroke-linecap="round" stroke-linejoin="round"/>
<path d="M106.93 64.4468C106.93 64.4468 99.164 71.3157 94.5917 75.5918C84.1113 85.3932 72.7152 77.564 80.3375 67.6964" fill="#22093A"/>
<path d="M106.93 64.4468C106.93 64.4468 99.164 71.3157 94.5917 75.5918C84.1113 85.3932 72.7152 77.564 80.3375 67.6964" stroke="#22093A" stroke-miterlimit="10" stroke-linecap="round" stroke-linejoin="round"/>
<path d="M98.7683 72.2729C96.458 74.5901 88.6938 78.5829 89.1651 84.2736C89.4581 87.8117 93.6994 93.2069 100.666 90.5892" fill="#22093A"/>
<path d="M98.7683 72.2729C96.458 74.5901 88.6938 78.5829 89.1651 84.2736C89.4581 87.8117 93.6994 93.2069 100.666 90.5892" stroke="#22093A" stroke-miterlimit="10" stroke-linecap="round" stroke-linejoin="round"/>
<path d="M105.975 64.447C107.553 64.6354 110.507 69.2386 110.809 72.6583C112.086 87.1548 97.5518 91.4443 97.5518 91.4443C97.5518 91.4443 93.1592 101.394 78.8122 104.997C64.1754 108.674 52.4309 106.185 43.8199 90.6675C34.0091 72.9878 46.2476 55.7649 48.9974 49.9131C51.7473 44.0612 51.6449 40.323 49.014 31.935C46.383 23.547 47.6327 14.7426 54.8221 12.0411C59.6151 10.24 67.0439 13.9601 70.0414 25.8569C72.7124 36.458 70.4385 43.5494 70.4385 43.5494C70.4385 43.5494 83.5985 33.7085 91.9368 37.0339C97.3171 39.1796 98.6849 45.0469 98.6849 45.0469C98.6849 45.0469 104.776 46.537 107.46 53.861C109.781 60.1937 105.975 64.447 105.975 64.447Z" fill="#FCC707" stroke="#22093A" stroke-miterlimit="10" stroke-linecap="round" stroke-linejoin="round"/>
<path d="M98.684 45.0469C100.609 50.1703 97.8723 57.7806 87.6017 63.9273C78.2454 69.5267 70.477 69.7395 68.0234 63.2098C64.4214 53.6238 78.8305 48.2094 78.8305 48.2094" stroke="#22093A" stroke-miterlimit="10" stroke-linecap="round" stroke-linejoin="round"/>
<path d="M105.975 64.4468C105.975 64.4468 98.2089 71.3157 93.6366 75.5918C83.1563 85.3932 71.7601 77.564 79.3824 67.6965" stroke="#22093A" stroke-miterlimit="10" stroke-linecap="round" stroke-linejoin="round"/>
<path d="M97.7664 71.7983C95.4561 74.1155 87.7388 78.583 88.2101 84.2737C88.5032 87.8118 92.7444 93.207 99.7107 90.5893" stroke="#22093A" stroke-miterlimit="10" stroke-linecap="round" stroke-linejoin="round"/>
<path d="M54.4686 42.7427C54.3767 43.7122 54.251 44.4958 54.1367 45.047" stroke="white" stroke-miterlimit="10" stroke-linecap="round" stroke-linejoin="round"/>
<path d="M55.1416 17.7197C52.49 18.3397 51.0786 23.5713 53.1558 30.2458C54.0837 33.2273 54.4694 36.0586 54.5714 38.4756" stroke="white" stroke-miterlimit="10" stroke-linecap="round" stroke-linejoin="round"/>
<path d="M82.4258 75.8104C86.7231 76.9188 93.3061 71.0449 96.0491 68.1191" stroke="white" stroke-miterlimit="10" stroke-linecap="round" stroke-linejoin="round"/>
<path d="M97.5117 87.7041C101.078 87.2072 105.101 83.1621 105.101 83.1621" stroke="white" stroke-miterlimit="10" stroke-linecap="round" stroke-linejoin="round"/>
<path d="M84.3096 98.5737C82.0422 99.9315 79.1268 101.124 75.481 101.765C66.2425 103.391 62.4023 101.765 62.4023 101.765" stroke="#22093A" stroke-miterlimit="10" stroke-linecap="round" stroke-linejoin="round"/>
<path d="M89.7387 93.7446C89.3416 94.3042 88.8278 94.9242 88.1895 95.5671" stroke="#22093A" stroke-miterlimit="10" stroke-linecap="round" stroke-linejoin="round"/>
<path d="M77.8528 53.1475C73.3859 54.8379 69.0754 58.9551 71.3612 62.5209" stroke="white" stroke-miterlimit="10" stroke-linecap="round" stroke-linejoin="round"/>
<path d="M30.0084 43.7508L24.6797 49.0796L30.0084 54.4083L35.3372 49.0796L30.0084 43.7508Z" fill="#FCC707"/>
<path d="M21.6077 78.502C27.3565 78.1143 36.1566 83.6315 35.6765 94.8207C35.1965 106.01 27.9755 111.278 21.685 111.656C16.0093 111.997 8.4 107.734 8.51696 95.8123C8.61277 86.0452 13.164 79.0715 21.6077 78.502Z" fill="#22093A" stroke="#22093A" stroke-miterlimit="10" stroke-linecap="round" stroke-linejoin="round"/>
<path d="M22.5802 87.1558C23.4069 86.7222 24.5956 88.8776 24.386 94.0611C24.1765 99.2446 23.0777 101.995 22.1736 102.448C21.3579 102.857 20.3237 101.227 20.4906 95.7221C20.6273 91.2117 21.3658 87.7927 22.5802 87.1558Z" fill="#22093A" stroke="#22093A" stroke-miterlimit="10" stroke-linecap="round" stroke-linejoin="round"/>
<path d="M39.7984 80.9315C34.7299 82.1029 33.5114 111.021 39.1314 112.543C45.7443 114.333 47.5821 101.024 47.5821 101.024C47.5821 101.024 52.6102 111.872 55.5952 112.356C63.5234 113.64 62.6623 103.88 54.6796 95.4502C54.6796 95.4502 67.2216 85.508 59.3225 81.5482C53.8524 78.8061 47.7621 92.7181 47.7621 92.7181C47.7621 92.7181 46.8836 79.2938 39.7984 80.9315Z" fill="#22093A" stroke="#22093A" stroke-miterlimit="10" stroke-linecap="round" stroke-linejoin="round"/>
<path d="M70.2923 78.0415C67.5903 78.3115 64.415 80.0359 64.0981 91.5952C63.8152 101.916 67.8617 101.946 68.8968 101.842C69.9319 101.739 76.058 101.655 75.9564 90.4099C75.8549 79.1651 74.2959 77.6413 70.2923 78.0415Z" fill="#22093A" stroke="#22093A" stroke-miterlimit="10" stroke-linecap="round" stroke-linejoin="round"/>
<path d="M69.9003 113.111C72.529 113.111 74.66 110.98 74.66 108.351C74.66 105.723 72.529 103.592 69.9003 103.592C67.2716 103.592 65.1406 105.723 65.1406 108.351C65.1406 110.98 67.2716 113.111 69.9003 113.111Z" fill="#22093A" stroke="#22093A" stroke-miterlimit="10" stroke-linecap="round" stroke-linejoin="round"/>
<path d="M19.514 76.334C25.2627 75.9463 34.0628 81.4636 33.5828 92.6527C33.1027 103.842 25.8817 109.11 19.5913 109.488C13.9156 109.829 6.30625 105.566 6.42321 93.6443C6.51902 83.8773 11.0702 76.9035 19.514 76.334Z" fill="#35CCAD" stroke="#22093A" stroke-miterlimit="10" stroke-linecap="round" stroke-linejoin="round"/>
<path d="M20.4864 84.9878C21.3132 84.5542 22.5018 86.7097 22.2923 91.8932C22.0827 97.0766 20.984 99.8272 20.0799 100.28C19.2641 100.689 18.2299 99.0595 18.3968 93.5541C18.5335 89.0437 19.272 85.6247 20.4864 84.9878Z" fill="#22093A" stroke="#22093A" stroke-miterlimit="10" stroke-linecap="round" stroke-linejoin="round"/>
<path d="M37.7105 78.7591C32.6421 79.9306 31.4235 108.849 37.0435 110.37C43.6564 112.16 45.4942 98.8517 45.4942 98.8517C45.4942 98.8517 50.5223 109.7 53.5073 110.184C61.4355 111.468 60.5744 101.707 52.5917 93.2779C52.5917 93.2779 65.1337 83.3356 57.2346 79.3758C51.7645 76.6337 45.6742 90.5457 45.6742 90.5457C45.6742 90.5457 44.7957 77.1215 37.7105 78.7591Z" fill="#35CCAD" stroke="#22093A" stroke-miterlimit="10" stroke-linecap="round" stroke-linejoin="round"/>
<path d="M67.7787 76.0058C65.0766 76.2759 61.9014 78.0002 61.5844 89.5595C61.3015 99.8801 65.3481 99.9103 66.3832 99.8068C67.4183 99.7033 73.5443 99.619 73.4428 88.3743C73.3412 77.1295 71.7822 75.6057 67.7787 76.0058Z" fill="#35CCAD" stroke="#22093A" stroke-miterlimit="10" stroke-linecap="round" stroke-linejoin="round"/>
<path d="M67.3847 111.076C70.0134 111.076 72.1444 108.945 72.1444 106.316C72.1444 103.687 70.0134 101.556 67.3847 101.556C64.756 101.556 62.625 103.687 62.625 106.316C62.625 108.945 64.756 111.076 67.3847 111.076Z" fill="#35CCAD" stroke="#22093A" stroke-miterlimit="10" stroke-linecap="round" stroke-linejoin="round"/>
<path d="M10.9082 100.341C11.1734 101.15 11.5049 101.899 11.9192 102.508" stroke="white" stroke-miterlimit="10" stroke-linecap="round" stroke-linejoin="round"/>
<path d="M18.3788 79.4058C14.3571 80.1978 8.70357 86.3389 10.0967 96.4978" stroke="white" stroke-miterlimit="10" stroke-linecap="round" stroke-linejoin="round"/>
<path d="M66.5336 104.488C65.2704 104.959 64.9673 107.077 65.969 107.916" stroke="white" stroke-miterlimit="10" stroke-linecap="round" stroke-linejoin="round"/>
<path d="M65.1949 84.1621C64.697 87.2969 64.4256 91.274 65.089 93.9277" stroke="white" stroke-miterlimit="10" stroke-linecap="round" stroke-linejoin="round"/>
<path d="M66.0486 80.2798C65.9242 80.6666 65.7926 81.1564 65.6621 81.7229" stroke="white" stroke-miterlimit="10" stroke-linecap="round" stroke-linejoin="round"/>
<path d="M36.3113 97.2192C36.037 99.3802 37.001 105.392 37.8239 106.677" stroke="white" stroke-miterlimit="10" stroke-linecap="round" stroke-linejoin="round"/>
<path d="M50.2852 87.9517C50.6709 86.8417 52.8839 83.5959 55.4827 81.9604" stroke="white" stroke-miterlimit="10" stroke-linecap="round" stroke-linejoin="round"/>
<path d="M30.0078 61.6518C29.5885 61.6518 29.2405 61.3288 29.2075 60.9119C28.4332 50.9637 28.1236 50.6541 18.1754 49.8798C17.7577 49.8468 17.4355 49.4988 17.4355 49.0795C17.4355 48.6602 17.7577 48.3122 18.1754 48.2793C28.1236 47.505 28.4332 47.1954 29.2075 37.2472C29.2405 36.8294 29.5885 36.5073 30.0078 36.5073C30.4271 36.5073 30.7751 36.8294 30.808 37.2472C31.5823 47.1954 31.8919 47.505 41.8401 48.2793C42.2579 48.3122 42.58 48.6602 42.58 49.0795C42.58 49.4988 42.2579 49.8468 41.8401 49.8798C31.8919 50.6541 31.5823 50.9637 30.808 60.9119C30.7751 61.3288 30.4271 61.6518 30.0078 61.6518ZM24.679 49.0795C27.8861 49.8249 29.2624 51.2012 30.0078 54.4083C30.7531 51.2012 32.1294 49.8249 35.3365 49.0795C32.1294 48.3342 30.7531 46.9579 30.0078 43.7508C29.2624 46.9579 27.8861 48.3342 24.679 49.0795Z" fill="#22093A"/>
<path d="M97.2698 13.1264L91.0137 19.3833L97.2706 25.6394L103.527 19.3825L97.2698 13.1264Z" fill="#FCC707"/>
<path d="M22.0943 23.269L19.7344 25.6093L22.0943 27.9488L24.4134 25.6086L22.0943 23.269Z" fill="#35CCAD"/>
<path d="M97.2702 33.1476C96.8516 33.1476 96.5021 32.8254 96.4707 32.4069C95.6211 21.49 95.1634 21.0331 84.2457 20.1827C83.8288 20.1498 83.5059 19.8018 83.5059 19.3825C83.5059 18.9632 83.8288 18.6152 84.2457 18.5823C95.1634 17.7327 95.6211 17.2757 96.4707 6.35881C96.5021 5.94029 96.8516 5.61816 97.2702 5.61816C97.6887 5.61816 98.0382 5.94029 98.0696 6.35803C98.9207 17.2757 99.3785 17.7327 110.295 18.5823C110.712 18.6152 111.034 18.9632 111.034 19.3825C111.034 19.8018 110.712 20.1498 110.295 20.1827C99.3785 21.0331 98.9207 21.49 98.0696 32.4077C98.0382 32.8254 97.6887 33.1476 97.2702 33.1476ZM91.0142 19.3825C94.8907 20.2062 96.4472 21.7627 97.2702 25.64C98.0947 21.7627 99.6512 20.2062 103.526 19.3825C99.6512 18.5595 98.0947 17.003 97.2702 13.1258C96.4472 17.003 94.8907 18.5595 91.0142 19.3825Z" fill="#22093A"/>
<path d="M22.1051 33.8115C21.6858 33.8115 21.3378 33.4894 21.3049 33.0709C20.8331 27.0062 20.7085 26.8816 14.643 26.4097C14.2245 26.3768 13.9023 26.0288 13.9023 25.6095C13.9023 25.1902 14.2245 24.8422 14.6422 24.8093C20.7085 24.3367 20.8331 24.2121 21.3049 18.1474C21.3378 17.7289 21.6858 17.4067 22.1051 17.4067C22.5244 17.4067 22.8724 17.7289 22.9053 18.1466C23.3779 24.2121 23.5026 24.3367 29.5673 24.8085C29.9858 24.8414 30.3079 25.1894 30.3079 25.6087C30.3079 26.028 29.9858 26.376 29.568 26.409C23.5026 26.8816 23.3779 27.0062 22.9053 33.0717C22.8724 33.4894 22.5244 33.8115 22.1051 33.8115ZM19.7335 25.6095C20.9326 26.0578 21.6404 26.7593 22.0934 27.949C22.5338 26.7522 23.2251 26.0539 24.4125 25.6087C23.2251 25.1643 22.5338 24.466 22.0934 23.2692C21.6404 24.4597 20.9326 25.1604 19.7335 25.6095Z" fill="#22093A"/>
</g>
<defs>
<clipPath id="clip0_4_10983">
<rect width="120" height="120.109" fill="white"/>
</clipPath>
</defs>
</svg>
