<svg width="120" height="69" viewBox="0 0 120 69" fill="none" xmlns="http://www.w3.org/2000/svg">
<g clip-path="url(#clip0_5_11007)">
<path opacity="0.5" d="M117.784 11.7059C117.233 10.9456 116.573 10.2707 115.825 9.70267C113.807 7.18269 110.812 5.64056 107.588 5.46161C103.774 4.91283 99.9301 6.24731 97.2767 9.04166C97.1975 8.96042 97.1156 8.88058 97.0337 8.80072C96.799 8.57368 96.5518 8.35773 96.2977 8.14734C95.9304 7.69187 95.5357 7.25919 95.1159 6.8517C91.4011 3.25498 86.0394 1.5573 79.0876 1.78158C75.3128 1.89983 71.6551 3.12018 68.5655 5.29219C65.0516 2.79226 60.8545 1.43225 56.5423 1.39621C51.5388 1.07754 46.5803 2.51023 42.5179 5.44842C40.0906 4.09075 37.274 3.59838 34.5301 4.05209C31.3125 4.48328 27.6006 6.23997 24.9815 11.3066C24.6066 10.9129 24.2251 10.5491 23.8372 10.2151C22.6799 8.78078 21.2587 7.58134 19.6503 6.68158C17.0453 5.23422 13.9257 5.0418 11.1626 6.15803C6.07586 8.10536 2.55083 12.7903 2.08893 18.2175C1.06962 26.526 5.88421 37.9959 13.3068 45.0018C13.4415 45.1504 13.578 45.2988 13.7164 45.4469C13.6387 49.8949 14.1678 59.1824 19.51 63.4624C20.301 64.5231 21.2876 65.4227 22.4166 66.1127C26.223 68.3943 30.9695 67.7368 35.6397 64.047C37.6626 62.3327 39.3636 60.2713 40.6626 57.9597C41.8022 58.6761 43.0578 59.1888 44.3732 59.4748C50.7527 61.0089 57.4213 60.8601 63.726 59.0429C64.741 59.8963 65.8454 60.6373 67.02 61.253C73.7949 64.8032 81.7357 65.396 88.9627 62.8909C89.1585 63.0708 89.3612 63.2446 89.5709 63.4124C93.7245 68.7113 101.387 69.6397 106.686 65.4861C111.362 61.8209 112.715 55.3188 109.889 50.0928C109.844 50.0108 109.8 49.9296 109.754 49.849C113.163 47.2591 116.434 42.4515 118.207 33.7111C120.358 23.1105 120.978 16.1114 117.784 11.7059Z" fill="#231F20"/>
<path d="M115.83 10.3274C115.28 9.56723 114.62 8.89226 113.872 8.32425C111.854 5.80426 108.858 4.26213 105.635 4.08319C101.82 3.5344 97.977 4.86888 95.3236 7.66324C95.2444 7.582 95.1625 7.50214 95.0805 7.42229C94.8459 7.19524 94.5987 6.97931 94.3445 6.76892C93.9773 6.31344 93.5826 5.88076 93.1627 5.47327C89.4481 1.87656 84.0863 0.178881 77.1346 0.403162C73.3598 0.521407 69.7021 1.74177 66.6125 3.91377C63.0986 1.41382 58.9015 0.0538 54.5892 0.0177944C49.5857 -0.30087 44.6272 1.13182 40.5648 4.07002C38.1375 2.71236 35.3209 2.21998 32.577 2.67367C29.3594 3.10486 25.6475 4.86155 23.0284 9.92819C22.6535 9.53449 22.272 9.17065 21.8841 8.83668C20.7269 7.40236 19.3056 6.20292 17.6972 5.30316C15.0922 3.85578 11.9726 3.66336 9.20951 4.77961C4.12274 6.72693 0.597718 11.4119 0.135803 16.839C-0.883501 25.1476 3.93109 36.6174 11.3536 43.6234C11.4884 43.772 11.6249 43.9203 11.7633 44.0685C11.6855 48.5165 12.2146 57.804 17.5569 62.084C18.3479 63.1446 19.3345 64.0442 20.4635 64.7343C24.2699 67.0159 29.0164 66.3584 33.6866 62.6686C35.7095 60.9543 37.4104 58.8929 38.7095 56.5813C39.8491 57.2977 41.1047 57.8104 42.4201 58.0963C48.7996 59.6305 55.4681 59.4817 61.7729 57.6645C62.7879 58.5178 63.8923 59.2589 65.0668 59.8746C71.8418 63.4248 79.7826 64.0175 87.0096 61.5125C87.2053 61.6923 87.4081 61.8662 87.6178 62.034C91.7714 67.3329 99.4342 68.2613 104.733 64.1077C109.409 60.4424 110.762 53.9403 107.936 48.7143C107.891 48.6324 107.847 48.5512 107.801 48.4706C111.21 45.8807 114.481 41.0731 116.254 32.3326C118.405 21.7321 119.024 14.7331 115.83 10.3274Z" fill="white"/>
<path d="M66.9341 12.6392C64.567 6.64648 47.3435 4.6674 42.6473 14.5056C39.583 20.9253 32.3993 50.069 43.6382 52.5382C54.8771 55.0073 67.1727 52.589 66.5672 44.1604C66.1247 38.002 52.1869 37.7074 52.1869 37.7074C52.1869 37.7074 65.246 38.2785 65.8105 31.8866C66.3751 25.4947 52.706 26.4226 52.706 26.4226C52.706 26.4226 71.2755 23.6296 66.9341 12.6392Z" fill="#22093A" stroke="#22093A" stroke-linecap="round" stroke-linejoin="round"/>
<path d="M35.2445 10.2565C25.6754 11.5378 27.3813 33.9419 27.3813 33.9419C27.3813 33.9419 21.8616 8.60825 13.2068 12.017C1.87053 16.4818 9.60919 36.331 19.5424 43.4125C18.9079 46.9722 19.1634 66.8868 30.1572 58.2026C36.1379 53.4783 41.5326 35.155 42.3582 30.7901C43.982 22.2076 44.8766 8.96692 35.2445 10.2565Z" fill="#22093A" stroke="#22093A" stroke-linecap="round" stroke-linejoin="round"/>
<path d="M94.2154 19.4081C94.2201 14.0019 91.05 7.63172 79.2403 8.03266C67.6129 8.42741 59.8406 23.8377 71.5187 30.5946C82.332 36.8512 78.7689 44.1117 74.0765 39.9502C65.0504 31.9453 55.4327 48.361 67.7167 54.8408C80.0007 61.3205 93.9019 54.1773 95.7468 46.2511C99.2414 31.2369 87.7647 28.3821 82.4894 25.821C82.4894 25.821 94.2082 27.6594 94.2154 19.4081Z" fill="#22093A" stroke="#22093A" stroke-linecap="round" stroke-linejoin="round"/>
<path d="M106.882 11.6771C103.192 11.2469 98.4273 12.7669 94.481 29.3115C90.9575 44.0832 96.3511 45.3531 97.7646 45.5178C99.1781 45.6826 107.383 47.4179 110.675 31.1992C113.966 14.9806 112.349 12.3144 106.882 11.6771Z" fill="#22093A" stroke="#22093A" stroke-linecap="round" stroke-linejoin="round"/>
<path d="M97.1989 61.0213C100.795 61.0213 103.71 58.1061 103.71 54.5099C103.71 50.9138 100.795 47.9985 97.1989 47.9985C93.6027 47.9985 90.6875 50.9138 90.6875 54.5099C90.6875 58.1061 93.6027 61.0213 97.1989 61.0213Z" fill="#22093A" stroke="#22093A" stroke-linecap="round" stroke-linejoin="round"/>
<path d="M65.0162 10.6915C62.6491 4.69875 45.4256 2.71963 40.7294 12.5579C37.665 18.9775 30.4814 48.1213 41.7203 50.5904C52.9591 53.0595 65.2548 50.6413 64.6492 42.2126C64.2067 36.0543 50.2689 35.7597 50.2689 35.7597C50.2689 35.7597 63.328 36.3308 63.8926 29.9388C64.4572 23.5469 50.7881 24.4748 50.7881 24.4748C50.7881 24.4748 69.3575 21.6819 65.0162 10.6915Z" fill="#35CCAD" stroke="#22093A" stroke-linecap="round" stroke-linejoin="round"/>
<path d="M33.3285 8.30928C23.7594 9.59052 25.4653 31.9946 25.4653 31.9946C25.4653 31.9946 19.9455 6.66102 11.2908 10.0697C-0.0454888 14.5346 7.69317 34.3838 17.6264 41.4652C16.9919 45.0249 17.2474 64.9396 28.2412 56.2553C34.2218 51.5311 39.6166 33.2077 40.4422 28.8428C42.066 20.2603 42.9606 7.01966 33.3285 8.30928Z" fill="#35CCAD" stroke="#22093A" stroke-linecap="round" stroke-linejoin="round"/>
<path d="M92.2994 17.4603C92.3041 12.0541 89.134 5.68397 77.3243 6.08491C65.6969 6.47966 57.9246 21.8899 69.6026 28.6468C80.416 34.9034 76.8529 42.164 72.1605 38.0025C63.1344 29.9976 53.5167 46.4133 65.8007 52.893C78.0846 59.3728 91.9859 52.2296 93.8307 44.3033C97.3254 29.2891 85.8487 26.4344 80.5734 23.8732C80.5734 23.8732 92.2922 25.7116 92.2994 17.4603Z" fill="#35CCAD" stroke="#22093A" stroke-linecap="round" stroke-linejoin="round"/>
<path d="M104.966 9.7298C101.276 9.29968 96.5112 10.8197 92.5649 27.3643C89.0415 42.1359 94.435 43.4057 95.8486 43.5705C97.2622 43.7353 105.467 45.4706 108.759 29.2519C112.05 13.0332 110.433 10.3671 104.966 9.7298Z" fill="#35CCAD" stroke="#22093A" stroke-linecap="round" stroke-linejoin="round"/>
<path d="M95.2829 59.0736C98.879 59.0736 101.794 56.1583 101.794 52.5622C101.794 48.966 98.879 46.0508 95.2829 46.0508C91.6867 46.0508 88.7715 48.966 88.7715 52.5622C88.7715 56.1583 91.6867 59.0736 95.2829 59.0736Z" fill="#35CCAD" stroke="#22093A" stroke-linecap="round" stroke-linejoin="round"/>
<path d="M12.5119 14.3945C10.4059 14.3405 6.27485 18.9576 13.1599 31.3507" stroke="white" stroke-linecap="round" stroke-linejoin="round"/>
<path d="M23.5684 54.086C25.4314 55.5578 29.0368 50.3708 29.8468 48.3613" stroke="white" stroke-linecap="round" stroke-linejoin="round"/>
<path d="M50.1349 9.44385C47.8838 9.79408 45.8159 10.8911 44.2637 12.5586" stroke="white" stroke-linecap="round" stroke-linejoin="round"/>
<path d="M54.6324 8.91357C53.9484 8.94149 53.2571 8.98866 52.5703 9.06128" stroke="white" stroke-linecap="round" stroke-linejoin="round"/>
<path d="M39.2422 42.6099C39.2422 44.5574 43.0492 47.4722 48.3953 47.7153" stroke="white" stroke-linecap="round" stroke-linejoin="round"/>
<path d="M74.2339 10.1689C69.3738 11.0011 64.5138 19.4436 69.2118 24.1417" stroke="white" stroke-linecap="round" stroke-linejoin="round"/>
<path d="M95.2821 48.6853C92.945 48.3613 90.434 52.0772 91.973 54.9224" stroke="white" stroke-linecap="round" stroke-linejoin="round"/>
<path d="M103.557 12.5586C100.924 12.5586 94.8975 23.6015 94.4805 34.5099" stroke="white" stroke-linecap="round" stroke-linejoin="round"/>
<path d="M85.4941 49.3179C83.2964 50.7288 80.7346 51.4676 78.123 51.4435" stroke="white" stroke-linecap="round" stroke-linejoin="round"/>
</g>
<defs>
<clipPath id="clip0_5_11007">
<rect width="120" height="68.0888" fill="white"/>
</clipPath>
</defs>
</svg>
