<svg width="120" height="154" viewBox="0 0 120 154" fill="none" xmlns="http://www.w3.org/2000/svg">
<g clip-path="url(#clip0_5_11015)">
<path opacity="0.5" d="M119.924 119.897C119.724 118.214 119.167 116.594 118.291 115.143C116.954 111.35 114.012 108.339 110.25 106.914C111.68 100.195 109.971 90.9556 105.121 79.0077C101.972 71.4032 98.2862 64.0323 94.0918 56.9506C102.398 55.7071 103.678 44.9688 104.817 35.4293C105.818 27.0447 105.733 20.9925 102.23 16.7362C101.077 15.3282 99.582 14.2395 97.8882 13.5743C94.0699 10.7393 88.8743 10.6362 84.9464 13.3174C83.298 12.1684 81.3666 11.4924 79.3615 11.3625C76.8726 11.1667 74.3923 11.8338 72.3373 13.2515C71.1396 12.9349 69.9193 12.7109 68.6872 12.5813C66.8536 12.3783 65.0029 12.3817 63.17 12.5914C62.7525 11.0013 62.0316 9.50699 61.0469 8.19056C59.7026 6.38555 57.8983 4.97464 55.8224 4.10521C50.12 -0.0183901 42.1545 1.26146 38.0309 6.96384C36.826 8.63 36.0423 10.563 35.7465 12.5978C35.688 13.0083 35.6484 13.4186 35.6277 13.8285C33.2517 13.8871 30.9599 14.7203 29.101 16.2013C27.3942 15.1732 25.4391 14.631 23.4466 14.6331C23.3789 14.6322 23.3131 14.6313 23.2491 14.6313C20.3602 14.6024 17.5854 15.7575 15.5703 17.8278C12.114 21.2539 10.5669 26.922 10.5578 36.2037C10.5486 45.1142 11.4319 51.8832 15.7861 55.9658C16.7948 56.9129 17.9713 57.6636 19.2552 58.1794C20.3854 59.0237 21.6684 59.6412 23.0333 59.9981C19.3858 66.8707 16.088 73.9234 13.1527 81.129C6.57666 97.4861 4.75342 108.684 7.60622 115.742C6.14887 118.3 5.02833 121.035 4.27248 123.88C3.27947 127.476 0.448611 139.419 4.39682 146.131C4.75442 147.277 5.28277 148.362 5.96404 149.35C7.60013 151.767 10.2456 153.309 13.1546 153.542C13.4417 153.565 13.7306 153.576 14.016 153.576C16.6054 153.582 19.1084 152.644 21.0565 150.939C23.426 152.84 26.5246 153.576 29.4961 152.943C30.2286 152.787 30.9468 152.57 31.643 152.295C32.4283 152.554 33.2395 152.728 34.0624 152.813C35.3705 152.937 36.6839 152.995 37.9978 152.987C41.7255 153.03 45.4435 152.596 49.0616 151.697C49.3797 151.816 49.6998 151.922 50.0253 152.014C56.6543 153.887 63.097 153.814 67.6816 151.78C69.0787 152.433 70.603 152.77 72.1455 152.765C72.2095 152.765 72.4124 152.763 72.4765 152.761C75.2948 152.673 77.9456 151.402 79.7785 149.259C82.8079 151.704 86.9027 152.368 90.5498 151.007C91.026 150.827 91.4908 150.618 91.9414 150.382C93.8087 151.678 96.0304 152.367 98.3036 152.355C102.1 152.421 105.702 150.677 108.005 147.659C111.201 143.491 111.611 137.352 110.98 131.547C113.434 130.916 115.664 129.613 117.417 127.783C119.372 125.651 120.289 122.766 119.924 119.897Z" fill="#231F20"/>
<path d="M117.565 118.211C117.364 116.529 116.808 114.908 115.932 113.458C114.595 109.664 111.653 106.653 107.891 105.228C109.321 98.5097 107.611 89.27 102.761 77.3222C99.6125 69.7177 95.9269 62.3468 91.7324 55.2651C100.038 54.0215 101.319 43.2833 102.458 33.7438C103.458 25.3591 103.374 19.307 99.8702 15.0506C98.7174 13.6426 97.2227 12.5539 95.5289 11.8888C91.7105 9.05375 86.5149 8.95061 82.587 11.6318C80.9386 10.4829 79.0072 9.80683 77.0021 9.67692C74.5133 9.48114 72.0329 10.1482 69.978 11.566C68.7802 11.2494 67.5599 11.0253 66.3279 10.8958C64.4942 10.6928 62.6435 10.6961 60.8106 10.9058C60.3931 9.31579 59.6722 7.82144 58.6875 6.50501C57.3432 4.70001 55.5389 3.28909 53.463 2.41965C47.7606 -1.70394 39.7951 -0.424076 35.6715 5.27831C34.4666 6.94446 33.6829 8.87745 33.3872 10.9122C33.3287 11.3228 33.289 11.733 33.2683 12.143C30.8923 12.2015 28.6005 13.0347 26.7416 14.5157C25.0349 13.4877 23.0797 12.9454 21.0872 12.9476C21.0195 12.9467 20.9537 12.9457 20.8897 12.9457C18.0008 12.9168 15.226 14.0719 13.2109 16.1423C9.75464 19.5684 8.20755 25.2365 8.19839 34.5182C8.18926 43.4286 9.07253 50.1975 13.4267 54.2802C14.4354 55.2273 15.6119 55.978 16.8958 56.4939C18.0261 57.3381 19.309 57.9557 20.6739 58.3125C17.0264 65.1852 13.7287 72.2378 10.7934 79.4435C4.21729 95.8004 2.39404 106.999 5.24685 114.057C3.7895 116.614 2.66896 119.349 1.9131 122.194C0.920095 125.791 -1.91076 137.733 2.03744 144.445C2.39505 145.591 2.9234 146.676 3.60467 147.665C5.24075 150.081 7.88626 151.623 10.7952 151.856C11.0823 151.879 11.3712 151.89 11.6566 151.89C14.246 151.896 16.749 150.959 18.6972 149.253C21.0666 151.155 24.1653 151.89 27.1367 151.257C27.8692 151.102 28.5874 150.885 29.2836 150.609C30.0689 150.869 30.8802 151.043 31.703 151.127C33.0111 151.251 34.3245 151.309 35.6384 151.301C39.3662 151.344 43.0842 150.911 46.7022 150.012C47.0204 150.131 47.3404 150.237 47.6659 150.328C54.2949 152.202 60.7376 152.129 65.3222 150.094C66.7193 150.748 68.2437 151.084 69.7861 151.08C69.8501 151.08 70.0531 151.077 70.1171 151.075C72.9354 150.987 75.5862 149.716 77.4192 147.573C80.4485 150.018 84.5432 150.683 88.1903 149.322C88.6665 149.142 89.1313 148.933 89.582 148.696C91.4493 149.993 93.6709 150.682 95.9441 150.669C99.7406 150.735 103.342 148.992 105.645 145.973C108.842 141.805 109.252 135.666 108.621 129.861C111.075 129.23 113.304 127.927 115.058 126.098C117.012 123.965 117.929 121.081 117.565 118.211Z" fill="white"/>
<path d="M98.0034 108.202C85.6903 118.545 17.4097 117.597 13.2336 112.965C2.39067 100.936 42.9549 26.8969 54.6338 26.0485C69.0273 25.0029 112.267 96.2206 98.0034 108.202Z" fill="#E9022C" stroke="#22093A" stroke-linecap="round" stroke-linejoin="round"/>
<path d="M87.8658 100.943C78.7598 108.592 28.2631 107.891 25.1747 104.465C17.156 95.5689 47.155 40.8136 55.7921 40.1862C66.4368 39.4129 98.4142 92.0817 87.8658 100.943Z" fill="white" stroke="#22093A" stroke-linecap="round" stroke-linejoin="round"/>
<path d="M57.526 57.4836C54.6917 57.8281 51.3927 59.712 51.3191 71.87C51.2534 82.7249 55.5077 82.6658 56.5935 82.5338C57.6792 82.4018 64.1169 82.1757 63.7576 70.3577C63.3984 58.5398 61.7254 56.9731 57.526 57.4836Z" fill="#E9022C" stroke="#22093A" stroke-linecap="round" stroke-linejoin="round"/>
<path d="M56.1489 97.8789C58.9128 97.8789 61.1533 95.6384 61.1533 92.8745C61.1533 90.1107 58.9128 87.8701 56.1489 87.8701C53.3851 87.8701 51.1445 90.1107 51.1445 92.8745C51.1445 95.6384 53.3851 97.8789 56.1489 97.8789Z" fill="#E9022C" stroke="#22093A" stroke-linecap="round" stroke-linejoin="round"/>
<path d="M25.575 143.93C28.7152 143.137 30.8251 140.194 30.5682 136.965C30.6094 133.127 30.1556 114.739 20.549 114.739C15.5487 114.738 12.014 120.305 10.2448 126.706C8.32541 133.651 7.43335 144.061 11.3769 144.388C17.7118 144.912 19.6363 126.747 19.6363 126.747C19.6363 126.747 19.5382 145.212 25.575 143.93Z" fill="#22093A" stroke="#22093A" stroke-linecap="round" stroke-linejoin="round"/>
<path d="M38.0088 114.273C33.9488 112.631 29.6032 118.995 28.7148 127.025C27.8264 135.056 27.674 143.171 32.4874 143.678C37.3007 144.185 49.3711 143.593 50.5223 138.578C52.2709 130.962 37.7383 135.141 37.7383 135.141C37.7383 135.141 44.0489 116.716 38.0088 114.273Z" fill="#22093A" stroke="#22093A" stroke-linecap="round" stroke-linejoin="round"/>
<path d="M66.8331 116.769C65.454 113.889 52.7229 112.546 48.9029 119.468C46.4104 123.984 41.6685 140.853 49.6993 143.12C57.7301 145.387 64.8669 144.037 65.2212 139.573C65.5755 135.11 55.0864 134.288 55.0864 134.288C55.0864 134.288 64.1358 134.344 64.8175 129.741C65.4992 125.137 55.9441 126.14 55.9441 126.14C55.9441 126.14 70.5333 124.499 66.8331 116.769Z" fill="#22093A" stroke="#22093A" stroke-linecap="round" stroke-linejoin="round"/>
<path d="M97.2358 113.289C86.0832 113.48 82.733 116.425 83.7315 119.997C85.2321 125.365 92.2677 124.257 92.2677 124.257C92.2677 124.257 88.4433 143.145 95.9109 143.178C105.221 143.218 99.8163 123.455 99.8163 123.455C99.8163 123.455 110.674 123.648 110.124 119.116C109.662 115.309 104.71 113.161 97.2358 113.289Z" fill="#22093A" stroke="#22093A" stroke-linecap="round" stroke-linejoin="round"/>
<path d="M73.5096 115.136C66.8169 116.291 66.3514 120.404 65.9288 128.834C65.5085 137.22 65.8043 143.707 69.893 143.587C73.9817 143.468 75.7043 131.989 75.7043 131.989C75.7043 131.989 80.3707 144.27 85.5311 142.316C92.378 139.723 82.3133 129.314 82.3133 129.314C87.8335 129.338 96.1077 111.235 73.5096 115.136Z" fill="#22093A" stroke="#22093A" stroke-linecap="round" stroke-linejoin="round"/>
<path d="M75.1461 120.352C75.1461 120.352 79.0109 119.542 78.6472 121.628C78.2835 123.715 75.1309 123.859 75.1309 123.859L75.1461 120.352Z" fill="#22093A" stroke="#22093A" stroke-linecap="round" stroke-linejoin="round"/>
<path d="M19.4337 112.221C14.4335 112.22 10.8989 117.787 9.12958 124.188C7.21016 131.133 6.31814 141.543 10.2617 141.869C13.1455 142.108 15.113 138.472 16.4034 134.441L19.4183 134.362C20.2056 138.411 21.6823 142.002 24.4598 141.412C27.6 140.619 29.7099 137.676 29.453 134.447C29.4941 130.609 29.0403 112.221 19.4337 112.221ZM17.3658 129.598C18.193 126.008 18.5211 124.229 18.5211 124.229C18.5523 126.005 18.677 127.777 18.8946 129.54L17.3658 129.598Z" fill="#71C1F2" stroke="#22093A" stroke-linecap="round" stroke-linejoin="round"/>
<path d="M36.8936 111.755C32.8335 110.113 28.4879 116.477 27.5996 124.507C26.7112 132.538 26.5588 140.653 31.3721 141.16C36.1855 141.667 48.2558 141.075 49.4071 136.06C51.1556 128.444 36.6231 132.623 36.6231 132.623C36.6231 132.623 42.9336 114.198 36.8936 111.755Z" fill="#71C1F2" stroke="#22093A" stroke-linecap="round" stroke-linejoin="round"/>
<path d="M65.7179 114.251C64.3388 111.37 51.6076 110.028 47.7877 116.949C45.2951 121.466 40.5533 138.334 48.5841 140.601C56.6148 142.869 63.7517 141.518 64.106 137.055C64.4603 132.591 53.9711 131.769 53.9711 131.769C53.9711 131.769 63.0206 131.825 63.7023 127.222C64.384 122.619 54.8289 123.622 54.8289 123.622C54.8289 123.622 69.4181 121.98 65.7179 114.251Z" fill="#71C1F2" stroke="#22093A" stroke-linecap="round" stroke-linejoin="round"/>
<path d="M96.1206 110.771C84.968 110.962 81.6177 113.907 82.6163 117.479C84.1168 122.847 91.1524 121.738 91.1524 121.738C91.1524 121.738 87.328 140.627 94.7956 140.66C104.106 140.7 98.701 120.937 98.701 120.937C98.701 120.937 109.559 121.13 109.009 116.598C108.546 112.791 103.595 110.643 96.1206 110.771Z" fill="#71C1F2" stroke="#22093A" stroke-linecap="round" stroke-linejoin="round"/>
<path d="M72.3944 112.617C65.7017 113.773 65.2362 117.886 64.8136 126.316C64.3933 134.702 64.689 141.188 68.7777 141.069C72.8664 140.95 74.5891 129.471 74.5891 129.471C74.5891 129.471 79.2555 141.752 84.4159 139.798C91.2628 137.205 81.1981 126.796 81.1981 126.796C86.7183 126.82 94.9925 108.717 72.3944 112.617Z" fill="#71C1F2" stroke="#22093A" stroke-linecap="round" stroke-linejoin="round"/>
<path d="M74.0309 117.834C74.0309 117.834 77.8957 117.024 77.532 119.11C77.1683 121.197 74.0156 121.341 74.0156 121.341L74.0309 117.834Z" fill="#22093A" stroke="#22093A" stroke-linecap="round" stroke-linejoin="round"/>
<path d="M18.1311 116.292C15.7002 117.689 12.3934 122.972 11.9668 127.05" stroke="white" stroke-linecap="round" stroke-linejoin="round"/>
<path d="M30.5717 128.92C30.314 131.023 29.8874 135.985 31.594 136.965" stroke="white" stroke-linecap="round" stroke-linejoin="round"/>
<path d="M56.3305 115.943C52.9416 115.943 50.6079 116.943 49.5527 122.028" stroke="white" stroke-linecap="round" stroke-linejoin="round"/>
<path d="M67.8066 129.569C67.8066 132.409 67.8066 135.984 68.7132 136.965" stroke="white" stroke-linecap="round" stroke-linejoin="round"/>
<path d="M96.2348 125.104C97.0478 128.92 97.2125 135.334 95.5059 136.965" stroke="white" stroke-linecap="round" stroke-linejoin="round"/>
<path d="M36.0705 21.0074C32.947 20.9837 31.1194 24.6386 30.8313 32.809C29.9343 32.7452 28.968 32.7309 27.9569 32.744C28.0678 25.6321 26.9838 21.8422 23.4403 21.8154C20.0373 21.7895 18.167 26.1138 18.1563 35.9051C18.1456 45.6964 19.438 51.4698 23.914 51.1787C26.1049 51.0362 26.983 47.0714 27.461 41.7293C27.9613 41.7176 28.4825 41.6885 29.0444 41.6256C29.7577 41.5458 30.409 41.4385 31.0242 41.3141C31.5654 47.2635 33.1231 50.5932 36.5442 50.3708C39.4872 50.1794 40.0626 43.0964 40.4792 35.0349C40.9501 25.9263 40.0985 21.038 36.0705 21.0074Z" fill="#22093A" stroke="#22093A" stroke-linecap="round" stroke-linejoin="round"/>
<path d="M45.6872 47.4707C48.6835 47.3825 52.3135 45.7296 53.5575 33.0254C54.6682 21.6827 50.2146 21.3361 49.0667 21.3699C47.9189 21.4037 41.1666 21.0222 40.4078 33.4124C39.649 45.8026 41.2476 47.6013 45.6872 47.4707Z" fill="#22093A" stroke="#22093A" stroke-linecap="round" stroke-linejoin="round"/>
<path d="M48.4671 19.3794C51.3688 19.3794 53.7212 17.0271 53.7212 14.1253C53.7212 11.2235 51.3688 8.87109 48.4671 8.87109C45.5653 8.87109 43.2129 11.2235 43.2129 14.1253C43.2129 17.0271 45.5653 19.3794 48.4671 19.3794Z" fill="#22093A" stroke="#22093A" stroke-linecap="round" stroke-linejoin="round"/>
<path d="M91.5567 18.5642C88.4418 18.3312 86.3734 21.8554 85.5385 29.9882C84.6477 29.8645 83.6846 29.7854 82.675 29.7307C83.2621 22.6423 82.4344 18.7882 78.9007 18.524C75.5071 18.2702 73.3514 22.4595 72.6846 32.228C72.0178 41.9966 72.9205 47.8437 77.4059 47.8531C79.6015 47.8577 80.7433 43.9606 81.5781 38.6626C82.078 38.6844 82.6 38.6904 83.1648 38.6652C83.8819 38.6334 84.5389 38.57 85.1611 38.4871C85.3025 44.4594 86.6336 47.886 90.0619 47.8932C93.0111 47.8994 94.0597 40.8709 95.0156 32.8554C96.0957 23.799 95.5736 18.8645 91.5567 18.5642Z" fill="#22093A" stroke="#22093A" stroke-linecap="round" stroke-linejoin="round"/>
<path d="M72.8683 30.7455C75.327 32.1083 80.5902 21.0834 67.9913 19.722C51.2353 17.9114 46.6342 39.1141 56.0334 46.288C62.3626 51.1188 75.0795 51.5456 73.994 38.8863C73.4616 32.6777 66.9984 31.5491 64.4821 34.5821C61.9658 37.6151 65.495 42.0851 65.495 42.0851C59.9778 40.6925 58.1314 33.0754 62.6936 29.9107C65.9319 27.6644 68.3236 28.2263 72.8683 30.7455Z" fill="#22093A" stroke="#22093A" stroke-linecap="round" stroke-linejoin="round"/>
<path d="M33.5979 19.6285C30.4744 19.6047 28.6467 23.2597 28.3586 31.4301C27.4617 31.3663 26.4954 31.352 25.4842 31.365C25.5951 24.2532 24.511 20.4632 20.9676 20.4365C17.5646 20.4105 15.6945 24.7348 15.6837 34.5261C15.6728 44.3174 16.9654 50.0908 21.4413 49.7997C23.6323 49.6572 24.5104 45.6924 24.9884 40.3503C25.4886 40.3386 26.0098 40.3096 26.5717 40.2467C27.285 40.1668 27.9363 40.0595 28.5516 39.9351C29.0928 45.8845 30.6504 49.2143 34.0715 48.9918C37.0145 48.8004 37.5899 41.7174 38.0066 33.6559C38.4774 24.5474 37.6259 19.6591 33.5979 19.6285Z" fill="#71C1F2" stroke="#22093A" stroke-linecap="round" stroke-linejoin="round"/>
<path d="M43.2145 46.0918C46.2108 46.0036 49.8408 44.3507 51.0848 31.6465C52.1955 20.3038 47.7419 19.9572 46.5941 19.991C45.4462 20.0248 38.6939 19.6433 37.9351 32.0335C37.1763 44.4237 38.775 46.2224 43.2145 46.0918Z" fill="#71C1F2" stroke="#22093A" stroke-linecap="round" stroke-linejoin="round"/>
<path d="M45.9944 18C48.8962 18 51.2486 15.6477 51.2486 12.7459C51.2486 9.84407 48.8962 7.4917 45.9944 7.4917C43.0926 7.4917 40.7402 9.84407 40.7402 12.7459C40.7402 15.6477 43.0926 18 45.9944 18Z" fill="#71C1F2" stroke="#22093A" stroke-linecap="round" stroke-linejoin="round"/>
<path d="M89.084 17.1848C85.9691 16.9518 83.9008 20.476 83.0658 28.6088C82.175 28.4851 81.212 28.406 80.2023 28.3513C80.7894 21.2629 79.9617 17.4088 76.428 17.1446C73.0344 16.8908 70.8787 21.08 70.2119 30.8486C69.5451 40.6171 70.4479 46.4643 74.9333 46.4737C77.1289 46.4783 78.2706 42.5812 79.1055 37.2832C79.6054 37.305 80.1273 37.311 80.6922 37.2859C81.4093 37.254 82.0663 37.1906 82.6884 37.1077C82.8297 43.0799 84.1608 46.5066 87.5892 46.5138C90.5384 46.52 91.587 39.4915 92.5429 31.476C93.6231 22.4197 93.101 17.4852 89.084 17.1848Z" fill="#71C1F2" stroke="#22093A" stroke-linecap="round" stroke-linejoin="round"/>
<path d="M70.3956 29.3665C72.8544 30.7294 78.1176 19.7045 65.5186 18.3431C48.7627 16.5325 44.1615 37.7351 53.5608 44.9091C59.89 49.7399 72.6069 50.1666 71.5214 37.5073C70.989 31.2987 64.5258 30.1701 62.0095 33.2031C59.4932 36.2361 63.0224 40.7062 63.0224 40.7062C57.5052 39.3135 55.6588 31.6965 60.221 28.5317C63.4592 26.2855 65.851 26.8474 70.3956 29.3665Z" fill="#71C1F2" stroke="#22093A" stroke-linecap="round" stroke-linejoin="round"/>
<path d="M20.6075 23.9878C19.5409 24.1421 18.7146 27.743 18.7408 31.8242" stroke="white" stroke-linecap="round" stroke-linejoin="round"/>
<path d="M33.6215 23.5879C32.5548 23.7422 31.7731 25.5478 31.7995 29.629" stroke="white" stroke-linecap="round" stroke-linejoin="round"/>
<path d="M41.2946 33.7397C41.0789 37.0389 41.1626 40.6123 41.994 42.1153" stroke="white" stroke-linecap="round" stroke-linejoin="round"/>
<path d="M41.9942 28.1953C41.8551 28.8265 41.7161 29.6637 41.5938 30.6191" stroke="white" stroke-linecap="round" stroke-linejoin="round"/>
<path d="M45.5138 10.3818C44.1356 10.7624 43.3268 12.1881 43.7073 13.5663C43.8397 14.0459 44.1075 14.4772 44.4787 14.8085" stroke="white" stroke-linecap="round" stroke-linejoin="round"/>
<path d="M65.2401 21.4312C60.8954 20.8367 56.6089 22.8601 54.3066 26.5923" stroke="white" stroke-linecap="round" stroke-linejoin="round"/>
<path d="M64.9205 37.405C64.349 36.7349 64.4288 35.7284 65.0989 35.1568C65.4474 34.8595 65.9071 34.7265 66.3605 34.7916" stroke="white" stroke-linecap="round" stroke-linejoin="round"/>
<path d="M86.7441 42.3165C87.8108 42.1622 88.5925 40.3566 88.5663 36.2754" stroke="white" stroke-linecap="round" stroke-linejoin="round"/>
</g>
<defs>
<clipPath id="clip0_5_11015">
<rect width="120" height="153.576" fill="white"/>
</clipPath>
</defs>
</svg>
