<svg width="120" height="120" viewBox="0 0 120 120" fill="none" xmlns="http://www.w3.org/2000/svg">
<path d="M27.7505 43.521L20.3705 27.456L41.027 28.7505L50.4635 7.79248L69.8015 24.0975L93.4745 15.684L93.635 38.7075L114.724 47.6115L98.984 67.7505L111.227 89.988H88.9415V105.855L72.6095 100.051L65.588 115.711L47.36 103.338L24.323 111.18L24.9305 90.4695L9.2645 84.7485L19.508 68.598L5.9375 52.221L27.7505 43.521Z" fill="#22093A" stroke="#22093A" stroke-linecap="round" stroke-linejoin="round"/>
<path d="M27.2435 42.4111L19.8635 26.3476L40.52 27.6421L49.9565 6.68408L69.2945 22.9891L93.4745 15.6841L93.128 37.5991L113.639 47.2411L98.4755 66.6406L110.718 88.8796H88.4345V104.747L72.1025 98.9431L65.081 114.602L46.853 102.23L24.4235 110.417V89.3611L9.2645 84.7486L19.001 67.4896L5.9375 52.2211L27.2435 42.4111Z" fill="#9736FF" stroke="#22093A" stroke-linecap="round" stroke-linejoin="round"/>
<path d="M86.253 70.5801C87.4359 71.1933 88.3973 75.6775 87.6253 78.4503C84.3528 90.2045 71.6805 89.2846 71.6805 89.2846C71.6805 89.2846 65.2988 95.7978 52.9759 94.3951C40.404 92.9641 31.9206 87.547 29.7387 72.8287C27.2527 56.0596 41.9372 46.1517 45.8212 42.37C49.7052 38.5882 50.7273 35.6241 51.1361 28.2649C51.545 20.9058 55.1223 14.3643 61.5616 14.3643C65.8545 14.3643 70.5878 19.4748 69.4318 29.6958C69.0287 34.7079 67.3388 39.531 64.5257 43.6987C64.5257 43.6987 77.7564 39.8563 83.32 44.9252C85.487 47.1071 86.5632 50.1448 86.253 53.2043C89.1121 55.511 90.7039 59.0399 90.5408 62.7099C90.6137 65.9093 88.9808 68.9065 86.253 70.5801Z" fill="#22093A" stroke="#22093A" stroke-linecap="round" stroke-linejoin="round"/>
<path d="M86.2541 53.2045C86.2541 57.7933 81.8618 62.9591 71.9882 64.7543C62.9937 66.3897 56.834 64.2656 56.834 58.4172C56.834 49.8315 69.7396 49.8315 69.7396 49.8315" fill="#22093A"/>
<path d="M86.2541 53.2045C86.2541 57.7933 81.8618 62.9591 71.9882 64.7543C62.9937 66.3897 56.834 64.2656 56.834 58.4172C56.834 49.8315 69.7396 49.8315 69.7396 49.8315" stroke="#22093A" stroke-linecap="round" stroke-linejoin="round"/>
<path d="M86.2534 70.5802C86.2534 70.5802 78.1324 73.6808 73.2828 75.6884C62.1668 80.2902 55.5316 70.7846 64.4239 65.2881" fill="#22093A"/>
<path d="M86.2534 70.5802C86.2534 70.5802 78.1324 73.6808 73.2828 75.6884C62.1668 80.2902 55.5316 70.7846 64.4239 65.2881" stroke="#22093A" stroke-linecap="round" stroke-linejoin="round"/>
<path d="M77.5402 74.3154C75.0436 75.4527 67.7724 76.2966 66.464 80.9019C65.6274 84.5918 67.9405 88.2612 71.6303 89.0977C72.285 89.2462 72.9579 89.2976 73.6276 89.2503" fill="#22093A"/>
<path d="M77.5402 74.3154C75.0436 75.4527 67.7724 76.2966 66.464 80.9019C65.6274 84.5918 67.9405 88.2612 71.6303 89.0977C72.285 89.2462 72.9579 89.2976 73.6276 89.2503" stroke="#22093A" stroke-linecap="round" stroke-linejoin="round"/>
<path d="M85.3233 69.9053C86.5062 70.5186 87.4676 75.0027 86.6956 77.7755C83.4231 89.5297 70.7508 88.6098 70.7508 88.6098C70.7508 88.6098 64.3692 95.123 52.0462 93.7203C39.4743 92.2893 30.9909 86.8722 28.809 72.1539C26.323 55.3848 41.0075 45.4769 44.8915 41.6952C48.7755 37.9134 49.7976 34.9492 50.2064 27.5901C50.6153 20.2309 54.1927 13.6895 60.6319 13.6895C64.9248 13.6895 69.6581 18.8 68.5021 29.021C68.099 34.0331 66.4092 38.8562 63.596 43.0239C63.596 43.0239 76.8267 39.1815 82.3903 44.2504C84.5574 46.4323 85.6335 49.47 85.3233 52.5295C88.1824 54.8362 89.7742 58.3651 89.6112 62.0351C89.684 65.2346 88.0511 68.2317 85.3233 69.9053Z" fill="#FCC707" stroke="#22093A" stroke-linecap="round" stroke-linejoin="round"/>
<path d="M85.3225 52.5292C85.3225 57.118 80.9301 62.2838 71.0566 64.079C62.0621 65.7144 55.9023 63.5903 55.9023 57.7419C55.9023 49.1562 68.808 49.1562 68.808 49.1562" fill="#FCC707"/>
<path d="M85.3225 52.5292C85.3225 57.118 80.9301 62.2838 71.0566 64.079C62.0621 65.7144 55.9023 63.5903 55.9023 57.7419C55.9023 49.1562 68.808 49.1562 68.808 49.1562" stroke="#22093A" stroke-linecap="round" stroke-linejoin="round"/>
<path d="M85.3237 69.9054C85.3237 69.9054 77.2027 73.006 72.3531 75.0136C61.2371 79.6154 54.6019 70.1098 63.4942 64.6133" stroke="#22093A" stroke-linecap="round" stroke-linejoin="round"/>
<path d="M78.8079 72.4292C76.3113 73.5665 66.8427 75.622 65.5343 80.2274C64.6978 83.9172 67.0108 87.5866 70.7006 88.4231C71.3553 88.5716 72.0283 88.623 72.6979 88.5757" stroke="#22093A" stroke-linecap="round" stroke-linejoin="round"/>
<path d="M51.1206 39.5269C50.516 40.539 49.7517 41.4467 48.8574 42.2149" stroke="white" stroke-linecap="round" stroke-linejoin="round"/>
<path d="M56.8329 18.3892C53.7999 21.9717 53.0439 28.9711 52.873 33.7559" stroke="white" stroke-linecap="round" stroke-linejoin="round"/>
<path d="M75.1641 59.1508C75.9151 58.7195 76.4318 58.318 76.9553 58.0039" stroke="white" stroke-linecap="round" stroke-linejoin="round"/>
<path d="M59.0703 58.6084C59.3656 59.9692 64.4817 62.1057 69.6937 61.0376C70.7927 60.8216 71.8754 60.5294 72.9339 60.1633" stroke="white" stroke-linecap="round" stroke-linejoin="round"/>
<path d="M64.6406 72.0785C67.2782 72.8475 72.9236 71.0345 74.4585 69.9331" stroke="white" stroke-linecap="round" stroke-linejoin="round"/>
<path d="M69.0117 82.3862C69.0117 83.8748 70.1057 85.0937 72.9337 85.3634" stroke="white" stroke-linecap="round" stroke-linejoin="round"/>
<path d="M34.6738 77.4844C35.7348 81.6689 38.4924 85.2216 42.283 87.2875" stroke="#22093A" stroke-linecap="round" stroke-linejoin="round"/>
<path d="M28.5273 105.221L37.0537 102.294" stroke="#22093A" stroke-linecap="round" stroke-linejoin="round"/>
<path d="M39.9473 101.194L41.2075 100.789" stroke="#22093A" stroke-linecap="round" stroke-linejoin="round"/>
<path d="M104.006 83.9528L100.555 78.1401" stroke="#22093A" stroke-linecap="round" stroke-linejoin="round"/>
<path d="M99.191 75.7387L98.7285 74.9824" stroke="#22093A" stroke-linecap="round" stroke-linejoin="round"/>
<path d="M28.1035 34.3779L31.1541 39.5993" stroke="#D9BBFF" stroke-linecap="round" stroke-linejoin="round"/>
<path d="M25.9023 30.6099L26.8249 32.1888" stroke="#D9BBFF" stroke-linecap="round" stroke-linejoin="round"/>
<path d="M75.8574 24.5413L87.8171 21.1235" stroke="#D9BBFF" stroke-linecap="round" stroke-linejoin="round"/>
<path d="M11.4746 53.0447L13.1006 52.3672" stroke="#D9BBFF" stroke-linecap="round" stroke-linejoin="round"/>
<path d="M103.581 47.0742L94.8047 42.8975" stroke="#D9BBFF" stroke-linecap="round" stroke-linejoin="round"/>
</svg>
