<svg width="120" height="133" viewBox="0 0 120 133" fill="none" xmlns="http://www.w3.org/2000/svg">
<g clip-path="url(#clip0_5_11009)">
<path opacity="0.5" d="M115.917 31.3046C120.052 24.1037 121.05 18.3807 118.892 14.2691C116.967 9.20963 111.305 6.66861 106.245 8.59353C105.754 8.78034 105.279 9.00632 104.824 9.26928C103.323 6.28366 100.224 4.44129 96.8838 4.54754C95.7458 4.59065 94.6211 4.80645 93.548 5.18753C90.9038 4.08256 88.1187 3.35078 85.2728 3.01321C80.8468 2.19527 76.2969 2.33531 71.9296 3.4239C68.1855 1.22501 62.7781 0.692605 55.7704 1.84615C52.5407 2.20878 49.5414 3.69565 47.2974 6.04655C44.5928 3.0439 40.5919 1.55185 36.5816 2.05033C33.7754 2.42152 31.1752 3.7249 29.1986 5.75123C28.8374 5.59577 28.4651 5.45651 28.0819 5.33346C20.1775 2.79705 8.83506 7.85731 5.43492 10.3937C-0.570847 14.8737 1.18501 21.5092 3.04295 28.5349C3.49212 30.2327 3.99783 32.1464 4.50669 34.3114C4.94796 36.3087 5.6079 38.2514 6.47456 40.1042C8.90261 46.0926 13.3064 49.0515 18.5472 48.3762C17.9264 52.2694 18.1292 56.2495 19.1427 60.0594C16.4143 58.7467 13.2222 58.8212 10.558 60.2596C7.75113 61.9202 5.98668 64.8991 5.87936 68.1586C5.63862 71.3656 7.13534 74.4555 9.80098 76.2547C11.3291 77.3039 13.1379 77.8685 14.9916 77.8747C16.248 77.8747 11.1469 79.4562 9.25758 82.9813C6.9913 87.2092 8.26813 92.2152 12.6389 96.7917C12.6116 100.039 14.024 103.132 16.4962 105.238C16.812 105.577 17.1471 105.897 17.4997 106.197C14.511 113.519 13.0975 121.471 18.1782 125.719C19.2911 126.967 20.7268 127.885 22.3275 128.37C25.3848 129.381 28.7412 128.869 31.3581 126.992C32.4592 126.185 33.4165 125.199 34.1897 124.074C34.6955 125.43 35.5407 126.635 36.6445 127.572C38.5211 129.599 41.2053 130.682 43.9632 130.524C45.8564 130.564 47.7225 130.068 49.3454 129.092C49.5307 129.265 49.7247 129.429 49.9264 129.583C51.4412 131.24 53.5816 132.187 55.8269 132.192C55.8646 132.192 55.9023 132.192 55.94 132.191C59.1104 132.135 61.9863 130.32 63.4 127.482C64.2881 127.725 65.2115 127.814 66.1296 127.744C66.9599 127.676 67.7764 127.491 68.5545 127.193C68.7069 127.346 68.8623 127.492 69.0209 127.632C70.8522 129.819 73.6358 130.975 76.4779 130.728C78.5746 130.54 80.516 129.543 81.8915 127.95C83.2348 128.505 84.6808 128.768 86.1335 128.721C93.2951 128.517 99.0778 126.237 101.999 122.466C103.763 120.264 104.425 117.377 103.797 114.627C103.421 112.972 102.52 111.482 101.229 110.38C101.121 110.25 101.008 110.124 100.89 110.001C106.401 106.731 109.091 101.885 107.73 97.1484C106.733 93.6759 103.477 91.4089 97.0046 89.7732L95.7278 83.6128C100.49 80.476 104.978 74.079 103.188 61.1221C103.405 61.1379 103.621 61.1714 103.838 61.1714C105.099 61.175 106.345 60.8993 107.486 60.3641C110.928 58.6889 113.156 55.2421 113.271 51.416C113.367 48.1393 111.552 45.1049 108.62 43.6387C108.017 43.3325 107.388 43.0808 106.741 42.8868C110.204 39.3645 113.28 35.4817 115.917 31.3046Z" fill="#231F20"/>
<path d="M114.632 30.0512C118.767 22.8503 119.764 17.1273 117.606 13.0156C115.682 7.9562 110.02 5.41518 104.96 7.34011C104.469 7.52691 103.994 7.75289 103.539 8.01585C102.037 5.03022 98.939 3.18785 95.5986 3.2941C94.4607 3.33724 93.3359 3.55306 92.2628 3.93418C89.6186 2.82917 86.8335 2.09736 83.9877 1.75978C79.5617 0.941829 75.0118 1.08187 70.6445 2.17047C66.9003 -0.0284091 61.493 -0.560812 54.4853 0.592735C51.2556 0.955353 48.2563 2.44222 46.0122 4.79313C43.3076 1.79047 39.3068 0.298419 35.2965 0.796901C32.4902 1.16811 29.89 2.47152 27.9134 4.49786C27.5522 4.3424 27.18 4.20315 26.7968 4.08011C18.8923 1.5437 7.54992 6.60394 4.14972 9.14035C-1.85599 13.6203 -0.100144 20.2558 1.75779 27.2816C2.20695 28.9793 2.71267 30.893 3.22151 33.058C3.66279 35.0553 4.32272 36.998 5.18939 38.8509C7.61743 44.8393 12.0212 47.7982 17.2621 47.1229C16.6412 51.0161 16.844 54.9962 17.8575 58.8061C15.1291 57.4934 11.937 57.5679 9.2728 59.0063C6.46594 60.6669 4.70148 63.6458 4.59418 66.9053C4.35343 70.1123 5.85015 73.2023 8.51579 75.0014C10.0439 76.0507 11.8527 76.6152 13.7064 76.6214C14.9628 76.6214 9.86174 78.203 7.97239 81.728C5.70611 85.9559 6.98296 90.962 11.3537 95.5385C11.3265 98.786 12.7389 101.879 15.211 103.985C15.5268 104.323 15.8619 104.644 16.2145 104.944C13.2258 112.265 11.8123 120.218 16.893 124.465C18.0059 125.714 19.4417 126.631 21.0423 127.116C24.0996 128.127 27.456 127.616 30.0729 125.739C31.174 124.932 32.1313 123.945 32.9046 122.82C33.4104 124.177 34.2556 125.381 35.3593 126.318C37.2359 128.346 39.9201 129.428 42.678 129.27C44.5713 129.311 46.4373 128.815 48.0602 127.839C48.2456 128.012 48.4395 128.176 48.6413 128.33C50.156 129.987 52.2964 130.933 54.5418 130.938C54.5795 130.938 54.6172 130.938 54.6549 130.937C57.8252 130.882 60.7011 129.066 62.1149 126.228C63.003 126.471 63.9263 126.56 64.8445 126.49C65.6748 126.423 66.4912 126.237 67.2694 125.94C67.4217 126.092 67.5772 126.238 67.7358 126.378C69.567 128.566 72.3506 129.721 75.1926 129.475C77.2894 129.286 79.2308 128.29 80.6063 126.696C81.9496 127.251 83.3956 127.514 84.8483 127.467C92.0099 127.263 97.7926 124.984 100.714 121.213C102.478 119.011 103.14 116.124 102.512 113.373C102.136 111.718 101.235 110.229 99.9443 109.127C99.8359 108.996 99.7228 108.871 99.6051 108.747C105.116 105.478 107.806 100.632 106.445 95.895C105.447 92.4225 102.192 90.1554 95.7196 88.5197L94.4426 82.3593C99.2046 79.2226 103.693 72.8256 101.903 59.8686C102.119 59.8844 102.336 59.918 102.553 59.918C103.814 59.9215 105.06 59.6458 106.201 59.1107C109.643 57.4354 111.871 53.9887 111.985 50.1625C112.081 46.8859 110.267 43.8514 107.335 42.3852C106.732 42.079 106.103 41.8274 105.455 41.6334C108.919 38.1111 111.995 34.2283 114.632 30.0512Z" fill="white"/>
<path d="M109.766 13.6699C103.855 12.4649 100.27 26.0391 100.27 26.0391C100.27 26.0391 102.204 9.95401 96.3968 10.1923C95.0862 10.2189 93.8351 10.7441 92.8984 11.6611C90.1503 9.94507 87.0364 8.90094 83.8093 8.61338C76.1542 7.58919 72.0463 8.45328 70.4172 10.3102C68.8004 7.66631 64.5811 6.0034 55.9647 7.42046C49.0956 8.55025 48.5852 12.7626 48.0838 21.3995C48.0657 21.7111 48.0511 22.0142 48.0351 22.3206C46.5624 15.793 43.2855 6.82267 36.5566 7.65692C33.1938 8.0739 30.8297 10.9849 29.3718 14.8682C29.3026 14.6197 29.2396 14.3754 29.1573 14.1173C26.735 6.51993 11.9284 12.0576 8.08252 14.9266C4.34004 17.7185 6.78555 22.4624 9.26807 33.0461C11.3641 41.9818 15.0027 42.2024 18.0282 41.1927C24.0738 39.1748 19.3236 27.9143 19.3236 27.9143C22.3157 27.8058 25.192 26.7304 27.5213 24.8493C27.1823 31.1375 28.036 37.8599 31.1893 37.7309C34.0963 37.612 35.5812 33.6607 36.339 29.4673L39.1712 29.1285C40.4309 33.0555 42.3251 36.4889 45.0032 35.5634C46.4882 35.0577 47.7037 33.9699 48.3704 32.5499C48.9199 35.0772 50.0174 36.5957 52.0273 36.553C56.219 36.4639 58.0777 24.7127 58.0777 24.7127C58.0777 24.7127 62.761 37.3377 68.066 35.3765C75.105 32.7744 64.8732 22.0242 64.8732 22.0242C67.0961 22.0514 69.7695 19.2127 70.7994 15.9892C72.9936 18.624 77.3248 18.6096 77.3248 18.6096C77.3248 18.6096 70.7871 36.526 78.0893 37.663C87.1934 39.0806 84.8296 18.9429 84.8296 18.9429C86.7094 19.2337 88.6136 19.3365 90.5137 19.2496C90.5239 23.0717 91.6304 26.8107 93.702 30.0227C92.5979 31.9939 88.6671 43.8013 96.9363 40.9285C101.435 39.3656 108.375 29.6555 109.757 27.2482C112.474 22.515 115.716 14.8827 109.766 13.6699ZM36.9028 25.0636C37.1629 21.9551 37.12 19.498 37.12 19.498C37.12 19.498 37.4108 21.9389 38.0619 24.9249L36.9028 25.0636Z" fill="#22093A" stroke="#22093A" stroke-linecap="round" stroke-linejoin="round"/>
<path d="M7.52004 13.6528C3.77752 16.4447 6.22305 21.1887 8.70561 31.7724C10.8015 40.708 14.4402 40.9287 17.4657 39.9189C23.5113 37.9012 18.7611 26.6406 18.7611 26.6406C18.7611 26.6406 32.9078 26.3712 28.5948 12.8436C26.1725 5.24624 11.3659 10.7839 7.52004 13.6528Z" fill="#FD32B0" stroke="#22093A" stroke-linecap="round" stroke-linejoin="round"/>
<path d="M15.9551 16.9926C15.9551 16.9926 19.5366 15.3154 19.661 17.433C19.7853 19.5506 16.745 20.4144 16.745 20.4144L15.9551 16.9926Z" fill="#22093A" stroke="#22093A" stroke-linecap="round" stroke-linejoin="round"/>
<path d="M35.9941 6.38283C31.1096 6.98845 28.3312 12.8548 27.3784 19.3219C26.3448 26.3381 26.7349 36.6159 30.6267 36.4568C33.5339 36.3379 35.0187 32.3864 35.7765 28.1931L38.6087 27.8543C39.8683 31.7813 41.7626 35.2148 44.4407 34.2892C47.3878 33.2706 48.8672 30.3512 48.4745 26.8807C48.0496 23.1266 45.3784 5.21942 35.9941 6.38283ZM36.3403 23.7894C36.6004 20.6809 36.5575 18.2239 36.5575 18.2239C36.5575 18.2239 36.8483 20.6648 37.4994 23.6507L36.3403 23.7894Z" fill="#FD32B0" stroke="#22093A" stroke-linecap="round" stroke-linejoin="round"/>
<path d="M55.4034 6.14643C48.5343 7.27621 48.0239 11.4885 47.5225 20.1255C47.0237 28.7168 47.2743 35.3682 51.466 35.279C55.6577 35.1898 57.5163 23.4387 57.5163 23.4387C57.5163 23.4387 62.1997 36.0637 67.5048 34.1025C74.5436 31.5004 64.312 20.7501 64.312 20.7501C69.9697 20.8195 78.5972 2.33172 55.4034 6.14643Z" fill="#FD32B0" stroke="#22093A" stroke-linecap="round" stroke-linejoin="round"/>
<path d="M57.0381 11.5069C57.0381 11.5069 61.006 10.7074 60.6163 12.8432C60.2266 14.979 56.9941 15.1009 56.9941 15.1009L57.0381 11.5069Z" fill="#22093A" stroke="#22093A" stroke-linecap="round" stroke-linejoin="round"/>
<path d="M83.2464 7.33954C72.3053 5.87585 68.5913 8.26152 69.0397 11.9048C69.7135 17.3794 76.7619 17.3358 76.7619 17.3358C76.7619 17.3358 70.2241 35.2522 77.5263 36.3893C86.6305 37.8069 84.2667 17.6692 84.2667 17.6692C84.2667 17.6692 94.8628 19.4648 94.9949 14.9491C95.1059 11.1547 90.579 8.32049 83.2464 7.33954Z" fill="#FD32B0" stroke="#22093A" stroke-linecap="round" stroke-linejoin="round"/>
<path d="M109.205 12.3962C103.294 11.1912 99.709 24.7654 99.709 24.7654C99.709 24.7654 101.643 8.68036 95.8357 8.91864C88.2291 9.23075 88.729 22.5332 93.1409 28.7491C92.0368 30.7202 88.106 42.5277 96.3753 39.6548C100.874 38.0919 107.813 28.3818 109.195 25.9746C111.913 21.2413 115.155 13.6091 109.205 12.3962Z" fill="#FD32B0" stroke="#22093A" stroke-linecap="round" stroke-linejoin="round"/>
<path d="M35.9944 9.31592C33.9388 9.74343 31.4305 12.6822 30.5156 18.3888" stroke="white" stroke-linecap="round" stroke-linejoin="round"/>
<path d="M11.1445 30.5859C12.189 33.9978 13.5692 37.3477 14.9262 37.3477" stroke="white" stroke-linecap="round" stroke-linejoin="round"/>
<path d="M9.67383 24.9502C9.82301 25.6273 10.0239 26.4875 10.2665 27.4383" stroke="white" stroke-linecap="round" stroke-linejoin="round"/>
<path d="M50.4579 21.6816C49.9694 24.6742 49.6839 29.5306 51.3861 31.149" stroke="white" stroke-linecap="round" stroke-linejoin="round"/>
<path d="M93.3828 21.6816C93.5944 22.3977 93.8455 23.1014 94.135 23.7897" stroke="white" stroke-linecap="round" stroke-linejoin="round"/>
<path d="M96.2512 13.2307C95.7243 11.3605 93.4036 11.8196 92.741 15.4229C92.5705 16.4751 92.5608 17.5471 92.7122 18.6023" stroke="white" stroke-linecap="round" stroke-linejoin="round"/>
<path d="M77.8634 23.3013C77.2158 24.9502 75.5191 31.4858 77.8634 33.3785" stroke="white" stroke-linecap="round" stroke-linejoin="round"/>
<path d="M103.236 29.4692C101.377 32.0793 99.1791 34.4298 96.6992 36.4587" stroke="white" stroke-linecap="round" stroke-linejoin="round"/>
<path d="M28.2207 33.3783C29.9211 29.6587 39.3329 30.3158 49.2426 34.8459C59.1523 39.376 65.8073 46.0637 64.1068 49.7833" fill="#E6E7E8"/>
<path d="M28.2207 33.3783C29.9211 29.6587 39.3329 30.3158 49.2426 34.8459C59.1523 39.376 65.8073 46.0637 64.1069 49.7833" stroke="#22093A" stroke-linecap="round" stroke-linejoin="round"/>
<path d="M32.0825 66.6396L25.2459 82.1098C25.2459 82.1098 14.4159 81.6282 12.9382 84.3864C10.9184 88.1566 16.5261 93.8914 22.9103 96.9258C30.6334 100.597 37.5479 98.9947 38.4977 95.8729C39.4989 92.5819 31.1722 84.2249 31.1722 84.2249L37.5145 69.2374" fill="#E6E7E8"/>
<path d="M32.0825 66.6396L25.2459 82.1098C25.2459 82.1098 14.4159 81.6282 12.9382 84.3864C10.9184 88.1566 16.5261 93.8914 22.9103 96.9258C30.6334 100.597 37.5479 98.9947 38.4977 95.8729C39.4989 92.5819 31.1722 84.2249 31.1722 84.2249L37.5145 69.2374" stroke="#22093A" stroke-linecap="round" stroke-linejoin="round"/>
<path d="M28.2204 33.3784C28.2204 33.3784 11.9115 59.4588 34.672 69.1107C57.1559 78.6454 64.1065 49.7835 64.1065 49.7835" fill="#E6E7E8"/>
<path d="M28.2204 33.3784C28.2204 33.3784 11.9115 59.4588 34.672 69.1107C57.1559 78.6454 64.1065 49.7835 64.1065 49.7835" stroke="#22093A" stroke-linecap="round" stroke-linejoin="round"/>
<path d="M64.1064 49.7835C62.406 53.503 52.9942 52.846 43.0845 48.3158C33.1749 43.7857 26.5198 37.098 28.2203 33.3784" stroke="#22093A" stroke-linecap="round" stroke-linejoin="round"/>
<path d="M55.2237 59.3626C55.1351 63.7989 48.1415 68.8973 37.1832 65.5391C28.9117 63.0043 26.8947 58.7049 27.0753 53.7021L55.2237 59.3626Z" fill="#E9022C" stroke="#22093A" stroke-linecap="round" stroke-linejoin="round"/>
<path d="M55.2235 59.3629C55.7116 56.9358 49.8061 53.701 42.0331 52.1379C34.2601 50.5748 27.5633 51.2753 27.0752 53.7024C26.5871 56.1296 32.4926 59.3643 40.2656 60.9274C48.0385 62.4905 54.7354 61.7901 55.2235 59.3629Z" fill="#E9022C" stroke="#22093A" stroke-linecap="round" stroke-linejoin="round"/>
<path d="M87.9614 78.7915L90.956 93.2466C90.956 93.2466 100.285 94.8232 101.04 97.448C102.072 101.036 96.3031 105.232 90.2298 106.318C83.0622 107.598 77.36 105.397 77.1225 102.559C76.8721 99.5667 85.5108 93.9639 85.5108 93.9639L82.8495 80.0113" fill="#D1D3D4"/>
<path d="M87.9614 78.7915L90.956 93.2466C90.956 93.2466 100.285 94.8232 101.04 97.448C102.072 101.036 96.3031 105.232 90.2298 106.318C83.0622 107.598 77.36 105.397 77.1225 102.559C76.8721 99.5667 85.5108 93.9639 85.5108 93.9639L82.8495 80.0113" stroke="#22093A" stroke-linecap="round" stroke-linejoin="round"/>
<path d="M64.1953 39.5609L68.3591 64.911C69.3005 69.0684 71.8352 81.3207 84.7477 79.8911C96.3136 78.6105 97.8157 68.9584 96.1141 59.1331L91.0509 34.3701" fill="#D1D3D4"/>
<path d="M64.1953 39.5609L68.3591 64.911C69.3005 69.0684 71.8352 81.3207 84.7477 79.8911C96.3136 78.6105 97.8157 68.9584 96.1141 59.1331L91.0509 34.3701" stroke="#22093A" stroke-linecap="round" stroke-linejoin="round"/>
<path d="M78.6413 42.2316C86.0572 40.7982 91.6133 37.2784 91.0512 34.37C90.489 31.4615 84.0215 30.2657 76.6055 31.6991C69.1896 33.1324 63.6335 36.6522 64.1956 39.5607C64.7578 42.4692 71.2253 43.665 78.6413 42.2316Z" fill="#D1D3D4" stroke="#22093A" stroke-linecap="round" stroke-linejoin="round"/>
<path d="M71.8184 60.0686C71.8184 60.0686 75.5452 76.6355 83.7752 75.9033C92.0051 75.1712 94.4278 70.5403 91.1151 53.1514" fill="#EC6509"/>
<path d="M71.8184 60.0686C71.8184 60.0686 75.5452 76.6355 83.7752 75.9033C92.0051 75.1712 94.4278 70.5403 91.1151 53.1514" stroke="#22093A" stroke-linecap="round" stroke-linejoin="round"/>
<path d="M82.7752 60.2631C88.1038 58.353 91.8372 55.169 91.114 53.1514C90.3908 51.1339 85.4848 51.0468 80.1562 52.9569C74.8275 54.8671 71.0941 58.0511 71.8173 60.0686C72.5405 62.0861 77.4465 62.1732 82.7752 60.2631Z" fill="#EC6509" stroke="#22093A" stroke-linecap="round" stroke-linejoin="round"/>
<path d="M61.3514 49.006L67.5543 42.8208L69.4488 50.9858L78.1557 50.6223L73.5015 59.8519L79.7237 64.5302L69.949 68.0571L67.9998 79.2471L61.0346 69.4932L51.6618 72.9814L55.8062 63.3466L47.3438 57.9912L54.555 53.9352L53.1012 42.9768L61.3514 49.006Z" fill="#FCC707" stroke="#22093A" stroke-linecap="round" stroke-linejoin="round"/>
<path d="M63.1011 54.6105L66.0056 52.2191L66.4816 55.7878L70.2207 55.9888L67.8518 59.7456L70.3204 62.0019L65.9959 63.1084L64.7045 67.8141L62.1265 63.3593L57.9757 64.4657L60.142 60.5159L56.7422 57.8784L59.9924 56.4407L59.8203 51.6948L63.1011 54.6105Z" fill="#EC6509" stroke="#22093A" stroke-linecap="round" stroke-linejoin="round"/>
<path d="M15.9551 86.5721L26.4069 84.9221L32.4522 71.0415" stroke="white" stroke-linecap="round" stroke-linejoin="round"/>
<path d="M85.584 82.082L88.0574 94.5988L95.7528 100.093" stroke="white" stroke-linecap="round" stroke-linejoin="round"/>
<path d="M27.873 41.6035C26.6746 44.2879 26.0106 47.18 25.918 50.1183" stroke="white" stroke-linecap="round" stroke-linejoin="round"/>
<path d="M89.1389 62.2041C89.7388 64.5392 89.7083 68.6751 88.4258 70.0658" stroke="white" stroke-linecap="round" stroke-linejoin="round"/>
<path d="M32.5814 93.825C21.968 90.791 17.9474 92.6131 17.863 96.2829C17.7362 101.798 24.7165 102.776 24.7165 102.776C24.7165 102.776 15.6511 119.556 22.7114 121.739C31.5138 124.461 32.0937 104.193 32.0937 104.193C32.0937 104.193 42.3177 107.506 43.1029 103.057C43.7628 99.3187 39.6944 95.8583 32.5814 93.825Z" fill="#22093A" stroke="#22093A" stroke-linecap="round" stroke-linejoin="round"/>
<path d="M42.7003 123.642C45.1595 123.65 48.1805 122.393 49.5437 112.01C50.7608 102.74 47.1185 102.335 46.1764 102.332C45.2343 102.329 39.7081 101.833 38.7512 111.972C37.7943 122.111 39.0567 123.629 42.7003 123.642Z" fill="#22093A" stroke="#22093A" stroke-linecap="round" stroke-linejoin="round"/>
<path d="M45.8807 100.685C48.2613 100.685 50.1911 98.7554 50.1911 96.3749C50.1911 93.9943 48.2613 92.0645 45.8807 92.0645C43.5001 92.0645 41.5703 93.9943 41.5703 96.3749C41.5703 98.7554 43.5001 100.685 45.8807 100.685Z" fill="#22093A" stroke="#22093A" stroke-linecap="round" stroke-linejoin="round"/>
<path d="M68.6464 96.1953C65.3688 96.4532 64.8104 100.438 63.6509 103.434C62.3254 100.82 61.3418 96.9795 58.1357 97.2674C54.4298 97.6002 52.2453 103.139 51.4374 109.387C50.5608 116.165 50.4712 125.367 54.581 125.31C59.3192 125.243 59.9364 111.668 59.9364 111.668C59.9364 111.668 60.2953 121.186 64.4282 120.877C69.147 120.524 68.3445 111.216 68.3445 111.216C68.3445 111.216 69.4737 124.357 74.6709 123.87C77.0462 123.647 78.0761 120.284 77.825 116.88C77.5534 113.197 75.7728 95.6345 68.6464 96.1953Z" fill="#22093A" stroke="#22093A" stroke-linecap="round" stroke-linejoin="round"/>
<path d="M92.2918 94.6813C90.3378 92.5847 79.0769 94.8517 77.6638 101.803C76.7417 106.34 77.2085 122.055 84.6932 121.841C92.1778 121.628 97.926 118.556 97.0315 114.639C96.137 110.722 86.9353 112.833 86.9353 112.833C86.9353 112.833 94.6988 110.453 94.0471 106.328C93.3954 102.204 85.4833 105.627 85.4833 105.627C85.4833 105.627 97.5343 100.306 92.2918 94.6813Z" fill="#22093A" stroke="#22093A" stroke-linecap="round" stroke-linejoin="round"/>
<path d="M31.7064 92.9666C21.093 89.9326 17.0724 91.7547 16.988 95.4245C16.8612 100.939 23.8415 101.917 23.8415 101.917C23.8415 101.917 14.7761 118.697 21.8364 120.881C30.6388 123.603 31.2187 103.335 31.2187 103.335C31.2187 103.335 41.4427 106.647 42.2279 102.199C42.8878 98.4603 38.8194 94.9999 31.7064 92.9666Z" fill="#71C1F2" stroke="#22093A" stroke-linecap="round" stroke-linejoin="round"/>
<path d="M41.8273 122.783C44.2864 122.792 47.3074 121.535 48.6706 111.152C49.8877 101.881 46.2454 101.477 45.3033 101.473C44.3612 101.47 38.8351 100.975 37.8782 111.114C36.9213 121.252 38.1836 122.77 41.8273 122.783Z" fill="#71C1F2" stroke="#22093A" stroke-linecap="round" stroke-linejoin="round"/>
<path d="M45.0057 99.8269C47.3863 99.8269 49.3161 97.897 49.3161 95.5165C49.3161 93.1359 47.3863 91.2061 45.0057 91.2061C42.6251 91.2061 40.6953 93.1359 40.6953 95.5165C40.6953 97.897 42.6251 99.8269 45.0057 99.8269Z" fill="#71C1F2" stroke="#22093A" stroke-linecap="round" stroke-linejoin="round"/>
<path d="M67.7734 95.3369C64.4958 95.5948 63.9374 99.5796 62.7779 102.575C61.4524 99.9612 60.4688 96.1211 57.2627 96.409C53.5568 96.7418 51.3724 102.28 50.5644 108.528C49.6877 115.307 49.5981 124.509 53.7079 124.451C58.4461 124.385 59.0633 110.81 59.0633 110.81C59.0633 110.81 59.4223 120.328 63.5551 120.019C68.274 119.665 67.4714 110.357 67.4714 110.357C67.4714 110.357 68.6006 123.499 73.7978 123.012C76.1732 122.789 77.2031 119.426 76.952 116.021C76.6805 112.339 74.8999 94.7761 67.7734 95.3369Z" fill="#71C1F2" stroke="#22093A" stroke-linecap="round" stroke-linejoin="round"/>
<path d="M91.4188 93.8229C89.4648 91.7263 78.2039 93.9933 76.7908 100.945C75.8687 105.481 76.3355 121.197 83.8201 120.983C91.3048 120.769 97.0529 117.697 96.1584 113.78C95.2639 109.864 86.0622 111.975 86.0622 111.975C86.0622 111.975 93.8257 109.594 93.1741 105.47C92.5225 101.346 84.6103 104.768 84.6103 104.768C84.6103 104.768 96.6613 99.448 91.4188 93.8229Z" fill="#71C1F2" stroke="#22093A" stroke-linecap="round" stroke-linejoin="round"/>
<path d="M22.9698 110.832C22.1415 113.307 21.5836 116.082 22.5633 117.29" stroke="white" stroke-linecap="round" stroke-linejoin="round"/>
<path d="M24.5146 107.028C24.2896 107.491 24.1973 107.663 23.9062 108.375" stroke="white" stroke-linecap="round" stroke-linejoin="round"/>
<path d="M45.0073 93.4727C43.8699 93.574 43.03 94.5782 43.1313 95.7155C43.184 96.3066 43.4881 96.8466 43.9662 97.198" stroke="white" stroke-linecap="round" stroke-linejoin="round"/>
<path d="M43.9659 104.038C42.8653 104.634 40.6986 107.9 40.7591 112.126" stroke="white" stroke-linecap="round" stroke-linejoin="round"/>
<path d="M25.5513 94.2668C22.9557 93.5339 20.3609 93.8 19.5059 95.324" stroke="white" stroke-linecap="round" stroke-linejoin="round"/>
<path d="M65.8594 102.206C65.8594 101.107 66.7754 97.7479 68.2412 97.9922" stroke="white" stroke-linecap="round" stroke-linejoin="round"/>
<path d="M53.7051 106.285C53.7051 104.038 56.1316 99.0508 57.4915 99.0405" stroke="white" stroke-linecap="round" stroke-linejoin="round"/>
<path d="M80.4473 113.688C80.8835 115.092 81.1278 118.451 85.0364 118.268" stroke="white" stroke-linecap="round" stroke-linejoin="round"/>
<path d="M85.5859 96.4652C87.2349 95.5166 89.1389 95.5166 89.7388 96.8927" stroke="white" stroke-linecap="round" stroke-linejoin="round"/>
<path d="M54.841 80.9306C53.6381 81.1941 52.8765 82.3828 53.14 83.5857C53.2104 83.9073 53.3512 84.2094 53.5523 84.4702C54.7054 85.7912 57.4185 85.9167 57.8254 83.8985C58.2488 82.6805 57.6047 81.3498 56.3867 80.9264C55.886 80.7523 55.3408 80.7538 54.841 80.9306Z" fill="#FCC707" stroke="#22093A" stroke-linecap="round" stroke-linejoin="round"/>
<path d="M10.2143 67.2946C10.0973 69.2049 11.551 70.8483 13.4613 70.9654C13.9721 70.9967 14.4835 70.9144 14.9587 70.7246C17.4236 69.5618 18.7634 65.5588 15.9189 64.0932C14.2777 62.9428 12.0148 63.3406 10.8644 64.9817C10.3914 65.6565 10.1621 66.4722 10.2143 67.2946Z" fill="#FCC707" stroke="#22093A" stroke-linecap="round" stroke-linejoin="round"/>
<path d="M13.119 66.0288L12.6426 66.8225" stroke="white" stroke-linecap="round" stroke-linejoin="round"/>
<path d="M99.0581 50.5905C98.941 52.5008 100.395 54.1442 102.305 54.2613C102.816 54.2926 103.327 54.2103 103.802 54.0205C106.267 52.8577 107.607 48.8547 104.763 47.3891C103.121 46.2387 100.859 46.6365 99.7081 48.2776C99.2351 48.9524 99.0059 49.7681 99.0581 50.5905Z" fill="#FCC707" stroke="#22093A" stroke-linecap="round" stroke-linejoin="round"/>
<path d="M101.965 49.3247L101.488 50.1184" stroke="white" stroke-linecap="round" stroke-linejoin="round"/>
</g>
<defs>
<clipPath id="clip0_5_11009">
<rect width="120" height="132.191" fill="white"/>
</clipPath>
</defs>
</svg>
