<svg width="120" height="130" viewBox="0 0 120 130" fill="none" xmlns="http://www.w3.org/2000/svg">
<g clip-path="url(#clip0_5_11001)">
<path opacity="0.5" d="M118.543 54.7083C117.662 51.4064 115.716 48.4874 113.007 46.4034C110.903 44.7036 108.319 43.7076 105.619 43.556C105.488 43.1375 105.347 42.7182 105.194 42.2981C101.349 29.9355 89.2946 18.7842 75.6082 21.4603C72.2437 22.1329 69.0913 23.6076 66.4188 25.7594C63.5873 17.3284 55.8262 2.17782 45.3104 1.59061C38.7136 1.23823 35.1555 4.10222 33.2995 6.58123C31.3526 9.40213 30.3385 12.7621 30.3995 16.1891C30.1623 16.1925 29.9218 16.2033 29.6812 16.2217C26.579 16.4725 23.7265 18.0201 21.8249 20.4839C18.1198 25.0577 18.2417 31.358 19.1153 36.1281C18.3541 36.5631 17.6489 37.0896 17.0155 37.6959C14.8854 39.7616 13.737 42.6375 13.8583 45.6023C13.8904 47.2683 14.2308 48.914 14.8622 50.456C15.8352 53.2121 17.2588 55.7877 19.0753 58.0776C21.6436 61.4675 23.6966 65.2185 25.1676 69.2089C25.7172 71.0055 26.3436 73.5472 26.9483 76.2192C24.9586 75.7057 22.8933 75.5507 20.8493 75.7615C8.82007 77.0979 1.35964 87.2946 1.84242 101.738C2.16649 111.391 6.11889 116.876 9.54841 119.838C13.573 124.372 19.52 126.713 25.5551 126.138C28.7514 125.805 31.8274 124.737 34.5424 123.017C35.0774 123.911 35.7474 124.716 36.5286 125.405C37.6736 127.155 39.4067 128.438 41.4148 129.022C44.2284 129.841 47.2564 129.44 49.7606 127.919C51.2564 126.998 52.553 125.787 53.5743 124.358L53.6427 124.424C55.2021 126.745 57.577 128.396 60.2964 129.049C63.1269 129.655 66.0817 129.186 68.5854 127.733C70.344 128.848 72.3833 129.44 74.4656 129.44C79.7489 129.444 84.2669 125.641 85.1651 120.435C101.382 114.742 107.802 102.867 111.038 96.8833C113.786 91.7991 123.685 68.4439 118.543 54.7083Z" fill="#231F20"/>
<path d="M116.723 53.1472C115.841 49.8453 113.896 46.9263 111.187 44.8423C109.083 43.1425 106.499 42.1466 103.798 41.9949C103.668 41.5765 103.527 41.1572 103.374 40.737C99.5286 28.3746 87.4743 17.2232 73.7879 19.8993C70.4234 20.5718 67.271 22.0466 64.5985 24.1983C61.767 15.7673 54.0058 0.616768 43.4901 0.0295915C36.8933 -0.322892 33.3351 2.54118 31.4792 5.0202C29.5323 7.84109 28.5182 11.2011 28.5792 14.6281C28.342 14.6315 28.1015 14.6423 27.8609 14.6606C24.7587 14.9114 21.9062 16.459 20.0046 18.9228C16.2994 23.4967 16.4214 29.7969 17.295 34.567C16.5337 35.002 15.8286 35.5285 15.1952 36.1348C13.065 38.2005 11.9166 41.0765 12.038 44.0413C12.0701 45.7073 12.4105 47.3529 13.042 48.8949C14.0149 51.6511 15.4385 54.2267 17.2549 56.5166C19.8233 59.9064 21.8763 63.6575 23.3472 67.6479C23.8968 69.4445 24.5233 71.9862 25.128 74.6582C23.1383 74.1447 21.073 73.9897 19.029 74.2005C6.99973 75.5368 -0.460676 85.7336 0.0221028 100.178C0.346174 109.83 4.29857 115.316 7.7281 118.277C11.7527 122.811 17.6997 125.152 23.7348 124.577C26.9311 124.244 30.0071 123.176 32.7221 121.456C33.2571 122.35 33.9271 123.155 34.7083 123.844C35.8533 125.594 37.5864 126.877 39.5945 127.461C42.4081 128.28 45.4362 127.879 47.9403 126.357C49.4361 125.437 50.7328 124.226 51.754 122.797L51.8225 122.863C53.3818 125.184 55.7567 126.835 58.476 127.488C61.3065 128.094 64.2613 127.625 66.765 126.172C68.5236 127.287 70.563 127.879 72.6452 127.879C77.9285 127.883 82.4466 124.08 83.3447 118.874C99.5619 113.181 105.982 101.306 109.217 95.3223C111.965 90.2381 121.865 66.8828 116.723 53.1472Z" fill="white"/>
<path d="M108.045 50.938C98.965 44.1839 97.6836 59.7309 92.0208 66.2686C86.0851 73.1214 79.6453 71.3759 76.5819 63.3369C73.6283 55.5863 73.8141 45.6083 82.1976 46.8299C88.6387 47.7685 90.7617 61.8043 96.0601 56.9429C105.212 48.546 91.6107 23.895 75.3675 27.067C69.3557 28.0638 64.2878 32.1008 61.9721 37.7376L62.1715 36.4101C61.6038 37.9416 61.1355 39.508 60.7694 41.0997C60.6708 41.4286 60.7137 41.3095 60.8916 40.5524C63.3198 30.2196 52.0994 7.77477 43.5869 7.29953C29.8295 6.53148 36.7226 25.9593 36.7226 25.9593C36.7226 25.9593 36.4983 25.7219 36.1227 25.3729C36.0323 25.2669 35.9703 25.1957 35.9703 25.1957L35.9909 25.2515C34.0712 23.5066 28.7645 19.4446 25.0881 23.9835C20.8359 29.2331 25.0932 40.0896 25.0932 40.0896C25.0932 40.0896 18.3641 39.6832 18.456 45.2369C18.5479 50.7907 25.1745 54.3517 29.2167 66.2747C31.1596 72.0058 34.1275 87.8733 34.1275 87.8733C36.8664 99.0901 48.7148 119.467 73.4645 115.237C92.7952 111.933 99.6989 100.329 103.947 92.4724C108.022 84.935 117.71 58.1276 108.045 50.938Z" fill="#22093A" stroke="#22093A" stroke-linecap="round" stroke-linejoin="round"/>
<path d="M33.6918 86.5798C36.4308 97.7966 48.2791 118.173 73.0289 113.944C92.3597 110.64 99.2633 99.0354 103.511 91.1789C107.587 83.6415 117.275 56.8342 107.609 49.6446C98.5294 42.8905 97.2481 58.4375 91.5853 64.9752C85.6496 71.8279 79.2097 70.0825 76.1464 62.0435C73.1929 54.2928 73.3786 44.3149 81.7621 45.5365C88.2032 46.475 90.3261 60.511 95.6246 55.6495C104.776 47.2526 91.1751 22.6017 74.932 25.7736C63.3044 28.0442 59.359 43.9277 60.4562 39.2589C62.8844 28.9261 51.6639 6.48133 43.1513 6.00607C29.394 5.23802 36.2871 24.6658 36.2871 24.6658C36.2871 24.6658 29.212 17.0608 24.6525 22.69C20.4004 27.9398 24.6576 38.796 24.6576 38.796C24.6576 38.796 17.9286 38.3897 18.0205 43.9435C18.1123 49.4972 24.739 53.0581 28.7812 64.9813C30.7241 70.7123 33.6918 86.5798 33.6918 86.5798Z" fill="#FCC707" stroke="#22093A" stroke-linecap="round" stroke-linejoin="round"/>
<path d="M24.6582 38.7959C27.2532 40.6124 30.6045 45.5715 32.59 48.9345C36.1236 54.9193 39.0293 65.9024 39.0293 65.9024" stroke="#22093A" stroke-linecap="round" stroke-linejoin="round"/>
<path d="M35.5352 23.9023C38.8224 27.7619 41.3691 32.1949 43.0474 36.9787C46.9751 49.5467 47.4099 52.6174 48.1693 58.4328" stroke="#22093A" stroke-linecap="round" stroke-linejoin="round"/>
<path d="M61.7367 35.1167C59.7244 40.7133 58.8329 46.6511 59.1127 52.5918" stroke="#22093A" stroke-linecap="round" stroke-linejoin="round"/>
<path d="M28.9417 24.9043C27.5126 24.7094 24.6569 27.9574 26.863 34.2584" stroke="white" stroke-linecap="round" stroke-linejoin="round"/>
<path d="M33.248 68.9521C33.5414 70.3606 33.7843 71.7331 33.9903 73.0387" stroke="white" stroke-linecap="round" stroke-linejoin="round"/>
<path d="M21.3906 44.9854C22.4023 47.4287 23.813 49.687 25.5652 51.6677" stroke="white" stroke-linecap="round" stroke-linejoin="round"/>
<path d="M78.5707 29.2567C75.5782 28.2824 67.5013 31.4653 64.4746 40.6895" stroke="white" stroke-linecap="round" stroke-linejoin="round"/>
<path d="M63.3703 44.3921C62.995 46.1666 62.7777 47.9708 62.7207 49.7837" stroke="white" stroke-linecap="round" stroke-linejoin="round"/>
<path d="M99.3262 58.1079C100.398 54.818 103.256 51.0113 105.108 52.1222" stroke="white" stroke-linecap="round" stroke-linejoin="round"/>
<path d="M76.1348 70.1484C78.4728 73.3738 82.7206 74.5701 86.3983 73.0391" stroke="white" stroke-linecap="round" stroke-linejoin="round"/>
<path d="M40.469 10.0938C35.6655 12.3131 36.8989 18.1618 40.1867 23.9024" stroke="white" stroke-linecap="round" stroke-linejoin="round"/>
<path d="M21.4342 81.8587C27.7905 81.1522 37.8144 86.8474 37.8201 99.2783C37.8258 111.709 30.0716 117.899 23.1142 118.62C16.8367 119.272 8.19358 114.91 7.75001 101.684C7.38659 90.8484 12.0982 82.8963 21.4342 81.8587Z" fill="#22093A" stroke="#22093A" stroke-linecap="round" stroke-linejoin="round"/>
<path d="M22.9293 91.4082C23.8253 90.8876 25.2471 93.2207 25.2639 98.9788C25.2807 104.737 24.1946 107.84 23.2138 108.386C22.3289 108.879 21.1037 107.121 21.024 101.008C20.9587 95.9999 21.6132 92.1729 22.9293 91.4082Z" fill="#22093A" stroke="#22093A" stroke-linecap="round" stroke-linejoin="round"/>
<path d="M42.1176 86.6062C36.4849 87.8758 34.9569 119.966 41.1857 121.689C48.5147 123.716 50.6353 108.955 50.6353 108.955C50.6353 108.955 56.1504 121.027 59.4607 121.582C68.2527 123.055 67.3561 112.216 58.5469 102.812C58.5469 102.812 72.5282 91.8523 63.7846 87.4092C57.7297 84.3325 50.8855 99.7371 50.8855 99.7371C50.8855 99.7371 49.9918 84.8315 42.1176 86.6062Z" fill="#22093A" stroke="#22093A" stroke-linecap="round" stroke-linejoin="round"/>
<path d="M77.3941 86.255C74.5876 86.199 71.1159 87.5773 69.3653 99.4024C67.8024 109.96 71.952 110.49 73.0271 110.512C74.1023 110.533 80.4003 111.202 81.6826 99.648C82.9649 88.0942 81.5526 86.3379 77.3941 86.255Z" fill="#22093A" stroke="#22093A" stroke-linecap="round" stroke-linejoin="round"/>
<path d="M72.6254 121.894C75.3429 121.894 77.5458 119.691 77.5458 116.974C77.5458 114.256 75.3429 112.053 72.6254 112.053C69.908 112.053 67.7051 114.256 67.7051 116.974C67.7051 119.691 69.908 121.894 72.6254 121.894Z" fill="#22093A" stroke="#22093A" stroke-linecap="round" stroke-linejoin="round"/>
<path d="M19.6862 80.1497C26.0425 79.4433 36.0664 85.1384 36.0721 97.5693C36.0778 110 28.3235 116.19 21.3662 116.911C15.0887 117.563 6.44553 113.201 6.00196 99.9748C5.63854 89.1393 10.3501 81.1872 19.6862 80.1497Z" fill="#35CCAD" stroke="#22093A" stroke-linecap="round" stroke-linejoin="round"/>
<path d="M21.1812 89.6992C22.0772 89.1786 23.4991 91.5117 23.5158 97.2699C23.5326 103.028 22.4465 106.131 21.4658 106.677C20.5808 107.17 19.3556 105.412 19.2759 99.2991C19.2107 94.2909 19.8652 90.4639 21.1812 89.6992Z" fill="#22093A" stroke="#22093A" stroke-linecap="round" stroke-linejoin="round"/>
<path d="M40.4907 84.7771C34.8579 86.0467 33.33 118.137 39.5587 119.86C46.8877 121.887 49.0084 107.126 49.0084 107.126C49.0084 107.126 54.5235 119.198 57.8337 119.753C66.6258 121.226 65.7292 110.387 56.92 100.982C56.92 100.982 70.9013 90.0232 62.1576 85.5801C56.1028 82.5034 49.2585 97.908 49.2585 97.908C49.2585 97.908 48.3649 83.0024 40.4907 84.7771Z" fill="#35CCAD" stroke="#22093A" stroke-linecap="round" stroke-linejoin="round"/>
<path d="M75.7418 84.4493C72.9352 84.3934 69.4636 85.7716 67.713 97.5968C66.15 108.155 70.2996 108.685 71.3748 108.706C72.45 108.727 78.7479 109.396 80.0302 97.8424C81.3125 86.2885 79.9003 84.5323 75.7418 84.4493Z" fill="#35CCAD" stroke="#22093A" stroke-linecap="round" stroke-linejoin="round"/>
<path d="M71.6 120.431C74.3175 120.431 76.5204 118.228 76.5204 115.51C76.5204 112.793 74.3175 110.59 71.6 110.59C68.8826 110.59 66.6797 112.793 66.6797 115.51C66.6797 118.228 68.8826 120.431 71.6 120.431Z" fill="#35CCAD" stroke="#22093A" stroke-linecap="round" stroke-linejoin="round"/>
<path d="M18.4537 83.6597C14.3258 83.6597 8.28462 89.6281 9.259 100.241" stroke="white" stroke-linecap="round" stroke-linejoin="round"/>
<path d="M38.9915 102.339C38.8082 105.633 38.987 108.938 39.5249 112.194C40.6696 117.825 42.3482 115.262 42.3482 115.262" stroke="white" stroke-linecap="round" stroke-linejoin="round"/>
<path d="M74.4943 87.3623C73.6754 87.6427 71.2616 91.4075 70.6151 96.4892C69.9686 101.571 70.184 103.113 70.6151 104.609" stroke="white" stroke-linecap="round" stroke-linejoin="round"/>
<path d="M70.4018 113.769C69.507 114.368 69.2678 115.58 69.8676 116.475C69.9187 116.551 69.9751 116.623 70.0364 116.692" stroke="white" stroke-linecap="round" stroke-linejoin="round"/>
<path d="M9.74805 103.987C9.99037 105.592 10.5897 107.122 11.5019 108.464" stroke="white" stroke-linecap="round" stroke-linejoin="round"/>
</g>
<defs>
<clipPath id="clip0_5_11001">
<rect width="120" height="129.439" fill="white"/>
</clipPath>
</defs>
</svg>
