<svg width="120" height="119" viewBox="0 0 120 119" fill="none" xmlns="http://www.w3.org/2000/svg">
<g clip-path="url(#clip0_5_11000)">
<path opacity="0.5" d="M119.814 44.6008C119.35 42.8338 118.094 41.3811 116.412 40.6667L113.704 39.5224L99.3252 32.7655L99.2004 14.8172C99.201 14.3381 99.1359 13.8611 99.0068 13.3997C98.8982 12.9468 98.737 12.5081 98.5264 12.0927C98.3178 11.7002 98.0626 11.3343 97.7664 11.0029C97.6933 10.9161 97.6173 10.8301 97.5384 10.7462C97.2854 10.4646 96.9989 10.2152 96.6852 10.0034C96.3218 9.75501 95.9305 9.55023 95.5194 9.39323C95.0996 9.22079 94.6619 9.0955 94.2145 9.01967C93.7918 8.95427 93.3627 8.94079 92.9368 8.97953C92.4939 9.00263 92.0551 9.07648 91.629 9.19964L73.2671 14.7462C72.7139 13.7644 72.0567 12.845 71.3068 12.0038C70.5023 11.0979 69.5819 10.3021 68.5694 9.637C66.4309 7.90662 63.7574 6.97361 61.0066 6.99778L54.5079 1.51785C53.1044 0.325407 51.2191 -0.131988 49.4252 0.284719C47.6299 0.696766 46.1298 1.92318 45.3692 3.60077L37.8 20.4126L21.6098 19.398C18.371 19.2095 15.5925 21.6823 15.404 24.9211C15.3481 25.8804 15.5285 26.8388 15.9292 27.7122L20.7036 38.1063L5.18154 45.2532C4.74159 45.4552 4.33108 45.7159 3.96124 46.0283C3.66114 46.2637 3.38496 46.5281 3.1367 46.8177C2.82885 47.1858 2.57023 47.5924 2.36738 48.0272C2.24369 48.2716 2.13731 48.5244 2.04904 48.7837L2.04757 48.7829C2.01457 48.8812 1.98518 48.9801 1.95866 49.0798L1.94217 49.1436L1.93715 49.1608C1.90201 49.3013 1.8719 49.444 1.84823 49.5881H1.84895C1.84035 49.644 1.83246 49.7021 1.8253 49.7602C1.81453 49.8412 1.80665 49.9222 1.8002 50.0039C1.77965 50.2447 1.77295 50.4865 1.78013 50.7281C1.78284 51.1425 1.83141 51.5554 1.92496 51.9592C2.13833 52.7681 2.50434 53.5289 3.0033 54.2004H3.00258C3.04056 54.2499 3.09655 54.3195 3.13664 54.3675L13.1579 66.4602L5.76727 79.5624C5.56808 79.9272 5.40917 80.3126 5.29333 80.7117C5.17091 81.1 5.08825 81.4998 5.04664 81.9048C5.00816 82.3282 5.01971 82.7546 5.08105 83.1753C5.12378 83.5552 5.20449 83.9299 5.32196 84.2938C5.33629 84.3368 5.35135 84.3799 5.36713 84.4228C5.38935 84.4866 5.41374 84.5505 5.43883 84.6135C5.59724 85.0112 5.80358 85.388 6.05328 85.7356C6.27421 86.0704 6.53125 86.3798 6.81978 86.6584C7.10013 86.9214 7.40505 87.1569 7.73034 87.3618C8.08942 87.6 8.47425 87.797 8.87751 87.949L19.8574 91.9583V104.865L19.7614 108.146C19.6732 111.389 22.2305 114.089 25.4732 114.178C26.1704 114.197 26.8654 114.091 27.5256 113.867L47.3072 107.132L62.7246 117.598C65.4073 119.422 69.0608 118.726 70.885 116.043C71.0784 115.759 71.2465 115.458 71.3872 115.144L76.0433 104.762L86.8741 108.61C89.9204 109.723 93.2924 108.156 94.4056 105.11C94.6417 104.463 94.7625 103.781 94.7624 103.093V93.4339H110.704C113.948 93.4339 116.577 90.8041 116.577 87.5601C116.577 86.5694 116.327 85.5947 115.849 84.7268L115.76 84.5634C115.652 84.2451 115.516 83.9368 115.354 83.642L105.792 66.2788L118.747 49.705C119.875 48.2611 120.269 46.3756 119.814 44.6008Z" fill="#231F20"/>
<path d="M118.036 44.4744C117.572 42.7074 116.316 41.2547 114.635 40.5403L111.926 39.396L97.5479 32.6391L97.4231 14.6908C97.4237 14.2117 97.3586 13.7348 97.2295 13.2734C97.1209 12.8204 96.9597 12.3817 96.7491 11.9663C96.5405 11.5738 96.2853 11.2079 95.9891 10.8765C95.916 10.7897 95.84 10.7037 95.7611 10.6198C95.5081 10.3383 95.2216 10.0888 94.9079 9.877C94.5445 9.62864 94.1532 9.42385 93.7421 9.26685C93.3223 9.09442 92.8846 8.96913 92.4371 8.8933C92.0145 8.8279 91.5854 8.81441 91.1595 8.85314C90.7166 8.87625 90.2778 8.9501 89.8517 9.07325L71.4898 14.6198C70.9365 13.638 70.2793 12.7186 69.5295 11.8774C68.725 10.9715 67.8046 10.1758 66.7921 9.51067C64.6536 7.78028 61.9801 6.84726 59.2293 6.87144L52.7306 1.39145C51.3271 0.198971 49.4418 -0.258453 47.6479 0.158244C45.8526 0.57028 44.3525 1.7967 43.5919 3.4743L36.0227 20.2862L19.8324 19.2716C16.5936 19.0831 13.8151 21.5558 13.6265 24.7947C13.5707 25.754 13.751 26.7124 14.1518 27.5858L18.9262 37.9799L3.40415 45.1268C2.96422 45.3288 2.55373 45.5895 2.18392 45.9019C1.88382 46.1373 1.60764 46.4017 1.35939 46.6913C1.05154 47.0594 0.792922 47.466 0.590063 47.9008C0.466369 48.1452 0.359992 48.398 0.271717 48.6572L0.270249 48.6565C0.237269 48.7548 0.207872 48.8537 0.181338 48.9534L0.164848 49.0172L0.159826 49.0344C0.124703 49.1749 0.0945861 49.3176 0.0709304 49.4617H0.0716059C0.0630012 49.5176 0.0551159 49.5757 0.0479502 49.6337C0.0372016 49.7148 0.0293164 49.7958 0.0228555 49.8775C0.00230986 50.1183 -0.00439185 50.3601 0.00278268 50.6016C0.00549479 51.0161 0.054066 51.429 0.14761 51.8327C0.2713 52.3478 0.468102 52.8425 0.732027 53.3018C0.874951 53.5725 1.04019 53.8308 1.22604 54.074H1.22524C1.26324 54.1235 1.31922 54.1929 1.35932 54.2411L11.3806 66.3337L3.98993 79.4359C3.79075 79.8007 3.63184 80.1861 3.51601 80.5852C3.39358 80.9735 3.31093 81.3733 3.26932 81.7783C3.23086 82.2017 3.24244 82.6282 3.30383 83.0489C3.34655 83.4288 3.42725 83.8035 3.54473 84.1674C3.55906 84.2104 3.57412 84.2534 3.5899 84.2964C3.61213 84.3602 3.63651 84.424 3.6616 84.4871C3.82001 84.8848 4.02635 85.2616 4.27605 85.6092C4.49698 85.9439 4.75402 86.2534 5.04254 86.532C5.3229 86.795 5.62782 87.0305 5.95311 87.2353C6.3122 87.4736 6.69702 87.6706 7.10028 87.8225L18.0802 91.8319V104.739L17.9841 108.02C17.8959 111.263 20.4532 113.963 23.6959 114.051C24.3931 114.07 25.0881 113.965 25.7483 113.74L45.5299 107.005L60.9472 117.471C63.6299 119.296 67.2834 118.6 69.1076 115.917C69.301 115.633 69.4691 115.332 69.6098 115.018L74.2659 104.635L85.0967 108.483C88.143 109.596 91.515 108.029 92.6282 104.983C92.8643 104.337 92.9851 103.655 92.985 102.967V93.3075H108.926C112.17 93.3074 114.8 90.6777 114.8 87.4337C114.8 86.443 114.549 85.4683 114.071 84.6004L113.983 84.4369C113.874 84.1187 113.738 83.8104 113.577 83.5156L104.015 66.1524L116.97 49.5786C118.097 48.1346 118.491 46.2492 118.036 44.4744Z" fill="white"/>
<path d="M27.2185 41.9398L19.994 26.2149L40.2152 27.4806L49.4528 6.96436L68.3832 22.9257L91.5573 14.6895L91.7144 37.2278L112.358 45.9441L96.9506 65.6586L108.936 87.4275H87.1198V102.96L71.132 97.2789L64.26 112.609L46.4147 100.496L23.8632 108.173L24.4579 87.9003L9.12211 82.2984L19.1497 66.4883L5.86523 50.4579L27.2185 41.9398Z" fill="#22093A" stroke="#22093A" stroke-linecap="round" stroke-linejoin="round"/>
<path d="M26.7222 40.8549L19.4977 25.1285L39.7189 26.3957L48.9565 5.87939L67.8869 21.8407L91.5573 14.6897L91.2181 36.1428L111.298 45.5816L96.4529 64.5737L108.438 86.3425H86.6235V101.875L70.6357 96.1939L63.7622 111.524L45.9184 99.4111L23.9616 107.426V86.8139L9.12211 82.2986L18.6534 65.4033L5.86523 50.4581L26.7222 40.8549Z" fill="#9736FF" stroke="#22093A" stroke-linecap="round" stroke-linejoin="round"/>
<path d="M84.4895 68.429C85.6475 69.0293 86.5886 73.4189 85.8329 76.1333C82.6294 87.6398 70.2241 86.7393 70.2241 86.7393C70.2241 86.7393 63.977 93.1151 51.9138 91.7421C39.6069 90.3412 31.3022 85.0383 29.1663 70.6302C26.7328 54.2145 41.1077 44.5155 44.9099 40.8134C48.712 37.1113 49.7126 34.2097 50.1128 27.0056C50.513 19.8016 54.015 13.3979 60.3186 13.3979C64.5209 13.3979 69.1545 18.4007 68.0229 28.4064C67.6283 33.3128 65.974 38.0343 63.2202 42.1141C63.2202 42.1141 76.1721 38.3527 81.6183 43.3148C83.7397 45.4507 84.7932 48.4243 84.4895 51.4194C87.2883 53.6775 88.8466 57.132 88.687 60.7246C88.7584 63.8567 87.1599 66.7907 84.4895 68.429Z" fill="#22093A" stroke="#22093A" stroke-linecap="round" stroke-linejoin="round"/>
<path d="M84.4895 51.4195C84.4895 55.9116 80.1897 60.9685 70.5243 62.7259C61.7193 64.3268 55.6895 62.2475 55.6895 56.5224C55.6895 48.1177 68.3231 48.1177 68.3231 48.1177" fill="#22093A"/>
<path d="M84.4895 51.4195C84.4895 55.9116 80.1897 60.9685 70.5243 62.7259C61.7193 64.3268 55.6895 62.2475 55.6895 56.5224C55.6895 48.1177 68.3231 48.1177 68.3231 48.1177" stroke="#22093A" stroke-linecap="round" stroke-linejoin="round"/>
<path d="M84.4895 68.4291C84.4895 68.4291 76.5396 71.4644 71.7923 73.4297C60.9106 77.9344 54.4152 68.6292 63.1201 63.2485" fill="#22093A"/>
<path d="M84.4895 68.4291C84.4895 68.4291 76.5396 71.4644 71.7923 73.4297C60.9106 77.9344 54.4152 68.6292 63.1201 63.2485" stroke="#22093A" stroke-linecap="round" stroke-linejoin="round"/>
<path d="M75.9594 72.0854C73.5154 73.1987 66.3974 74.0249 65.1167 78.5331C64.2977 82.1452 66.562 85.7373 70.1741 86.5562C70.815 86.7015 71.4737 86.7518 72.1292 86.7055" fill="#22093A"/>
<path d="M75.9594 72.0854C73.5154 73.1987 66.3974 74.0249 65.1167 78.5331C64.2977 82.1452 66.562 85.7373 70.1741 86.5562C70.815 86.7015 71.4737 86.7518 72.1292 86.7055" stroke="#22093A" stroke-linecap="round" stroke-linejoin="round"/>
<path d="M83.5774 67.7682C84.7354 68.3686 85.6765 72.7582 84.9208 75.4726C81.7173 86.979 69.312 86.0785 69.312 86.0785C69.312 86.0785 63.0649 92.4544 51.0017 91.0813C38.6948 89.6805 30.3901 84.3776 28.2542 69.9695C25.8207 53.5538 40.1956 43.8548 43.9978 40.1527C47.7999 36.4507 48.8005 33.549 49.2007 26.345C49.6009 19.1409 53.1029 12.7373 59.4065 12.7373C63.6088 12.7373 68.2424 17.7401 67.1108 27.7458C66.7162 32.6522 65.0619 37.3737 62.3081 41.4535C62.3081 41.4535 75.2599 37.6921 80.7062 42.6542C82.8276 44.7901 83.8811 47.7637 83.5774 50.7587C86.3762 53.0168 87.9345 56.4713 87.7749 60.064C87.8462 63.196 86.2477 66.1299 83.5774 67.7682Z" fill="#FCC707" stroke="#22093A" stroke-linecap="round" stroke-linejoin="round"/>
<path d="M83.5774 50.7589C83.5774 55.251 79.2776 60.3079 69.6122 62.0652C60.8072 63.6661 54.7773 61.5869 54.7773 55.8618C54.7773 47.457 67.411 47.457 67.411 47.457" fill="#FCC707"/>
<path d="M83.5774 50.7589C83.5774 55.251 79.2776 60.3079 69.6122 62.0652C60.8072 63.6661 54.7773 61.5869 54.7773 55.8618C54.7773 47.457 67.411 47.457 67.411 47.457" stroke="#22093A" stroke-linecap="round" stroke-linejoin="round"/>
<path d="M83.5774 67.7685C83.5774 67.7685 75.6275 70.8037 70.8802 72.769C59.9984 77.2737 53.5031 67.9686 62.208 62.5879" stroke="#22093A" stroke-linecap="round" stroke-linejoin="round"/>
<path d="M77.2003 70.2388C74.7563 71.3521 65.4873 73.3643 64.2065 77.8726C63.3876 81.4846 65.6518 85.0767 69.2639 85.8956C69.9048 86.0409 70.5636 86.0913 71.2191 86.045" stroke="#22093A" stroke-linecap="round" stroke-linejoin="round"/>
<path d="M50.0963 38.0303C49.5045 39.021 48.7563 39.9096 47.8809 40.6616" stroke="white" stroke-linecap="round" stroke-linejoin="round"/>
<path d="M55.6889 17.3379C52.7199 20.8449 51.9798 27.6968 51.8125 32.3807" stroke="white" stroke-linecap="round" stroke-linejoin="round"/>
<path d="M73.6328 57.2408C74.3681 56.8187 74.8738 56.4256 75.3863 56.1182" stroke="white" stroke-linecap="round" stroke-linejoin="round"/>
<path d="M57.877 56.7095C58.166 58.0416 63.1743 60.1331 68.2765 59.0875C69.3523 58.876 70.4121 58.59 71.4483 58.2316" stroke="white" stroke-linecap="round" stroke-linejoin="round"/>
<path d="M63.332 69.8961C65.914 70.6489 71.4405 68.8741 72.943 67.7959" stroke="white" stroke-linecap="round" stroke-linejoin="round"/>
<path d="M67.6094 79.9858C67.6094 81.443 68.6803 82.6363 71.4487 82.9002" stroke="white" stroke-linecap="round" stroke-linejoin="round"/>
<path d="M33.9961 75.188C35.0347 79.2844 37.7342 82.7622 41.4449 84.7845" stroke="#22093A" stroke-linecap="round" stroke-linejoin="round"/>
<path d="M27.9785 102.34L36.3251 99.4746" stroke="#22093A" stroke-linecap="round" stroke-linejoin="round"/>
<path d="M39.1582 98.3978L40.3919 98.0005" stroke="#22093A" stroke-linecap="round" stroke-linejoin="round"/>
<path d="M101.867 81.5198L98.4883 75.8296" stroke="#22093A" stroke-linecap="round" stroke-linejoin="round"/>
<path d="M97.1539 73.4786L96.7012 72.7383" stroke="#22093A" stroke-linecap="round" stroke-linejoin="round"/>
<path d="M27.5645 32.9902L30.5507 38.1015" stroke="#D9BBFF" stroke-linecap="round" stroke-linejoin="round"/>
<path d="M25.4082 29.3013L26.3113 30.847" stroke="#D9BBFF" stroke-linecap="round" stroke-linejoin="round"/>
<path d="M74.3125 23.3603L86.0201 20.0146" stroke="#D9BBFF" stroke-linecap="round" stroke-linejoin="round"/>
<path d="M11.2852 51.2628L12.8768 50.5996" stroke="#D9BBFF" stroke-linecap="round" stroke-linejoin="round"/>
<path d="M101.45 45.4183L92.8594 41.3296" stroke="#D9BBFF" stroke-linecap="round" stroke-linejoin="round"/>
</g>
<defs>
<clipPath id="clip0_5_11000">
<rect width="120" height="118.615" fill="white"/>
</clipPath>
</defs>
</svg>
